<?xml version="1.0" encoding="utf-8"?>
<!-- Generator: Adobe Illustrator 16.0.0, SVG Export Plug-In . SVG Version: 6.00 Build 0)  -->
<!DOCTYPE svg PUBLIC "-//W3C//DTD SVG 1.1//EN" "http://www.w3.org/Graphics/SVG/1.1/DTD/svg11.dtd">
<svg version="1.1" id="_x3C_Layer_x3E_" xmlns="http://www.w3.org/2000/svg" xmlns:xlink="http://www.w3.org/1999/xlink" x="0px"
	 y="0px" width="2576.36px" height="1702.723px" viewBox="0 0 2576.36 1702.723" enable-background="new 0 0 2576.36 1702.723"
	 xml:space="preserve">
<polygon fill="#D4E9FF" points="1503.8,1218.749 1078.047,1575.999 522.265,1575.999 96.511,1218.749 0,671.411 277.892,190.089 
	800.156,0 1322.42,190.089 1600.312,671.411 "/>
<path fill-rule="evenodd" clip-rule="evenodd" fill="#CCD8DD" d="M2115.936,1671.959H897.717c-8.459,0-15.377,6.918-15.377,15.374
	v0.008c0,8.456,6.918,15.382,15.377,15.382h1218.219c8.455,0,15.382-6.926,15.382-15.382v-0.008
	C2131.317,1678.877,2124.391,1671.959,2115.936,1671.959z"/>
<path fill-rule="evenodd" clip-rule="evenodd" fill="#CCD8DD" d="M804.576,1671.959H46.426c-8.459,0-15.378,6.918-15.378,15.374
	v0.008c0,8.456,6.918,15.382,15.378,15.382h758.149c8.456,0,15.382-6.926,15.382-15.382v-0.008
	C819.958,1678.877,813.031,1671.959,804.576,1671.959z"/>
<g>
	<path fill-rule="evenodd" clip-rule="evenodd" fill="#CC6633" d="M1613.436,651.705c0,0-26.52,135.422,6.295,181.343
		c12.103-3.509,49.805-11.831,49.805-11.831C1675.844,753.312,1670.142,691.684,1613.436,651.705z"/>
	<g>
		<path fill-rule="evenodd" clip-rule="evenodd" fill="#2B4B55" d="M1585.675,1362.28l-2.498,8.205h-6.525h-49.964h-5.891
			l-2.757-7.077c-0.059-0.159-21.882-56.556-32.318-93.528c-5.823-20.646-7.494-36.094-3.417-47.925
			c4.537-13.168,14.472-19.584,31.407-20.629c13.678-0.835,25.776-0.76,40.757-0.668c6.19,0.033,12.884,0.075,20.395,0.05h0.644
			l0.385,0.059C1633.165,1208.904,1585.809,1361.845,1585.675,1362.28L1585.675,1362.28z M1554.394,1219.816
			c-14.521-0.083-26.244-0.159-39.837,0.677c-8.799,0.543-13.395,2.239-14.497,5.439c-1.563,4.528,0.008,13.735,3.952,27.73
			c7.921,28.064,22.593,85.808,28.624,101.758h37.382c7.711-27.221,29.887-131.26,4.077-135.546
			C1566.851,1219.891,1560.384,1219.849,1554.394,1219.816z"/>
		<path fill-rule="evenodd" clip-rule="evenodd" fill="#375864" d="M1590.095,1207.292c-3.793-3.426-8.464-5.715-14.203-6.525
			l-0.385-0.059h-0.644c-7.511,0.025-14.204-0.017-20.395-0.05c-14.98-0.092-27.079-0.167-40.757,0.668
			c-16.936,1.045-26.87,7.461-31.407,20.629c-4.077,11.831-2.406,27.279,3.417,47.925c10.437,36.973,32.26,93.369,32.318,93.528
			l2.757,7.077h5.891h1.729c-5.74-16.251-12.842-36.596-19.191-55.537c-9.083-27.112-41.408-93.87,1.11-104.623
			C1533.882,1204.368,1569.558,1207.901,1590.095,1207.292z"/>
	</g>
	<path fill-rule="evenodd" clip-rule="evenodd" fill="#B64B26" d="M1582.091,1047.909c86.525,0.184,173.077,2.406,259.578,0.534
		c24.213-0.519,27.806,15.064,6.993,22.3c-22.342,7.771-36.954,18.123-48.535,40.306c-24.689,47.315-26.151,121.334-25.559,159.859
		l-1.888,49.362l-209.807-0.836C1569.274,1228.923,1575.683,1138.419,1582.091,1047.909z"/>
	<g>
		<rect x="1623.688" y="1348.51" fill-rule="evenodd" clip-rule="evenodd" fill="#002A38" width="32.722" height="284.807"/>
		<g>
			<path fill-rule="evenodd" clip-rule="evenodd" fill="#002A38" d="M1659.714,1618.507c35.656,5.77,62.447,10.152,96.114,23.633
				c4.031,1.608,16.255,7.511,18.395,8.853c2.15,1.341,0.81,9.947,0.81,9.947c-5.372,0-10.745,0-16.108,0
				c-0.811-2.57-0.436-4.254-1.817-5.582c-4.165-4.031-45.443-11.814-52.821-12.959c-4.366-0.664-23.215-2.368-35.978-2.485
				c-23.356-0.204-14.68,4.262-17.362,24.381c-1.508,6.278-17.612,6.278-19.12,0c-2.691-20.119,5.994-24.585-17.366-24.381
				c-12.759,0.117-31.612,1.821-35.974,2.485c-7.382,1.145-48.656,8.928-52.834,12.959c-1.37,1.328-0.998,3.012-1.809,5.582
				c-5.372,0-10.732,0-16.105,0c0,0-1.341-8.606,0.799-9.947c2.151-1.342,14.371-7.244,18.406-8.853
				c33.667-13.48,60.458-17.863,96.109-23.633C1638.267,1618.738,1644.504,1618.738,1659.714,1618.507z"/>
			<path fill-rule="evenodd" clip-rule="evenodd" fill="#1E3D47" d="M1775.032,1660.94c6.016-1.396,10.068,3.208,13.021,7.929
				c0.936,1.495,1.341,5.464,0.531,6.43c-0.803,1.206-10.073,2.548-14.362,2.276c-4.292-0.272-5.766-0.272-9.53-1.475
				c-2.794-0.895-4.105-2.641-4.758-4.896c-0.811-2.815-0.614-6.441-1.011-10.264
				C1764.287,1660.94,1769.66,1660.94,1775.032,1660.94z"/>
			<path fill-rule="evenodd" clip-rule="evenodd" fill="#1E3D47" d="M1507.768,1660.772c-6.028-1.383-10.068,3.213-13.022,7.929
				c-0.936,1.509-1.34,5.465-0.538,6.434c0.811,1.204,10.067,2.545,14.371,2.286c4.29-0.272,5.769-0.272,9.528-1.488
				c2.795-0.894,4.107-2.627,4.75-4.892c0.818-2.819,0.614-6.446,1.02-10.269C1518.504,1660.772,1513.14,1660.772,1507.768,1660.772
				z"/>
			<path fill-rule="evenodd" clip-rule="evenodd" fill="#284C57" d="M1774.761,1686.167c-6.212,0-11.275-4.767-11.275-10.606
				c0-5.853,5.063-10.611,11.275-10.611c6.204,0,11.275,4.759,11.275,10.611C1786.036,1681.401,1780.965,1686.167,1774.761,1686.167
				z"/>
			<path fill-rule="evenodd" clip-rule="evenodd" fill="#284C57" d="M1508.039,1686.004c-6.217,0-11.275-4.771-11.275-10.61
				c0-5.853,5.059-10.611,11.275-10.611c6.212,0,11.275,4.759,11.275,10.611C1519.314,1681.234,1514.251,1686.004,1508.039,1686.004
				z"/>
			<path fill-rule="evenodd" clip-rule="evenodd" fill="#002A38" d="M1774.761,1684.016c-4.954,0-8.999-3.802-8.999-8.455
				c0-4.667,4.045-8.472,8.999-8.472c4.946,0,8.99,3.805,8.99,8.472C1783.751,1680.214,1779.707,1684.016,1774.761,1684.016z"/>
			<path fill-rule="evenodd" clip-rule="evenodd" fill="#002A38" d="M1508.039,1683.853c-4.959,0-8.99-3.806-8.99-8.459
				c0-4.667,4.031-8.46,8.99-8.46c4.954,0,8.985,3.793,8.985,8.46C1517.024,1680.047,1512.993,1683.853,1508.039,1683.853z"/>
			<path fill-rule="evenodd" clip-rule="evenodd" fill="#002A38" d="M1648.94,1665.634h-0.013c-1.809,0-3.283,1.476-3.283,3.284
				v14.63c0,1.809,1.475,3.296,3.283,3.296h0.013c1.809,0,3.283-1.487,3.283-3.296v-14.63
				C1652.224,1667.11,1650.749,1665.634,1648.94,1665.634z"/>
			<path fill-rule="evenodd" clip-rule="evenodd" fill="#002A38" d="M1633.509,1665.634L1633.509,1665.634
				c-1.809,0-3.284,1.476-3.284,3.284v14.63c0,1.809,1.476,3.296,3.284,3.296l0,0c1.809,0,3.291-1.487,3.291-3.296v-14.63
				C1636.8,1667.11,1635.317,1665.634,1633.509,1665.634z"/>
			<path fill-rule="evenodd" clip-rule="evenodd" fill="#2B4B55" d="M1647.796,1661.332h-12.884c-0.823,0-1.487,0.665-1.487,1.476
				v16.514c0,0.811,0.664,1.475,1.487,1.475h12.884c0.811,0,1.475-0.664,1.475-1.475v-16.514
				C1649.271,1661.997,1648.606,1661.332,1647.796,1661.332z"/>
		</g>
		<path fill-rule="evenodd" clip-rule="evenodd" fill="#8091A1" d="M1654.292,1586.043h-28.057c-2.892,0-5.26,2.369-5.26,5.26
			v28.951c0,2.898,2.368,5.259,5.26,5.259h28.057c2.887,0,5.255-2.36,5.255-5.259v-28.951
			C1659.547,1588.413,1657.179,1586.043,1654.292,1586.043z"/>
	</g>
	<path fill-rule="evenodd" clip-rule="evenodd" fill="#913C20" d="M1776.256,1316.644h-248.858
		c-11.939,0-21.715,9.775-21.715,21.715v11.781c0,11.938,9.775,21.706,21.715,21.706h248.858c11.948,0,21.716-9.768,21.716-21.706
		v-11.781C1797.972,1326.419,1788.204,1316.644,1776.256,1316.644z"/>
	<path fill-rule="evenodd" clip-rule="evenodd" fill="#B64B26" d="M1505.683,1344.592v5.548c0,11.938,9.775,21.706,21.715,21.706
		h248.858c11.948,0,21.716-9.768,21.716-21.706v-5.548H1505.683z"/>
	<path fill-rule="evenodd" clip-rule="evenodd" fill="#07243A" d="M1535.177,1321.422c0,0-43.097-8.213-47.884-16.961
		c-4.787-8.747,47.265-18.531,47.265-18.531c7.361,5.414,14.723,10.828,22.074,16.242
		C1554.895,1308.589,1554.201,1320.837,1535.177,1321.422z"/>
	<g>
		<path fill-rule="evenodd" clip-rule="evenodd" fill="#F69B7F" d="M1373.049,1261.754c-9.203,8.715-11.965,25.124-12.195,46.772
			h-0.104c0.021,1.132,0.059,2.31,0.096,3.518c0,2.636,0.038,5.33,0.104,8.101l0.222,0.029
			c1.763,37.355,7.899,100.788,10.402,152.122c0.564,11.635,3.074,119.299-4.938,141.737c-4.19,11.714-9.212,30.408-10.322,34.318
			c-1.116,3.902-3.07,11.158-5.159,12.55c-2.09,1.391-2.657,7.114,0.978,7.114c3.622,0,27.329-19.251,31.098-22.45
			c3.769-3.213,20.37-16.46,20.37-19.117c0-2.644-5.021-14.082-5.865-17.148c-7.813-28.671,15.481-98.203,22.02-123.498
			c5.777-22.366,8.435-43.827,11.396-59.51c6.559-34.724-2.436-87.361-6.692-108.768c-0.03-4.457,0.176-8.576-0.669-14.187
			c4.88-3.372,21.615-5.206,39.6-3.325c17.993,1.872,77.649,7.507,79.449,5.99c0.251-0.209,22.567,1.546,13.113-30.351
			c0,0-91.222-42.915-90.645-38.392C1447.121,1247.205,1390.975,1244.777,1373.049,1261.754z"/>
		<g>
			<path fill-rule="evenodd" clip-rule="evenodd" fill="#0B314F" d="M1352.708,1658.851c0,0-0.999-0.46-2.745,0.171
				c-4.888,1.976-17.922,4.44-18.48,6.479c-0.49,1.813-0.623,12.558,3.768,14.296c6.529,2.598,31.453,4.732,36.813-3.443
				c7.494-11.438,12.203-22.604,23.523-30.685c5.303-3.788,10.658-4.916,14.705-8.973c5.887-5.887-5.568-17.141-9.203-20.783
				c-7.151,7.907-33.215,41.161-42.168,43.05C1356.627,1659.444,1354.922,1658.976,1352.708,1658.851z"/>
			<path fill-rule="evenodd" clip-rule="evenodd" fill="#3D272B" d="M1331.265,1667.69c-0.126,3.776,0.526,10.736,3.985,12.107
				c6.529,2.598,31.453,4.732,36.813-3.443c7.494-11.438,12.203-22.604,23.523-30.685c5.303-3.788,10.658-4.916,14.705-8.973
				c0.306-0.297,0.557-0.614,0.766-0.948c-1.867,0.852-4.977,2.135-8.636,4.064c-4.583,2.406-9.099,5.836-14.083,10.678
				c-7.879,7.658-13.393,20.68-22.768,22.701C1355.736,1675.31,1341.078,1672.231,1331.265,1667.69z"/>
			<path fill-rule="evenodd" clip-rule="evenodd" fill="#0B314F" d="M1396.631,1644.96c1.963,13.017,3.2,23.745,3.673,36.754
				l3.709,0.029c0.029-15.925,0.134-24.589,5.339-39.537c0.556-1.6,1.734-6.487,1.734-6.487
				C1406.264,1638.793,1401.443,1641.873,1396.631,1644.96z"/>
		</g>
	</g>
	<path fill-rule="evenodd" clip-rule="evenodd" fill="#F7A389" d="M1420.598,1621.165c-4.182,11.714-9.203,30.408-10.318,34.318
		c-1.119,3.902-3.074,11.159-5.163,12.546c-2.093,1.391-2.649,7.114,0.978,7.114c3.621,0,27.338-19.25,31.105-22.45
		c3.769-3.213,20.362-16.46,20.362-19.117c0-2.644-5.026-14.078-5.857-17.148c-5.484-20.082,1.646-54.054,4.198-74.646
		c8.902-72.029,18.549-145.576,4.053-215.111c78.242,11.358,125.962,14.463,160.397,1.592
		c-1.249-21.485-21.389-47.023-22.634-68.504c0,0-29.832-36.658-83.743-24.089c-36.65,8.548-100.685,26.649-113.493,43.585
		c-6.938,9.187-5.547,22.233-3.613,39.767c-8.435,81.818,9.002,140.771,22.203,225.088
		C1423.568,1572.842,1426.738,1609.354,1420.598,1621.165z"/>
	<path fill-rule="evenodd" clip-rule="evenodd" fill="#3C3C3B" d="M1755.535,1178.228c8.301,16.113,28.575,60.671,27.05,87.847
		c-1.524,27.137-21.69,55.294-64.802,65.81c-68.278,16.643-168.658,14.32-219.069,12.24c-7.439-50.449-46.304-94.807-103.657-92.509
		c76.759-30.024,170.211-78.534,182.205-81.074C1666.536,1156.926,1666.261,1191.831,1755.535,1178.228z"/>
	<g>
		<path fill-rule="evenodd" clip-rule="evenodd" fill="#0B314F" d="M1406.678,1665.978c0,0-1.007-0.46-2.752,0.162
			c-4.889,1.984-17.927,4.449-18.474,6.493c-0.489,1.813-0.632,12.557,3.768,14.291c6.521,2.598,31.453,4.737,36.813-3.443
			c7.486-11.434,12.202-22.592,23.512-30.684c5.301-3.785,10.66-4.917,14.717-8.961c5.887-5.895-5.573-17.149-9.216-20.792
			c-7.147,7.908-33.204,41.161-42.155,43.05C1410.589,1666.583,1408.88,1666.103,1406.678,1665.978z"/>
		<path fill-rule="evenodd" clip-rule="evenodd" fill="#3D272B" d="M1385.223,1674.817c-0.113,3.776,0.525,10.737,3.997,12.107
			c6.521,2.598,31.453,4.737,36.813-3.443c7.486-11.434,12.202-22.592,23.512-30.684c5.301-3.785,10.66-4.917,14.717-8.961
			c0.297-0.31,0.556-0.623,0.765-0.961c-1.876,0.856-4.983,2.139-8.635,4.064c-4.592,2.415-9.1,5.841-14.083,10.678
			c-7.879,7.671-13.394,20.68-22.768,22.701C1409.694,1682.437,1395.047,1679.363,1385.223,1674.817z"/>
		<path fill-rule="evenodd" clip-rule="evenodd" fill="#0B314F" d="M1450.593,1652.087c1.972,13.021,3.2,23.745,3.668,36.754
			l3.723,0.029c0.017-15.921,0.133-24.589,5.326-39.532c0.56-1.6,1.738-6.492,1.738-6.492
			C1460.234,1645.925,1455.414,1649.012,1450.593,1652.087z"/>
	</g>
	<path fill-rule="evenodd" clip-rule="evenodd" fill="#282828" d="M1571.518,1175.684c-19.037,5.51-91.807,38.316-167.313,72.025
		c27.492,0.427,62.087,1.412,96.777,0.552c49.589-1.225,99.394-6.226,129.042-22.037c7.975-4.248,24.585-19.89,29.188-30.22
		C1638.91,1189.734,1591.653,1187.373,1571.518,1175.684z"/>
	<path fill-rule="evenodd" clip-rule="evenodd" fill="#F69B7F" d="M1378.751,1127.837c0,0-16.334,27.368-19.138,30.167
		c-2.799,2.795-8.91,10.144-10.932,7.361c-2.019-2.787-2.641-4.169,0.375-8.627c3.025-4.462,5.039-10.235,5.039-10.235
		c-4.926-0.079-8.098,0.464-10.737,1.704c-4.144,1.952-6.007,4.851-7.804,6.781c-3.342,3.612-4.695,6.759-7.712,14.27
		c0,0-4.825,2.808-6.291-1.094c-1.454-3.91,7.46-24.313,7.46-24.313s2.433-7.398,13.382-14.593
		c10.94-7.197,29.331-12.215,29.331-12.215L1378.751,1127.837z"/>
	<path fill-rule="evenodd" clip-rule="evenodd" fill="#282828" d="M1543.907,1033.057c-4.528-3.472-19.154-12.073-29.093-18.465
		c29.72-64.896,22.714-51.192,46.238-119.466c2.515-18.415,7.773-34.912,15.507-44.091c7.369-8.756,15.959-11.518,23.382-9.537
		c36.199,9.683-17.449,123.794-31.152,160.896C1562.865,1018.444,1553.683,1040.551,1543.907,1033.057z"/>
	<path fill-rule="evenodd" clip-rule="evenodd" fill="#282828" d="M1484.92,1084.855c-20.537,10.632-51.793,23.717-65.479,31.583
		l-43.422,21.071c-4.545-10.494-7.862-14.212-12.411-24.706c0,0,33.35-14.922,49.521-27.075
		c16.171-12.148,56.644-45.352,70.806-56.686c15.578-12.474,52.529-39.11,70.225-16.79
		C1574.931,1038.434,1500.228,1076.925,1484.92,1084.855z"/>
	<rect x="1658.415" y="746.805" fill-rule="evenodd" clip-rule="evenodd" fill="#F69B7F" width="62.463" height="103.303"/>
	<path fill-rule="evenodd" clip-rule="evenodd" fill="#3C3C3B" d="M1721.087,805.007c0,0-0.025,5.698,14.739,12.458
		c23.536,10.778,62.287,2.932,78.145,14.546c10.813,7.92,9,19.894,5.591,37.807c-5.164,27.129-14.639,46.07-21.532,58.987
		c-6.884,12.918-31.857,56.841-38.742,71.479c-15.04,31.942-25.417,53.582-27.113,76.65c-0.659,8.99-0.701,18.39,0.744,28.733
		c2.933,20.955,18.707,52.354,29.553,73.793c-36.02,17.788-154.521,29.018-204.811,13.92
		c18.975-61.745,21.013-124.601,19.501-188.785c-14.129-8.772-26.703-17.42-30.196-29.461
		c-6.625-22.867,16.084-46.178,23.312-66.982c5.348-15.398-0.836-28.524,0.627-37.908c4.186-26.844,26.285-31.565,48.827-37.196
		c8.547-2.131,18.406-4.638,28.825-11.84c4.32-2.991,6.559-8.998,7.972-12.699c6.483,9.984-0.511,13.518,29.351,13.301
		C1702.405,821.692,1719.834,813.98,1721.087,805.007z"/>
	<path fill-rule="evenodd" clip-rule="evenodd" fill="#FF458C" d="M1721.112,805.232c0.167,1.12,1.671,6.258,14.714,12.232
		c8.839,4.043,10.707,3.292,16.321,4.762c-15.892,37.606-89.3,106.411-132.078,144.197c-14.259-33.867,3.766-125.098,11.764-136.886
		c4.612-1.696,9.091-3.568,16.723-8.331c4.32-2.991,6.538-12.148,9.747-13.953c2.473,9.358-2.286,14.772,27.575,14.555
		c16.443-0.117,33.78-7.754,35.184-16.669L1721.112,805.232z"/>
	<path fill-rule="evenodd" clip-rule="evenodd" fill="#282828" d="M1820.472,864.914c-0.284,1.588-0.593,3.217-0.91,4.904
		c-5.164,27.129-14.639,46.07-21.532,58.987c-6.884,12.918-31.857,56.841-38.742,71.479c-8.214,17.446-15.031,31.809-19.811,45.019
		c-3.96,10.519-6.508,20.252-7.269,30.278c-0.108,1.345-0.176,2.699-0.209,4.061c-0.476,8.172-0.376,16.719,0.919,26.026
		c2.766,19.727,16.903,48.711,27.605,69.925c-9.508,4.954-74.813,20.198-92.684,23.265
		c-10.628-103.872,40.698-165.512-89.943-171.511c-0.117-6.291-0.134-16.317-0.409-22.609
		c27.171,5.131,113.821,12.617,147.034-16.826c22.634-18.758,38.542-52.129,56.623-114.132l39.436-17.104
		C1820.848,859.19,1820.772,861.931,1820.472,864.914z"/>
	<path fill-rule="evenodd" clip-rule="evenodd" fill="#EF8972" d="M1656.502,772.79l1.913,28.758
		c15.307,1.379,40.849,1.111,62.463-4.67l-0.793-41.091L1656.502,772.79z"/>
	<path fill-rule="evenodd" clip-rule="evenodd" fill="#F69B7F" d="M1746.319,735.715c-14.859,37.718-40.108,55.573-80.715,57.923
		c-4.19,0.511-13.418,1.485-16.2,1.186c-0.506-0.058-0.686-0.075-0.841-0.135c-4.595-2.281-10.842-6.816-15.23-10.298
		c-7.384-5.848-12.33-11.795-15.714-20.461c-5.107-13.065-6.465-28.236-5.905-42.338c-0.869-31.664,5.951-65.262,14.247-80.038
		c28.782-49.137,97.616-44.232,129.733-2.617C1787.766,680.513,1773.745,747.476,1746.319,735.715z"/>
	<path fill-rule="evenodd" clip-rule="evenodd" fill="#EF8972" d="M1615.313,675.719c2.638-14.411,6.45-26.695,10.647-34.166
		c4.314-7.355,9.523-13.497,15.376-18.488c9.839-1.849,24.193,9.809,24.193,9.809c-35.92,14.726-39.036,26.131-52.576,61.009
		C1612.954,693.883,1613.857,685.597,1615.313,675.719z"/>
	<path fill-rule="evenodd" clip-rule="evenodd" fill="#EF8972" d="M1634.766,629.467c8.418-9.364,18.69-15.779,29.812-19.461
		c11.196,4.677,31.758,13.719,31.758,13.719s18.557,5.671,20.8,11.983c2.239,6.314,9.764,40.447,9.399,43.421
		c-0.363,2.977-6.797,33.887-6.797,33.887c-20.235-18.816-32.856-39.968-53.748-56.344
		C1651.184,645.071,1635.938,635.579,1634.766,629.467z"/>
	<path fill-rule="evenodd" clip-rule="evenodd" fill="#F58C67" d="M1747.794,709.057c4.32,1.612,6.175,7.298,4.157,12.7
		c-2.014,5.403-7.152,8.479-11.468,6.87c-4.303-1.611-6.174-7.301-4.148-12.704C1738.357,710.521,1743.479,707.444,1747.794,709.057
		z"/>
	<path fill-rule="evenodd" clip-rule="evenodd" fill="#5D2400" d="M1619.839,690.173c-2.535,1.419-4.012-2.041-1.487-3.455
		c4.293-2.431,7.819-3.516,11.34-4.071c4.443-0.702,8.937-0.393,15.159,1.124c3.509,0.854,2.465,7.24-0.934,6.875
		c-6.565-1.6-9.346-3.179-13.258-3.294C1627.892,687.274,1624.117,687.767,1619.839,690.173z"/>
	<path fill-rule="evenodd" clip-rule="evenodd" fill="#5D2400" d="M1708.283,703.82c2.164,1.746,4.235-0.708,2.063-2.453
		c-4.904-3.975-9.509-7.567-14.951-9.579c-5.432-2.014-11.697-2.429-17.597-2.652c-3.534-0.134-4.27,5.963-0.939,6.467
		c5.99,0.23,11.948,0.218,17.437,1.69C1699.139,698.596,1704.159,700.488,1708.283,703.82z"/>
	<g>
		<path fill-rule="evenodd" clip-rule="evenodd" fill="#262262" d="M1683.51,705.865c3.017,0.027,5.448,2.499,5.414,5.514
			c-0.025,3.017-2.489,5.439-5.51,5.415c-3.017-0.025-5.436-2.496-5.41-5.513C1678.024,708.265,1680.494,705.84,1683.51,705.865z"/>
		<path fill-rule="evenodd" clip-rule="evenodd" fill="#5D2400" d="M1673.722,710c5.26-9.972,20.625-4.374,26.833,1.003
			l-2.732,2.506c-2.186-1.891-4.604-3.739-6.817-4.865c-1.793-0.909-4.521-2.055-7.462-2.121c-3.864-0.094-7.569,2.016-9.457,4.217
			L1673.722,710z"/>
	</g>
	<g>
		<path fill-rule="evenodd" clip-rule="evenodd" fill="#262262" d="M1632.106,698.268c2.877,0.023,5.185,2.375,5.161,5.253
			c-0.024,2.878-2.381,5.193-5.262,5.168c-2.867-0.031-5.182-2.381-5.159-5.258C1626.872,700.555,1629.227,698.243,1632.106,698.268
			z"/>
		<path fill-rule="evenodd" clip-rule="evenodd" fill="#5D2400" d="M1642.256,706.036c-0.012-0.015-3.996-6.375-9.091-7.221
			c-5.169-0.854-11.195,3.463-11.206,3.478l-2.194-2.417c0.021-0.01,7.379-3.858,13.727-2.806c6.422,1.06,9.901,8.274,9.914,8.293
			L1642.256,706.036z"/>
	</g>
	<g>
		<path fill="#CE785E" d="M1654.776,740.317c-2.327,0-4.758-0.493-6.408-1.713c-1.604-1.186-2.265-2.914-1.863-4.864l0.765-1.791
			c2.018-4.437,5.777-12.696,5.66-17.792c-0.021-0.9,0.689-1.647,1.592-1.668c0.898,0.019,1.646,0.693,1.667,1.593
			c0.138,5.843-3.822,14.544-5.953,19.219l-0.644,1.429c-0.037,0.366,0.139,0.825,0.715,1.251c1.959,1.452,6.821,1.264,8.539,0.328
			c0.785-0.428,1.783-0.142,2.214,0.647c0.431,0.792,0.138,1.782-0.651,2.214C1659.134,739.869,1657.003,740.317,1654.776,740.317z"
			/>
	</g>
	<path fill-rule="evenodd" clip-rule="evenodd" fill="#CC6633" d="M1665.53,632.874c-37.747,6.091-43.805,27.002-52.879,62.189
		c-3.822-63,9.36-102.125,63.126-106.846C1676.504,602.891,1672.937,619.572,1665.53,632.874z"/>
	
		<radialGradient id="SVGID_1_" cx="831.4756" cy="578.439" r="16.2043" gradientTransform="matrix(-0.9614 -0.2752 -0.2752 0.9614 2587.5139 399.7776)" gradientUnits="userSpaceOnUse">
		<stop  offset="0" style="stop-color:#F58A62"/>
		<stop  offset="1" style="stop-color:#F69B7F"/>
	</radialGradient>
	<path fill-rule="evenodd" clip-rule="evenodd" fill="url(#SVGID_1_)" d="M1629.46,714.947
		c-10.508,0.613-16.275,4.996-17.407,11.565c-1.131,6.559,2.794,12.825,13.293,12.215c10.5-0.608,19.937-6.433,21.067-13
		C1647.554,719.17,1639.958,714.337,1629.46,714.947z"/>
	
		<radialGradient id="SVGID_2_" cx="772.4297" cy="569.4634" r="16.1084" gradientTransform="matrix(-0.9614 -0.2752 -0.2752 0.9614 2587.5139 399.7776)" gradientUnits="userSpaceOnUse">
		<stop  offset="0" style="stop-color:#F58A62"/>
		<stop  offset="1" style="stop-color:#F69B7F"/>
	</radialGradient>
	<path fill-rule="evenodd" clip-rule="evenodd" fill="url(#SVGID_2_)" d="M1689.082,722.36c10.285,3.207,18.228,11.319,17.73,18.128
		c-0.498,6.812-9.241,9.73-19.526,6.526c-10.294-3.207-18.223-11.328-17.729-18.128
		C1670.058,722.076,1678.789,719.154,1689.082,722.36z"/>
	<path fill-rule="evenodd" clip-rule="evenodd" fill="#F09933" d="M1659.924,591.084c14.733-10.283,62.434-5.772,88.347,7.943
		c57.278,28.503,54.497,211.049,33.153,225.614c-7.272-1.166-57.617,2.152-61.628-23.537
		c-13.754-88.107,2.599-127.213-70.258-165.229C1640.886,615.865,1659.924,591.084,1659.924,591.084z"/>
	<path fill-rule="evenodd" clip-rule="evenodd" fill="#FFCC52" d="M1659.924,591.086c14.733-10.282,62.434-5.774,88.347,7.946
		c57.278,28.499,54.769,208.313,33.153,225.61c-9.312,0-19.116-0.542-29.276-2.415c1.851-84.995-12.637-206.454-94.974-227.102
		C1658.771,592.575,1659.924,591.086,1659.924,591.086z"/>
	<path fill-rule="evenodd" clip-rule="evenodd" fill="#3C3C3B" d="M1797.044,1062.588c-4.963-2.824-22.375-11.413-33.087-16.401
		c0,0,14.505-47.884,14.07-61.786c-0.435-13.903-3.476-82.524-3.476-97.296c0-18.591,2.991-35.643,9.407-45.778
		c6.125-9.675,14.263-13.568,21.883-12.607c35.468,4.495,21.021,109.394,17.454,161.563c-0.51,7.478-0.911,27.521-4.988,45.887
		C1814.599,1052.872,1807.738,1068.696,1797.044,1062.588z"/>
	<g>
		<path fill-rule="evenodd" clip-rule="evenodd" fill="#2B4B55" d="M1794.738,1364.954l-2.498,8.205h-6.525h-49.965h-5.89
			l-2.758-7.077c-0.059-0.167-21.882-56.556-32.317-93.528c-5.824-20.653-7.494-36.094-3.417-47.934
			c4.536-13.168,14.471-19.576,31.407-20.62c13.677-0.844,25.775-0.769,40.756-0.677c6.191,0.033,12.884,0.075,20.395,0.059
			l0.644-0.009l0.385,0.059C1842.229,1211.578,1794.871,1364.51,1794.738,1364.954L1794.738,1364.954z M1763.456,1222.481
			c-14.521-0.083-26.243-0.159-39.837,0.677c-8.798,0.544-13.394,2.239-14.497,5.439c-1.562,4.537,0.009,13.736,3.952,27.73
			c7.921,28.065,22.593,85.808,28.625,101.758h37.381c7.712-27.213,29.887-131.26,4.078-135.546
			C1775.905,1222.556,1769.447,1222.523,1763.456,1222.481z"/>
		<path fill-rule="evenodd" clip-rule="evenodd" fill="#375864" d="M1799.158,1209.957c-3.794-3.417-8.465-5.706-14.204-6.525
			l-0.385-0.059l-0.644,0.009c-7.511,0.017-14.203-0.025-20.395-0.059c-14.98-0.092-27.079-0.167-40.756,0.677
			c-16.937,1.044-26.871,7.452-31.407,20.62c-4.077,11.84-2.407,27.28,3.417,47.934c10.436,36.964,32.259,93.361,32.317,93.528
			l2.758,7.077h5.89h1.73c-5.74-16.251-12.843-36.604-19.192-55.546c-9.09-27.112-41.408-93.862,1.111-104.623
			C1742.943,1207.042,1778.621,1210.567,1799.158,1209.957z"/>
	</g>
	<g>
		<path fill="#EB604F" d="M1655.746,759.539c-6.096,0-11.359-2.047-18.064-6.408c-0.752-0.489-0.965-1.496-0.476-2.248
			c0.484-0.754,1.503-0.961,2.247-0.476c10.289,6.69,16.563,7.421,29.243,3.392c0.844-0.278,1.767,0.201,2.043,1.055
			c0.271,0.856-0.201,1.769-1.058,2.041C1664.227,758.63,1659.802,759.539,1655.746,759.539z"/>
	</g>
	<path fill-rule="evenodd" clip-rule="evenodd" fill="#F69B7F" d="M1618.586,1152.323c0,0-33.597-0.985-37.966,0.802
		c-4.37,1.789-14.713,14.906-10.335,16.896c4.369,1.979,11.923,0.592,13.711-1.597c1.788-2.189,2.781-4.562,8.347-4.771
		c5.572-0.201,8.154,6.566,16.1,5.172c7.954-1.396,16.895-4.771,16.895-4.771l-1.587-11.329L1618.586,1152.323z"/>
	<path fill-rule="evenodd" clip-rule="evenodd" fill="#3C3C3B" d="M1805.398,1062.88c0,0-57.574,42.026-77.887,53.072
		c-20.311,11.054-51.3,24.773-64.818,32.92l-36.27,18.523c-4.763-10.402-6.936-10.327-11.697-20.738
		c0,0,25.106-15.883,41.031-28.357c15.917-12.482,55.704-46.496,69.632-58.126c19.159-15.993,22.969-16.318,45.645-28.943
		C1781.52,1041.492,1808.824,1053.707,1805.398,1062.88z"/>
</g>
<g>
	<polygon fill-rule="evenodd" clip-rule="evenodd" fill="#B8ADB0" points="1878.244,1157.444 1902.499,1070.568 1937.173,1070.242 
		1937.173,1070.225 1943.401,1070.063 1935.689,1157.081 1924.381,1157.106 1924.381,1157.115 	"/>
	<polygon fill-rule="evenodd" clip-rule="evenodd" fill="#C2B8BA" points="1878.244,1157.444 1899.228,1082.26 1909.951,1079.349 
		1887.347,1157.377 	"/>
	<rect x="1879.38" y="1159.112" fill-rule="evenodd" clip-rule="evenodd" fill="#8DA2B1" width="89.254" height="7.619"/>
	<path fill-rule="evenodd" clip-rule="evenodd" fill="#A9A1A3" d="M1861.445,1151.111h106.077c4.383,0,7.958,3.577,7.958,7.959l0,0
		c0,4.378-3.575,7.954-7.958,7.954h-106.077c-4.37,0-7.949-3.576-7.949-7.954l0,0
		C1853.496,1154.688,1857.075,1151.111,1861.445,1151.111z"/>
	<rect x="1908.937" y="1159.112" fill-rule="evenodd" clip-rule="evenodd" fill="#93A7B8" width="59.697" height="7.619"/>
	<path fill-rule="evenodd" clip-rule="evenodd" fill="#C4BBBD" d="M2002.522,950.215c9.12,47.165,17.161,88.753,26.281,135.922
		c2.569,13.298,0.814,15.62-15.9,15.62l-109.987,0.009l0,0h-57.876c-15.094,0-14.872-0.343-17.366-13.227
		c-9.115-47.178-17.157-88.761-26.276-135.935c-2.574-13.293-0.815-15.607,15.896-15.616l109.991-0.008v0.004l57.872-0.004
		C2000.254,936.981,2000.032,937.324,2002.522,950.215z"/>
	<g>
		<path fill-rule="evenodd" clip-rule="evenodd" fill="#FFFFFF" d="M1811.001,945.186c30.25-0.042,60.471-0.084,90.595-0.13
			c30.029-0.037,60.012-0.083,89.902-0.121c4.749,24.389,9.504,48.794,14.263,73.217c4.758,24.455,9.537,48.961,14.312,73.462
			c-29.97,0.238-60.023,0.485-90.136,0.736c-30.187,0.246-60.495,0.501-90.82,0.752c-4.7-24.702-9.396-49.421-14.082-74.078
			C1820.354,994.398,1815.672,969.78,1811.001,945.186z"/>
		<g>
			<path fill="#BBC3C7" d="M1853.88,1084.204l-11.25-60.12c-2.47-13.146-4.926-26.302-7.378-39.453l-3.827-20.495l4.003-0.743
				l3.83,20.495c2.452,13.143,4.905,26.298,7.374,39.444l11.255,60.12L1853.88,1084.204z"/>
		</g>
		<path fill-rule="evenodd" clip-rule="evenodd" fill="#F3805C" d="M1855.354,1009.742c4.319-0.021,8.635-0.037,12.955-0.054
			c2.075,10.861,4.156,21.735,6.237,32.605c2.08,10.874,4.161,21.77,6.241,32.665c-4.324,0.029-8.644,0.063-12.968,0.092
			c-2.084-10.903-4.161-21.799-6.237-32.686C1859.508,1031.495,1857.427,1020.612,1855.354,1009.742z"/>
		<path fill-rule="evenodd" clip-rule="evenodd" fill="#F3805C" d="M1868.489,981.046c4.311-0.013,8.614-0.025,12.95-0.037
			c2.995,15.624,5.995,31.265,8.994,46.909c3,15.662,6.008,31.341,9.012,47.031c-4.324,0.029-8.644,0.063-12.968,0.092
			c-3.004-15.694-6.007-31.382-9.003-47.057C1874.479,1012.332,1871.484,996.687,1868.489,981.046z"/>
		<path fill-rule="evenodd" clip-rule="evenodd" fill="#F3805C" d="M1955.867,979.747c4.278-0.008,8.556-0.024,12.816-0.037
			c3.021,15.554,6.041,31.127,9.065,46.705c3.024,15.604,6.054,31.215,9.087,46.831c-4.27,0.033-8.556,0.063-12.842,0.092
			c-3.028-15.625-6.054-31.249-9.078-46.852C1961.899,1010.891,1958.88,995.308,1955.867,979.747z"/>
		<path fill-rule="evenodd" clip-rule="evenodd" fill="#F3805C" d="M1896.834,1011.789c4.299-0.025,8.623-0.037,12.917-0.063
			c2.018,10.478,4.036,20.979,6.05,31.44c2.013,10.474,4.035,20.98,6.048,31.475c-4.303,0.029-8.626,0.063-12.934,0.091
			c-2.014-10.493-4.027-21.009-6.04-31.486C1900.861,1032.782,1898.848,1022.271,1896.834,1011.789z"/>
		<path fill-rule="evenodd" clip-rule="evenodd" fill="#F3805C" d="M1917.533,1000.197c4.304-0.018,8.586-0.029,12.885-0.051
			c2.377,12.315,4.758,24.665,7.131,37.001c2.381,12.332,4.771,24.711,7.151,37.051c-4.303,0.037-8.589,0.071-12.9,0.101
			c-2.377-12.357-4.762-24.739-7.135-37.08C1922.288,1024.881,1919.906,1012.525,1917.533,1000.197z"/>
		<path fill-rule="evenodd" clip-rule="evenodd" fill="#F3805C" d="M1932.243,966.529c4.277-0.012,8.556-0.025,12.854-0.029
			c3.45,17.847,6.909,35.71,10.369,53.573c3.458,17.889,6.922,35.798,10.385,53.724c-4.303,0.029-8.589,0.063-12.875,0.093
			c-3.468-17.935-6.923-35.853-10.382-53.753C1939.145,1002.264,1935.689,984.383,1932.243,966.529z"/>
		<g>
			
				<rect x="1925.665" y="996.779" transform="matrix(0.0113 0.9999 -0.9999 0.0113 2980.354 -865.2422)" fill="#BBC3C7" width="4.073" height="155.335"/>
		</g>
	</g>
</g>
<g>
	<g>
		<polygon fill="#BCC7CC" points="1007.607,901.459 1046.398,1672.432 1075.539,1670.954 1036.754,899.993 		"/>
		<polygon fill="#A7B1B5" points="1009.596,941.196 1013.148,1011.447 1042.291,1009.985 1038.738,939.738 		"/>
	</g>
	<g>
		<polygon fill="#BCC7CC" points="953.52,901.459 914.715,1672.432 885.576,1670.954 924.379,899.993 		"/>
		<polygon fill="#A7B1B5" points="951.517,941.196 947.988,1011.447 918.842,1009.985 922.374,939.738 		"/>
	</g>
	<rect x="730.861" y="208.112" fill="#F2EADA" width="510.072" height="761.124"/>
	<g opacity="0.54">
		<g>
			<defs>
				<polygon id="SVGID_3_" points="730.826,208.043 1242.074,962.142 738.046,963.897 				"/>
			</defs>
			<clipPath id="SVGID_4_">
				<use xlink:href="#SVGID_3_"  overflow="visible"/>
			</clipPath>
			<polygon clip-path="url(#SVGID_4_)" fill="#FFFFFF" points="1242.074,347.958 893.488,208.043 1242.074,208.043 			"/>
			<polygon clip-path="url(#SVGID_4_)" fill="#FFFFFF" points="1242.074,353.172 880.512,208.043 893.488,208.043 1242.074,347.958 
							"/>
			<polygon clip-path="url(#SVGID_4_)" fill="#FEFEFE" points="1242.074,358.367 867.556,208.043 880.512,208.043 1242.074,353.172 
							"/>
			<polygon clip-path="url(#SVGID_4_)" fill="#FDFDFD" points="1242.074,363.583 854.58,208.043 867.556,208.043 1242.074,358.367 
							"/>
			<polygon clip-path="url(#SVGID_4_)" fill="#FCFCFC" points="1242.074,368.784 841.623,208.043 854.58,208.043 1242.074,363.583 
							"/>
			<polygon clip-path="url(#SVGID_4_)" fill="#FBFBFB" points="1242.074,373.994 828.648,208.043 841.623,208.043 1242.074,368.784 
							"/>
			<polygon clip-path="url(#SVGID_4_)" fill="#FAFAFA" points="1242.074,379.188 815.672,208.043 828.648,208.043 1242.074,373.994 
							"/>
			<polygon clip-path="url(#SVGID_4_)" fill="#F9F9F9" points="1242.074,384.402 802.701,208.043 815.672,208.043 1242.074,379.188 
							"/>
			<polygon clip-path="url(#SVGID_4_)" fill="#F8F8F8" points="1242.074,389.601 789.744,208.043 802.701,208.043 1242.074,384.402 
							"/>
			<polygon clip-path="url(#SVGID_4_)" fill="#F7F7F7" points="1242.074,394.815 776.762,208.043 789.744,208.043 1242.074,389.601 
							"/>
			<polygon clip-path="url(#SVGID_4_)" fill="#F6F6F6" points="1242.074,400.013 763.789,208.043 776.762,208.043 1242.074,394.815 
							"/>
			<polygon clip-path="url(#SVGID_4_)" fill="#F5F5F5" points="1242.074,405.223 750.834,208.043 763.789,208.043 1242.074,400.013 
							"/>
			<polygon clip-path="url(#SVGID_4_)" fill="#F4F4F4" points="1242.074,410.424 737.859,208.043 750.834,208.043 1242.074,405.223 
							"/>
			<polygon clip-path="url(#SVGID_4_)" fill="#F3F3F3" points="1242.074,415.638 730.826,210.435 730.826,208.043 737.859,208.043 
				1242.074,410.424 			"/>
			<polygon clip-path="url(#SVGID_4_)" fill="#F2F2F2" points="1242.074,420.83 730.826,215.628 730.826,210.435 1242.074,415.638 
							"/>
			<polygon clip-path="url(#SVGID_4_)" fill="#F1F1F1" points="1242.074,426.042 730.826,220.843 730.826,215.628 1242.074,420.83 
							"/>
			<polygon clip-path="url(#SVGID_4_)" fill="#F0F0F0" points="1242.074,431.264 730.826,226.044 730.826,220.843 1242.074,426.042 
							"/>
			<polygon clip-path="url(#SVGID_4_)" fill="#EFEFEF" points="1242.074,436.459 730.826,231.26 730.826,226.044 1242.074,431.264 
							"/>
			<polygon clip-path="url(#SVGID_4_)" fill="#EEEEEE" points="1242.074,441.668 730.826,236.468 730.826,231.26 1242.074,436.459 
							"/>
			<polygon clip-path="url(#SVGID_4_)" fill="#EDEDED" points="1242.074,446.861 730.826,241.66 730.826,236.468 1242.074,441.668 
							"/>
			<polygon clip-path="url(#SVGID_4_)" fill="#ECECEC" points="1242.074,452.083 730.826,246.882 730.826,241.66 1242.074,446.861 
							"/>
			<polygon clip-path="url(#SVGID_4_)" fill="#EBEBEB" points="1242.074,457.282 730.826,252.083 730.826,246.882 1242.074,452.083 
							"/>
			<polygon clip-path="url(#SVGID_4_)" fill="#EAEAEA" points="1242.074,462.489 730.826,257.286 730.826,252.083 1242.074,457.282 
							"/>
			<polygon clip-path="url(#SVGID_4_)" fill="#E9E9E9" points="1242.074,467.686 730.826,262.483 730.826,257.286 1242.074,462.489 
							"/>
			<polygon clip-path="url(#SVGID_4_)" fill="#E8E8E8" points="1242.074,472.9 730.826,267.699 730.826,262.483 1242.074,467.686 
							"/>
			<polygon clip-path="url(#SVGID_4_)" fill="#E7E7E7" points="1242.074,478.104 730.826,272.9 730.826,267.699 1242.074,472.9 			
				"/>
			<polygon clip-path="url(#SVGID_4_)" fill="#E6E6E6" points="1242.074,483.31 730.826,278.109 730.826,272.9 1242.074,478.104 			
				"/>
			<polygon clip-path="url(#SVGID_4_)" fill="#E5E5E5" points="1242.074,488.509 730.826,283.306 730.826,278.109 1242.074,483.31 
							"/>
			<polygon clip-path="url(#SVGID_4_)" fill="#E4E4E4" points="1242.074,493.721 730.826,288.52 730.826,283.306 1242.074,488.509 
							"/>
			<polygon clip-path="url(#SVGID_4_)" fill="#E3E3E3" points="1242.074,498.917 730.826,293.717 730.826,288.52 1242.074,493.721 
							"/>
			<polygon clip-path="url(#SVGID_4_)" fill="#E2E2E2" points="1242.074,504.129 730.826,298.935 730.826,293.717 1242.074,498.917 
							"/>
			<polygon clip-path="url(#SVGID_4_)" fill="#E1E1E1" points="1242.074,509.33 730.826,304.13 730.826,298.935 1242.074,504.129 
							"/>
			<polygon clip-path="url(#SVGID_4_)" fill="#E0E0E0" points="1242.074,514.548 730.826,309.345 730.826,304.13 1242.074,509.33 
							"/>
			<polygon clip-path="url(#SVGID_4_)" fill="#DFDFDF" points="1242.074,519.737 730.826,314.542 730.826,309.345 1242.074,514.548 
							"/>
			<polygon clip-path="url(#SVGID_4_)" fill="#DEDEDE" points="1242.074,524.955 730.826,319.754 730.826,314.542 1242.074,519.737 
							"/>
			<polygon clip-path="url(#SVGID_4_)" fill="#DDDDDD" points="1242.074,530.154 730.826,324.951 730.826,319.754 1242.074,524.955 
							"/>
			<polygon clip-path="url(#SVGID_4_)" fill="#DCDCDC" points="1242.074,535.359 730.826,330.158 730.826,324.951 1242.074,530.154 
							"/>
			<polygon clip-path="url(#SVGID_4_)" fill="#DBDBDB" points="1242.074,540.579 730.826,335.355 730.826,330.158 1242.074,535.359 
							"/>
			<polygon clip-path="url(#SVGID_4_)" fill="#DADADA" points="1242.074,545.778 730.826,340.575 730.826,335.355 1242.074,540.579 
							"/>
			<polygon clip-path="url(#SVGID_4_)" fill="#D9D9D9" points="1242.074,550.981 730.826,345.782 730.826,340.575 1242.074,545.778 
							"/>
			<polygon clip-path="url(#SVGID_4_)" fill="#D8D8D8" points="1242.074,556.182 730.826,350.979 730.826,345.782 1242.074,550.981 
							"/>
			<polygon clip-path="url(#SVGID_4_)" fill="#D7D7D7" points="1242.074,561.4 730.826,356.201 730.826,350.979 1242.074,556.182 
							"/>
			<polygon clip-path="url(#SVGID_4_)" fill="#D6D6D6" points="1242.074,566.597 730.826,361.396 730.826,356.201 1242.074,561.4 
							"/>
			<polygon clip-path="url(#SVGID_4_)" fill="#D5D5D5" points="1242.074,571.806 730.826,366.604 730.826,361.396 1242.074,566.597 
							"/>
			<polygon clip-path="url(#SVGID_4_)" fill="#D4D4D4" points="1242.074,577.003 730.826,371.802 730.826,366.604 1242.074,571.806 
							"/>
			<polygon clip-path="url(#SVGID_4_)" fill="#D3D3D3" points="1242.074,582.221 730.826,377.018 730.826,371.802 1242.074,577.003 
							"/>
			<polygon clip-path="url(#SVGID_4_)" fill="#D2D2D2" points="1242.074,587.416 730.826,382.215 730.826,377.018 1242.074,582.221 
							"/>
			<polygon clip-path="url(#SVGID_4_)" fill="#D1D1D1" points="1242.074,592.627 730.826,387.426 730.826,382.215 1242.074,587.416 
							"/>
			<polygon clip-path="url(#SVGID_4_)" fill="#D0D0D0" points="1242.074,597.826 730.826,392.624 730.826,387.426 1242.074,592.627 
							"/>
			<polygon clip-path="url(#SVGID_4_)" fill="#CFCFCF" points="1242.074,603.04 730.826,397.841 730.826,392.624 1242.074,597.826 
							"/>
			<polygon clip-path="url(#SVGID_4_)" fill="#CECECE" points="1242.074,608.237 730.826,403.034 730.826,397.841 1242.074,603.04 
							"/>
			<polygon clip-path="url(#SVGID_4_)" fill="#CDCDCD" points="1242.074,613.451 730.826,408.248 730.826,403.034 1242.074,608.237 
							"/>
			<polygon clip-path="url(#SVGID_4_)" fill="#CCCCCC" points="1242.074,618.645 730.826,413.447 730.826,408.248 1242.074,613.451 
							"/>
			<polygon clip-path="url(#SVGID_4_)" fill="#CBCBCB" points="1242.074,623.854 730.826,418.658 730.826,413.447 1242.074,618.645 
							"/>
			<polygon clip-path="url(#SVGID_4_)" fill="#CACACA" points="1242.074,629.058 730.826,423.857 730.826,418.658 1242.074,623.854 
							"/>
			<polygon clip-path="url(#SVGID_4_)" fill="#C9C9C9" points="1242.074,634.271 730.826,429.071 730.826,423.857 1242.074,629.058 
							"/>
			<polygon clip-path="url(#SVGID_4_)" fill="#C8C8C8" points="1242.074,639.48 730.826,434.282 730.826,429.071 1242.074,634.271 
							"/>
			<polygon clip-path="url(#SVGID_4_)" fill="#C7C7C7" points="1242.074,644.678 730.826,439.477 730.826,434.282 1242.074,639.48 
							"/>
			<polygon clip-path="url(#SVGID_4_)" fill="#C6C6C6" points="1242.074,649.9 730.826,444.697 730.826,439.477 1242.074,644.678 
							"/>
			<polygon clip-path="url(#SVGID_4_)" fill="#C5C5C5" points="1242.074,655.093 730.826,449.892 730.826,444.697 1242.074,649.9 
							"/>
			<polygon clip-path="url(#SVGID_4_)" fill="#C4C4C4" points="1242.074,660.306 730.826,455.104 730.826,449.892 1242.074,655.093 
							"/>
			<polygon clip-path="url(#SVGID_4_)" fill="#C3C3C3" points="1242.074,665.499 730.826,460.298 730.826,455.104 1242.074,660.306 
							"/>
			<polygon clip-path="url(#SVGID_4_)" fill="#C2C2C2" points="1242.074,670.712 730.826,465.518 730.826,460.298 1242.074,665.499 
							"/>
			<polygon clip-path="url(#SVGID_4_)" fill="#C1C1C1" points="1242.074,675.916 730.826,470.715 730.826,465.518 1242.074,670.712 
							"/>
			<polygon clip-path="url(#SVGID_4_)" fill="#C0C0C0" points="1242.074,681.125 730.826,475.924 730.826,470.715 1242.074,675.916 
							"/>
			<polygon clip-path="url(#SVGID_4_)" fill="#BFBFBF" points="1242.074,686.318 730.826,481.119 730.826,475.924 1242.074,681.125 
							"/>
			<polygon clip-path="url(#SVGID_4_)" fill="#BEBEBE" points="1242.074,691.544 730.826,486.331 730.826,481.119 1242.074,686.318 
							"/>
			<polygon clip-path="url(#SVGID_4_)" fill="#BDBDBD" points="1242.074,696.734 730.826,491.53 730.826,486.331 1242.074,691.544 
							"/>
			<polygon clip-path="url(#SVGID_4_)" fill="#BCBCBC" points="1242.074,701.948 730.826,496.745 730.826,491.53 1242.074,696.734 
							"/>
			<polygon clip-path="url(#SVGID_4_)" fill="#BBBBBB" points="1242.074,707.141 730.826,501.936 730.826,496.745 1242.074,701.948 
							"/>
			<polygon clip-path="url(#SVGID_4_)" fill="#BABABA" points="1242.074,712.353 730.826,507.154 730.826,501.936 1242.074,707.141 
							"/>
			<polygon clip-path="url(#SVGID_4_)" fill="#B9B9B9" points="1242.074,717.549 730.826,512.351 730.826,507.154 1242.074,712.353 
							"/>
			<polygon clip-path="url(#SVGID_4_)" fill="#B8B8B8" points="1242.074,722.767 730.826,517.569 730.826,512.351 1242.074,717.549 
							"/>
			<polygon clip-path="url(#SVGID_4_)" fill="#B7B7B7" points="1242.074,727.959 730.826,522.761 730.826,517.569 1242.074,722.767 
							"/>
			<polygon clip-path="url(#SVGID_4_)" fill="#B6B6B6" points="1242.074,733.173 730.826,527.971 730.826,522.761 1242.074,727.959 
							"/>
			<polygon clip-path="url(#SVGID_4_)" fill="#B5B5B5" points="1242.074,738.396 730.826,533.176 730.826,527.971 1242.074,733.173 
							"/>
			<polygon clip-path="url(#SVGID_4_)" fill="#B4B4B4" points="1242.074,743.59 730.826,538.387 730.826,533.176 1242.074,738.396 
							"/>
			<polygon clip-path="url(#SVGID_4_)" fill="#B3B3B3" points="1242.074,748.787 730.826,543.586 730.826,538.387 1242.074,743.59 
							"/>
			<polygon clip-path="url(#SVGID_4_)" fill="#B2B2B2" points="1242.074,753.995 730.826,548.792 730.826,543.586 1242.074,748.787 
							"/>
			<polygon clip-path="url(#SVGID_4_)" fill="#B1B1B1" points="1242.074,759.216 730.826,554.014 730.826,548.792 1242.074,753.995 
							"/>
			<polygon clip-path="url(#SVGID_4_)" fill="#B0B0B0" points="1242.074,764.411 730.826,559.211 730.826,554.014 1242.074,759.216 
							"/>
			<polygon clip-path="url(#SVGID_4_)" fill="#AFAFAF" points="1242.074,769.619 730.826,564.416 730.826,559.211 1242.074,764.411 
							"/>
			<polygon clip-path="url(#SVGID_4_)" fill="#AEAEAE" points="1242.074,774.815 730.826,569.615 730.826,564.416 1242.074,769.619 
							"/>
			<polygon clip-path="url(#SVGID_4_)" fill="#ADADAD" points="1242.074,780.04 730.826,574.829 730.826,569.615 1242.074,774.815 
							"/>
			<polygon clip-path="url(#SVGID_4_)" fill="#ACACAC" points="1242.074,785.235 730.826,580.032 730.826,574.829 1242.074,780.04 
							"/>
			<polygon clip-path="url(#SVGID_4_)" fill="#ABABAB" points="1242.074,790.439 730.826,585.24 730.826,580.032 1242.074,785.235 
							"/>
			<polygon clip-path="url(#SVGID_4_)" fill="#AAAAAA" points="1242.074,795.637 730.826,590.434 730.826,585.24 1242.074,790.439 
							"/>
			<polygon clip-path="url(#SVGID_4_)" fill="#A9A9A9" points="1242.074,800.848 730.826,595.653 730.826,590.434 1242.074,795.637 
							"/>
			<polygon clip-path="url(#SVGID_4_)" fill="#A8A8A8" points="1242.074,806.056 730.826,600.847 730.826,595.653 1242.074,800.848 
							"/>
			<polygon clip-path="url(#SVGID_4_)" fill="#A7A7A7" points="1242.074,811.261 730.826,606.061 730.826,600.847 1242.074,806.056 
							"/>
			<polygon clip-path="url(#SVGID_4_)" fill="#A6A6A6" points="1242.074,816.462 730.826,611.259 730.826,606.061 1242.074,811.261 
							"/>
			<polygon clip-path="url(#SVGID_4_)" fill="#A5A5A5" points="1242.074,821.667 730.826,616.477 730.826,611.259 1242.074,816.462 
							"/>
			<polygon clip-path="url(#SVGID_4_)" fill="#A4A4A4" points="1242.074,826.865 730.826,621.668 730.826,616.477 1242.074,821.667 
							"/>
			<polygon clip-path="url(#SVGID_4_)" fill="#A3A3A3" points="1242.074,832.086 730.826,626.883 730.826,621.668 1242.074,826.865 
							"/>
			<polygon clip-path="url(#SVGID_4_)" fill="#A2A2A2" points="1242.074,837.283 730.826,632.084 730.826,626.883 1242.074,832.086 
							"/>
			<polygon clip-path="url(#SVGID_4_)" fill="#A1A1A1" points="1242.074,842.488 730.826,637.287 730.826,632.084 1242.074,837.283 
							"/>
			<polygon clip-path="url(#SVGID_4_)" fill="#A0A0A0" points="1242.074,847.689 730.826,642.487 730.826,637.287 1242.074,842.488 
							"/>
			<polygon clip-path="url(#SVGID_4_)" fill="#9F9F9F" points="1242.074,852.908 730.826,647.708 730.826,642.487 1242.074,847.689 
							"/>
			<polygon clip-path="url(#SVGID_4_)" fill="#9E9E9E" points="1242.074,858.117 730.826,652.914 730.826,647.708 1242.074,852.908 
							"/>
			<polygon clip-path="url(#SVGID_4_)" fill="#9D9D9D" points="1242.074,863.314 730.826,658.113 730.826,652.914 1242.074,858.117 
							"/>
			<polygon clip-path="url(#SVGID_4_)" fill="#9C9C9C" points="1242.074,868.536 730.826,663.333 730.826,658.113 1242.074,863.314 
							"/>
			<polygon clip-path="url(#SVGID_4_)" fill="#9B9B9B" points="1242.074,873.728 730.826,668.528 730.826,663.333 1242.074,868.536 
							"/>
			<polygon clip-path="url(#SVGID_4_)" fill="#9A9A9A" points="1242.074,878.938 730.826,673.733 730.826,668.528 1242.074,873.728 
							"/>
			<polygon clip-path="url(#SVGID_4_)" fill="#999999" points="1242.074,884.134 730.826,678.932 730.826,673.733 1242.074,878.938 
							"/>
			<polygon clip-path="url(#SVGID_4_)" fill="#989898" points="1242.074,889.348 730.826,684.152 730.826,678.932 1242.074,884.134 
							"/>
			<polygon clip-path="url(#SVGID_4_)" fill="#979797" points="1242.074,894.549 730.826,689.351 730.826,684.152 1242.074,889.348 
							"/>
			<polygon clip-path="url(#SVGID_4_)" fill="#969696" points="1242.074,899.758 730.826,694.556 730.826,689.351 1242.074,894.549 
							"/>
			<polygon clip-path="url(#SVGID_4_)" fill="#959595" points="1242.074,904.956 730.826,699.755 730.826,694.556 1242.074,899.758 
							"/>
			<polygon clip-path="url(#SVGID_4_)" fill="#949494" points="1242.074,910.166 730.826,704.96 730.826,699.755 1242.074,904.956 
							"/>
			<polygon clip-path="url(#SVGID_4_)" fill="#939393" points="1242.074,915.362 730.826,710.174 730.826,704.96 1242.074,910.166 
							"/>
			<polygon clip-path="url(#SVGID_4_)" fill="#929292" points="1242.074,920.58 730.826,715.381 730.826,710.174 1242.074,915.362 
							"/>
			<polygon clip-path="url(#SVGID_4_)" fill="#919191" points="1242.074,925.777 730.826,720.574 730.826,715.381 1242.074,920.58 
							"/>
			<polygon clip-path="url(#SVGID_4_)" fill="#909090" points="1242.074,930.986 730.826,725.784 730.826,720.574 1242.074,925.777 
							"/>
			<polygon clip-path="url(#SVGID_4_)" fill="#8F8F8F" points="1242.074,936.179 730.826,730.98 730.826,725.784 1242.074,930.986 
							"/>
			<polygon clip-path="url(#SVGID_4_)" fill="#8E8E8E" points="1242.074,941.401 730.826,736.2 730.826,730.98 1242.074,936.179 			
				"/>
			<polygon clip-path="url(#SVGID_4_)" fill="#8E8E8C" points="1242.074,946.602 730.826,741.397 730.826,736.2 1242.074,941.401 
							"/>
			<polygon clip-path="url(#SVGID_4_)" fill="#8D8D8B" points="1242.074,951.807 730.826,746.608 730.826,741.397 1242.074,946.602 
							"/>
			<polygon clip-path="url(#SVGID_4_)" fill="#8C8C8A" points="1242.074,957.021 730.826,751.827 730.826,746.608 1242.074,951.807 
							"/>
			<polygon clip-path="url(#SVGID_4_)" fill="#8B8B89" points="1242.074,962.222 730.826,757.023 730.826,751.827 1242.074,957.021 
							"/>
			<polygon clip-path="url(#SVGID_4_)" fill="#8A8A88" points="1233.271,963.897 730.826,762.235 730.826,757.023 1242.074,962.222 
				1242.074,963.897 			"/>
			<polygon clip-path="url(#SVGID_4_)" fill="#898987" points="1220.318,963.897 730.826,767.43 730.826,762.235 1233.271,963.897 
							"/>
			<polygon clip-path="url(#SVGID_4_)" fill="#888886" points="1207.346,963.897 730.826,772.652 730.826,767.43 1220.318,963.897 
							"/>
			<polygon clip-path="url(#SVGID_4_)" fill="#878785" points="1194.37,963.897 730.826,777.847 730.826,772.652 1207.346,963.897 
							"/>
			<polygon clip-path="url(#SVGID_4_)" fill="#868684" points="1181.413,963.897 730.826,783.054 730.826,777.847 1194.37,963.897 
							"/>
			<polygon clip-path="url(#SVGID_4_)" fill="#858583" points="1168.436,963.897 730.826,788.253 730.826,783.054 1181.413,963.897 
							"/>
			<polygon clip-path="url(#SVGID_4_)" fill="#848482" points="1155.458,963.897 730.826,793.475 730.826,788.253 1168.436,963.897 
							"/>
			<polygon clip-path="url(#SVGID_4_)" fill="#838381" points="1142.506,963.897 730.826,798.667 730.826,793.475 1155.458,963.897 
							"/>
			<polygon clip-path="url(#SVGID_4_)" fill="#828280" points="1129.532,963.897 730.826,803.875 730.826,798.667 1142.506,963.897 
							"/>
			<polygon clip-path="url(#SVGID_4_)" fill="#81817F" points="1116.55,963.897 730.826,809.072 730.826,803.875 1129.532,963.897 
							"/>
			<polygon clip-path="url(#SVGID_4_)" fill="#80807E" points="1103.6,963.897 730.826,814.281 730.826,809.072 1116.55,963.897 			
				"/>
			<polygon clip-path="url(#SVGID_4_)" fill="#7F7F7D" points="1090.626,963.897 730.826,819.474 730.826,814.281 1103.6,963.897 
							"/>
			<polygon clip-path="url(#SVGID_4_)" fill="#7E7E7C" points="1077.652,963.897 730.826,824.696 730.826,819.474 1090.626,963.897 
							"/>
			<polygon clip-path="url(#SVGID_4_)" fill="#7D7D7B" points="1064.689,963.897 730.826,829.893 730.826,824.696 1077.652,963.897 
							"/>
			<polygon clip-path="url(#SVGID_4_)" fill="#7C7C7A" points="1051.714,963.897 730.826,835.102 730.826,829.893 1064.689,963.897 
							"/>
			<polygon clip-path="url(#SVGID_4_)" fill="#7B7B79" points="1038.738,963.897 730.826,840.295 730.826,835.102 1051.714,963.897 
							"/>
			<polygon clip-path="url(#SVGID_4_)" fill="#7A7A78" points="1025.779,963.897 730.826,845.521 730.826,840.295 1038.738,963.897 
							"/>
			<polygon clip-path="url(#SVGID_4_)" fill="#797977" points="1012.809,963.897 730.826,850.727 730.826,845.521 1025.779,963.897 
							"/>
			<polygon clip-path="url(#SVGID_4_)" fill="#787876" points="999.832,963.897 730.826,855.923 730.826,850.727 1012.809,963.897 
							"/>
			<polygon clip-path="url(#SVGID_4_)" fill="#777775" points="986.871,963.897 730.826,861.145 730.826,855.923 999.832,963.897 
							"/>
			<polygon clip-path="url(#SVGID_4_)" fill="#767674" points="973.898,963.897 730.826,866.347 730.826,861.145 986.871,963.897 
							"/>
			<polygon clip-path="url(#SVGID_4_)" fill="#757573" points="960.93,963.897 730.826,871.552 730.826,866.347 973.898,963.897 			
				"/>
			<polygon clip-path="url(#SVGID_4_)" fill="#747472" points="947.969,963.897 730.826,876.749 730.826,871.552 960.93,963.897 			
				"/>
			<polygon clip-path="url(#SVGID_4_)" fill="#737371" points="934.992,963.897 730.826,881.966 730.826,876.749 947.969,963.897 
							"/>
			<polygon clip-path="url(#SVGID_4_)" fill="#727270" points="922.021,963.897 730.826,887.159 730.826,881.966 934.992,963.897 
							"/>
			<polygon clip-path="url(#SVGID_4_)" fill="#71716F" points="909.059,963.897 730.826,892.373 730.826,887.159 922.021,963.897 
							"/>
			<polygon clip-path="url(#SVGID_4_)" fill="#70706E" points="896.084,963.897 730.826,897.566 730.826,892.373 909.059,963.897 
							"/>
			<polygon clip-path="url(#SVGID_4_)" fill="#6F6F6D" points="883.111,963.897 730.826,902.771 730.826,897.566 896.084,963.897 
							"/>
			<polygon clip-path="url(#SVGID_4_)" fill="#6E6E6C" points="870.15,963.897 730.826,907.989 730.826,902.771 883.111,963.897 			
				"/>
			<polygon clip-path="url(#SVGID_4_)" fill="#6D6D6B" points="857.176,963.897 730.826,913.194 730.826,907.989 870.15,963.897 			
				"/>
			<polygon clip-path="url(#SVGID_4_)" fill="#6C6C6A" points="844.205,963.897 730.826,918.386 730.826,913.194 857.176,963.897 
							"/>
			<polygon clip-path="url(#SVGID_4_)" fill="#6B6B69" points="831.244,963.897 730.826,923.6 730.826,918.386 844.205,963.897 			
				"/>
			<polygon clip-path="url(#SVGID_4_)" fill="#6A6A68" points="818.269,963.897 730.826,928.792 730.826,923.6 831.244,963.897 			
				"/>
			<polygon clip-path="url(#SVGID_4_)" fill="#696967" points="805.297,963.897 730.826,934.019 730.826,928.792 818.269,963.897 
							"/>
			<polygon clip-path="url(#SVGID_4_)" fill="#686866" points="792.338,963.897 730.826,939.208 730.826,934.019 805.297,963.897 
							"/>
			<polygon clip-path="url(#SVGID_4_)" fill="#676765" points="779.362,963.897 730.826,944.417 730.826,939.208 792.338,963.897 
							"/>
			<polygon clip-path="url(#SVGID_4_)" fill="#666664" points="766.387,963.897 730.826,949.618 730.826,944.417 779.362,963.897 
							"/>
			<polygon clip-path="url(#SVGID_4_)" fill="#656563" points="753.431,963.897 730.826,954.84 730.826,949.618 766.387,963.897 			
				"/>
			<polygon clip-path="url(#SVGID_4_)" fill="#646462" points="740.459,963.897 730.826,960.045 730.826,954.84 753.431,963.897 			
				"/>
			<polygon clip-path="url(#SVGID_4_)" fill="#636361" points="730.826,960.045 740.459,963.897 730.826,963.897 			"/>
		</g>
	</g>
	
		<linearGradient id="SVGID_5_" gradientUnits="userSpaceOnUse" x1="1177.5479" y1="328.1904" x2="1177.5479" y2="220.7061" gradientTransform="matrix(-1 0 0 1 2163.4453 0)">
		<stop  offset="0" style="stop-color:#FFFFFF"/>
		<stop  offset="1" style="stop-color:#1D1D1B"/>
	</linearGradient>
	<path opacity="0.54" fill="url(#SVGID_5_)" d="M730.861,221.37v33.967h507.002c1.053,0,2.124-0.104,3.07-0.328v-33.32
		c-0.946-0.196-2.018-0.319-3.07-0.319H730.861z"/>
	<path fill="#BCC7CC" d="M732.695,230.099h503.25c9.369,0,16.963-7.594,16.963-16.963v-0.002c0-9.379-7.603-16.982-16.982-16.982
		H732.678c-9.37,0-16.965,7.596-16.965,16.965l0,0C715.713,222.496,723.316,230.099,732.695,230.099z"/>
	<path fill="#BCC7CC" d="M732.675,982.158h503.263c9.373,0,16.971-7.599,16.971-16.972l0,0c0-9.373-7.598-16.972-16.971-16.972
		H732.685c-9.373,0-16.972,7.599-16.972,16.972v0.01C715.713,974.563,723.307,982.158,732.675,982.158z"/>
	<path fill="#D1D1D1" d="M1006.306,359.746h168.228c6.045,0,10.937-4.913,10.937-10.956l0,0c0-6.049-4.892-10.934-10.937-10.934
		h-168.228c-6.047,0-10.938,4.885-10.938,10.934l0,0C995.367,354.833,1000.259,359.746,1006.306,359.746z"/>
	<path fill="#D1D1D1" d="M1006.306,399.535h168.228c6.045,0,10.937-4.907,10.937-10.95l0,0c0-6.046-4.892-10.943-10.937-10.943
		h-168.228c-6.047,0-10.938,4.896-10.938,10.943l0,0C995.367,394.628,1000.259,399.535,1006.306,399.535z"/>
	<path fill="#C2C2C2" d="M1157.988,763.045h30.77c3.863,0,7.024-3.161,7.024-7.024v-7.851c0-3.87-3.138-7.007-7.007-7.007h-30.758
		c-3.879,0-7.023,3.145-7.023,7.023v7.866C1150.994,759.915,1154.125,763.045,1157.988,763.045z"/>
	<path fill="#C2C2C2" d="M773.554,763.045h30.814c3.846,0,6.994-3.147,6.994-6.993v-7.882c0-3.87-3.138-7.007-7.007-7.007h-30.778
		c-3.874,0-7.016,3.142-7.016,7.016v7.874C766.56,759.915,769.691,763.045,773.554,763.045z"/>
	<path fill="#C2C2C2" d="M773.586,471.256h30.749c3.88,0,7.026-3.146,7.026-7.026v-7.84c0-3.879-3.145-7.024-7.024-7.024h-30.762
		c-3.874,0-7.016,3.141-7.016,7.016v7.849C766.56,468.11,769.706,471.256,773.586,471.256z"/>
	<g>
		<path fill="#D1D1D1" d="M895.705,854.04h132.035c6.047,0,10.948-4.902,10.948-10.949l0,0c0-6.045-4.901-10.946-10.946-10.946
			H895.705c-6.045,0-10.946,4.901-10.946,10.946v0.003C884.759,849.139,889.66,854.04,895.705,854.04z"/>
		<path fill="#D1D1D1" d="M895.709,886.762h132.031c6.047,0,10.948-4.901,10.948-10.948l0,0c0-6.048-4.903-10.95-10.95-10.95
			H895.705c-6.045,0-10.946,4.9-10.946,10.945v0.003C884.759,881.86,889.662,886.762,895.709,886.762z"/>
		<path fill="#D1D1D1" d="M895.705,922.125h132.038c6.045,0,10.946-4.9,10.946-10.945v-0.005c0-6.04-4.897-10.936-10.937-10.936
			H895.7c-6.042,0-10.941,4.897-10.941,10.94l0,0C884.759,917.225,889.66,922.125,895.705,922.125z"/>
		<path fill="#F9B233" d="M1063.173,854.04h39.368c4.297,0,7.779-3.483,7.779-7.78v-6.341c0-4.293-3.48-7.774-7.773-7.774h-39.341
			c-4.302,0-7.79,3.488-7.79,7.791v6.347C1055.416,850.566,1058.889,854.04,1063.173,854.04z"/>
		<path fill="#00BCD4" d="M1063.2,886.762h39.335c4.301,0,7.785-3.485,7.785-7.785v-6.334c0-4.296-3.482-7.779-7.779-7.779h-39.335
			c-4.302,0-7.79,3.487-7.79,7.791v6.322C1055.416,883.277,1058.9,886.762,1063.2,886.762z"/>
		<path fill="#D95B45" d="M1063.173,922.125h39.368c4.297,0,7.779-3.482,7.779-7.779v-6.349c0-4.285-3.473-7.758-7.758-7.758
			h-39.356c-4.302,0-7.79,3.487-7.79,7.79v6.338C1055.416,918.652,1058.889,922.125,1063.173,922.125z"/>
	</g>
	<g>
		<path fill="#00BCD4" d="M825.966,665.978c-9.255-20.633-14.525-43.439-14.525-67.527c0-91.297,74.012-165.322,165.332-165.322
			v192.207L825.966,665.978z"/>
		<path fill="#D95B45" d="M980.712,635.809v138.466c-67.234,0-124.979-40.203-150.825-97.808L980.712,635.809z"/>
		<g>
			<path fill="#F9B233" d="M991.191,433.129c85.42,0,155.676,64.784,164.39,147.901l-164.39,44.305V433.129z"/>
			<path fill="#F9B233" d="M1155.581,581.03c0.598,5.724,0.935,11.528,0.935,17.42c0,91.32-74.011,165.342-165.324,165.342V625.335
				L1155.581,581.03z"/>
		</g>
	</g>
	<g>
		<polygon fill="#706F6F" points="1193.435,778.214 1121.293,778.214 1057.236,716.82 1059.066,714.924 1122.346,775.566 
			1193.435,775.566 		"/>
	</g>
	<g>
		<polygon fill="#706F6F" points="841.147,778.214 769.004,778.214 769.004,775.566 840.094,775.566 903.368,714.924 
			905.206,716.82 		"/>
	</g>
	<g>
		<polygon fill="#706F6F" points="903.368,547.932 840.094,487.29 769.004,487.29 769.004,484.641 841.147,484.641 905.206,546.027 
					"/>
	</g>
</g>
<g>
	<path fill-rule="evenodd" clip-rule="evenodd" fill="#9BB6B6" d="M1322.397,1019.873c29.937-0.218,60.032-0.443,90.19-0.651
		c30.271-0.226,60.688-0.451,91.217-0.669c8.522-0.066,15.884,6.868,16.276,15.391c0.886,19.016,1.771,37.933,2.648,56.79
		l2.54,71.186c-30.138-0.042-74.767,0.017-104.657-0.024c-29.803-0.042-59.53-0.101-89.099-0.143
		c-8.205,0-15.357-6.718-15.893-14.964c-1.207-18.415-2.423-36.913-3.638-55.453c-1.216-18.624-2.462-37.298-3.686-56.047
		C1307.751,1026.891,1314.084,1019.931,1322.397,1019.873z"/>
	<path fill-rule="evenodd" clip-rule="evenodd" fill="#ABC0CC" d="M1508.918,1154.566h96.777c3.785,0,6.886,3.092,6.886,6.877l0,0
		c0,3.793-3.101,6.893-6.886,6.893h-96.777c-3.776,0-6.876-3.1-6.876-6.893l0,0
		C1502.042,1157.658,1505.142,1154.566,1508.918,1154.566z"/>
	<path fill-rule="evenodd" clip-rule="evenodd" fill="#97A9B0" d="M1612.563,1161.918c-0.25,3.568-3.241,6.417-6.868,6.417h-96.777
		c-3.617,0-6.617-2.849-6.859-6.417H1612.563z"/>
	<path fill-rule="evenodd" clip-rule="evenodd" fill="#BFCEDF" d="M1308.057,1019.012c31.439-0.226,63.048-0.468,94.718-0.694
		c31.787-0.226,63.733-0.459,95.8-0.701c8.949-0.059,16.678,7.228,17.087,16.167c0.936,19.97,1.863,39.838,2.782,59.647
		c0.919,19.735,1.847,39.429,2.757,59.021c0.409,8.756-6.542,15.857-15.382,15.85c-31.649-0.042-63.228-0.092-94.618-0.143
		c-31.298-0.041-62.513-0.1-93.569-0.142c-8.618-0.009-16.129-7.06-16.693-15.716c-1.262-19.342-2.54-38.768-3.818-58.235
		c-1.278-19.568-2.582-39.17-3.868-58.862C1292.674,1026.381,1299.325,1019.07,1308.057,1019.012z"/>
	<path fill-rule="evenodd" clip-rule="evenodd" fill="#ABC0CC" d="M1420.08,1062.033c0,1.918-1.438,3.476-3.209,3.476h-28.875
		c-1.771,0-3.209-1.558-3.209-3.476l0,0c0-1.917,1.438-3.476,3.209-3.476h28.875
		C1418.643,1058.557,1420.08,1060.116,1420.08,1062.033L1420.08,1062.033z"/>
</g>
<g>
	<rect x="2198.785" y="1213.85" fill-rule="evenodd" clip-rule="evenodd" fill="#B9CECF" width="26.604" height="475.279"/>
	<rect x="2337.229" y="1213.925" fill-rule="evenodd" clip-rule="evenodd" fill="#B9CECF" width="26.594" height="475.204"/>
	<rect x="1295.373" y="1212.986" fill-rule="evenodd" clip-rule="evenodd" fill="#B9CECF" width="26.603" height="476.144"/>
	<rect x="1541.642" y="1212.518" fill-rule="evenodd" clip-rule="evenodd" fill="#B9CECF" width="26.599" height="476.611"/>
	<path fill-rule="evenodd" clip-rule="evenodd" fill="#A66421" d="M2443.439,1166.852H1220.707
		c-12.926,0-23.499,10.574-23.499,23.491c0,12.926,10.573,23.507,23.499,23.507h1222.732c12.918,0,23.486-10.581,23.486-23.507
		C2466.926,1177.426,2456.357,1166.852,2443.439,1166.852"/>
	<path fill-rule="evenodd" clip-rule="evenodd" fill="#C77828" d="M2443.439,1166.849h-181.48v47.001h181.48
		c12.918,0,23.486-10.581,23.486-23.507C2466.926,1177.426,2456.357,1166.849,2443.439,1166.849"/>
</g>
<g>
	<path fill-rule="evenodd" clip-rule="evenodd" fill="#EF8972" d="M2308.561,715.983c-2.929,19.252-8.636,19.607-7.862,24.777
		c0.384,2.555,10.025,7.752,11.567,4.188C2313.803,741.384,2310.098,720.616,2308.561,715.983z"/>
	<path fill-rule="evenodd" clip-rule="evenodd" fill="#4FA4CD" d="M2528.213,1070.676c0,0-42.173,43.86-59.162,58.486
		c-16.975,14.617-43.515,33.955-54.664,44.441c-11.138,10.485-39.465,40.38-39.465,40.38c-6.655-8.869-13.285-17.755-19.932-26.632
		c0,0,34.051-26.206,46.579-41.3c12.525-15.072,43.246-55.437,54.055-69.293c14.876-19.075,25.19-26.022,44.094-42.629
		C2509.218,1046.321,2518.722,1058.499,2528.213,1070.676z"/>
	<rect x="2359.961" y="756.349" fill-rule="evenodd" clip-rule="evenodd" fill="#F69B7F" width="64.397" height="106.493"/>
	<path fill-rule="evenodd" clip-rule="evenodd" fill="#F69B7F" d="M2123.744,1147.778c0,0-24.126-9.588-26.967-11.514
		c-2.828-1.946-11.271-8.572-17.479-8.506c-6.204,0.071-20.813,2.127-23.282,3.393c-2.477,1.271-5.898,5.197-7.206,7.273
		c-0.761,1.194-1.19,3.028-1.107,4.462c0.071,1.44,1.232,2.79,2.824,2.539c1.091-0.184,2.44-1.236,3.969-3.267
		c2.465-3.267,4.04-4.554,4.04-4.554c1.057,0.728,2.109,1.446,3.158,2.164c0,0-0.451,0.698-0.998,1.596
		c-1.613,2.607-3.05,4.809-1.191,7.851c0.777,1.24,4.684,4.186,4.684,4.186s-0.217,2.176,0.417,3.417
		c0.64,1.229,3.84,3.622,3.84,3.622s-0.243,3.213,1.407,3.868c1.362,0.526,7.027,1.83,10.039,2.67
		c0.765,0.221,1.771,0.108,2.494-0.263c0.811-0.415,1.333-1.167,2.021-1.894c5.205,1.692,10.674,6.663,17.538,0.418
		c1.357-1.236,13.159-1.374,13.159-1.374C2117.983,1158.506,2120.861,1153.142,2123.744,1147.778z"/>
	<path fill-rule="evenodd" clip-rule="evenodd" fill="#F69B7F" d="M2446.304,728.643c-10.474,40.469-30.905,63.261-72.155,70.76
		c-4.236,1.057-8.869,2.494-20.366,3.029c-13.394,1.355-12.052-6.794-16.986-9.803c-8.292-5.071-14.091-10.525-18.648-18.977
		c-6.855-12.72-10.156-28.082-11.347-42.576c2.47-32.206-21.352-54.867,4.964-92.808c24.237-44.205,93.916-48.382,131.99-9.828
		C2481.792,666.959,2475.844,737.243,2446.304,728.643z"/>
	<path fill-rule="evenodd" clip-rule="evenodd" fill="#333333" d="M2434.723,589.96c63.516,22.457,74.892,94.651,46.017,151.333
		c-36.362,37.431-6.271,70.442-90.904,62.028c-9.984-23.883-32.443-22.73-32.438-46.972c20.319-15.064-6.776-79.581-16.92-30.167
		c-33.316-45.813-76.842-95.756-18.899-118.384C2347.286,578.96,2401.314,577.202,2434.723,589.96z"/>
	<path fill-rule="evenodd" clip-rule="evenodd" fill="#3B423D" d="M2434.723,589.96c63.516,22.457,74.892,94.651,46.017,151.333
		c-8.297,8.541-39.574,51.691-77.36,32.441c-7.842-44.203-19.965-69.158-48.481-92.686c-48.572-36.792-58.657-60.128-33.32-73.25
		C2347.286,578.96,2401.314,577.202,2434.723,589.96z"/>
	<path fill-rule="evenodd" clip-rule="evenodd" fill="#DB3B17" d="M2524.387,1028.817c0.844,10.949,2.523,45.891,2.523,45.891
		c-15.433,0.693-30.873,1.399-46.309,2.102c0,0,0.853-61.465,0.43-74.925c-0.43-13.478-3.375-79.993-3.375-94.297
		c0-18.014,2.907-34.54,9.128-44.365c5.923-9.375,13.819-13.151,21.197-12.22C2548.449,856.128,2521.872,996.124,2524.387,1028.817z
		"/>
	<path fill-rule="evenodd" clip-rule="evenodd" fill="#F24A24" d="M2424.58,816.341c0,0-0.423,12.057,14.805,19.016
		c24.268,11.121,60.324,4.696,76.659,16.669c11.162,8.172,9.291,20.499,5.765,38.973c-5.313,27.965-15.081,47.495-22.188,60.809
		c-7.102,13.322-28.557,50.75-35.664,65.843c-15.502,32.94-26.201,55.232-27.955,79.02c-1.505,20.549,3.663,42.193,18.192,72.777
		c4.111,8.66,13.198,20.107,18.524,30.985c-29.607,27.426-208.22,37.511-222.319-0.48c6.672-30.701,12.045-42.774,17.546-60.245
		c11.748-37.348,8.644-78.785,8.264-117.603c-17.454-7.671-27.526-17.969-31.119-30.367c-6.847-23.583,10.929-50.511,24.018-69.056
		c-0.823-16.798-3.556-34.74-2.052-44.425c1.22-31.152,25.425-25.491,53.038-33.011c8.803-2.193,18.633-5.293,29.703-12.198
		c6.563-5.778,9.559-17.066,9.559-17.066C2370.342,817.552,2424.58,816.023,2424.58,816.341z"/>
	<path fill-rule="evenodd" clip-rule="evenodd" fill="#DB3B17" d="M2306.058,929.161c22.104,6.764-6.417,91.974,98.391,77.002
		c59.89,7.485,78.756-25.705,95.173-54.355c-7.102,13.322-28.557,50.75-35.664,65.843c-15.502,32.94-26.201,55.232-27.955,79.02
		c-1.505,20.549,3.663,42.193,18.192,72.777c4.111,8.66,13.198,20.107,18.524,30.985c-29.607,27.426-208.22,37.511-222.319-0.48
		c6.672-30.701,12.045-42.774,17.546-60.245c11.748-37.348,8.644-78.785,8.264-117.603c-17.454-7.671-27.526-17.969-31.119-30.367
		c-6.847-23.583,10.929-50.511,24.018-69.056C2272.053,939.759,2287.877,952.689,2306.058,929.161z"/>
	<path fill-rule="evenodd" clip-rule="evenodd" fill="#DB3B17" d="M2424.58,816.341c0,0-0.238,6.717,5.974,13.025h-77.461
		c4.282-5.906,6.263-13.385,6.263-13.385C2370.342,817.552,2424.58,816.023,2424.58,816.341z"/>
	<path fill-rule="evenodd" clip-rule="evenodd" fill="#F24A24" d="M2238.402,1034.837c-2.778,11.241-10.591,47.281-10.591,47.281
		c15.925,3.409,31.862,6.817,47.796,10.231c0,0,9.783-64.072,12.554-78.009c2.778-13.928,17.379-82.591,19.86-97.483
		c3.128-18.732,2.979-36.416-1.784-47.721c-4.55-10.778-12.09-16.08-19.931-16.385
		C2243.327,851.065,2246.682,1001.278,2238.402,1034.837z"/>
	<path fill-rule="evenodd" clip-rule="evenodd" fill="#F24A24" d="M2243.206,1043.104c0,0-55.094,32.903-74.148,46.852
		c-20.658,15.14-44.165,37.197-68.629,48.097c7.536,8.94,12.286,16.446,19.822,25.388c25.05-16.874,71.918-34.44,99.427-47.207
		c23.14-10.741,32.748-19.668,54.284-35.142C2263.718,1068.437,2253.458,1055.775,2243.206,1043.104z"/>
	<path fill-rule="evenodd" clip-rule="evenodd" fill="#07243A" d="M2203.582,1346.455c0,0-49.104-9.357-54.564-19.333
		c-5.459-9.964,53.87-21.109,53.87-21.109c8.381,6.161,16.761,12.332,25.153,18.511
		C2226.057,1331.83,2225.264,1345.788,2203.582,1346.455z"/>
	<g>
		<path fill-rule="evenodd" clip-rule="evenodd" fill="#F69B7F" d="M2130.224,1267.825c-9.137,8.647-11.89,24.948-12.107,46.446
			h-0.108c0.025,1.137,0.055,2.298,0.092,3.509c0.009,2.611,0.034,5.298,0.109,8.042l0.209,0.025
			c1.763,37.105,7.85,100.111,10.343,151.099c0.557,11.56,3.046,118.489-4.912,140.785c-4.153,11.639-9.145,30.199-10.252,34.08
			c-1.103,3.873-3.05,11.084-5.122,12.471c-2.08,1.378-2.636,7.061,0.97,7.061c3.597,0,27.162-19.113,30.889-22.305
			c3.735-3.188,20.235-16.343,20.235-18.975c0-2.637-4.995-13.995-5.827-17.045c-7.771-28.474,15.365-97.529,21.865-122.657
			c5.741-22.209,8.381-43.527,11.318-59.117c6.521-34.479-2.415-86.765-6.647-108.028c-0.025-4.42,0.176-8.518-0.651-14.091
			c4.833-3.347,21.46-5.172,39.328-3.301c17.863,1.863,77.126,7.461,78.918,5.953c0.247-0.209,22.404,1.525,13.025-30.149
			c0,0-90.603-42.624-90.048-38.133C2203.791,1253.362,2148.032,1250.963,2130.224,1267.825z"/>
		<g>
			<path fill-rule="evenodd" clip-rule="evenodd" fill="#F24A24" d="M2110.021,1662.247c0,0-0.998-0.459-2.724,0.163
				c-4.862,1.968-17.809,4.412-18.356,6.446c-0.485,1.797-0.631,12.461,3.743,14.195c6.483,2.565,31.24,4.695,36.549-3.426
				c7.453-11.359,12.124-22.442,23.374-30.476c5.269-3.76,10.586-4.896,14.609-8.915c5.849-5.84-5.526-17.02-9.153-20.642
				c-7.089,7.851-32.978,40.891-41.872,42.767C2113.918,1662.835,2112.223,1662.368,2110.021,1662.247z"/>
			<path fill-rule="evenodd" clip-rule="evenodd" fill="#0B314F" d="M2088.719,1671.016c-0.125,3.751,0.522,10.665,3.965,12.035
				c6.483,2.565,31.24,4.695,36.549-3.426c7.453-11.359,12.124-22.442,23.374-30.476c5.269-3.76,10.586-4.896,14.609-8.915
				c0.297-0.297,0.556-0.605,0.76-0.936c-1.858,0.84-4.945,2.114-8.576,4.019c-4.558,2.411-9.04,5.815-13.986,10.624
				c-7.833,7.611-13.302,20.528-22.613,22.542C2113.021,1678.598,2098.474,1675.536,2088.719,1671.016z"/>
			<path fill-rule="evenodd" clip-rule="evenodd" fill="#0B314F" d="M2153.634,1648.44c1.956,12.938,3.192,23.587,3.655,36.5
				l3.686,0.033c0.033-15.813,0.138-24.41,5.31-39.27c0.543-1.588,1.726-6.438,1.726-6.438
				C2163.218,1642.324,2158.435,1645.381,2153.634,1648.44z"/>
		</g>
	</g>
	<g>
		<path fill-rule="evenodd" clip-rule="evenodd" fill="#F7A389" d="M2083.368,1621.62c-4.157,11.639-9.146,30.199-10.248,34.094
			c-1.115,3.872-3.063,11.083-5.131,12.458c-2.071,1.386-2.632,7.071,0.978,7.071c3.598,0,27.15-19.124,30.894-22.304
			c3.743-3.191,20.22-16.351,20.22-18.979c0-2.632-4.988-13.995-5.815-17.045c-5.443-19.939,1.642-53.69,4.174-74.131
			c8.844-71.55,18.423-144.606,4.022-213.679c77.708,11.292,125.115,14.375,159.32,1.587c-1.249-21.335-21.242-46.705-22.492-68.04
			c0,0-29.622-36.412-83.175-23.917c-36.399,8.477-100.003,26.465-112.728,43.284c-6.894,9.116-5.503,22.087-3.598,39.486
			c-8.367,81.271,8.948,139.832,22.066,223.593C2086.321,1573.624,2089.471,1609.889,2083.368,1621.62z"/>
		<g>
			<path fill-rule="evenodd" clip-rule="evenodd" fill="#F24A24" d="M2069.539,1666.144c0,0-0.993-0.459-2.731,0.155
				c-4.854,1.976-17.796,4.42-18.348,6.438c-0.493,1.805-0.627,12.479,3.734,14.204c6.483,2.573,31.24,4.704,36.566-3.414
				c7.444-11.358,12.128-22.449,23.369-30.483c5.255-3.772,10.578-4.888,14.604-8.911c5.841-5.849-5.53-17.027-9.144-20.637
				c-7.106,7.85-32.987,40.874-41.877,42.753C2073.429,1666.734,2071.732,1666.249,2069.539,1666.144z"/>
			<path fill-rule="evenodd" clip-rule="evenodd" fill="#0B314F" d="M2048.242,1674.914c-0.129,3.751,0.522,10.665,3.952,12.027
				c6.483,2.573,31.24,4.704,36.566-3.414c7.444-11.358,12.128-22.449,23.369-30.483c5.255-3.772,10.578-4.888,14.604-8.911
				c0.289-0.301,0.548-0.613,0.765-0.944c-1.858,0.854-4.945,2.122-8.58,4.032c-4.554,2.397-9.036,5.807-13.995,10.623
				c-7.825,7.607-13.302,20.521-22.613,22.538C2072.535,1682.488,2057.993,1679.429,2048.242,1674.914z"/>
			<path fill-rule="evenodd" clip-rule="evenodd" fill="#0B314F" d="M2113.162,1652.333c1.951,12.934,3.184,23.595,3.639,36.504
				l3.697,0.029c0.021-15.808,0.129-24.414,5.297-39.265c0.547-1.593,1.726-6.438,1.726-6.438
				C2122.737,1646.213,2117.945,1649.271,2113.162,1652.333z"/>
		</g>
	</g>
	<g>
		<path fill-rule="evenodd" clip-rule="evenodd" fill="#2B4B55" d="M2483.217,1394.589l-2.858,9.35h-7.432h-56.94h-6.705
			l-3.142-8.067c-0.075-0.188-24.944-64.46-36.829-106.591c-6.646-23.528-8.543-41.124-3.897-54.618
			c5.167-15.001,16.489-22.313,35.798-23.49c15.582-0.974,29.363-0.886,46.45-0.772c7.043,0.033,14.667,0.087,23.231,0.054h0.739
			l0.438,0.066C2537.324,1219.803,2483.363,1394.087,2483.217,1394.589L2483.217,1394.589z M2447.569,1232.236
			c-16.544-0.113-29.921-0.188-45.41,0.772c-10.022,0.614-15.257,2.541-16.514,6.195c-1.78,5.164,0.008,15.649,4.507,31.596
			c9.02,31.992,25.733,97.784,32.619,115.966h42.594c8.785-31.011,34.064-149.579,4.649-154.466
			C2461.752,1232.324,2454.396,1232.274,2447.569,1232.236z"/>
		<path fill-rule="evenodd" clip-rule="evenodd" fill="#375864" d="M2488.246,1217.958c-4.319-3.902-9.65-6.51-16.176-7.438
			l-0.438-0.066h-0.739c-8.556,0.033-16.188-0.021-23.231-0.054c-17.087-0.113-30.868-0.201-46.45,0.772
			c-19.309,1.178-30.631,8.489-35.798,23.49c-4.646,13.494-2.749,31.09,3.897,54.618c11.885,42.131,36.754,106.403,36.829,106.591
			l3.142,8.067h6.705h1.972c-6.533-18.516-14.63-41.714-21.869-63.299c-10.352-30.901-47.19-106.976,1.27-119.229
			C2424.175,1214.627,2464.848,1218.65,2488.246,1217.958z"/>
	</g>
	<path fill-rule="evenodd" clip-rule="evenodd" fill="#0B314F" d="M2458.678,1181.675c8.255,16.004,28.382,60.257,26.865,87.253
		c-1.517,26.957-21.535,54.918-64.359,65.362c-67.818,16.53-167.521,14.229-217.602,12.164
		c-94.305,20.116-121.697-56.259-106.069-84.691c76.237-29.828,172.184-85.202,184.098-87.729
		C2370.28,1160.524,2370.004,1195.185,2458.678,1181.675z"/>
	<g>
		<rect x="2308.401" y="1377.319" fill-rule="evenodd" clip-rule="evenodd" fill="#002A38" width="29.986" height="260.948"/>
		<g>
			<path fill-rule="evenodd" clip-rule="evenodd" fill="#002A38" d="M2341.421,1624.708c32.664,5.275,57.216,9.307,88.072,21.644
				c3.688,1.475,14.876,6.889,16.839,8.121c1.973,1.229,0.752,9.107,0.752,9.107c-4.921,0-9.854,0-14.764,0
				c-0.738-2.348-0.4-3.89-1.662-5.105c-3.827-3.697-41.646-10.832-48.401-11.868c-3.998-0.618-21.272-2.176-32.966-2.281
				c-21.409-0.192-13.442,3.897-15.912,22.33c-1.374,5.765-16.129,5.765-17.521,0c-2.465-18.433,5.497-22.522-15.908-22.33
				c-11.686,0.105-28.96,1.663-32.957,2.281c-6.764,1.036-44.575,8.171-48.401,11.868c-1.271,1.216-0.924,2.758-1.663,5.105
				c-4.917,0-9.842,0-14.763,0c0,0-1.229-7.879,0.743-9.107c1.959-1.232,13.159-6.646,16.852-8.121
				c30.853-12.337,55.403-16.368,88.068-21.644C2321.77,1624.917,2327.484,1624.917,2341.421,1624.708z"/>
			<path fill-rule="evenodd" clip-rule="evenodd" fill="#1E3D47" d="M2447.084,1663.587c5.516-1.282,9.221,2.945,11.924,7.261
				c0.864,1.37,1.228,5.01,0.488,5.887c-0.734,1.106-9.229,2.348-13.164,2.098c-3.931-0.243-5.284-0.243-8.723-1.354
				c-2.564-0.822-3.764-2.41-4.357-4.486c-0.747-2.586-0.567-5.911-0.932-9.412
				C2437.229,1663.58,2442.163,1663.587,2447.084,1663.587z"/>
			<path fill-rule="evenodd" clip-rule="evenodd" fill="#1E3D47" d="M2202.194,1663.433c-5.514-1.274-9.232,2.945-11.931,7.261
				c-0.856,1.387-1.225,5.009-0.484,5.891c0.739,1.11,9.219,2.34,13.155,2.098c3.947-0.251,5.284-0.251,8.739-1.358
				c2.557-0.823,3.76-2.41,4.353-4.491c0.748-2.572,0.556-5.898,0.932-9.399C2212.037,1663.433,2207.116,1663.433,2202.194,1663.433
				z"/>
			<path fill-rule="evenodd" clip-rule="evenodd" fill="#284C57" d="M2446.825,1686.698c-5.686,0-10.322-4.365-10.322-9.721
				s4.637-9.726,10.322-9.726c5.698,0,10.336,4.37,10.336,9.726S2452.523,1686.698,2446.825,1686.698z"/>
			<path fill-rule="evenodd" clip-rule="evenodd" fill="#284C57" d="M2202.454,1686.552c-5.698,0-10.349-4.37-10.349-9.722
				c0-5.347,4.65-9.726,10.349-9.726c5.681,0,10.322,4.379,10.322,9.726C2212.776,1682.182,2208.135,1686.552,2202.454,1686.552z"/>
			<path fill-rule="evenodd" clip-rule="evenodd" fill="#002A38" d="M2446.825,1684.731c-4.532,0-8.234-3.484-8.234-7.754
				c0-4.273,3.702-7.758,8.234-7.758c4.537,0,8.247,3.484,8.247,7.758C2455.072,1681.247,2451.362,1684.731,2446.825,1684.731z"/>
			<path fill-rule="evenodd" clip-rule="evenodd" fill="#002A38" d="M2202.454,1684.584c-4.55,0-8.255-3.492-8.255-7.754
				c0-4.273,3.705-7.758,8.255-7.758c4.523,0,8.229,3.484,8.229,7.758C2210.684,1681.092,2206.978,1684.584,2202.454,1684.584z"/>
			<path fill-rule="evenodd" clip-rule="evenodd" fill="#002A38" d="M2331.545,1667.878h-0.008c-1.65,0-3.004,1.357-3.004,3.024
				v13.405c0,1.655,1.354,3.005,3.004,3.005h0.008c1.654,0,3.017-1.35,3.017-3.005v-13.405
				C2334.562,1669.236,2333.199,1667.878,2331.545,1667.878z"/>
			<path fill-rule="evenodd" clip-rule="evenodd" fill="#002A38" d="M2317.403,1667.878L2317.403,1667.878
				c-1.654,0-3.012,1.357-3.012,3.024v13.405c0,1.655,1.357,3.005,3.012,3.005l0,0c1.663,0,3.025-1.35,3.025-3.005v-13.405
				C2320.429,1669.236,2319.066,1667.878,2317.403,1667.878z"/>
			<path fill-rule="evenodd" clip-rule="evenodd" fill="#2B4B55" d="M2330.496,1663.943h-11.802c-0.752,0-1.353,0.606-1.353,1.354
				v15.127c0,0.748,0.601,1.354,1.353,1.354h11.802c0.748,0,1.35-0.605,1.35-1.354v-15.127
				C2331.846,1664.549,2331.244,1663.943,2330.496,1663.943z"/>
		</g>
		<path fill-rule="evenodd" clip-rule="evenodd" fill="#8091A1" d="M2336.458,1594.958h-25.722c-2.645,0-4.809,2.177-4.809,4.825
			v26.527c0,2.649,2.164,4.816,4.809,4.816h25.722c2.648,0,4.809-2.167,4.809-4.816v-26.527
			C2341.267,1597.135,2339.106,1594.958,2336.458,1594.958z"/>
	</g>
	<path fill-rule="evenodd" clip-rule="evenodd" fill="#913C20" d="M2478.32,1341.012h-283.604
		c-13.611,0-24.739,11.128-24.739,24.739v13.422c0,13.615,11.128,24.74,24.739,24.74h283.604c13.615,0,24.739-11.125,24.739-24.74
		v-13.422C2503.06,1352.14,2491.936,1341.012,2478.32,1341.012z"/>
	<path fill-rule="evenodd" clip-rule="evenodd" fill="#B64B26" d="M2169.978,1372.849v6.324c0,13.615,11.128,24.74,24.739,24.74
		h283.604c13.615,0,24.739-11.125,24.739-24.74v-6.324H2169.978z"/>
	<path fill-rule="evenodd" clip-rule="evenodd" fill="#B64B26" d="M2257.055,1034.752c98.6,0.209,197.228,2.741,295.807,0.614
		c27.596-0.597,31.699,17.171,7.979,25.409c-25.471,8.864-42.123,20.649-55.315,45.936
		c-28.136,53.925-29.803,138.271-29.126,182.181l-2.001,52.12h-239.017L2257.055,1034.752z"/>
	<path fill-rule="evenodd" clip-rule="evenodd" fill="#913C20" d="M2544.134,1067.727c-16.46,8.268-28.545,19.705-38.609,38.984
		c-7.712,14.789-13.447,31.863-17.671,49.772h-239.417l6.274-88.757H2544.134z"/>
	<g>
		<path fill-rule="evenodd" clip-rule="evenodd" fill="#2B4B55" d="M2261.145,1393.022l-2.861,9.342h-7.44h-56.925h-6.722
			l-3.141-8.059c-0.075-0.184-24.932-64.452-36.825-106.583c-6.639-23.545-8.548-41.136-3.89-54.626
			c5.163-15.001,16.485-22.316,35.785-23.503c15.582-0.961,29.381-0.873,46.45-0.769c7.044,0.041,14.681,0.084,23.232,0.066
			l0.747-0.008l0.431,0.071C2315.248,1218.224,2261.299,1392.522,2261.145,1393.022L2261.145,1393.022z M2225.493,1230.661
			c-16.552-0.096-29.916-0.184-45.41,0.769c-10.022,0.619-15.266,2.548-16.51,6.204c-1.784,5.159,0.008,15.641,4.507,31.587
			c9.016,31.992,25.734,97.797,32.61,115.978h42.607c8.79-31.022,34.056-149.582,4.633-154.47
			C2239.68,1230.745,2232.314,1230.703,2225.493,1230.661z"/>
		<path fill-rule="evenodd" clip-rule="evenodd" fill="#375864" d="M2266.175,1216.385c-4.32-3.896-9.642-6.512-16.188-7.431
			l-0.431-0.071l-0.747,0.008c-8.552,0.018-16.188-0.025-23.232-0.066c-17.069-0.104-30.868-0.192-46.45,0.769
			c-19.3,1.187-30.622,8.502-35.785,23.503c-4.658,13.49-2.749,31.09,3.89,54.626c11.894,42.131,36.75,106.399,36.825,106.583
			l3.141,8.059h6.722h1.969c-6.547-18.52-14.635-41.705-21.874-63.291c-10.353-30.901-47.187-106.975,1.262-119.228
			C2202.115,1213.061,2242.764,1217.08,2266.175,1216.385z"/>
	</g>
	<path fill-rule="evenodd" clip-rule="evenodd" fill="#EF8972" d="M2359.288,735.945c0,8.639-0.459,9.632-3.634,9.632
		c-3.176,0-2.039-3.741-5.549-11.637c-5.347-12.031-3.082-17.378,0.093-17.378S2359.288,727.306,2359.288,735.945z"/>
</g>
<g>
	<path d="M1353.975,469.122h-15.313l-4.272,9.365h-13.877l25.43-49.971h17.192l4.204,49.971h-13.022L1353.975,469.122z
		 M1343.55,458.458h10.015l-0.581-14.492l-0.068-2.939c0-1.709,0.045-3.201,0.137-4.478c-0.547,1.96-1.242,3.851-2.085,5.674
		L1343.55,458.458z"/>
	<path d="M1373.013,478.487l10.562-49.971h13.569l-10.562,49.971H1373.013z"/>
	<path d="M1457.744,443.487c0,5.742-1.954,10.249-5.862,13.518c-3.908,3.27-9.257,4.905-16.047,4.905h-2.939l-3.418,16.577h-13.364
		l10.562-49.971h12.749c5.901,0,10.43,1.293,13.587,3.879C1456.166,434.982,1457.744,438.679,1457.744,443.487z M1435.288,450.972
		h2.153c2.073,0,3.748-0.667,5.024-2c1.275-1.333,1.914-3.025,1.914-5.076c0-1.344-0.41-2.427-1.23-3.247s-1.948-1.23-3.384-1.23
		h-2.017L1435.288,450.972z"/>
	<path d="M1489.258,427.73c5.924,0,10.532,1.692,13.825,5.076s4.939,8.106,4.939,14.167c0,6.062-1.134,11.604-3.4,16.628
		c-2.269,5.024-5.396,8.875-9.383,11.553c-3.988,2.678-8.613,4.016-13.877,4.016c-6.13,0-10.864-1.697-14.201-5.093
		c-3.339-3.395-5.008-8.112-5.008-14.15c0-6.038,1.173-11.587,3.521-16.646c2.347-5.059,5.542-8.915,9.587-11.57
		C1479.306,429.058,1483.971,427.73,1489.258,427.73z M1494.521,447.11c0-2.598-0.547-4.631-1.641-6.101s-2.678-2.205-4.751-2.205
		c-2.256,0-4.33,0.957-6.221,2.871c-1.892,1.914-3.4,4.546-4.529,7.896c-1.127,3.35-1.691,6.779-1.691,10.288
		c0,5.515,2.278,8.271,6.836,8.271c2.164,0,4.175-0.945,6.033-2.837c1.856-1.891,3.314-4.443,4.375-7.656
		C1493.991,454.424,1494.521,450.916,1494.521,447.11z"/>
	<path d="M1526.821,466.387l1.367-3.555l3.213-7.93l11.45-26.387h11.484v27.07c0,3.555-0.297,7.155-0.889,10.801
		c0.228-0.638,1.743-4.58,4.546-11.826l10.356-26.045h13.228l-21.704,49.971h-15.757v-21.191c0-3.532,0.147-7.223,0.444-11.074
		c-0.752,3.031-2.097,7.007-4.033,11.929l-8.647,20.337h-14.834l-1.675-49.971h12.646l-0.342,25.054
		C1527.539,459.654,1527.254,463.926,1526.821,466.387z"/>
	<path d="M1606.426,478.487h-29.668l10.562-49.971h29.668l-2.222,10.835h-16.304l-1.606,7.861h15.176l-2.461,10.835h-15.176
		l-1.948,9.434h16.304L1606.426,478.487z"/>
	<path d="M1633.325,460.303l-3.862,18.184h-13.364l10.562-49.971h13.228c5.742,0,10.14,1.14,13.193,3.418
		c3.053,2.279,4.58,5.708,4.58,10.288c0,3.555-0.81,6.654-2.427,9.297c-1.618,2.644-4.022,4.66-7.212,6.05l7.656,17.637l1.367,3.281
		h-14.561l-6.665-18.184H1633.325z M1635.479,450.152h1.743c2.164,0,3.885-0.621,5.161-1.863c1.275-1.242,1.914-2.979,1.914-5.212
		c0-1.413-0.393-2.489-1.18-3.23c-0.785-0.74-1.931-1.111-3.435-1.111h-1.812L1635.479,450.152z"/>
	<path d="M1691.26,478.487h-29.668l10.562-49.971h29.668l-2.222,10.835h-16.304l-1.606,7.861h15.176l-2.461,10.835h-15.176
		l-1.948,9.434h16.304L1691.26,478.487z"/>
	<path d="M1745.503,447.417c0,6.38-1.128,11.912-3.384,16.594s-5.532,8.266-9.826,10.75c-4.296,2.484-9.383,3.726-15.262,3.726
		h-16.099l10.562-49.971h14.219c6.289,0,11.16,1.646,14.611,4.939C1743.777,436.748,1745.503,441.402,1745.503,447.417z
		 M1719.048,467.413c2.506,0,4.745-0.797,6.716-2.393c1.971-1.595,3.504-3.868,4.598-6.819c1.094-2.951,1.641-6.317,1.641-10.1
		c0-2.848-0.615-5.007-1.846-6.477s-2.951-2.205-5.161-2.205h-2.427l-5.879,27.993H1719.048z"/>
	<path d="M1777.563,428.516h16.646c4.944,0,8.692,0.94,11.245,2.82c2.552,1.88,3.828,4.575,3.828,8.083
		c0,6.563-3.384,10.858-10.151,12.886v0.273c2.005,0.661,3.6,1.817,4.785,3.469c1.185,1.652,1.777,3.674,1.777,6.067
		c0,5.218-1.738,9.251-5.212,12.1c-3.476,2.849-8.403,4.272-14.783,4.272h-18.696L1777.563,428.516z M1784.844,457.569
		l-2.256,10.493h2.803c1.959,0,3.594-0.552,4.905-1.658c1.31-1.105,1.965-2.489,1.965-4.153c0-1.572-0.376-2.746-1.128-3.521
		c-0.752-0.774-2.074-1.162-3.965-1.162H1784.844z M1786.86,447.691h2.461c2.005,0,3.521-0.433,4.546-1.299
		c1.025-0.866,1.538-2.256,1.538-4.17c0-2.324-1.447-3.486-4.341-3.486h-2.153L1786.86,447.691z"/>
	<path d="M1840.898,427.73c5.924,0,10.532,1.692,13.825,5.076s4.939,8.106,4.939,14.167c0,6.062-1.134,11.604-3.4,16.628
		c-2.269,5.024-5.396,8.875-9.383,11.553c-3.988,2.678-8.613,4.016-13.877,4.016c-6.13,0-10.864-1.697-14.201-5.093
		c-3.339-3.395-5.008-8.112-5.008-14.15c0-6.038,1.173-11.587,3.521-16.646c2.347-5.059,5.542-8.915,9.587-11.57
		C1830.946,429.058,1835.611,427.73,1840.898,427.73z M1846.162,447.11c0-2.598-0.547-4.631-1.641-6.101s-2.678-2.205-4.751-2.205
		c-2.256,0-4.33,0.957-6.221,2.871c-1.892,1.914-3.4,4.546-4.529,7.896c-1.127,3.35-1.691,6.779-1.691,10.288
		c0,5.515,2.278,8.271,6.836,8.271c2.164,0,4.175-0.945,6.033-2.837c1.856-1.891,3.314-4.443,4.375-7.656
		C1845.632,454.424,1846.162,450.916,1846.162,447.11z"/>
	<path d="M1883.247,478.487h-13.364l8.101-38.931h-10.835l2.358-11.04h35.137l-2.427,11.04h-10.869L1883.247,478.487z"/>
	<path d="M1933.115,478.487h-13.364l10.562-49.971h29.463l-2.29,10.835h-16.099l-1.982,9.536h14.902l-2.358,10.903h-14.971
		L1933.115,478.487z"/>
	<path d="M1989.102,427.73c5.924,0,10.532,1.692,13.825,5.076s4.939,8.106,4.939,14.167c0,6.062-1.134,11.604-3.4,16.628
		c-2.269,5.024-5.396,8.875-9.383,11.553c-3.988,2.678-8.613,4.016-13.877,4.016c-6.13,0-10.864-1.697-14.201-5.093
		c-3.339-3.395-5.008-8.112-5.008-14.15c0-6.038,1.173-11.587,3.521-16.646c2.347-5.059,5.542-8.915,9.587-11.57
		C1979.149,429.058,1983.814,427.73,1989.102,427.73z M1994.365,447.11c0-2.598-0.547-4.631-1.641-6.101s-2.678-2.205-4.751-2.205
		c-2.256,0-4.33,0.957-6.221,2.871c-1.892,1.914-3.4,4.546-4.529,7.896c-1.127,3.35-1.691,6.779-1.691,10.288
		c0,5.515,2.278,8.271,6.836,8.271c2.164,0,4.175-0.945,6.033-2.837c1.856-1.891,3.314-4.443,4.375-7.656
		C1993.835,454.424,1994.365,450.916,1994.365,447.11z"/>
	<path d="M2028.374,460.303l-3.862,18.184h-13.364l10.562-49.971h13.228c5.742,0,10.14,1.14,13.193,3.418
		c3.053,2.279,4.58,5.708,4.58,10.288c0,3.555-0.81,6.654-2.427,9.297c-1.618,2.644-4.022,4.66-7.212,6.05l7.656,17.637l1.367,3.281
		h-14.561l-6.665-18.184H2028.374z M2030.527,450.152h1.743c2.164,0,3.885-0.621,5.161-1.863c1.275-1.242,1.914-2.979,1.914-5.212
		c0-1.413-0.393-2.489-1.18-3.23c-0.785-0.74-1.931-1.111-3.435-1.111h-1.812L2030.527,450.152z"/>
	<path d="M1367.407,527.487c0,5.742-1.954,10.249-5.862,13.518c-3.908,3.27-9.257,4.905-16.047,4.905h-2.939l-3.418,16.577h-13.364
		l10.562-49.971h12.749c5.901,0,10.43,1.293,13.587,3.879C1365.829,518.982,1367.407,522.679,1367.407,527.487z M1344.951,534.972
		h2.153c2.073,0,3.748-0.667,5.024-2c1.275-1.333,1.914-3.025,1.914-5.076c0-1.344-0.41-2.427-1.23-3.247s-1.948-1.23-3.384-1.23
		h-2.017L1344.951,534.972z"/>
	<path d="M1386.616,544.303l-3.862,18.184h-13.364l10.562-49.971h13.228c5.742,0,10.14,1.14,13.193,3.418
		c3.053,2.279,4.58,5.708,4.58,10.288c0,3.555-0.81,6.654-2.427,9.297c-1.618,2.644-4.022,4.66-7.212,6.05l7.656,17.637l1.367,3.281
		h-14.561l-6.665-18.184H1386.616z M1388.77,534.152h1.743c2.164,0,3.885-0.621,5.161-1.863c1.275-1.242,1.914-2.979,1.914-5.212
		c0-1.413-0.393-2.489-1.18-3.23c-0.785-0.74-1.931-1.111-3.435-1.111h-1.812L1388.77,534.152z"/>
	<path d="M1444.414,511.73c5.924,0,10.532,1.692,13.825,5.076s4.939,8.106,4.939,14.167c0,6.062-1.134,11.604-3.4,16.628
		c-2.269,5.024-5.396,8.875-9.383,11.553c-3.988,2.678-8.613,4.016-13.877,4.016c-6.13,0-10.864-1.697-14.201-5.093
		c-3.339-3.395-5.008-8.112-5.008-14.15c0-6.038,1.173-11.587,3.521-16.646c2.347-5.059,5.542-8.915,9.587-11.57
		C1434.462,513.058,1439.127,511.73,1444.414,511.73z M1449.678,531.11c0-2.598-0.547-4.631-1.641-6.101s-2.678-2.205-4.751-2.205
		c-2.256,0-4.33,0.957-6.221,2.871c-1.892,1.914-3.4,4.546-4.529,7.896c-1.127,3.35-1.691,6.779-1.691,10.288
		c0,5.515,2.278,8.271,6.836,8.271c2.164,0,4.175-0.945,6.033-2.837c1.856-1.891,3.314-4.443,4.375-7.656
		C1449.147,538.424,1449.678,534.916,1449.678,531.11z"/>
	<path d="M1498.726,547.14c0,5.059-1.675,8.995-5.024,11.809c-3.35,2.814-8.021,4.221-14.014,4.221
		c-2.507,0-4.877-0.279-7.109-0.837c-2.233-0.558-4.159-1.373-5.776-2.444v-11.963c1.914,1.208,4.106,2.222,6.579,3.042
		s4.711,1.23,6.717,1.23c1.686,0,2.962-0.353,3.828-1.06c0.865-0.706,1.299-1.709,1.299-3.008c0-0.615-0.137-1.19-0.41-1.726
		c-0.273-0.535-0.661-1.071-1.162-1.606c-0.502-0.535-1.846-1.714-4.033-3.538c-2.666-2.142-4.604-4.329-5.811-6.563
		c-1.208-2.233-1.812-4.683-1.812-7.349c0-2.985,0.746-5.668,2.239-8.049c1.491-2.381,3.6-4.227,6.322-5.537
		c2.723-1.31,5.771-1.965,9.144-1.965c5.445,0,10.345,1.219,14.697,3.657l-4.614,10.151c-3.896-2.005-7.212-3.008-9.946-3.008
		c-1.459,0-2.581,0.319-3.366,0.957c-0.787,0.638-1.18,1.572-1.18,2.803c0,1.117,0.381,2.159,1.145,3.127
		c0.764,0.969,2.216,2.262,4.358,3.879c2.688,1.982,4.683,4.067,5.981,6.255S1498.726,544.315,1498.726,547.14z"/>
	<path d="M1546.44,527.487c0,5.742-1.954,10.249-5.862,13.518c-3.908,3.27-9.257,4.905-16.047,4.905h-2.939l-3.418,16.577h-13.364
		l10.562-49.971h12.749c5.901,0,10.43,1.293,13.587,3.879C1544.862,518.982,1546.44,522.679,1546.44,527.487z M1523.984,534.972
		h2.153c2.073,0,3.748-0.667,5.024-2c1.275-1.333,1.914-3.025,1.914-5.076c0-1.344-0.41-2.427-1.23-3.247s-1.948-1.23-3.384-1.23
		h-2.017L1523.984,534.972z"/>
	<path d="M1578.091,562.487h-29.668l10.562-49.971h29.668l-2.222,10.835h-16.304l-1.606,7.861h15.176l-2.461,10.835h-15.176
		l-1.948,9.434h16.304L1578.091,562.487z"/>
	<path d="M1616.748,522.873c-2.461,0-4.683,0.889-6.665,2.666s-3.537,4.227-4.666,7.349c-1.127,3.122-1.691,6.506-1.691,10.151
		c0,3.054,0.638,5.332,1.914,6.836c1.275,1.504,3.11,2.256,5.503,2.256c1.891,0,3.805-0.233,5.742-0.701
		c1.937-0.467,4.215-1.259,6.836-2.375v11.04c-4.626,2.051-9.639,3.076-15.039,3.076c-5.925,0-10.488-1.692-13.688-5.076
		c-3.202-3.384-4.803-8.174-4.803-14.373c0-6.061,1.156-11.621,3.469-16.68s5.457-8.875,9.434-11.45
		c3.977-2.575,8.528-3.862,13.655-3.862c6.038,0,11.519,1.493,16.44,4.478l-5.059,10.425c-2.119-1.253-4.067-2.193-5.845-2.82
		C1620.508,523.186,1618.662,522.873,1616.748,522.873z"/>
	<path d="M1652.158,562.487h-13.364l8.101-38.931h-10.835l2.358-11.04h35.137l-2.427,11.04h-10.869L1652.158,562.487z"/>
	<path d="M1720.928,547.14c0,5.059-1.675,8.995-5.024,11.809c-3.35,2.814-8.021,4.221-14.014,4.221
		c-2.507,0-4.877-0.279-7.109-0.837c-2.233-0.558-4.159-1.373-5.776-2.444v-11.963c1.914,1.208,4.106,2.222,6.579,3.042
		s4.711,1.23,6.717,1.23c1.686,0,2.962-0.353,3.828-1.06c0.865-0.706,1.299-1.709,1.299-3.008c0-0.615-0.137-1.19-0.41-1.726
		c-0.273-0.535-0.661-1.071-1.162-1.606c-0.502-0.535-1.846-1.714-4.033-3.538c-2.666-2.142-4.604-4.329-5.811-6.563
		c-1.208-2.233-1.812-4.683-1.812-7.349c0-2.985,0.746-5.668,2.239-8.049c1.491-2.381,3.6-4.227,6.322-5.537
		c2.723-1.31,5.771-1.965,9.144-1.965c5.445,0,10.345,1.219,14.697,3.657l-4.614,10.151c-3.896-2.005-7.212-3.008-9.946-3.008
		c-1.459,0-2.581,0.319-3.366,0.957c-0.787,0.638-1.18,1.572-1.18,2.803c0,1.117,0.381,2.159,1.145,3.127
		c0.764,0.969,2.216,2.262,4.358,3.879c2.688,1.982,4.683,4.067,5.981,6.255S1720.928,544.315,1720.928,547.14z"/>
	<path d="M1756.543,511.73c5.924,0,10.532,1.692,13.825,5.076s4.939,8.106,4.939,14.167c0,6.062-1.134,11.604-3.4,16.628
		c-2.269,5.024-5.396,8.875-9.383,11.553c-3.988,2.678-8.613,4.016-13.877,4.016c-6.13,0-10.864-1.697-14.201-5.093
		c-3.339-3.395-5.008-8.112-5.008-14.15c0-6.038,1.173-11.587,3.521-16.646c2.347-5.059,5.542-8.915,9.587-11.57
		C1746.591,513.058,1751.256,511.73,1756.543,511.73z M1761.807,531.11c0-2.598-0.547-4.631-1.641-6.101s-2.678-2.205-4.751-2.205
		c-2.256,0-4.33,0.957-6.221,2.871c-1.892,1.914-3.4,4.546-4.529,7.896c-1.127,3.35-1.691,6.779-1.691,10.288
		c0,5.515,2.278,8.271,6.836,8.271c2.164,0,4.175-0.945,6.033-2.837c1.856-1.891,3.314-4.443,4.375-7.656
		C1761.276,538.424,1761.807,534.916,1761.807,531.11z"/>
	<path d="M1827.021,512.516l-6.802,31.855c-1.345,6.403-3.908,11.137-7.69,14.202c-3.783,3.065-8.921,4.597-15.415,4.597
		c-3.054,0-5.748-0.627-8.083-1.88c-2.337-1.253-4.137-3.008-5.4-5.264c-1.266-2.256-1.897-4.773-1.897-7.554
		c0-1.458,0.137-2.928,0.41-4.409l6.802-31.548h13.364l-6.665,31.206c-0.319,1.55-0.479,2.86-0.479,3.931
		c0,2.894,1.378,4.341,4.136,4.341c2.142,0,3.822-0.735,5.042-2.205c1.218-1.47,2.146-3.72,2.785-6.75l6.528-30.522H1827.021z"/>
	<path d="M1844.897,544.303l-3.862,18.184h-13.364l10.562-49.971h13.228c5.742,0,10.14,1.14,13.193,3.418
		c3.053,2.279,4.58,5.708,4.58,10.288c0,3.555-0.81,6.654-2.427,9.297c-1.618,2.644-4.022,4.66-7.212,6.05l7.656,17.637l1.367,3.281
		h-14.561l-6.665-18.184H1844.897z M1847.051,534.152h1.743c2.164,0,3.885-0.621,5.161-1.863c1.275-1.242,1.914-2.979,1.914-5.212
		c0-1.413-0.393-2.489-1.18-3.23c-0.785-0.74-1.931-1.111-3.435-1.111h-1.812L1847.051,534.152z"/>
	<path d="M1902.148,522.873c-2.461,0-4.683,0.889-6.665,2.666s-3.537,4.227-4.666,7.349c-1.127,3.122-1.691,6.506-1.691,10.151
		c0,3.054,0.638,5.332,1.914,6.836c1.275,1.504,3.11,2.256,5.503,2.256c1.891,0,3.805-0.233,5.742-0.701
		c1.937-0.467,4.215-1.259,6.836-2.375v11.04c-4.626,2.051-9.639,3.076-15.039,3.076c-5.925,0-10.488-1.692-13.688-5.076
		c-3.202-3.384-4.803-8.174-4.803-14.373c0-6.061,1.156-11.621,3.469-16.68s5.457-8.875,9.434-11.45
		c3.977-2.575,8.528-3.862,13.655-3.862c6.038,0,11.519,1.493,16.44,4.478l-5.059,10.425c-2.119-1.253-4.067-2.193-5.845-2.82
		C1905.908,523.186,1904.063,522.873,1902.148,522.873z"/>
	<path d="M1917.188,562.487l10.562-49.971h13.569l-10.562,49.971H1917.188z"/>
	<path d="M1986.06,562.487h-15.552l-9.878-35.137h-0.273c-0.661,6.631-1.311,11.394-1.948,14.287l-4.409,20.85h-11.895
		l10.562-49.971h15.552l9.775,33.599h0.308c0.66-5.377,1.31-9.604,1.948-12.681l4.478-20.918h11.895L1986.06,562.487z"/>
	<path d="M2021.265,533.229h20.85l-5.708,27.173c-5.697,1.846-11.633,2.769-17.808,2.769c-5.947,0-10.562-1.731-13.843-5.195
		c-3.281-3.463-4.922-8.374-4.922-14.731c0-6.084,1.253-11.575,3.76-16.475c2.506-4.899,5.941-8.63,10.305-11.194
		s9.439-3.845,15.228-3.845c6.061,0,11.165,1.219,15.313,3.657l-5.024,10.562c-3.486-2.051-6.973-3.076-10.459-3.076
		c-3.008,0-5.669,0.826-7.98,2.478c-2.313,1.652-4.159,4.096-5.537,7.332c-1.38,3.236-2.068,6.688-2.068,10.356
		c0,6.016,2.381,9.023,7.144,9.023c1.436,0,2.95-0.159,4.546-0.479l1.743-7.93h-7.827L2021.265,533.229z"/>
</g>
<g>
	<path fill="#FFEFD4" d="M639.035,1039.972c0-25.104-54.82-45.458-122.447-45.458s-122.447,20.354-122.447,45.458
		c26.596,25.247,54.82,45.458,122.447,45.458S625.209,1057.719,639.035,1039.972z"/>
	<g>
		<path fill="#003B57" d="M301.431,975.942c-3.913,0-7.527-2.547-8.71-6.486c-30.532-101.855,30.563-164.052,33.178-166.648
			c3.563-3.537,9.321-3.522,12.857,0.042c3.532,3.56,3.522,9.303-0.027,12.844l0,0c-2.294,2.303-55.894,57.453-28.587,148.542
			c1.44,4.808-1.284,9.881-6.101,11.321C303.174,975.817,302.293,975.942,301.431,975.942z"/>
		<path fill="#003B57" d="M287.941,1023.087c-3.257,0-6.408-1.762-8.037-4.84c-10.725-20.247-2.972-45.448,17.284-56.173
			c9.807-5.197,21.054-6.257,31.66-2.99c10.61,3.266,19.312,10.467,24.504,20.274c2.349,4.44,0.651,9.94-3.784,12.293
			c-4.431,2.349-9.94,0.656-12.289-3.784c-2.922-5.519-7.816-9.568-13.779-11.403c-5.963-1.83-12.284-1.243-17.807,1.684
			c-11.385,6.032-15.748,20.206-9.72,31.591c2.353,4.44,0.656,9.94-3.784,12.293
			C290.835,1022.748,289.381,1023.087,287.941,1023.087z"/>
		<g>
			<path fill="#003B57" d="M413.452,821.009c2.473,42.867-17.669,78.893-44.994,80.466c-27.32,1.578-51.48-31.889-53.953-74.76
				c-2.472-42.862,17.665-78.889,44.995-80.466C386.82,744.675,410.975,778.143,413.452,821.009z"/>
		</g>
	</g>
	<g>
		<path fill="#003B57" d="M619.723,821.009c-2.478,42.867,17.669,78.893,44.989,80.466c27.326,1.578,51.486-31.889,53.953-74.76
			c2.478-42.862-17.664-78.889-44.989-80.466C646.355,744.675,622.201,778.143,619.723,821.009z"/>
	</g>
	<path fill="#003B57" d="M516.587,1167.814c-38.788,0-81.42-48.669-116.961-133.534c-29.829-71.215-50.659-159.217-50.659-214
		c0-46.325,15.601-78.241,47.7-97.581c26.757-16.11,65.98-23.949,119.92-23.949s93.163,7.839,119.915,23.949
		c32.101,19.339,47.706,51.256,47.706,97.581c0,54.784-20.83,142.786-50.66,214C598.007,1119.145,555.375,1167.814,516.587,1167.814
		z"/>
	<path fill="#FFFFFF" d="M691.483,820.279c0-105.089-78.301-128.8-174.896-128.8c-96.594,0-174.896,23.71-174.896,128.8
		c0,41.343,12.119,105.057,32.696,167.153c31.229,12.876,66.77,21.619,104.897,24.972c0.835-18.756,16.261-33.72,35.224-33.72
		s34.39,14.964,35.225,33.72c40.1-3.522,77.352-12.981,109.713-26.98C679.621,923.965,691.483,861.168,691.483,820.279z"/>
	<path opacity="0.5" fill="#FFEFD4" d="M670.704,744.327c-29.518-41.54-87.452-52.847-154.116-52.847
		c-48.838,0-92.979,6.082-124.708,25.655C422.195,758.877,479.019,787,544.183,787C593.898,787,638.75,770.615,670.704,744.327z"/>
	<g>
		<path fill="#003B57" d="M371.209,604.931c-0.527,27.743-8.646,50.091-18.146,49.912c-9.499-0.179-16.766-22.82-16.242-50.563
			c0.522-27.752,8.651-50.104,18.146-49.921C364.462,554.542,371.738,577.179,371.209,604.931z"/>
		<path fill="#003B57" d="M667.226,610.522c-0.527,27.751,6.748,50.389,16.238,50.563c9.5,0.188,17.624-22.16,18.146-49.907
			c0.528-27.747-6.742-50.389-16.238-50.568C675.869,560.432,667.75,582.78,667.226,610.522z"/>
		<path fill="#FFFFFF" d="M694.813,611.05c-1.449,76.796-81.246,137.575-178.226,135.74
			c-96.984-1.835-174.428-65.581-172.969-142.382c1.449-76.806,81.246-137.584,178.226-135.75
			C618.833,470.498,696.272,534.244,694.813,611.05z"/>
		<path fill="#66C0CC" d="M429.763,678.906c-25.174-0.477-45.273-21.348-44.797-46.531l1.027-54.357
			c0.478-25.188,21.349-45.279,46.526-44.811l176.148,3.33c25.179,0.486,45.274,21.353,44.797,46.536l-1.027,54.366
			c-0.478,25.179-21.349,45.279-46.531,44.807L429.763,678.906z"/>
		<path fill="#003B57" d="M646.943,582.949c0.412-21.619-16.779-39.472-38.403-39.88l-176.134-3.334
			c-21.623-0.413-39.48,16.784-39.889,38.398l-1.028,54.366c-0.408,21.619,16.78,39.48,38.403,39.889l176.139,3.33
			c21.623,0.408,39.472-16.784,39.885-38.403L646.943,582.949z"/>
		<rect x="483.657" y="641.416" fill="#FFFFFF" width="11.767" height="11.766"/>
		<rect x="471.891" y="641.416" fill="#FFFFFF" width="11.766" height="11.766"/>
		<rect x="495.423" y="641.416" fill="#FFFFFF" width="11.761" height="11.766"/>
		<rect x="507.184" y="641.416" fill="#FFFFFF" width="11.771" height="11.766"/>
		<rect x="518.955" y="641.416" fill="#FFFFFF" width="11.766" height="11.766"/>
		<rect x="530.72" y="641.416" fill="#FFFFFF" width="11.766" height="11.766"/>
		<rect x="542.486" y="641.416" fill="#FFFFFF" width="11.762" height="11.766"/>
		<rect x="554.248" y="641.416" fill="#FFFFFF" width="11.766" height="11.766"/>
		<path fill="#FFFFFF" d="M473.791,596.885c0-3.491-11.844-6.312-26.449-6.312c-14.609,0-26.449,2.821-26.449,6.312
			c0,3.482,11.84,6.307,26.449,6.307C461.947,603.192,473.791,600.367,473.791,596.885z"/>
		<path fill="#FFFFFF" d="M613.026,596.885c0-3.491-11.839-6.312-26.449-6.312c-14.604,0-26.444,2.821-26.444,6.312
			c0,3.482,11.84,6.307,26.444,6.307C601.187,603.192,613.026,600.367,613.026,596.885z"/>
		<path opacity="0.5" fill="#FFFFFF" d="M644.824,569.597l-71.751,105.498l22.444,0.422l51.096-75.136l0.33-17.431
			C647.035,578.271,646.254,573.785,644.824,569.597z M617.383,544.28l-88.401,129.979l36.366,0.688l76.347-112.255
			C636.484,553.661,627.787,546.9,617.383,544.28z M392.875,643.535c1.881,6.89,5.596,13.014,10.596,17.844l82.049-120.64
			l-22.439-0.422L392.875,643.535z M432.406,539.735c-5.514-0.105-10.775,0.945-15.568,2.917l-24.325,35.761l-1.023,54.086
			c-0.009,0.509,0.032,1,0.046,1.509l63.815-93.842L432.406,539.735z"/>
	</g>
	<path fill="#FFFFFF" d="M375.801,549.51c0,0,30.761-50.224,96.838-68.453c66.071-18.234,5.605,12.683-15.308,20.866
		C436.419,510.107,410.2,516.167,375.801,549.51z"/>
	<g>
		<g>
			<path fill="#003B57" d="M700.869,818.348c-2.102,0-4.211-0.72-5.927-2.192c-3.803-3.266-4.243-9-0.981-12.803l0,0
				c2.101-2.481,51.178-61.691,16.756-150.341c-1.816-4.674,0.505-9.949,5.184-11.761c4.692-1.835,9.949,0.504,11.766,5.179
				c38.495,99.131-17.495,165.96-19.898,168.753C705.969,817.279,703.418,818.348,700.869,818.348z"/>
			<path fill="#003B57" d="M701.593,660.608c-13.762,0-27.233-6.812-35.137-19.256c-2.697-4.239-1.445-9.858,2.793-12.555
				c4.234-2.692,9.857-1.44,12.551,2.803c6.912,10.876,21.38,14.105,32.251,7.193c5.271-3.349,8.922-8.55,10.284-14.642
				c1.357-6.092,0.262-12.348-3.082-17.614c-2.697-4.238-1.445-9.857,2.793-12.555c4.234-2.684,9.857-1.44,12.555,2.798
				c5.949,9.376,7.899,20.5,5.478,31.334c-2.413,10.834-8.908,20.073-18.275,26.027
				C716.914,658.517,709.208,660.608,701.593,660.608z"/>
		</g>
		<path fill="#FFFFFF" d="M706.804,738.648l44.118,19.22c0,0,7.936-39.265-3.78-71.43l-34.091-1.834
			C713.051,684.604,713.17,719.924,706.804,738.648z"/>
	</g>
	<path fill="#FFFFFF" d="M320.266,882.077l-43.518-20.551c0,0-9.124,39.014,1.61,71.513l34.022,2.881
		C312.381,935.919,313.33,900.604,320.266,882.077z"/>
	<path fill="#FFFFFF" d="M516.587,1071.123c-43.999,0-85.558-11.252-122.447-31.15c31.55,74.26,74.77,135.116,122.447,135.116
		s90.897-60.852,122.442-135.116C602.146,1059.871,560.586,1071.123,516.587,1071.123z"/>
	<path fill="#003B57" d="M542.045,1050.619c0-20.229-13.031-36.628-29.109-36.628c-16.073,0-29.109,16.399-29.109,36.628
		c0,20.229,13.036,36.628,29.109,36.628C529.014,1087.247,542.045,1070.848,542.045,1050.619z"/>
	<path fill="#FFFFFF" d="M530.074,1034.972c0-18.201-7.67-32.949-17.138-32.949s-17.137,14.748-17.137,32.949
		c0,18.197,7.669,32.949,17.137,32.949S530.074,1053.169,530.074,1034.972z"/>
	<g>
		<path fill="#003B57" d="M558.564,816c0-23.178-18.793-41.972-41.977-41.972c-23.183,0-41.98,18.793-41.98,41.972
			c0,23.188,18.798,41.981,41.98,41.981C539.771,857.981,558.564,839.188,558.564,816z"/>
		<g>
			<path fill="#FFFFFF" d="M551.826,816c0-19.458-15.779-35.233-35.238-35.233c-19.463,0-35.237,15.775-35.237,35.233
				c0,19.463,15.774,35.243,35.237,35.243C536.046,851.242,551.826,835.462,551.826,816z"/>
			<path fill="#003B57" d="M547.605,816c0-17.128-13.89-31.013-31.018-31.013c-17.133,0-31.018,13.885-31.018,31.013
				c0,17.133,13.885,31.022,31.018,31.022C533.715,847.022,547.605,833.132,547.605,816z"/>
			<path opacity="0.5" fill="#FFFFFF" d="M509.143,822.702c15.031,0,27.518-10.702,30.361-24.894
				c-5.366-6.748-13.623-11.087-22.917-11.087c-15.408,0-28.009,11.903-29.169,27.013
				C493.019,819.252,500.662,822.702,509.143,822.702z"/>
		</g>
	</g>
	<path fill="#37DDE7" d="M639.035,1246.739c0-13.055-56.224-23.642-125.575-23.642c-69.348,0-125.571,10.587-125.571,23.642
		c0,13.06,56.224,23.642,125.571,23.642C582.811,1270.38,639.035,1259.798,639.035,1246.739z"/>
	<path fill="#003B57" d="M704.927,552.257c-3.458,0-6.766-1.986-8.288-5.344c-19.651-43.343-59.384-57.155-59.788-57.283
		c-4.748-1.605-7.32-6.743-5.733-11.5s6.706-7.334,11.463-5.761c1.931,0.638,47.572,16.197,70.622,67.035
		c2.078,4.573,0.051,9.963-4.527,12.037C707.459,551.991,706.185,552.257,704.927,552.257z"/>
	<path fill="#003B57" d="M724.087,527.377c-3.458,0-6.766-1.991-8.288-5.344c-19.655-43.343-59.389-57.155-59.788-57.283
		c-4.748-1.605-7.316-6.743-5.738-11.5c1.587-4.756,6.715-7.334,11.468-5.761c1.931,0.638,47.567,16.197,70.622,67.036
		c2.073,4.573,0.046,9.963-4.527,12.036C726.62,527.111,725.345,527.377,724.087,527.377z"/>
</g>
</svg>
