<?xml version="1.0" encoding="utf-8"?>
<!-- Generator: Adobe Illustrator 16.0.0, SVG Export Plug-In . SVG Version: 6.00 Build 0)  -->
<!DOCTYPE svg PUBLIC "-//W3C//DTD SVG 1.1//EN" "http://www.w3.org/Graphics/SVG/1.1/DTD/svg11.dtd">
<svg version="1.1" id="Layer_1" xmlns="http://www.w3.org/2000/svg" xmlns:xlink="http://www.w3.org/1999/xlink" x="0px" y="0px"
	 width="1039.928px" height="655.986px" viewBox="0 0 1039.928 655.986" enable-background="new 0 0 1039.928 655.986"
	 xml:space="preserve">
<path fill="#C2D4EA" d="M361.253,534.278V161.189c0-3.617,2.933-6.55,6.55-6.55h551.828c3.617,0,6.55,2.932,6.55,6.549v373.089
	c0,3.617-2.933,6.549-6.55,6.549H367.803C364.186,540.827,361.253,537.895,361.253,534.278z"/>
<path fill="#2C4482" d="M920.673,495.831H366.762c-3.029,0-5.508-2.479-5.508-5.508V160.147c0-3.03,2.479-5.508,5.508-5.508h553.912
	c3.029,0,5.508,2.479,5.508,5.508v330.175C926.181,493.352,923.703,495.831,920.673,495.831z"/>
<path fill="#486ED1" d="M891.632,469.641H394.274c-7.333,0-13.271-5.955-13.25-13.287l0.728-265.985
	c0.02-7.304,5.946-13.214,13.25-13.214h497.359c7.332,0,13.271,5.955,13.25,13.287l-0.728,265.985
	C904.863,463.731,898.936,469.641,891.632,469.641z"/>
<path fill="#3B65C4" d="M855.572,281.865c-43.521,63.307-97.499,119.381-159.293,165.041c-10.699,7.905-21.637,15.483-32.781,22.735
	h228.135c7.304,0,13.23-5.91,13.251-13.215l0.711-259.772C890.969,226.196,874.251,254.691,855.572,281.865z"/>
<path fill="#2C4482" d="M1039.927,644.776h-44.315H270.84h-23.333c0,0,0,0,0,0.001v7.37c0,4.128,3.459,3.834,3.459,3.834h19.874
	h724.771h40.856c0,0,3.46,0.294,3.46-3.834L1039.927,644.776C1039.928,644.776,1039.927,644.776,1039.927,644.776z"/>
<path fill="#E2EAF5" d="M1038.029,646.924H249.406c-1.734,0-2.558-2.137-1.271-3.301L361.15,541.427
	c0.349-0.314,0.801-0.489,1.271-0.489h562.593c0.47,0,0.922,0.175,1.271,0.489L1039.3,643.624
	C1040.586,644.788,1039.763,646.924,1038.029,646.924z"/>
<path fill="#C2D4EA" d="M755.595,635.471h-223.69c-2.92,0-4.079-2.274-2.611-4.99l11.104-20.544c1.169-2.161,4.17-3.894,6.693-3.894
	H740.41c2.523,0,5.525,1.732,6.693,3.894l11.104,20.544C759.675,633.197,758.515,635.471,755.595,635.471z"/>
<g>
	<g>
		<g>
			<path fill="#C2D4EA" d="M414.748,551.153h-21.999c-3.068,0-4.936-0.569-4.176-1.269l2.233-2.053
				c0.742-0.683,3.779-1.233,6.788-1.233h21.575c3.009,0,4.926,0.551,4.279,1.233l-1.945,2.053
				C420.841,550.583,417.815,551.153,414.748,551.153z"/>
		</g>
		<g>
			<path fill="#C2D4EA" d="M451.846,551.153h-21.998c-3.067,0-5.024-0.569-4.375-1.269l1.911-2.053
				c0.635-0.683,3.586-1.233,6.595-1.233h21.574c3.009,0,5.013,0.551,4.474,1.233l-1.623,2.053
				C457.851,550.583,454.915,551.153,451.846,551.153z"/>
		</g>
		<g>
			<path fill="#C2D4EA" d="M488.946,551.153h-21.998c-3.068,0-5.114-0.569-4.574-1.269l1.589-2.053
				c0.527-0.683,3.393-1.233,6.401-1.233h21.574c3.009,0,5.1,0.551,4.667,1.233l-1.301,2.053
				C494.862,550.583,492.014,551.153,488.946,551.153z"/>
		</g>
		<g>
			<path fill="#C2D4EA" d="M526.045,551.153h-21.999c-3.067,0-5.203-0.569-4.772-1.269l1.267-2.053
				c0.421-0.683,3.198-1.233,6.208-1.233h21.574c3.009,0,5.186,0.551,4.86,1.233l-0.979,2.053
				C531.872,550.583,529.113,551.153,526.045,551.153z"/>
		</g>
		<g>
			<path fill="#C2D4EA" d="M563.144,551.153h-21.998c-3.067,0-5.293-0.569-4.972-1.269l0.943-2.053
				c0.314-0.683,3.006-1.233,6.015-1.233h21.575c3.009,0,5.271,0.551,5.054,1.233l-0.656,2.053
				C568.881,550.583,566.212,551.153,563.144,551.153z"/>
		</g>
		<g>
			<path fill="#C2D4EA" d="M600.244,551.153h-21.998c-3.068,0-5.383-0.569-5.171-1.269l0.621-2.053
				c0.207-0.683,2.813-1.233,5.821-1.233h21.575c3.008,0,5.357,0.551,5.246,1.233l-0.334,2.053
				C605.891,550.583,603.311,551.153,600.244,551.153z"/>
		</g>
		<g>
			<path fill="#C2D4EA" d="M637.342,551.153h-21.998c-3.067,0-5.472-0.569-5.369-1.269l0.299-2.053
				c0.1-0.683,2.619-1.233,5.628-1.233h21.574c3.009,0,5.444,0.551,5.44,1.233l-0.012,2.053
				C642.901,550.583,640.411,551.153,637.342,551.153z"/>
		</g>
		<g>
			<path fill="#C2D4EA" d="M674.442,551.153h-21.998c-3.068,0-5.562-0.569-5.568-1.269l-0.023-2.053
				c-0.008-0.683,2.426-1.233,5.435-1.233h21.574c3.009,0,5.531,0.551,5.634,1.233l0.311,2.053
				C679.911,550.583,677.51,551.153,674.442,551.153z"/>
		</g>
		<g>
			<path fill="#C2D4EA" d="M711.542,551.153h-21.999c-3.067,0-5.65-0.569-5.768-1.269l-0.345-2.053
				c-0.114-0.683,2.231-1.233,5.24-1.233h21.575c3.009,0,5.617,0.551,5.827,1.233l0.633,2.053
				C716.92,550.583,714.609,551.153,711.542,551.153z"/>
		</g>
		<g>
			<path fill="#C2D4EA" d="M748.64,551.153h-21.998c-3.067,0-5.739-0.569-5.967-1.269l-0.667-2.053
				c-0.222-0.683,2.038-1.233,5.047-1.233h21.575c3.009,0,5.703,0.551,6.021,1.233l0.955,2.053
				C753.93,550.583,751.708,551.153,748.64,551.153z"/>
		</g>
		<g>
			<path fill="#C2D4EA" d="M785.74,551.153h-21.998c-3.068,0-5.829-0.569-6.166-1.269l-0.989-2.053
				c-0.329-0.683,1.845-1.233,4.854-1.233h21.574c3.009,0,5.79,0.551,6.215,1.233l1.276,2.053
				C790.94,550.583,788.807,551.153,785.74,551.153z"/>
		</g>
		<g>
			<path fill="#C2D4EA" d="M822.838,551.153H800.84c-3.067,0-5.918-0.569-6.364-1.269l-1.312-2.053
				c-0.437-0.683,1.651-1.233,4.66-1.233h21.574c3.009,0,5.877,0.551,6.408,1.233l1.599,2.053
				C827.95,550.583,825.907,551.153,822.838,551.153z"/>
		</g>
		<g>
			<path fill="#C2D4EA" d="M859.938,551.153H837.94c-3.068,0-6.008-0.569-6.563-1.269l-1.634-2.053
				c-0.543-0.683,1.458-1.233,4.467-1.233h21.574c3.009,0,5.963,0.551,6.602,1.233l1.921,2.053
				C864.96,550.583,863.006,551.153,859.938,551.153z"/>
		</g>
		<g>
			<path fill="#C2D4EA" d="M897.038,551.153H875.04c-3.068,0-6.098-0.569-6.764-1.269l-1.955-2.053
				c-0.65-0.683,1.264-1.233,4.273-1.233h21.574c3.009,0,6.049,0.551,6.795,1.233l2.243,2.053
				C901.97,550.583,900.105,551.153,897.038,551.153z"/>
		</g>
		<g>
			<path fill="#C2D4EA" d="M409.619,558.99H381.17c-0.708,0-1.135-0.136-0.953-0.304l7.087-6.548
				c0.172-0.159,0.868-0.287,1.556-0.287h27.617c0.688,0,1.122,0.128,0.971,0.287l-6.257,6.548
				C411.031,558.854,410.327,558.99,409.619,558.99z"/>
		</g>
		<g>
			<path fill="#C2D4EA" d="M459.422,567.813h-29.476c-0.733,0-1.204-0.146-1.051-0.326l5.984-7.021
				c0.145-0.17,0.839-0.308,1.55-0.308h28.584c0.712,0,1.189,0.138,1.066,0.308l-5.093,7.021
				C460.857,567.667,460.157,567.813,459.422,567.813z"/>
		</g>
		<g>
			<path fill="#C2D4EA" d="M461.401,577.298h-30.58c-0.762,0-1.251-0.157-1.092-0.352l6.178-7.55c0.149-0.183,0.868-0.33,1.605-0.33
				h29.621c0.738,0,1.234,0.147,1.107,0.33l-5.219,7.55C462.888,577.141,462.162,577.298,461.401,577.298z"/>
		</g>
		<g>
			<path fill="#C2D4EA" d="M475.842,587.521h-31.771c-0.791,0-1.308-0.169-1.152-0.378l6.017-8.14
				c0.145-0.196,0.883-0.355,1.648-0.355h30.736c0.766,0,1.289,0.159,1.169,0.355l-4.983,8.14
				C477.378,587.352,476.633,587.521,475.842,587.521z"/>
		</g>
		<g>
			<path fill="#C2D4EA" d="M370.279,599.84h-33.021c-0.878,0-1.376-0.196-1.114-0.438l10.845-10.019
				c0.244-0.226,1.126-0.408,1.971-0.408h31.762c0.845,0,1.355,0.183,1.14,0.408l-9.572,10.019
				C372.057,599.644,371.157,599.84,370.279,599.84z"/>
		</g>
		<g>
			<path fill="#C2D4EA" d="M414.375,599.84h-33.021c-0.878,0-1.407-0.196-1.182-0.438l9.295-10.019
				c0.209-0.226,1.063-0.408,1.907-0.408h31.762c0.845,0,1.383,0.183,1.203,0.408l-8.023,10.019
				C416.123,599.644,415.253,599.84,414.375,599.84z"/>
		</g>
		<g>
			<path fill="#C2D4EA" d="M457.141,599.84h-33.021c-0.878,0-1.437-0.196-1.248-0.438l7.792-10.019
				c0.176-0.226,1.002-0.408,1.847-0.408h31.762c0.845,0,1.41,0.183,1.264,0.408l-6.521,10.019
				C458.859,599.644,458.019,599.84,457.141,599.84z"/>
		</g>
		<g>
			<path fill="#C2D4EA" d="M511.038,599.84h-43.571c-1.003,0-1.674-0.225-1.501-0.501l6.202-9.898
				c0.161-0.258,1.073-0.466,2.038-0.466h41.91c0.965,0,1.65,0.208,1.531,0.466l-4.563,9.898
				C512.957,599.616,512.041,599.84,511.038,599.84z"/>
		</g>
		<g>
			<path fill="#C2D4EA" d="M779.077,599.84h-43.571c-1.002,0-1.886-0.225-1.973-0.501l-3.104-9.898
				c-0.08-0.258,0.636-0.466,1.601-0.466h41.91c0.965,0,1.847,0.208,1.97,0.466l4.743,9.898
				C780.785,599.616,780.08,599.84,779.077,599.84z"/>
		</g>
		<g>
			<path fill="#C2D4EA" d="M823.188,599.84h-32.554c-0.872,0-1.679-0.195-1.801-0.436l-5.091-10.024
				c-0.113-0.224,0.475-0.405,1.313-0.405h31.313c0.839,0,1.634,0.182,1.775,0.405l6.347,10.024
				C824.643,599.645,824.06,599.84,823.188,599.84z"/>
		</g>
		<g>
			<path fill="#C2D4EA" d="M724.638,599.84H523.59c-2.107,0-3.61-0.472-3.357-1.052l3.857-8.833c0.236-0.542,2.072-0.98,4.1-0.98
				h193.386c2.027,0,3.801,0.438,3.961,0.98l2.608,8.833C728.316,599.369,726.747,599.84,724.638,599.84z"/>
		</g>
		<g>
			<path fill="#C2D4EA" d="M517.099,587.521h-31.771c-0.791,0-1.333-0.169-1.21-0.378l4.785-8.14
				c0.116-0.196,0.83-0.355,1.596-0.355h30.737c0.765,0,1.313,0.159,1.222,0.355l-3.752,8.14
				C518.61,587.352,517.89,587.521,517.099,587.521z"/>
		</g>
		<g>
			<path fill="#C2D4EA" d="M558.356,587.521h-31.77c-0.792,0-1.359-0.169-1.268-0.378l3.555-8.14
				c0.086-0.196,0.775-0.355,1.541-0.355h30.736c0.766,0,1.337,0.159,1.276,0.355l-2.521,8.14
				C559.841,587.352,559.147,587.521,558.356,587.521z"/>
		</g>
		<g>
			<path fill="#C2D4EA" d="M599.614,587.521h-31.771c-0.791,0-1.384-0.169-1.324-0.378l2.323-8.14
				c0.056-0.196,0.722-0.355,1.487-0.355h30.737c0.766,0,1.36,0.159,1.329,0.355l-1.29,8.14
				C601.073,587.352,600.405,587.521,599.614,587.521z"/>
		</g>
		<g>
			<path fill="#C2D4EA" d="M640.872,587.521H609.1c-0.791,0-1.409-0.169-1.382-0.378l1.093-8.14
				c0.026-0.196,0.668-0.355,1.434-0.355h30.737c0.766,0,1.385,0.159,1.383,0.355l-0.059,8.14
				C642.304,587.352,641.663,587.521,640.872,587.521z"/>
		</g>
		<g>
			<path fill="#C2D4EA" d="M682.128,587.521h-31.771c-0.791,0-1.436-0.169-1.439-0.378l-0.139-8.14
				c-0.003-0.196,0.614-0.355,1.38-0.355h30.737c0.766,0,1.409,0.159,1.437,0.355l1.173,8.14
				C683.537,587.352,682.919,587.521,682.128,587.521z"/>
		</g>
		<g>
			<path fill="#C2D4EA" d="M723.385,587.521h-31.771c-0.791,0-1.461-0.169-1.496-0.378l-1.37-8.14
				c-0.032-0.196,0.561-0.355,1.326-0.355h30.737c0.766,0,1.433,0.159,1.491,0.355l2.403,8.14
				C724.768,587.352,724.176,587.521,723.385,587.521z"/>
		</g>
		<g>
			<path fill="#C2D4EA" d="M764.643,587.521h-31.771c-0.791,0-1.486-0.169-1.553-0.378l-2.602-8.14
				c-0.063-0.196,0.507-0.355,1.272-0.355h30.737c0.766,0,1.457,0.159,1.545,0.355l3.634,8.14
				C766,587.352,765.434,587.521,764.643,587.521z"/>
		</g>
		<g>
			<path fill="#C2D4EA" d="M805.9,587.521h-31.771c-0.791,0-1.513-0.169-1.611-0.378l-3.831-8.14
				c-0.093-0.196,0.452-0.355,1.218-0.355h30.737c0.766,0,1.481,0.159,1.599,0.355l4.865,8.14
				C807.231,587.352,806.691,587.521,805.9,587.521z"/>
		</g>
		<g>
			<path fill="#C2D4EA" d="M862.251,600.013h-25.258c-3.211,0-6.286-0.72-6.864-1.602l-1.673-2.554
				c-0.563-0.861,1.532-1.556,4.68-1.556h24.752c3.147,0,6.243,0.694,6.919,1.556l2.003,2.554
				C867.502,599.293,865.463,600.013,862.251,600.013z"/>
		</g>
		<g>
			<path fill="#C2D4EA" d="M905.531,600.013h-25.257c-3.212,0-6.396-0.72-7.107-1.602l-2.061-2.554
				c-0.695-0.861,1.297-1.556,4.443-1.556h24.752c3.147,0,6.349,0.694,7.155,1.556l2.391,2.554
				C910.672,599.293,908.743,600.013,905.531,600.013z"/>
		</g>
		<g>
			<path fill="#C2D4EA" d="M899.683,593.627h-24.692c-3.139,0-6.239-0.688-6.92-1.531l-1.97-2.441
				c-0.665-0.823,1.295-1.487,4.373-1.487h24.209c3.078,0,6.195,0.664,6.966,1.487l2.286,2.441
				C904.725,592.94,902.823,593.627,899.683,593.627z"/>
		</g>
		<g>
			<path fill="#C2D4EA" d="M948.811,600.013h-25.258c-3.211,0-6.504-0.72-7.35-1.602l-2.448-2.554
				c-0.825-0.861,1.06-1.556,4.208-1.556h24.751c3.147,0,6.454,0.694,7.391,1.556l2.778,2.554
				C953.843,599.293,952.022,600.013,948.811,600.013z"/>
		</g>
		<g>
			<path fill="#C2D4EA" d="M501.479,577.298h-30.58c-0.761,0-1.273-0.157-1.145-0.352l5.024-7.55c0.122-0.183,0.818-0.33,1.556-0.33
				h29.621c0.737,0,1.256,0.147,1.158,0.33l-4.066,7.55C502.943,577.141,502.241,577.298,501.479,577.298z"/>
		</g>
		<g>
			<path fill="#C2D4EA" d="M541.558,577.298h-30.58c-0.762,0-1.298-0.157-1.199-0.352l3.873-7.55c0.094-0.183,0.768-0.33,1.505-0.33
				h29.621c0.737,0,1.278,0.147,1.208,0.33l-2.914,7.55C542.998,577.141,542.319,577.298,541.558,577.298z"/>
		</g>
		<g>
			<path fill="#C2D4EA" d="M581.636,577.298h-30.58c-0.761,0-1.322-0.157-1.252-0.352l2.72-7.55c0.066-0.183,0.717-0.33,1.455-0.33
				H583.6c0.738,0,1.302,0.147,1.259,0.33l-1.762,7.55C583.052,577.141,582.398,577.298,581.636,577.298z"/>
		</g>
		<g>
			<path fill="#C2D4EA" d="M621.47,577.298h-30.58c-0.762,0-1.346-0.157-1.306-0.352l1.574-7.55c0.039-0.183,0.667-0.33,1.405-0.33
				h29.621c0.737,0,1.323,0.147,1.309,0.33l-0.616,7.55C622.862,577.141,622.231,577.298,621.47,577.298z"/>
		</g>
		<g>
			<path fill="#C2D4EA" d="M661.548,577.298h-30.58c-0.761,0-1.369-0.157-1.358-0.352l0.422-7.55c0.011-0.183,0.616-0.33,1.354-0.33
				h29.621c0.737,0,1.346,0.147,1.358,0.33l0.537,7.55C662.917,577.141,662.31,577.298,661.548,577.298z"/>
		</g>
		<g>
			<path fill="#C2D4EA" d="M699.912,577.298h-30.58c-0.762,0-1.394-0.157-1.41-0.352l-0.682-7.55
				c-0.016-0.183,0.568-0.33,1.307-0.33h29.621c0.737,0,1.367,0.147,1.407,0.33l1.64,7.55
				C701.256,577.141,700.672,577.298,699.912,577.298z"/>
		</g>
		<g>
			<path fill="#C2D4EA" d="M739.623,577.298h-30.58c-0.762,0-1.417-0.157-1.464-0.352l-1.822-7.55
				c-0.044-0.183,0.518-0.33,1.256-0.33h29.621c0.737,0,1.39,0.147,1.457,0.33l2.781,7.55
				C740.943,577.141,740.383,577.298,739.623,577.298z"/>
		</g>
		<g>
			<path fill="#C2D4EA" d="M779.333,577.298h-30.58c-0.762,0-1.44-0.157-1.517-0.352l-2.965-7.55
				c-0.071-0.183,0.469-0.33,1.206-0.33h29.621c0.738,0,1.412,0.147,1.507,0.33l3.924,7.55
				C780.63,577.141,780.095,577.298,779.333,577.298z"/>
		</g>
		<g>
			<path fill="#C2D4EA" d="M818.799,577.298h-30.58c-0.762,0-1.464-0.157-1.569-0.352l-4.1-7.55c-0.099-0.183,0.419-0.33,1.156-0.33
				h29.621c0.737,0,1.435,0.147,1.557,0.33l5.059,7.55C820.073,577.141,819.561,577.298,818.799,577.298z"/>
		</g>
		<g>
			<path fill="#C2D4EA" d="M858.265,577.298h-30.58c-0.762,0-1.488-0.157-1.622-0.352l-5.234-7.55
				c-0.127-0.183,0.369-0.33,1.106-0.33h29.621c0.738,0,1.457,0.147,1.606,0.33l6.193,7.55
				C859.515,577.141,859.026,577.298,858.265,577.298z"/>
		</g>
		<g>
			<path fill="#C2D4EA" d="M846.753,587.521h-31.771c-0.791,0-1.537-0.169-1.667-0.378l-5.052-8.14
				c-0.121-0.196,0.4-0.355,1.166-0.355h30.736c0.766,0,1.506,0.159,1.652,0.355l6.084,8.14
				C848.059,587.352,847.545,587.521,846.753,587.521z"/>
		</g>
		<g>
			<path fill="#C2D4EA" d="M928.185,577.298h-59.05c-1.045,0-2.076-0.216-2.302-0.481l-6.195-7.296
				c-0.213-0.251,0.436-0.454,1.448-0.454h57.198c1.012,0,2.054,0.203,2.327,0.454l7.941,7.296
				C929.842,577.083,929.23,577.298,928.185,577.298z"/>
		</g>
		<g>
			<path fill="#C2D4EA" d="M938.938,587.521h-82.266c-1.252,0-2.475-0.269-2.729-0.599l-5.939-7.711
				c-0.24-0.312,0.548-0.563,1.76-0.563h79.59c1.212,0,2.468,0.252,2.808,0.563l8.394,7.711
				C940.915,587.252,940.191,587.521,938.938,587.521z"/>
		</g>
		<g>
			<path fill="#C2D4EA" d="M421.656,577.298h-59.683c-1.051,0-1.668-0.218-1.379-0.484l7.893-7.291
				c0.272-0.252,1.318-0.456,2.336-0.456h57.812c1.018,0,1.672,0.204,1.46,0.456l-6.13,7.291
				C423.741,577.081,422.707,577.298,421.656,577.298z"/>
		</g>
		<g>
			<path fill="#C2D4EA" d="M434.073,587.521h-83.464c-1.261,0-1.99-0.271-1.629-0.603l8.357-7.703
				c0.341-0.313,1.605-0.567,2.825-0.567h80.75c1.22,0,2.016,0.254,1.776,0.567l-5.871,7.703
				C436.563,587.25,435.334,587.521,434.073,587.521z"/>
		</g>
		<g>
			<path fill="#C2D4EA" d="M497.856,567.813h-29.475c-0.734,0-1.228-0.146-1.102-0.326l4.918-7.021
				c0.119-0.17,0.792-0.308,1.504-0.308h28.584c0.712,0,1.21,0.138,1.112,0.308l-4.026,7.021
				C499.269,567.667,498.59,567.813,497.856,567.813z"/>
		</g>
		<g>
			<path fill="#C2D4EA" d="M536.054,567.813h-29.476c-0.734,0-1.249-0.146-1.15-0.326l3.858-7.021
				c0.093-0.17,0.746-0.308,1.457-0.308h28.584c0.712,0,1.23,0.138,1.159,0.308l-2.967,7.021
				C537.444,567.667,536.788,567.813,536.054,567.813z"/>
		</g>
		<g>
			<path fill="#C2D4EA" d="M574.488,567.813h-29.476c-0.733,0-1.271-0.146-1.199-0.326l2.791-7.021
				c0.067-0.17,0.699-0.308,1.411-0.308h28.584c0.712,0,1.251,0.138,1.205,0.308l-1.899,7.021
				C575.856,567.667,575.222,567.813,574.488,567.813z"/>
		</g>
		<g>
			<path fill="#C2D4EA" d="M612.921,567.813h-29.475c-0.734,0-1.294-0.146-1.249-0.326l1.725-7.021
				c0.042-0.17,0.652-0.308,1.364-0.308h28.583c0.712,0,1.273,0.138,1.253,0.308l-0.833,7.021
				C614.268,567.667,613.656,567.813,612.921,567.813z"/>
		</g>
		<g>
			<path fill="#C2D4EA" d="M651.12,567.813h-29.476c-0.733,0-1.315-0.146-1.298-0.326l0.664-7.021
				c0.017-0.17,0.606-0.308,1.318-0.308h28.584c0.711,0,1.293,0.138,1.299,0.308l0.227,7.021
				C652.444,567.667,651.853,567.813,651.12,567.813z"/>
		</g>
		<g>
			<path fill="#C2D4EA" d="M688.451,567.813h-29.476c-0.733,0-1.337-0.146-1.346-0.326l-0.371-7.021
				c-0.01-0.17,0.561-0.308,1.272-0.308h28.584c0.711,0,1.313,0.138,1.344,0.308l1.263,7.021
				C689.753,567.667,689.185,567.813,688.451,567.813z"/>
		</g>
		<g>
			<path fill="#C2D4EA" d="M727.2,567.813h-29.476c-0.734,0-1.358-0.146-1.396-0.326l-1.446-7.021
				c-0.035-0.17,0.513-0.308,1.225-0.308h28.584c0.712,0,1.335,0.138,1.392,0.308l2.338,7.021
				C728.48,567.667,727.933,567.813,727.2,567.813z"/>
		</g>
		<g>
			<path fill="#C2D4EA" d="M765.476,567.813H736c-0.733,0-1.381-0.146-1.445-0.326l-2.509-7.021c-0.061-0.17,0.468-0.308,1.18-0.308
				h28.583c0.712,0,1.355,0.138,1.438,0.308l3.4,7.021C766.734,567.667,766.21,567.813,765.476,567.813z"/>
		</g>
		<g>
			<path fill="#C2D4EA" d="M803.123,567.813h-29.476c-0.734,0-1.403-0.146-1.494-0.326l-3.553-7.021
				c-0.086-0.17,0.422-0.308,1.134-0.308h28.583c0.712,0,1.376,0.138,1.483,0.308l4.444,7.021
				C804.359,567.667,803.856,567.813,803.123,567.813z"/>
		</g>
		<g>
			<path fill="#C2D4EA" d="M842.343,567.813h-29.475c-0.734,0-1.426-0.146-1.545-0.326l-4.641-7.021
				c-0.112-0.17,0.374-0.308,1.085-0.308h28.584c0.712,0,1.397,0.138,1.531,0.308l5.532,7.021
				C843.557,567.667,843.078,567.813,842.343,567.813z"/>
		</g>
		<g>
			<path fill="#C2D4EA" d="M879.833,567.813h-29.476c-0.733,0-1.447-0.146-1.593-0.326l-5.682-7.021
				c-0.137-0.17,0.328-0.308,1.041-0.308h28.583c0.712,0,1.418,0.138,1.577,0.308l6.573,7.021
				C881.025,567.667,880.567,567.813,879.833,567.813z"/>
		</g>
		<g>
			<path fill="#C2D4EA" d="M918.424,567.813h-29.476c-0.734,0-1.47-0.146-1.643-0.326l-6.753-7.021
				c-0.163-0.17,0.282-0.308,0.994-0.308h28.583c0.712,0,1.438,0.138,1.624,0.308l7.644,7.021
				C919.594,567.667,919.158,567.813,918.424,567.813z"/>
		</g>
		<g>
			<path fill="#C2D4EA" d="M447.245,558.99h-28.448c-0.708,0-1.156-0.136-1-0.304l6.079-6.548c0.147-0.159,0.823-0.287,1.512-0.287
				h27.616c0.688,0,1.142,0.128,1.015,0.287l-5.248,6.548C448.636,558.854,447.953,558.99,447.245,558.99z"/>
		</g>
		<g>
			<path fill="#C2D4EA" d="M483.73,558.99h-28.447c-0.709,0-1.177-0.136-1.046-0.304l5.101-6.548
				c0.124-0.159,0.781-0.287,1.469-0.287h27.616c0.688,0,1.162,0.128,1.059,0.287l-4.271,6.548
				C485.102,558.854,484.438,558.99,483.73,558.99z"/>
		</g>
		<g>
			<path fill="#C2D4EA" d="M521.128,558.99H492.68c-0.708,0-1.197-0.136-1.092-0.304l4.098-6.548c0.1-0.159,0.737-0.287,1.425-0.287
				h27.616c0.688,0,1.182,0.128,1.103,0.287l-3.268,6.548C522.479,558.854,521.836,558.99,521.128,558.99z"/>
		</g>
		<g>
			<path fill="#C2D4EA" d="M557.594,558.99h-28.447c-0.708,0-1.218-0.136-1.138-0.304l3.121-6.548
				c0.075-0.159,0.694-0.287,1.382-0.287h27.616c0.688,0,1.2,0.128,1.145,0.287l-2.289,6.548
				C558.925,558.854,558.303,558.99,557.594,558.99z"/>
		</g>
		<g>
			<path fill="#C2D4EA" d="M595.202,558.99h-28.447c-0.709,0-1.239-0.136-1.185-0.304l2.112-6.548
				c0.051-0.159,0.65-0.287,1.338-0.287h27.616c0.688,0,1.22,0.128,1.189,0.287l-1.281,6.548
				C596.511,558.854,595.911,558.99,595.202,558.99z"/>
		</g>
		<g>
			<path fill="#C2D4EA" d="M631.345,558.99h-28.447c-0.708,0-1.259-0.136-1.229-0.304l1.144-6.548
				c0.028-0.159,0.607-0.287,1.296-0.287h27.615c0.688,0,1.239,0.128,1.231,0.287l-0.312,6.548
				C632.634,558.854,632.054,558.99,631.345,558.99z"/>
		</g>
		<g>
			<path fill="#C2D4EA" d="M668.896,558.99h-28.448c-0.708,0-1.279-0.136-1.276-0.304l0.138-6.548
				c0.003-0.159,0.563-0.287,1.251-0.287h27.616c0.688,0,1.259,0.128,1.275,0.287l0.694,6.548
				C670.164,558.854,669.604,558.99,668.896,558.99z"/>
		</g>
		<g>
			<path fill="#C2D4EA" d="M705.381,558.99h-28.447c-0.709,0-1.301-0.136-1.322-0.304l-0.841-6.548
				c-0.021-0.159,0.521-0.287,1.208-0.287h27.616c0.688,0,1.278,0.128,1.318,0.287l1.673,6.548
				C706.629,558.854,706.09,558.99,705.381,558.99z"/>
		</g>
		<g>
			<path fill="#C2D4EA" d="M742.855,558.99h-28.447c-0.708,0-1.321-0.136-1.368-0.304l-1.846-6.548
				c-0.045-0.159,0.477-0.287,1.164-0.287h27.616c0.688,0,1.298,0.128,1.362,0.287l2.678,6.548
				C744.083,558.854,743.564,558.99,742.855,558.99z"/>
		</g>
		<g>
			<path fill="#C2D4EA" d="M780.253,558.99h-28.447c-0.709,0-1.343-0.136-1.415-0.304l-2.849-6.548
				c-0.069-0.159,0.433-0.287,1.12-0.287h27.616c0.688,0,1.317,0.128,1.406,0.287l3.68,6.548
				C781.459,558.854,780.961,558.99,780.253,558.99z"/>
		</g>
		<g>
			<path fill="#C2D4EA" d="M817.271,558.99h-28.447c-0.709,0-1.362-0.136-1.461-0.304l-3.841-6.548
				c-0.093-0.159,0.389-0.287,1.077-0.287h27.616c0.688,0,1.337,0.128,1.449,0.287l4.673,6.548
				C818.457,558.854,817.98,558.99,817.271,558.99z"/>
		</g>
		<g>
			<path fill="#C2D4EA" d="M852.845,558.99h-28.448c-0.708,0-1.382-0.136-1.505-0.304l-4.794-6.548
				c-0.116-0.159,0.347-0.287,1.035-0.287h27.615c0.688,0,1.355,0.128,1.492,0.287l5.626,6.548
				C854.01,558.854,853.553,558.99,852.845,558.99z"/>
		</g>
		<g>
			<path fill="#C2D4EA" d="M906.167,558.99H863.62c-1.968,0-3.896-0.378-4.307-0.842l-4.857-5.498
				c-0.391-0.441,0.843-0.799,2.753-0.799h41.305c1.91,0,3.847,0.357,4.327,0.799l5.975,5.498
				C909.32,558.612,908.135,558.99,906.167,558.99z"/>
		</g>
		<g>
			<path fill="#C2D4EA" d="M418.114,567.813h-44.085c-2.039,0-3.253-0.405-2.713-0.903l6.382-5.896
				c0.513-0.474,2.529-0.855,4.506-0.855h42.751c1.977,0,3.243,0.382,2.827,0.855l-5.183,5.896
				C422.162,567.408,420.153,567.813,418.114,567.813z"/>
		</g>
	</g>
</g>
<g>
	<path fill="#97CAFF" d="M848.964,22.795H590.407c-9.71,0-17.582,7.872-17.582,17.581v182.845c0,9.709,7.872,17.581,17.582,17.581
		h201.824c26.973,0,39.152-21.865,39.152-48.837V40.376C831.383,30.667,839.254,22.795,848.964,22.795z"/>
	<path fill="#8DB0DA" d="M795.862,223.221v-35.548v-83.655c0-9.71-7.871-17.581-17.581-17.581h-1.241
		c-9.71,0-17.582,7.871-17.582,17.581v136.784h36.404h17.581C803.733,240.802,795.862,232.931,795.862,223.221z"/>
	<path fill="#8DB0DA" d="M867.645,177.154V40.376c0-9.709-7.871-17.581-17.581-17.581h-1.242c-9.71,0-17.581,7.872-17.581,17.581
		v136.778H867.645z"/>
	<path fill="#97CAFF" d="M813.804,22.795h-0.361c-9.71,0-17.581,7.872-17.581,17.581v63.642v83.655v35.548
		c0,9.709,7.871,17.581,17.581,17.581h0.361c9.71,0,17.581-7.872,17.581-17.581V40.376
		C831.385,30.667,823.514,22.795,813.804,22.795z"/>
	<path fill="#DDE6F5" d="M777.04,86.437H499.992c-9.71,0-17.581,7.871-17.581,17.581l2.664,365.623h277.048l-2.665-365.623
		C759.458,94.308,767.33,86.437,777.04,86.437z"/>
	<g>
		<path fill="#C2D4EA" d="M597.18,164.319c0.065,22.226-17.691,40.244-39.66,40.244s-39.832-18.018-39.896-40.244
			c-0.065-22.226,17.691-40.243,39.66-40.243C579.253,124.076,597.116,142.093,597.18,164.319z"/>
		<path fill="#FFFFFF" d="M723.949,148.887h-99.297c-3.29,0-5.99-2.723-6-6.052l0,0c-0.01-3.328,2.674-6.051,5.964-6.051h99.298
			c3.29,0,5.989,2.723,5.999,6.051l0,0C729.922,146.164,727.239,148.887,723.949,148.887z"/>
		<path fill="#C2D4EA" d="M724.03,176.422h-99.298c-3.289,0-5.989-2.723-5.999-6.052l0,0c-0.01-3.328,2.674-6.052,5.964-6.052
			h99.298c3.29,0,5.989,2.724,5.999,6.052l0,0C730.003,173.699,727.32,176.422,724.03,176.422z"/>
		<g>
			<g>
				<defs>
					<path id="SVGID_1_" d="M592.199,163.247c-0.821,22.14-19.725,40.088-42.222,40.088c-22.496,0-40.068-17.948-39.247-40.088
						s19.725-40.088,42.222-40.088S593.02,141.106,592.199,163.247z"/>
				</defs>
				<use xlink:href="#SVGID_1_"  overflow="visible" fill="#C2D4EA"/>
				<clipPath id="SVGID_2_">
					<use xlink:href="#SVGID_1_"  overflow="visible"/>
				</clipPath>
				<g clip-path="url(#SVGID_2_)">
					<path fill="#492817" d="M539.996,163.93c0.453,1.53,1.063,3.094,2.344,4.156c1.882,1.561,4.718,1.679,7.313,1.715
						c2.991,0.042,6.274-0.004,8.626-1.751c1.328-0.987,2.177-2.404,2.806-3.842c2.177-4.969,2.05-10.664-0.344-15.411
						c-0.435-0.862-0.957-1.712-1.752-2.325c-1.04-0.802-2.446-1.119-3.826-1.237c-3.508-0.301-7.168,0.571-10.125,2.413
						c-2.84,1.769-5.197,4.552-6.14,7.552C538.049,157.897,539.235,161.362,539.996,163.93z"/>
					<path fill="#FFAA81" d="M556.357,184.224c-1.442,0.932-5.559,0.357-6.933,1.125c-1.367,0.764-5.942,0.996-7.26,0.639
						c0.244-6.62,3.576-13.318,3.86-19.411c2.508,5.602,5.467,2.526,8.369-1.309C554.119,171.222,556.502,178.235,556.357,184.224z"
						/>
					<path fill="#F4946E" d="M545.73,171.313c0.202,0.669,0.565,1.326,0.901,1.861c0.685,1.093,1.762,1.851,3.047,2.213
						c1.504,0.424,3.08-0.333,4.258-1.297c0.387-0.317,0.759-0.65,1.121-0.993c-0.432-2.693-0.777-5.353-0.663-7.829
						c-2.902,3.835-5.861,6.911-8.369,1.309c0.157,0.351-0.095,1.248-0.144,1.636c-0.075,0.604-0.204,1.2-0.288,1.801
						C545.535,170.432,545.598,170.875,545.73,171.313z"/>
					<path fill="#FFD22E" d="M571.153,211.571c-0.222-2.282-0.444-4.567-0.693-6.848c-0.201-1.849-0.416-3.694-0.649-5.529
						c-0.24-1.889-0.465-3.821-0.719-5.766c-0.711-5.45-1.343-12.221-3.487-17.181c-0.065-0.15-0.114-0.305-0.146-0.459
						c-0.113-0.027-7.982-2.873-10.46-3.066c0.001,1.808-1.587,6.056-5.182,6.022c-2.245-0.021-4.831-3.262-4.833-6.022
						c-3.328,0.296-10.68,3.109-10.705,3.114c-1.779,0.37-3.309,10.594-3.567,11.919c-1.123,5.747-2.353,11.377-3.321,17.128
						c-0.01,0.056-0.02,0.112-0.029,0.168c-0.364,2.172-0.717,4.346-1.063,6.52H571.153z"/>
					<path fill="#F4C42A" d="M534.278,175.836c0.031-0.006,0.063-0.012,0.095-0.019c-1.979,0.593-5.651,2.832-7.596,3.89
						c-3.198,1.739-5.924,4.528-8.078,7.877c-1.937,3.011-3.423,6.373-4.6,9.894c0.947,1.741,2.227,3.197,3.87,4.347
						c2.316,1.621,7.029,3.338,7.494,3.542c1.133-1.99,2.16-3.198,2.619-4.263c0.795-4.191,1.803-9.126,2.628-13.349
						C530.969,186.43,532.499,176.206,534.278,175.836z"/>
					<path fill="#F4C42A" d="M580.402,187.138c-1.904-3.395-4.422-6.222-7.49-7.985c-2.048-1.176-7.567-3.392-7.454-3.365
						c0.032,0.155,2.923,12.19,3.634,17.64c0.254,1.945,0.238,1.988,0.479,3.877c0.233,1.836,2.334,6.451,3.843,8.362
						c2.13-0.585,5.543-2.458,7.102-3.432c2.381-1.487,2.809-2.426,3.691-3.543C583.292,195.122,582.113,190.19,580.402,187.138z"/>
					<path fill="#FFAA81" d="M540.156,159.49c0.331,2.875,0.979,5.771,2.543,8.18c1.563,2.408,4.178,4.271,7.126,4.369
						c3.731,0.123,7.187-2.604,8.979-5.895c1.791-3.291,2.244-7.068,2.591-10.742c0.294-3.123,0.504-6.423-0.897-9.178
						c-0.51-1.003-1.234-1.91-2.18-2.532c-0.67-0.442-1.437-0.733-2.218-0.954c-3.335-0.945-7.115-0.614-10.21,1.117
						C539.818,147.25,539.471,153.534,540.156,159.49z"/>
					<path fill="#492817" d="M564.432,146.668c0.969-0.979,1.645-2.223,1.719-3.553c0.024-0.442-0.265-1.043-0.677-0.853
						c-0.087,0.278-0.174,0.558-0.261,0.836c-0.609,0.172-1.159-0.326-1.567-0.782c-0.483-0.539-0.967-1.08-1.424-1.64
						c-0.294-0.45-0.613-0.882-0.964-1.289c-0.061-0.091-0.123-0.182-0.183-0.275c-0.537-0.845-0.977-1.762-1.647-2.506
						c-1.9-2.108-5.15-2.37-8.068-2.255c-1.805,0.071-3.643,0.238-5.334,0.918c-1.69,0.681-3.233,1.948-3.856,3.634
						c-0.075,0.203-0.13,0.408-0.174,0.612c-4.021,2.456-6.415,7.511-5.398,11.984c0.344,1.512,1.021,3.045,0.652,4.567
						c0.093,0.884,0.154,1.773,0.194,2.665c0.625,0.716,1.656,1.079,2.361,0.442c0.511-0.461,0.581-1.207,0.616-1.876
						c0.104-1.975,0.207-3.95,0.311-5.926c0.02-0.367,0.043-0.75,0.232-1.073c0.192-0.328,0.526-0.547,0.838-0.771
						c1.272-0.915,2.333-2.116,3.09-3.473c1.287,1.207,2.781,2.147,4.036,2.62c2.676,1.007,5.661,1.087,8.554,0.756
						c0.8-0.091,1.604-0.217,2.392-0.405c0.065,2.742,0.131,5.484,0.196,8.226c0.023,1.013,0.218,2.26,1.195,2.547
						c0.665,0.196,1.414-0.204,1.832-0.773s0.578-1.271,0.718-1.952c0.688-3.361,1.123-6.81,0.655-10.166
						C564.458,146.828,564.444,146.748,564.432,146.668z"/>
					<path fill="#F4946E" d="M540.866,160.727c-0.064-1.529-0.37-3.148-0.342-4.683c-0.254-0.15-0.367-0.158-0.664-0.189
						c-0.255-0.027-0.525-0.008-0.756,0.128c-0.397,0.235-0.577,0.748-0.697,1.221c-0.391,1.53-0.514,3.166-0.111,4.657
						s1.382,2.816,2.726,3.317c0.182,0.067,0.283,0.095,0.471,0.047C541.111,163.738,540.932,162.308,540.866,160.727z"/>
					<path fill="#F4946E" d="M563.093,157.204c-0.085-0.473-0.227-0.986-0.606-1.221c-0.221-0.136-0.49-0.155-0.747-0.128
						c-0.59,0.063-1.136,0.387-1.559,0.852c-0.063,0.02-0.119,0.052-0.175,0.088c0.004,0.897-0.038,1.796-0.071,2.71
						c-0.064,1.778-0.047,2.831-0.369,4.598c-0.032,0.176-0.28,1.111-0.352,1.266c0.17,0.028,0.503-0.129,0.673-0.19
						c1.381-0.501,2.459-1.826,2.972-3.317S563.37,158.734,563.093,157.204z"/>
				</g>
			</g>
		</g>
	</g>
	<g>
		<path fill="#8DB0DA" d="M545.141,272.905h-16.786c-4.876,0-8.841-3.966-8.841-8.841v-16.786c0-4.875,3.965-8.841,8.841-8.841
			h16.786c4.875,0,8.841,3.967,8.841,8.841v16.786C553.982,268.938,550.016,272.905,545.141,272.905z M528.355,242.018
			c-2.9,0-5.26,2.359-5.26,5.259v16.786c0,2.9,2.359,5.26,5.26,5.26h16.786c2.899,0,5.26-2.359,5.26-5.26v-16.786
			c0-2.9-2.36-5.259-5.26-5.259H528.355z"/>
		<path fill="#8DB0DA" d="M545.141,323.441h-16.786c-4.876,0-8.841-3.966-8.841-8.841v-16.787c0-4.875,3.965-8.841,8.841-8.841
			h16.786c4.875,0,8.841,3.966,8.841,8.841v16.787C553.982,319.475,550.016,323.441,545.141,323.441z M528.355,292.555
			c-2.9,0-5.26,2.359-5.26,5.259v16.787c0,2.9,2.359,5.259,5.26,5.259h16.786c2.899,0,5.26-2.359,5.26-5.259v-16.787
			c0-2.9-2.36-5.259-5.26-5.259H528.355z"/>
		<path fill="#8DB0DA" d="M545.141,373.278h-16.786c-4.876,0-8.841-3.966-8.841-8.841v-16.786c0-4.875,3.965-8.841,8.841-8.841
			h16.786c4.875,0,8.841,3.966,8.841,8.841v16.786C553.982,369.312,550.016,373.278,545.141,373.278z M528.355,342.391
			c-2.9,0-5.26,2.359-5.26,5.26v16.786c0,2.9,2.359,5.259,5.26,5.259h16.786c2.899,0,5.26-2.359,5.26-5.259v-16.786
			c0-2.9-2.36-5.26-5.26-5.26H528.355z"/>
		<g>
			<path fill="#FFFFFF" d="M730.333,247.23H606.075c-0.877,0-1.595-0.717-1.595-1.594v-0.313c0-0.877,0.718-1.594,1.595-1.594
				h124.259c0.877,0,1.595,0.717,1.595,1.594v0.313C731.928,246.513,731.21,247.23,730.333,247.23z"/>
			<path fill="#FFFFFF" d="M730.333,257.421H583.955c-0.877,0-1.595-0.718-1.595-1.595v-0.313c0-0.877,0.718-1.595,1.595-1.595
				h146.379c0.877,0,1.595,0.718,1.595,1.595v0.313C731.928,256.704,731.21,257.421,730.333,257.421z"/>
			<path fill="#FFFFFF" d="M715.586,267.612H583.955c-0.877,0-1.595-0.718-1.595-1.595v-0.313c0-0.877,0.718-1.594,1.595-1.594
				h131.632c0.877,0,1.595,0.717,1.595,1.594v0.313C717.181,266.895,716.463,267.612,715.586,267.612z"/>
		</g>
		<g>
			<path fill="#FFFFFF" d="M730.333,296.104H606.075c-0.877,0-1.595-0.718-1.595-1.595v-0.313c0-0.877,0.718-1.595,1.595-1.595
				h124.259c0.877,0,1.595,0.718,1.595,1.595v0.313C731.928,295.386,731.21,296.104,730.333,296.104z"/>
			<path fill="#FFFFFF" d="M730.333,306.294H583.955c-0.877,0-1.595-0.717-1.595-1.594v-0.313c0-0.877,0.718-1.594,1.595-1.594
				h146.379c0.877,0,1.595,0.717,1.595,1.594v0.313C731.928,305.577,731.21,306.294,730.333,306.294z"/>
			<path fill="#FFFFFF" d="M641.851,316.485h-57.896c-0.877,0-1.595-0.718-1.595-1.595v-0.313c0-0.877,0.718-1.595,1.595-1.595
				h57.896c0.877,0,1.595,0.718,1.595,1.595v0.313C643.446,315.767,642.728,316.485,641.851,316.485z"/>
		</g>
		<g>
			<path fill="#FFFFFF" d="M730.333,347.604H606.075c-0.877,0-1.595-0.717-1.595-1.595v-0.313c0-0.877,0.718-1.595,1.595-1.595
				h124.259c0.877,0,1.595,0.718,1.595,1.595v0.313C731.928,346.887,731.21,347.604,730.333,347.604z"/>
			<path fill="#FFFFFF" d="M730.333,357.795H583.955c-0.877,0-1.595-0.718-1.595-1.595v-0.313c0-0.877,0.718-1.595,1.595-1.595
				h146.379c0.877,0,1.595,0.717,1.595,1.595v0.313C731.928,357.077,731.21,357.795,730.333,357.795z"/>
			<path fill="#FFFFFF" d="M583.955,367.985c-0.877,0-1.595-0.717-1.595-1.594v-0.313c0-0.877,0.718-1.594,1.595-1.594h116.885
				c0.877,0,1.595,0.717,1.595,1.594v0.313c0,0.877-0.718,1.594-1.595,1.594"/>
		</g>
		<g>
			<path fill="#FFFFFF" d="M730.177,401.681H524.846c-0.963,0-1.751-0.788-1.751-1.751l0,0c0-0.963,0.788-1.751,1.751-1.751h205.331
				c0.963,0,1.751,0.788,1.751,1.751l0,0C731.928,400.893,731.14,401.681,730.177,401.681z"/>
			<path fill="#FFFFFF" d="M633.52,411.872H524.846c-0.963,0-1.751-0.787-1.751-1.751l0,0c0-0.963,0.788-1.751,1.751-1.751H633.52
				c0.963,0,1.751,0.788,1.751,1.751l0,0C635.271,411.084,634.483,411.872,633.52,411.872z"/>
			<path fill="#FFFFFF" d="M633.52,432.703H524.846c-0.963,0-1.751-0.788-1.751-1.751l0,0c0-0.963,0.788-1.751,1.751-1.751H633.52
				c0.963,0,1.751,0.788,1.751,1.751l0,0C635.271,431.915,634.483,432.703,633.52,432.703z"/>
			<path fill="#FFFFFF" d="M718.095,422.063H524.846c-0.963,0-1.751-0.788-1.751-1.751l0,0c0-0.963,0.788-1.751,1.751-1.751h193.249
				c0.963,0,1.751,0.788,1.751,1.751l0,0C719.846,421.275,719.058,422.063,718.095,422.063z"/>
		</g>
		<path fill="#F55D34" d="M540.721,263.048c-0.705,0-1.413-0.246-1.984-0.746l-9.655-8.439c-1.254-1.097-1.383-3.003-0.285-4.258
			c1.096-1.254,3.001-1.383,4.257-0.286l7.428,6.493l27.662-30.415c1.121-1.231,3.03-1.323,4.262-0.202
			c1.232,1.122,1.323,3.03,0.203,4.262l-29.653,32.604C542.359,262.715,541.542,263.048,540.721,263.048z"/>
		<path fill="#F55D34" d="M540.721,311.92c-0.705,0-1.413-0.246-1.984-0.746l-9.655-8.439c-1.254-1.097-1.383-3.003-0.285-4.258
			c1.096-1.254,3.001-1.383,4.257-0.286l7.428,6.493l27.662-30.415c1.121-1.231,3.03-1.323,4.262-0.202
			c1.232,1.122,1.323,3.03,0.203,4.262l-29.653,32.604C542.359,311.587,541.542,311.92,540.721,311.92z"/>
		<path fill="#F55D34" d="M540.721,361.757c-0.705,0-1.413-0.246-1.984-0.746l-9.655-8.439c-1.254-1.097-1.383-3.003-0.285-4.258
			c1.096-1.254,3.001-1.383,4.257-0.286l7.428,6.493l27.662-30.415c1.121-1.231,3.03-1.323,4.262-0.202
			c1.232,1.122,1.323,3.03,0.203,4.263l-29.653,32.604C542.359,361.424,541.542,361.757,540.721,361.757z"/>
	</g>
</g>
<g>
	<polygon fill="#97CAFF" points="762.473,554.633 736.722,568.934 762.424,583.309 	"/>
	<polygon fill="#092140" points="742.861,564.872 736.722,568.934 742.847,573.018 	"/>
	<path fill="#EF487C" d="M896.534,577.565l0.029-16.943c0.005-3.227,2.649-5.862,5.876-5.856l35.178,0.06
		c3.226,0.006,5.861,2.65,5.855,5.876l-0.028,16.944c-0.006,3.227-2.649,5.861-5.876,5.855l-35.178-0.06
		C899.164,583.436,896.529,580.792,896.534,577.565z"/>
	<polygon fill="#52517B" points="762.457,564.192 903.941,564.327 903.958,554.768 762.473,554.633 	"/>
	<polygon fill="#45446C" points="762.441,573.75 903.924,573.885 903.941,564.327 762.457,564.192 	"/>
	<polygon fill="#2C2B57" points="762.424,583.309 903.909,583.444 903.924,573.885 762.441,573.75 	"/>
	
		<rect x="888.877" y="566.213" transform="matrix(-0.0017 1 -1 -0.0017 1473.8574 -333.1401)" fill="#F2F2F2" width="28.677" height="5.783"/>
</g>
<g>
	<g>
		<ellipse opacity="0.5" fill="#60C0FD" cx="473.271" cy="577.837" rx="32.159" ry="17.256"/>
		<g>
			<path fill="#52517B" d="M472.938,604.528c-20.428,0-36.429-9.81-36.429-22.333c0-12.522,16.001-22.333,36.429-22.333
				c20.429,0,36.43,9.811,36.43,22.333C509.368,594.718,493.367,604.528,472.938,604.528z M472.938,565.564
				c-16.655,0-30.728,7.616-30.728,16.631s14.072,16.631,30.728,16.631c16.656,0,30.728-7.616,30.728-16.631
				S489.594,565.564,472.938,565.564z"/>
			<path fill="#8DB0DA" d="M472.938,599.544c-20.428,0-36.429-9.81-36.429-22.333c0-12.522,16.001-22.332,36.429-22.332
				c20.429,0,36.43,9.81,36.43,22.332C509.368,589.735,493.367,599.544,472.938,599.544z M472.938,560.582
				c-16.655,0-30.728,7.615-30.728,16.63s14.072,16.631,30.728,16.631c16.656,0,30.728-7.616,30.728-16.631
				S489.594,560.582,472.938,560.582z"/>
			<g>
				<path fill="#7374A4" d="M429.529,599.343l12.736-7.024c0,0,1.433-1.099,4.198,1.787c1.893,1.975-0.544,3.063-0.544,3.063
					l-13.714,7.359L429.529,599.343z"/>
				<path fill="#8DB0DA" d="M440.141,606.65c2.032-2.447,0.771-6.847-2.818-9.826c-3.589-2.98-6.974-2.981-10.177-0.967
					l-29.975,17.97l11.797,11.939L440.141,606.65z"/>
				
					<ellipse transform="matrix(0.6389 -0.7693 0.7693 0.6389 -331.4244 533.8094)" fill="#52517B" cx="402.895" cy="619.934" rx="5.759" ry="8.446"/>
			</g>
		</g>
	</g>
	<ellipse fill="#FFFFFF" cx="462.689" cy="571.882" rx="7.167" ry="2.814"/>
	<ellipse fill="#FFFFFF" cx="453.047" cy="576.022" rx="4.138" ry="1.625"/>
</g>
<g>
	<g>
		<g>
			<polygon fill="#EAF5F9" points="284.053,147.664 337.208,143.952 284.053,140.239 			"/>
			<circle fill="#02CCC0" cx="332.411" cy="143.952" r="5.303"/>
			<path fill="#294A5C" d="M290.036,158.583h1.54c7.462,0,13.512-6.05,13.512-13.513v-3.079c0-7.463-6.05-13.513-13.512-13.513
				h-1.54V158.583z"/>
		</g>
		<g>
			<polygon fill="#294A5C" points="125.537,147.664 72.383,143.952 125.537,140.239 			"/>
			<circle fill="#02CCC0" cx="77.179" cy="143.952" r="5.303"/>
			<path fill="#294A5C" d="M119.555,158.583h-1.54c-7.462,0-13.513-6.05-13.513-13.513v-3.079c0-7.463,6.05-13.513,13.513-13.513
				h1.54V158.583z"/>
		</g>
		<g>
			<polygon fill="#294A5C" points="284.053,147.664 337.208,143.952 284.053,140.239 			"/>
			<circle fill="#02CCC0" cx="332.411" cy="143.952" r="5.303"/>
			<path fill="#294A5C" d="M290.036,158.583h1.54c7.462,0,13.512-6.05,13.512-13.513v-3.079c0-7.463-6.05-13.513-13.512-13.513
				h-1.54V158.583z"/>
		</g>
		<g>
			<g>
				<path fill="#294A5C" d="M317.96,286.927l6.524-14.937c40.784,17.814,88.464,5.81,115.949-29.192l10.185-12.966l12.817,10.067
					l-10.182,12.966C421.183,293.706,365.548,307.713,317.96,286.927z"/>
			</g>
			<path fill="#02CCC0" d="M479.493,235.505c2.308-3.543,2.849-7.8,1.884-11.964l8.13-12.484c1.019-1.564,0.576-3.659-0.989-4.678
				c-1.563-1.019-3.658-0.577-4.677,0.988l-5.806,8.915c-1.63-2.271-3.752-4.332-6.319-6.004c-2.595-1.689-5.369-2.804-8.132-3.371
				l5.821-8.94c1.02-1.564,0.577-3.659-0.987-4.677l0,0c-1.565-1.019-3.659-0.577-4.678,0.988l-8.173,12.549
				c-4.153,0.819-7.782,3.029-10.069,6.541c-2.664,4.091-2.978,9.132-1.331,13.886c-1.322,0.239-2.549,0.997-3.342,2.212l0,0
				c-1.523,2.341-0.861,5.474,1.479,6.998l17.291,11.26c2.341,1.524,5.474,0.862,6.998-1.479l0,0
				c0.782-1.201,0.984-2.609,0.685-3.902C472.313,241.939,476.819,239.611,479.493,235.505z"/>
		</g>
		<g>
			<g>
				<path fill="#294A5C" d="M107.301,265.491l2.684,16.077c-43.897,7.327-77.302,43.406-81.234,87.736l-1.457,16.423l-16.236-1.441
					l1.457-16.422C17.103,316.137,56.081,274.04,107.301,265.491z"/>
			</g>
			<path fill="#02CCC0" d="M0,396.728c0,4.229,1.869,8.091,4.951,11.054v14.897c0,1.867,1.513,3.381,3.38,3.381
				s3.381-1.514,3.381-3.381v-10.638c2.604,1.014,5.508,1.582,8.573,1.582c3.096,0,6.028-0.58,8.653-1.612v10.668
				c0,1.867,1.513,3.381,3.381,3.381l0,0c1.867,0,3.38-1.514,3.38-3.381v-14.975c3.034-2.954,4.87-6.785,4.87-10.977
				c0-4.882-2.489-9.277-6.463-12.361c0.979-0.923,1.593-2.228,1.593-3.678l0,0c0-2.793-2.265-5.058-5.058-5.058H10.008
				c-2.793,0-5.057,2.265-5.057,5.058l0,0c0,1.433,0.598,2.724,1.556,3.644C2.506,387.418,0,391.829,0,396.728z"/>
		</g>
		<rect x="232.237" y="456.737" fill="#294A5C" width="22.467" height="125.714"/>
		<path fill="#02CCC0" d="M242.504,553.419c-14.423,0-26.795,8.782-32.06,21.292c-2.695,6.404,2.104,13.477,9.052,13.477h46.015
			c6.949,0,11.748-7.072,9.053-13.477C269.299,562.202,256.927,553.419,242.504,553.419z"/>
		<circle fill="#02CCC0" cx="243.47" cy="505.693" r="17.874"/>
		<rect x="149.254" y="456.737" fill="#294A5C" width="22.467" height="125.714"/>
		<path fill="#294A5C" d="M247.367,216.035c0-2.358-1.911-4.269-4.27-4.269c2.358,0,4.27-1.913,4.27-4.271
			c0-2.358-1.911-4.27-4.27-4.27h-77.256c-2.358,0-4.269,1.912-4.269,4.27c0,2.358,1.911,4.271,4.269,4.271
			c-2.358,0-4.269,1.911-4.269,4.269c0,2.358,1.911,4.27,4.269,4.27c-2.358,0-4.269,1.911-4.269,4.27l0,0
			c0,2.358,1.911,4.27,4.269,4.27h77.256c2.358,0,4.27-1.912,4.27-4.27l0,0c0-2.359-1.911-4.27-4.27-4.27
			C245.456,220.305,247.367,218.393,247.367,216.035z"/>
		<polygon fill="#294A5C" points="154.227,100.612 161.15,1.49 168.073,100.612 		"/>
		<polygon fill="#294A5C" points="241.527,100.612 248.45,1.49 255.373,100.612 		"/>
		<path fill="#294A5C" d="M267.433,109.981H141.579V97.078c0-12.996,10.535-23.531,23.53-23.531h78.793
			c12.996,0,23.53,10.535,23.53,23.531V109.981z"/>
		<path fill="#294A5C" d="M108.533,310.157h-3.236c-15.695,0-28.417-12.723-28.417-28.416v-6.475
			c0-15.695,12.723-28.417,28.417-28.417h3.236V310.157z"/>
		<path fill="#294A5C" d="M300.976,310.157h3.238c15.693,0,28.417-12.723,28.417-28.416v-6.475
			c0-15.695-12.724-28.417-28.417-28.417h-3.238V310.157z"/>
		<path fill="#02CCC0" d="M266.426,205.906H143.093c-13.04,0-23.609-10.57-23.609-23.609v-73.171
			c0-13.039,10.57-23.609,23.609-23.609h123.333c13.039,0,23.609,10.57,23.609,23.609v73.171
			C290.036,195.336,279.465,205.906,266.426,205.906z"/>
		<circle fill="#EAF5F9" cx="149.132" cy="132.527" r="15.936"/>
		<circle fill="#EAF5F9" cx="260.388" cy="132.527" r="15.935"/>
		<g>
			<g>
				<g>
					<path fill="#EAF5F9" d="M204.76,172.688c-17.177,0-25.833-8.447-30.07-15.534c-1.595-2.668-2.672-5.316-3.4-7.647
						c-1.219-3.905,1.591-7.906,5.677-8.094h0.005c2.852-0.131,5.408,1.696,6.262,4.422c0.502,1.604,1.258,3.453,2.392,5.264
						c3.779,6.039,10.217,9.1,19.135,9.1c8.917,0,15.354-3.062,19.134-9.1c1.134-1.811,1.89-3.661,2.393-5.264
						c0.853-2.726,3.408-4.553,6.262-4.422h0.004c4.087,0.188,6.896,4.188,5.678,8.094c-0.728,2.332-1.806,4.979-3.4,7.647
						C230.592,164.241,221.936,172.688,204.76,172.688z"/>
				</g>
			</g>
		</g>
		<g>
			<path fill="#294A5C" d="M204.759,167.913c-8.025,0-14.687-2.057-19.8-6.114c-3.407-2.704-6.063-6.226-7.909-10.485
				c-0.335-0.772,0.043-1.667,0.83-1.964l0,0c0.73-0.275,1.551,0.068,1.861,0.785c3.059,7.055,9.868,14.84,25.018,14.84
				c15.15,0,21.959-7.786,25.019-14.84c0.311-0.717,1.131-1.06,1.862-0.785l0,0c0.787,0.297,1.164,1.192,0.829,1.964
				c-1.846,4.26-4.503,7.782-7.909,10.485C219.447,165.856,212.786,167.913,204.759,167.913z"/>
		</g>
		<circle fill="#294A5C" cx="149.132" cy="132.527" r="11.424"/>
		<circle fill="#294A5C" cx="260.388" cy="132.527" r="11.424"/>
		
			<ellipse transform="matrix(0.6502 -0.7597 0.7597 0.6502 -5.4258 245.1729)" fill="#E3EEF4" cx="263.563" cy="128.479" rx="4.752" ry="5.847"/>
		
			<ellipse transform="matrix(0.6504 -0.7596 0.7596 0.6504 -44.1844 160.9588)" fill="#E3EEF4" cx="152.766" cy="128.479" rx="4.753" ry="5.848"/>
		<path fill="#06BFAD" d="M269.971,192.722H139.549c-11.082,0-20.065-8.983-20.065-20.065v13.185
			c0,11.081,8.983,20.064,20.065,20.064h130.422c11.08,0,20.064-8.983,20.064-20.064v-13.185
			C290.036,183.739,281.051,192.722,269.971,192.722z"/>
		<path fill="#02CCC0" d="M277.84,460.952H131.669c-12.777,0-23.136-10.358-23.136-23.136V248.107
			c0-12.777,10.359-23.135,23.136-23.135H277.84c12.778,0,23.136,10.358,23.136,23.135v189.708
			C300.976,450.593,290.619,460.952,277.84,460.952z"/>
		<path fill="#06BFAD" d="M278.336,446.075H131.174c-12.503,0-22.641-10.136-22.641-22.64v14.876
			c0,12.504,10.137,22.641,22.641,22.641h147.163c12.504,0,22.64-10.137,22.64-22.641v-14.876
			C300.976,435.939,290.84,446.075,278.336,446.075z"/>
		<path opacity="0.3" fill="#294A5C" d="M188.319,388.94h-44.301c-11.052,0-20.012-8.96-20.012-20.012v-89.867
			c0-11.052,8.96-20.012,20.012-20.012h44.301c11.051,0,20.012,8.959,20.012,20.012v89.867
			C208.331,379.98,199.37,388.94,188.319,388.94z"/>
		<path opacity="0.3" fill="#294A5C" d="M270.245,388.94h-32.384c-11.052,0-20.012-8.96-20.012-20.012v-89.867
			c0-11.052,8.96-20.012,20.012-20.012h32.384c11.054,0,20.012,8.959,20.012,20.012v89.867
			C290.256,379.98,281.298,388.94,270.245,388.94z"/>
		<path fill="#294A5C" d="M195.886,372.316h-0.731c-1.772,0-3.21-1.437-3.21-3.21v-90.224c0-1.772,1.438-3.209,3.21-3.209h0.731
			c1.771,0,3.208,1.437,3.208,3.209v90.224C199.094,370.879,197.658,372.316,195.886,372.316z"/>
		<path fill="#294A5C" d="M254.053,270.65c-16.702,0-30.241,13.927-30.241,31.108h60.482
			C284.294,284.577,270.755,270.65,254.053,270.65z"/>
		<path fill="#EAF5F9" d="M254.053,275.019c-12.768,0-23.119,9.959-23.119,22.244h46.237
			C277.171,284.978,266.821,275.019,254.053,275.019z"/>
		<circle fill="#294A5C" cx="230.97" cy="329.981" r="4.915"/>
		<circle fill="#294A5C" cx="279.031" cy="329.981" r="4.916"/>
		<circle fill="#294A5C" cx="230.97" cy="376.354" r="4.915"/>
		<circle fill="#294A5C" cx="279.031" cy="376.354" r="4.916"/>
		<path fill="#294A5C" d="M286.366,415.079H129.107c-2.148,0-3.891-1.742-3.891-3.891v-0.887c0-2.148,1.742-3.891,3.891-3.891
			h157.259c2.149,0,3.891,1.742,3.891,3.891v0.887C290.256,413.336,288.515,415.079,286.366,415.079z"/>
		<path fill="#294A5C" d="M286.366,432.104H129.107c-2.148,0-3.891-1.742-3.891-3.892v-0.887c0-2.149,1.742-3.891,3.891-3.891
			h157.259c2.149,0,3.891,1.741,3.891,3.891v0.887C290.256,430.362,288.515,432.104,286.366,432.104z"/>
		<polygon opacity="0.3" fill="#294A5C" points="252.679,294.457 261.58,278.147 256.677,294.891 		"/>
		<path fill="#02CCC0" d="M258.507,297.262c0.006-0.091,0.014-0.181,0.014-0.273c0-2.468-2.001-4.469-4.468-4.469
			c-2.468,0-4.47,2.001-4.47,4.469c0,0.092,0.009,0.182,0.015,0.273H258.507z"/>
		<path fill="#02CCC0" d="M159.522,553.419c-14.423,0-26.795,8.782-32.06,21.292c-2.696,6.404,2.104,13.477,9.052,13.477h46.015
			c6.948,0,11.747-7.072,9.052-13.477C186.318,562.202,173.945,553.419,159.522,553.419z"/>
		<circle fill="#02CCC0" cx="160.487" cy="505.693" r="17.874"/>
		<circle fill="#02CCC0" cx="161.15" cy="8.358" r="8.357"/>
		<circle fill="#02CCC0" cx="248.45" cy="8.358" r="8.357"/>
	</g>
</g>
<g>
</g>
<g>
</g>
<g>
</g>
<g>
</g>
<g>
</g>
</svg>
