<?xml version="1.0" encoding="utf-8"?>
<!-- Generator: Adobe Illustrator 16.0.0, SVG Export Plug-In . SVG Version: 6.00 Build 0)  -->
<!DOCTYPE svg PUBLIC "-//W3C//DTD SVG 1.1//EN" "http://www.w3.org/Graphics/SVG/1.1/DTD/svg11.dtd">
<svg version="1.1" id="Слой_1" xmlns="http://www.w3.org/2000/svg" xmlns:xlink="http://www.w3.org/1999/xlink" x="0px" y="0px"
	 width="1868.876px" height="1387.872px" viewBox="0 0 1868.876 1387.872" enable-background="new 0 0 1868.876 1387.872"
	 xml:space="preserve">
<g>
	<g>
		<g>
			<g>
				<rect x="162.059" y="37.667" fill="#EDEDED" width="312.577" height="32.005"/>
			</g>
			<g>
				<rect x="562.115" y="278.662" fill="#EDEDED" width="225.679" height="32.005"/>
			</g>
			<g>
				<rect x="822.951" y="278.662" fill="#EDEDED" width="149.763" height="32.005"/>
			</g>
			<g>
				<rect x="1002.301" y="278.662" fill="#EDEDED" width="361.587" height="32.005"/>
			</g>
			<g>
				<rect x="165.606" y="763.319" fill="#EDEDED" width="232.346" height="32.005"/>
			</g>
			<g>
				<rect x="535.444" y="37.667" fill="#EDEDED" width="221.897" height="32.005"/>
			</g>
			<g>
				<rect x="535.444" y="399.16" fill="#EDEDED" width="221.897" height="32.005"/>
			</g>
			<g>
				<rect x="424.496" y="519.657" fill="#EDEDED" width="94.81" height="32.005"/>
			</g>
			<g>
				<rect x="329.686" y="641.933" fill="#EDEDED" width="212.957" height="32.004"/>
			</g>
			<g>
				<rect x="574.836" y="641.933" fill="#EDEDED" width="293.987" height="32.004"/>
			</g>
			<g>
				<rect x="165.606" y="520.546" fill="#EDEDED" width="221.897" height="32.005"/>
			</g>
			<g>
				<rect x="165.606" y="641.933" fill="#EDEDED" width="131.663" height="32.004"/>
			</g>
			<g>
				<rect x="564.005" y="520.546" fill="#EDEDED" width="124.217" height="32.005"/>
			</g>
			<g>
				<rect x="164.717" y="278.662" fill="#EDEDED" width="221.897" height="32.005"/>
			</g>
			<g>
				<rect x="164.717" y="399.16" fill="#EDEDED" width="316.319" height="32.005"/>
			</g>
			<g>
				<rect x="817.083" y="37.667" fill="#EDEDED" width="282.706" height="32.005"/>
			</g>
			<g>
				<rect x="1571.874" y="278.662" fill="#EDEDED" width="282.706" height="32.005"/>
			</g>
			<g>
				<rect x="1203.804" y="399.16" fill="#EDEDED" width="282.706" height="32.005"/>
			</g>
			<g>
				<rect x="1308.885" y="37.667" fill="#EDEDED" width="282.706" height="32.005"/>
			</g>
			<g>
				<rect x="986.298" y="399.16" fill="#EDEDED" width="165.766" height="32.005"/>
			</g>
			<g>
				<rect x="1152.064" y="37.667" fill="#EDEDED" width="103.48" height="32.005"/>
			</g>
			<g>
				<rect x="817.083" y="399.16" fill="#EDEDED" width="103.481" height="32.005"/>
			</g>
			<g>
				<rect x="162.059" y="158.165" fill="#EDEDED" width="161.889" height="32.004"/>
			</g>
			<g>
				<rect x="594.01" y="764.208" fill="#EDEDED" width="127.821" height="32.004"/>
			</g>
			<g>
				<rect x="363.687" y="158.165" fill="#EDEDED" width="52.274" height="32.004"/>
			</g>
			<g>
				<rect x="1436.817" y="158.165" fill="#EDEDED" width="432.06" height="32.004"/>
			</g>
			<g>
				<rect x="1255.544" y="158.165" fill="#EDEDED" width="141.353" height="32.004"/>
			</g>
			<g>
				<rect x="1396.897" y="278.662" fill="#EDEDED" width="141.354" height="32.005"/>
			</g>
			<g>
				<rect x="917.364" y="158.165" fill="#EDEDED" width="300.761" height="32.004"/>
			</g>
			<g>
				<rect x="771.21" y="158.165" fill="#EDEDED" width="103.481" height="32.004"/>
			</g>
			<g>
				<rect x="422.895" y="278.662" fill="#EDEDED" width="103.481" height="32.005"/>
			</g>
			<g>
				<rect x="443.521" y="764.208" fill="#EDEDED" width="103.48" height="32.004"/>
			</g>
			<g>
				<rect x="551.446" y="158.165" fill="#EDEDED" width="180.292" height="32.004"/>
			</g>
		</g>
		<linearGradient id="SVGID_1_" gradientUnits="userSpaceOnUse" x1="1369.6226" y1="-125.8232" x2="1369.6224" y2="1445.3096">
			<stop  offset="0" style="stop-color:#3E589E"/>
			<stop  offset="1" style="stop-color:#B8EBFF"/>
		</linearGradient>
		<rect x="1175.927" y="290.279" fill="url(#SVGID_1_)" width="387.391" height="355.782"/>
		<linearGradient id="SVGID_2_" gradientUnits="userSpaceOnUse" x1="1518.897" y1="468.1704" x2="1593.5269" y2="468.1704">
			<stop  offset="0" style="stop-color:#8EC3F9"/>
			<stop  offset="1" style="stop-color:#B8EBFF"/>
		</linearGradient>
		<path fill="url(#SVGID_2_)" d="M1593.527,343.787v248.766c0,48.845-20.262,88.369-45.248,88.369h-29.382V255.417h29.382
			C1573.265,255.417,1593.527,294.989,1593.527,343.787z"/>
		<linearGradient id="SVGID_3_" gradientUnits="userSpaceOnUse" x1="629.9395" y1="-125.8232" x2="629.9394" y2="1445.3096">
			<stop  offset="0" style="stop-color:#3E589E"/>
			<stop  offset="1" style="stop-color:#B8EBFF"/>
		</linearGradient>
		<rect x="436.244" y="290.279" fill="url(#SVGID_3_)" width="387.39" height="355.782"/>
		
			<linearGradient id="SVGID_4_" gradientUnits="userSpaceOnUse" x1="-2883.0259" y1="3748.3345" x2="-2808.3955" y2="3748.3345" gradientTransform="matrix(-1 0 0 -1 -2402.3604 4216.5049)">
			<stop  offset="0" style="stop-color:#8EC3F9"/>
			<stop  offset="1" style="stop-color:#B8EBFF"/>
		</linearGradient>
		<path fill="url(#SVGID_4_)" d="M406.035,592.553V343.787c0-48.845,20.262-88.37,45.248-88.37h29.382v425.505h-29.382
			C426.297,680.922,406.035,641.351,406.035,592.553z"/>
		<linearGradient id="SVGID_5_" gradientUnits="userSpaceOnUse" x1="530.8677" y1="468.1821" x2="1467.1968" y2="468.1821">
			<stop  offset="0" style="stop-color:#8EC3F9"/>
			<stop  offset="1" style="stop-color:#B8EBFF"/>
		</linearGradient>
		<path fill="url(#SVGID_5_)" d="M1467.197,468.183c0,221.632-153.999,407.312-360.868,455.81
			c-34.45,8.099-70.369,12.371-107.313,12.371c-36.91,0-72.83-4.272-107.28-12.371c-206.869-48.498-360.868-234.178-360.868-455.81
			C530.868,209.604,740.471,0,999.015,0c68.113,0,132.844,14.525,191.217,40.705c80.417,36.022,148.838,94.087,197.539,166.473
			C1437.942,281.75,1467.197,371.566,1467.197,468.183z"/>
		<path fill="#FFFFFF" d="M1106.32,510.202V924c-34.451,8.082-70.377,12.356-107.289,12.356c-36.913,0-72.838-4.274-107.29-12.356
			V510.202H1106.32z"/>
		<circle fill="#FFFFFF" cx="999.031" cy="426.167" r="229.584"/>
		<linearGradient id="SVGID_6_" gradientUnits="userSpaceOnUse" x1="999.0317" y1="297.1079" x2="999.0317" y2="887.0029">
			<stop  offset="0" style="stop-color:#3E589E"/>
			<stop  offset="1" style="stop-color:#B8EBFF"/>
		</linearGradient>
		<circle fill="url(#SVGID_6_)" cx="999.032" cy="426.167" r="200.068"/>
		<linearGradient id="SVGID_7_" gradientUnits="userSpaceOnUse" x1="999.0317" y1="290" x2="999.0317" y2="1235.861">
			<stop  offset="0" style="stop-color:#3E589E"/>
			<stop  offset="1" style="stop-color:#B8EBFF"/>
		</linearGradient>
		<circle fill="url(#SVGID_7_)" cx="999.031" cy="426.167" r="129.691"/>
		<linearGradient id="SVGID_8_" gradientUnits="userSpaceOnUse" x1="1020.6372" y1="169.4673" x2="870.5453" y2="-272.9124">
			<stop  offset="0" style="stop-color:#3E589E"/>
			<stop  offset="1" style="stop-color:#B8EBFF"/>
		</linearGradient>
		<path fill="url(#SVGID_8_)" d="M1003.906,170.347h-9.751c-13.933,0-25.228-11.294-25.228-25.227V66.444
			c0-13.933,11.295-25.227,25.228-25.227h9.751c13.933,0,25.228,11.294,25.228,25.227v78.676
			C1029.133,159.052,1017.838,170.347,1003.906,170.347z"/>
		<circle opacity="0.54" fill="#FFFFFF" cx="1083.409" cy="329.094" r="53.96"/>
		<linearGradient id="SVGID_9_" gradientUnits="userSpaceOnUse" x1="616.167" y1="1088.4731" x2="2035.4656" y2="1088.4731">
			<stop  offset="0" style="stop-color:#617AE0"/>
			<stop  offset="1" style="stop-color:#B8EBFF"/>
		</linearGradient>
		<rect x="367.811" y="1064.78" fill="url(#SVGID_9_)" width="1262.44" height="47.386"/>
		<linearGradient id="SVGID_10_" gradientUnits="userSpaceOnUse" x1="999.0317" y1="1725.8325" x2="999.0317" y2="834.29">
			<stop  offset="0" style="stop-color:#8EC3F9"/>
			<stop  offset="1" style="stop-color:#B8EBFF"/>
		</linearGradient>
		<path fill="url(#SVGID_10_)" d="M1739.243,1216.418H258.821c-26.171,0-47.387-21.217-47.387-47.388v-18.955
			c0-26.171,21.216-47.387,47.387-47.387h1480.422c26.171,0,47.388,21.216,47.388,47.387v18.955
			C1786.63,1195.202,1765.414,1216.418,1739.243,1216.418z"/>
		<circle fill="#FFFFFF" cx="999.031" cy="66.54" r="16.438"/>
		<g>
			<g>
				<linearGradient id="SVGID_11_" gradientUnits="userSpaceOnUse" x1="1258.1909" y1="-105.2876" x2="1258.1909" y2="456.8661">
					<stop  offset="0" style="stop-color:#8EC3F9"/>
					<stop  offset="1" style="stop-color:#B8EBFF"/>
				</linearGradient>
				<path fill="url(#SVGID_11_)" d="M1410.061,196.213l-44.093,118.452L1106.32,100.328l106.202-70.587
					C1292.939,65.762,1361.36,123.827,1410.061,196.213z"/>
				
					<linearGradient id="SVGID_12_" gradientUnits="userSpaceOnUse" x1="-4410.2163" y1="-105.2876" x2="-4410.2163" y2="456.8661" gradientTransform="matrix(-1 0 0 1 -3670.3447 0)">
					<stop  offset="0" style="stop-color:#8EC3F9"/>
					<stop  offset="1" style="stop-color:#B8EBFF"/>
				</linearGradient>
				<path fill="url(#SVGID_12_)" d="M588.003,196.213l44.093,118.452l259.645-214.335l-106.199-70.59
					C705.125,65.762,636.704,123.827,588.003,196.213z"/>
			</g>
			<g>
				
					<linearGradient id="SVGID_13_" gradientUnits="userSpaceOnUse" x1="-4498.5225" y1="3271.8589" x2="-4093.6968" y2="4442.6768" gradientTransform="matrix(-1 0 0 -1 -3467.7861 4901.1768)">
					<stop  offset="0" style="stop-color:#8EC3F9"/>
					<stop  offset="1" style="stop-color:#B8EBFF"/>
				</linearGradient>
				<path fill="url(#SVGID_13_)" d="M588.003,740.151l44.093-118.453l259.645,214.335l-106.199,70.591
					C705.125,870.601,636.704,812.537,588.003,740.151z"/>
				
					<linearGradient id="SVGID_14_" gradientUnits="userSpaceOnUse" x1="837.4917" y1="3482.187" x2="1242.3174" y2="4653.0049" gradientTransform="matrix(1 0 0 -1 202.5586 4901.1768)">
					<stop  offset="0" style="stop-color:#8EC3F9"/>
					<stop  offset="1" style="stop-color:#B8EBFF"/>
				</linearGradient>
				<path fill="url(#SVGID_14_)" d="M1410.061,740.151l-44.093-118.453L1106.32,836.036l106.202,70.588
					C1292.939,870.601,1361.36,812.537,1410.061,740.151z"/>
			</g>
		</g>
		<g>
			<path fill="#EEA886" d="M1623.071,1195.09c0,0,2.324,17.042,2.615,19.602c0.29,2.561,25.859-1.508,25.859-1.508l2.07-20.288
				C1653.616,1192.896,1626.267,1192.686,1623.071,1195.09z"/>
			<path fill="#E8E8E8" d="M1625.414,1212.526c0,0-21.828,12.336-29.664,16.812c-7.835,4.477-31.95,6.801-31.079,11.449
				c0.872,4.649,7.845,15.108,40.387,14.818c32.542-0.291,48.231,2.034,51.718-3.487c3.487-5.52-5.045-40.746-5.045-40.746
				S1644.318,1216.225,1625.414,1212.526z"/>
			<path fill="#EEA886" d="M1506.627,1222.446l3.755,21.537c0,0,27.648-1.664,28.811-5.441s-3.027-23.85-3.027-23.85
				L1506.627,1222.446z"/>
			<path fill="#E8E8E8" d="M1539.423,1237.012c0,0,8.686,29.343,2.584,40.384s-25.858,13.075-33.123,12.493
				c-7.264-0.58-27.021-7.263-45.325-6.392c-18.305,0.872-39.806-3.776-34.575-15.108c5.229-11.332,45.107-7.845,57.274-18.305
				s23.121-11.854,23.121-11.854S1509.496,1247.471,1539.423,1237.012z"/>
			<g>
				<polygon fill="#514E58" points="1438.921,677.349 1395.087,612.231 1433.252,591.023 1470.99,657.715 				"/>
				<polygon fill="#3E3B42" points="1438.615,671.523 1400.678,615.167 1433.708,596.814 1466.369,654.531 				"/>
				<path fill="#EEA886" d="M1470.354,685.368c0,0-7.934-3.918-3.184-13.407s1.405-12.677,1.405-12.677l-35.655,21.721
					c0,0,11.101,16.905,15.285,18.428C1452.39,700.954,1473.446,691.83,1470.354,685.368z"/>
				<path fill="#EEA886" d="M1432.92,681.004c0,0-15.208-15.416-16.499-17.498s-7.527-11.487-9.768-16.729
					c-2.24-5.242,10.495-1.191,13.201,4.337c2.707,5.529,5.785,7.614,8.162,9.24c2.377,1.625,17.929,6.124,20.004,11.45
					C1450.097,677.131,1432.92,681.004,1432.92,681.004z"/>
				<path fill="#EEA886" d="M1461.205,640.858c0,0-1.988,5.327-4.112,2.248c-2.125-3.078-2.729-12.89,1.892-11.598
					S1461.205,640.858,1461.205,640.858z"/>
				<path fill="#EEA886" d="M1455.373,631.116c0,0-1.486,6.635-4.164,4.021c-2.017-1.969-2.676-14.663,1.944-13.371
					C1457.772,623.058,1455.373,631.116,1455.373,631.116z"/>
			</g>
			<path fill="#EEA886" d="M1565.039,692.097c0,0-14.248-10.222-20.391-15.333c-6.143-5.11-22.777-13.586-23.971-15.108
				c-1.194-1.522-51.345-13.68-53.947-16.88c-2.604-3.201-7.174,5.139,5.456,10.357s29.665,15.515,29.751,20.829
				c0.085,5.314-14.63,3.949-16.853,7.919c-2.222,3.969-0.172,3.355,1.744,4.633c1.917,1.277,18.58-4.422,24.825-0.851
				c6.246,3.571,17.029,2.086,21.829,4.746c4.801,2.661,28.168,15.45,28.168,15.45L1565.039,692.097z"/>
			<path fill="#EAD8CF" d="M1534.972,698.091l-7.492-4.396c0,0,14.187-21.702,18.45-20.354c4.913,1.555,10.896,4.331,10.896,4.331
				L1534.972,698.091z"/>
			<path fill="#CF6645" d="M1532.419,701.817c1.162-0.582,22.663-28.475,22.663-28.475l33.413,10.75l-24.987,33.123
				L1532.419,701.817z"/>
			<path fill="#353A3D" d="M1720.167,913.244c0,0,3.52,54.5-23.5,64.523h-211.364c0,0,54.343,235.54,54.343,239.463l-35.119,9.61
				c0,0-96.165-201.607-100.719-212.465c-5.666-13.511-5.229-49.246,11.331-62.756c16.56-13.511,122.896-51.726,143.815-53.101
				C1579.873,897.144,1720.167,913.244,1720.167,913.244z"/>
			<path fill="#EEA886" d="M1678.65,616.162c0,0-0.778,14.069-1.157,32.139c-0.38,18.069-49.192,6.156-49.192,6.156
				s2.203-19.532-3.401-25.746S1678.65,616.162,1678.65,616.162z"/>
			<path fill="#EEA886" d="M1607.091,542.304c-1.163,7.555-15.98,16.853-5.521,61.016c10.459,44.164,27.603,38.644,40.968,35.737
				c13.365-2.905,37.19-10.75,46.197-45.906s-5.812-54.817-16.271-67.311C1662.005,513.346,1607.091,542.304,1607.091,542.304z"/>
			<path fill="#E8734D" d="M1742.228,674.433c0,0-17.054,90.527-10.755,119.097c-0.534,11.628-3.895,33.031-4.386,39.906
				c-1.308,18.301-3.834,78.088-3.834,78.088c-53.604,31.815-162.829-9.959-164.298-13.005c-3.193-6.626,26.583-51.491,26.583-64.13
				c0-12.64-16.801-63.422-16.801-63.422s-29.346,41.259-46.487,49.394c-17.143,8.136-74.672-109.537-74.672-109.537l31.671-23.244
				c0,0,38.643,55.495,40.096,57.238c1.452,1.743,39.805-40.677,44.744-49.103s64.211-41.259,64.211-41.259
				s44.399-7.028,49.19-6.156C1682.286,649.171,1738.306,672.253,1742.228,674.433z"/>
			<path fill="#2B2B2B" d="M1575.079,1003.48c0,0,39.223,190.01,44.888,191.317c5.666,1.308,36.172-2.18,36.172-2.18
				s5.229-104.156,3.051-127.69c-2.18-23.533-2.615-68.421-2.615-68.421L1575.079,1003.48z"/>
			<path fill="#EAD8CF" d="M1476.625,689.504l-5.183-7.714c0,0-27.607,15.312-26.445,18.991c1.162,3.681,4.864,8.366,4.864,8.366
				L1476.625,689.504z"/>
			<path fill="#434343" d="M1598.512,565.899c0,0-3.827-0.641-6.337-5.677c-2.508-5.036-9.2-42.905,38.741-44.648
				c36.066-1.312,40.024-3.095,52.879,9.589c14.528,14.333,10.591,67.535-5.146,90.999c0,0-28.764-4.707-40.676-26.353
				c-3.591-6.524,2.167-27.384-11.126-24.696c-9.887,1.999-9.155,26.973-9.155,26.973l-6.438,2.324
				C1611.255,594.41,1617.093,555.629,1598.512,565.899z"/>
			<path fill="#E8734D" d="M1742.228,674.433c0,0,42.681,34.391-14.171,124.655C1702.484,839.69,1742.228,674.433,1742.228,674.433z
				"/>
			<rect x="1485.303" y="977.767" fill="#BDB69C" width="383.573" height="26.513"/>
			<rect x="1485.303" y="1004.28" fill="#80756B" width="24.453" height="295.198"/>
			<rect x="1844.423" y="1004.28" fill="#80756B" width="24.453" height="295.198"/>
			<path fill="#EAD8CF" d="M1628.3,654.457v-5.423c0,0,39.563-11.83,49.322-6.206l-0.132,5.473L1628.3,654.457z"/>
			<path fill="#E8734D" d="M1558.956,898.519c0,0,74.941,54.57,125.22,41.693c35.239-9.026,39.078-28.688,39.078-28.688
				L1558.956,898.519z"/>
			<polygon fill="#803F2A" points="1519.345,744.818 1497.785,765.616 1510.462,732.346 			"/>
		</g>
		<g>
			<g>
				<path fill="#353A3D" d="M212.751,1247.753c0,0,9.866,14.762,23.706,17.95c13.839,3.189,27.471,8.261,27.575,16.994
					c0.104,8.733-40.012,13.942-55.85,5.138c-23.636-13.141-26.039-9.179-28.66-15.748c-2.621-6.567,3.148-24.132,2.977-26.221
					C182.29,1243.286,212.751,1247.753,212.751,1247.753z"/>
			</g>
			<g>
				<path fill="#81807E" d="M211.219,1240.473c0,0,1.8,7.13,1.533,7.28c-0.268,0.151-31.186,3.835-30.251-1.887
					c0.759-4.641,1.841-9.684,1.841-9.684L211.219,1240.473z"/>
			</g>
			<g>
				<path fill="#353A3D" d="M108.698,1246.775c0,0,7.037,14.119,19.061,18.929c12.853,5.142,23.16,11.05,22.926,19.559
					c-0.234,8.51-31.42,17.134-54.108,0.803c-14.334-10.319-18.877-10.369-21.176-16.867c-2.3-6.498,3.993-23.382,3.907-25.423
					C79.202,1241.252,108.698,1246.775,108.698,1246.775z"/>
			</g>
			<g>
				<path fill="#81807E" d="M109.049,1239.442c0,0-0.085,7.196-0.351,7.333c-0.267,0.137-30.15,2.599-29.39-3
					c0.604-4.448,2.9-9.82,2.9-9.82L109.049,1239.442z"/>
			</g>
			<g>
				<path fill="#2D3133" d="M218.616,808.117c0,0,27.763,122.46,34.104,159.762c5.397,31.749,9.699,64.809,7.113,87.728
					c-3.202,28.376-43.369,175.435-41.69,183.754c1.679,8.32-42.032,1.333-42.032,1.333s30.55-164.04,24.447-194.57
					c-4.52-22.612-44.121-172.826-50.19-165.121s-13.595,141.767-18.089,164.021c-4.495,22.253-18.293,198.093-18.293,198.093
					s-30.851,4.552-39.091-2.422c0,0-3.751-150.146-0.887-191.868c1.092-15.9-18.63-190.648,6.658-260.998
					C94.03,750.648,218.616,808.117,218.616,808.117z"/>
			</g>
			<g>
				<path fill="#DECBC4" d="M339.459,696.792c-19.787-2.78-82.041,24.799-87.696,22.716c-3.891-1.428-13.02-31.176-19.542-53.689
					c-3.857-13.317-6.801-24.105-7.209-24.995l-0.024-0.048c0.063,0.596,1.072,10.777-0.212,24.153
					c-0.082,0.866-0.178,1.746-0.279,2.636c-0.029,0.23-0.058,0.462-0.086,0.697c-0.582,4.791-1.472,9.903-2.804,15.068
					c-1.977,7.628-2.91,17.671-3.261,28.266v0.044c-0.005,0.082-0.005,0.158-0.015,0.245c-0.004,0.245-0.019,0.486-0.019,0.731
					c0,0.096-0.01,0.196-0.01,0.298c-0.553,19.281,0.779,40.069,1.333,51.131c0.871,17.137-4.767,24.852-4.93,25.072
					c-0.005,0.005-0.005,0.005-0.005,0.005l-5.964-0.837l-4.309-0.605l-0.053-0.01l-5.757-0.809l-22.576-3.174l-8.176-1.149
					l-1.934-0.274l-14.304-2.011l-40.329-5.675l-4.425-0.621l-1.823-0.254l-15.208-2.146l-6.873-0.962l-0.024-0.005
					c0,0-5.839-41.405-6.286-63.785c-0.404-20.556-11.408-62.294-13.202-68.97c-0.01-0.048-0.024-0.091-0.039-0.139
					c-0.014-0.063-0.029-0.125-0.048-0.184c-0.034-0.115-0.058-0.211-0.082-0.293c-0.009-0.048-0.024-0.096-0.039-0.145
					c0-0.014-0.005-0.028-0.009-0.038c-0.005-0.015-0.01-0.028-0.01-0.044c-0.014-0.048-0.014-0.071-0.014-0.071
					s-32.917,34.58-39.304,49.669c-1.948,4.578-7.902,17.03-15.482,32.19C3.247,708.889,0,702.011,0,700.29
					c0-0.212,0.005-0.438,0.01-0.674c0.486-14.919,16.122-75.414,28.458-114.935c9.581-19.258,17.843-34.831,20.494-36.73
					c4.016-2.886,20.912-10.12,35.658-15.973c0.486-0.192,0.967-0.38,1.438-0.567c1.375-0.544,2.732-1.073,4.05-1.588
					c0.659-0.255,1.308-0.505,1.948-0.75c0.351-0.135,0.697-0.265,1.044-0.395c0.284-0.11,0.563-0.217,0.842-0.322h0.005
					c7.373-2.804,12.976-4.762,14.13-4.828c0.192-0.016,0.5-0.01,0.918,0.004c0.486,0.01,1.116,0.039,1.866,0.087
					c9.114,0.534,36.317,3.083,45.071,3.915c1.592,0.148,2.578,0.245,2.727,0.26c0.014,0,0.019,0,0.019,0s4.17,1.899,10.447,4.771
					l0.004,0.006l0.582,0.265c3.795,1.74,8.186,4.059,12.827,6.598c9.1,4.988,19.152,10.817,27.487,14.785
					c8.176,3.887,19.368,9.307,20.321,10.066l41.415,119.43l71.848-13.132L339.459,696.792z"/>
			</g>
			<g>
				<path fill="#495055" d="M214.704,789.117c0,0,3.035,3.63,3.912,19c0,0-124.761-14.555-137.951-20.29
					c0,0-0.515-16.939,2.282-17.232C86.021,770.271,214.704,789.117,214.704,789.117z"/>
			</g>
			<g>
				<path fill="#EEA886" d="M108.31,519.293c0.388,19.581,38.299,30.292,38.299,30.292s15.858-19.88,12.07-21.784
					c-1.488-0.748-2.091-3.716-2.277-7.043c-0.171-3.168,0.031-6.662,0.216-8.881c0.113-1.385,0.219-2.275,0.219-2.275
					s-5.416-5.715-12.308-12.524c-12.042-11.906-28.596-27.159-28.622-21.091c-0.001,0.32,0.043,0.705,0.14,1.15
					C118.957,490.792,108.31,519.293,108.31,519.293z"/>
			</g>
			<g>
				<path fill="#353A3D" d="M111.455,773.596c0,0-2.723,17.173-2.959,21.648l-5.771-1.151c0,0,1.589-18.169,2.524-21.214
					L111.455,773.596z"/>
			</g>
			<g>
				<path fill="#353A3D" d="M204.295,787.113c0,0,2.187,15.609,2.239,21.504l-6.105-0.793c0,0-1.251-19.492-1.949-21.527
					L204.295,787.113z"/>
			</g>
			<g>
				<path fill="#A77860" d="M122.911,490.605c0,0,0,0,0.003,0.003c0.075,0.114,1.683,2.52,4.427,5.973
					c5.82,7.32,16.761,19.347,29.061,24.178c-0.171-3.168,0.031-6.662,0.216-8.881c1.258-0.031,2.517-0.178,3.765-0.453
					c-3.373-5.892-8.243-12.07-8.243-12.07l-7.611-2.276L122.911,490.605z"/>
			</g>
			<g>
				<path fill="#EEA886" d="M115.633,476.251c3.28,7.134,6.394,12.305,7.277,14.354c0,0,0,0,0.003,0.003
					c0.575,1.335,2.141,3.51,4.427,5.973c6.247,6.73,17.861,15.608,29.277,15.297c1.258-0.031,2.517-0.178,3.765-0.453
					c4.609-1.008,10.053-3.149,13.048-9.014c23.652-46.307,6.528-84.173,6.528-84.173s-64.67-18.288-74.789,1.18
					C98.07,433.073,107.928,459.488,115.633,476.251z"/>
			</g>
			<g>
				<path fill="#434343" d="M179.959,418.238c0,0,6.006-0.333,7.491-11.72c1.467-11.25-1.5-14.367-1.5-14.367
					s-26.698-11.177-36.285-12.63c-9.588-1.454-33.163-2.85-38.689,3.47c0,0-13.426-3.12-17.084,19.169
					c-5.803,35.36,19.774,69.695,19.774,69.695s-0.218-23.101,4.876-26.161c5.095-3.062,9.492,4.218,9.492,4.218l10.421,1.866
					c0,0-15.828-34.176,3.158-35.441C160.6,415.07,169.09,420.22,179.959,418.238z"/>
			</g>
			<g>
				<path fill="#EEA886" d="M127.748,440.703c-0.991-10.177-19.396-14.063-18.163-3.396c1.233,10.668,10.296,20.916,14.483,20.555
					C128.254,457.501,128.503,448.459,127.748,440.703z"/>
			</g>
			<g>
				<path fill="#5B83C2" d="M8.432,718.783c8.018,15.294,20.667,37.798,33.157,59.619c-1.645,3.069-3.251,6.113-4.791,9.119
					c-3.756,7.35-7.089,14.463-9.456,21.095c-2.848,7.975-6.806,28.401,0.77,32.195l39.91,22.028c0,0,0.279-0.779,0.808-2.223
					c1.323-3.582,4.189-11.249,8.157-21.181c0.13-0.322,0.529-1.27,1.121-2.664c0.793-1.872,1.938-4.546,3.247-7.6
					c0.587-1.366,1.202-2.809,1.842-4.29c0.722-1.693,1.472-3.439,2.217-5.176c1.087-2.529,2.169-5.045,3.17-7.373
					c2.722-6.339,4.848-11.273,4.848-11.273c0.134-0.293,0.269-0.582,0.404-0.875c1.298-2.81,2.631-5.627,3.987-8.437
					c2.097-4.353,4.257-8.686,6.464-12.924c0.221-0.432,0.442-0.86,0.668-1.288c0.395-0.746,0.789-1.491,1.183-2.228
					c0.246-0.451,0.491-0.904,0.736-1.352c0.053-0.101,0.111-0.201,0.164-0.303c0.101-0.178,0.197-0.355,0.298-0.533
					c11.538-21.047,24.534-38.646,28.68-64.453c0.399-2.492,0.779-4.969,1.14-7.427c0.602-4.098,1.154-8.143,1.659-12.105
					c0.188-1.501,0.375-2.982,0.553-4.454c2.078-17.219,3.319-32.561,4.319-43.247c3.122-33.292-17.271-69.341-32.926-91.608
					c-8.374-11.909-15.386-19.879-16.737-21.389c-0.034-0.029-0.058-0.058-0.082-0.082c-0.279,0.105-0.558,0.212-0.842,0.322
					c-0.347,0.13-0.693,0.26-1.044,0.395c-0.64,0.245-1.289,0.495-1.948,0.75c-1.318,0.515-2.674,1.044-4.05,1.588
					c-0.471,0.188-0.952,0.375-1.438,0.567c-15.16,5.944-50.892,16.514-54.908,19.395c-2.318,1.659-3.7,15.064-9.688,34.255
					C7.688,625.147,0.366,684.735,0.01,699.616C0.005,699.852,0,700.078,0,700.29C0,702.011,3.247,708.889,8.432,718.783z
					 M69.076,711.346c0,7.427-2.415,15.93-6.127,24.991c-0.097,0.226-0.188,0.457-0.284,0.683
					c-2.559-5.459-4.968-10.687-7.128-15.529c-0.005-0.01-0.01-0.015-0.01-0.024c-5.94-13.294-10.018-23.663-10.245-27.767
					c-1.467-26.36,17.95-56.705,17.95-56.705c0,0.016,0.005,0.029,0.01,0.044c0.004,0.01,0.009,0.024,0.009,0.038
					c0.015,0.049,0.029,0.097,0.039,0.145c0.029,0.097,0.058,0.192,0.082,0.293c0.019,0.059,0.034,0.121,0.048,0.184
					c0.014,0.048,0.029,0.091,0.039,0.139C67.436,653.506,69.076,711.346,69.076,711.346z"/>
			</g>
			<g>
				<path fill="#5B83C2" d="M365.979,656.321l-90.372,19.681L232.53,563.346c-0.953-0.756-13.303-7.402-21.48-11.293
					c-8.513-4.055-19.286-9.057-28.843-13.467c-4.564-2.111-8.864-4.084-12.496-5.752l-0.298,0.235c0,0,5.334,17.762,12.236,62.097
					c0,0.005,0,0.01,0.005,0.014c0.236,1.491,0.466,3.007,0.702,4.556c0.024,0.178,0.053,0.36,0.082,0.538
					c0.154,1.024,0.313,2.063,0.467,3.117c0.019,0.125,0.039,0.25,0.058,0.37c0.106,0.707,0.211,1.419,0.313,2.14
					c0.26,1.751,0.52,3.535,0.779,5.354c3.078,21.581,7.397,58.307,11.548,95.384v0.015c3.28,29.223,10.754,59.211,13.13,81.59
					c0,0.014,0.005,0.029,0.005,0.043c0.472,4.387,1.592,10.23,3.107,16.824c0.168,0.746,0.346,1.5,0.524,2.266
					c6.686,28.246,19.667,68.229,19.667,68.229l3.78-3.492l11.197-10.336c2.578-2.376,3.554-6.021,2.516-9.363
					c-6.209-20.032-27.314-90.926-31.181-140.772c-0.005-0.015-0.005-0.029-0.005-0.044c-1.212-15.659,3.367-30.41,6.021-44.396
					c0.048,0.12,0.091,0.24,0.135,0.365c2.222,6.181,4.685,12.899,7.167,19.44v0.005c6.661,17.564,13.477,33.841,16.314,34.88
					c6.315,2.322,125.309-30.212,126.131-34.882L365.979,656.321z"/>
			</g>
			<g>
				<path fill="#4E70A6" d="M104.467,576.948l18.443,10.402l-7.879,8.036l20.982,113.284c4.278-26.553,6.225-51.77,7.673-67.233
					c4.825-51.468-46.547-109.527-49.743-113.083c-2.467,0.936-5.133,1.97-7.887,3.059L104.467,576.948z"/>
			</g>
			<g>
				<path fill="#4E70A6" d="M169.129,532.57c0,0,6.891,22.507,14.922,78.683c3.079,21.581,7.399,58.311,11.552,95.384l4.293-106.095
					l-8.787-9.519l7.811-9.763l-16.714-42.674c-4.564-2.111-8.862-4.085-12.497-5.754L169.129,532.57z"/>
			</g>
			<g>
				<path fill="#F5E2D9" d="M93.018,528.582l15.292-9.288c0,0,0.428,8.387,38.299,30.292l-10.755,30.292L93.018,528.582z"/>
			</g>
			<g>
				<path fill="#F5E2D9" d="M156.683,523.519c0,0-0.596,9.051-10.074,26.066l20.989,27.362l1.53-44.378L156.683,523.519z"/>
			</g>
			<g>
				<path fill="#323657" d="M146.552,549.585c0,0-4.067,16.271-2.603,20.827c0,0,8.945,3.254,15.374-0.814
					C159.323,569.598,154.769,558.209,146.552,549.585z"/>
			</g>
			<g>
				<g>
					<path fill="#AD9F99" d="M167.58,784.251c2.277-11.48,0.11-45.881,0.017-47.34l-1.949,0.125
						c0.023,0.354,2.245,35.604,0.017,46.835L167.58,784.251z"/>
				</g>
			</g>
			<g>
				<path fill="#69737A" d="M151.653,778.958c0,0,18.357,2.192,24.428,3.706l-0.795,20.576l-24.039-2.564L151.653,778.958z"/>
			</g>
			<g>
				<path fill="#323657" d="M155.671,568.134c0,0,20.474,51.706,17.135,109.579c-3.463,60.005-9.142,81.762-9.142,81.762
					l-12.625,15.832l-5.567-19.459c0,0,16.941-76.502,6.005-150.941c-1.981-13.49-4.925-39.051-4.925-39.051L155.671,568.134z"/>
			</g>
			<g>
				<path fill="#EEA886" d="M94.147,812.316c0,0,4.393,8.786,8.786,10.25c4.394,1.465,10.8,8.604,10.8,8.604l-30.936,16.291
					c0,0-8.237-16.108-8.603-26.359C73.829,810.852,94.147,812.316,94.147,812.316z"/>
			</g>
			<g>
				<path fill="#DECBC4" d="M97.084,813.14l2.049,4.118c0,0-19.647,14.369-24.943,15.284l-1.818-5.491L97.084,813.14z"/>
			</g>
			<g>
				<path fill="#5B83C2" d="M99.133,813.32c0,0-14.724,12.176-27.128,17.789l-41.729-75.058l21.623-41.801
					C51.898,714.25,98.157,805.999,99.133,813.32z"/>
			</g>
			<g>
				<path fill="#2F4363" d="M223.781,640.973c0.683,13.885,0.582,26.217,0.582,26.217s0,0.005,0,0.01
					c0.005,0.066,0.019,0.442,0.048,1.063c0.029-0.235,0.058-0.467,0.086-0.697c2.222,6.181,4.685,12.899,7.167,19.44
					c0.577-7.58,0.726-14.646,0.558-21.187c-0.996-38.934-13.241-59.35-13.241-59.35
					C221.79,613.255,223.137,627.814,223.781,640.973z"/>
			</g>
			<g>
				<path fill="#2F4363" d="M36.798,787.521l33.408,40.348l-28.617-49.467C39.944,781.471,38.337,784.515,36.798,787.521z"/>
			</g>
			<g>
				<path fill="#323657" d="M279.403,736.935h77.129c5.287,0,9.886-3.618,11.13-8.757l33.502-138.324
					c1.746-7.207-3.715-14.148-11.13-14.148h-77.129c-5.286,0-9.886,3.619-11.13,8.757l-33.502,138.325
					C266.527,729.995,271.988,736.935,279.403,736.935z"/>
			</g>
			<g>
				<g>
					<path fill="#EEA886" d="M373.743,698.481c-3.773-3.494-11.055-5.521-17.289-9.688c-6.234-4.165-1.028-8.459-1.028-8.459
						c-6.406-2.199-5.717-5.123-4.896-7.115c1.109-2.691,8.104-1.928,8.104-1.928s-6.273-1.388-8.853-2.529
						s-1.704-5.641,2.265-7.063c3.969-1.422,20.144,2.565,20.144,2.565s-2.637-1.292-10.614-5.295
						c-7.977-4.004-9.729-7.646-5.024-9.395c3.27-1.216,9.695,1.333,22.028,9.62c9.286,6.239,8.531,7.052,8.531,7.052
						S378.25,702.654,373.743,698.481z"/>
				</g>
			</g>
		</g>
	</g>
</g>
</svg>
