<?xml version="1.0" encoding="utf-8"?>
<!-- Generator: Adobe Illustrator 16.0.0, SVG Export Plug-In . SVG Version: 6.00 Build 0)  -->
<!DOCTYPE svg PUBLIC "-//W3C//DTD SVG 1.1//EN" "http://www.w3.org/Graphics/SVG/1.1/DTD/svg11.dtd">
<svg version="1.1" id="Layer_1" xmlns="http://www.w3.org/2000/svg" xmlns:xlink="http://www.w3.org/1999/xlink" x="0px" y="0px"
	 width="512px" height="512px" viewBox="0 0 512 512" enable-background="new 0 0 512 512" xml:space="preserve">
<path d="M511.074,401.508c-2.402-11.563-9.199-21.441-19.141-27.82c-9.941-6.375-21.75-8.434-33.266-5.801l-53.367,12.219v-21.816
	c10.703-10.082,21.848-23.246,29.773-35.277c13.898-21.098,23.734-44.266,29.234-68.848c6.539-29.246,6.68-60.207,0.402-89.547
	c-1.156-5.398-6.473-8.844-11.871-7.684c-5.402,1.152-8.84,6.469-7.688,11.871c5.68,26.535,5.555,54.543-0.363,80.992
	c-4.969,22.211-13.859,43.145-26.418,62.211c-3.723,5.652-8.238,11.582-13.07,17.246V218.41c0-5.523-4.477-10-10-10h-79.105V101.621
	c0-5.508-4.457-9.98-9.965-10l-89.105-0.301c-0.012,0-0.02,0-0.031,0c-2.648,0-5.188,1.047-7.059,2.918
	c-1.883,1.875-2.941,4.422-2.941,7.082v55.551h-79.117c-5.52,0-10,4.477-10,10v99.027H95.696v-13.582c0-5.52-4.477-9.996-10-9.996
	H75.438c-1.746-9.613-2.758-19.379-2.996-29.129c-0.586-23.707,3.172-46.902,11.164-68.949c1.863-5.141,3.98-10.266,6.289-15.227
	c2.332-5.008,0.16-10.957-4.844-13.289c-5.008-2.324-10.957-0.16-13.285,4.848c-2.559,5.492-4.902,11.164-6.961,16.852
	c-8.844,24.395-13,50.055-12.359,76.258c0.238,9.578,1.152,19.164,2.703,28.637H10c-5.523,0-10,4.477-10,10v175.773
	c0,5.523,4.477,10,10,10h75.695c5.523,0,10-4.477,10-10v-9.508h37.617l152.379,59.766c14.227,5.582,29.129,8.391,44.109,8.391
	c9.988,0,20.02-1.25,29.898-3.762l119.434-30.355C501.805,446.863,515.832,424.41,511.074,401.508z M75.696,418.094H20V262.316
	h47.18c0.02,0,0.043,0.004,0.066,0.004c0.02,0,0.035-0.004,0.055-0.004h8.395V418.094z M474.207,433.242l-119.434,30.355
	c-20.617,5.238-41.98,3.898-61.781-3.863l-154.137-60.457c-1.164-0.457-2.402-0.688-3.652-0.688H95.696V285.898h93.168
	l64.703,26.781l35.406,14.656c12.527,5.195,18.523,19.891,13.387,32.402c-1.031,2.512-2.309,4.898-4.004,7.027
	c-6.262,7.902-16.57,11.387-26.211,9.043c-0.078-0.02-0.156-0.039-0.234-0.059c-0.578-0.145-1.152-0.313-1.723-0.5l-67.285-25.867
	c-0.547-0.211-0.836-0.32-0.836-0.32c-5.152-1.984-10.938,0.59-12.922,5.746c-1.98,5.152,0.59,10.941,5.746,12.922
	c0,0,37.938,14.586,66.867,25.742c0.582,0.227,1.16,0.438,1.742,0.633l22.215,8.543c6.715,2.582,13.398,5.152,20.387,6.938
	c11.867,3.031,24.184,4.25,36.418,3.582c6.898-0.375,13.785-1.328,20.52-2.867l34.496-7.895c0.035-0.008,0.07-0.023,0.105-0.031
	l65.492-14.992c6.23-1.426,12.625-0.313,18,3.137c5.383,3.453,9.059,8.801,10.359,15.059
	C494.071,417.973,486.477,430.125,474.207,433.242z"/>
<path d="M127.879,71.125c2.391,0,4.789-0.852,6.699-2.578c17.844-16.117,39.152-28.973,61.633-37.18
	c24.355-8.891,51.055-12.684,77.215-10.965c18.723,1.23,37.066,5.227,54.52,11.875c5.156,1.965,10.938-0.621,12.902-5.785
	c1.969-5.16-0.621-10.938-5.785-12.902C315.75,6.23,295.453,1.809,274.739,0.445c-28.914-1.898-58.441,2.297-85.387,12.137
	c-24.871,9.078-48.445,23.301-68.176,41.121c-4.102,3.703-4.422,10.027-0.719,14.125C122.43,70.016,125.149,71.125,127.879,71.125z"
	/>
<path d="M354.887,142.492c1.895,1.645,4.23,2.449,6.555,2.449c2.793,0,5.574-1.164,7.555-3.438l82.273-94.707
	c3.625-4.168,3.18-10.484-0.988-14.105c-4.172-3.621-10.484-3.18-14.105,0.988l-82.277,94.707
	C350.274,132.555,350.719,138.871,354.887,142.492z"/>
<path d="M428.617,99.738c-13.844,0-25.105,11.262-25.105,25.105s11.262,25.105,25.105,25.105s25.105-11.266,25.105-25.105
	C453.723,111,442.461,99.738,428.617,99.738z M428.617,129.949c-2.816,0-5.105-2.289-5.105-5.105c0-2.813,2.289-5.105,5.105-5.105
	c2.813,0,5.105,2.293,5.105,5.105C433.723,127.66,431.43,129.949,428.617,129.949z"/>
<path d="M373.086,77.477c13.844,0,25.105-11.262,25.105-25.105s-11.262-25.105-25.105-25.105s-25.105,11.262-25.105,25.105
	S359.242,77.477,373.086,77.477z M373.086,47.262c2.816,0,5.105,2.293,5.105,5.109c0,2.813-2.289,5.105-5.105,5.105
	s-5.105-2.293-5.105-5.105C367.981,49.555,370.27,47.262,373.086,47.262z"/>
<path d="M92.328,94.625c1.602,3.844,5.543,6.383,9.719,6.164c4.129-0.215,7.746-3.008,9.023-6.93
	c1.289-3.957-0.117-8.465-3.426-10.992c-3.371-2.57-8.105-2.73-11.637-0.383C92.09,85.09,90.52,90.285,92.328,94.625z"/>
<polygon fill="#40A3FF" points="227.094,111.355 296.199,111.586 296.199,308.68 257.578,292.695 227.094,280.074 "/>
<path fill="#40A3FF" d="M385.305,228.41v156.273l-26.734,6.121c-2.875,0.656-5.781,1.176-8.703,1.582
	c-11.141,1.535-22.508,1.211-33.531-0.973c-0.047-0.012-0.094-0.02-0.141-0.031v-15.164c7.625-11.375,10.152-25.797,6.156-38.961
	c-1.113-3.672-2.695-7.215-4.707-10.484c-0.457-0.742-0.934-1.469-1.43-2.18c-0.004-0.012-0.012-0.02-0.02-0.031v-96.156h69.109
	V228.41z"/>
<path fill="#40A3FF" d="M137.977,176.871h69.105v94.918l-12.402-5.133c-1.215-0.504-2.516-0.762-3.824-0.762h-52.879V176.871z"/>
</svg>
