<svg xmlns="http://www.w3.org/2000/svg" xmlns:xlink="http://www.w3.org/1999/xlink" width="993" height="553.377" viewBox="0 0 993 553.377">
  <defs>
    <linearGradient id="linear-gradient" x1="0.5" x2="0.5" y2="1" gradientUnits="objectBoundingBox">
      <stop offset="0" stop-color="#2855d1"/>
      <stop offset="1" stop-color="#142b69"/>
    </linearGradient>
    <linearGradient id="linear-gradient-2" x1="0.5" x2="0.5" y2="1" gradientUnits="objectBoundingBox">
      <stop offset="0" stop-color="#5f86f2"/>
      <stop offset="1" stop-color="#304379"/>
    </linearGradient>
    <linearGradient id="linear-gradient-3" x1="0.5" x2="0.5" y2="1" gradientUnits="objectBoundingBox">
      <stop offset="0" stop-color="#688beb"/>
      <stop offset="1" stop-color="#344676"/>
    </linearGradient>
    <linearGradient id="linear-gradient-4" x1="0.5" x2="0.5" y2="1" gradientUnits="objectBoundingBox">
      <stop offset="0" stop-color="#93a7de"/>
      <stop offset="1" stop-color="#4a546f"/>
    </linearGradient>
  </defs>
  <g id="images" transform="translate(-8728 -7293)">
    <g id="OBJECTS" transform="translate(8728 7293)">
      <path id="Path_3818" data-name="Path 3818" d="M83.107,186.122,46.651,122.979,83.107,59.834h72.91l36.458,63.145-36.458,63.143Z" transform="translate(32.788 42.054)" fill="#eaeaea"/>
      <path id="Path_3819" data-name="Path 3819" d="M533.963,178.112l-36.456-63.145,36.456-63.143h72.91l36.46,63.143-36.46,63.145Z" transform="translate(349.667 36.424)" fill="#eaeaea"/>
      <path id="Path_3820" data-name="Path 3820" d="M553.476,206.376l-21-36.379,21-36.379h42.005l21,36.379-21,36.379Z" transform="translate(374.243 93.911)" fill="#eaeaea"/>
      <path id="Path_3821" data-name="Path 3821" d="M98.139,355l-21-36.379,21-36.378h42.006l21,36.378-21,36.379Z" transform="translate(54.214 198.373)" fill="#eaeaea"/>
      <path id="Path_3822" data-name="Path 3822" d="M64.165,364.9,0,253.758,64.165,142.621H192.492l64.17,111.137L192.492,364.9Z" transform="translate(0 100.24)" fill="url(#linear-gradient)"/>
      <g id="Group_2566" data-name="Group 2566" transform="translate(64.236 367.185)">
        <g id="Group_2565" data-name="Group 2565">
          <g id="Group_2564" data-name="Group 2564">
            <path id="Path_3823" data-name="Path 3823" d="M50.925,228.59a4.192,4.192,0,0,1-1.82-1.381A3.768,3.768,0,0,1,48.386,225h3.4a1.64,1.64,0,0,0,.5,1.11,1.621,1.621,0,0,0,1.12.383,1.751,1.751,0,0,0,1.12-.325,1.088,1.088,0,0,0,.41-.9,1.069,1.069,0,0,0-.327-.8,2.677,2.677,0,0,0-.8-.526,12.784,12.784,0,0,0-1.354-.465,14.624,14.624,0,0,1-2.072-.785A3.8,3.8,0,0,1,49,221.531a3.221,3.221,0,0,1-.579-2,3.433,3.433,0,0,1,1.325-2.864,5.445,5.445,0,0,1,3.455-1.037,5.505,5.505,0,0,1,3.491,1.037,3.7,3.7,0,0,1,1.418,2.883H54.659a1.354,1.354,0,0,0-.467-1,1.642,1.642,0,0,0-1.1-.366,1.366,1.366,0,0,0-.933.31,1.119,1.119,0,0,0-.354.887,1.1,1.1,0,0,0,.6.988,9.721,9.721,0,0,0,1.868.765,17.592,17.592,0,0,1,2.062.821A3.933,3.933,0,0,1,57.7,223.1a3.037,3.037,0,0,1,.579,1.923,3.784,3.784,0,0,1-.569,2.035,4,4,0,0,1-1.652,1.456,5.68,5.68,0,0,1-2.558.542A6.587,6.587,0,0,1,50.925,228.59Z" transform="translate(-30.229 -215.631)" fill="#fff"/>
            <path id="Path_3824" data-name="Path 3824" d="M55.871,218.876a6,6,0,0,1,2.343-2.372,6.775,6.775,0,0,1,3.407-.851,6.519,6.519,0,0,1,4,1.235,5.931,5.931,0,0,1,2.222,3.36H64.329a2.844,2.844,0,0,0-1.11-1.25,3.13,3.13,0,0,0-1.633-.429A3.042,3.042,0,0,0,59.2,219.6a4.565,4.565,0,0,0,0,5.487,3.05,3.05,0,0,0,2.389,1.029,3.122,3.122,0,0,0,1.633-.429,2.825,2.825,0,0,0,1.11-1.25H67.84a5.87,5.87,0,0,1-2.222,3.353,6.554,6.554,0,0,1-4,1.221,6.809,6.809,0,0,1-3.407-.848,6.021,6.021,0,0,1-2.343-2.362,7.537,7.537,0,0,1,0-6.92Z" transform="translate(-25.559 -215.616)" fill="#fff"/>
            <path id="Path_3825" data-name="Path 3825" d="M72.218,226.534H67.326l-.783,2.314H63.2l4.742-13.107h3.7l4.742,13.107H73ZM71.4,224.07l-1.625-4.8-1.606,4.8Z" transform="translate(-19.817 -215.554)" fill="#fff"/>
            <path id="Path_3826" data-name="Path 3826" d="M74.978,226.384H79.16v2.464H71.785V215.741h3.193Z" transform="translate(-13.783 -215.554)" fill="#fff"/>
            <path id="Path_3827" data-name="Path 3827" d="M85.529,226.534H80.637l-.783,2.314H76.511l4.742-13.107h3.7l4.742,13.107H86.314Zm-.822-2.464-1.625-4.8-1.606,4.8Z" transform="translate(-10.461 -215.554)" fill="#fff"/>
            <path id="Path_3828" data-name="Path 3828" d="M94.861,223.258a3.433,3.433,0,0,1-.456,4.628,4.843,4.843,0,0,1-3.2.96H85.1V215.74H91a4.851,4.851,0,0,1,3.128.914,3.033,3.033,0,0,1,1.129,2.484,3,3,0,0,1-.606,1.922,3.124,3.124,0,0,1-1.614,1.064A3.071,3.071,0,0,1,94.861,223.258Zm-6.573-2.212h2.091a1.859,1.859,0,0,0,1.206-.346,1.238,1.238,0,0,0,.421-1.018,1.268,1.268,0,0,0-.421-1.029,1.819,1.819,0,0,0-1.206-.356H88.288Zm3.595,4.863a1.3,1.3,0,0,0,.439-1.054,1.357,1.357,0,0,0-.458-1.085,1.888,1.888,0,0,0-1.26-.392H88.288v2.9h2.353A1.9,1.9,0,0,0,91.883,225.909Z" transform="translate(-4.427 -215.554)" fill="#fff"/>
            <path id="Path_3829" data-name="Path 3829" d="M95.515,226.384H99.7v2.464H92.322V215.741h3.193Z" transform="translate(0.651 -215.554)" fill="#fff"/>
            <path id="Path_3830" data-name="Path 3830" d="M100.745,218.3v2.655h4.276v2.464h-4.276v2.874h4.836v2.558H97.552V215.742h8.029V218.3h-4.836Z" transform="translate(4.327 -215.553)" fill="#fff"/>
            <path id="Path_3831" data-name="Path 3831" d="M46.741,241.425H41.849l-.783,2.314H37.723l4.742-13.107h3.7L50.9,243.739H47.526Zm-.822-2.466-1.625-4.8-1.606,4.8Z" transform="translate(-37.723 -205.088)" fill="#fff"/>
            <path id="Path_3832" data-name="Path 3832" d="M49.467,230.632v7.842a2.6,2.6,0,0,0,.579,1.812,2.188,2.188,0,0,0,1.7.635,2.249,2.249,0,0,0,1.718-.635,2.55,2.55,0,0,0,.6-1.812v-7.842h3.193v7.823a5.563,5.563,0,0,1-.746,2.97,4.77,4.77,0,0,1-2.008,1.829,6.3,6.3,0,0,1-2.81.618,6.143,6.143,0,0,1-2.772-.608,4.515,4.515,0,0,1-1.933-1.829,5.844,5.844,0,0,1-.71-2.98v-7.823h3.191Z" transform="translate(-31.712 -205.088)" fill="#fff"/>
            <path id="Path_3833" data-name="Path 3833" d="M63.761,230.632v2.558H60.288v10.549H57.095V233.19H53.621v-2.558Z" transform="translate(-26.549 -205.088)" fill="#fff"/>
            <path id="Path_3834" data-name="Path 3834" d="M63.552,243.087a6.423,6.423,0,0,1-2.447-2.4,7.055,7.055,0,0,1,0-6.917,6.467,6.467,0,0,1,2.447-2.391,7.119,7.119,0,0,1,6.777,0,6.346,6.346,0,0,1,2.428,2.391,7.155,7.155,0,0,1-.009,6.917,6.358,6.358,0,0,1-2.427,2.4,6.793,6.793,0,0,1-3.378.862A6.863,6.863,0,0,1,63.552,243.087Zm5.9-3.1a4.53,4.53,0,0,0,0-5.534,3.593,3.593,0,0,0-5.042-.009,4.56,4.56,0,0,0,0,5.555,3.568,3.568,0,0,0,5.042-.012Z" transform="translate(-21.926 -205.164)" fill="#fff"/>
            <path id="Path_3835" data-name="Path 3835" d="M83.981,230.632v13.107H80.788V235.88l-2.932,7.859H75.279L72.33,235.86v7.879H69.137V230.632h3.772l3.678,9.076,3.641-9.076Z" transform="translate(-15.644 -205.088)" fill="#fff"/>
            <path id="Path_3836" data-name="Path 3836" d="M87.716,241.425H82.824l-.783,2.314H78.7l4.742-13.107h3.7l4.742,13.107H88.5Zm-.822-2.466-1.625-4.8-1.606,4.8Z" transform="translate(-8.924 -205.088)" fill="#fff"/>
            <path id="Path_3837" data-name="Path 3837" d="M97.006,230.632v2.558H93.533v10.549H90.34V233.19H86.866v-2.558Z" transform="translate(-3.183 -205.088)" fill="#fff"/>
            <path id="Path_3838" data-name="Path 3838" d="M96.956,230.632v13.107H93.763V230.632Z" transform="translate(1.664 -205.088)" fill="#fff"/>
            <path id="Path_3839" data-name="Path 3839" d="M100.032,243.087a6.422,6.422,0,0,1-2.447-2.4,7.055,7.055,0,0,1,0-6.917,6.467,6.467,0,0,1,2.447-2.391,7.119,7.119,0,0,1,6.777,0,6.346,6.346,0,0,1,2.428,2.391,7.154,7.154,0,0,1-.009,6.917,6.358,6.358,0,0,1-2.427,2.4,6.793,6.793,0,0,1-3.378.862A6.863,6.863,0,0,1,100.032,243.087Zm5.9-3.1a4.53,4.53,0,0,0,0-5.534,3.593,3.593,0,0,0-5.042-.009,4.56,4.56,0,0,0,0,5.555,3.568,3.568,0,0,0,5.042-.012Z" transform="translate(3.714 -205.164)" fill="#fff"/>
            <path id="Path_3840" data-name="Path 3840" d="M117.342,243.739h-3.193l-5.34-8.085v8.085h-3.193V230.632h3.193l5.34,8.123v-8.123h3.193Z" transform="translate(9.995 -205.088)" fill="#fff"/>
          </g>
        </g>
      </g>
      <path id="Path_3841" data-name="Path 3841" d="M183.96,293.134,119.795,181.994,183.96,70.857H312.289l64.168,111.137L312.289,293.134Z" transform="translate(84.197 49.801)" fill="url(#linear-gradient-2)"/>
      <g id="Group_2569" data-name="Group 2569" transform="translate(243.281 248.546)">
        <g id="Group_2568" data-name="Group 2568">
          <g id="Group_2567" data-name="Group 2567">
            <path id="Path_3842" data-name="Path 3842" d="M151.127,148.292l-4.293,10.294h-2.992l4.344-9.968h-5.318v-2.5h8.259Z" transform="translate(-142.868 -145.847)" fill="#fff"/>
            <path id="Path_3843" data-name="Path 3843" d="M149.548,147.653a4.821,4.821,0,0,1,7.336,0,10.092,10.092,0,0,1,0,9.3,4.821,4.821,0,0,1-7.336,0,10.078,10.078,0,0,1,0-9.3Zm5.223,1.975a1.766,1.766,0,0,0-3.113,0,7.393,7.393,0,0,0-.376,2.66,11.1,11.1,0,0,0,.138,1.924,2.467,2.467,0,0,0,.555,1.231,1.87,1.87,0,0,0,2.479,0,2.468,2.468,0,0,0,.557-1.231,11.3,11.3,0,0,0,.136-1.924A7.392,7.392,0,0,0,154.771,149.628Z" transform="translate(-138.972 -145.96)" fill="#fff"/>
            <path id="Path_3844" data-name="Path 3844" d="M155.613,147.013a3.191,3.191,0,0,1,4.112,0,2.891,2.891,0,0,1-2.052,5.027,2.869,2.869,0,0,1-2.06-.751,3.272,3.272,0,0,1,0-4.276Zm1.221,2.139q0,1.162.821,1.163a.735.735,0,0,0,.616-.291,1.42,1.42,0,0,0,.221-.872q0-1.18-.838-1.18Q156.835,147.972,156.834,149.152Zm9.594-2.7-6.583,12.037h-2.822l6.583-12.037Zm-2.684,7.2a3.3,3.3,0,1,1-.787,2.137A2.84,2.84,0,0,1,163.744,153.649Zm1.427,1.248a1.491,1.491,0,0,0-.213.887q0,1.165.821,1.165a.734.734,0,0,0,.615-.291,1.429,1.429,0,0,0,.223-.874,1.466,1.466,0,0,0-.223-.88.721.721,0,0,0-.615-.3A.712.712,0,0,0,165.171,154.9Z" transform="translate(-134.469 -145.748)" fill="#fff"/>
            <path id="Path_3845" data-name="Path 3845" d="M179.588,146.393v12h-2.924v-7.2l-2.685,7.2h-2.36l-2.7-7.215V158.4h-2.924v-12h3.453l3.37,8.31,3.334-8.31Z" transform="translate(-126.614 -145.656)" fill="#fff"/>
            <path id="Path_3846" data-name="Path 3846" d="M183.009,156.275h-4.48l-.719,2.12h-3.06l4.344-12h3.385l4.342,12h-3.094Zm-.753-2.256-1.488-4.4-1.471,4.4Z" transform="translate(-120.46 -145.656)" fill="#fff"/>
            <path id="Path_3847" data-name="Path 3847" d="M193.351,158.4h-2.924l-4.891-7.4v7.4h-2.924v-12h2.924l4.891,7.438v-7.438h2.924Z" transform="translate(-114.934 -145.656)" fill="#fff"/>
            <path id="Path_3848" data-name="Path 3848" d="M193.058,146.393v7.181a2.378,2.378,0,0,0,.531,1.66,2,2,0,0,0,1.556.581,2.055,2.055,0,0,0,1.573-.581,2.327,2.327,0,0,0,.547-1.66v-7.181h2.924v7.164a5.1,5.1,0,0,1-.685,2.719,4.364,4.364,0,0,1-1.839,1.676,5.781,5.781,0,0,1-2.573.564,5.626,5.626,0,0,1-2.539-.555,4.152,4.152,0,0,1-1.769-1.676,5.36,5.36,0,0,1-.65-2.728v-7.164h2.924Z" transform="translate(-109.648 -145.656)" fill="#fff"/>
            <path id="Path_3849" data-name="Path 3849" d="M205.04,156.275h-4.48l-.719,2.12h-3.06l4.344-12h3.385l4.342,12h-3.094Zm-.753-2.256-1.488-4.4-1.471,4.4Z" transform="translate(-104.976 -145.656)" fill="#fff"/>
            <path id="Path_3850" data-name="Path 3850" d="M207.568,156.139h3.83V158.4h-6.753v-12h2.924Z" transform="translate(-99.449 -145.656)" fill="#fff"/>
            <path id="Path_3851" data-name="Path 3851" d="M214.487,148.734v2.428H218.4v2.258h-3.915v2.633h4.429V158.4h-7.353v-12h7.353v2.341h-4.429Z" transform="translate(-94.586 -145.656)" fill="#fff"/>
            <path id="Path_3852" data-name="Path 3852" d="M224.808,146.393v2.341h-4.891v2.53h3.659v2.275h-3.659V158.4h-2.924v-12Z" transform="translate(-90.769 -145.656)" fill="#fff"/>
            <path id="Path_3853" data-name="Path 3853" d="M230.3,146.393v2.341h-4.891v2.53h3.659v2.275h-3.659V158.4h-2.924v-12Z" transform="translate(-86.909 -145.656)" fill="#fff"/>
            <path id="Path_3854" data-name="Path 3854" d="M230.758,157.8a5.876,5.876,0,0,1-2.239-2.2,6.463,6.463,0,0,1,0-6.335,5.9,5.9,0,0,1,2.239-2.188,6.515,6.515,0,0,1,6.207,0,5.78,5.78,0,0,1,2.224,2.188,6.551,6.551,0,0,1-.009,6.335,5.848,5.848,0,0,1-2.224,2.2,6.217,6.217,0,0,1-3.094.787A6.283,6.283,0,0,1,230.758,157.8Zm5.4-2.839a4.152,4.152,0,0,0,0-5.069,2.963,2.963,0,0,0-2.3-.948,2.994,2.994,0,0,0-2.318.94,4.177,4.177,0,0,0,0,5.086,3.27,3.27,0,0,0,4.618-.009Z" transform="translate(-83.253 -145.726)" fill="#fff"/>
            <path id="Path_3855" data-name="Path 3855" d="M241.995,158.4l-2.5-4.531h-.7V158.4h-2.924v-12h4.908a5.407,5.407,0,0,1,2.42.5,3.411,3.411,0,0,1,1.5,1.359,3.8,3.8,0,0,1,.5,1.924,3.574,3.574,0,0,1-.674,2.137,3.629,3.629,0,0,1-1.992,1.333L245.3,158.4h-3.3Zm-3.2-6.6h1.812a1.663,1.663,0,0,0,1.206-.393,1.482,1.482,0,0,0,.4-1.11,1.441,1.441,0,0,0-.4-1.078,1.67,1.67,0,0,0-1.206-.392H238.8Z" transform="translate(-77.5 -145.656)" fill="#fff"/>
            <path id="Path_3856" data-name="Path 3856" d="M251.324,146.393v2.341h-3.181V158.4h-2.924v-9.662h-3.181v-2.341Z" transform="translate(-73.167 -145.656)" fill="#fff"/>
            <path id="Path_3857" data-name="Path 3857" d="M150.993,172.032l-2.5-4.531h-.7v4.531h-2.924v-12h4.908a5.407,5.407,0,0,1,2.42.5,3.411,3.411,0,0,1,1.5,1.359,3.8,3.8,0,0,1,.5,1.924,3.574,3.574,0,0,1-.674,2.137,3.629,3.629,0,0,1-1.992,1.333l2.771,4.754h-3.3Zm-3.2-6.6h1.812a1.663,1.663,0,0,0,1.206-.393,1.482,1.482,0,0,0,.4-1.11,1.441,1.441,0,0,0-.4-1.078,1.67,1.67,0,0,0-1.206-.392H147.8Z" transform="translate(-141.46 -136.072)" fill="#fff"/>
            <path id="Path_3858" data-name="Path 3858" d="M154.343,162.37V164.8h3.915v2.258h-3.915v2.633h4.429v2.343h-7.353v-12h7.353v2.341h-4.429Z" transform="translate(-136.858 -136.072)" fill="#fff"/>
            <path id="Path_3859" data-name="Path 3859" d="M164.665,160.782a5.385,5.385,0,0,1,2.2,2.112,6.7,6.7,0,0,1,0,6.268,5.359,5.359,0,0,1-2.205,2.12,7.007,7.007,0,0,1-3.309.751h-4.5v-12h4.5A6.973,6.973,0,0,1,164.665,160.782Zm-.923,7.814a3.43,3.43,0,0,0,.923-2.564,3.2,3.2,0,0,0-3.5-3.506h-1.384V169.5h1.384A3.526,3.526,0,0,0,163.742,168.6Z" transform="translate(-133.039 -136.072)" fill="#fff"/>
            <path id="Path_3860" data-name="Path 3860" d="M167.045,160.029v7.181a2.378,2.378,0,0,0,.531,1.66,2,2,0,0,0,1.556.581,2.055,2.055,0,0,0,1.573-.581,2.327,2.327,0,0,0,.547-1.66v-7.181h2.924v7.164a5.1,5.1,0,0,1-.685,2.719,4.364,4.364,0,0,1-1.839,1.676,5.781,5.781,0,0,1-2.573.564,5.626,5.626,0,0,1-2.539-.555,4.152,4.152,0,0,1-1.769-1.676,5.36,5.36,0,0,1-.65-2.728v-7.164h2.924Z" transform="translate(-127.931 -136.072)" fill="#fff"/>
            <path id="Path_3861" data-name="Path 3861" d="M171.709,162.9a5.482,5.482,0,0,1,2.146-2.171,6.243,6.243,0,0,1,3.121-.778,5.981,5.981,0,0,1,3.659,1.129,5.412,5.412,0,0,1,2.035,3.079h-3.215a2.6,2.6,0,0,0-1.017-1.146,2.864,2.864,0,0,0-1.5-.393,2.791,2.791,0,0,0-2.188.942,4.192,4.192,0,0,0,0,5.028,2.793,2.793,0,0,0,2.188.942,2.864,2.864,0,0,0,1.5-.393,2.593,2.593,0,0,0,1.017-1.146h3.215a5.38,5.38,0,0,1-2.035,3.07,6,6,0,0,1-3.659,1.119,6.229,6.229,0,0,1-3.121-.776,5.509,5.509,0,0,1-2.146-2.164,6.912,6.912,0,0,1,0-6.34Z" transform="translate(-123.139 -136.128)" fill="#fff"/>
            <path id="Path_3862" data-name="Path 3862" d="M181.807,162.37V164.8h3.915v2.258h-3.915v2.633h4.429v2.343h-7.353v-12h7.353v2.341h-4.429Z" transform="translate(-117.555 -136.072)" fill="#fff"/>
            <path id="Path_3863" data-name="Path 3863" d="M192.128,160.782a5.385,5.385,0,0,1,2.2,2.112,6.7,6.7,0,0,1,0,6.268,5.359,5.359,0,0,1-2.205,2.12,7.007,7.007,0,0,1-3.309.751h-4.5v-12h4.5A6.964,6.964,0,0,1,192.128,160.782ZM191.2,168.6a3.43,3.43,0,0,0,.923-2.564,3.2,3.2,0,0,0-3.5-3.506h-1.384V169.5h1.384A3.526,3.526,0,0,0,191.2,168.6Z" transform="translate(-113.737 -136.072)" fill="#fff"/>
            <path id="Path_3864" data-name="Path 3864" d="M196.668,160.029v12h-2.924v-12Z" transform="translate(-107.11 -136.072)" fill="#fff"/>
            <path id="Path_3865" data-name="Path 3865" d="M210.3,160.029v12h-2.924v-7.2l-2.685,7.2h-2.36l-2.7-7.215v7.215h-2.924v-12h3.453l3.37,8.31,3.334-8.31Z" transform="translate(-105.029 -136.072)" fill="#fff"/>
            <path id="Path_3866" data-name="Path 3866" d="M214.593,165.8a3.524,3.524,0,0,1-1.471,1.393,5.165,5.165,0,0,1-2.462.531h-1.812v4.308h-2.924v-12h4.737a5.394,5.394,0,0,1,2.428.5,3.422,3.422,0,0,1,1.488,1.367,3.982,3.982,0,0,1,.5,2A3.912,3.912,0,0,1,214.593,165.8Zm-2.907-.8a1.709,1.709,0,0,0,0-2.222,1.745,1.745,0,0,0-1.248-.392h-1.59V165.4h1.59A1.753,1.753,0,0,0,211.686,165Z" transform="translate(-98.55 -136.072)" fill="#fff"/>
            <path id="Path_3867" data-name="Path 3867" d="M218.312,172.032l-2.5-4.531h-.7v4.531H212.19v-12H217.1a5.407,5.407,0,0,1,2.42.5,3.411,3.411,0,0,1,1.5,1.359,3.8,3.8,0,0,1,.5,1.924,3.574,3.574,0,0,1-.674,2.137,3.629,3.629,0,0,1-1.992,1.333l2.771,4.754h-3.3Zm-3.2-6.6h1.812a1.663,1.663,0,0,0,1.206-.393,1.482,1.482,0,0,0,.4-1.11,1.441,1.441,0,0,0-.4-1.078,1.67,1.67,0,0,0-1.206-.392h-1.812Z" transform="translate(-94.146 -136.072)" fill="#fff"/>
            <path id="Path_3868" data-name="Path 3868" d="M221.514,171.436a5.876,5.876,0,0,1-2.239-2.2,6.463,6.463,0,0,1,0-6.335,5.9,5.9,0,0,1,2.239-2.188,6.515,6.515,0,0,1,6.207,0,5.779,5.779,0,0,1,2.224,2.188,6.551,6.551,0,0,1-.008,6.335,5.848,5.848,0,0,1-2.224,2.2,6.217,6.217,0,0,1-3.094.787A6.3,6.3,0,0,1,221.514,171.436Zm5.4-2.839a4.152,4.152,0,0,0,0-5.069,2.963,2.963,0,0,0-2.3-.948,2.994,2.994,0,0,0-2.318.94,4.177,4.177,0,0,0,0,5.086,3.27,3.27,0,0,0,4.618-.009Z" transform="translate(-89.749 -136.141)" fill="#fff"/>
            <path id="Path_3869" data-name="Path 3869" d="M238.273,160.029l-4.257,12h-3.659l-4.257-12h3.113l2.975,9.061,2.992-9.061Z" transform="translate(-84.37 -136.072)" fill="#fff"/>
            <path id="Path_3870" data-name="Path 3870" d="M236.884,162.37V164.8H240.8v2.258h-3.915v2.633h4.429v2.343H233.96v-12h7.353v2.341h-4.429Z" transform="translate(-78.845 -136.072)" fill="#fff"/>
            <path id="Path_3871" data-name="Path 3871" d="M247.206,160.782a5.385,5.385,0,0,1,2.2,2.112,6.7,6.7,0,0,1,0,6.268,5.359,5.359,0,0,1-2.205,2.12,7.007,7.007,0,0,1-3.309.751h-4.5v-12h4.5A6.964,6.964,0,0,1,247.206,160.782Zm-.923,7.814a3.43,3.43,0,0,0,.923-2.564,3.2,3.2,0,0,0-3.5-3.506h-1.384V169.5H243.7A3.526,3.526,0,0,0,246.283,168.6Z" transform="translate(-75.027 -136.072)" fill="#fff"/>
            <path id="Path_3872" data-name="Path 3872" d="M167.152,179.438a3.524,3.524,0,0,1-1.471,1.393,5.165,5.165,0,0,1-2.462.531h-1.812v4.308h-2.924v-12h4.737a5.394,5.394,0,0,1,2.428.5,3.422,3.422,0,0,1,1.488,1.367,3.982,3.982,0,0,1,.5,2A3.912,3.912,0,0,1,167.152,179.438Zm-2.907-.8a1.709,1.709,0,0,0,0-2.222,1.745,1.745,0,0,0-1.248-.392h-1.59v3.009H163A1.758,1.758,0,0,0,164.245,178.643Z" transform="translate(-131.893 -126.486)" fill="#fff"/>
            <path id="Path_3873" data-name="Path 3873" d="M170.871,185.67l-2.5-4.531h-.7v4.531h-2.924v-12h4.908a5.407,5.407,0,0,1,2.42.5,3.411,3.411,0,0,1,1.5,1.359,3.8,3.8,0,0,1,.5,1.924,3.574,3.574,0,0,1-.674,2.137,3.629,3.629,0,0,1-1.992,1.333l2.771,4.754h-3.3Zm-3.2-6.6h1.812a1.663,1.663,0,0,0,1.206-.393,1.482,1.482,0,0,0,.4-1.11,1.441,1.441,0,0,0-.4-1.078,1.67,1.67,0,0,0-1.206-.392h-1.812Z" transform="translate(-127.489 -126.486)" fill="#fff"/>
            <path id="Path_3874" data-name="Path 3874" d="M174.074,185.073a5.876,5.876,0,0,1-2.239-2.2,6.463,6.463,0,0,1,0-6.335,5.9,5.9,0,0,1,2.239-2.188,6.514,6.514,0,0,1,6.207,0,5.779,5.779,0,0,1,2.224,2.188,6.551,6.551,0,0,1-.009,6.335,5.848,5.848,0,0,1-2.224,2.2,6.5,6.5,0,0,1-6.2,0Zm5.4-2.839a4.152,4.152,0,0,0,0-5.069,2.963,2.963,0,0,0-2.3-.948,2.994,2.994,0,0,0-2.318.94,4.177,4.177,0,0,0,0,5.086,2.978,2.978,0,0,0,2.318.95A2.946,2.946,0,0,0,179.477,182.234Z" transform="translate(-123.092 -126.557)" fill="#fff"/>
            <path id="Path_3875" data-name="Path 3875" d="M187,174.419a5.385,5.385,0,0,1,2.2,2.112,6.7,6.7,0,0,1,0,6.268,5.359,5.359,0,0,1-2.205,2.12,7.007,7.007,0,0,1-3.309.751h-4.5v-12h4.5A6.984,6.984,0,0,1,187,174.419Zm-.923,7.814a3.43,3.43,0,0,0,.923-2.564,3.2,3.2,0,0,0-3.5-3.506h-1.384v6.977H183.5A3.519,3.519,0,0,0,186.079,182.233Z" transform="translate(-117.34 -126.487)" fill="#fff"/>
            <path id="Path_3876" data-name="Path 3876" d="M189.383,173.667v7.181a2.378,2.378,0,0,0,.531,1.66,2,2,0,0,0,1.556.581,2.055,2.055,0,0,0,1.573-.581,2.327,2.327,0,0,0,.547-1.66v-7.181h2.924v7.164a5.1,5.1,0,0,1-.685,2.719,4.364,4.364,0,0,1-1.839,1.676,5.781,5.781,0,0,1-2.573.564,5.626,5.626,0,0,1-2.539-.555,4.152,4.152,0,0,1-1.769-1.676,5.36,5.36,0,0,1-.65-2.728v-7.164h2.924Z" transform="translate(-112.231 -126.486)" fill="#fff"/>
            <path id="Path_3877" data-name="Path 3877" d="M194.047,176.535a5.482,5.482,0,0,1,2.146-2.171,6.243,6.243,0,0,1,3.121-.778,5.981,5.981,0,0,1,3.659,1.129,5.412,5.412,0,0,1,2.035,3.079h-3.215a2.6,2.6,0,0,0-1.017-1.146,2.863,2.863,0,0,0-1.5-.393,2.791,2.791,0,0,0-2.188.942,4.191,4.191,0,0,0,0,5.029,2.793,2.793,0,0,0,2.188.942,2.863,2.863,0,0,0,1.5-.393,2.593,2.593,0,0,0,1.017-1.146h3.215a5.38,5.38,0,0,1-2.035,3.07,6,6,0,0,1-3.659,1.119,6.229,6.229,0,0,1-3.121-.776,5.509,5.509,0,0,1-2.146-2.164,6.912,6.912,0,0,1,0-6.34Z" transform="translate(-107.439 -126.543)" fill="#fff"/>
            <path id="Path_3878" data-name="Path 3878" d="M210.124,173.667v2.341h-3.181v9.662h-2.924v-9.662h-3.181v-2.341Z" transform="translate(-102.124 -126.486)" fill="#fff"/>
            <path id="Path_3879" data-name="Path 3879" d="M210.079,173.667v12h-2.924v-12Z" transform="translate(-97.685 -126.486)" fill="#fff"/>
            <path id="Path_3880" data-name="Path 3880" d="M221.759,173.667l-4.257,12h-3.659l-4.257-12H212.7l2.975,9.061,2.992-9.061Z" transform="translate(-95.977 -126.486)" fill="#fff"/>
            <path id="Path_3881" data-name="Path 3881" d="M220.371,173.667v12h-2.924v-12Z" transform="translate(-90.451 -126.486)" fill="#fff"/>
            <path id="Path_3882" data-name="Path 3882" d="M229.313,173.667v2.341h-3.181v9.662h-2.924v-9.662h-3.181v-2.341Z" transform="translate(-88.638 -126.486)" fill="#fff"/>
            <path id="Path_3883" data-name="Path 3883" d="M237.026,173.667l-4.155,8.036v3.968h-2.924V181.7l-4.155-8.036h3.317l2.326,5.027,2.307-5.027Z" transform="translate(-84.586 -126.486)" fill="#fff"/>
          </g>
        </g>
      </g>
      <path id="Path_3884" data-name="Path 3884" d="M305.833,362.1,241.667,250.961l64.166-111.139H434.161l64.17,111.139L434.161,362.1Z" transform="translate(169.853 98.272)" fill="url(#linear-gradient-3)"/>
      <g id="Group_2572" data-name="Group 2572" transform="translate(450.998 362.425)">
        <g id="Group_2571" data-name="Group 2571">
          <g id="Group_2570" data-name="Group 2570">
            <path id="Path_3885" data-name="Path 3885" d="M274.991,212.944V215.5h-3.474v10.549h-3.193V215.5h-3.474v-2.558Z" transform="translate(-264.851 -212.76)" fill="#fff"/>
            <path id="Path_3886" data-name="Path 3886" d="M280.262,223.737H275.37l-.783,2.314h-3.343l4.742-13.107h3.7l4.742,13.107h-3.38Zm-.822-2.464-1.625-4.8-1.606,4.8Z" transform="translate(-260.358 -212.76)" fill="#fff"/>
            <path id="Path_3887" data-name="Path 3887" d="M289.552,212.944V215.5h-3.474v10.549h-3.193V215.5h-3.474v-2.558Z" transform="translate(-254.617 -212.76)" fill="#fff"/>
            <path id="Path_3888" data-name="Path 3888" d="M295.318,226.052l-2.726-4.948h-.766v4.948h-3.193V212.945h5.359a5.88,5.88,0,0,1,2.643.542,3.723,3.723,0,0,1,1.633,1.483,4.132,4.132,0,0,1,.542,2.1,3.91,3.91,0,0,1-.737,2.335,3.964,3.964,0,0,1-2.175,1.456l3.024,5.192h-3.6Zm-3.491-7.208h1.98a1.815,1.815,0,0,0,1.316-.429,1.627,1.627,0,0,0,.438-1.214,1.574,1.574,0,0,0-.438-1.177,1.815,1.815,0,0,0-1.316-.429h-1.98Z" transform="translate(-248.136 -212.759)" fill="#fff"/>
            <path id="Path_3889" data-name="Path 3889" d="M298.976,215.5v2.651h4.276v2.464h-4.276v2.876h4.836v2.558h-8.029V212.944h8.029V215.5Z" transform="translate(-243.111 -212.76)" fill="#fff"/>
            <path id="Path_3890" data-name="Path 3890" d="M310.249,213.766a5.865,5.865,0,0,1,2.4,2.306,7.319,7.319,0,0,1,0,6.845,5.848,5.848,0,0,1-2.41,2.314,7.667,7.667,0,0,1-3.613.821h-4.911V212.945h4.911A7.581,7.581,0,0,1,310.249,213.766Zm-1.01,8.531a3.745,3.745,0,0,0,1.008-2.8,3.5,3.5,0,0,0-3.828-3.828h-1.512v7.62h1.512A3.847,3.847,0,0,0,309.239,222.3Z" transform="translate(-238.942 -212.759)" fill="#fff"/>
            <path id="Path_3891" data-name="Path 3891" d="M312.845,212.944v7.842a2.6,2.6,0,0,0,.579,1.81,2.182,2.182,0,0,0,1.7.635,2.249,2.249,0,0,0,1.718-.635,2.542,2.542,0,0,0,.6-1.81v-7.842h3.193v7.823a5.572,5.572,0,0,1-.746,2.97,4.792,4.792,0,0,1-2.008,1.829,6.34,6.34,0,0,1-2.81.615,6.187,6.187,0,0,1-2.772-.6,4.522,4.522,0,0,1-1.933-1.832,5.835,5.835,0,0,1-.71-2.977v-7.823Z" transform="translate(-233.362 -212.76)" fill="#fff"/>
            <path id="Path_3892" data-name="Path 3892" d="M317.939,216.076a6.025,6.025,0,0,1,2.343-2.372,6.809,6.809,0,0,1,3.407-.848,6.52,6.52,0,0,1,4,1.231,5.929,5.929,0,0,1,2.222,3.363H326.4a2.825,2.825,0,0,0-1.11-1.25,3.126,3.126,0,0,0-1.633-.429,3.054,3.054,0,0,0-2.391,1.025,4.577,4.577,0,0,0,0,5.49,3.051,3.051,0,0,0,2.391,1.029,3.126,3.126,0,0,0,1.633-.429,2.853,2.853,0,0,0,1.11-1.253h3.511a5.878,5.878,0,0,1-2.222,3.353,6.556,6.556,0,0,1-4,1.224,6.775,6.775,0,0,1-3.407-.851A6.021,6.021,0,0,1,317.939,223a7.537,7.537,0,0,1,0-6.92Z" transform="translate(-228.13 -212.822)" fill="#fff"/>
            <path id="Path_3893" data-name="Path 3893" d="M328.964,215.5v2.651h4.276v2.464h-4.276v2.876H333.8v2.558h-8.029V212.944H333.8V215.5Z" transform="translate(-222.034 -212.76)" fill="#fff"/>
            <path id="Path_3894" data-name="Path 3894" d="M340.236,213.766a5.854,5.854,0,0,1,2.4,2.306,7.318,7.318,0,0,1,0,6.845,5.853,5.853,0,0,1-2.408,2.314,7.672,7.672,0,0,1-3.613.821H331.7V212.945h4.911A7.579,7.579,0,0,1,340.236,213.766Zm-1.008,8.531a3.745,3.745,0,0,0,1.008-2.8,3.5,3.5,0,0,0-3.826-3.828H334.9v7.62h1.514A3.845,3.845,0,0,0,339.228,222.3Z" transform="translate(-217.865 -212.759)" fill="#fff"/>
            <path id="Path_3895" data-name="Path 3895" d="M348.683,226.052l-2.728-4.948h-.765v4.948H342V212.945h5.359a5.878,5.878,0,0,1,2.641.542,3.718,3.718,0,0,1,1.635,1.483,4.131,4.131,0,0,1,.54,2.1,3.91,3.91,0,0,1-.737,2.335,3.964,3.964,0,0,1-2.175,1.456l3.024,5.192h-3.6Zm-3.493-7.208h1.979a1.809,1.809,0,0,0,1.316-.429,1.627,1.627,0,0,0,.439-1.214,1.568,1.568,0,0,0-.439-1.177,1.815,1.815,0,0,0-1.316-.429h-1.979Z" transform="translate(-210.629 -212.759)" fill="#fff"/>
            <path id="Path_3896" data-name="Path 3896" d="M352.181,225.4a6.42,6.42,0,0,1-2.447-2.4,7.066,7.066,0,0,1,0-6.917,6.433,6.433,0,0,1,2.447-2.387,7.119,7.119,0,0,1,6.777,0,6.321,6.321,0,0,1,2.427,2.387,7.155,7.155,0,0,1-.008,6.917,6.371,6.371,0,0,1-2.428,2.4,7.1,7.1,0,0,1-6.767,0Zm5.9-3.1a4.535,4.535,0,0,0,0-5.538,3.6,3.6,0,0,0-5.042-.005,4.56,4.56,0,0,0,0,5.555,3.262,3.262,0,0,0,2.53,1.034A3.219,3.219,0,0,0,358.081,222.3Z" transform="translate(-205.827 -212.836)" fill="#fff"/>
            <path id="Path_3897" data-name="Path 3897" d="M372.609,212.944v13.107h-3.193v-7.862l-2.931,7.862h-2.578l-2.949-7.879v7.879h-3.193V212.944h3.772l3.678,9.073,3.642-9.073Z" transform="translate(-199.547 -212.76)" fill="#fff"/>
            <path id="Path_3898" data-name="Path 3898" d="M282.168,228.656a5.864,5.864,0,0,1,2.4,2.306,7.318,7.318,0,0,1,0,6.845,5.847,5.847,0,0,1-2.41,2.314,7.667,7.667,0,0,1-3.613.821h-4.911V227.835h4.911A7.621,7.621,0,0,1,282.168,228.656Zm-1.008,8.531a3.745,3.745,0,0,0,1.008-2.8,3.5,3.5,0,0,0-3.828-3.828h-1.512v7.62h1.512A3.845,3.845,0,0,0,281.16,237.187Z" transform="translate(-258.679 -202.294)" fill="#fff"/>
            <path id="Path_3899" data-name="Path 3899" d="M290.119,238.628h-4.892l-.783,2.314H281.1l4.742-13.107h3.7l4.742,13.107H290.9Zm-.822-2.464-1.625-4.8-1.606,4.8Z" transform="translate(-253.43 -202.294)" fill="#fff"/>
            <path id="Path_3900" data-name="Path 3900" d="M301.351,227.835l-4.538,8.773v4.334H293.62v-4.334l-4.538-8.773H292.7l2.539,5.488,2.52-5.488Z" transform="translate(-247.821 -202.294)" fill="#fff"/>
            <path id="Path_3901" data-name="Path 3901" d="M299.363,240.684a4.2,4.2,0,0,1-1.82-1.384,3.757,3.757,0,0,1-.719-2.2h3.4a1.647,1.647,0,0,0,.5,1.11,1.621,1.621,0,0,0,1.12.383,1.761,1.761,0,0,0,1.12-.325,1.1,1.1,0,0,0,.41-.908,1.074,1.074,0,0,0-.327-.8,2.606,2.606,0,0,0-.8-.523,13.473,13.473,0,0,0-1.354-.468,14.664,14.664,0,0,1-2.072-.782,3.865,3.865,0,0,1-1.383-1.158,3.228,3.228,0,0,1-.579-2,3.439,3.439,0,0,1,1.325-2.868,5.433,5.433,0,0,1,3.455-1.034,5.5,5.5,0,0,1,3.491,1.034,3.709,3.709,0,0,1,1.419,2.886H303.1a1.356,1.356,0,0,0-.467-1,1.64,1.64,0,0,0-1.1-.363,1.381,1.381,0,0,0-.933.306,1.188,1.188,0,0,0,.243,1.878,9.95,9.95,0,0,0,1.868.765,17.016,17.016,0,0,1,2.062.821,3.922,3.922,0,0,1,1.372,1.138,3.05,3.05,0,0,1,.579,1.922,3.78,3.78,0,0,1-.569,2.035A3.953,3.953,0,0,1,304.5,240.6a5.636,5.636,0,0,1-2.558.542A6.678,6.678,0,0,1,299.363,240.684Z" transform="translate(-242.379 -202.371)" fill="#fff"/>
            <path id="Path_3902" data-name="Path 3902" d="M315.834,227.835v2.558h-3.474v10.549h-3.193V230.393h-3.474v-2.558Z" transform="translate(-236.145 -202.294)" fill="#fff"/>
            <path id="Path_3903" data-name="Path 3903" d="M315.626,240.29a6.432,6.432,0,0,1-2.447-2.4,7.054,7.054,0,0,1,0-6.917,6.433,6.433,0,0,1,2.447-2.387,7.119,7.119,0,0,1,6.777,0,6.325,6.325,0,0,1,2.428,2.387,7.149,7.149,0,0,1-.01,6.917,6.371,6.371,0,0,1-2.428,2.4,7.1,7.1,0,0,1-6.767,0Zm5.9-3.1a4.535,4.535,0,0,0,0-5.538,3.6,3.6,0,0,0-5.042-.005,4.56,4.56,0,0,0,0,5.555,3.26,3.26,0,0,0,2.53,1.034A3.221,3.221,0,0,0,321.526,237.19Z" transform="translate(-231.521 -202.371)" fill="#fff"/>
            <path id="Path_3904" data-name="Path 3904" d="M334.887,227.835v13.107h-3.193v-5.4h-4.967v5.4h-3.193V227.835h3.193v5.136h4.967v-5.136Z" transform="translate(-223.606 -202.294)" fill="#fff"/>
            <path id="Path_3905" data-name="Path 3905" d="M334.582,240.29a6.419,6.419,0,0,1-2.447-2.4,7.066,7.066,0,0,1,0-6.917,6.433,6.433,0,0,1,2.447-2.387,7.119,7.119,0,0,1,6.777,0,6.321,6.321,0,0,1,2.427,2.387,7.154,7.154,0,0,1-.008,6.917,6.371,6.371,0,0,1-2.428,2.4,7.1,7.1,0,0,1-6.767,0Zm5.9-3.1a4.535,4.535,0,0,0,0-5.538,3.6,3.6,0,0,0-5.042-.005,4.56,4.56,0,0,0,0,5.555,3.262,3.262,0,0,0,2.53,1.034A3.217,3.217,0,0,0,340.483,237.19Z" transform="translate(-218.197 -202.371)" fill="#fff"/>
            <path id="Path_3906" data-name="Path 3906" d="M343.326,227.835v7.842a2.6,2.6,0,0,0,.579,1.81,2.184,2.184,0,0,0,1.7.635,2.252,2.252,0,0,0,1.718-.635,2.543,2.543,0,0,0,.6-1.81v-7.842h3.191v7.823a5.571,5.571,0,0,1-.746,2.97,4.782,4.782,0,0,1-2.008,1.829,6.333,6.333,0,0,1-2.808.615,6.2,6.2,0,0,1-2.774-.6,4.523,4.523,0,0,1-1.933-1.832,5.853,5.853,0,0,1-.71-2.977v-7.823Z" transform="translate(-211.938 -202.294)" fill="#fff"/>
            <path id="Path_3907" data-name="Path 3907" d="M354.582,240.942l-2.728-4.948h-.765v4.948H347.9V227.835h5.359a5.878,5.878,0,0,1,2.641.541,3.718,3.718,0,0,1,1.635,1.483,4.131,4.131,0,0,1,.54,2.1,3.91,3.91,0,0,1-.737,2.335,3.964,3.964,0,0,1-2.174,1.456l3.024,5.192h-3.6Zm-3.492-7.206h1.979a1.81,1.81,0,0,0,1.316-.429,1.627,1.627,0,0,0,.439-1.214,1.568,1.568,0,0,0-.439-1.177,1.815,1.815,0,0,0-1.316-.429H351.09Z" transform="translate(-206.483 -202.294)" fill="#fff"/>
            <path id="Path_3908" data-name="Path 3908" d="M357.366,240.684a4.189,4.189,0,0,1-1.82-1.384,3.758,3.758,0,0,1-.719-2.2h3.4a1.647,1.647,0,0,0,.5,1.11,1.621,1.621,0,0,0,1.12.383,1.765,1.765,0,0,0,1.12-.325,1.1,1.1,0,0,0,.41-.908,1.075,1.075,0,0,0-.327-.8,2.6,2.6,0,0,0-.8-.523,13.319,13.319,0,0,0-1.354-.468,14.826,14.826,0,0,1-2.072-.782,3.864,3.864,0,0,1-1.383-1.158,3.228,3.228,0,0,1-.579-2,3.444,3.444,0,0,1,1.325-2.868,5.445,5.445,0,0,1,3.453-1.034,5.509,5.509,0,0,1,3.492,1.034,3.709,3.709,0,0,1,1.418,2.886H361.1a1.35,1.35,0,0,0-.467-1,1.638,1.638,0,0,0-1.1-.363,1.384,1.384,0,0,0-.933.306,1.185,1.185,0,0,0,.243,1.878,9.874,9.874,0,0,0,1.866.765,17.171,17.171,0,0,1,2.064.821,3.922,3.922,0,0,1,1.372,1.138,3.05,3.05,0,0,1,.579,1.922,3.765,3.765,0,0,1-.569,2.035A3.958,3.958,0,0,1,362.5,240.6a5.635,5.635,0,0,1-2.558.542A6.676,6.676,0,0,1,357.366,240.684Z" transform="translate(-201.612 -202.371)" fill="#fff"/>
          </g>
        </g>
      </g>
      <path id="Path_3909" data-name="Path 3909" d="M425.741,289.844,361.576,178.7,425.741,67.567H554.068L618.238,178.7l-64.17,111.139Z" transform="translate(254.13 47.489)" fill="url(#linear-gradient-4)"/>
      <g id="Group_2575" data-name="Group 2575" transform="translate(659.336 238.769)">
        <g id="Group_2574" data-name="Group 2574">
          <g id="Group_2573" data-name="Group 2573">
            <path id="Path_3910" data-name="Path 3910" d="M396.068,143.172h-5.825v2.576a2.735,2.735,0,0,1,1.046-.673,3.964,3.964,0,0,1,1.456-.262,4.021,4.021,0,0,1,2.324.635,3.749,3.749,0,0,1,1.354,1.643,5.518,5.518,0,0,1,.429,2.183,4.784,4.784,0,0,1-1.233,3.465,4.6,4.6,0,0,1-3.472,1.277,6.083,6.083,0,0,1-2.6-.513,3.961,3.961,0,0,1-1.7-1.429,4.158,4.158,0,0,1-.654-2.11h3.118a1.673,1.673,0,0,0,.542.96,1.7,1.7,0,0,0,1.175.383,1.544,1.544,0,0,0,1.308-.559,2.4,2.4,0,0,0,.429-1.493,1.981,1.981,0,0,0-.448-1.4,1.975,1.975,0,0,0-2.353-.179,1.425,1.425,0,0,0-.54.814h-3.082v-8.123h8.719v2.8Z" transform="translate(-387.198 -140.11)" fill="#fff"/>
            <path id="Path_3911" data-name="Path 3911" d="M395.14,142.066a5.267,5.267,0,0,1,8.012,0,11.009,11.009,0,0,1,0,10.157,5.263,5.263,0,0,1-8.012,0,11.009,11.009,0,0,1,0-10.157Zm5.7,2.156a1.926,1.926,0,0,0-3.4,0,8.047,8.047,0,0,0-.41,2.9,12.119,12.119,0,0,0,.148,2.1,2.716,2.716,0,0,0,.606,1.345,2.044,2.044,0,0,0,2.708,0,2.672,2.672,0,0,0,.606-1.345,12.269,12.269,0,0,0,.15-2.1A8.054,8.054,0,0,0,400.845,144.221Z" transform="translate(-382.488 -140.218)" fill="#fff"/>
            <path id="Path_3912" data-name="Path 3912" d="M401.762,141.368a3.479,3.479,0,0,1,4.489,0,3.159,3.159,0,0,1-2.239,5.492,3.137,3.137,0,0,1-2.25-.822,3.572,3.572,0,0,1,0-4.669ZM403.1,143.7q0,1.269.9,1.27a.8.8,0,0,0,.673-.318,1.555,1.555,0,0,0,.244-.952q0-1.287-.914-1.287Q403.1,142.413,403.1,143.7Zm10.476-2.949L406.384,153.9H403.3l7.189-13.144Zm-2.932,7.86a3.467,3.467,0,0,1,4.48,0,3.6,3.6,0,0,1,0,4.667,3.241,3.241,0,0,1-4.48-4.667Zm1.56,1.362a1.634,1.634,0,0,0-.235.971q0,1.272.9,1.27a.8.8,0,0,0,.673-.318,1.546,1.546,0,0,0,.244-.954,1.586,1.586,0,0,0-.244-.96.794.794,0,0,0-.673-.325A.774.774,0,0,0,412.2,149.974Z" transform="translate(-377.572 -139.987)" fill="#fff"/>
            <path id="Path_3913" data-name="Path 3913" d="M413.62,143.823a6,6,0,0,1,2.343-2.372,6.792,6.792,0,0,1,3.407-.85,6.521,6.521,0,0,1,4,1.233,5.93,5.93,0,0,1,2.222,3.361h-3.511a2.835,2.835,0,0,0-1.11-1.25,3.126,3.126,0,0,0-1.633-.429,3.05,3.05,0,0,0-2.391,1.027,4.577,4.577,0,0,0,0,5.49,3.055,3.055,0,0,0,2.391,1.027,3.126,3.126,0,0,0,1.633-.429,2.825,2.825,0,0,0,1.11-1.25h3.511a5.88,5.88,0,0,1-2.222,3.351,6.555,6.555,0,0,1-4,1.223,6.809,6.809,0,0,1-3.407-.848,6.021,6.021,0,0,1-2.343-2.362,7.554,7.554,0,0,1,0-6.922Z" transform="translate(-369.218 -139.949)" fill="#fff"/>
            <path id="Path_3914" data-name="Path 3914" d="M424.487,153.144a6.41,6.41,0,0,1-2.447-2.4,7.066,7.066,0,0,1,0-6.917,6.43,6.43,0,0,1,2.447-2.391,7.119,7.119,0,0,1,6.777,0,6.294,6.294,0,0,1,2.427,2.391,7.154,7.154,0,0,1-.008,6.917,6.362,6.362,0,0,1-2.428,2.4,7.086,7.086,0,0,1-6.767,0Zm5.9-3.1a4.533,4.533,0,0,0,0-5.536,3.232,3.232,0,0,0-2.512-1.035,3.269,3.269,0,0,0-2.53,1.027,4.56,4.56,0,0,0,0,5.555,3.57,3.57,0,0,0,5.042-.01Z" transform="translate(-363.345 -139.964)" fill="#fff"/>
            <path id="Path_3915" data-name="Path 3915" d="M432.392,153.537a4.182,4.182,0,0,1-1.82-1.381,3.768,3.768,0,0,1-.719-2.205h3.4a1.64,1.64,0,0,0,.5,1.11,1.622,1.622,0,0,0,1.12.385,1.745,1.745,0,0,0,1.12-.327,1.093,1.093,0,0,0,.41-.9,1.076,1.076,0,0,0-.327-.8,2.662,2.662,0,0,0-.8-.524,13.032,13.032,0,0,0-1.354-.465,14.789,14.789,0,0,1-2.072-.785,3.831,3.831,0,0,1-1.383-1.158,3.216,3.216,0,0,1-.579-2,3.44,3.44,0,0,1,1.325-2.866,5.446,5.446,0,0,1,3.453-1.037,5.51,5.51,0,0,1,3.492,1.037,3.706,3.706,0,0,1,1.419,2.885h-3.453a1.343,1.343,0,0,0-.467-1,1.639,1.639,0,0,0-1.1-.364,1.368,1.368,0,0,0-.933.308,1.184,1.184,0,0,0,.243,1.877,9.742,9.742,0,0,0,1.866.766,17.458,17.458,0,0,1,2.064.821,3.933,3.933,0,0,1,1.372,1.141,3.04,3.04,0,0,1,.579,1.923,3.773,3.773,0,0,1-.569,2.035,4,4,0,0,1-1.653,1.456,5.68,5.68,0,0,1-2.558.54A6.662,6.662,0,0,1,432.392,153.537Z" transform="translate(-357.219 -139.965)" fill="#fff"/>
            <path id="Path_3916" data-name="Path 3916" d="M446.537,140.689v2.558h-3.472V153.8h-3.193V143.247H436.4v-2.558Z" transform="translate(-352.618 -139.887)" fill="#fff"/>
            <path id="Path_3917" data-name="Path 3917" d="M447.94,153.537a4.182,4.182,0,0,1-1.82-1.381,3.768,3.768,0,0,1-.719-2.205h3.4a1.64,1.64,0,0,0,.5,1.11,1.622,1.622,0,0,0,1.12.385,1.745,1.745,0,0,0,1.12-.327,1.093,1.093,0,0,0,.41-.9,1.076,1.076,0,0,0-.327-.8,2.66,2.66,0,0,0-.8-.524,13.027,13.027,0,0,0-1.354-.465,14.794,14.794,0,0,1-2.072-.785,3.83,3.83,0,0,1-1.383-1.158,3.216,3.216,0,0,1-.579-2,3.44,3.44,0,0,1,1.325-2.866,5.446,5.446,0,0,1,3.453-1.037,5.51,5.51,0,0,1,3.493,1.037,3.706,3.706,0,0,1,1.418,2.885h-3.453a1.343,1.343,0,0,0-.467-1,1.639,1.639,0,0,0-1.1-.364,1.368,1.368,0,0,0-.933.308,1.184,1.184,0,0,0,.243,1.877,9.74,9.74,0,0,0,1.866.766,17.462,17.462,0,0,1,2.064.821,3.933,3.933,0,0,1,1.372,1.141,3.04,3.04,0,0,1,.579,1.923,3.773,3.773,0,0,1-.569,2.035,4,4,0,0,1-1.654,1.456,5.68,5.68,0,0,1-2.558.54A6.662,6.662,0,0,1,447.94,153.537Z" transform="translate(-346.291 -139.965)" fill="#fff"/>
            <path id="Path_3918" data-name="Path 3918" d="M460.876,151.481h-4.892l-.785,2.314h-3.341l4.742-13.107h3.7l4.742,13.107h-3.38Zm-.821-2.464-1.625-4.8-1.606,4.8Z" transform="translate(-341.753 -139.888)" fill="#fff"/>
            <path id="Path_3919" data-name="Path 3919" d="M473.155,140.689,468.508,153.8h-4l-4.649-13.107h3.4l3.247,9.9,3.268-9.9Z" transform="translate(-336.126 -139.887)" fill="#fff"/>
            <path id="Path_3920" data-name="Path 3920" d="M471.64,140.689V153.8h-3.193V140.689Z" transform="translate(-330.093 -139.887)" fill="#fff"/>
            <path id="Path_3921" data-name="Path 3921" d="M483.407,153.8h-3.193l-5.34-8.083V153.8h-3.193V140.689h3.193l5.34,8.121v-8.121h3.193Z" transform="translate(-327.82 -139.887)" fill="#fff"/>
            <path id="Path_3922" data-name="Path 3922" d="M488.852,144.9a2.38,2.38,0,0,0-1.018-1,3.327,3.327,0,0,0-1.558-.346,3.2,3.2,0,0,0-2.483,1.018,3.856,3.856,0,0,0-.935,2.716,3.91,3.91,0,0,0,.981,2.83,3.57,3.57,0,0,0,2.7,1.017,3.251,3.251,0,0,0,1.989-.6,3.393,3.393,0,0,0,1.185-1.718h-4.053v-2.353H492.6v2.97a6.281,6.281,0,0,1-1.2,2.222,6.35,6.35,0,0,1-2.157,1.662,6.654,6.654,0,0,1-2.949.633,7,7,0,0,1-3.464-.848,6.061,6.061,0,0,1-2.372-2.362,7.48,7.48,0,0,1,0-6.919,6.054,6.054,0,0,1,2.364-2.372,6.921,6.921,0,0,1,3.453-.85,6.712,6.712,0,0,1,3.968,1.139,5.369,5.369,0,0,1,2.137,3.155Z" transform="translate(-322.248 -139.949)" fill="#fff"/>
          </g>
        </g>
      </g>
      <path id="Path_3923" data-name="Path 3923" d="M303.754,222.277,239.591,111.139,303.754,0H432.083l64.168,111.139L432.083,222.277Z" transform="translate(168.394)" fill="#eaeaea"/>
      <g id="Group_2576" data-name="Group 2576" transform="translate(105.459 266.988)">
        <path id="Path_3924" data-name="Path 3924" d="M105.217,188.425a2.344,2.344,0,0,0-.237-1.793l-4.921-8.524a2.363,2.363,0,0,0-3.229-.865l-2.564,1.481a18.047,18.047,0,0,0-3.365-1.95V173.82a2.367,2.367,0,0,0-2.364-2.365H78.694a2.367,2.367,0,0,0-2.364,2.365v2.954a18.02,18.02,0,0,0-3.367,1.95l-2.564-1.48a2.36,2.36,0,0,0-3.229.863l-4.921,8.524a2.364,2.364,0,0,0,.863,3.229l2.558,1.476a18.025,18.025,0,0,0,0,3.9l-2.558,1.476a2.365,2.365,0,0,0-.863,3.23l4.921,8.524a2.372,2.372,0,0,0,2.05,1.182,2.34,2.34,0,0,0,1.178-.318l2.564-1.48a18.1,18.1,0,0,0,3.367,1.95v2.954a2.363,2.363,0,0,0,2.364,2.362h9.842a2.365,2.365,0,0,0,2.364-2.364V209.8a18.121,18.121,0,0,0,3.367-1.951l2.564,1.481a2.36,2.36,0,0,0,3.229-.863l4.921-8.524a2.365,2.365,0,0,0-.863-3.23l-2.558-1.476a18.025,18.025,0,0,0,0-3.9l2.558-1.476A2.345,2.345,0,0,0,105.217,188.425Zm-21.6,15.125a10.264,10.264,0,1,1,10.265-10.265A10.265,10.265,0,0,1,83.615,203.55Z" transform="translate(-61.931 -146.483)" fill="#fff"/>
        <path id="Path_3925" data-name="Path 3925" d="M79.755,174.452a1.559,1.559,0,0,0,.157,1.185l3.256,5.642a1.562,1.562,0,0,0,2.135.574l1.7-.981a11.991,11.991,0,0,0,2.226,1.289v1.957a1.567,1.567,0,0,0,1.563,1.565H97.3a1.566,1.566,0,0,0,1.563-1.565v-1.957a11.989,11.989,0,0,0,2.226-1.289l1.7.981a1.562,1.562,0,0,0,2.135-.574l3.256-5.642a1.563,1.563,0,0,0-.572-2.135l-1.693-.977a11.918,11.918,0,0,0,0-2.576l1.693-.977a1.564,1.564,0,0,0,.572-2.137l-3.256-5.642a1.573,1.573,0,0,0-1.355-.783,1.549,1.549,0,0,0-.78.211l-1.7.979a11.888,11.888,0,0,0-2.226-1.287v-1.958A1.565,1.565,0,0,0,97.3,156.79H90.791a1.565,1.565,0,0,0-1.563,1.563v1.958A11.888,11.888,0,0,0,87,161.6l-1.7-.979a1.559,1.559,0,0,0-2.135.572l-3.256,5.642a1.565,1.565,0,0,0,.572,2.137l1.693.977a11.9,11.9,0,0,0,0,2.575l-1.693.977A1.57,1.57,0,0,0,79.755,174.452Zm14.3-10.008a6.791,6.791,0,1,1-6.791,6.791A6.791,6.791,0,0,1,94.05,164.444Z" transform="translate(-49.442 -156.79)" fill="#fff"/>
        <path id="Path_3926" data-name="Path 3926" d="M108.329,184.752l-1.166-.674a7.994,7.994,0,0,0,0-1.774l1.166-.674a1.077,1.077,0,0,0,.393-1.47l-2.241-3.882a1.082,1.082,0,0,0-.933-.538,1.065,1.065,0,0,0-.536.145l-1.17.674a8.352,8.352,0,0,0-1.533-.887v-1.349a1.077,1.077,0,0,0-1.076-1.076H96.749a1.076,1.076,0,0,0-1.076,1.076v1.349a8.187,8.187,0,0,0-1.531.887l-1.17-.674a1.065,1.065,0,0,0-.536-.145,1.078,1.078,0,0,0-.933.538l-2.241,3.882a1.077,1.077,0,0,0,.393,1.47l1.166.674a7.994,7.994,0,0,0,0,1.774l-1.166.674a1.077,1.077,0,0,0-.393,1.47L91.5,190.1a1.078,1.078,0,0,0,.933.538,1.066,1.066,0,0,0,.536-.145l1.17-.674a8.147,8.147,0,0,0,1.531.887v1.347a1.081,1.081,0,0,0,1.078,1.078h4.484a1.078,1.078,0,0,0,1.076-1.078V190.71a8.255,8.255,0,0,0,1.533-.887l1.17.674a1.065,1.065,0,0,0,.536.145,1.078,1.078,0,0,0,.933-.538l2.241-3.882a1.076,1.076,0,0,0-.4-1.47Zm-9.338,3.116a4.675,4.675,0,1,1,4.676-4.676A4.675,4.675,0,0,1,98.99,187.868Z" transform="translate(-42.824 -145.224)" fill="#fff"/>
      </g>
      <path id="Path_3927" data-name="Path 3927" d="M186.2,122.86a5.974,5.974,0,0,0,4.157-1.687l5.924,2.961a5.707,5.707,0,0,0-.073.729,6,6,0,0,0,12.008,0,5.937,5.937,0,0,0-.6-2.575l8.037-8.037a5.913,5.913,0,0,0,2.573.6,6.01,6.01,0,0,0,6-6,5.935,5.935,0,0,0-.3-1.779l6.985-5.236a6.251,6.251,0,1,0-2.381-3.215l-6.985,5.236a5.98,5.98,0,0,0-8.727,7.567l-8.037,8.039a5.913,5.913,0,0,0-2.573-.6,5.976,5.976,0,0,0-4.157,1.689l-5.924-2.963a5.65,5.65,0,0,0,.073-.727,6,6,0,1,0-6,6Z" transform="translate(126.649 63.842)" fill="#fff"/>
      <path id="Path_3928" data-name="Path 3928" d="M244.09,146.893h-2.135v-42.3a2,2,0,0,0-2-2h-8.007a2,2,0,0,0-2,2v42.3h-4.005V116.6a2,2,0,0,0-2-2h-8.007a2,2,0,0,0-2,2v30.292h-4.005V132.615a2,2,0,0,0-2-2H199.92a2,2,0,0,0-2,2v14.278h-4.005V124.608a2,2,0,0,0-2-2h-8.007a2,2,0,0,0-2,2v22.285h-2.135a2,2,0,1,0,0,4.005h64.321a2,2,0,1,0,0-4.005Z" transform="translate(124.942 72.103)" fill="#fff"/>
      <g id="Group_2577" data-name="Group 2577" transform="translate(502.779 271.925)">
        <path id="Path_3929" data-name="Path 3929" d="M322.438,187.895l-16.725-1.584s-2.227.06-.986-1.18,4.264-4.264,4.264-4.264-.736-.734-1.856-1.863c-3.218-3.22-9.076-9.076-11.458-11.458,0,0-.824-.48.163-1.461.986-1,5.3-5.308,6-6s1.228-.136,1.228-.136c2.316,2.306,8.378,8.364,11.486,11.479,1.013,1.01,1.67,1.669,1.67,1.669s2.416-2.421,3.944-3.944,1.505.771,1.505.771,2.118,14.987,2.118,16.78C323.8,188,322.438,187.895,322.438,187.895Z" transform="translate(-295.193 -159.662)" fill="#fff"/>
        <path id="Path_3930" data-name="Path 3930" d="M318.949,182.07l16.722,1.582s2.232-.065.991,1.175-4.269,4.281-4.269,4.281.73.72,1.865,1.853c3.223,3.22,9.073,9.074,11.46,11.467,0,0,.816.465-.163,1.447s-5.3,5.315-6.018,6.016c-.691.695-1.216.14-1.216.14-2.318-2.321-8.381-8.375-11.494-11.484l-1.655-1.662s-2.421,2.411-3.952,3.934-1.517-.765-1.517-.765-2.1-15-2.1-16.78A1.2,1.2,0,0,1,318.949,182.07Z" transform="translate(-279.558 -143.96)" fill="#fff"/>
        <path id="Path_3931" data-name="Path 3931" d="M323.432,183.275l-1.575,16.73s.065,2.238-1.18.988-4.276-4.271-4.276-4.271-.736.737-1.846,1.863c-3.224,3.227-9.09,9.076-11.474,11.469,0,0-.477.805-1.461-.175s-5.294-5.308-6.006-6-.141-1.235-.141-1.235c2.316-2.307,8.369-8.376,11.486-11.487,1.013-1.008,1.67-1.665,1.67-1.665s-2.416-2.423-3.944-3.935c-1.527-1.527.761-1.519.761-1.519s15-2.1,16.793-2.1A1.181,1.181,0,0,1,323.432,183.275Z" transform="translate(-295.259 -144.052)" fill="#fff"/>
        <path id="Path_3932" data-name="Path 3932" d="M317.607,186.773l1.577-16.737s-.06-2.222,1.18-.981,4.271,4.274,4.271,4.274.736-.736,1.868-1.863c3.218-3.223,9.068-9.074,11.458-11.458,0,0,.477-.819,1.459.17s5.3,5.294,6,5.991.146,1.238.146,1.238c-2.311,2.314-8.375,8.375-11.481,11.486-1.015,1-1.681,1.662-1.681,1.662s2.428,2.415,3.949,3.939-.759,1.517-.759,1.517-15,2.112-16.793,2.112C317.5,188.125,317.607,186.773,317.607,186.773Z" transform="translate(-279.554 -159.689)" fill="#fff"/>
      </g>
      <g id="Group_2579" data-name="Group 2579" transform="translate(703.727 155.353)">
        <g id="money_5">
          <g id="Group_2578" data-name="Group 2578">
            <path id="Path_3933" data-name="Path 3933" d="M482.843,130.651a6.731,6.731,0,0,0-6.723-6.721c-.162,0-.318.026-.475.034a13.314,13.314,0,0,0,1.032-5.248c0-4.492-5.742-14.793-9.487-18.2a31.332,31.332,0,0,1-13.185-.041c-3.7,2.99-10.181,13.606-10.181,18.236a12.407,12.407,0,0,0,.2,2.234q-1.676-.115-3.414-.118a40.19,40.19,0,0,0-8.616.921c-.082-.994-.14-1.6-.14-1.6H414.047a136.3,136.3,0,0,0,0,29.12h17.807s.157-1.7.325-4.119c2.651-.446,5.364.254,8.5,2.2a25.937,25.937,0,0,0,14.171,4.133,23.783,23.783,0,0,0,13.827-4.25l0,0a1.3,1.3,0,0,0,.148-.114,25.6,25.6,0,0,0,3.075-2.539c.751-.773,1.776-1.754,3.3-3.252,5.134-5.046,5.767-6.043,5.767-6.043h-.019A6.631,6.631,0,0,0,482.843,130.651Zm-26.457-17.5a3.5,3.5,0,0,1,.691-1.064,3.858,3.858,0,0,1,1.063-.776,4.341,4.341,0,0,1,1.328-.417v-1.168h2.476v1.347a4.18,4.18,0,0,1,.989.421v-.528h2.476v3.707h-2.493c-.2-.22-.4-.421-.587-.591a2.889,2.889,0,0,0-.6-.422,3.21,3.21,0,0,0-.691-.254,4.1,4.1,0,0,0-.891-.09,1.68,1.68,0,0,0-1.139.352,1.033,1.033,0,0,0-.4.763c0,.763.824,1.269,2.481,1.519a7.219,7.219,0,0,1,2.447.748,4.817,4.817,0,0,1,1.384,1.132,3.1,3.1,0,0,1,.611,1.2,4.583,4.583,0,0,1,.131.96,3.021,3.021,0,0,1-.284,1.313,3.308,3.308,0,0,1-.776,1.071,3.981,3.981,0,0,1-1.17.744,4.8,4.8,0,0,1-1.481.334v1.112h-2.471v-1.447c-.136-.06-.254-.114-.383-.172a3.16,3.16,0,0,1-.361-.165v.543h-2.476v-3.709h2.476a5.524,5.524,0,0,0,.628.611,2.944,2.944,0,0,0,.637.421,2.8,2.8,0,0,0,.722.25,5.383,5.383,0,0,0,.913.072,2.1,2.1,0,0,0,1.112-.271.817.817,0,0,0,.443-.713,1,1,0,0,0-.235-.65,1.985,1.985,0,0,0-.586-.467,3.694,3.694,0,0,0-.8-.308c-.288-.077-.572-.138-.858-.187a7.6,7.6,0,0,1-2.4-.708,4.641,4.641,0,0,1-1.384-1.042,2.885,2.885,0,0,1-.639-1.158,4.227,4.227,0,0,1-.151-1.046A3.192,3.192,0,0,1,456.386,113.154Zm22.372,20.131c-.9.891-4.7,4.816-5.742,5.831-2.67,2.621-3.915,3.848-4.5,4.526l-.017-.012a16.114,16.114,0,0,1-1.274,1.018,22.446,22.446,0,0,1-24.851-.055h-.024a16.412,16.412,0,0,0-9.972-2.6c.138-2.4.25-5.02.25-7.275,0-3.138-.22-6.982-.415-9.936a38.432,38.432,0,0,1,8.386-.926c8.95,0,16.873,2.96,21.725,7.6a3.586,3.586,0,0,1-2.672,6c-.072,0-.143-.022-.225-.026l-.008.037c-1.856-.06-4.756-.841-9.657-2.719l-1.117,2.927c5.185,1.965,8.6,2.857,11.017,2.922v-.022a6.738,6.738,0,0,0,6.423-4.787v0c1.049-1.74,4.974-5.367,7.2-7.349v0a.527.527,0,0,1,.065-.063c.41-.364.768-.678,1.023-.9a2.987,2.987,0,0,1,1.739-.421,3.6,3.6,0,0,1,3.6,3.6A4.489,4.489,0,0,1,478.758,133.285Z" transform="translate(-413.267 -84.734)" fill="#fff"/>
            <path id="Path_3934" data-name="Path 3934" d="M439.392,104.768a29.72,29.72,0,0,0,5.984.719,25.56,25.56,0,0,0,4.9-.421c1.722-.845,5.589-9.761,3.322-12.906-2.536-3.508-6.776,4.116-8.732,3.331s-6.106-4.845-8.845-3.188C433.638,93.745,437.515,103.372,439.392,104.768Z" transform="translate(-397.802 -91.232)" fill="#fff"/>
          </g>
        </g>
      </g>
    </g>
  </g>
</svg>
