<?xml version="1.0" encoding="utf-8"?>
<!-- Generator: Adobe Illustrator 16.0.0, SVG Export Plug-In . SVG Version: 6.00 Build 0)  -->
<!DOCTYPE svg PUBLIC "-//W3C//DTD SVG 1.1//EN" "http://www.w3.org/Graphics/SVG/1.1/DTD/svg11.dtd">
<svg version="1.1" id="_x31__x2C_5" xmlns="http://www.w3.org/2000/svg" xmlns:xlink="http://www.w3.org/1999/xlink" x="0px"
	 y="0px" width="592.037px" height="550.671px" viewBox="-40.003 -30.002 592.037 550.671"
	 enable-background="new -40.003 -30.002 592.037 550.671" xml:space="preserve">
<g>
	<path fill="#40A3FF" d="M472.004,252.16c-8.832,0-16-7.168-16-16V28.665c0-14.699-11.97-26.667-26.667-26.667H82.664
		c-14.698,0-26.666,11.968-26.666,26.667V236.16c0,8.832-7.168,16-16,16s-16-7.168-16-16V28.665
		c0-32.362,26.304-58.667,58.666-58.667h346.673c32.361,0,58.667,26.304,58.667,58.667V236.16
		C488.004,244.992,480.835,252.16,472.004,252.16z"/>
</g>
<g>
	<path fill="#40A3FF" d="M256,341.313c-9.131,0-18.24-2.112-26.582-6.356L-31.277,222.25c-7.871-4.032-10.986-13.674-6.976-21.525
		s13.609-10.987,21.524-6.976l260.695,112.704c7.53,3.818,16.512,3.861,24.085,0L528.75,193.75
		c7.914-4.011,17.492-0.875,21.524,6.976s0.896,17.493-6.976,21.525L282.603,334.955C274.261,339.201,265.131,341.313,256,341.313
		L256,341.313z"/>
</g>
<g>
	<path fill="#40A3FF" d="M504.004,520.669H7.998c-26.453,0-48-21.547-48-48V184.747c0-17.962,9.92-34.261,25.897-42.581
		l46.721-24.299c7.829-4.096,17.473-1.024,21.567,6.805c4.096,7.83,1.045,17.494-6.806,21.568l-46.72,24.32
		c-5.354,2.794-8.661,8.213-8.661,14.187v287.922c0,8.813,7.188,16,16,16h496.006c8.811,0,16-7.188,16-16V184.747
		c0-5.973-3.309-11.392-8.642-14.166l-46.72-24.341c-7.851-4.054-10.901-13.739-6.806-21.568s13.738-10.901,21.567-6.805
		l46.72,24.32c15.957,8.299,25.878,24.598,25.878,42.56v287.922C552.003,499.123,530.456,520.669,504.004,520.669L504.004,520.669z"
		/>
</g>
<g>
	<path fill="#020202" d="M335.84,237.531c-1.351,0-2.737-0.193-4.066-0.578l-202.347-59.24c-6.147-1.812-10.388-7.458-10.388-13.875
		v-28.907c0-6.456,4.277-12.122,10.483-13.894l202.346-57.813c4.337-1.234,9.059-0.405,12.661,2.35
		c3.644,2.737,5.764,7.015,5.764,11.544v145.959c0,4.548-2.141,8.845-5.802,11.582C341.968,236.529,338.923,237.531,335.84,237.531
		L335.84,237.531z M147.946,153.008l173.44,50.779V96.274l-173.44,49.546V153.008L147.946,153.008z"/>
</g>
<g>
	<path d="M335.84,245.741c-7.979,0-14.454-6.475-14.454-14.453V67.482c0-7.979,6.476-14.454,14.454-14.454
		c7.978,0,14.453,6.475,14.453,14.454v163.805C350.293,239.266,343.818,245.741,335.84,245.741z"/>
</g>
<g>
	<path d="M133.493,187.927c-7.979,0-14.454-6.475-14.454-14.453v-48.179c0-7.978,6.476-14.453,14.454-14.453
		c7.978,0,14.452,6.475,14.452,14.453v48.179C147.946,181.452,141.471,187.927,133.493,187.927z"/>
</g>
<g>
	<path fill="#020202" d="M200.942,246.704c-23.896,0-43.359-19.463-43.359-43.36c0-15.186,7.998-29.292,20.872-36.769
		c6.897-4.028,15.742-1.638,19.752,5.222c4.008,6.899,1.677,15.745-5.223,19.754c-4.064,2.389-6.495,6.783-6.495,11.793
		c0,7.959,6.495,14.453,14.453,14.453c7.959,0,14.454-6.494,14.454-14.453c0-2.062-0.403-3.815-1.213-5.377
		c-3.739-7.073-1.041-15.822,6.012-19.541c7.093-3.68,15.783-1.021,19.541,6.013c3.025,5.743,4.567,12.102,4.567,18.905
		C244.302,227.241,224.838,246.704,200.942,246.704L200.942,246.704z"/>
</g>
</svg>
