<?xml version="1.0" encoding="utf-8"?>
<!-- Generator: Adobe Illustrator 16.0.0, SVG Export Plug-In . SVG Version: 6.00 Build 0)  -->
<!DOCTYPE svg PUBLIC "-//W3C//DTD SVG 1.1//EN" "http://www.w3.org/Graphics/SVG/1.1/DTD/svg11.dtd">
<svg version="1.1" id="Outline" xmlns="http://www.w3.org/2000/svg" xmlns:xlink="http://www.w3.org/1999/xlink" x="0px" y="0px"
	 width="595.279px" height="595.227px" viewBox="-51 18.332 595.279 595.227" enable-background="new -51 18.332 595.279 595.227"
	 xml:space="preserve">
<g>
	<g>
		<path d="M149.616,473.952c-0.151-0.744-0.372-1.477-0.663-2.186c-0.29-0.697-0.65-1.372-1.069-2
			c-0.419-0.64-0.907-1.232-1.441-1.767c-0.535-0.535-1.128-1.023-1.768-1.442c-0.628-0.418-1.302-0.778-2.012-1.069
			c-0.697-0.291-1.43-0.523-2.174-0.663c-1.5-0.302-3.046-0.302-4.534,0c-0.744,0.14-1.477,0.372-2.186,0.663
			c-0.698,0.291-1.372,0.651-2,1.069c-0.64,0.419-1.232,0.907-1.768,1.442c-0.534,0.534-1.022,1.127-1.441,1.767
			c-0.431,0.628-0.779,1.303-1.069,2c-0.291,0.709-0.523,1.441-0.663,2.186c-0.151,0.744-0.232,1.512-0.232,2.268
			s0.081,1.523,0.232,2.268c0.14,0.743,0.372,1.477,0.663,2.174c0.29,0.709,0.639,1.384,1.069,2.012
			c0.419,0.639,0.907,1.232,1.441,1.767c0.535,0.535,1.128,1.023,1.768,1.441c0.628,0.42,1.302,0.78,2,1.071
			c0.709,0.291,1.441,0.523,2.186,0.663c0.744,0.15,1.512,0.232,2.267,0.232c0.756,0,1.523-0.082,2.268-0.232
			c0.744-0.14,1.477-0.372,2.174-0.663c0.71-0.291,1.384-0.652,2.012-1.071c0.64-0.418,1.232-0.906,1.768-1.441
			c0.534-0.534,1.022-1.128,1.441-1.767c0.419-0.628,0.779-1.303,1.069-2.012c0.291-0.697,0.512-1.431,0.663-2.174
			c0.151-0.744,0.232-1.512,0.232-2.268S149.767,474.696,149.616,473.952z"/>
	</g>
</g>
<g>
	<g>
		<path d="M483.813,477.533c-0.045-0.116-0.092-0.231-0.141-0.345c-10.701-25.04-35.798-34.295-65.499-24.151l-81,22.4
			c-4.684-14.183-16.365-26.251-32.882-32.38c-0.102-0.038-0.204-0.075-0.308-0.109l-89.037-30.22
			c-7.411-9.58-30.625-34.091-74.088-34.091c-30.375,0-57.245,20.837-72.617,43.55H-39.374c-6.421,0-11.626,5.205-11.626,11.627
			v146.584c0,6.421,5.205,11.627,11.626,11.627h69.129c6.421,0,11.626-5.206,11.626-11.627V570.36H73.8
			c6.421,0,11.626-5.206,11.626-11.627v-3.346c18.897,1.648,25.113,5.232,42.47,15.241c13.348,7.696,33.521,19.329,69.849,35.663
			c0.169,0.075,0.34,0.147,0.511,0.215c6.973,2.743,20.603,7.052,37.406,7.052c11.696,0,24.933-2.09,38.52-8.248l179.039-64.104
			c0.318-0.113,0.632-0.241,0.939-0.384C471.269,532.95,496.767,510.764,483.813,477.533z M18.128,568.771h-45.875V445.439h45.875
			V568.771z M62.173,547.105H41.381V445.439h20.792V547.105z M444.868,519.496l-178.959,64.075c-0.156,0.056-0.369,0.14-0.524,0.202
			c-0.156,0.064-0.313,0.132-0.468,0.202c-24.924,11.455-48.615,4.598-57.9,0.987c-35.092-15.79-53.82-26.59-67.505-34.48
			c-19.026-10.972-28.193-16.259-54.086-18.397v-93.643c11.021-18.063,32.393-36.553,55.435-36.553
			c39.514,0,56.258,25.701,56.915,26.737c1.42,2.31,3.603,4.05,6.168,4.921l92.402,31.361c14.758,5.539,22.557,18.177,18.972,30.78
			c-1.654,5.82-5.477,10.647-10.763,13.593c-5.239,2.919-11.297,3.642-17.071,2.044l-104.165-33.011
			c-6.125-1.94-12.657,1.45-14.597,7.571c-1.94,6.122,1.45,12.656,7.571,14.597L280.64,533.55c0.11,0.035,0.221,0.069,0.332,0.101
			c4.166,1.185,8.407,1.771,12.623,1.771c7.718,0,15.351-1.966,22.277-5.826c10.712-5.968,18.458-15.75,21.811-27.546
			c0.268-0.941,0.505-1.883,0.711-2.825l87.295-24.183c12.608-4.307,29.159-5.859,36.527,11.112
			C469.844,506.078,450.02,517.038,444.868,519.496z"/>
	</g>
</g>
<g>
	<g>
		<path d="M366.463,171.244c-0.151-0.744-0.372-1.477-0.674-2.186c-0.291-0.698-0.64-1.372-1.07-2
			c-0.418-0.639-0.906-1.232-1.441-1.767s-1.128-1.023-1.768-1.442c-0.627-0.418-1.302-0.779-1.999-1.069
			c-0.71-0.291-1.442-0.523-2.175-0.663c-1.5-0.302-3.046-0.302-4.546,0c-0.744,0.14-1.477,0.372-2.174,0.663
			c-0.709,0.291-1.384,0.651-2.012,1.069c-0.64,0.419-1.232,0.907-1.767,1.442c-0.535,0.535-1.023,1.128-1.442,1.767
			c-0.418,0.628-0.778,1.302-1.069,2c-0.291,0.709-0.523,1.441-0.663,2.186c-0.151,0.744-0.232,1.512-0.232,2.268
			c0,0.755,0.081,1.523,0.232,2.267c0.14,0.744,0.372,1.477,0.663,2.174c0.291,0.709,0.651,1.384,1.069,2.012
			c0.419,0.639,0.907,1.232,1.442,1.767c0.534,0.535,1.127,1.023,1.767,1.442c0.628,0.418,1.303,0.779,2.012,1.069
			c0.697,0.291,1.43,0.512,2.174,0.663c0.744,0.151,1.512,0.233,2.268,0.233s1.522-0.082,2.278-0.233
			c0.732-0.151,1.465-0.372,2.175-0.663c0.697-0.291,1.372-0.651,1.999-1.069c0.64-0.419,1.232-0.907,1.768-1.442
			s1.023-1.128,1.441-1.767c0.431-0.628,0.779-1.302,1.07-2.012c0.302-0.697,0.522-1.43,0.674-2.174s0.221-1.512,0.221-2.267
			C366.683,172.756,366.614,171.988,366.463,171.244z"/>
	</g>
</g>
<g>
	<g>
		<path d="M532.653,57.708h-69.128c-6.422,0-11.627,5.205-11.627,11.626v10.039H419.48c-6.422,0-11.627,5.205-11.627,11.626v3.346
			c-18.897-1.65-25.113-5.233-42.469-15.241c-13.347-7.697-33.521-19.329-69.85-35.664c-0.169-0.077-0.338-0.147-0.512-0.215
			c-11.825-4.653-42.818-13.808-75.92,1.194l-46.785,16.751l-39.437-39.435c-4.54-4.541-11.902-4.541-16.442,0l-129.471,129.47
			c-4.188,4.189-4.991,11.452,0,16.443l221.238,221.238c3.54,3.542,11.83,4.612,16.443,0l118.201-118.2
			c3.073,0.265,6.263,0.408,9.567,0.408c30.376,0,57.245-20.837,72.616-43.548h107.618c6.421,0,11.626-5.205,11.626-11.626V69.335
			C544.279,62.914,539.074,57.708,532.653,57.708z M124.66,46.4l26.499,26.5c-7.877,4.872-16.984,7.478-26.499,7.478
			c-9.517,0-18.623-2.605-26.5-7.478L124.66,46.4z M38.133,185.929l-26.5-26.5l26.5-26.5c4.871,7.877,7.478,16.984,7.478,26.5
			S43.005,178.05,38.133,185.929z M216.429,364.225l-26.495-26.495c16.176-9.982,36.812-9.982,52.988,0L216.429,364.225z
			 M188.987,206.676c0.103,0.037,0.204,0.074,0.308,0.109l23.249,7.891c-1.756,7.923-5.729,15.208-11.577,21.058
			c-16.774,16.772-44.069,16.775-60.842,0c-16.774-16.773-16.774-44.067,0-60.842c4.047-4.048,8.821-7.212,14.024-9.357
			C156.296,183.396,169.156,199.316,188.987,206.676z M302.978,277.675c-4.488-7.313-7.027-15.659-7.428-24.179
			c5.568,4.026,12.375,7.972,20.504,11.103L302.978,277.675z M407.852,211.286c-11.02,18.065-32.392,36.556-55.434,36.556
			c-4.311,0-8.351-0.308-12.129-0.854c-0.015-0.003-0.03-0.005-0.045-0.008c-25.108-3.646-38.615-17.917-43.067-23.568
			c-0.237-0.349-1.247-1.67-1.397-1.89c-1.354-2.421-3.575-4.367-6.407-5.329l-92.44-31.375
			c-14.752-5.537-22.55-18.169-18.976-30.767c0.002-0.008,0.005-0.017,0.007-0.024c0.004-0.009,0.006-0.02,0.009-0.029
			c1.661-5.802,5.477-10.614,10.751-13.552c5.238-2.919,11.295-3.644,17.071-2.043l104.165,33.009
			c6.123,1.942,12.657-1.45,14.597-7.571c1.938-6.122-1.45-12.656-7.571-14.596l-82.845-26.252l-0.724-0.724
			c-0.007-0.007-0.014-0.015-0.022-0.022l-42.89-42.89l36.865-13.201c0.124-0.045,0.277-0.102,0.401-0.152
			c0.031-0.013,0.092-0.036,0.122-0.049c0.158-0.063,0.313-0.131,0.468-0.202c24.923-11.455,48.613-4.598,57.899-0.987
			c35.093,15.79,53.823,26.59,67.507,34.481c19.026,10.972,28.193,16.258,54.085,18.396V211.286z M451.898,204.293h-20.792V102.626
			h20.792V204.293z M521.026,204.293h-45.875V80.962h45.875V204.293z"/>
	</g>
</g>
<path fill="#40A3FF" d="M259.674,320.98c-25.691-18.638-60.797-18.638-86.489,0L54.883,202.678
	c9.079-12.487,13.981-27.486,13.981-43.25c0-15.765-4.901-30.763-13.981-43.25l26.528-26.527
	c12.487,9.079,27.485,13.981,43.25,13.981s30.763-4.902,43.249-13.981l25.147,25.147c-5.426,0.801-10.718,2.589-15.651,5.339
	c-8.334,4.644-14.873,11.598-18.944,20.011c-13.115,2.429-25.257,8.778-34.781,18.301c-25.84,25.841-25.84,67.886,0.001,93.728
	c12.92,12.919,29.891,19.38,46.863,19.38c16.972,0,33.944-6.459,46.864-19.38c8.406-8.405,14.295-18.737,17.245-29.997
	l39.256,13.323c-4.42,20.472,0.106,42.009,12.315,58.926L259.674,320.98z"/>
</svg>
