<?xml version="1.0" encoding="utf-8"?>
<!-- Generator: Adobe Illustrator 16.0.0, SVG Export Plug-In . SVG Version: 6.00 Build 0)  -->
<!DOCTYPE svg PUBLIC "-//W3C//DTD SVG 1.1//EN" "http://www.w3.org/Graphics/SVG/1.1/DTD/svg11.dtd">
<svg version="1.1" id="Outline" xmlns="http://www.w3.org/2000/svg" xmlns:xlink="http://www.w3.org/1999/xlink" x="0px" y="0px"
	 width="384.003px" height="480px" viewBox="63.997 16 384.003 480" enable-background="new 63.997 16 384.003 480"
	 xml:space="preserve">
<path fill="#40A3FF" d="M160,395.963V488c0,4.418,3.581,8,8,8h272c4.418,0,8-3.582,8-8V296c-0.006-6.564-1.622-13.027-4.706-18.823
	L384,166V24c0-4.418-3.582-8-8-8H168c-4.419,0-8,3.582-8,8v28.072L69.61,80.365c-4.216,1.319-6.564,5.808-5.245,10.024
	c0,0,0,0,0.001,0.001L160,395.963z M149.805,122.331l-4.781-15.276L160,102.367v132.878l-30.706-98.11l15.267-4.78
	C148.777,131.035,151.124,126.547,149.805,122.331z M432,296v184h-48c-39.156-0.045-71.115-31.339-71.984-70.485
	c0.401-2.081-0.04-4.237-1.228-5.993L258.9,326.716c-7.513-10.92-4.751-25.862,6.17-33.376c10.92-7.513,25.862-4.75,33.375,6.17
	c0.076,0.11,0.152,0.223,0.227,0.334c0.047,0.069,0.1,0.139,0.145,0.206l46.705,64.636c1.503,2.08,3.913,3.313,6.479,3.314h24
	c4.418,0,8-3.582,8-8V200l45.177,84.706C431.027,288.184,431.995,292.061,432,296z M224,424h-16V88h16c4.418,0,8-3.582,8-8V64h80v16
	c0,4.418,3.581,8,8,8h16v236.2l-24.15-33.423c-0.943-1.379-1.972-2.697-3.078-3.948c17.023-20.314,14.356-50.583-5.958-67.606
	c-20.313-17.023-50.582-14.356-67.605,5.958c-17.024,20.314-14.356,50.583,5.958,67.606c0.73,0.612,1.479,1.203,2.246,1.771
	c-6.886,13.069-6.03,28.865,2.225,41.116l50.391,74.58c0.324,13.145,3.609,26.047,9.611,37.745H232v-16
	C232,427.582,228.418,424,224,424z M256.387,280.136c-0.956,0.646-1.872,1.335-2.76,2.052
	c-14.469-10.148-17.972-30.105-7.823-44.574s30.105-17.971,44.574-7.823s17.971,30.105,7.822,44.574
	c-0.688,0.981-1.432,1.925-2.227,2.823C283.187,271.094,268.13,272.215,256.387,280.136z M176,32h192v320h-11.911L352,346.341V80
	c0-4.418-3.582-8-8-8h-16V56c0-4.418-3.582-8-8-8h-96c-4.419,0-8,3.582-8,8v16h-16c-4.419,0-8,3.582-8,8v352c0,4.418,3.581,8,8,8h16
	v16c0,4.418,3.581,8,8,8h92.188c5.031,6.079,10.851,11.46,17.305,16H176V32z M160,68.837V85.6l-27.391,8.574
	c-4.216,1.32-6.564,5.808-5.244,10.024l4.78,15.277l-15.267,4.779c-4.217,1.32-6.564,5.809-5.244,10.025l0,0L160,288.813v53.582
	L82.024,93.245L160,68.837z"/>
</svg>
