<?xml version="1.0" encoding="utf-8"?>
<!-- Generator: Adobe Illustrator 16.0.0, SVG Export Plug-In . SVG Version: 6.00 Build 0)  -->
<!DOCTYPE svg PUBLIC "-//W3C//DTD SVG 1.1//EN" "http://www.w3.org/Graphics/SVG/1.1/DTD/svg11.dtd">
<svg version="1.1" id="Capa_1" xmlns="http://www.w3.org/2000/svg" xmlns:xlink="http://www.w3.org/1999/xlink" x="0px" y="0px"
	 width="512px" height="512px" viewBox="0 0 512 512" enable-background="new 0 0 512 512" xml:space="preserve">
<g>
	<path d="M213.044,83.786c-4.144,0-7.5,3.357-7.5,7.5v10.602c0,4.143,3.356,7.5,7.5,7.5c4.143,0,7.5-3.357,7.5-7.5V91.286
		C220.544,87.143,217.187,83.786,213.044,83.786z"/>
	<path d="M300.701,141.303l7.496-7.496c2.931-2.929,2.931-7.678,0.001-10.606c-2.929-2.928-7.678-2.93-10.605-0.001l-7.497,7.496
		c-2.93,2.929-2.93,7.678-0.001,10.606C293.023,144.231,297.771,144.233,300.701,141.303z"/>
	<path d="M340.113,225.854c4.144,0,7.5-3.357,7.5-7.5s-3.356-7.5-7.5-7.5H329.51c-4.144,0-7.5,3.357-7.5,7.5s3.356,7.5,7.5,7.5
		H340.113z"/>
	<path d="M208.629,337.906v10.603c0,4.144,3.356,7.5,7.5,7.5c4.143,0,7.5-3.356,7.5-7.5v-10.603c0-4.143-3.357-7.5-7.5-7.5
		C211.986,330.406,208.629,333.764,208.629,337.906z"/>
	<path d="M117.889,313.509c2.931,2.929,7.678,2.929,10.607,0l7.497-7.497c2.929-2.93,2.929-7.678,0-10.606
		c-2.931-2.929-7.679-2.929-10.607,0l-7.497,7.497C114.96,305.832,114.96,310.58,117.889,313.509z"/>
	<path d="M96.577,225.854c4.143,0,7.5-3.357,7.5-7.5s-3.357-7.5-7.5-7.5H85.975c-4.143,0-7.5,3.357-7.5,7.5s3.357,7.5,7.5,7.5
		H96.577z"/>
	<path d="M125.387,141.303c2.928,2.928,7.677,2.929,10.606-0.001c2.929-2.929,2.929-7.678-0.001-10.606l-7.497-7.496
		c-2.929-2.928-7.678-2.929-10.606,0.001c-2.929,2.929-2.929,7.678,0.001,10.606L125.387,141.303z"/>
	<path d="M205.544,203.667l-13.646-13.287c-2.968-2.891-7.717-2.827-10.604,0.141c-2.891,2.968-2.827,7.716,0.141,10.605
		l26.378,25.686c4.714,4.592,12.732,1.29,12.732-5.373v-70.977c0-4.143-3.357-7.5-7.5-7.5c-4.144,0-7.5,3.357-7.5,7.5V203.667z"/>
	<path fill="#2196F3" d="M424.727,242.365c0.898-7.992,1.362-16.042,1.362-24.01c0-54.784-20.759-106.842-58.45-146.582
		c-2.852-3.006-7.6-3.13-10.604-0.28c-3.006,2.851-3.131,7.598-0.279,10.603c35.037,36.941,54.333,85.333,54.333,136.26
		c0,6.389-0.322,12.837-0.946,19.258c-10.405-2.751-21.291-4.302-32.503-4.5c0.438-4.924,0.686-9.861,0.686-14.759
		c0-91.137-74.146-165.282-165.281-165.282S47.763,127.218,47.763,218.355c0,18.367,3,36.423,8.917,53.665
		c1.067,3.111,3.979,5.067,7.093,5.067c0.809,0,1.629-0.131,2.437-0.408c3.918-1.345,6.004-5.61,4.659-9.528
		c-5.379-15.67-8.104-32.088-8.104-48.795c0-82.866,67.416-150.282,150.281-150.282c82.866,0,150.281,67.416,150.281,150.282
		c0,5.082-0.272,10.212-0.792,15.319c-68.405,6.309-122.388,63.184-124.098,132.805c-8.373,1.424-16.887,2.158-25.392,2.158
		c-53.521,0-103.418-28.824-130.224-75.226c-2.071-3.588-6.659-4.812-10.245-2.742c-3.587,2.072-4.814,6.659-2.742,10.246
		c28.624,49.55,82.145,82.722,143.211,82.722c8.651,0,17.315-0.68,25.856-2.021c0.949,11.128,3.228,21.884,6.691,32.099
		c-10.734,1.775-21.645,2.688-32.547,2.688C103.842,416.399,15,327.557,15,218.355C15,109.153,103.842,20.31,213.044,20.31
		c44.856,0,87.16,14.624,122.335,42.291c3.254,2.562,7.971,1.998,10.53-1.258c2.563-3.256,1.998-7.971-1.258-10.531
		C306.808,21.044,261.298,5.31,213.044,5.31C95.571,5.31,0,100.881,0,218.355c0,117.473,95.57,213.044,213.044,213.044
		c12.841,0,25.695-1.164,38.3-3.453c21.879,46.483,69.166,78.743,123.852,78.743c28.344,0,55.542-8.6,78.653-24.866
		c3.388-2.384,4.201-7.063,1.815-10.449c-2.383-3.388-7.063-4.201-10.448-1.816c-20.571,14.479-44.783,22.133-70.021,22.133
		c-66.339,0-121.804-53.761-121.804-121.805c0-67.161,54.641-121.803,121.804-121.803c67.162,0,121.803,54.642,121.803,121.803
		c0,29.821-10.896,58.521-30.68,80.813c-2.75,3.099-2.467,7.839,0.631,10.588c3.102,2.751,7.84,2.468,10.588-0.631
		c22.224-25.04,34.462-57.276,34.462-90.771C511.999,311.912,475.749,262.251,424.727,242.365L424.727,242.365z"/>
	<path d="M397.696,296.109c0-12.406-10.094-22.5-22.5-22.5s-22.5,10.094-22.5,22.5v89.555c0,12.406,10.094,22.5,22.5,22.5
		s22.5-10.094,22.5-22.5V296.109z M382.696,385.664c0,4.136-3.364,7.5-7.5,7.5s-7.5-3.364-7.5-7.5v-89.555
		c0-4.137,3.364-7.5,7.5-7.5s7.5,3.363,7.5,7.5V385.664z"/>
	<path d="M375.196,411.607c-12.406,0-22.5,10.094-22.5,22.5v9.555c0,12.406,10.094,22.5,22.5,22.5s22.5-10.094,22.5-22.5v-9.555
		C397.696,421.701,387.603,411.607,375.196,411.607z M382.696,443.662c0,4.136-3.364,7.5-7.5,7.5s-7.5-3.364-7.5-7.5v-9.555
		c0-4.137,3.364-7.5,7.5-7.5s7.5,3.363,7.5,7.5V443.662z"/>
</g>
</svg>
