<?xml version="1.0" encoding="utf-8"?>
<!-- Generator: Adobe Illustrator 16.0.0, SVG Export Plug-In . SVG Version: 6.00 Build 0)  -->
<!DOCTYPE svg PUBLIC "-//W3C//DTD SVG 1.1//EN" "http://www.w3.org/Graphics/SVG/1.1/DTD/svg11.dtd">
<svg version="1.1" id="Capa_1" xmlns="http://www.w3.org/2000/svg" xmlns:xlink="http://www.w3.org/1999/xlink" x="0px" y="0px"
	 width="595.279px" height="595.28px" viewBox="0 123.305 595.279 595.28" enable-background="new 0 123.305 595.279 595.28"
	 xml:space="preserve">
<g>
	<g>
		<path fill="#2196F3" d="M575.438,698.742v-29.764v-79.371c0-5.479-4.442-9.921-9.922-9.921h-9.921v-29.764
			c0-5.479-4.442-9.922-9.922-9.922h-17.164c32.98-28.876,36.307-79.021,7.431-112.001c-28.877-32.979-79.021-36.307-112.001-7.43
			c-32.979,28.876-36.308,79.021-7.43,112.001c2.309,2.638,4.792,5.121,7.43,7.43h-17.164c-5.479,0-9.921,4.442-9.921,9.922v39.685
			c0,5.479,4.441,9.922,9.921,9.922h9.921v99.213h-39.685v-19.843h9.921c5.479,0,9.922-4.441,9.922-9.921v-39.686
			c0-5.479-4.442-9.921-9.922-9.921h-9.921v-69.449c0-5.479-4.442-9.922-9.922-9.922h-9.921v-19.843h9.921
			c5.479,0,9.922-4.442,9.922-9.921v-39.686c0-5.479-4.442-9.921-9.922-9.921h-9.921v-19.843h9.921c5.479,0,9.922-4.442,9.922-9.922
			v-39.685c0-5.479-4.442-9.921-9.922-9.921h-59.528v-39.686h9.922c60.273,0,109.135-48.861,109.135-109.135
			c0-5.479-4.442-9.921-9.922-9.921h-19.842c-35.587,0.056-68.912,17.458-89.293,46.63v-56.551h9.922
			c43.835,0,79.371-35.536,79.371-79.371c0-5.479-4.442-9.921-9.922-9.921h-19.843c-28.9,0.026-55.505,15.76-69.449,41.075
			c-13.944-25.314-40.547-41.048-69.449-41.075h-19.843c-5.479,0-9.921,4.442-9.921,9.921c0,43.835,35.535,79.371,79.37,79.371
			h9.922v56.551c-20.381-29.172-53.706-46.574-89.292-46.63h-19.843c-5.479,0-9.922,4.442-9.922,9.921
			c0,60.273,48.861,109.135,109.135,109.135h9.922v39.686h-59.528c-5.479,0-9.921,4.442-9.921,9.921v29.764h-9.922
			c-5.479,0-9.921,4.442-9.921,9.921v39.686c0,5.479,4.442,9.921,9.921,9.921h9.922v19.843h-9.922c-5.479,0-9.921,4.442-9.921,9.922
			v39.686c0,5.479,4.442,9.921,9.921,9.921h9.922v69.449c0,5.479,4.442,9.922,9.921,9.922h9.922v19.843h-9.922
			c-5.479,0-9.921,4.441-9.921,9.921v29.764h-19.843v-29.764c0-5.479-4.442-9.921-9.922-9.921h-9.921v-19.843h9.921
			c5.479,0,9.922-4.442,9.922-9.922v-39.686c0-5.479-4.442-9.921-9.922-9.921h-9.921v-69.449c0-5.479-4.442-9.922-9.922-9.922
			H29.764c-5.479,0-9.921,4.442-9.921,9.922v79.37c0,5.479,4.442,9.922,9.921,9.922h9.922v19.843h-9.922
			c-5.479,0-9.921,4.442-9.921,9.921v39.686c0,5.479,4.442,9.921,9.921,9.921h9.922v19.843H0v19.843H595.28v-19.843H575.438z
			 M396.854,242.361h9.325c-5.051,45.178-43.237,79.35-88.696,79.371h-9.326C313.207,276.554,351.394,242.382,396.854,242.361z
			 M367.089,143.147h9.128c-4.845,28.657-29.673,49.625-58.734,49.607h-9.128C313.199,164.098,338.028,143.129,367.089,143.147z
			 M277.797,192.754c-29.062,0.019-53.89-20.95-58.734-49.607h9.128c29.063-0.019,53.891,20.95,58.734,49.607H277.797z
			 M277.797,321.731c-45.459-0.021-83.646-34.192-88.696-79.371h9.326c45.459,0.021,83.646,34.193,88.696,79.371H277.797z
			 M178.584,599.529v19.843H59.528v-19.843H178.584z M39.686,520.158h119.056v19.843H39.686V520.158z M39.686,559.844h119.056
			v19.843H39.686V559.844z M39.686,639.215h119.056v19.843H39.686V639.215z M178.584,698.742H59.528v-19.843h119.057V698.742z
			 M377.011,639.215v19.843H257.954v-19.843H377.011z M357.168,599.529v19.843H238.113v-19.843H357.168z M238.113,579.687v-19.843
			h109.134h9.922v19.843H238.113z M357.168,500.315H238.113v-19.843h119.056V500.315z M238.113,401.103h119.056v19.843H238.113
			V401.103z M218.27,440.788h119.056v19.843H218.27V440.788z M218.27,540.001v-19.843h119.056v19.843H218.27z M357.168,698.742
			H238.113v-19.843h119.056V698.742z M416.696,480.473c0-32.876,26.651-59.527,59.528-59.527s59.528,26.651,59.528,59.527
			c0,32.877-26.651,59.528-59.528,59.528S416.696,513.35,416.696,480.473z M416.696,559.844h119.057v19.843H416.696V559.844z
			 M555.595,698.742H436.538v-19.843h119.057V698.742z M555.595,659.058H436.538v-19.843h119.057V659.058z M555.595,619.372H436.538
			v-19.843h109.135h9.922V619.372z"/>
	</g>
</g>
<g>
	<g>
		<path d="M496.067,480.473c0,10.96-8.883,19.843-19.843,19.843v19.843c21.918,0,39.686-17.768,39.686-39.686H496.067z"/>
	</g>
</g>
<g>
	<g>
		<path d="M436.538,480.473h19.843c0-10.959,8.884-19.842,19.843-19.842v-19.843C454.307,440.788,436.538,458.556,436.538,480.473z"
			/>
	</g>
</g>
<g>
	<g>
		<path d="M537.339,182.833c-16.037-2.751-28.601-15.313-31.352-31.352c0-5.479-4.441-9.921-9.921-9.921s-9.921,4.442-9.921,9.921
			c-2.751,16.038-15.314,28.601-31.352,31.352c-5.479,0-9.922,4.442-9.922,9.921s4.442,9.921,9.922,9.921
			c16.037,2.75,28.601,15.313,31.352,31.351c0,5.479,4.441,9.921,9.921,9.921s9.921-4.442,9.921-9.921
			c2.751-16.038,15.314-28.601,31.352-31.351c5.479,0,9.922-4.442,9.922-9.921S542.819,182.833,537.339,182.833z M496.067,206.942
			c-3.85-5.535-8.652-10.338-14.188-14.188c5.535-3.85,10.338-8.653,14.188-14.188c3.85,5.535,8.652,10.338,14.188,14.188
			C504.719,196.604,499.916,201.407,496.067,206.942z"/>
	</g>
</g>
<g>
	<g>
		<path d="M140.487,401.103c-16.038-2.751-28.602-15.313-31.352-31.352c0-5.479-4.442-9.921-9.922-9.921
			c-5.479,0-9.921,4.442-9.921,9.921c-2.751,16.038-15.313,28.601-31.352,31.352c-5.479,0-9.922,4.442-9.922,9.921
			c0,5.479,4.442,9.922,9.922,9.922c16.038,2.75,28.601,15.313,31.352,31.352c0,5.479,4.442,9.921,9.921,9.921
			c5.479,0,9.922-4.442,9.922-9.921c2.75-16.038,15.313-28.602,31.352-31.352c5.479,0,9.921-4.442,9.921-9.922
			C150.407,405.545,145.965,401.103,140.487,401.103z M99.213,425.211c-3.85-5.534-8.652-10.338-14.188-14.188
			c5.535-3.85,10.338-8.652,14.188-14.187c3.85,5.535,8.653,10.337,14.188,14.187C107.866,414.873,103.063,419.677,99.213,425.211z"
			/>
	</g>
</g>
<g>
	<g>
		<polygon points="565.516,361.417 565.516,331.653 545.673,331.653 545.673,361.417 515.909,361.417 515.909,381.26 
			545.673,381.26 545.673,411.023 565.516,411.023 565.516,381.26 595.28,381.26 595.28,361.417 		"/>
	</g>
</g>
<g>
	<g>
		<path d="M158.741,301.889v-9.921h-19.843v9.921c0,32.876,26.651,59.528,59.528,59.528v-19.843
			C176.509,341.574,158.741,323.807,158.741,301.889z"/>
	</g>
</g>
</svg>
