<?xml version="1.0" encoding="utf-8"?>
<!-- Generator: Adobe Illustrator 16.0.0, SVG Export Plug-In . SVG Version: 6.00 Build 0)  -->
<!DOCTYPE svg PUBLIC "-//W3C//DTD SVG 1.1//EN" "http://www.w3.org/Graphics/SVG/1.1/DTD/svg11.dtd">
<svg version="1.1" xmlns="http://www.w3.org/2000/svg" xmlns:xlink="http://www.w3.org/1999/xlink" x="0px" y="0px"
	 width="442.695px" height="320.977px" viewBox="0 0 442.695 320.977" enable-background="new 0 0 442.695 320.977"
	 xml:space="preserve">
<g id="background">
	<path fill="#D0DBFC" d="M393.161,309.695c0,5.419-79.633,11.281-175.04,11.281s-173.236-4.881-173.236-10.3
		S393.161,304.276,393.161,309.695z"/>
	<image overflow="visible" width="273" height="243" xlink:href="E29E5F2.png"  transform="matrix(1 0 0 1 170.3472 68.3682)">
	</image>
	<image overflow="visible" width="243" height="216" xlink:href="E29E5F6.png"  transform="matrix(1 0 0 1 -0.6528 95.3682)">
	</image>
</g>
<g id="background_2">
	<g id="Layer_22">
		<g>
			<path fill="#84C4E2" d="M319.742,116.704c0,0-7.345,3.05-17.438,9.857c-1.706,1.15-3.767,17.028-3.767,17.028
				s-1.656-13.842-2.636-13.074c-6.511,5.104-13.792,11.806-20.768,20.052c-0.783,0.925,7.822,11.652,7.048,12.617
				c-0.855,1.066-11.089-7.624-11.93-6.51c-10.317,13.673-37.265,51.221-41.167,71.81l27.458,11.321
				c32.577,3.244,43.198-7.84,47.237-16.131c0.715-1.467-27.398-5.299-27.398-5.299s30.876-1.976,31.527-3.38
				c4.805-10.351,9.776-22.009,13.234-32.426c0.519-1.562-32.019-0.203-31.574-1.699c0.196-0.661,33.405-4.206,33.586-4.852
				c1.373-4.918,2.269-9.38,2.474-13.062c0.069-1.255-25.428,0.354-25.428,0.354s25.226-5.678,25.598-9.056
				C327.041,142.979,323.852,130.363,319.742,116.704z"/>
		</g>
		<g>
			<path fill="#AEE4F4" d="M275.409,210.799l23.981-50.901c-0.081-0.599-0.138-1.204-0.207-1.804
				c-0.241-2.072-0.461-4.146-0.694-6.218c-0.575-5.105-0.904-10.239-1.547-15.338c-0.77-6.109-1.04-6.022-1.04-6.022
				c0.765-0.36,1.343,3.874,1.626,5.404c0.444,2.402,0.682,4.529,1.057,6.943c0.745,4.802,1.472,9.596,2.03,14.424
				c0.001,0.003,0.001,0.006,0.001,0.01l19.126-40.593c0,0-9.732,23.881-18.72,44.712c0.064-0.022,0.133-0.044,0.195-0.067
				c0.7-0.263,17.005-0.965,24.58-7.305l-0.215,0.778c-7.467,7.384-24.752,8.386-25.381,8.49c-3.04,7.022-4.083,9.184-7.16,15.899
				c0.37,0.063,0.87-0.07,1.22-0.112c0.682-0.083,1.362-0.166,2.044-0.249c2.401-0.294,4.804-0.587,7.206-0.879
				c5.57-0.678,11.162-1.145,16.741-1.735c1.304-0.139,2.209-0.146,2.209-0.146s-5.508,1.177-9.14,1.804
				c-5.471,0.946-10.952,1.813-16.44,2.652c-0.769,0.118-1.538,0.235-2.307,0.354c-0.808,0.125-1.621,0.288-2.297-0.028
				C284.815,197.055,278.057,210.114,275.409,210.799z"/>
		</g>
		<g>
			<path fill="#4E9DC4" d="M307.91,214.995l-34.719,2.027l-0.374,1.816C272.817,218.839,299.947,216.632,307.91,214.995z"/>
		</g>
		<path fill="#AEE4F4" d="M275.134,150.567l18.515,23.196l-2.117,4.397C291.532,178.16,274.783,153.108,275.134,150.567z"/>
	</g>
	<g id="Layer_18">
		<g>
			<path fill="#F7AB61" d="M79.064,89.123c0,0,9.109,4.792,21.315,14.735c2.063,1.68-1.352,37.076-1.352,37.076
				s7.965-32.337,9.137-31.234c8.056,7.581,16.971,17.455,25.216,29.402c0.537,0.779-6.359,11.234-5.828,12.031
				c13.069,19.589,31.588,34.804,34.388,64.073c0,0,1.924,17.899-0.043,16.738c-1.968-1.161-51.042,38.232-51.042,38.232
				s-6.556-10.582-14.372-24.309c-1.04-1.826,18.897-10.963,17.826-12.883c-0.751-1.346-22.505,4.546-23.262,3.169
				c-7.882-14.348-15.821-30.076-18.96-40.367c-0.397-1.303,20.735-1.227,20.362-2.592c-0.444-1.628-22.791-6.427-22.791-6.427
				c-2.631-11.225-4.262-24.304-3.718-38.981c0.06-1.619,28.443,4.229,28.443,4.229s-27.854-13.298-27.622-15.418
				C68.354,122.06,72.129,106.164,79.064,89.123z"/>
		</g>
		<g>
			<path fill="#FFC68D" d="M79.064,89.123c0,0,9.109,4.792,21.315,14.735c2.063,1.68-1.352,37.076-1.352,37.076
				s7.965-32.337,9.137-31.234c8.056,7.581,16.971,17.455,25.216,29.402c0.553,0.802-3.716,7.558-3.168,8.379
				c13.049,19.579,28.933,38.492,31.729,67.725c0,0,1.924,17.899-0.043,16.738c-1.968-1.161-43.632-28.388-43.632-28.388
				L79.064,89.123z"/>
		</g>
		<g>
			<path fill="#FFE2CF" d="M79.064,89.123c0,0,29.215,93.397,32.381,102.384c0.787,2.224-40.446-4.316-41.787-4.739
				c0.08,0.136,41.249,13.438,42.574,6.963c7.693,21.663,9.437,20.269,12.771,21.463L79.064,89.123z"/>
		</g>
		<g>
			<path fill="#FFE2CF" d="M76.321,142.914c0.332,0.015,23.623,11.247,23.623,11.247l1.118,2.538L76.321,142.914z"/>
		</g>
		<g>
			<polygon fill="#FFE2CF" points="103.939,122.026 97.957,144.878 98.247,147.508 			"/>
		</g>
	</g>
	<g id="Layer_23">
		<g>
			<path fill="#9D99E5" d="M158.996,301.158c-6.427,6.11-27.931,2.979-44.171-3.427c-3.788-1.494-8.524-3.618-13.752-6.533
				c3.395-0.188,24.722-2.629,19.56-34.35c-0.229-1.41-17.393,16.539-19.97,34.12c-6.995-3.936-14.146-8.604-24.932-18.831
				c-2.489-2.36-10.693-11.766-15.42-19.316c3.182-1.551,17.576-9.55,25.633-30.753c0.501-1.319-24.644,6.772-26.198,29.834
				c-4.231-6.911-7.968-14.735-10.898-23.594c0.031-0.011,0.071-0.026,0.105-0.039c-0.091-0.247-0.171-0.497-0.241-0.75
				c-0.04-0.147-0.073-0.298-0.108-0.446c-0.008,0.125-0.024,0.244-0.031,0.371c-1.772-5.494-3.236-11.379-4.321-17.682
				c1.4-1.481,6.134-8.316,1.577-29.896c-0.28-1.324-7.415,10.019-2.909,27.035c1.064,7.104,2.6,13.699,4.516,19.819
				c-20.108-15.69-29.02,0.204-29.02,0.204c11.332,4.524,27.365,1.284,29.159,0.23c2.987,9.418,6.873,17.698,11.306,24.977
				c0.02,0.015,1.519,2.417,1.783,2.826c4.799,7.364,10.145,13.651,15.647,18.976c-0.002,0.02-0.007,0.039-0.009,0.06
				c0,0,0.024,0,0.07-0.001c0.21,0.203,0.421,0.401,0.632,0.602c-24.007-5.283-38.975,4.442-38.975,4.442
				c17.903,11.502,36.937-0.331,40.071-3.412c6.016,5.571,12.149,10.027,17.895,13.578c1.152,0.473,2.211,1.153,3.191,1.93
				c0.002-0.003,0.005-0.006,0.007-0.009c5.845,3.366,11.15,5.765,15.317,7.408c11.974,4.724,22.966,6.761,31.269,6.761
				c6.576,0,11.464-1.278,13.811-3.51L158.996,301.158z"/>
		</g>
		<g>
			<g>
				<path fill="#726AE4" d="M99.192,291.123c-17.111-7.298-34.224,3.337-34.224,3.337c16.775,9.715,30.324,1.063,34.187-2.78
					C99.885,291.047,99.214,291.162,99.192,291.123z"/>
			</g>
			<g>
				<path fill="#726AE4" d="M70.813,200.807c0.485-1.275-19.633,5.607-22.241,26.638c0.104,0.043,0.178,0.589,0.275,0.864
					C52.33,226.749,63.389,220.345,70.813,200.807z"/>
			</g>
			<g>
				<path fill="#726AE4" d="M59.953,253.821c-19.876-16.626-33.285-2.448-33.285-2.448c11.502,5.69,29.59,4.748,33.982,3.585
					c0,0-0.675-1.021-0.689-1.121C59.96,253.829,59.959,253.826,59.953,253.821z"/>
			</g>
			<g>
				<path fill="#726AE4" d="M96.312,239.627c-0.222-1.361-15.557,17.188-18.995,34.151c0.127-0.013,0.323,0.15,0.526,0.334
					C83.983,273.168,100.878,267.687,96.312,239.627z"/>
			</g>
		</g>
	</g>
	<g id="Layer_20">
		<g>
			<path fill="#F7AB61" d="M256.271,250.227c5.24,4.909,22.632,2.248,35.741-3.034c3.059-1.232,6.881-2.98,11.097-5.37
				c-2.75-0.133-20.031-1.983-16.039-27.695c0.178-1.144,14.18,13.287,16.369,27.506c5.64-3.228,11.402-7.048,20.075-15.393
				c2.001-1.926,8.588-9.589,12.37-15.729c-2.585-1.236-14.286-7.628-20.935-24.748c-0.413-1.064,19.992,5.338,21.387,24
				c3.385-5.62,6.364-11.977,8.685-19.166c-0.025-0.009-0.058-0.021-0.086-0.031c0.072-0.2,0.137-0.403,0.19-0.608
				c0.032-0.12,0.058-0.241,0.086-0.362c0.007,0.102,0.021,0.198,0.027,0.301c1.402-4.459,2.553-9.232,3.394-14.341
				c-1.143-1.191-5.015-6.697-1.452-24.196c0.218-1.073,6.062,8.067,2.514,21.872c-0.819,5.758-2.024,11.106-3.539,16.072
				c16.188-12.821,23.496-0.006,23.496-0.006c-9.147,3.729-22.147,1.201-23.605,0.358c-2.363,7.643-5.461,14.369-9.007,20.289
				c-0.017,0.012-1.216,1.965-1.428,2.298c-3.842,5.991-8.132,11.112-12.556,15.456c0.002,0.016,0.006,0.031,0.008,0.047
				c0,0-0.02,0.001-0.058,0c-0.169,0.166-0.338,0.328-0.507,0.491c19.405-4.419,31.581,3.366,31.581,3.366
				c-14.428,9.419-29.907-0.05-32.463-2.525c-4.838,4.546-9.777,8.189-14.408,11.099c-0.93,0.39-1.783,0.946-2.572,1.581
				c-0.002-0.003-0.004-0.005-0.006-0.008c-4.713,2.76-8.993,4.733-12.357,6.089c-9.666,3.895-18.555,5.608-25.276,5.657
				c-5.323,0.039-9.289-0.967-11.202-2.76L256.271,250.227z"/>
		</g>
		<g>
			<g>
				<path fill="#FFCDA4" d="M305.034,241.98c0.443-0.248,0.929-0.491,1.447-0.503c0.353-0.008,0.42-0.435,0.218-0.614
					c0.237-0.166,0.475-0.332,0.701-0.515c0.032-0.026,0.056-0.057,0.073-0.089c17.657-2.566,24.886,3.989,24.886,3.989
					c-13.524,7.965-24.545,1.039-27.695-2.049C304.787,242.126,304.908,242.05,305.034,241.98z"/>
			</g>
			<g>
				<path fill="#FFCDA4" d="M327.075,168.46c-0.399-1.029,15.929,4.424,18.164,21.436c-0.084,0.035-0.141,0.478-0.218,0.701
					C342.192,189.354,333.202,184.235,327.075,168.46z"/>
			</g>
			<g>
				<path fill="#FFCDA4" d="M336.18,211.318c15.994-13.578,26.934-2.179,26.934-2.179c-9.278,4.675-23.929,4.019-27.492,3.103
					c0,0,0.541-0.831,0.552-0.911C336.174,211.324,336.174,211.322,336.18,211.318z"/>
			</g>
			<g>
				<path fill="#FFCDA4" d="M306.66,200.04c0.172-1.104,12.696,13.823,15.579,27.538c-0.103-0.01-0.26,0.124-0.423,0.273
					C316.838,227.123,303.128,222.785,306.66,200.04z"/>
			</g>
		</g>
	</g>
	<g id="_x2B_">
		<g>
			<g>
				<path fill="#736BE5" d="M370.064,310.354H267.231c-6.316,0-11.437-5.12-11.437-11.436v-55.534
					c0-6.316,5.12-11.437,11.437-11.437h102.833c6.316,0,11.437,5.12,11.437,11.437v55.534
					C381.5,305.234,376.38,310.354,370.064,310.354z"/>
			</g>
		</g>
		<g>
			<g>
				<path fill="#9D99E5" d="M357.948,310.677H255.115c-6.316,0-11.437-5.12-11.437-11.437v-55.534
					c0-6.315,5.12-11.436,11.437-11.436h102.833c6.316,0,11.437,5.12,11.437,11.436v55.534
					C369.384,305.557,364.264,310.677,357.948,310.677z"/>
			</g>
		</g>
		<g>
			<g>
				<path fill="#9D99E5" d="M312.774,254.677h-19.336c-12.354,0-22.407-10.052-22.407-22.407c0-12.354,10.053-22.405,22.407-22.405
					h19.336c12.355,0,22.407,10.051,22.407,22.405C335.181,244.625,325.129,254.677,312.774,254.677z M293.438,219.412
					c-7.091,0-12.86,5.768-12.86,12.857c0,7.091,5.77,12.86,12.86,12.86h19.336c7.091,0,12.86-5.77,12.86-12.86
					c0-7.09-5.77-12.857-12.86-12.857H293.438z"/>
			</g>
		</g>
		<g>
			<g>
				<path fill="#BDBDFF" d="M243.678,247.898L243.678,247.898c0-8.81,7.141-15.95,15.95-15.95h99.895
					c8.809,0,10.405,6.328,9.861,15.95l0,0H243.678z"/>
			</g>
		</g>
		<g>
			<g>
				<path fill="#FFFFFF" d="M323.833,271.341h-13.335v-11.219c0-2.191-1.776-3.968-3.968-3.968s-3.968,1.776-3.968,3.968v11.219
					h-13.335c-2.19,0-3.967,1.776-3.967,3.968l0,0c0,2.191,1.776,3.968,3.967,3.968h13.335v15.45c0,2.191,1.776,3.968,3.968,3.968
					s3.968-1.776,3.968-3.968v-15.45h13.335c2.191,0,3.968-1.776,3.968-3.968l0,0C327.801,273.117,326.025,271.341,323.833,271.341z
					"/>
			</g>
		</g>
	</g>
</g>
<g id="phone">
	<path fill="#0065AA" d="M250.785,310.533H129.43c-11.907,0-21.56-9.653-21.56-21.561V21.56C107.87,9.653,117.523,0,129.43,0
		h121.354c11.907,0,21.56,9.653,21.56,21.56v267.413C272.344,300.88,262.692,310.533,250.785,310.533z"/>
	<g>
		<defs>
			<path id="SVGID_1_" d="M252.625,304.068H128.022c-7.573,0-13.713-6.14-13.713-13.713V20.716c0-7.573,6.14-13.713,13.713-13.713
				h124.602c7.573,0,13.713,6.14,13.713,13.713v269.64C266.337,297.929,260.198,304.068,252.625,304.068z"/>
		</defs>
		<clipPath id="SVGID_2_">
			<use xlink:href="#SVGID_1_"  overflow="visible"/>
		</clipPath>
		<g clip-path="url(#SVGID_2_)">
			<image overflow="visible" width="182" height="298" xlink:href="E29E5F1.png"  transform="matrix(1 0 0 1 104.3472 6.3682)">
			</image>
		</g>
	</g>
	<path fill="#0065AA" d="M224.063,16.126h-66.905c-3.975,0-7.197-3.222-7.197-7.197V4.205h81.299v4.724
		C231.26,12.904,228.039,16.126,224.063,16.126z"/>
</g>
<g id="chat">
	<path fill="#6F6FD8" d="M361.532,52.718c-2.267-22.104-42.193-28.225-80.45-23.69c-38.256,4.534-39.739,13.205-38.751,39.303
		c0.324,8.566,2.678,15.361,6.492,20.719c-2.347,8.018-11.781,9.668-10.472,10.927c6.741,6.474,18.616,0.532,21.477-1.052
		c18.461,10.835,47.718,9.252,68.832,6.274C356.714,101.241,364.017,76.947,361.532,52.718z"/>
	<circle fill="#FFFFFF" cx="281.082" cy="66.753" r="4.058"/>
	<circle fill="#FFFFFF" cx="301.136" cy="66.753" r="4.058"/>
	<circle fill="#FFFFFF" cx="320.422" cy="66.753" r="4.058"/>
</g>
<g id="accent_1_">
	<g id="Layer_13">
		<path fill="#5DCEC1" d="M177.26,127.239c0.408-0.646,15.947,7.155,33.407-3.047s7.259,97.206,7.259,97.206l-1.417,55.749
			l-1.984,26.921h-43.499l-8.927-84.73C162.099,219.338,171.191,136.853,177.26,127.239z"/>
		<path fill="#FFFFFF" d="M255.821,143.088c-7.105-6.108-39.814-18.517-39.814-18.517l-5.34,9.539c0,0,1.733,118.313,0.839,142.683
			l-0.012,27.275h39.917l0.201-61.609c11.544-2.929,20.414-7.794,25.29-13.131c5.532-6.058,6.868-9.475,6.868-17.528
			C283.77,203.747,262.926,149.197,255.821,143.088z"/>
		<path fill="#FFFFFF" d="M173.667,231.334c0.375-0.609,0.582-0.944,0.582-0.944V125.634c0,0-32.709,12.408-39.814,18.517
			c-7.106,6.109-27.77,62.603-27.965,70.653c-0.779,31.951,27.008,72.262,27.008,72.262s0.95-0.403,2.597-1.563
			c-0.542,7.443-1.463,18.566-1.463,18.566h43.359c0,0,0.143-33.108,0-34.62C177.885,268.551,175.549,247.926,173.667,231.334z"/>
		<g>
			<g>
				<path fill="#D5E1ED" d="M243.241,202.822l-7.307,4.333c-0.167,0.1-0.375,0.103-0.545,0.007l-7.722-4.343
					c-0.172-0.096-0.278-0.277-0.278-0.475v-16.189c0-0.301,0.244-0.545,0.546-0.545h15.027c0.302,0,0.546,0.244,0.546,0.545v16.197
					C243.508,202.546,243.407,202.724,243.241,202.822z"/>
			</g>
		</g>
		<g>
			<g>
				<path fill="#B8DDFF" d="M243.241,202.822l-7.307,4.333c-0.167,0.1-0.375,0.103-0.545,0.007l-7.722-4.343
					c-0.172-0.096-0.278-0.277-0.278-0.475v-12.918c0-0.301,0.244-0.545,0.546-0.545h15.027c0.302,0,0.546,0.244,0.546,0.545v12.926
					C243.508,202.546,243.407,202.724,243.241,202.822z"/>
			</g>
		</g>
		<g opacity="0.5">
			<g>
				<path fill="#8FA7D7" d="M211.505,277.855v-51.185V115.466c0,0,1.375,2.522,6.4,7.616c6.285,6.371,11.668,15.985,11.668,15.985
					l-11.348-2.196l14.74,14.833l-11.089,65.187l-7.848,1.171l4.965,15.775L211.505,277.855z"/>
			</g>
		</g>
		<g opacity="0.5">
			<path fill="#8FA7D7" d="M169.253,122.984c-6.285,6.371-11.668,15.985-11.668,15.985l11.347-2.196l-14.74,14.833L177.97,274.55
				l-2.318-159.182C175.652,115.368,174.278,117.891,169.253,122.984z"/>
		</g>
		<g>
			<g>
				<path fill="#FFFFFF" d="M211.505,271.055L211.505,271.055l-2.466-156.843c0,0,2.552,1.095,7.577,6.188
					c6.286,6.371,10.491,17.413,10.491,17.413l-11.347-2.196L230.5,150.45l-10.563,67.071l-5.413,1.249l3.963,7.954L211.505,271.055
					z"/>
			</g>
		</g>
		<g>
			<g>
				<path fill="#FFFFFF" d="M177.97,269.448V114.211c0,0-2.552,1.095-7.577,6.188c-6.285,6.371-10.491,17.413-10.491,17.413
					l11.348-2.196l-14.741,14.833L177.97,269.448z"/>
			</g>
		</g>
		<path fill="#38A595" d="M195.615,282.12c-9.896,0-17.468-1.486-17.582-1.511l0-0.912c0.17,0.035,17.412,3.437,33.472-0.044v0.914
			C206.065,281.747,200.602,282.12,195.615,282.12z"/>
		<g>
			<path fill="#38A595" d="M193.429,141.617c-8.939,0-15.357-3.123-15.459-3.174v-1.097c0.154,0.077,15.987,7.596,31.422-0.684
				l0.017,1.064C203.782,140.746,198.352,141.617,193.429,141.617z"/>
		</g>
		<path opacity="0.5" fill="#8FA7D7" d="M120.867,214.851c0,0,11.808,2.268,17.948,8.407
			C138.815,223.258,123.512,215.607,120.867,214.851z"/>
		<path fill="#FFCCA9" d="M152.173,267.478l2.477,3.002c0,0-4.983,12.193-10.514,18.624l-4.485-6.239
			C139.65,282.864,146.549,277.607,152.173,267.478z"/>
		<path opacity="0.5" fill="#8FA7D7" d="M134.848,214.851c0.283,0.473,4.25,4.251,5.573,7.935l-6.234-7.084L134.848,214.851z"/>
		<path opacity="0.5" fill="#8FA7D7" d="M147.411,173.855c-0.03-0.566-3.628,46.975-5.167,53.194l11.948,36.542
			c0,0-6.309,14.264-18.117,21.91c0,0,7.558-1.129,19.459-17.564c0,0-5.951,17.003-14.358,24.182c0,0,13.225-7.84,17.097-31.645
			l-12.469-33.425C145.805,227.05,147.978,184.435,147.411,173.855z"/>
		<polygon opacity="0.5" fill="#8FA7D7" points="251.612,242.459 245.861,244.12 246.739,249.273 251.612,247.393 		"/>
		<path opacity="0.5" fill="#8FA7D7" d="M250.23,206.784l0.004-0.003l-4.373-35.811l1.357,36.946
			c-14.669,5.57-30.474,12.224-30.474,12.224s8.396-2.163,18.705-4.912s29.471-13.508,29.471-13.508
			C261.011,202.873,255.791,204.71,250.23,206.784z"/>
	</g>
	<g id="Layer_26">
		<path opacity="0.1" fill="#8FA7D7" d="M270.51,171.873c0,0,9.234,24.855,9.333,40.994c0.037,6.001-3.391,10.96-5.856,12.752
			c-24.045,17.479-53.692,18.1-53.692,18.1s-0.244,4.004-0.811,4.76c0,0,52.48-3.476,62.513-26.203c0,0,2.28-3.621,1.763-9.313
			C282.784,202.235,276.821,187.174,270.51,171.873z"/>
		<path opacity="0.1" fill="#8FA7D7" d="M124.354,162.737c0.367-0.954-14.957,38.069-14.821,52.113
			c0.283,29.485,22.055,66.679,26.542,70.651l-2.597,1.563c0,0-28.904-42.932-27.008-72.262
			C106.844,209.006,107.548,206.443,124.354,162.737z"/>
	</g>
	<g id="Layer_21">
		<path fill="#AE376D" d="M219.625,248.242c1.7-17.286-3.27-27.936-2.692-28.196c5.612-2.529,19.559-8.013,30.794-12.368
			l0.479-25.463l-57.388-2.322l-1.303,84.766l57.184-2.327l0.348-18.498C232.915,247.13,219.625,248.242,219.625,248.242z"/>
		<polygon fill="#A1B5BF" points="228.917,181.435 228.944,180.403 213.376,179.514 213.35,180.805 		"/>
		<circle fill="#A1B5BF" cx="215.038" cy="182.516" r="0.325"/>
		<circle fill="#A1B5BF" cx="227.498" cy="183.038" r="0.198"/>
	</g>
	<g id="Layer_6">
		<g>
			<g>
				<path fill="#F0BA92" d="M218.596,93.775c-1.634,5.893-4.523,10.407-5.776,10.06c0,0,0.882-3.752,2.06-9.753
					c1.365-6.961,1.559-11.87,4.407-11.605C220.581,82.597,220.23,87.883,218.596,93.775z"/>
			</g>
		</g>
		<g opacity="0.6">
			<g>
				<path fill="#D88D64" d="M216.406,91.337c-1.487,5.932-2.334,12.846-3.586,12.499c0,0,1.249-5.351,2.426-11.352
					c1.365-6.961,1.226-9.369,4.075-9.104C219.32,83.379,218.212,84.13,216.406,91.337z"/>
			</g>
		</g>
		<g>
			<g>
				<path fill="#F0BA92" d="M168.62,93.775c1.634,5.893,4.348,10.445,5.601,10.097c0,0-1.333-4.861-2.125-9.969
					c-1.087-7.01-1.319-11.691-4.167-11.427C166.635,82.597,166.986,87.883,168.62,93.775z"/>
			</g>
		</g>
		<g opacity="0.6">
			<g>
				<path fill="#D88D64" d="M169.93,90.698c1.487,5.932,3.038,13.529,4.291,13.182c0,0-1.333-6.106-2.509-12.107
					c-1.366-6.961-1.143-8.613-3.992-8.349C167.72,83.423,168.124,83.492,169.93,90.698z"/>
			</g>
		</g>
		<g>
			<g>
				<path fill="#F0BA92" d="M209.256,128.019c0,0-2.157,5.691-15.754,5.691c-13.598,0-15.539-5.349-15.539-5.349v-17.285h31.076
					L209.256,128.019z"/>
			</g>
		</g>
		<g opacity="0.6">
			<g>
				<path fill="#D88D64" d="M209.059,115.466c-2.806,5.862-13.784,10.466-15.558,10.466c-1.774,0-11.099-3.537-15.538-10.368v-9.021
					h31.076L209.059,115.466z"/>
			</g>
		</g>
		<g>
			<g>
				<path fill="#FFCCA9" d="M212.82,103.835c-5.179,17.019-19.318,17.303-19.318,17.303s-14.936-0.04-19.398-17.71
					c-2.944-11.658-10.03-29.513-1.536-42.744c4.808-7.488,39.762-10.481,43.879,0S215.856,93.856,212.82,103.835z"/>
			</g>
		</g>
		<g>
			<path fill="#FFFFFF" d="M201.102,103.207c0.572,0.478-1.192,6.633-7.588,6.7c-5.427,0.056-8.147-5.522-7.657-6.354
				c0.608-1.03,2.771-0.333,7.438-0.333S200.479,102.687,201.102,103.207z"/>
			<path fill="#D3976E" d="M193.435,110.224c-3.465,0-6.01-2.263-7.242-4.395c-0.49-0.848-0.907-1.934-0.61-2.438
				c0.497-0.843,1.656-0.77,3.765-0.638c1.047,0.066,2.35,0.148,3.946,0.148c1.906,0,3.433-0.088,4.66-0.159
				c1.924-0.109,2.889-0.167,3.352,0.22l0,0c0.438,0.366,0.102,1.48-0.063,1.942c-0.313,0.877-2.158,5.26-7.726,5.317
				C193.489,110.223,193.461,110.224,193.435,110.224z M187.558,103.307c-0.763,0-1.244,0.094-1.428,0.407
				c-0.068,0.146,0.068,0.968,0.813,2.127c0.568,0.883,2.708,3.749,6.49,3.749c0.026,0,0.051,0,0.077,0
				c3.698-0.039,5.614-2.187,6.426-3.465c0.811-1.274,1.019-2.432,0.937-2.693c-0.311-0.205-1.452-0.138-2.883-0.055
				c-1.235,0.071-2.771,0.16-4.696,0.16c-1.615,0-2.93-0.083-3.986-0.149C188.618,103.344,188.033,103.307,187.558,103.307z"/>
		</g>
		<g>
			<path fill="#D88D64" d="M193.523,98.011c-0.752-0.54-1.912-1.745-1.236-3.747c0.582-1.725,0.663-5.028,0.663-5.061l0.634,0.014
				c-0.003,0.139-0.083,3.434-0.697,5.25c-0.518,1.534,0.261,2.494,1.006,3.029L193.523,98.011z"/>
		</g>
		<path fill="#FFCCA9" d="M218.061,224.856l-5.86,0.89c-7.481,0.65-10.25-5.115-16.858-4.261c-6.609,0.854-5.82,3.478-5.82,3.478
			c-4.378,0.116-3.226,6.184-3.226,6.184c-2.071,3.081,0.084,6.64,0.084,6.64c-1.509,2.133,0.5,5.36,0.5,5.36
			c0.563,3.513,4.823,6.413,9.402,6.896c0.154,0.019,0.311,0.027,0.466,0.039c0.164,0.011,0.327,0.023,0.492,0.028
			c0.172,0.005,0.346,0.003,0.52-0.001c0.242-0.003,0.484-0.013,0.726-0.031c0.016-0.001,0.031,0,0.047-0.002l0,0
			c0.014-0.001,0.027-0.004,0.041-0.006c0.206-0.017,0.413-0.027,0.617-0.056c5.527-0.753,20.76-6.919,20.76-6.919
			C220.192,231.204,218.061,224.856,218.061,224.856z"/>
		<path fill="#D88D64" d="M189.523,224.963c0,0,3.794,0.743,5.848,0.884c2.053,0.141,6.822,0.929,7.939,1.203
			c0,0-6.167-0.515-7.98-0.63C193.95,226.332,188.947,225.017,189.523,224.963z"/>
		<path fill="#D88D64" d="M190.709,232.828c0,0-2.787-1.14-3.602-2.249c-0.815-1.11-0.85-2.373-0.869-2.289
			c-0.247,1.072,0.058,2.856,0.058,2.856L190.709,232.828z"/>
		<path fill="#D88D64" d="M190.818,239.435c0,0-2.646-1.175-3.726-2.029c-1.212-0.96-1.642-2.453-1.634-2.367
			c0.136,1.457,0.946,2.716,0.946,2.716L190.818,239.435z"/>
		<path fill="#D88D64" d="M191.32,244.813c0,0-2.646-1.175-3.725-2.03c-1.212-0.96-1.751-2.626-1.744-2.541
			c0.136,1.458,1.056,2.89,1.056,2.89L191.32,244.813z"/>
		<path fill="#D88D64" d="M190.073,223.412c0,0-0.67,1.543,0.541,1.754l0.195,0.276l-1.286-0.479
			C189.523,224.963,189.406,224.079,190.073,223.412z"/>
	</g>
	<g opacity="0.1">
		<g>
			<g>
				<path fill="#0E3368" d="M169.093,152.954l0.278-16.974l-1.421,0.275l-0.278,16.805c-7.688,1.316-9.229,14.972-9.492,32.385
					c0.001,0.003,0.001,0.006,0.002,0.008l-0.021,0.973c0,3.556,1.893,4.443,4.307,4.818c0.876,0.137,1.804,0.192,2.66,0.216
					c0.226,0.508,0.731,0.865,1.323,0.865c0.801,0,1.451-0.649,1.451-1.451v-1.184c0-0.802-0.649-1.451-1.451-1.451
					c-0.731,0-1.311,0.55-1.411,1.253c-1.926-0.096-4.303-0.511-5.073-1.934c-0.753-1.391-0.315-4.341-0.249-6.333
					c0.51-15.226,2.164-26.798,9.229-26.798c7.057,0,10.356,11.541,10.871,26.736c0.065,1.908,0.396,4.707-0.316,6.129
					c-0.646,1.289-2.384,1.856-4.112,2.091c-0.186-0.684-0.844-1.147-1.568-1.061c-0.795,0.097-1.362,0.819-1.266,1.615l0.142,1.176
					c0.096,0.795,0.819,1.362,1.615,1.266c0.605-0.073,1.076-0.51,1.225-1.063c2.769-0.384,5.904-1.608,5.804-5.238l-0.018-1.428
					c0.005-0.021,0.013-0.044,0.018-0.065C180.999,166.781,177.523,153.127,169.093,152.954z"/>
			</g>
		</g>
		<g>
			<g>
				<path fill="#0E3368" d="M237.964,166.672c-1.431-33.635-17.038-41.275-17.704-41.586c0,0,0.903,0.718,4.816,6.134
					c4.074,5.641,10.4,15.804,11.256,35.493c-3.367,0.472-5.961,3.356-5.961,6.854c0,3.826,3.102,6.928,6.928,6.928
					s6.929-3.102,6.929-6.928C244.228,169.964,241.478,167.007,237.964,166.672z"/>
			</g>
		</g>
		<polygon fill="#0E3368" points="246.97,243.819 246.688,262.459 194.849,264.441 194.849,264.441 194.77,270.992 250.234,268.642 
			250.234,243.013 		"/>
	</g>
	<g id="Layer_12">
		<g>
			<g>
				<path fill="#383F47" d="M179.377,182.827c-0.346-17.918-3.029-31.519-11.589-31.519c-8.697,0-11.296,14.046-11.573,32.38
					c0.001,0.003,0.002,0.005,0.003,0.008l-0.021,0.973c0,3.556,1.893,4.443,4.307,4.818c0.876,0.137,1.804,0.192,2.659,0.216
					c0.226,0.508,0.731,0.865,1.323,0.865c0.801,0,1.451-0.649,1.451-1.451v-1.185c0-0.801-0.65-1.45-1.451-1.45
					c-0.731,0-1.31,0.55-1.411,1.253c-1.926-0.096-4.303-0.511-5.073-1.934c-0.752-1.392-0.315-4.341-0.248-6.333
					c0.51-15.227,2.985-26.679,10.051-26.679c7.056,0,9.534,11.421,10.049,26.615c0.064,1.909,0.396,4.707-0.316,6.13
					c-0.646,1.289-2.384,1.856-4.111,2.09c-0.186-0.683-0.845-1.147-1.568-1.06c-0.795,0.097-1.362,0.819-1.266,1.615l0.143,1.175
					c0.096,0.796,0.819,1.362,1.614,1.267c0.605-0.073,1.076-0.51,1.225-1.064c2.769-0.383,5.904-1.608,5.804-5.238l-0.018-1.427
					C179.365,182.87,179.373,182.849,179.377,182.827z"/>
			</g>
		</g>
		<g>
			<g>
				<polygon fill="#383F47" points="167.95,152.049 166.529,152.049 166.529,136.53 167.95,136.255 				"/>
			</g>
		</g>
		<g>
			<g>
				<path fill="#383F47" d="M232.743,162.737c-0.734-20.145-7.165-30.474-11.288-36.18c-3.913-5.417-4.816-6.134-4.816-6.134
					c0.671,0.313,16.491,8.041,17.738,42.255L232.743,162.737z"/>
			</g>
		</g>
		<g>
			<g>
				<path fill="#1A2026" d="M233.657,163.118c-1.096-20.949-6.1-30.124-10.223-35.831c-3.913-5.416-6.818-6.888-6.818-6.888
					c0.672,0.313,16.514,8.684,17.761,42.897L233.657,163.118z"/>
			</g>
		</g>
		<g>
			<g>
				<circle fill="#BCBCBC" cx="233.679" cy="168.903" r="6.928"/>
			</g>
			<g>
				<path fill="#444444" d="M233.678,176.032c-3.931,0-7.129-3.198-7.129-7.129c0-3.932,3.198-7.13,7.129-7.13s7.13,3.198,7.13,7.13
					C240.808,172.834,237.609,176.032,233.678,176.032z M233.678,162.176c-3.709,0-6.726,3.018-6.726,6.728
					c0,3.709,3.017,6.727,6.726,6.727s6.727-3.018,6.727-6.727C240.405,165.193,237.387,162.176,233.678,162.176z"/>
			</g>
		</g>
		<g opacity="0.3">
			<g>
				<path fill="#FFFFFF" d="M237.115,175.172l-1.75-3.682l1.235-3.391l3.821-1.636C240.421,166.464,242.652,171.364,237.115,175.172
					L237.115,175.172z"/>
			</g>
		</g>
		<g>
			<g>
				<ellipse fill="#635B53" cx="233.673" cy="169.406" rx="3.115" ry="3.271"/>
			</g>
		</g>
		<g opacity="0.4">
			<g>
				<path fill="#FFFFFF" d="M232.584,161.73l0.382,4.204l-2.331,2.755l-4.151,0.214C226.484,168.903,226.073,163.389,232.584,161.73
					L232.584,161.73z"/>
			</g>
		</g>
		<g>
			<g>
				<circle fill="#D3D3D3" cx="233.679" cy="168.903" r="2.768"/>
			</g>
			<g>
				<path fill="#A8A6A0" d="M233.678,171.873c-1.638,0-2.97-1.333-2.97-2.97c0-1.638,1.332-2.971,2.97-2.971
					s2.971,1.333,2.971,2.971C236.649,170.54,235.316,171.873,233.678,171.873z M233.678,166.336c-1.416,0-2.566,1.151-2.566,2.567
					c0,1.415,1.15,2.566,2.566,2.566s2.567-1.151,2.567-2.566C236.246,167.487,235.094,166.336,233.678,166.336z"/>
			</g>
		</g>
		<g>
			<g>
				<circle fill="#BABABA" cx="233.673" cy="169.229" r="1.088"/>
			</g>
		</g>
		<g>
			<g>
				<circle fill="#FFFFFF" cx="233.673" cy="168.903" r="1.088"/>
			</g>
		</g>
		<g>
			<g>
				<path fill="#AAA9A2" d="M164.319,189.893h-0.305c-0.246,0-0.446-0.2-0.446-0.446v-1.911c0-0.246,0.2-0.446,0.446-0.446h0.305
					c0.247,0,0.446,0.2,0.446,0.446v1.911C164.765,189.692,164.565,189.893,164.319,189.893z"/>
			</g>
		</g>
		<g>
			<g>
				<path fill="#AAA9A2" d="M172.444,189.872l-0.303,0.028c-0.245,0.023-0.463-0.157-0.486-0.402l-0.18-1.902
					c-0.023-0.245,0.157-0.463,0.402-0.486l0.303-0.028c0.246-0.023,0.463,0.157,0.486,0.402l0.179,1.902
					C172.87,189.631,172.689,189.849,172.444,189.872z"/>
			</g>
		</g>
		<g opacity="0.4">
			<g>
				<path fill="#FFFFFF" d="M232.966,166.527c-1.604,0.532-1.706,2.006-1.706,2.006l1.556,0.114l0.411-0.411L232.966,166.527z"/>
			</g>
		</g>
		<g opacity="0.4">
			<g>
				<path fill="#FFFFFF" d="M235.161,170.935c1.321-1.055,0.907-2.472,0.907-2.472l-1.499,0.43l-0.244,0.527L235.161,170.935z"/>
			</g>
		</g>
	</g>
	<g id="Layer_4">
		<g>
			<g>
				<path fill="#2A445D" d="M170.971,92.01c0,0-2.99-11.843-3.522-17.824c-0.533-5.981-1.161-14.013,5.578-16.748
					c6.739-2.734,4.667,5.615,4.667,5.615s-5.329,3.584-6.395,12.559C170.718,80.487,170.971,92.01,170.971,92.01z"/>
			</g>
		</g>
		<g>
			<g>
				<path fill="#2A445D" d="M215.764,91.831c0,0,3.317-11.664,3.85-17.645c0.533-5.981,1.162-14.013-5.578-16.748
					c-6.739-2.734-4.667,5.615-4.667,5.615s5.33,3.584,6.396,12.559C216.344,80.487,215.764,91.831,215.764,91.831z"/>
			</g>
		</g>
		<g>
			<g>
				<path fill="#2A445D" d="M210.261,65.925c0,0-8.209,1.309-13.71-1.276c-1.611-0.757-9.431,2.57-13.025,1.898
					c-6.88-1.287-9.901-6.885-10.037-7.461c-0.396-1.685-2.043-4.085,2.931-7.816c6.88-5.16,15.366-3.908,16.787-5.418
					c1.421-1.51,2.849-2.433,5.596-2.158c7.373,0.737,7.734,5.063,11.88,5.711c5.396,0.844,7.217,3.02,7.567,7.55
					C218.917,65.574,210.261,65.925,210.261,65.925z"/>
			</g>
		</g>
		<g>
			<g>
				<path fill="#1F384C" d="M194.628,44.697c0,0-2.31,1.658-8.112,8.409c-5.803,6.75-8.823,6.336-9.475,6.454
					c0,0,5.008,0.864,10.303-6.099C192.64,46.498,194.628,44.697,194.628,44.697z"/>
			</g>
		</g>
		<g>
			<g>
				<path fill="#1F384C" d="M203.732,65.703c0,0,9.682,1.144,13.901-3.914c0,0-0.888,5.291-13.679,4.002L203.732,65.703z"/>
			</g>
		</g>
		<g>
			<g>
				<path fill="#1F384C" d="M187.811,65.845c-11.409,1.595-14.688-7.821-14.633-7.647c1.797,5.713,6.339,7.913,9.662,8.768
					c1.002,0.275,1.994,0.442,2.971,0.507c0.537,0.042,0.868,0.041,0.868,0.041s0.013-0.003,0.021-0.005
					c10.91,0.095,19.743-11.442,19.743-11.442C199.037,62.438,192.469,64.926,187.811,65.845z"/>
			</g>
		</g>
	</g>
	<g id="Layer_5">
		<g>
			<g>
				<defs>
					<circle id="SVGID_3_" cx="185.105" cy="86.861" r="4.826"/>
				</defs>
				<clipPath id="SVGID_4_">
					<use xlink:href="#SVGID_3_"  overflow="visible"/>
				</clipPath>
				<polygon clip-path="url(#SVGID_4_)" fill="#FFFFFF" points="186.633,92.158 190.402,88.389 190.402,92.158 				"/>
				<polygon clip-path="url(#SVGID_4_)" fill="#FFFFFF" points="181.784,92.158 179.808,90.182 179.808,85.333 183.577,81.563 
					188.427,81.563 190.402,83.539 190.402,88.389 186.633,92.158 				"/>
				<polygon clip-path="url(#SVGID_4_)" fill="#FFFFFF" points="183.577,81.563 179.808,85.333 179.808,81.563 				"/>
			</g>
		</g>
		<g>
			<g>
				<defs>
					<circle id="SVGID_5_" cx="202.314" cy="87.195" r="4.826"/>
				</defs>
				<clipPath id="SVGID_6_">
					<use xlink:href="#SVGID_5_"  overflow="visible"/>
				</clipPath>
				<polygon clip-path="url(#SVGID_6_)" fill="#FFFFFF" points="203.842,92.492 207.611,88.723 207.611,92.492 				"/>
				<polygon clip-path="url(#SVGID_6_)" fill="#FFFFFF" points="198.993,92.492 197.017,90.517 197.017,85.667 200.786,81.897 
					205.636,81.897 207.611,83.873 207.611,88.723 203.842,92.492 				"/>
				<polygon clip-path="url(#SVGID_6_)" fill="#FFFFFF" points="200.786,81.897 197.017,85.667 197.017,81.897 				"/>
			</g>
		</g>
		<g>
			<g>
				<path fill="#2A445D" d="M207.278,80.118c-1.394-0.962-2.98-1.393-4.684-1.141c-0.72,0.106-1.313-0.567-1.146-1.275l0,0
					c0.083-0.352,0.338-0.65,0.683-0.757c2.352-0.732,4.712-0.339,6.517,1.528c0.24,0.249,0.322,0.613,0.243,0.949l-0.016,0.068
					C208.708,80.199,207.879,80.532,207.278,80.118z"/>
			</g>
		</g>
		<g>
			<g>
				<g>
					<ellipse fill="#210601" cx="202.32" cy="87.138" rx="1.221" ry="1.554"/>
				</g>
			</g>
			<g>
				<g>
					<ellipse fill="#210601" cx="185.105" cy="87.012" rx="1.221" ry="1.554"/>
				</g>
			</g>
		</g>
		<g>
			<g>
				<path fill="#302420" d="M207.205,85.556c-0.672-2.067-2.596-3.576-4.885-3.576c-2.574,0-4.694,1.9-5.079,4.367
					c-0.002,0.001-0.004,0.002-0.006,0.003c-0.9-1.017-2.195-1.675-3.657-1.675c-1.328,0-2.525,0.538-3.41,1.397
					c-0.444-2.396-2.541-4.219-5.064-4.219c-2.29,0-4.212,1.509-4.885,3.577c-8.571-3.037-10.684-3.435-11.25-3.329
					c-0.169,0.032-0.313,0.286-0.342,0.426l0.442,0.179c0,0,0.076-0.11,0.088-0.111c0.745-0.086,6.074,1.648,10.9,3.355
					c-0.072,0.343-0.112,0.698-0.112,1.062c0,2.845,2.314,5.159,5.159,5.159c1.91,0,3.561-1.055,4.453-2.6
					c0.151-0.021,0.308-0.083,0.437-0.147c0.147-0.074,0.288-0.176,0.399-0.298c0.221-0.243,0.359-0.553,0.403-0.874
					c0.111-0.805-0.074-1.388-0.302-1.727c0.789-0.8,1.874-1.305,3.083-1.305c1.319,0,2.487,0.603,3.288,1.532
					c-0.197,0.35-0.339,0.897-0.239,1.626c0.044,0.321,0.182,0.631,0.403,0.874c0.111,0.123,0.252,0.225,0.399,0.298
					c0.129,0.064,0.287,0.126,0.438,0.147c0.892,1.545,2.543,2.6,4.452,2.6c2.845,0,5.159-2.314,5.159-5.159
					c0-0.364-0.04-0.719-0.112-1.062c4.9-1.735,10.223-3.505,10.83-3.358c-0.02-0.005,0.548-0.225,0.548-0.225
					C218.573,82.132,218.342,81.61,207.205,85.556z M185.105,91.626c-2.544,0-4.613-2.069-4.613-4.614
					c0-2.544,2.069-4.614,4.613-4.614c2.544,0,4.614,2.07,4.614,4.614C189.719,89.557,187.649,91.626,185.105,91.626z
					 M190.247,88.509c-0.055,0.113-0.124,0.218-0.221,0.304c-0.037,0.033-0.085,0.051-0.128,0.077
					c0.211-0.537,0.332-1.116,0.351-1.722c0.045,0.097,0.094,0.192,0.109,0.302C190.406,87.804,190.368,88.186,190.247,88.509z
					 M197.399,88.939c-0.097-0.086-0.166-0.191-0.221-0.304c-0.121-0.324-0.159-0.705-0.111-1.038
					c0.016-0.11,0.064-0.206,0.11-0.303c0.019,0.606,0.14,1.186,0.351,1.723C197.485,88.991,197.437,88.973,197.399,88.939z
					 M202.32,91.751c-2.543,0-4.613-2.069-4.613-4.613c0-2.544,2.07-4.614,4.613-4.614c2.544,0,4.614,2.069,4.614,4.614
					C206.934,89.682,204.864,91.751,202.32,91.751z"/>
			</g>
		</g>
		<g>
			<g>
				<path fill="#2A445D" d="M180.147,79.992c1.395-0.962,2.98-1.393,4.684-1.142c0.72,0.106,1.313-0.566,1.146-1.275l0,0
					c-0.083-0.352-0.338-0.65-0.683-0.757c-2.351-0.732-4.712-0.339-6.517,1.529c-0.24,0.248-0.322,0.613-0.243,0.949l0.016,0.067
					C178.717,80.073,179.546,80.406,180.147,79.992z"/>
			</g>
		</g>
	</g>
	<g id="Layer_16">
		<g>
			<g>
				<path fill="#1A2026" d="M157.571,183.49c0,0-1.346-27.355,7.892-30.908c2.107-0.811,4.091-0.318,5.537,0.444
					c4.892,2.579,6.109,11.945,6.484,16.195c0.486,5.508,1.236,13.518,0.263,15.76c0,0,0.344-12.725-1.788-22.007
					c-2.132-9.281-6.151-10.301-8.72-10.158c-2.568,0.144-5.557,3.025-7.224,8.648C158.348,167.088,157.571,183.49,157.571,183.49z"
					/>
			</g>
		</g>
		<g>
			<g>
				<path fill="#1A2026" d="M156.237,185.507c-0.004-0.095,0.64,2.417,3.098,2.984s3.741-0.756,3.741-0.756
					s-0.172,1.574,0.088,1.968C163.163,189.703,156.456,190.424,156.237,185.507z"/>
			</g>
		</g>
		<g>
			<g>
				<path fill="#1A2026" d="M179.369,183.643c-0.005-0.056,0.1,1.12-0.39,2.1c-0.859,1.717-1.634,1.8-2.542,2.279
					c-2.229,1.18-3.011-0.396-3.011-0.396s0.298,1.485,0.147,1.933C173.574,189.558,179.867,189.354,179.369,183.643z"/>
			</g>
		</g>
		<g>
			<g>
				<polygon fill="#1A2026" points="166.529,136.53 167.95,136.255 167.861,136.98 166.529,137.239 				"/>
			</g>
		</g>
	</g>
</g>
</svg>
