<?xml version="1.0" encoding="utf-8"?>
<!-- Generator: Adobe Illustrator 16.0.0, SVG Export Plug-In . SVG Version: 6.00 Build 0)  -->
<!DOCTYPE svg PUBLIC "-//W3C//DTD SVG 1.1//EN" "http://www.w3.org/Graphics/SVG/1.1/DTD/svg11.dtd">
<svg version="1.1" id="Capa_1" xmlns="http://www.w3.org/2000/svg" xmlns:xlink="http://www.w3.org/1999/xlink" x="0px" y="0px"
	 width="623.078px" height="477.501px" viewBox="-3.741 142.676 623.078 477.501"
	 enable-background="new -3.741 142.676 623.078 477.501" xml:space="preserve">
<g>
	<g>
		<path fill="#3E9FFF" d="M606.323,172.88c-3.48-1.716-7.636-1.311-10.72,1.046L429.784,300.718
			c-8.17,6.31-10.354,17.72-5.084,26.597l-26.164,7.133l-38.18-16.256c-0.666-0.287-1.361-0.5-2.072-0.637
			c-36.629-7-55.62-0.25-65.433,7.271H188.608c3.574-8.558,0.947-18.449-6.402-24.107L16.396,173.925
			c-3.082-2.359-7.235-2.766-10.715-1.047c-3.48,1.719-5.682,5.265-5.681,9.146v244.801c-0.001,3.66,1.96,7.041,5.14,8.854
			l63.133,36.068c3.068,1.76,6.544,2.684,10.08,2.68c5.189-0.016,10.178-1.998,13.959-5.551l11.833,9.453
			c-6.884,8.791-8.388,20.649-3.916,30.883c4.473,10.23,14.201,17.18,25.329,18.096c0.867,0.08,1.724,0.111,2.58,0.111
			c1.568-0.016,3.134-0.15,4.682-0.406c0.637,7.281,3.511,14.188,8.228,19.771l0.011,0.01c6.104,7.244,14.852,11.746,24.294,12.502
			c1.006,0.09,2.012,0.129,3.018,0.129c0.154,0,0.303-0.037,0.456-0.039c0.285,6.629,2.754,12.979,7.025,18.062
			c5.809,6.848,14.339,10.791,23.318,10.774c3.569-0.006,7.108-0.646,10.452-1.895c3.404,12.166,14.039,20.914,26.633,21.906
			c0.867,0.077,1.724,0.108,2.58,0.108c7.018,0.041,13.824-2.408,19.205-6.914l15.996-12.354l37.666,25.168
			c5.828,3.873,12.674,5.938,19.672,5.936c2.4,0.002,4.797-0.231,7.15-0.707c15.346-3.055,26.883-15.789,28.418-31.356
			c10.209,3.113,21.278,1.426,30.098-4.594c8.813-6.019,14.42-15.716,15.238-26.355c11.813,3.904,24.811,1.338,34.254-6.764
			c9.442-8.104,13.957-20.558,11.896-32.826c10.224-1.168,19.416-6.758,25.158-15.293c5.693-8.58,7.414-19.201,4.717-29.144
			l20.113-20.104l8.211,12.313c5.953,8.916,17.789,11.714,27.105,6.404l63.133-36.067c3.18-1.813,5.141-5.193,5.139-8.854V182.028
			C612,178.145,609.799,174.601,606.323,172.88z M78.392,454.038l-19.779-11.299l91.911-140.574l19.29,14.75L78.392,454.038z
			 M134.512,504.659c-1.999,1.746-4.631,2.586-7.271,2.317c-3.94-0.329-7.313-2.952-8.606-6.688
			c-1.293-3.736-0.262-7.883,2.63-10.58l25.51-19.723c1.794-1.529,4.077-2.367,6.434-2.361c0.279,0,0.557,0.01,0.837,0.031
			c3.941,0.332,7.316,2.959,8.608,6.694c1.293,3.738,0.261,7.89-2.632,10.584L134.512,504.659z M167.035,538.963
			c-6.087-0.502-11.294-4.578-13.245-10.365c-1.951-5.789-0.272-12.186,4.271-16.27l32.124-24.842
			c4.723-4.002,11.39-4.767,16.895-1.935c5.503,2.832,8.759,8.701,8.248,14.871c-0.291,3.775-1.993,7.305-4.767,9.885l-8.741,6.82
			l-23.636,18.271C175.095,538.034,171.079,539.319,167.035,538.963z M219.131,554.771l-0.023,0.021l-13.613,10.625
			c-2.019,1.713-4.636,2.555-7.275,2.336c-2.639-0.219-5.083-1.479-6.791-3.502l0,0c-1.722-2.012-2.562-4.633-2.331-7.27
			c0.174-2.511,1.313-4.853,3.177-6.535l23.844-18.609l7.035-5.438c0.078-0.064,0.13-0.148,0.208-0.218l7.203-5.618
			c1.791-1.531,4.069-2.373,6.425-2.371c0.283,0,0.565,0.014,0.846,0.041c3.948,0.332,7.326,2.965,8.614,6.713
			c1.287,3.746,0.241,7.896-2.667,10.588l-23.859,18.623L219.131,554.771z M270.718,565.858l-25.51,19.723
			c-1.991,1.76-4.629,2.602-7.271,2.322c-3.938-0.332-7.31-2.953-8.603-6.689c-1.294-3.729-0.268-7.877,2.619-10.576l0.466-0.36
			l25.051-19.367c4.146-3.5,10.325-3.051,13.923,1.008C274.99,555.975,274.691,562.165,270.718,565.858z M466.6,490.983
			c-4.668,6.905-13.985,8.852-21.024,4.383l-0.08-0.051l-66.988-46.302c-2.996-2.082-6.877-2.403-10.178-0.846
			c-3.299,1.559-5.514,4.764-5.807,8.4c-0.296,3.637,1.381,7.151,4.389,9.221l64.822,44.813l0.03,0.033
			c5.142,3.41,7.715,9.586,6.521,15.64c-1.197,6.053-5.926,10.782-11.979,11.981c-3.922,0.814-8.004,0.033-11.346-2.172
			l-67.037-46.26c-4.639-3.189-10.979-2.021-14.18,2.606c-3.199,4.634-2.043,10.98,2.584,14.188l48.963,33.779l0.016,0.018
			c7.07,4.965,9.009,14.604,4.402,21.914c-4.598,6.969-13.943,8.945-20.969,4.432L350.7,553.959l-0.01-0.006h-0.003l-18.387-13.049
			c-2.973-2.111-6.844-2.479-10.153-0.957c-3.314,1.52-5.566,4.688-5.908,8.315s1.274,7.162,4.25,9.273l18.912,13.418
			c0.909,0.736,1.774,1.529,2.594,2.369c5.77,5.473,6.399,14.44,1.457,20.67c-4.945,6.225-13.828,7.639-20.463,3.256l-33.597-22.451
			c5.703-8.805,6.426-19.938,1.911-29.408c-4.515-9.469-13.62-15.918-24.051-17.03c0.235-15.877-11.904-29.209-27.736-30.455
			c-1.309-0.078-2.623-0.066-3.93,0.033c-0.326-12.56-7.276-24-18.264-30.08c-10.989-6.08-24.376-5.894-35.188,0.5
			c-3.053-9.597-10.667-17.05-20.324-19.896c-9.656-2.85-20.097-0.723-27.87,5.676l-13.93,10.769l-15.886-12.693l71.329-106.983
			h89.531c-7.743,6.795-11.357,17.153-9.521,27.291c2.133,12.307,11.891,21.871,24.235,23.758
			c18.868,2.67,38.103-0.104,55.453-7.988l26.008,16.545c0.582,0.334,1.197,0.609,1.836,0.824l99.438,64.041
			c1.966,1.352,3.615,3.104,4.845,5.147c0.049,0.119,0.106,0.229,0.168,0.351C470.083,480.213,469.758,486.274,466.6,490.983z
			 M477.038,455.553c-1.082-1.047-2.23-2.024-3.437-2.93l-100.875-64.977c-0.465-0.226-0.942-0.41-1.438-0.56l-30.008-19.084
			c-3.197-2.032-7.26-2.131-10.549-0.25c-14.668,7.613-31.317,10.545-47.705,8.397c-3.823-0.452-6.879-3.391-7.48-7.192
			c-0.753-3.979,1.188-7.985,4.781-9.86c7.639-3.979,14.817-8.785,21.405-14.332c0.707-0.597,1.286-1.328,1.704-2.152
			c0.323-0.402,0.683-0.771,1.076-1.105c2.987-2.561,15.312-10.318,48.868-4.113l40.422,17.213c2.105,0.916,4.463,1.076,6.672,0.457
			l36.054-9.83l60.344,90.488L477.038,455.553z M533.608,454.038l-91.435-137.113l19.301-14.76l91.91,140.574L533.608,454.038z"/>
	</g>
</g>
<polygon fill="#3F3F3F" points="-3.741,443.438 -3.741,147.996 150.419,265.877 23.974,459.269 "/>
<polygon fill="#3F3F3F" points="619.337,439.356 591.507,455.254 464.535,261.052 619.337,142.676 "/>
</svg>
