<?xml version="1.0" encoding="utf-8"?>
<!-- Generator: Adobe Illustrator 16.0.0, SVG Export Plug-In . SVG Version: 6.00 Build 0)  -->
<!DOCTYPE svg PUBLIC "-//W3C//DTD SVG 1.1//EN" "http://www.w3.org/Graphics/SVG/1.1/DTD/svg11.dtd">
<svg version="1.1" xmlns="http://www.w3.org/2000/svg" xmlns:xlink="http://www.w3.org/1999/xlink" x="0px" y="0px"
	 width="498.669px" height="335.071px" viewBox="0 0 498.669 335.071" enable-background="new 0 0 498.669 335.071"
	 xml:space="preserve">
<g id="OBJECTS">
	<g>
		<g opacity="0.5">
			<g>
				<rect x="330.728" y="247.084" fill="#C4C5F3" width="4.833" height="2.036"/>
				<rect x="330.111" y="248.677" fill="#C4C5F3" width="6.065" height="0.886"/>
				<rect x="328.595" y="249.563" fill="#C4C5F3" width="9.099" height="2.301"/>
				<polygon fill="#C4C5F3" points="332.579,227.004 333.71,227.004 333.304,216.382 332.984,216.382 				"/>
				<path fill="#C4C5F3" d="M331.859,226.826v20.7h2.57v-20.7H331.859z M333.315,235.932h0.343v10.71h-0.343V235.932z
					 M332.63,235.932h0.343v10.71h-0.343V235.932z"/>
			</g>
			<rect x="190.87" y="286.586" fill="#C4C5F3" width="13.965" height="48.65"/>
			<polygon fill="#C4C5F3" points="280.308,335.236 280.308,242.186 246.5,226.483 233.962,226.483 233.962,223.712 
				233.474,223.712 233.474,248.291 230.907,248.291 230.907,231.767 217.09,231.767 217.09,248.291 214.777,248.291 
				214.777,273.762 212.177,273.762 212.177,335.236 			"/>
			<polygon fill="#C4C5F3" points="65.791,335.236 65.791,281.038 46.099,271.893 38.796,271.893 28.969,274.969 28.969,284.594 
				27.622,284.594 27.622,299.43 26.108,299.43 26.108,335.236 			"/>
			<rect x="164.973" y="281.798" fill="#C4C5F3" width="9.069" height="53.438"/>
			<rect x="154.208" y="273.399" fill="#C4C5F3" width="16.774" height="61.837"/>
			<rect x="138.841" y="285.229" fill="#C4C5F3" width="12.504" height="49.197"/>
			<rect x="163.027" y="227.455" fill="#C4C5F3" width="21.696" height="106.972"/>
			<rect x="321.492" y="236.957" fill="#C4C5F3" width="18.443" height="92.446"/>
			<rect x="330.052" y="254.326" fill="#C4C5F3" width="18.443" height="80.799"/>
			<path fill="#C4C5F3" d="M322.576,226.31v16.292h-12.538v-6.282h-6.853v-2.613h-3.642v2.613H282.32
				c-0.059,0.102-0.113,0.203-0.18,0.303v27.936h-7.214v70.679h48.796V226.31H322.576z"/>
			<polygon fill="#C4C5F3" points="65.212,335.236 65.212,281.983 67.84,285.478 75.016,285.478 75.016,271.411 75.294,271.411 
				75.294,285.478 76.764,285.478 76.764,276.021 84.671,276.021 84.671,285.478 85.995,285.478 85.995,300.055 87.483,300.055 
				87.483,335.236 			"/>
			<rect x="89.888" y="242.804" fill="#C4C5F3" width="13.965" height="92.433"/>
			<polygon fill="#C4C5F3" points="103.75,335.236 103.75,265.655 117.146,265.655 124.352,273.11 124.352,335.236 			"/>
			<g>
				<g>
					<polygon fill="#B8B5F2" points="219.501,286.586 219.501,289.456 220.506,289.456 220.506,295.214 223.911,295.214 
						223.911,335.235 206.093,335.235 206.093,286.586 					"/>
				</g>
				<g>
					<g>
						<rect x="179.963" y="252.921" fill="#FFFFFB" width="5.845" height="0.525"/>
						<rect x="178.502" y="253.446" fill="#D2D9F5" width="8.768" height="8.788"/>
					</g>
					<g>
						<g>
							<rect x="196.214" y="237.117" fill="#D5DEF5" width="1.173" height="43.486"/>
							<rect x="198.821" y="237.117" fill="#D5DEF5" width="1.173" height="43.486"/>
						</g>
						<rect x="184.347" y="249.782" fill="#E4F3F7" width="18.685" height="48.45"/>
						<polygon fill="#F3FFF9" points="214.96,281.784 193.968,281.784 193.968,267.201 						"/>
						<rect x="170.55" y="262.556" fill="#E4F3F7" width="25.261" height="72.68"/>
						<rect x="192.889" y="280.588" fill="#D5DEF5" width="23.15" height="54.647"/>
					</g>
				</g>
			</g>
			<g>
				<g>
					<polygon fill="#B8B5F2" points="494.595,299.689 494.595,301.928 495.378,301.928 495.378,306.418 498.033,306.418 
						498.033,337.634 484.137,337.634 484.137,299.689 					"/>
				</g>
				<g>
					<g>
						<rect x="463.757" y="273.432" fill="#FFFFFB" width="4.559" height="0.41"/>
						<rect x="462.617" y="273.842" fill="#D2D9F5" width="6.838" height="6.854"/>
					</g>
					<g>
						<g>
							<rect x="476.432" y="261.105" fill="#D5DEF5" width="0.915" height="33.918"/>
							<rect x="478.465" y="261.105" fill="#D5DEF5" width="0.915" height="33.918"/>
						</g>
						<rect x="467.176" y="270.983" fill="#E4F3F7" width="14.573" height="37.789"/>
						<polygon fill="#F3FFF9" points="491.053,295.943 474.68,295.943 474.68,284.569 						"/>
						<rect x="456.415" y="280.946" fill="#E4F3F7" width="19.702" height="56.688"/>
						<rect x="473.838" y="295.011" fill="#D5DEF5" width="18.056" height="42.623"/>
					</g>
				</g>
			</g>
			<g>
				<g>
					<polygon fill="#B8B5F2" points="3.182,308.461 3.182,310.182 2.579,310.182 2.579,313.634 0.538,313.634 0.538,337.634 
						11.222,337.634 11.222,308.461 					"/>
				</g>
				<g>
					<g>
						<rect x="23.386" y="288.273" fill="#FFFFFB" width="3.505" height="0.315"/>
						<rect x="22.509" y="288.589" fill="#D2D9F5" width="5.257" height="5.27"/>
					</g>
					<g>
						<g>
							<rect x="16.442" y="278.797" fill="#D5DEF5" width="0.704" height="26.076"/>
							<rect x="14.879" y="278.797" fill="#D5DEF5" width="0.704" height="26.076"/>
						</g>
						<rect x="13.058" y="286.392" fill="#E4F3F7" width="11.204" height="29.053"/>
						<polygon fill="#F3FFF9" points="5.905,305.581 18.493,305.581 18.493,296.837 						"/>
						<rect x="17.387" y="294.051" fill="#E4F3F7" width="15.148" height="43.583"/>
						<rect x="5.258" y="304.864" fill="#D5DEF5" width="13.882" height="32.77"/>
					</g>
				</g>
			</g>
			<g>
				<g>
					<rect x="248.077" y="196.378" fill="#BAB7F2" width="9.434" height="62.81"/>
					<rect x="240.792" y="198.748" fill="#D5DEF5" width="34.358" height="77.613"/>
				</g>
				<g>
					<g>
						<rect x="236.917" y="256.685" fill="#F3FFF9" width="6.237" height="1.662"/>
						<rect x="236.12" y="257.985" fill="#F3FFF9" width="7.83" height="0.723"/>
						<rect x="234.163" y="258.708" fill="#BAB7F2" width="11.745" height="12.099"/>
					</g>
					<polygon fill="#D5DEF5" points="253.518,229.743 253.518,335.236 280.308,335.236 280.308,242.186 					"/>
					<rect x="231.635" y="252.607" fill="#BAB7F2" width="15.958" height="82.629"/>
					<g>
						<rect x="243.528" y="260.719" fill="#C0C0F3" width="1.311" height="52.621"/>
						<rect x="240.615" y="260.719" fill="#C0C0F3" width="1.311" height="52.621"/>
						<rect x="237.702" y="260.719" fill="#C0C0F3" width="1.311" height="52.621"/>
						<rect x="234.789" y="260.719" fill="#C0C0F3" width="1.311" height="52.621"/>
					</g>
					<rect x="253.779" y="250.9" fill="#D5DEF5" width="9.221" height="9.793"/>
				</g>
			</g>
			<g>
				<g>
					<rect x="393.862" y="228.844" fill="#BAB7F2" width="7.229" height="48.124"/>
					<rect x="388.281" y="230.66" fill="#D5DEF5" width="26.325" height="59.466"/>
				</g>
				<g>
					<g>
						<rect x="385.312" y="275.051" fill="#F3FFF9" width="4.779" height="1.273"/>
						<rect x="384.701" y="276.047" fill="#F3FFF9" width="6" height="0.554"/>
						<rect x="383.202" y="276.601" fill="#BAB7F2" width="8.998" height="9.27"/>
					</g>
					<polygon fill="#D5DEF5" points="398.031,254.408 398.031,335.236 418.558,335.236 418.558,263.941 					"/>
					<rect x="381.265" y="271.926" fill="#C4C5F3" width="12.228" height="63.311"/>
					<g>
						<rect x="390.378" y="278.142" fill="#C0C0F3" width="1.004" height="40.318"/>
						<rect x="388.146" y="278.142" fill="#C0C0F3" width="1.005" height="40.318"/>
						<rect x="385.914" y="278.142" fill="#C0C0F3" width="1.004" height="40.318"/>
						<rect x="383.682" y="278.142" fill="#C0C0F3" width="1.004" height="40.318"/>
					</g>
					<rect x="398.231" y="270.618" fill="#D5DEF5" width="7.065" height="7.504"/>
				</g>
			</g>
			<rect x="145.038" y="269.431" fill="#B8B5F2" width="4.91" height="7.241"/>
			<rect x="148.163" y="273.532" fill="#B8B5F2" width="6.404" height="5.514"/>
			<g>
				<rect x="174.567" y="218.125" fill="#B8B5F2" width="8.664" height="8.916"/>
				<g>
					<polygon fill="#D9E3F6" points="132.436,335.236 133.441,279.143 134.647,279.143 134.647,273.394 154.491,271.339 
						154.491,282.661 156.83,282.661 156.83,220.985 185.03,220.985 185.03,281.247 187.571,281.247 187.571,335.236 					"/>
					<g>
						<rect x="135.678" y="291.279" fill="#C4C5F3" width="8.595" height="2.349"/>
						<rect x="135.678" y="295.569" fill="#C4C5F3" width="8.595" height="2.348"/>
						<rect x="135.678" y="299.858" fill="#C4C5F3" width="8.595" height="2.349"/>
						<rect x="135.678" y="304.147" fill="#C4C5F3" width="8.595" height="2.349"/>
						<rect x="135.678" y="308.437" fill="#C4C5F3" width="8.595" height="2.349"/>
						<rect x="135.678" y="312.727" fill="#C4C5F3" width="8.595" height="2.348"/>
						<rect x="135.678" y="317.016" fill="#C4C5F3" width="8.595" height="2.349"/>
						<rect x="135.678" y="321.305" fill="#C4C5F3" width="8.595" height="2.349"/>
						<rect x="135.678" y="325.594" fill="#C4C5F3" width="8.595" height="2.349"/>
					</g>
				</g>
			</g>
			<rect x="374.089" y="286.586" fill="#C4C5F3" width="13.965" height="48.65"/>
			<polygon fill="#C4C5F3" points="457.98,335.236 457.98,263.941 432.077,251.91 422.471,251.91 422.471,249.787 422.098,249.787 
				422.098,268.619 420.131,268.619 420.131,255.958 409.544,255.958 409.544,268.619 407.771,268.619 407.771,288.135 
				405.78,288.135 405.78,335.236 			"/>
			<rect x="346.247" y="227.455" fill="#C4C5F3" width="21.695" height="106.972"/>
			<g>
				<g>
					<polygon fill="#B8B5F2" points="402.721,286.586 402.721,289.456 403.726,289.456 403.726,295.214 407.131,295.214 
						407.131,335.235 389.313,335.235 389.313,286.586 					"/>
				</g>
				<g>
					<g>
						<rect x="363.184" y="252.921" fill="#FFFFFB" width="5.845" height="0.525"/>
						<rect x="361.722" y="253.446" fill="#D2D9F5" width="8.768" height="8.788"/>
					</g>
					<g>
						<g>
							<rect x="379.434" y="237.117" fill="#D5DEF5" width="1.174" height="43.486"/>
							<rect x="382.041" y="237.117" fill="#D5DEF5" width="1.173" height="43.486"/>
						</g>
						<rect x="367.566" y="249.782" fill="#E4F3F7" width="18.685" height="48.45"/>
						<polygon fill="#F3FFF9" points="398.18,281.784 377.188,281.784 377.188,267.201 						"/>
						<rect x="353.77" y="262.556" fill="#E4F3F7" width="25.262" height="72.68"/>
						<rect x="376.108" y="280.588" fill="#D5DEF5" width="23.15" height="54.647"/>
					</g>
				</g>
			</g>
			<g>
				<g>
					<rect x="434.747" y="248.41" fill="#BAB7F2" width="4.845" height="32.249"/>
					<rect x="431.008" y="249.627" fill="#D5DEF5" width="17.641" height="39.85"/>
				</g>
				<g>
					<g>
						<rect x="429.018" y="279.374" fill="#F3FFF9" width="3.202" height="0.854"/>
						<rect x="428.608" y="280.042" fill="#F3FFF9" width="4.021" height="0.371"/>
						<rect x="427.604" y="280.413" fill="#BAB7F2" width="6.03" height="6.211"/>
					</g>
					<polygon fill="#D5DEF5" points="437.541,265.541 437.541,319.705 451.296,319.705 451.296,271.93 					"/>
					<rect x="426.306" y="277.28" fill="#D5DEF5" width="8.193" height="42.425"/>
					<g>
						<rect x="432.412" y="281.445" fill="#C0C0F3" width="0.673" height="27.018"/>
						<rect x="430.916" y="281.445" fill="#C0C0F3" width="0.674" height="27.018"/>
						<rect x="429.421" y="281.445" fill="#C0C0F3" width="0.673" height="27.018"/>
						<rect x="427.925" y="281.445" fill="#C0C0F3" width="0.674" height="27.018"/>
					</g>
					<rect x="437.676" y="276.403" fill="#D5DEF5" width="4.733" height="5.028"/>
				</g>
			</g>
			<g>
				<rect x="357.786" y="218.125" fill="#B8B5F2" width="8.664" height="8.916"/>
				<g>
					<polygon fill="#D9E3F6" points="315.655,335.236 316.661,279.143 317.867,279.143 317.867,273.394 337.711,271.339 
						337.711,282.661 340.05,282.661 340.05,220.985 368.25,220.985 368.25,281.247 370.79,281.247 370.79,335.236 					"/>
					<g>
						<rect x="318.897" y="291.279" fill="#C4C5F3" width="8.596" height="2.349"/>
						<rect x="318.897" y="295.569" fill="#C4C5F3" width="8.596" height="2.348"/>
						<rect x="318.897" y="299.858" fill="#C4C5F3" width="8.596" height="2.349"/>
						<rect x="318.897" y="304.147" fill="#C4C5F3" width="8.596" height="2.349"/>
						<rect x="318.897" y="308.437" fill="#C4C5F3" width="8.596" height="2.349"/>
						<rect x="318.897" y="312.727" fill="#C4C5F3" width="8.596" height="2.348"/>
						<rect x="318.897" y="317.016" fill="#C4C5F3" width="8.596" height="2.349"/>
						<rect x="318.897" y="321.305" fill="#C4C5F3" width="8.596" height="2.349"/>
						<rect x="318.897" y="325.594" fill="#C4C5F3" width="8.596" height="2.349"/>
					</g>
				</g>
			</g>
			<g>
				<rect x="305.307" y="292.029" fill="#D5DEF5" width="18.73" height="43.122"/>
			</g>
			<path fill="#D2D9F5" d="M314.796,267.189V216.73h-3.989v-2.4h-0.899v-0.37h-0.366v-0.667h-0.671v-5.002h-0.431l-0.236-4.372
				h-0.189l-0.236,4.372h-0.432v5.002h-0.67v0.667h-0.366v0.37h-0.899v2.4h-11.1l-6.401,7.788v42.671H314.796z M308.007,213.107
				h-0.203v-4.483h0.203V213.107z M308.413,213.107h-0.203v-4.483h0.203V213.107z"/>
			<g>
				<rect x="275.57" y="246.638" fill="#BAB7F2" width="23.571" height="58.185"/>
			</g>
			<g>
				<rect x="88.945" y="274.861" fill="#F3FFF9" width="3.57" height="0.951"/>
				<rect x="88.49" y="275.605" fill="#F3FFF9" width="4.481" height="0.413"/>
				<rect x="87.37" y="276.019" fill="#BAB7F2" width="6.721" height="6.924"/>
			</g>
			<rect x="78.372" y="287.947" fill="#C4C5F3" width="9.133" height="47.289"/>
			<g>
				<rect x="79.948" y="287.284" fill="#C0C0F3" width="0.75" height="30.115"/>
				<rect x="81.615" y="287.284" fill="#C0C0F3" width="0.75" height="30.115"/>
				<rect x="83.282" y="287.284" fill="#C0C0F3" width="0.75" height="30.115"/>
				<rect x="84.95" y="287.284" fill="#C0C0F3" width="0.75" height="30.115"/>
			</g>
			<rect x="79.104" y="254.395" fill="#B8B5F2" width="16.453" height="80.842"/>
			<polygon fill="#F3FFF9" points="57.217,312.797 67.174,312.797 67.174,284.201 			"/>
			<rect x="52.95" y="251.932" fill="#B8B5F2" width="12.229" height="44.581"/>
			<g>
				<rect x="66.143" y="280.416" fill="#FFFFFB" width="5.68" height="0.473"/>
			</g>
			<g>
				<rect x="49.096" y="264.277" fill="#B8B5F2" width="1.149" height="70.561"/>
				<rect x="51.65" y="264.277" fill="#B8B5F2" width="1.149" height="70.561"/>
				<rect x="54.205" y="299.765" fill="#B8B5F2" width="1.149" height="35.073"/>
				<rect x="56.76" y="299.765" fill="#B8B5F2" width="1.149" height="35.073"/>
			</g>
			<rect x="76.463" y="264.673" fill="#D5DEF5" width="5.277" height="5.605"/>
			<rect x="53.086" y="298.112" fill="#B8B5F2" width="7.703" height="37.124"/>
			<g>
				<g>
					<g>
						<rect x="108.016" y="235.91" fill="#D2D9F5" width="18.201" height="1.602"/>
						<rect x="108.016" y="238.834" fill="#D2D9F5" width="18.201" height="1.602"/>
						<rect x="108.016" y="241.759" fill="#D2D9F5" width="18.201" height="1.601"/>
						<rect x="108.016" y="244.683" fill="#D2D9F5" width="18.201" height="1.601"/>
						<rect x="108.016" y="247.606" fill="#D2D9F5" width="18.201" height="1.601"/>
						<rect x="108.016" y="250.53" fill="#D2D9F5" width="18.201" height="1.601"/>
						<rect x="108.016" y="253.454" fill="#D2D9F5" width="18.201" height="1.602"/>
						<rect x="108.016" y="256.378" fill="#D2D9F5" width="18.201" height="1.602"/>
						<rect x="108.016" y="259.303" fill="#D2D9F5" width="18.201" height="1.601"/>
					</g>
					<polygon fill="#D2D9F5" points="91.868,335.236 124.437,335.236 124.747,233.967 91.868,230.563 					"/>
					<polygon fill="#B1ABEF" points="91.868,335.236 98.476,335.236 98.853,233.745 91.868,230.563 					"/>
				</g>
				<g>
					<polygon fill="#D5DEF5" points="124.352,273.11 117.146,265.655 103.75,265.655 					"/>
					<rect x="112.21" y="284.764" opacity="0.43" fill="#F3FFF9" width="0.986" height="50.473"/>
					<rect x="114.401" y="284.764" opacity="0.43" fill="#F3FFF9" width="0.986" height="50.473"/>
					<rect x="116.591" y="284.764" opacity="0.43" fill="#F3FFF9" width="0.985" height="50.473"/>
					<rect x="118.782" y="284.764" opacity="0.43" fill="#F3FFF9" width="0.985" height="50.473"/>
				</g>
			</g>
			<rect x="143.03" y="280.411" fill="#E4F3F7" width="15.844" height="7.242"/>
			<rect x="290.69" y="242.587" fill="#E4F3F7" width="33.032" height="92.649"/>
			<rect x="296.717" y="260.876" fill="#D5DEF5" width="20.028" height="74.051"/>
			<polygon fill="#D9E3F6" points="76.739,269.565 74.762,281.407 74.762,309.121 73.051,309.121 73.051,295.91 67.919,295.91 
				67.919,281.082 62.462,281.082 62.462,259.446 53.433,259.446 53.433,255.198 51.543,255.198 51.543,259.446 47.988,259.446 
				47.988,264.26 46.098,264.26 46.098,251.777 42.399,251.777 42.399,335.236 85.094,335.236 85.094,277.628 83.736,269.763 			"/>
			<rect x="99.991" y="286.493" fill="#E4F3F7" width="8.019" height="48.743"/>
			<rect x="123.956" y="272.681" fill="#E4F3F7" width="6.05" height="62.556"/>
		</g>
	</g>
</g>
<g id="DESIGNED_BY_FREEPIK">
</g>
</svg>
