<?xml version="1.0" encoding="utf-8"?>
<!-- Generator: Adobe Illustrator 16.0.0, SVG Export Plug-In . SVG Version: 6.00 Build 0)  -->
<!DOCTYPE svg PUBLIC "-//W3C//DTD SVG 1.1 Tiny//EN" "http://www.w3.org/Graphics/SVG/1.1/DTD/svg11-tiny.dtd">
<svg version="1.1" baseProfile="tiny" id="Capa_1" xmlns="http://www.w3.org/2000/svg" xmlns:xlink="http://www.w3.org/1999/xlink"
	 x="0px" y="0px" width="612px" height="608.043px" viewBox="0 91.979 612 608.043" xml:space="preserve">
<g>
	<g>
		<path fill="#3E9FFF" d="M580.345,91.979H31.655C14.172,91.979,0,106.151,0,123.634s14.172,31.655,31.655,31.655v432.62
			c0,5.827,4.725,10.552,10.552,10.552h125.766l-70.696,88.371l16.482,13.189l81.248-101.561h100.442v23.045
			c-16.483,5.827-25.121,23.914-19.292,40.396c5.827,16.482,23.914,25.121,40.396,19.292c16.481-5.828,25.121-23.914,19.292-40.396
			c-3.187-9.016-10.278-16.106-19.292-19.293v-23.045h100.441l81.249,101.561l16.481-13.189l-70.696-88.371h125.766
			c5.827,0,10.552-4.725,10.552-10.552v-432.62c17.483,0,31.655-14.172,31.655-31.655S597.828,91.979,580.345,91.979z M306,661.771
			c-5.827,0-10.552-4.725-10.552-10.552s4.725-10.552,10.552-10.552s10.552,4.725,10.552,10.552S311.827,661.771,306,661.771z
			 M559.241,577.357H52.759V155.289h506.482V577.357z M580.345,134.186H31.655c-5.827,0-10.552-4.725-10.552-10.552
			s4.725-10.552,10.552-10.552h548.689c5.827,0,10.552,4.725,10.552,10.552S586.172,134.186,580.345,134.186z"/>
	</g>
</g>
<g>
	<g>
		<rect x="94.965" y="429.634" fill="#3E9FFF" width="168.828" height="21.104"/>
	</g>
</g>
<g>
	<g>
		<rect x="94.965" y="471.841" fill="#3E9FFF" width="168.828" height="21.104"/>
	</g>
</g>
<g>
	<g>
		<rect x="94.965" y="514.048" fill="#3E9FFF" width="126.621" height="21.103"/>
	</g>
</g>
<g>
	<g>
		<rect x="179.379" y="387.427" fill="#3E9FFF" width="84.414" height="21.104"/>
	</g>
</g>
<g>
	<g>
		<rect x="348.207" y="239.703" fill="#3E9FFF" width="168.827" height="21.104"/>
	</g>
</g>
<g>
	<g>
		<rect x="348.207" y="281.91" fill="#3E9FFF" width="168.827" height="21.103"/>
	</g>
</g>
<g>
	<g>
		<rect x="348.207" y="324.116" fill="#3E9FFF" width="126.62" height="21.104"/>
	</g>
</g>
<g>
	<g>
		<rect x="432.621" y="197.496" fill="#3E9FFF" width="84.413" height="21.104"/>
	</g>
</g>
<g>
	<g>
		<path fill="#3E9FFF" d="M179.379,186.944c-46.62,0-84.414,37.794-84.414,84.414c0.053,46.599,37.815,84.361,84.414,84.414
			c46.62,0,84.414-37.793,84.414-84.414S226,186.944,179.379,186.944z M190.248,209.061c16.115,2.82,30.509,11.777,40.16,24.986
			l-40.476,20.217L190.248,209.061z M142.893,219.726c7.843-5.53,16.842-9.198,26.315-10.73l-0.38,58.142l-41.152,40.592
			C107.576,279.226,114.389,239.825,142.893,219.726z M197.837,331.913c-5.983,1.826-12.202,2.754-18.458,2.755
			c-13.268,0.001-26.195-4.194-36.931-11.987l43.347-42.734l54.12-27.065C250.118,286.325,231.279,321.708,197.837,331.913z"/>
	</g>
</g>
<g>
	<g>
		<rect x="327.104" y="482.393" fill="#3E9FFF" width="21.104" height="52.758"/>
	</g>
</g>
<g>
	<g>
		<rect x="495.931" y="461.289" fill="#3E9FFF" width="21.104" height="73.861"/>
	</g>
</g>
<g>
	<g>
		<rect x="369.311" y="450.737" fill="#3E9FFF" width="21.104" height="84.413"/>
	</g>
</g>
<g>
	<g>
		<rect x="411.518" y="408.53" fill="#3E9FFF" width="21.104" height="126.62"/>
	</g>
</g>
<g>
	<g>
		<rect x="453.725" y="440.186" fill="#3E9FFF" width="21.103" height="94.965"/>
	</g>
</g>
<g>
	<g>
		<rect x="137.172" y="387.427" fill="#3E9FFF" width="21.104" height="21.104"/>
	</g>
</g>
<g>
	<g>
		<rect x="390.414" y="197.496" fill="#3E9FFF" width="21.104" height="21.104"/>
	</g>
</g>
</svg>
