<?xml version="1.0" encoding="utf-8"?>
<!-- Generator: Adobe Illustrator 16.0.0, SVG Export Plug-In . SVG Version: 6.00 Build 0)  -->
<!DOCTYPE svg PUBLIC "-//W3C//DTD SVG 1.1//EN" "http://www.w3.org/Graphics/SVG/1.1/DTD/svg11.dtd">
<svg version="1.1" id="Layer_1" xmlns="http://www.w3.org/2000/svg" xmlns:xlink="http://www.w3.org/1999/xlink" x="0px" y="0px"
	 width="595.279px" height="595.28px" viewBox="-585.483 -380.086 595.279 595.28"
	 enable-background="new -585.483 -380.086 595.279 595.28" xml:space="preserve">
<rect x="-282.227" y="-65.598" width="22.463" height="202.17"/>
<rect x="-164.293" y="-347.594" transform="matrix(-0.7071 -0.7071 0.7071 -0.7071 -99.7378 -498.2462)" width="22.463" height="238.255"/>
<rect x="-417.007" y="-134.586" transform="matrix(-0.7071 -0.7071 0.7071 -0.7071 -709.8495 -245.5273)" width="22.463" height="317.675"/>
<rect x="-465.056" y="-228.46" transform="matrix(-0.7071 -0.7071 0.7071 -0.7071 -491.1664 -637.9038)" width="174.719" height="22.464"/>
<rect x="-283.426" y="-15.065" transform="matrix(-0.7071 -0.7071 0.7071 -0.7071 -277.7642 -122.7212)" width="238.256" height="22.463"/>
<circle fill="#2196F3" cx="-46.362" cy="-323.927" r="56.159"/>
<circle fill="#2196F3" cx="-270.996" cy="159.036" r="56.158"/>
<circle fill="#2196F3" cx="-529.325" cy="136.573" r="56.159"/>
<circle fill="#2196F3" cx="-450.703" cy="-290.232" r="33.695"/>
<circle fill="#2196F3" cx="-91.289" cy="69.183" r="33.695"/>
<circle fill="#2196F3" cx="-270.996" cy="-110.525" r="78.622"/>
</svg>
