<?xml version="1.0" encoding="utf-8"?>
<!-- Generator: Adobe Illustrator 16.0.0, SVG Export Plug-In . SVG Version: 6.00 Build 0)  -->
<!DOCTYPE svg PUBLIC "-//W3C//DTD SVG 1.1//EN" "http://www.w3.org/Graphics/SVG/1.1/DTD/svg11.dtd">
<svg version="1.1" id="Capa_1" xmlns="http://www.w3.org/2000/svg" xmlns:xlink="http://www.w3.org/1999/xlink" x="0px" y="0px"
	 width="312.296px" height="322.068px" viewBox="0 0 312.296 322.068" enable-background="new 0 0 312.296 322.068"
	 xml:space="preserve">
<g>
	<g>
		<g>
			<g>
				<g>
					<defs>
						<path id="SVGID_1_" d="M157.662,75.388c0,32.616-26.441,59.058-59.058,59.058c-32.613,0-59.056-26.441-59.056-59.058
							s26.442-59.057,59.056-59.057C131.221,16.331,157.662,42.771,157.662,75.388z"/>
					</defs>
					<use xlink:href="#SVGID_1_"  overflow="visible" fill="#EC524F"/>
					<clipPath id="SVGID_2_">
						<use xlink:href="#SVGID_1_"  overflow="visible"/>
					</clipPath>
					<g clip-path="url(#SVGID_2_)">
						<rect x="94.021" y="103.026" fill="#FAB58F" width="11.618" height="6.911"/>
						<path fill="#D1D3D4" d="M101.378,109.013c-2.437-0.776-4.477-2.303-4.785-4.979c-0.041-0.368,0.003-0.701,0.098-1.008h-2.67
							v6.911h11.618v-0.866C104.211,109.428,102.722,109.44,101.378,109.013z"/>
						<g>
							<ellipse fill="#FAB58F" cx="123.551" cy="80.857" rx="5.357" ry="5.173"/>
							<g>
								<path fill="#D1D3D4" d="M124.243,77.979c0,0,0.129-0.021,0.357-0.013c0.232,0.01,0.567,0.043,0.951,0.188
									c0.38,0.14,0.828,0.408,1.137,0.873c0.079,0.116,0.134,0.246,0.201,0.374c0.049,0.133,0.086,0.273,0.125,0.413l0.046,0.431
									c0,0.141-0.012,0.281-0.019,0.425c-0.018,0.265-0.091,0.549-0.171,0.806c-0.076,0.259-0.198,0.5-0.329,0.726
									c-0.263,0.45-0.635,0.803-1.004,0.997c-0.175,0.112-0.363,0.161-0.513,0.215c-0.167,0.033-0.303,0.064-0.425,0.068
									c-0.229,0.007-0.357,0.002-0.357,0.002s0.119-0.049,0.328-0.135c0.105-0.039,0.216-0.115,0.347-0.18
									c0.122-0.09,0.268-0.169,0.394-0.295c0.135-0.114,0.262-0.261,0.379-0.419c0.122-0.156,0.221-0.344,0.317-0.54
									c0.092-0.197,0.158-0.412,0.226-0.632c0.062-0.229,0.113-0.444,0.122-0.69l0.026-0.337l-0.024-0.325
									c-0.027-0.102-0.048-0.206-0.072-0.308c-0.039-0.094-0.067-0.194-0.119-0.281c-0.185-0.36-0.489-0.635-0.789-0.833
									c-0.307-0.197-0.593-0.325-0.801-0.409C124.369,78.018,124.243,77.979,124.243,77.979z"/>
							</g>
							<ellipse fill="#D1D3D4" cx="124.067" cy="81.112" rx="0.867" ry="1.002"/>
						</g>
						<g>
							<ellipse fill="#FAB58F" cx="76.839" cy="80.857" rx="5.354" ry="5.173"/>
							<g>
								<path fill="#D1D3D4" d="M76.147,77.979c0,0-0.131-0.021-0.361-0.013c-0.23,0.01-0.56,0.043-0.947,0.188
									c-0.379,0.14-0.827,0.408-1.141,0.873c-0.073,0.116-0.129,0.246-0.198,0.374c-0.047,0.133-0.087,0.273-0.123,0.413
									l-0.043,0.431c0,0.141,0.012,0.281,0.016,0.425c0.018,0.265,0.088,0.549,0.166,0.806c0.079,0.259,0.2,0.5,0.331,0.726
									c0.266,0.45,0.64,0.803,1.004,0.997c0.174,0.112,0.366,0.161,0.519,0.215c0.161,0.033,0.3,0.064,0.417,0.068
									c0.235,0.007,0.361,0.002,0.361,0.002s-0.117-0.049-0.326-0.135c-0.104-0.039-0.217-0.115-0.35-0.18
									c-0.12-0.09-0.27-0.169-0.394-0.295c-0.133-0.114-0.26-0.261-0.377-0.419c-0.125-0.156-0.22-0.344-0.314-0.54
									c-0.098-0.197-0.166-0.412-0.231-0.632c-0.059-0.229-0.108-0.444-0.119-0.69l-0.024-0.337l0.022-0.325
									c0.026-0.102,0.048-0.206,0.069-0.308c0.044-0.094,0.069-0.194,0.117-0.281c0.188-0.36,0.496-0.635,0.795-0.833
									c0.301-0.197,0.592-0.325,0.8-0.409C76.021,78.018,76.147,77.979,76.147,77.979z"/>
							</g>
							<ellipse fill="#D1D3D4" cx="76.324" cy="81.112" rx="0.867" ry="1.002"/>
						</g>
						<path fill="#FAB58F" d="M123.553,74.037c0,17.573-8.245,29.911-23.724,29.911c-15.478,0-23.726-12.338-23.726-29.911
							c0-17.571,8.561-31.816,24.04-31.816C115.619,42.221,123.553,56.466,123.553,74.037z"/>
						<path fill="#FAB58F" d="M94.255,109.65c0,0-14.736,1.947-20.034,6.531c-5.397,4.672-6.994,8.711-8.938,17.939h34.313h0.466
							h34.314c-1.944-9.229-3.54-13.268-8.939-17.939c-5.296-4.584-20.032-6.531-20.032-6.531H94.255z"/>
						<path fill="#FFFFFF" d="M89.801,110.409c0,0-10.282,1.188-15.58,5.772c-5.397,4.672-6.994,8.711-8.938,17.939h34.313h0.466
							h34.314c-1.944-9.229-3.513-13.3-8.939-17.939c-4.477-3.825-14.537-5.561-14.537-5.561l-5.495-0.971H94.255L89.801,110.409z"
							/>
						<g>
							<path fill="#EC524F" d="M97.069,118.624c0,0,0.055-0.084,0.195-0.199C97.2,118.489,97.135,118.554,97.069,118.624
								l-1.897,15.497h9.318l-1.897-15.497l1.282-5.324c0.473-0.797,0.615-1.72,0.128-2.524c-0.445-0.73-1.051-1.109-1.738-1.296
								c-1.089-0.3-2.382-0.123-3.543-0.123c-1.152,0-1.975,0.104-2.736,1.01c-0.763,0.91-0.814,1.888-0.195,2.934L97.069,118.624z"
								/>
							<path fill="#BCBEC0" d="M96.856,117.798c0,0,3.862-1.805,5.72,0.826c0,0-2.602-1.48-5.52,0L96.856,117.798z"/>
						</g>
						<path fill="#003A54" d="M89.801,110.409c0,0-10.282,1.188-15.58,5.772c-5.397,4.672-6.994,8.711-8.938,17.939h34.313h0.466
							h34.314c-1.944-9.229-3.513-13.3-8.939-17.939c-4.477-3.825-14.537-5.561-14.537-5.561l-11.07,22.867L89.801,110.409z"/>
						<path fill="#00172D" d="M89.937,110.566l9.893,22.922l-10.515-6.794l2.366-4.063l-11.762-9.714
							C79.919,112.918,86.589,110.334,89.937,110.566z"/>
						<path fill="#00172D" d="M110.899,110.621l-11.068,22.867l10.514-6.794l-2.366-4.063l11.765-9.714
							C119.743,112.918,114.25,110.39,110.899,110.621z"/>
						<polygon fill="#A7A9AC" points="87.736,110.606 96.633,116.81 95.891,113.707 						"/>
						<polygon fill="#A7A9AC" points="112.767,110.718 103.015,116.936 103.865,113.322 						"/>
						<g>
							<polygon fill="#FFFFFF" points="94.021,107.604 87.736,110.606 95.172,115.047 100.371,109.309 							"/>
							<path fill="#D1D3D4" d="M93.929,109.812c0.925-0.841,2.011-1.407,3.288-1.35l-3.196-0.857l-6.284,3.002l5.612,3.351
								C92.646,112.603,92.674,110.945,93.929,109.812z"/>
						</g>
						<g>
							<polygon fill="#FFFFFF" points="106.606,107.604 112.889,110.606 105.456,115.047 100.255,109.309 							"/>
							<path fill="#D1D3D4" d="M106.698,109.812c-0.925-0.841-2.009-1.407-3.287-1.35l3.195-0.857l6.282,3.002l-5.609,3.351
								C107.979,112.603,107.949,110.945,106.698,109.812z"/>
						</g>
						<path fill="#925A01" d="M76.179,78.319l2.4,2.405l0.464-19.352c0,0,0.158-10.048,10.829-10.048c0,0,8.763,4.555,19.914,0.789
							c0,0,9.98-1.569,11.152,8.788l-0.082,20.21l2.554-3.146l0.143-2.628c0,0,1.515-8.527,0-21.053c0,0-2.009-13.865-14.54-16.22
							c0,0-20.465-5.266-29.094,7.618c0,0-6.585,7.688-4.846,19.716L76.179,78.319z"/>
					</g>
				</g>
			</g>
			<g>
				<g>
					<defs>
						<circle id="SVGID_3_" cx="253.24" cy="182.943" r="59.056"/>
					</defs>
					<use xlink:href="#SVGID_3_"  overflow="visible" fill="#14BAAB"/>
					<clipPath id="SVGID_4_">
						<use xlink:href="#SVGID_3_"  overflow="visible"/>
					</clipPath>
					<g clip-path="url(#SVGID_4_)">
						<rect x="247.432" y="210.906" fill="#FAB58F" width="11.618" height="6.908"/>
						<path fill="#BCBEC0" d="M248.099,216.064c1.368-1.371,3.136-2.144,5.075-2.287c1.657-0.127,4.492,0.23,5.376-1.5
							c0.137-0.273,0.307-0.478,0.5-0.636v-0.735h-11.618v5.967C247.628,216.591,247.842,216.318,248.099,216.064z"/>
						<g>
							<path fill="#FAB58F" d="M282.319,188.734c0,2.855-2.4,5.174-5.355,5.174c-2.958,0-5.356-2.318-5.356-5.174
								c0-2.854,2.398-5.173,5.356-5.173C279.919,183.561,282.319,185.88,282.319,188.734z"/>
							<g>
								<path fill="#D1D3D4" d="M277.653,185.857c0,0,0.13-0.021,0.36-0.013c0.231,0.009,0.564,0.042,0.949,0.188
									c0.378,0.138,0.825,0.406,1.14,0.873c0.076,0.113,0.133,0.246,0.2,0.373c0.047,0.133,0.088,0.273,0.123,0.411l0.043,0.431
									c0.002,0.142-0.011,0.282-0.014,0.426c-0.02,0.266-0.092,0.548-0.171,0.807c-0.078,0.259-0.201,0.501-0.33,0.726
									c-0.266,0.45-0.635,0.804-1.005,0.999c-0.175,0.111-0.363,0.159-0.517,0.211c-0.161,0.033-0.303,0.065-0.416,0.07
									c-0.235,0.006-0.363,0.002-0.363,0.002s0.122-0.049,0.33-0.135c0.101-0.04,0.213-0.115,0.349-0.18
									c0.121-0.089,0.265-0.17,0.391-0.295c0.133-0.115,0.262-0.26,0.379-0.418c0.12-0.159,0.22-0.347,0.315-0.542
									c0.092-0.194,0.164-0.411,0.228-0.632c0.062-0.228,0.11-0.443,0.121-0.689l0.027-0.336l-0.026-0.326
									c-0.025-0.102-0.047-0.205-0.068-0.307c-0.043-0.094-0.068-0.197-0.117-0.283c-0.188-0.359-0.493-0.633-0.796-0.832
									c-0.304-0.197-0.593-0.325-0.798-0.408C277.781,185.894,277.653,185.857,277.653,185.857z"/>
							</g>
							<ellipse fill="#D1D3D4" cx="277.478" cy="188.99" rx="0.868" ry="1"/>
						</g>
						<g>
							<path fill="#FAB58F" d="M224.895,188.734c0,2.855,2.396,5.174,5.354,5.174c2.956,0,5.354-2.318,5.354-5.174
								c0-2.854-2.398-5.173-5.354-5.173C227.29,183.561,224.895,185.88,224.895,188.734z"/>
							<g>
								<path fill="#D1D3D4" d="M229.558,185.857c0,0-0.128-0.021-0.358-0.013c-0.232,0.009-0.564,0.042-0.949,0.188
									c-0.379,0.138-0.826,0.406-1.141,0.873c-0.076,0.113-0.131,0.246-0.199,0.373c-0.048,0.133-0.087,0.273-0.124,0.411
									l-0.043,0.431c0,0.142,0.011,0.282,0.019,0.426c0.019,0.266,0.086,0.548,0.165,0.807s0.204,0.501,0.331,0.726
									c0.268,0.45,0.637,0.804,1.006,0.999c0.174,0.111,0.366,0.159,0.516,0.211c0.165,0.033,0.302,0.065,0.42,0.07
									c0.23,0.006,0.358,0.002,0.358,0.002s-0.121-0.049-0.33-0.135c-0.102-0.04-0.213-0.115-0.348-0.18
									c-0.117-0.089-0.264-0.17-0.391-0.295c-0.134-0.115-0.256-0.26-0.378-0.418c-0.119-0.159-0.224-0.347-0.316-0.542
									c-0.093-0.194-0.163-0.411-0.228-0.632c-0.061-0.228-0.109-0.443-0.122-0.689l-0.024-0.336l0.021-0.326
									c0.03-0.102,0.051-0.205,0.072-0.307c0.041-0.094,0.069-0.197,0.117-0.283c0.188-0.359,0.494-0.633,0.797-0.832
									c0.299-0.197,0.592-0.325,0.796-0.408C229.433,185.894,229.558,185.857,229.558,185.857z"/>
							</g>
							<path fill="#D1D3D4" d="M228.868,188.99c0,0.552,0.387,1,0.865,1c0.481,0,0.868-0.448,0.868-1
								c0-0.553-0.387-1.003-0.868-1.003C229.255,187.987,228.868,188.437,228.868,188.99z"/>
						</g>
						<path fill="#FAB58F" d="M276.964,181.916c0,17.572-8.245,29.911-23.724,29.911c-15.48,0-23.724-12.339-23.724-29.911
							c0-17.572,8.559-31.817,24.037-31.817C269.034,150.099,276.964,164.344,276.964,181.916z"/>
						<path fill="#FAB58F" d="M247.665,217.527c0,0-14.735,1.949-20.033,6.533c-5.397,4.672-6.994,8.709-8.94,17.939h34.317h0.466
							h34.313c-1.945-9.23-3.54-13.268-8.94-17.939c-5.295-4.584-20.031-6.533-20.031-6.533H247.665z"/>
						<path fill="#056F8C" d="M264.52,218.544c0,0,9.032,0.932,14.327,5.516c5.4,4.672,6.995,8.709,8.94,17.939h-34.313h-0.466
							h-34.317c1.946-9.23,3.543-13.268,8.94-17.939c5.298-4.584,14.365-5.524,14.365-5.524s-1.964,12.601,11.738,12.495
							C253.735,231.031,265.052,231.474,264.52,218.544z"/>
						<line fill="#056F8C" x1="253.475" y1="242" x2="253.009" y2="242"/>
						<g>
							<path fill="#004256" d="M243.865,218.166c0.043,0.209,0.05,0.429,0.014,0.656c-0.009,0.073-0.634,4.57,1.939,7.535
								c1.636,1.88,4.311,2.825,7.925,2.793c0.028-0.002,0.056,0,0.087,0.002c0.024,0,3.845,0.082,6.394-2.496
								c1.761-1.782,2.58-4.94,2.433-8.49l3.776,0.666c0.116,4.486-1.082,8.021-3.566,10.509c-3.372,3.379-7.962,3.575-8.984,3.575
								c-0.152,0-0.211,0-0.295,0c-4.698,0-8.275-1.385-10.636-4.12c-3.087-3.577-3.002-8.319-2.859-9.966L243.865,218.166z"/>
						</g>
						<path fill="#751F00" d="M228.868,172.249l0.854,14.34l2.097,0.592c-1.844-23.148,10.352-28.446,10.352-28.446l3.412-14.49
							c-10.422-0.249-14.981,8.271-14.981,8.271S226.743,156.432,228.868,172.249z"/>
						<g>
							<path fill="#540A00" d="M228.979,174.108c0,0-0.399-1.809-0.75-4.534c-0.186-1.362-0.36-2.953-0.507-4.66
								c-0.064-0.854-0.159-1.734-0.204-2.632c-0.026-0.449-0.053-0.901-0.08-1.354l-0.02-0.341l-0.003-0.042l-0.001-0.125
								l0.002-0.085l0.005-0.171l0.02-0.685c0.001-0.438,0.088-0.946,0.169-1.443c0.064-0.506,0.185-0.974,0.315-1.432
								c0.064-0.23,0.12-0.462,0.191-0.688l0.261-0.655c0.161-0.439,0.356-0.854,0.567-1.253c0.195-0.407,0.404-0.795,0.647-1.153
								c0.223-0.37,0.464-0.714,0.713-1.038c0.471-0.666,0.986-1.239,1.484-1.738c0.483-0.513,0.975-0.934,1.417-1.291
								c0.436-0.365,0.846-0.646,1.183-0.872c0.68-0.448,1.101-0.645,1.101-0.645c0,0-1.333,1.306-2.868,3.499
								c-0.197,0.271-0.388,0.562-0.57,0.87c-0.194,0.301-0.393,0.611-0.569,0.946c-0.192,0.325-0.375,0.667-0.536,1.026
								c-0.172,0.354-0.354,0.71-0.496,1.092c-0.164,0.372-0.312,0.755-0.424,1.155c-0.131,0.394-0.254,0.793-0.342,1.205
								c-0.107,0.41-0.202,0.82-0.24,1.221c-0.058,0.401-0.126,0.794-0.122,1.271l-0.037,0.684l-0.009,0.171l-0.004,0.085
								l-0.001,0.01c-0.001-0.159,0-0.038,0-0.07l0.001,0.021l0.001,0.043l0.012,0.341c0.016,0.455,0.032,0.907,0.048,1.356
								c0.037,0.898,0.026,1.784,0.041,2.64c0.013,1.713-0.013,3.313-0.07,4.687C229.209,172.27,228.979,174.108,228.979,174.108z"
								/>
						</g>
						<path fill="#751F00" d="M277.434,175.059l-0.854,14.341l-2.097,0.59c2.127-30.875-9.382-31.39-9.382-31.39l-4.383-11.546
							c10.424-0.248,14.982,8.272,14.982,8.272S279.561,159.24,277.434,175.059z"/>
						<path fill="#751F00" d="M242.335,158.644c0,0,13.326-5.237,27.06,1.775l1.047-10.592c0,0-2.686-20.682-29.684-14.093
							c0,0,3.37,1.568,4.825,3.138c0,0-10.392-0.721-14.981,8.74c0,0,7.026-2.347,12.675-0.834
							C243.276,146.778,234.801,152.367,242.335,158.644z"/>
						<g>
							<path fill="#540A00" d="M270.441,149.827c0,0-0.151-0.572-0.524-1.521c-0.365-0.949-0.963-2.273-1.849-3.735
								c-0.444-0.73-0.988-1.477-1.582-2.239c-0.613-0.75-1.323-1.476-2.089-2.185c-0.79-0.683-1.648-1.333-2.584-1.896
								c-0.929-0.572-1.927-1.065-2.972-1.448c-0.518-0.202-1.038-0.401-1.577-0.545c-0.528-0.175-1.07-0.299-1.611-0.412
								c-1.079-0.226-2.159-0.419-3.221-0.504c-0.527-0.069-1.051-0.088-1.565-0.112c-0.515-0.021-1.019-0.073-1.511-0.055
								c-0.985,0.002-1.921,0.003-2.787,0.06c-0.867,0.027-1.661,0.104-2.368,0.161c-0.708,0.051-1.327,0.111-1.834,0.177
								c-1.019,0.113-1.609,0.161-1.609,0.161s0.552-0.202,1.532-0.527c0.489-0.167,1.087-0.36,1.789-0.521
								c0.697-0.179,1.486-0.392,2.367-0.525c0.438-0.075,0.895-0.168,1.371-0.236c0.48-0.05,0.977-0.102,1.486-0.154
								c0.51-0.066,1.039-0.064,1.58-0.092c0.541-0.036,1.095-0.024,1.659,0.009c0.564,0.024,1.14,0.038,1.72,0.118
								c0.581,0.062,1.171,0.12,1.755,0.259c0.589,0.111,1.18,0.236,1.763,0.416c0.59,0.148,1.168,0.351,1.742,0.568
								c1.143,0.444,2.241,1.012,3.26,1.666c1.034,0.635,1.924,1.444,2.754,2.233c1.619,1.639,2.762,3.472,3.485,5.124
								c0.734,1.652,1.087,3.113,1.255,4.136C270.448,149.234,270.441,149.827,270.441,149.827z"/>
						</g>
					</g>
				</g>
			</g>
			<g>
				<g>
					<defs>
						<circle id="SVGID_5_" cx="152.598" cy="159.901" r="59.057"/>
					</defs>
					<use xlink:href="#SVGID_5_"  overflow="visible" fill="#FBB040"/>
					<clipPath id="SVGID_6_">
						<use xlink:href="#SVGID_5_"  overflow="visible"/>
					</clipPath>
					<g clip-path="url(#SVGID_6_)">
						<rect x="146.788" y="187.865" fill="#FAB58F" width="11.619" height="6.908"/>
						<path fill="#BCBEC0" d="M147.452,193.023c1.372-1.371,3.139-2.143,5.078-2.29c1.656-0.122,4.493,0.232,5.376-1.497
							c0.138-0.271,0.309-0.477,0.501-0.635v-0.736h-11.619v5.967C146.987,193.55,147.2,193.277,147.452,193.023z"/>
						<g>
							<path fill="#FAB58F" d="M181.677,165.694c0,2.854-2.396,5.171-5.354,5.171s-5.359-2.316-5.359-5.171
								c0-2.857,2.4-5.174,5.359-5.174S181.677,162.837,181.677,165.694z"/>
							<g>
								<path fill="#D1D3D4" d="M177.012,162.814c0,0,0.129-0.019,0.357-0.011c0.231,0.009,0.567,0.043,0.95,0.188
									c0.38,0.139,0.83,0.407,1.141,0.875c0.079,0.112,0.133,0.245,0.198,0.372c0.049,0.133,0.088,0.271,0.123,0.412l0.048,0.43
									c0,0.143-0.016,0.282-0.019,0.425c-0.019,0.267-0.09,0.549-0.169,0.806c-0.077,0.261-0.2,0.504-0.33,0.728
									c-0.266,0.45-0.635,0.802-1.006,0.998c-0.174,0.111-0.359,0.159-0.516,0.212c-0.161,0.034-0.299,0.066-0.421,0.07
									c-0.229,0.006-0.357,0.002-0.357,0.002s0.119-0.051,0.327-0.135c0.102-0.039,0.218-0.115,0.349-0.18
									c0.121-0.089,0.266-0.171,0.393-0.296c0.135-0.114,0.261-0.26,0.379-0.417c0.122-0.158,0.22-0.347,0.314-0.542
									c0.094-0.195,0.166-0.411,0.229-0.633c0.061-0.226,0.109-0.442,0.122-0.688l0.025-0.337l-0.021-0.325
									c-0.031-0.103-0.048-0.206-0.072-0.307c-0.039-0.095-0.073-0.197-0.119-0.284c-0.188-0.359-0.492-0.633-0.792-0.831
									c-0.307-0.197-0.597-0.325-0.801-0.409C177.139,162.853,177.012,162.814,177.012,162.814z"/>
							</g>
							<ellipse fill="#D1D3D4" cx="176.835" cy="165.947" rx="0.868" ry="1.003"/>
						</g>
						<g>
							<ellipse fill="#FAB58F" cx="129.606" cy="165.694" rx="5.355" ry="5.171"/>
							<g>
								<path fill="#D1D3D4" d="M128.916,162.814c0,0-0.13-0.019-0.361-0.011c-0.23,0.009-0.561,0.043-0.948,0.188
									c-0.378,0.139-0.825,0.407-1.137,0.875c-0.08,0.112-0.133,0.245-0.199,0.372c-0.049,0.133-0.087,0.271-0.126,0.412
									l-0.042,0.43c0,0.143,0.009,0.282,0.015,0.425c0.021,0.267,0.092,0.549,0.168,0.806c0.078,0.261,0.202,0.504,0.33,0.728
									c0.266,0.45,0.638,0.802,1.006,0.998c0.174,0.111,0.362,0.159,0.517,0.212c0.162,0.034,0.301,0.066,0.417,0.07
									c0.233,0.006,0.361,0.002,0.361,0.002s-0.119-0.051-0.329-0.135c-0.101-0.039-0.214-0.115-0.35-0.18
									c-0.118-0.089-0.265-0.171-0.391-0.296c-0.133-0.114-0.26-0.26-0.377-0.417c-0.122-0.158-0.222-0.347-0.314-0.542
									c-0.095-0.195-0.166-0.411-0.232-0.633c-0.058-0.226-0.108-0.442-0.115-0.688l-0.026-0.337l0.021-0.325
									c0.026-0.103,0.047-0.206,0.068-0.307c0.045-0.095,0.07-0.197,0.118-0.284c0.188-0.359,0.495-0.633,0.795-0.831
									c0.304-0.197,0.594-0.325,0.8-0.409C128.789,162.853,128.916,162.814,128.916,162.814z"/>
							</g>
							<ellipse fill="#D1D3D4" cx="129.092" cy="165.947" rx="0.868" ry="1.003"/>
						</g>
						<path fill="#FAB58F" d="M176.322,158.874c0,17.573-8.246,29.912-23.726,29.912c-15.477,0-23.724-12.338-23.724-29.912
							c0-17.571,8.56-31.818,24.041-31.818C168.394,127.056,176.322,141.303,176.322,158.874z"/>
						<path fill="#FAB58F" d="M147.021,194.486c0,0-14.736,1.949-20.032,6.533c-5.397,4.67-6.994,8.71-8.938,17.941h34.313h0.466
							h34.314c-1.944-9.231-3.54-13.271-8.938-17.941c-5.299-4.584-20.035-6.533-20.035-6.533H147.021z"/>
						<path fill="#303945" d="M141.356,195.495c0,0-9.071,0.94-14.367,5.524c-5.397,4.67-6.994,8.71-8.938,17.941h34.313h0.466
							h34.314c-1.944-9.231-3.54-13.271-8.938-17.941c-5.299-4.584-14.331-5.516-14.331-5.516l-11.279,11.219L141.356,195.495z"/>
						<path fill="#3C2415" d="M128.224,149.209l0.857,14.34l2.097,0.592c-1.844-23.147,10.351-28.447,10.351-28.447l3.412-14.491
							c-10.423-0.247-14.98,8.272-14.98,8.272S126.103,133.391,128.224,149.209z"/>
						<g>
							<path fill="#240C00" d="M128.336,151.065c0,0-0.431-1.808-0.804-4.531c-0.197-1.362-0.382-2.952-0.535-4.658
								c-0.067-0.854-0.166-1.734-0.212-2.632c-0.027-0.448-0.054-0.9-0.082-1.354l-0.02-0.34l-0.003-0.043l-0.002-0.132
								l0.003-0.085l0.005-0.171l0.019-0.684c0.001-0.436,0.089-0.95,0.171-1.452c0.065-0.511,0.188-0.982,0.32-1.442
								c0.065-0.231,0.12-0.465,0.193-0.691l0.264-0.658c0.164-0.441,0.362-0.858,0.575-1.258c0.197-0.408,0.408-0.798,0.655-1.156
								c0.226-0.37,0.47-0.714,0.721-1.039c0.478-0.666,0.999-1.238,1.502-1.734c0.489-0.511,0.985-0.928,1.433-1.281
								c0.439-0.362,0.855-0.638,1.196-0.861c0.687-0.441,1.112-0.631,1.112-0.631c0,0-1.313,1.332-2.826,3.534
								c-0.193,0.272-0.381,0.563-0.561,0.873c-0.191,0.302-0.387,0.612-0.562,0.947c-0.189,0.325-0.369,0.666-0.526,1.026
								c-0.169,0.354-0.35,0.708-0.489,1.088c-0.161,0.371-0.307,0.752-0.417,1.15c-0.128,0.393-0.249,0.789-0.335,1.198
								c-0.106,0.407-0.201,0.814-0.237,1.21c-0.057,0.396-0.125,0.783-0.121,1.263l-0.037,0.684l-0.009,0.17l-0.004,0.085
								l-0.001,0.011c0,0.023,0-0.163,0-0.079l0,0.021l0.001,0.042l0.012,0.341c0.015,0.454,0.03,0.907,0.045,1.356
								c0.037,0.897,0.021,1.784,0.033,2.64c0.006,1.713-0.03,3.314-0.1,4.688C128.598,149.226,128.336,151.065,128.336,151.065z"/>
						</g>
						<path fill="#BCBEC0" d="M140.118,136.542c0,0,7.326,12.641,30.845,11.989c0,0-4.4-5.199-2.208-7.673
							C168.755,140.858,145.979,130.027,140.118,136.542z"/>
						<path fill="#3C2415" d="M176.792,152.017l-0.857,14.343l-2.095,0.591c1.843-23.148-10.354-28.444-10.354-28.444l-3.408-14.492
							c10.422-0.249,14.98,8.271,14.98,8.271S178.915,136.2,176.792,152.017z"/>
						<path fill="#3C2415" d="M136.263,123.33c0,0,3.384-6.887,15.518-8.771c0,0,20.199-2.431,26.639,11.586
							c0,0,3.258,6.747,2.081,18.619c0,0-1.219-5.342-4.532-7.117c0,0-0.555,6.316-9.274,2.432c0,0-1.386,2.589,1.657,7.196
							C168.351,147.275,140.118,147.275,136.263,123.33z"/>
						<g>
							<path fill="#240C00" d="M136.263,123.33c0,0,0.266-0.74,1.064-1.861c0.409-0.549,0.924-1.217,1.62-1.882
								c0.33-0.354,0.733-0.669,1.134-1.038c0.424-0.333,0.875-0.687,1.367-1.02c0.988-0.658,2.099-1.34,3.357-1.87
								c1.24-0.574,2.604-1.058,4.042-1.436c0.713-0.225,1.459-0.333,2.206-0.506l0.563-0.119l0.63-0.076
								c0.389-0.038,0.777-0.062,1.167-0.083c1.557-0.081,3.137-0.073,4.715,0.026c1.577,0.119,3.148,0.329,4.681,0.637
								c1.534,0.297,3.014,0.753,4.413,1.276c1.402,0.521,2.702,1.176,3.874,1.891c1.186,0.696,2.197,1.529,3.073,2.338
								c0.877,0.813,1.581,1.657,2.138,2.442c0.563,0.781,0.983,1.507,1.279,2.125c0.328,0.601,0.496,1.114,0.632,1.452
								c0.13,0.338,0.2,0.519,0.2,0.519s-0.104-0.163-0.302-0.469c-0.194-0.306-0.474-0.754-0.882-1.287
								c-0.384-0.546-0.912-1.165-1.539-1.835c-0.322-0.33-0.657-0.684-1.054-1.012c-0.375-0.35-0.796-0.687-1.241-1.026
								c-0.904-0.661-1.917-1.327-3.063-1.898c-1.142-0.577-2.396-1.077-3.722-1.518c-1.326-0.44-2.742-0.754-4.188-1.033
								c-1.448-0.269-2.942-0.441-4.442-0.535c-1.497-0.118-3.007-0.148-4.482-0.095c-0.367,0.019-0.732,0.038-1.096,0.056
								l-0.49,0.033l-0.537,0.088c-0.709,0.131-1.428,0.198-2.105,0.379c-1.367,0.31-2.687,0.645-3.89,1.095
								c-0.302,0.11-0.6,0.22-0.894,0.327c-0.286,0.125-0.567,0.248-0.845,0.369c-0.567,0.22-1.075,0.508-1.582,0.757
								c-0.987,0.54-1.868,1.088-2.603,1.644c-0.743,0.546-1.342,1.087-1.824,1.55c-0.466,0.475-0.829,0.863-1.047,1.149
								C136.364,123.164,136.263,123.33,136.263,123.33z"/>
						</g>
					</g>
				</g>
			</g>
			<g>
				<g>
					<defs>
						<path id="SVGID_7_" d="M118.112,182.943c0,32.617-26.439,59.057-59.059,59.057C26.439,242,0,215.56,0,182.943
							c0-32.614,26.439-59.058,59.054-59.058C91.673,123.885,118.112,150.329,118.112,182.943z"/>
					</defs>
					<use xlink:href="#SVGID_7_"  overflow="visible" fill="#65BEBD"/>
					<clipPath id="SVGID_8_">
						<use xlink:href="#SVGID_7_"  overflow="visible"/>
					</clipPath>
					<g clip-path="url(#SVGID_8_)">
						<path fill="#3C2415" d="M85.771,190.08c0,0-7.641,25.826-21.14,27.448v-5.886C64.631,211.642,78.468,185.844,85.771,190.08z"
							/>
						<rect x="53.246" y="210.906" fill="#FAB58F" width="11.615" height="6.91"/>
						<path fill="#BCBEC0" d="M53.908,216.064c1.375-1.371,3.141-2.144,5.078-2.287c1.66-0.127,4.493,0.23,5.378-1.5
							c0.134-0.271,0.31-0.478,0.497-0.635v-0.736H53.246v5.968C53.442,216.593,53.656,216.318,53.908,216.064z"/>
						<g>
							<ellipse fill="#FAB58F" cx="82.778" cy="188.736" rx="5.354" ry="5.172"/>
							<g>
								<path fill="#D1D3D4" d="M83.47,185.857c0,0,0.13-0.021,0.36-0.013c0.229,0.011,0.562,0.042,0.945,0.188
									c0.382,0.141,0.829,0.408,1.144,0.875c0.073,0.112,0.13,0.244,0.193,0.371c0.052,0.135,0.09,0.273,0.128,0.414l0.043,0.43
									c0.005,0.14-0.009,0.283-0.019,0.424c-0.017,0.268-0.088,0.551-0.166,0.805c-0.076,0.262-0.2,0.503-0.328,0.729
									c-0.27,0.449-0.638,0.803-1.006,0.998c-0.174,0.113-0.364,0.159-0.517,0.213c-0.165,0.031-0.301,0.066-0.418,0.07
									c-0.235,0.004-0.36,0-0.36,0s0.119-0.049,0.326-0.135c0.104-0.04,0.217-0.115,0.35-0.18c0.117-0.089,0.263-0.17,0.394-0.295
									c0.13-0.114,0.257-0.259,0.377-0.418c0.119-0.156,0.219-0.347,0.314-0.539c0.098-0.196,0.165-0.412,0.229-0.635
									c0.064-0.228,0.11-0.443,0.122-0.687l0.026-0.339l-0.024-0.326c-0.027-0.102-0.047-0.207-0.071-0.307
									c-0.042-0.094-0.067-0.194-0.116-0.283c-0.189-0.357-0.495-0.633-0.797-0.832c-0.301-0.197-0.591-0.325-0.797-0.408
									C83.595,185.894,83.47,185.857,83.47,185.857z"/>
							</g>
							<path fill="#D1D3D4" d="M84.159,188.99c0,0.553-0.386,1.003-0.868,1.003c-0.479,0-0.865-0.45-0.865-1.003
								s0.386-1.002,0.865-1.002C83.773,187.988,84.159,188.437,84.159,188.99z"/>
						</g>
						<g>
							<ellipse fill="#FAB58F" cx="36.062" cy="188.736" rx="5.355" ry="5.172"/>
							<g>
								<path fill="#D1D3D4" d="M35.375,185.857c0,0-0.133-0.021-0.363-0.013c-0.23,0.011-0.562,0.042-0.945,0.188
									c-0.381,0.141-0.829,0.408-1.141,0.875c-0.076,0.112-0.134,0.244-0.201,0.371c-0.046,0.135-0.086,0.273-0.122,0.414
									l-0.046,0.43c0,0.14,0.009,0.283,0.017,0.424c0.021,0.268,0.09,0.551,0.17,0.805c0.076,0.262,0.201,0.503,0.331,0.729
									c0.266,0.449,0.635,0.803,1.006,0.998c0.174,0.113,0.359,0.159,0.513,0.213c0.164,0.031,0.304,0.066,0.419,0.07
									c0.232,0.004,0.363,0,0.363,0s-0.123-0.049-0.331-0.135c-0.103-0.04-0.217-0.115-0.348-0.18
									c-0.122-0.089-0.266-0.17-0.391-0.295c-0.136-0.114-0.261-0.259-0.379-0.418c-0.122-0.156-0.223-0.347-0.317-0.539
									c-0.095-0.196-0.163-0.412-0.228-0.635c-0.063-0.228-0.111-0.443-0.12-0.687l-0.026-0.339l0.021-0.326
									c0.031-0.102,0.051-0.207,0.073-0.307c0.042-0.094,0.066-0.194,0.118-0.283c0.186-0.357,0.494-0.633,0.793-0.832
									c0.303-0.197,0.593-0.325,0.797-0.408C35.245,185.894,35.375,185.857,35.375,185.857z"/>
							</g>
							<ellipse fill="#D1D3D4" cx="35.547" cy="188.99" rx="0.87" ry="1.003"/>
						</g>
						<path fill="#FAB58F" d="M82.776,181.917c0,17.571-8.241,29.911-23.723,29.911c-15.479,0-23.723-12.34-23.723-29.911
							c0-17.573,8.561-31.818,24.039-31.818C74.848,150.099,82.776,164.344,82.776,181.917z"/>
						<path fill="#FAB58F" d="M53.478,217.528c0,0-14.733,1.948-20.029,6.532c-5.4,4.672-6.998,8.709-8.942,17.939h34.316h0.464
							h34.315c-1.943-9.23-3.54-13.268-8.94-17.939c-5.297-4.584-20.03-6.532-20.03-6.532H53.478z"/>
						<path fill="#EC524F" d="M64.631,217.528c0,0,7.594,1.003,13.837,3.264c0,0-3.688,8.931,0,21.208H40.412
							c0,0,2.625-7.492,1.005-21.807c5.819-1.84,12.061-2.665,12.061-2.665l5.345,10.389L64.631,217.528z"/>
						<path fill="#EC524F" d="M58.822,242"/>
						<path fill="#3C2415" d="M83.651,183.64c-7.998-1.957-11.879-11.897-11.879-11.897c-0.443,2.51,0.26,4.813,0.26,4.813
							c-14.41-6.696-23.251-17.365-23.251-17.365c-7.364-9.092,4.465-15.063,4.465-15.063c18.971-6.695,27.129,5.972,27.129,5.972
							s13.478,12.187,6.844,35.746C87.219,185.844,86.283,184.281,83.651,183.64z"/>
						<path fill="#3C2415" d="M50.965,149.519c0,0-17,0.58-20.258,27.454c0,0-4.696,49.165,17.359,57.535
							c0,0-1.448-13.914,5.18-16.949v-6.375c0,0-16.075-2.828-15.866-23.855c0,0,0.104-24.267,12.449-28.87L50.965,149.519z"/>
						<path fill="#FFFFFF" d="M84.569,193.708c0,0.99-0.804,1.79-1.793,1.79c-0.988,0-1.786-0.8-1.786-1.79
							c0-0.988,0.798-1.789,1.786-1.789C83.766,191.919,84.569,192.72,84.569,193.708z"/>
					</g>
				</g>
			</g>
			<g>
				<g>
					<defs>
						<circle id="SVGID_9_" cx="208.328" cy="75.388" r="59.059"/>
					</defs>
					<use xlink:href="#SVGID_9_"  overflow="visible" fill="#F5834E"/>
					<clipPath id="SVGID_10_">
						<use xlink:href="#SVGID_9_"  overflow="visible"/>
					</clipPath>
					<g clip-path="url(#SVGID_10_)">
						<rect x="202.521" y="103.35" fill="#FAB58F" width="11.617" height="6.911"/>
						<path fill="#BCBEC0" d="M203.186,108.51c1.37-1.372,3.136-2.145,5.075-2.289c1.66-0.125,4.494,0.231,5.376-1.499
							c0.139-0.271,0.312-0.478,0.501-0.635v-0.737h-11.617v5.969C202.716,109.037,202.933,108.763,203.186,108.51z"/>
						<g>
							<ellipse fill="#FAB58F" cx="232.053" cy="81.181" rx="5.355" ry="5.172"/>
							<g>
								<path fill="#D1D3D4" d="M232.744,78.301c0,0,0.128-0.02,0.359-0.012c0.229,0.011,0.563,0.043,0.946,0.188
									c0.382,0.142,0.833,0.409,1.14,0.876c0.078,0.113,0.135,0.244,0.2,0.371c0.048,0.134,0.087,0.272,0.127,0.413l0.043,0.431
									c0,0.141-0.011,0.282-0.018,0.424c-0.018,0.268-0.091,0.55-0.169,0.805c-0.076,0.262-0.2,0.503-0.331,0.729
									c-0.266,0.448-0.635,0.803-1.004,0.996c-0.174,0.114-0.363,0.16-0.515,0.214c-0.166,0.032-0.304,0.065-0.416,0.07
									c-0.235,0.004-0.363,0-0.363,0s0.118-0.049,0.328-0.135c0.102-0.039,0.215-0.116,0.348-0.18
									c0.12-0.089,0.266-0.17,0.391-0.295c0.136-0.114,0.261-0.259,0.378-0.418c0.122-0.157,0.224-0.347,0.316-0.54
									c0.093-0.195,0.165-0.412,0.229-0.635c0.062-0.226,0.11-0.442,0.121-0.686l0.028-0.339l-0.025-0.326
									c-0.029-0.103-0.046-0.208-0.07-0.307c-0.041-0.095-0.067-0.194-0.119-0.284c-0.188-0.356-0.491-0.632-0.792-0.831
									c-0.305-0.197-0.595-0.325-0.8-0.409C232.872,78.339,232.744,78.301,232.744,78.301z"/>
							</g>
							<ellipse fill="#D1D3D4" cx="232.567" cy="81.434" rx="0.87" ry="1.003"/>
						</g>
						<g>
							<ellipse fill="#FAB58F" cx="185.338" cy="81.181" rx="5.354" ry="5.172"/>
							<g>
								<path fill="#D1D3D4" d="M184.646,78.301c0,0-0.13-0.02-0.36-0.012c-0.229,0.011-0.563,0.043-0.946,0.188
									c-0.381,0.142-0.828,0.409-1.141,0.876c-0.075,0.113-0.132,0.244-0.202,0.371c-0.044,0.134-0.084,0.272-0.12,0.413
									l-0.044,0.431c0,0.141,0.009,0.282,0.017,0.424c0.018,0.268,0.088,0.55,0.168,0.805c0.076,0.262,0.202,0.503,0.329,0.729
									c0.269,0.448,0.641,0.803,1.004,0.996c0.176,0.114,0.365,0.16,0.518,0.214c0.163,0.032,0.302,0.065,0.418,0.07
									c0.235,0.004,0.36,0,0.36,0s-0.12-0.049-0.328-0.135c-0.104-0.039-0.215-0.116-0.348-0.18
									c-0.119-0.089-0.266-0.17-0.391-0.295c-0.138-0.114-0.26-0.259-0.379-0.418c-0.12-0.157-0.223-0.347-0.315-0.54
									c-0.097-0.195-0.165-0.412-0.23-0.635c-0.059-0.226-0.108-0.442-0.118-0.686l-0.025-0.339l0.021-0.326
									c0.03-0.103,0.046-0.208,0.07-0.307c0.042-0.095,0.066-0.194,0.117-0.284c0.187-0.356,0.496-0.632,0.795-0.831
									c0.301-0.197,0.592-0.325,0.798-0.409C184.521,78.339,184.646,78.301,184.646,78.301z"/>
							</g>
							<ellipse fill="#D1D3D4" cx="184.823" cy="81.434" rx="0.868" ry="1.003"/>
						</g>
						<path fill="#FAB58F" d="M232.054,74.361c0,17.571-8.249,29.91-23.723,29.91c-15.48,0-23.726-12.339-23.726-29.91
							c0-17.573,8.558-31.818,24.037-31.818C224.125,42.543,232.054,56.788,232.054,74.361z"/>
						<path fill="#FAB58F" d="M202.755,109.973c0,0-14.737,1.949-20.034,6.531c-5.399,4.673-6.993,8.71-8.939,17.941h34.314h0.466
							h34.314c-1.945-9.231-3.542-13.269-8.938-17.941c-5.299-4.582-20.033-6.531-20.033-6.531H202.755z"/>
						<path fill="#00B9C5" d="M194.921,111.473c0,0,1.59-0.674-4.229,1.164c1.601,14.482-1.006,21.809-1.006,21.809h38.055
							c-3.687-12.278,0-21.208,0-21.208c-3.519-1.274-3.519-1.274-3.519-1.274s-0.325,17.637-16.127,16.412
							C208.096,128.375,194.402,129.719,194.921,111.473z"/>
						<path fill="#EC524F" d="M208.096,134.445"/>
						<path fill="#751F00" d="M200.239,41.963c0,0-17.001,0.58-20.255,27.454c0,0-3.171,22.136,7.557,41.011
							c0,0,7.169-1.109,14.979-0.425v-6.375c0,0-16.073-2.828-15.864-23.855c0,0,0.105-24.268,12.444-28.87L200.239,41.963z"/>
						<path fill="#751F00" d="M216.419,41.963c0,0,19.276-0.299,22.531,26.576c0,0,1.672,17.979-9.832,41.889
							c0,0-7.174-1.109-14.98-0.425v-6.375c0,0,16.07-2.828,15.865-23.855c0,0-0.104-24.268-12.449-28.87L216.419,41.963z"/>
						<path fill="#751F00" d="M193.41,48.771c0,0,10.958,17.466,33.794,15.795l4.493,11.442l4.452,1.847
							c0,0,6.727-1.847-0.269-29.084c0,0-7.232-19.914-33.36-13.985C202.521,34.785,189.504,37.162,193.41,48.771z"/>
					</g>
				</g>
			</g>
			<g>
				<g>
					<defs>
						<circle id="SVGID_11_" cx="152.596" cy="263.011" r="59.057"/>
					</defs>
					<use xlink:href="#SVGID_11_"  overflow="visible" fill="#EC524F"/>
					<clipPath id="SVGID_12_">
						<use xlink:href="#SVGID_11_"  overflow="visible"/>
					</clipPath>
					<g clip-path="url(#SVGID_12_)">
						<rect x="146.791" y="290.972" fill="#FAB58F" width="11.614" height="6.912"/>
						<path fill="#BCBEC0" d="M147.454,296.132c1.37-1.373,3.137-2.145,5.078-2.289c1.657-0.125,4.491,0.23,5.373-1.5
							c0.139-0.271,0.31-0.475,0.5-0.635v-0.736h-11.614v5.969C146.987,296.66,147.2,296.386,147.454,296.132z"/>
						<g>
							<ellipse fill="#FAB58F" cx="176.32" cy="268.803" rx="5.357" ry="5.171"/>
							<g>
								<path fill="#D1D3D4" d="M177.014,265.925c0,0,0.128-0.02,0.358-0.014c0.229,0.01,0.563,0.043,0.946,0.187
									c0.383,0.143,0.83,0.409,1.14,0.876c0.078,0.113,0.135,0.245,0.2,0.371c0.047,0.135,0.087,0.274,0.123,0.414l0.046,0.43
									c0,0.143-0.011,0.283-0.017,0.427c-0.019,0.265-0.092,0.548-0.169,0.802c-0.077,0.264-0.202,0.504-0.331,0.73
									c-0.266,0.447-0.636,0.803-1.005,0.996c-0.175,0.113-0.363,0.16-0.514,0.213c-0.167,0.033-0.301,0.066-0.42,0.071
									c-0.23,0.004-0.358,0.001-0.358,0.001s0.117-0.049,0.325-0.137c0.104-0.037,0.217-0.115,0.349-0.18
									c0.121-0.088,0.266-0.168,0.392-0.295c0.136-0.113,0.261-0.258,0.378-0.418c0.122-0.156,0.223-0.344,0.316-0.539
									c0.096-0.195,0.164-0.412,0.229-0.635c0.058-0.225,0.109-0.443,0.12-0.686l0.026-0.339l-0.021-0.327
									c-0.03-0.102-0.046-0.205-0.071-0.307c-0.042-0.095-0.069-0.194-0.118-0.282c-0.188-0.357-0.492-0.633-0.793-0.833
									c-0.306-0.195-0.596-0.324-0.8-0.408C177.141,265.962,177.014,265.925,177.014,265.925z"/>
							</g>
							<ellipse fill="#D1D3D4" cx="176.833" cy="269.057" rx="0.867" ry="1.001"/>
						</g>
						<g>
							<ellipse fill="#FAB58F" cx="129.607" cy="268.803" rx="5.354" ry="5.171"/>
							<g>
								<path fill="#D1D3D4" d="M128.915,265.925c0,0-0.13-0.02-0.36-0.014c-0.229,0.01-0.563,0.043-0.946,0.187
									c-0.382,0.143-0.828,0.409-1.142,0.876c-0.076,0.113-0.131,0.245-0.196,0.371c-0.049,0.135-0.087,0.274-0.126,0.414
									l-0.044,0.43c0,0.143,0.01,0.283,0.019,0.427c0.017,0.265,0.09,0.548,0.166,0.802c0.076,0.264,0.203,0.504,0.331,0.73
									c0.266,0.447,0.637,0.803,1.005,0.996c0.172,0.113,0.362,0.16,0.516,0.213c0.163,0.033,0.302,0.066,0.418,0.071
									c0.231,0.004,0.36,0.001,0.36,0.001s-0.121-0.049-0.328-0.137c-0.101-0.037-0.217-0.115-0.349-0.18
									c-0.119-0.088-0.266-0.168-0.391-0.295c-0.134-0.113-0.259-0.258-0.378-0.418c-0.121-0.156-0.22-0.344-0.316-0.539
									c-0.096-0.195-0.164-0.412-0.23-0.635c-0.061-0.225-0.108-0.443-0.117-0.686l-0.025-0.339l0.021-0.327
									c0.029-0.102,0.048-0.205,0.07-0.307c0.043-0.095,0.069-0.194,0.119-0.282c0.188-0.357,0.494-0.633,0.794-0.833
									c0.302-0.195,0.592-0.324,0.798-0.408C128.789,265.962,128.915,265.925,128.915,265.925z"/>
							</g>
							<ellipse fill="#D1D3D4" cx="129.091" cy="269.057" rx="0.867" ry="1.001"/>
						</g>
						<path fill="#FAB58F" d="M176.322,261.984c0,17.573-8.243,29.912-23.726,29.912c-15.479,0-23.724-12.339-23.724-29.912
							s8.558-31.818,24.038-31.818S176.322,244.411,176.322,261.984z"/>
						<path fill="#FAB58F" d="M147.023,297.595c0,0-14.738,1.949-20.033,6.531c-5.398,4.674-6.998,8.709-8.94,17.941h34.314h0.466
							h34.314c-1.945-9.232-3.542-13.268-8.939-17.941c-5.298-4.582-20.033-6.531-20.033-6.531H147.023z"/>
						<path fill="#83141E" d="M165.321,298.933c4.531,1.051,10.052,2.746,12.884,5.193c5.397,4.674,6.994,8.709,8.939,17.941H152.83
							h-0.466H118.05c1.942-9.232,3.542-13.268,8.94-17.941c2.91-2.518,8.668-4.24,13.264-5.281l12.343,13.303L165.321,298.933z"/>
						<path fill="#EC524F" d="M152.364,322.068"/>
						<path fill="#3C2415" d="M144.509,229.586c0,0-17.001,0.579-20.256,27.454c0,0-0.635,23.083-0.635,50.383
							c0,0,3.89-6.82,23.173-9.797v-6.377c0,0-16.077-2.828-15.868-23.854c0,0,0.108-24.27,12.449-28.872L144.509,229.586z"/>
						<path fill="#3C2415" d="M160.688,229.586c0,0,19.31-0.972,22.565,25.901c0,0,0.376,23.85-1.576,52.207
							c0,0-5.354-7.645-23.271-10.068v-6.377c0,0,16.073-2.828,15.866-23.854c0,0-0.103-24.27-12.449-28.872L160.688,229.586z"/>
						<path fill="#3C2415" d="M149.966,255.488l2.398-12.037v12.037h11.918l1.975-8.473l2.056,8.473h14.94
							c0-8.577-1.576-15.482-1.576-15.482s-3.977-18.725-32.022-17.072c0,0-23.63,0-25.341,32.555H149.966z"/>
					</g>
				</g>
			</g>
		</g>
		<g>
			<circle fill="#14BAAB" cx="136.651" cy="8.166" r="8.165"/>
			<circle fill="#EC524F" cx="152.597" cy="27.075" r="5.589"/>
			<path fill="#FBB040" d="M179.262,9.78c0,5.401-4.38,9.78-9.785,9.78c-5.397,0-9.775-4.379-9.775-9.78
				c0-5.402,4.378-9.78,9.775-9.78C174.882,0,179.262,4.378,179.262,9.78z"/>
		</g>
		<g>
			<circle fill="#14BAAB" cx="281.248" cy="113.412" r="7.274"/>
			<circle fill="#EC524F" cx="298.092" cy="99.208" r="4.979"/>
			<path fill="#FBB040" d="M282.686,75.458c4.813,0,8.714,3.902,8.714,8.714c0,4.81-3.9,8.708-8.714,8.708
				c-4.81,0-8.71-3.898-8.71-8.708C273.976,79.36,277.876,75.458,282.686,75.458z"/>
		</g>
		<g>
			<circle fill="#14BAAB" cx="13.507" cy="117.538" r="7.274"/>
			<circle fill="#EC524F" cx="35.007" cy="112.729" r="4.978"/>
			<path fill="#FBB040" d="M32.331,84.549c4.265,2.223,5.919,7.486,3.694,11.754c-2.225,4.266-7.485,5.918-11.75,3.694
				c-4.267-2.225-5.924-7.484-3.699-11.75C22.8,83.979,28.062,82.323,32.331,84.549z"/>
		</g>
		<g>
			<circle fill="#14BAAB" cx="76.94" cy="285.718" r="7.274"/>
			<circle fill="#EC524F" cx="84.738" cy="265.111" r="4.977"/>
			<circle fill="#FBB040" cx="63.962" cy="259.474" r="8.712"/>
		</g>
		<g>
			<path fill="#14BAAB" d="M229.295,269.105c1.96,3.508,0.697,7.936-2.811,9.894c-3.51,1.954-7.941,0.694-9.895-2.813
				c-1.956-3.511-0.696-7.938,2.811-9.896C222.912,264.335,227.342,265.591,229.295,269.105z"/>
			<path fill="#EC524F" d="M247.898,278.019c1.34,2.4,0.476,5.434-1.928,6.77c-2.401,1.34-5.429,0.479-6.769-1.924
				c-1.339-2.4-0.477-5.434,1.922-6.77C243.526,274.755,246.562,275.617,247.898,278.019z"/>
			<path fill="#FBB040" d="M256.796,255.424c2.344,4.202,0.835,9.508-3.369,11.851c-4.205,2.343-9.507,0.834-11.849-3.367
				c-2.343-4.205-0.835-9.509,3.367-11.852C249.145,249.714,254.455,251.222,256.796,255.424z"/>
		</g>
	</g>
</g>
<g>
</g>
<g>
</g>
<g>
</g>
<g>
</g>
<g>
</g>
<g>
</g>
</svg>
