<?xml version="1.0" encoding="utf-8"?>
<!-- Generator: Adobe Illustrator 16.0.0, SVG Export Plug-In . SVG Version: 6.00 Build 0)  -->
<!DOCTYPE svg PUBLIC "-//W3C//DTD SVG 1.1//EN" "http://www.w3.org/Graphics/SVG/1.1/DTD/svg11.dtd">
<svg version="1.1" xmlns="http://www.w3.org/2000/svg" xmlns:xlink="http://www.w3.org/1999/xlink" x="0px" y="0px"
	 width="403.864px" height="263.396px" viewBox="0 0 403.864 263.396" enable-background="new 0 0 403.864 263.396"
	 xml:space="preserve">
<g id="Floor">
</g>
<g id="Shadow">
	<path id="Shadow_2_" fill="#EBEBEB" d="M11.105,228.088c14.808,7.058,38.814,7.058,53.622,0c14.808-7.056,14.808-18.499,0-25.557
		c-14.808-7.057-38.814-7.057-53.622,0C-3.702,209.589-3.702,221.032,11.105,228.088z"/>
	<path id="Shadow_1_" fill="#EBEBEB" d="M388.586,257.873c-15.449,7.364-40.496,7.364-55.945,0c-15.448-7.362-15.448-19.3,0-26.664
		c15.449-7.362,40.496-7.362,55.945,0C404.035,238.572,404.035,250.511,388.586,257.873z"/>
</g>
<g id="Plants">
	<g id="Plants_3_">
		<g id="XMLID_2129_">
			<g id="XMLID_2124_">
				<g id="XMLID_2127_">
					<path id="XMLID_2131_" fill="#27DEBF" d="M121.176,152.718c-0.606-6.938-6.88-20.871-14.867-29.251
						c-7.987-8.38-19.883-13.978-27.684-10.525c-7.266,3.216-5.596,12.971,4.06,18.688s24.029,12.702,29.008,23.607l9.591,13.076
						L121.176,152.718z"/>
					<path id="XMLID_2130_" opacity="0.1" d="M121.176,152.718c-0.606-6.938-6.88-20.871-14.867-29.251
						c-7.987-8.38-19.883-13.978-27.684-10.525c-7.266,3.216-5.596,12.971,4.06,18.688s24.029,12.702,29.008,23.607l9.591,13.076
						L121.176,152.718z"/>
				</g>
				<g id="XMLID_2125_">
					<path id="XMLID_2621_" fill="#FFFFFF" d="M122.518,162.167c-0.223,0.001-0.428-0.145-0.493-0.368
						c-6.715-23.279-27.557-40.856-39.397-44.108c-0.271-0.074-0.43-0.354-0.356-0.625c0.073-0.27,0.348-0.435,0.625-0.356
						c12.065,3.313,33.289,21.175,40.105,44.807c0.078,0.27-0.078,0.551-0.347,0.629
						C122.609,162.161,122.563,162.167,122.518,162.167z"/>
				</g>
			</g>
			<g id="XMLID_2122_">
				<g id="XMLID_2123_">
					<path id="XMLID_2126_" fill="#27DEBF" d="M120.31,177.637c-1.456-3.803-6.782-9.823-14.951-14.466
						c-9.037-5.137-20.061-6.899-22.947-11.259c-3.468-5.238,0.713-10.838,9.564-10.518c8.85,0.321,25.288,10.922,29.32,28.692
						L120.31,177.637z"/>
				</g>
				<g id="XMLID_2128_">
					<path id="XMLID_2620_" fill="#FFFFFF" d="M121.646,173.396c-0.194,0.001-0.379-0.109-0.466-0.297
						c-9.036-19.656-25.139-25.425-32.391-25.73c-0.28-0.011-0.499-0.249-0.487-0.529c0.012-0.282,0.238-0.499,0.53-0.487
						c8.019,0.336,24.05,6.258,33.273,26.321c0.117,0.255,0.005,0.558-0.25,0.675C121.788,173.38,121.716,173.396,121.646,173.396z"
						/>
				</g>
			</g>
		</g>
	</g>
</g>
<g id="Chart">
	<g id="Graphic_2_">
		<g id="XMLID_117_">
			<path id="XMLID_119_" fill="#E0E0E0" d="M297.922,200.236v-31.58H104.138v31.646l0,0c0,14.316,9.46,28.633,28.379,39.556
				c37.839,21.847,99.188,21.847,137.026,0C288.493,228.918,297.951,214.575,297.922,200.236z"/>
			<path id="XMLID_118_" fill="#F0F0F0" d="M269.543,208.216c-37.839,21.84-99.186,21.84-137.025,0
				c-37.839-21.85-37.839-57.27,0-79.12c14.297-8.256,31.957-13.389,50.437-15.406c1.397-0.152,2.699,0.741,3.083,2.093
				l14.989,52.878l92.917-9.635c1.442-0.149,2.79,0.789,3.117,2.201C300.922,177.91,291.748,195.401,269.543,208.216z"/>
		</g>
		<g id="XMLID_113_">
			<path id="XMLID_116_" fill="#27DEBF" d="M303.264,112.529c-3.933-9.877-12.565-19.25-25.889-26.949
				c-22.181-12.797-52.43-18.102-81.289-15.898c-1.592,0.122-2.881,1.54-2.881,3.137l-0.003,25.866c0,1.597,0.353,4.137,0.789,5.673
				l14.078,49.646c0.436,1.536,2.077,2.648,3.665,2.484l89.627-9.283c1.589-0.165,2.876-1.593,2.875-3.189l-0.008-25.869
				C304.227,116.55,303.855,114.013,303.264,112.529z"/>
			<path id="XMLID_115_" opacity="0.3" fill="#FFFFFF" d="M303.965,115.283l-95.107,9.861l-15.253-53.811
				c0.313-0.729,1.312-1.561,2.479-1.651c28.86-2.205,59.111,3.1,81.292,15.897c13.322,7.698,21.954,17.071,25.889,26.947
				C303.625,113.433,303.79,114.352,303.965,115.283z"/>
			<path id="XMLID_114_" opacity="0.1" d="M193.206,72.819l-0.003,25.866c0,1.597,0.353,4.137,0.789,5.673l14.078,49.646
				c0.145,0.507,0.428,0.96,0.789,1.344v-30.205l-15.253-53.809C193.357,71.786,193.206,72.29,193.206,72.819z"/>
		</g>
		<g id="People_2_">
			<g id="XMLID_106_">
				<path id="XMLID_112_" fill="#263238" d="M230.617,77.024L230.327,75c0.232-0.498,0.324-1.06,0.2-1.475l-0.794-2.665
					l-0.502-3.502l-0.494,0.157l0.074-4.315l-1.577-0.907c-0.2-0.115-0.447-0.115-0.647,0.001l-1.712,0.988v0l-3.082,1.779v0
					l-1.883,1.087c-0.214,0.124-0.366,0.332-0.42,0.573l-3.35,15.109c-0.141,0.634-0.007,1.145,0.303,1.329v0.001l1.778,1.021
					l2.095-8.636l0.053,3.57l-1.092,17.019c-0.035,0.555,0.132,0.953,0.416,1.114l-0.001,0.003l0.023,0.013l0.002,0.001l1.753,1.007
					l1.502-14.125l-0.579-0.372l0.388-6.04l1.105-0.639l1.11,16.017c0.03,0.434,0.2,0.721,0.444,0.844v0.007l1.778,1.021
					l-0.064-2.31c0.17-0.402,0.263-0.837,0.235-1.228l-0.451-6.515l-0.126-4.513l-0.195-0.125l-0.319-4.604l0.105-7.275l2.132,7.157
					c0.061,0.205,0.169,0.342,0.302,0.421l0.001,0.008L230.617,77.024z"/>
				<g id="XMLID_110_">
					<path id="XMLID_111_" fill="#455A64" d="M232.295,74.541l-3.323-11.156c-0.056-0.188-0.272-0.273-0.441-0.176l-1.888,1.089v0
						l-3.082,1.779v0l-1.883,1.087c-0.214,0.124-0.366,0.332-0.42,0.573l-3.35,15.109c-0.187,0.841,0.108,1.467,0.658,1.397
						c0.551-0.069,1.147-0.807,1.334-1.647l1.864-8.414c0.037-0.167,0.282-0.142,0.285,0.029l0.087,5.919l-1.092,17.019
						c-0.059,0.915,0.43,1.411,1.091,1.107c0.036-0.016,0.072-0.035,0.107-0.056c0.615-0.355,1.14-1.286,1.196-2.151l1.109-17.298
						l1.106-0.638l1.109,16.017c0.056,0.801,0.58,1.125,1.196,0.77c0.035-0.02,0.071-0.043,0.106-0.068
						c0.662-0.46,1.15-1.52,1.091-2.367l-1.092-15.758l0.092-6.333c0.002-0.166,0.235-0.198,0.283-0.039l1.862,6.253
						c0.187,0.626,0.783,0.674,1.333,0.108C232.188,76.132,232.482,75.166,232.295,74.541z"/>
				</g>
				<path id="XMLID_109_" fill="#263238" d="M226.665,57.223l-1.802-1.018l0,0c-0.411-0.236-0.941-0.227-1.529,0.113
					c-1.292,0.746-2.34,2.739-2.34,4.451c0,0.914,0.304,1.551,0.778,1.844l0,0l1.819,1.06L226.665,57.223z"/>
				<path id="XMLID_108_" fill="#263238" d="M220.994,60.769c0,0.914,0.304,1.551,0.778,1.844l0,0l1.819,1.06l0.997-2.093
					l-3.44-1.981C221.052,59.991,220.994,60.387,220.994,60.769z"/>
				<path id="XMLID_107_" fill="#455A64" d="M225.102,63.534c1.293-0.747,2.341-2.739,2.341-4.452c0-1.712-1.048-2.495-2.341-1.749
					c-1.292,0.747-2.34,2.739-2.34,4.451S223.81,64.28,225.102,63.534z"/>
			</g>
			<g id="XMLID_94_">
				<path id="XMLID_105_" fill="#263238" d="M250.413,94.621l-0.291-2.025c0.233-0.498,0.324-1.06,0.201-1.475l-0.794-2.665
					l-0.502-3.502l-0.495,0.157l0.074-4.315l-1.576-0.907c-0.201-0.115-0.447-0.115-0.648,0.001l-1.711,0.988v0l-3.082,1.779v0
					l-1.883,1.087c-0.214,0.124-0.367,0.332-0.42,0.573l-3.35,15.109c-0.141,0.634-0.007,1.145,0.303,1.329l-0.001,0.001
					l1.778,1.021l2.096-8.636l0.053,3.57l-1.092,17.019c-0.036,0.555,0.132,0.953,0.416,1.114l-0.001,0.003l0.022,0.013l0.003,0.001
					l1.753,1.007l1.501-14.125l-0.578-0.372l0.388-6.04l1.105-0.639l1.109,16.017c0.03,0.434,0.201,0.721,0.445,0.844v0.007
					l1.778,1.021l-0.064-2.31c0.169-0.401,0.263-0.836,0.235-1.228l-0.451-6.515l-0.126-4.513l-0.195-0.125l-0.319-4.604
					l0.105-7.275l2.131,7.157c0.062,0.205,0.17,0.342,0.303,0.421l0.001,0.008L250.413,94.621z"/>
				<g id="XMLID_99_">
					<path id="XMLID_104_" fill="#455A64" d="M252.091,92.137l-3.324-11.156c-0.056-0.188-0.271-0.273-0.441-0.176l-1.887,1.089v0
						l-3.082,1.779v0l-1.883,1.087c-0.214,0.124-0.366,0.332-0.42,0.573l-3.35,15.109c-0.187,0.841,0.108,1.467,0.658,1.397
						c0.55-0.069,1.147-0.807,1.333-1.647l1.865-8.413c0.037-0.167,0.282-0.143,0.285,0.029l0.087,5.919l-1.092,17.019
						c-0.059,0.915,0.43,1.411,1.091,1.107c0.036-0.016,0.072-0.035,0.107-0.056c0.615-0.355,1.14-1.286,1.195-2.151l1.11-17.298
						l1.105-0.639l1.11,16.017c0.056,0.801,0.58,1.125,1.195,0.77c0.035-0.02,0.072-0.043,0.107-0.068
						c0.662-0.46,1.149-1.52,1.091-2.368l-1.092-15.758l0.092-6.333c0.002-0.166,0.235-0.198,0.282-0.039l1.863,6.253
						c0.186,0.626,0.783,0.674,1.333,0.108S252.278,92.763,252.091,92.137z"/>
				</g>
				<path id="XMLID_97_" fill="#263238" d="M246.459,74.82l-1.802-1.018l0,0c-0.41-0.236-0.94-0.227-1.528,0.112
					c-1.293,0.747-2.341,2.739-2.341,4.451c0,0.914,0.304,1.551,0.779,1.844l0,0l1.819,1.06L246.459,74.82z"/>
				<path id="XMLID_96_" fill="#263238" d="M240.789,78.366c0,0.914,0.304,1.551,0.779,1.844l0,0l1.819,1.06l0.997-2.093
					l-3.44-1.981C240.848,77.588,240.789,77.984,240.789,78.366z"/>
				<path id="XMLID_95_" fill="#455A64" d="M244.898,81.13c1.292-0.746,2.341-2.739,2.341-4.452c0-1.712-1.049-2.495-2.341-1.749
					c-1.293,0.747-2.34,2.739-2.34,4.451C242.558,81.094,243.605,81.876,244.898,81.13z"/>
			</g>
			<g id="XMLID_83_">
				<path id="XMLID_93_" fill="#263238" d="M275.914,86.389l-0.291-2.025c0.233-0.498,0.324-1.061,0.201-1.475l-0.794-2.665
					l-0.502-3.501l-0.495,0.157l0.075-4.315l-1.578-0.907c-0.2-0.115-0.447-0.115-0.646,0.001l-1.712,0.988v0l-3.082,1.779v0
					l-1.883,1.087c-0.214,0.124-0.366,0.331-0.421,0.573l-3.349,15.109c-0.141,0.634-0.008,1.145,0.303,1.329l-0.001,0.001
					l1.778,1.021l2.096-8.636l0.053,3.57l-1.092,17.019c-0.036,0.556,0.132,0.953,0.416,1.115l-0.001,0.003l0.022,0.013l0.003,0.002
					l1.753,1.006l1.501-14.125l-0.578-0.372l0.387-6.04l1.106-0.639l1.11,16.017c0.029,0.434,0.199,0.721,0.444,0.844v0.007
					l1.778,1.021l-0.064-2.31c0.169-0.402,0.263-0.836,0.235-1.228l-0.451-6.515l-0.126-4.513l-0.195-0.125l-0.319-4.604
					l0.105-7.275l2.132,7.157c0.061,0.205,0.168,0.342,0.302,0.421l0.001,0.008L275.914,86.389z"/>
				<g id="XMLID_88_">
					<path id="XMLID_89_" fill="#455A64" d="M277.592,83.905l-3.324-11.156c-0.056-0.188-0.271-0.273-0.441-0.176l-1.887,1.09l0,0
						l-3.082,1.779v0l-1.883,1.087c-0.214,0.124-0.367,0.332-0.42,0.573l-3.35,15.109c-0.187,0.841,0.108,1.466,0.658,1.397
						s1.146-0.807,1.333-1.647l1.865-8.414c0.037-0.167,0.282-0.142,0.285,0.029l0.087,5.919l-1.092,17.019
						c-0.059,0.915,0.43,1.411,1.091,1.108c0.036-0.017,0.072-0.036,0.107-0.056c0.615-0.355,1.14-1.286,1.195-2.151l1.11-17.298
						l1.105-0.638l1.109,16.017c0.057,0.801,0.581,1.125,1.196,0.77c0.035-0.02,0.071-0.043,0.107-0.068
						c0.661-0.46,1.149-1.52,1.091-2.368l-1.092-15.758l0.092-6.333c0.002-0.166,0.235-0.198,0.282-0.039l1.863,6.254
						c0.186,0.626,0.783,0.674,1.333,0.108S277.779,84.531,277.592,83.905z"/>
				</g>
				<path id="XMLID_87_" fill="#263238" d="M271.961,66.588l-1.803-1.018l0,0c-0.41-0.236-0.941-0.227-1.528,0.112
					c-1.293,0.746-2.341,2.739-2.341,4.451c0,0.914,0.305,1.551,0.779,1.844l0,0l1.819,1.06L271.961,66.588z"/>
				<path id="XMLID_86_" fill="#263238" d="M266.29,70.134c0,0.914,0.305,1.551,0.779,1.844l0,0l1.819,1.06l0.997-2.093
					l-3.441-1.981C266.349,69.356,266.29,69.752,266.29,70.134z"/>
				<path id="XMLID_85_" fill="#455A64" d="M270.399,72.898c1.293-0.746,2.34-2.739,2.34-4.451s-1.047-2.495-2.34-1.749
					c-1.293,0.747-2.34,2.739-2.34,4.451S269.106,73.645,270.399,72.898z"/>
			</g>
		</g>
	</g>
</g>
<g id="Character_2">
	<g>
		<g>
			<rect id="XMLID_61_" x="376.512" y="231.738" fill="#FFA8A7" width="7.615" height="11.09"/>
			
				<rect id="XMLID_59_" x="349.92" y="218.14" transform="matrix(0.9994 -0.0344 0.0344 0.9994 -7.478 12.288)" fill="#FFA8A7" width="7.616" height="11.09"/>
			<path id="XMLID_55_" fill="#37474F" d="M383.627,123.479c0,7.272,0.94,54.313,0.94,54.313c0.177,2.093,2.139,5.951,1.714,13.987
				c-0.576,10.917-1.52,41.245-1.52,41.245s-3.571,3.54-8.612,0c0,0-6.896-41.208-8.26-52.026
				c-1.191-9.442-3.212-35.093-3.212-35.093l-7.056,30.194c0,0,1.241,7.098,1.515,12.107c0.272,5.01-1.293,33.944-1.293,33.944
				s-3.871,2.675-8.286,0.316c0,0-6.118-42.275-6.903-46.8s5.354-52.188,5.354-52.188H383.627z"/>
			<path id="XMLID_5_" fill="#263238" d="M376.512,239.069v-1.089c-0.729,0.318-2.422,6.777-5.443,9.533
				c-2.402,2.191-5.679,4.721-6.512,7.164c-0.867,2.54,4.563,3.943,6.807,3.545c2.607-0.462,7.127-2.298,8.262-4
				c1.135-1.702,1.666-4.213,2.588-5.46c0.922-1.248,3.047-2.64,3.545-4.084c0.274-0.793-0.051-2.53-0.436-3.998
				c-0.354-1.346-0.736-2.827-1.195-2.701c-0.002,0.165,0,0.831,0,0.831c-0.553,0.612-2.082,1.221-3.808,1.287
				C379.206,240.14,376.502,239.919,376.512,239.069z"/>
			<path id="XMLID_3_" fill="#263238" d="M350.033,227.01c-0.396,0.014-0.718,0.572-1.59,1.516
				c-1.054,1.141-2.778,2.372-4.479,3.223c-2.852,1.427-8.396,3.623-10.904,4.753c-1.567,0.706-1.494,2.6,0.126,3.677
				c1.62,1.078,5.532,1.854,10.229,0.804c2.559-0.572,5.89-2.936,7.998-2.808s6.053,0.097,7.609-0.976s0.934-3.364,0.494-5.332
				c-0.48-2.148-1.167-5.436-1.879-5.29l0.023,0.676c-0.915,1.387-5.576,1.953-7.588,0.932L350.033,227.01z"/>
		</g>
		<g>
			<path id="XMLID_63_" fill="#FFA8A7" d="M403.776,116.359c-0.175-0.96-4.916-11.976-6.866-16.313l-9.864,4.619l3.775,8.654
				l10.224,7.9C404.18,120.235,403.951,117.319,403.776,116.359z"/>
			<g>
				<path id="XMLID_57_" fill="#27DEBF" d="M359.215,72.881c-4.709,0.374-9.406,1.669-13.616,7.921
					c-4.21,6.252-11.579,16.952-11.579,16.952l13.873,4.403L359.215,72.881z"/>
				<path id="XMLID_156_" opacity="0.1" d="M359.215,72.881c-4.709,0.374-9.406,1.669-13.616,7.921
					c-4.21,6.252-11.579,16.952-11.579,16.952l13.873,4.403L359.215,72.881z"/>
			</g>
			<path id="XMLID_53_" fill="#27DEBF" d="M372.165,73.115c6.827,1.644,15.492,4.401,18.524,10.694
				c3.033,6.293,7.715,16.493,7.715,16.493l-11.306,6.682l-3.471-6.041v22.535c-5.34,5.809-23.957,8.516-35.618,0
				c0,0,0-31.19,0-37.122s3.296-13.058,12.396-13.586L372.165,73.115z"/>
			<path id="XMLID_51_" opacity="0.1" d="M383.627,100.944c0,0-3.424-5.941-4.166-7.371l4.166,10.152V100.944z"/>
		</g>
		<g>
			<g id="XMLID_38_">
				<g id="XMLID_49_">
					<path id="XMLID_50_" fill="#263238" d="M374.727,42.757c0,0,1.887-0.323,3.357,1.181c1.442,1.475,1.144,4.205-0.002,10.478
						l-4.456,0.512L374.727,42.757z"/>
				</g>
				<g id="XMLID_47_">
					<path id="XMLID_48_" fill="#263238" d="M348.741,40.943c0,0-1.801,0.001-2.789-0.566c-1.367-0.786-1.725,0.769-0.975,2.12
						c0.749,1.351,2.149,3.111,5.171,3.444c0.04-0.194,1.279-3.481,1.279-3.481L348.741,40.943z"/>
				</g>
				<g id="XMLID_45_">
					<path id="XMLID_46_" fill="#FFA8A7" d="M372.636,54.93c0.662,0.395,1.605-0.876,2.422-1.73c0.815-0.854,3.479-2.02,4.809,0.78
						c1.354,2.854-1.72,6.648-3.524,7.902c-2.146,1.49-3.706,0.321-3.706,0.321l-0.472,10.912c0,0-2.367,5.79-8.775,6.659
						c-6.408,0.869-5.089-4.415-2.984-7.003l0.011-3.968c0,0-3.311,0.667-4.872,0.25c-0.836-0.223-2.83-2.633-4.116-5.33
						c-1.445-3.028-3.849-8.404-1.709-17.496c2.298-9.768,12.791-10.065,19.048-6.127C375.022,44.038,372.636,54.93,372.636,54.93z"
						/>
				</g>
				<g id="XMLID_43_">
					<path id="XMLID_44_" fill="#263238" d="M372.636,56.043c0.333,0.006,1.599-2.094,2.422-2.843
						c1.142-1.038-0.331-10.443-0.331-10.443s1.154-3.567-1.101-5.932c-2.256-2.366-6.627-1.966-9.823-2.082
						c-3.326-0.12-6.887-0.321-11.426-2.292c-4.54-1.972-4.879-2.206-5.442-0.212s-0.775,6.559,1.934,9.619l2.254,0.828
						c0,0,1.217,1.08,5.45,1.596c4.234,0.515,10.829-0.099,11.73-0.223c1.228-0.168,1.49,1.022,2.151,4.273
						C371.036,51.185,371.518,56.021,372.636,56.043z"/>
				</g>
				<g id="XMLID_41_">
					<path id="XMLID_42_" fill="#263238" d="M374.721,43.489l4-2.147c-0.567-1.146-1.923-1.595-3.028-1.002
						C374.588,40.933,374.153,42.343,374.721,43.489z"/>
				</g>
				<g id="XMLID_39_">
					<path id="XMLID_40_" fill="#F28F8F" d="M360.415,68.803c0,0,5.934-1.195,8.008-2.298c1.389-0.738,2.532-2.017,2.867-2.837
						c0,0-0.388,1.761-1.629,3.346c-1.517,1.939-9.245,3.368-9.245,3.368L360.415,68.803z"/>
				</g>
			</g>
			<g id="XMLID_25_">
				<g id="XMLID_36_">
					<path id="XMLID_37_" fill="#263238" d="M361.841,53.447c0,0.682,0.532,1.234,1.188,1.232c0.657-0.002,1.189-0.557,1.189-1.239
						s-0.532-1.234-1.189-1.232C362.374,52.21,361.841,52.765,361.841,53.447z"/>
				</g>
				<g id="XMLID_34_">
					<path id="XMLID_35_" fill="#263238" d="M363.102,48.958l2.544,1.404c0.375-0.73,0.109-1.637-0.593-2.025
						C364.35,47.949,363.477,48.227,363.102,48.958z"/>
				</g>
				<g id="XMLID_32_">
					<path id="XMLID_33_" fill="#F28F8F" d="M361.93,61.509l-2.715,1.018c0.27,0.778,1.095,1.181,1.844,0.899
						C361.809,63.145,362.199,62.287,361.93,61.509z"/>
				</g>
				<g id="XMLID_30_">
					<path id="XMLID_31_" fill="#263238" d="M351.239,49.947l2.318-1.786c-0.473-0.664-1.375-0.803-2.016-0.31
						S350.765,49.283,351.239,49.947z"/>
				</g>
				<g id="XMLID_28_">
					<path id="XMLID_29_" fill="#263238" d="M351.953,53.108c0,0.682,0.532,1.233,1.188,1.231c0.657-0.001,1.189-0.556,1.189-1.238
						c0-0.683-0.532-1.234-1.189-1.232C352.485,51.871,351.953,52.426,351.953,53.108z"/>
				</g>
				<g id="XMLID_26_">
					<polygon id="XMLID_27_" fill="#F28F8F" points="358.01,51.98 357.62,59.131 353.886,57.858 					"/>
				</g>
			</g>
		</g>
		<g>
			<polygon id="XMLID_23_" fill="#EBEBEB" points="326.938,95.06 357.356,103.071 366.334,140.821 337.416,132.421 			"/>
			<path id="XMLID_21_" fill="#E0E0E0" d="M340.2,120.039c-0.281,0.771-1.946,2.911-5.488,2.742l-0.438-1.561L340.2,120.039z"/>
			<path id="XMLID_19_" fill="#E0E0E0" d="M346.998,121.219c0.134,1.006,2.203,2.87,5.699,4.036
				c3.979,1.326,10.084,0.625,10.084,0.625l-0.548-1.877L346.998,121.219z"/>
			<path id="XMLID_17_" fill="#E0E0E0" d="M335.843,100.526c0,0-0.112-0.52-0.251-1.16s1.646-0.668,3.987-0.061l4.481,1.162
				c2.341,0.607,4.351,1.618,4.489,2.259l0.251,1.16L335.843,100.526z"/>
			<path fill="#37474F" d="M345.015,100.917c-0.014-0.067-0.027-0.133-0.038-0.186c-0.104-0.542,0.124-0.869,1.152-0.618l3.44,0.906
				l-0.224-0.722c-0.124-0.399-1.072-0.963-2.119-1.26c-1.046-0.297-1.895-0.538-1.895-0.538s-0.86-2.849-4.799-3.726
				c-3.938-0.877-3.408,1.632-3.408,1.632l-1.775-0.49c-0.98-0.271-1.703-0.166-1.615,0.234s0.167,0.744,0.167,0.744l3.063,0.807
				c0.68,0.237,1.024,0.537,1.174,1.227c0.018,0.078,0.032,0.15,0.048,0.226c-1.713-0.309-2.897-0.202-2.784,0.322
				c0.139,0.641,0.252,1.16,0.252,1.16l12.957,3.36l-0.251-1.16C348.246,102.303,346.832,101.517,345.015,100.917z"/>
		</g>
		<path id="XMLID_9_" fill="#FFA8A7" d="M401.044,121.219l-10.224-7.9c0,0-20.607,3.353-23.027,3.543s-5.107-1.519-6.03-3.895
			c-0.923-2.375-2.548-2.08-2.548-2.08s0.717,3.011,0.945,3.972s-5.571,1.751-8.787,0.662c-3.217-1.089-7.873,0.492-4.989,4.872
			c2.885,4.38,8.493,4.885,12.391,4.888c1.077,0.001,2.991-0.081,4.872-0.325c1.261-0.164,2.515-0.291,3.783-0.382
			C375.405,124.007,397.419,122.357,401.044,121.219z"/>
		<path id="XMLID_7_" fill="#FFA8A7" d="M330.033,106.096c0,0,1.09,3.886,1.351,4.813c0.26,0.928,3.796,2.612,6.032,3.227
			c2.235,0.614,4.682,1.342,3.623,4.469c-0.976,2.882-4.655,3.541-6.528,3.459s-4.438-1.872-5.447-4.758
			c-1.289-3.682-0.595-7.614-1.106-9.764S328.913,104.813,330.033,106.096z"/>
	</g>
</g>
<g id="Character_1">
	<g>
		<path id="XMLID_152_" fill="#263238" d="M57.312,53.073H22.01V14.96C22.01,6.698,28.708,0,36.97,0h5.382
			c8.262,0,14.96,6.698,14.96,14.96V53.073z"/>
		<g>
			<path id="XMLID_146_" fill="#263238" d="M57.828,208.196c2.049,2.244,4.309,4.041,6.734,5.858
				c0.363,0.272,0.739,0.559,0.936,0.967c0.318,0.66,0.812,2.295-2.2,3.347c-2.943,1.027-6.612,0.787-9.293-0.892
				c-2.474-1.548-2.584-4.769-4.917-6.605c-1.729-1.361-3.889-1.71-5.286-3.488c-0.974-1.238-0.72-2.886-0.212-4.925
				c0.554-2.226,0.809-3.911,1.546-3.74l-0.121,1.024c0.918,1.467,5.685,1.9,7.805,0.888
				C52.819,200.629,56.49,206.732,57.828,208.196z"/>
			<path id="XMLID_144_" fill="#FFA8A7" d="M59.917,210.278c0-0.003,0-0.013,0-0.016c-0.716-0.656-1.417-1.333-2.09-2.068
				c-0.861-0.943-2.693-3.812-3.889-5.733c-0.727-1.168-1.255-2.564-1.089-4.104c0.167-1.539,0.593-5.487,0.593-5.487l-7.551-0.534
				l-0.877,7.404v0c-0.182,1.678,1.204,3.168,3.662,5.285c2.457,2.117,5.578,7.055,7.802,8.297s3.815,1.196,4.764,0.561
				C62.216,213.229,62.313,212.727,59.917,210.278z"/>
			<path id="XMLID_142_" fill="#263238" d="M29.114,208.871v-1.135c0.448,1.331,2.523,7.062,5.672,9.933
				c2.503,2.283,5.917,4.92,6.786,7.465c0.903,2.647-4.752,3.537-7.09,3.123c-2.717-0.481-6.232-2.023-8.146-4.374
				c-1.346-1.653-2.202-3.612-3.163-4.912c-0.961-1.3-3.175-2.751-3.695-4.256c-0.285-0.826,0.053-2.636,0.455-4.166
				c0.368-1.403,0.766-2.946,1.245-2.814c0.002,0.171,0,0.865,0,0.865c0.576,0.639,2.17,1.272,3.968,1.341
				C26.307,209.987,29.124,209.756,29.114,208.871z"/>
			<path id="XMLID_140_" fill="#FFA8A7" d="M37.052,219.678c-0.776-0.693-1.557-1.37-2.266-2.016c-2.2-2.007-3.876-5.41-4.839-7.731
				c-0.55-1.326-0.833-2.741-0.833-4.176v-4.523h-7.936v7.362v0v0.001v0.196l0.04,0.02c0.382,1.649,4.023,6.036,6.093,8.896
				c1.387,1.917,4.022,4.356,7.171,4.777C37.466,222.882,38.991,221.94,37.052,219.678z"/>
			<path id="XMLID_138_" fill="#37474F" d="M22.757,85.546c-6.152,13.437,0.222,60.769,0.222,60.769
				c-0.185,2.18-2.678,6.471-3.607,16.068c-1.098,11.339,1.722,39.811,1.722,39.811s3.674,2.403,8.02,0.319
				c0,0,7.563-42.881,8.985-54.155c1.241-9.839,3.623-32.966,3.623-32.966l6.771,32.913c0,0-2.596,5.664-3.003,9.863
				c-0.643,6.632,0.042,35.345,0.042,35.345s2.712,2.063,7.91,1.298c0,0,8.8-40.03,9.496-48.011
				c0.416-4.767-5.018-63.219-5.018-63.219L22.757,85.546z"/>
			<path id="XMLID_136_" fill="#263238" d="M41.722,115.391l1.998-10.987c0,0,8.45-1.75,12.282-5.353c0,0-4.021,5.001-9.992,6.639
				l-2.243,9.608l3.921,29.093L41.722,115.391z"/>
		</g>
		<g>
			<path id="XMLID_154_" fill="#FFA8A7" d="M12.73,79.704c0.063-0.881,1.714-10.29,2.851-15.552l11.061,3.39l-1.966,9.682
				l-9.319,7.479C12.438,84.124,12.667,80.585,12.73,79.704z"/>
			<polygon id="XMLID_150_" fill="#F28F8F" points="66.224,59.869 71.452,69.454 63.319,76.425 55.87,64.613 			"/>
			<path id="XMLID_148_" fill="#EBEBEB" d="M46.607,38.506c5.185,0.054,10.895,1.938,12.859,6.004
				c1.964,4.065,8.106,16.728,8.106,16.728s-4.583,6.709-11.852,6.237L46.607,38.506z"/>
			<path id="XMLID_134_" fill="#F5F5F5" d="M33.609,38.866L33.609,38.866c-4.697,1.13-8.44,4.351-10.414,8.517
				c-1.502,3.171-1.519,6.849-0.373,10.166l5.496,15.9c0,0-2.573,6.22-5.561,12.097c13.793,7.698,31.016,3.651,35.163-1.966
				c0.175-1.191-0.063-6.563,0.271-12.674c0.356-6.517,1.252-13.875,0.227-17.903c-1.903-7.477-5.465-14.497-12.556-14.497
				L33.609,38.866z"/>
			<path id="XMLID_132_" fill="#F5F5F5" d="M31.558,38.866c-4.707,0.666-11.619,1.614-14.001,12.802
				c-2.416,11.339-3.112,15.281-3.112,15.281s3.863,4.494,11.672,4.458l2.429-8.596L31.558,38.866z"/>
			<path id="XMLID_91_" fill="#EBEBEB" d="M26.789,69.024c0,0,1.595-5.052,2.558-9.155c0,0,0.078,7.147-1.279,12.854L26.789,69.024z
				"/>
		</g>
		<g>
			<path id="XMLID_130_" fill="#263238" d="M34.227,48.3L34.227,48.3c-3.412,0-6.177-2.766-6.177-6.177V24.118h6.177V48.3z"/>
			<path id="XMLID_128_" fill="#FFA8A7" d="M51.514,7.139c1.865,1.102,4.169,5.792,3.941,15.622
				c-0.193,8.332-2.893,10.39-4.25,10.983c-1.355,0.593-3.971,0.232-6.514-0.191v5c0,0,3.514,4.082,3.293,6.375
				c-0.222,2.293-5.074,2.834-8.362,0.595c-3.288-2.24-5.396-5.649-5.396-5.649V27.785c0,0-1.717,2.292-4.524,0.428
				c-2.808-1.864-2.914-6.479-1.282-8.136s5.15-1.132,5.806,1.157c0,0,4.055,0.148,9.454-2.818
				C49.081,15.45,51.155,10.369,51.514,7.139z"/>
			
				<ellipse id="XMLID_126_" transform="matrix(0.9989 -0.0473 0.0473 0.9989 -0.9296 2.1572)" fill="#263238" cx="45.106" cy="20.717" rx="1.048" ry="1.089"/>
			<path id="XMLID_124_" fill="#F28F8F" d="M46.433,27.73l2.433,0.776c-0.202,0.697-0.91,1.087-1.582,0.874
				C46.611,29.165,46.23,28.426,46.433,27.73z"/>
			<path id="XMLID_122_" fill="#263238" d="M54.743,17.45l-2.12-1.469c0.387-0.605,1.175-0.767,1.76-0.361
				S55.13,16.845,54.743,17.45z"/>
			
				<ellipse id="XMLID_120_" transform="matrix(0.9989 -0.0473 0.0473 0.9989 -0.8847 2.5396)" fill="#263238" cx="53.208" cy="19.96" rx="1.048" ry="1.088"/>
			<polygon id="XMLID_102_" fill="#F28F8F" points="49.312,19.31 49.479,25.617 52.798,24.589 			"/>
			<path id="XMLID_100_" fill="#F28F8F" d="M44.692,33.552c-2.68-0.352-8.191-1.935-9.051-4.114c0,0,0.286,1.37,1.933,2.781
				c1.647,1.412,7.118,3.001,7.118,3.001V33.552z"/>
		</g>
		<g>
			<polygon id="XMLID_81_" fill="#27DEBF" points="88.544,59.28 58.126,67.291 49.148,105.041 78.067,96.642 			"/>
			<path id="XMLID_79_" opacity="0.15" d="M75.282,84.259c0.282,0.771,1.947,2.911,5.488,2.742l0.438-1.561L75.282,84.259z"/>
			<path id="XMLID_77_" opacity="0.15" d="M68.484,85.44c-0.133,1.005-2.203,2.87-5.699,4.035
				C58.807,90.801,52.702,90.1,52.702,90.1l0.547-1.877L68.484,85.44z"/>
			<path id="XMLID_75_" opacity="0.15" d="M79.639,64.747c0,0,0.113-0.52,0.251-1.161c0.139-0.641-1.646-0.668-3.987-0.061
				l-4.481,1.162c-2.341,0.607-4.351,1.619-4.489,2.259l-0.251,1.16L79.639,64.747z"/>
			<g>
				<path id="XMLID_73_" fill="#37474F" d="M81.747,60.37c0.088-0.4-0.635-0.505-1.615-0.235l-1.775,0.49
					c0,0,0.529-2.509-3.409-1.632c-3.938,0.876-4.799,3.726-4.799,3.726s-0.848,0.241-1.894,0.539
					c-1.046,0.297-1.995,0.861-2.119,1.26l-0.224,0.722l15.668-4.126C81.581,61.114,81.659,60.77,81.747,60.37z"/>
				<path id="XMLID_71_" fill="#37474F" d="M79.589,61.623c-1.436,0.346-2.032,0.537-2.247,1.524
					c-0.245,1.128-0.345,1.956-0.345,1.956l-6.935,1.833c0,0,0.335-1.429,0.442-1.985c0.107-0.557-0.129-0.892-1.232-0.6
					l-0.094-0.442l10.867-2.767L79.589,61.623z"/>
				<path id="XMLID_69_" fill="#37474F" d="M79.828,64.855c0,0,0.112-0.52,0.251-1.16s-1.646-0.668-3.987-0.061l-4.481,1.162
					c-2.341,0.607-4.351,1.619-4.489,2.259l-0.251,1.16L79.828,64.855z"/>
			</g>
		</g>
		<path id="XMLID_67_" fill="#FFA8A7" d="M15.356,84.703l9.319-7.479c0,0,20.593,3.668,23.013,3.858
			c2.42,0.19,5.107-1.519,6.03-3.894c0.922-2.376,2.547-2.08,2.547-2.08s-0.716,3.011-0.945,3.972
			c-0.229,0.962,5.571,1.751,8.788,0.662c3.217-1.089,7.873,0.492,4.989,4.872c-2.885,4.381-8.494,4.885-12.39,4.889
			c-1.078,0-2.991-0.082-4.872-0.326c-1.261-0.164-2.515-0.291-3.783-0.381C40.078,88.228,18.981,85.84,15.356,84.703z"/>
		<path id="XMLID_65_" fill="#FFA8A7" d="M85.449,70.316c0,0-1.09,3.886-1.35,4.814c-0.26,0.927-3.797,2.612-6.033,3.226
			c-2.236,0.614-4.682,1.342-3.624,4.469c0.976,2.883,4.655,3.541,6.528,3.459c1.874-0.082,4.438-1.872,5.448-4.758
			c1.289-3.681,0.594-7.613,1.106-9.764C88.038,69.612,86.57,69.034,85.449,70.316z"/>
	</g>
	<g>
	</g>
	<g>
	</g>
	<g>
	</g>
	<g>
	</g>
	<g>
	</g>
	<g>
	</g>
	<g>
	</g>
	<g>
	</g>
	<g>
	</g>
	<g>
	</g>
	<g>
	</g>
	<g>
	</g>
	<g>
	</g>
	<g>
	</g>
	<g>
	</g>
</g>
</svg>
