<?xml version="1.0" encoding="utf-8"?>
<!-- Generator: Adobe Illustrator 16.0.0, SVG Export Plug-In . SVG Version: 6.00 Build 0)  -->
<!DOCTYPE svg PUBLIC "-//W3C//DTD SVG 1.1//EN" "http://www.w3.org/Graphics/SVG/1.1/DTD/svg11.dtd">
<svg version="1.1" id="Слой_1" xmlns="http://www.w3.org/2000/svg" xmlns:xlink="http://www.w3.org/1999/xlink" x="0px" y="0px"
	 width="2977.819px" height="1404px" viewBox="0 0 2977.819 1404" enable-background="new 0 0 2977.819 1404" xml:space="preserve">
<g>
	<path fill="#EDF4FF" d="M2958.289,1025.918c-1.91,95.931-23.231,190.143-56.747,279.752c-4.842,12.702-31.625,93.906-43.818,93.908
		c-19.045,0.004-38.092,0.007-57.137,0.01c-211.271,0.035-422.542,0.069-633.813,0.099c-416.33,0.059-832.661,0.116-1248.991,0.164
		c-246.553,0.028-493.106,0.188-739.659,0.045c-16.172-0.009-29.643-20.896-38.928-31.931
		c-17.095-20.317-28.98-43.413-36.198-67.904c-9.835-33.369-15.981-82.714,2.278-145.484c9.859-33.892,30.996-68.064,46.99-93.726
		c34.341-55.1,79.04-102.428,128.4-144.282c56.739-48.111,129.735-92.419,157.683-164.971
		c41.329-107.29-29.588-212.563-19.91-320.671c16.136-180.236,195.229-314.946,352.556-375.756
		c121.903-47.119,257.017-58.519,386.713-54.39c63.458,2.021,126.828,8.283,189.423,18.925
		c57.173,9.72,124.512,19.66,176.938,45.873c112.46,41.616,209.806,109.265,292.306,195.759
		c40.076,42.018,75.63,89.192,119.373,127.557c52.198,45.778,105.616,44.131,170.609,31.527
		c123.657-24.26,244.484-50.697,369.826-20.211c121.392,29.525,225.748,103.266,311.916,191.617
		C2902.018,708.678,2961.427,862.915,2958.289,1025.918C2958.165,1032.146,2959.033,987.257,2958.289,1025.918z"/>
	<path fill="#E1ECFE" d="M638.954,1002.361c0,0-94.721-23.467-131.93,35.337s-111.627,61.083-150.696,108.314
		c-39.07,47.232-68.837,132.327,20.465,174.431s311.421-19.685,311.421-19.685l42.453-273.979L638.954,1002.361z"/>
	<path fill="#ACD29A" d="M779.738,737.448c0,0-12.687-78.171-79.666-110.025c-40.205-19.121-160.964-33.361-157.244,52.224
		c2.957,67.998-65.119,59.673-38.451,138.774c22.962,68.108,101.044,41.699,101.044,41.699L779.738,737.448z"/>
	<path fill="#ACD29A" d="M2826.339,1195.638c-89.021-71.098-218.305,14.884-243.111-81.864
		c-24.808-96.748-141.984-104.054-141.984-104.054l-119.657,389.942c159.667-0.023,319.333-0.048,479.001-0.074
		c19.045-0.003,38.092-0.006,57.137-0.01c12.193-0.002,38.977-81.206,43.818-93.908c0.428-1.144,0.845-2.29,1.268-3.436
		C2891.911,1271.792,2867.653,1228.642,2826.339,1195.638z"/>
	<rect x="1651.043" y="427.375" fill="#98BAF4" width="790.205" height="973.29"/>
	<rect x="1729.856" y="474.97" fill="#EDF4FF" width="711.392" height="106.017"/>
	<rect x="1144.073" y="649.559" fill="#FFFFFF" width="892.442" height="754.442"/>
	<rect x="1122.005" y="622.146" fill="#FFFFFF" width="928.472" height="27.413"/>
	<rect x="1635.108" y="413.668" fill="#FFFFFF" width="820.808" height="27.413"/>
	<rect x="1144.073" y="717.754" fill="#FF9E55" width="577.415" height="140.228"/>
	<rect x="605.421" y="738.937" fill="#AFCDFB" width="538.652" height="298.761"/>
	<rect x="605.421" y="1099.859" fill="#AFCDFB" width="538.652" height="298.76"/>
	<rect x="680.078" y="1037.698" fill="#7FA8E5" width="463.995" height="62.161"/>
	<g>
		<g>
			<g>
				<path fill="#FFFFFF" d="M1222.622,838.233c-13.5,0-26.191-5.257-35.737-14.803c-9.546-9.545-14.803-22.236-14.803-35.736
					s5.257-26.191,14.803-35.737c9.546-9.545,22.237-14.802,35.737-14.802s26.191,5.257,35.737,14.802
					c9.545,9.546,14.803,22.237,14.803,35.737s-5.257,26.191-14.803,35.736C1248.813,832.976,1236.121,838.233,1222.622,838.233z
					 M1222.622,741.806c-12.257,0-23.781,4.773-32.448,13.44s-13.44,20.19-13.44,32.447s4.773,23.78,13.44,32.447
					s20.19,13.44,32.448,13.44s23.78-4.773,32.448-13.44c8.667-8.667,13.44-20.19,13.44-32.447s-4.773-23.78-13.44-32.447
					C1246.402,746.58,1234.879,741.806,1222.622,741.806z"/>
			</g>
			<polygon fill="#FFFFFF" points="1255.264,779.45 1230.866,779.45 1230.866,755.051 1214.377,755.051 1214.377,779.45 
				1189.979,779.45 1189.979,795.938 1214.377,795.938 1214.377,820.335 1230.866,820.335 1230.866,795.938 1255.264,795.938 			"/>
		</g>
	</g>
	<g>
		<path fill="#FFFFFF" d="M1313.244,763.481h10.73v19.301h19.789v-19.301h10.73v48.774h-10.73v-19.579h-19.789v19.579h-10.73
			V763.481z"/>
		<path fill="#FFFFFF" d="M1364.042,787.868c0-13.866,10.939-25.224,25.99-25.224s25.851,11.219,25.851,25.224
			c0,13.867-10.94,25.225-25.99,25.225C1374.842,813.092,1364.042,801.874,1364.042,787.868z M1404.664,787.868
			c0-8.361-6.132-15.329-14.771-15.329c-8.641,0-14.633,6.829-14.633,15.329c0,8.361,6.132,15.33,14.772,15.33
			S1404.664,796.369,1404.664,787.868z"/>
		<path fill="#FFFFFF" d="M1421.738,805.148l6.341-7.595c4.39,3.623,8.988,5.923,14.563,5.923c4.39,0,7.038-1.741,7.038-4.738
			c0-2.718-1.672-4.111-9.824-6.201c-9.825-2.509-16.166-5.227-16.166-15.051c0-8.85,7.107-14.702,17.071-14.702
			c7.107,0,13.169,2.229,18.117,6.201l-5.575,8.083c-4.32-2.996-8.57-4.808-12.682-4.808c-4.111,0-6.271,1.881-6.271,4.39
			c0,3.205,2.09,4.25,10.521,6.41c9.895,2.578,15.469,6.132,15.469,14.772c0,9.685-7.386,15.12-17.908,15.12
			C1435.046,812.953,1427.591,810.375,1421.738,805.148z"/>
		<path fill="#FFFFFF" d="M1469.679,763.481h19.928c11.637,0,18.674,6.897,18.674,17.001c0,11.288-8.779,17.142-19.719,17.142
			h-8.152v14.632h-10.73V763.481z M1488.91,788.078c5.365,0,8.5-3.206,8.5-7.526c0-4.808-3.345-7.386-8.71-7.386h-8.292v14.912
			H1488.91z"/>
		<path fill="#FFFFFF" d="M1516.713,763.481h10.73v48.774h-10.73V763.481z"/>
		<path fill="#FFFFFF" d="M1550.996,773.375h-14.842v-9.894h40.414v9.894h-14.842v38.881h-10.73V773.375z"/>
		<path fill="#FFFFFF" d="M1595.243,763.131h9.895l20.904,49.124h-11.219l-4.459-10.939h-20.625l-4.46,10.939h-10.939
			L1595.243,763.131z M1606.531,791.839l-6.479-15.816l-6.48,15.816H1606.531z"/>
		<path fill="#FFFFFF" d="M1633.568,763.481h10.73v39.02h24.318v9.755h-35.049V763.481z"/>
	</g>
	<rect x="2081.364" y="1043.209" fill="#AFCDFB" width="359.879" height="237.505"/>
	<rect x="2081.364" y="693.501" fill="#AFCDFB" width="359.879" height="237.505"/>
	<rect x="1737.346" y="480.615" fill="#AFCDFB" width="703.902" height="93.57"/>
	<polygon fill="#DFEBFD" points="1144.073,658.973 2036.516,685.885 2036.516,649.559 1144.073,649.559 	"/>
	<rect x="571.721" y="737.155" fill="#FFFFFF" width="572.353" height="29.577"/>
	<path fill="#ACD29A" d="M570.885,1276.51c-69.87,15.876-88.5,72.598-132.744,38.563c-44.244-34.035-100.135-11.337-130.399-9.861
		c-30.277,1.477-25.626-69.547-90.832-92.233c-31.381-10.921-83.873-12.85-121.401-11.217c-4.948,40.697,0.27,73.808,7.489,98.3
		c7.218,24.491,19.103,47.587,36.198,67.904c7.918,9.411,18.884,25.978,31.97,30.658h511.501
		C708.28,1336.953,640.743,1260.621,570.885,1276.51z"/>
	<path fill="#F8FCFF" d="M384.682,313.098c0,0,47.322-55.551,160.482-49.379c0,0,164.288-92.589,339.48-12.345
		c0,0,186.228-19.883,324.145,17.215c91.953,24.734,122.324,50.681,122.324,50.681L384.682,313.098z"/>
	<circle fill="#F8FCFF" cx="1441.039" cy="244.961" r="36.459"/>
	<path fill="#F8FCFF" d="M930.791,475.958c0,0,25.919-30.426,87.899-27.046c0,0,89.984-50.712,185.94-6.761
		c0,0,102-10.89,177.54,9.429c50.364,13.547,66.999,27.759,66.999,27.759L930.791,475.958z"/>
	<g>
		<rect x="1282.961" y="1068.631" fill="#98BAF4" width="627.099" height="327.597"/>
		<rect x="1304.037" y="1091.54" fill="#FFFFFF" width="587.855" height="305.789"/>
		<rect x="1326.295" y="1110.882" fill="#AFCDFB" width="544.532" height="70.261"/>
		<rect x="1326.295" y="1200.227" fill="#AFCDFB" width="159.232" height="195.782"/>
		<rect x="1500.677" y="1200.227" fill="#AFCDFB" width="195.768" height="195.782"/>
		<rect x="1709.909" y="1200.227" fill="#AFCDFB" width="160.918" height="195.782"/>
		<polygon fill="#CCE1FF" points="1564.822,1200.227 1696.445,1200.227 1696.445,1272.684 1672.985,1396.009 1527.577,1396.009 		
			"/>
		<g>
			<g>
				<rect x="1526.343" y="1237.482" fill="#FFFFFF" width="146.456" height="158.746"/>
				<rect x="1533.324" y="1244.657" fill="#98BAF4" width="132.493" height="151.571"/>
				<rect x="1597.103" y="1244.657" fill="#FFFFFF" width="4.937" height="151.571"/>
			</g>
			<g>
				<circle fill="#FFFFFF" cx="1588.425" cy="1320.443" r="3.13"/>
				<circle fill="#FFFFFF" cx="1610.716" cy="1320.443" r="3.13"/>
			</g>
		</g>
		<polygon fill="#CCE1FF" points="1376.95,1200.227 1457.57,1200.227 1431.835,1396.009 1351.215,1396.009 		"/>
		<polygon fill="#CCE1FF" points="1469.307,1110.882 1460.073,1181.143 1379.453,1181.143 1388.688,1110.882 		"/>
		<polygon fill="#CCE1FF" points="1747.997,1200.227 1828.617,1200.227 1802.882,1396.009 1722.262,1396.009 		"/>
		<polygon fill="#CCE1FF" points="1840.354,1110.882 1831.12,1181.143 1750.5,1181.143 1759.734,1110.882 		"/>
		<polygon fill="#CCE1FF" points="1727.227,1110.882 1713.856,1181.143 1568.45,1181.143 1581.819,1110.882 		"/>
	</g>
	<polygon fill="#CCE1FF" points="1710.036,1214.653 1710.333,1214.653 1710.036,1216.215 	"/>
	<path fill="#ACD29A" d="M1238.802,1396.102c0,0-3.871-34.255,30.859-42.938c34.73-8.683,48.357-39.691,88.677-13.645
		c40.321,26.048,27.559,56.582,27.559,56.582H1238.802z"/>
	<polygon fill="#BDD7FD" points="2249.569,931.006 2130.495,931.006 2182.59,693.505 2301.665,693.505 	"/>
	<polygon fill="#CCE1FF" points="2355.075,1280.713 2236,1280.713 2288.095,1043.212 2407.17,1043.212 	"/>
	<polygon fill="#CCE1FF" points="2185.728,1043.209 2133.633,1280.714 2081.364,1280.714 2081.364,1043.209 	"/>
	<polygon fill="#CCE1FF" points="2441.243,693.501 2441.243,931.006 2310.348,931.006 2368.483,693.501 	"/>
	<rect x="1909.71" y="480.615" fill="#EDF4FF" width="9.923" height="93.57"/>
	<rect x="2110.028" y="480.615" fill="#EDF4FF" width="9.923" height="93.57"/>
	<rect x="2305.386" y="480.615" fill="#EDF4FF" width="9.923" height="93.57"/>
	<g opacity="0.5">
		<g>
			<rect x="668.53" y="846.167" fill="#98BAF4" width="59.671" height="94.188"/>
			<g>
				<g>
					<path fill="#FFFFFF" d="M730.666,943.389h-65.739V843.133h65.739V943.389z M670.995,937.321h53.603v-88.12h-53.603V937.321z"/>
				</g>
				<rect x="670.236" y="877.667" fill="#FFFFFF" width="55.12" height="4.552"/>
				<rect x="670.236" y="909.01" fill="#FFFFFF" width="55.12" height="4.552"/>
				<rect x="695.521" y="845.724" fill="#FFFFFF" width="4.551" height="94.631"/>
			</g>
		</g>
		<g>
			<rect x="840.828" y="846.167" fill="#98BAF4" width="59.671" height="94.188"/>
			<g>
				<g>
					<path fill="#FFFFFF" d="M902.964,943.389h-65.74V843.133h65.74V943.389z M843.293,937.321h53.603v-88.12h-53.603V937.321z"/>
				</g>
				<rect x="842.535" y="877.667" fill="#FFFFFF" width="55.12" height="4.552"/>
				<rect x="842.535" y="909.01" fill="#FFFFFF" width="55.12" height="4.552"/>
				<rect x="867.819" y="845.724" fill="#FFFFFF" width="4.551" height="94.631"/>
			</g>
		</g>
		<g>
			<rect x="1013.126" y="846.167" fill="#98BAF4" width="59.671" height="94.188"/>
			<g>
				<g>
					<path fill="#FFFFFF" d="M1075.262,943.389h-65.739V843.133h65.739V943.389z M1015.591,937.321h53.603v-88.12h-53.603V937.321z"
						/>
				</g>
				<rect x="1014.833" y="877.667" fill="#FFFFFF" width="55.12" height="4.552"/>
				<rect x="1014.833" y="909.01" fill="#FFFFFF" width="55.12" height="4.552"/>
				<rect x="1040.117" y="845.724" fill="#FFFFFF" width="4.551" height="94.631"/>
			</g>
		</g>
	</g>
	<g opacity="0.5">
		<g>
			<rect x="668.53" y="1169.122" fill="#98BAF4" width="59.671" height="94.188"/>
			<g>
				<g>
					<path fill="#FFFFFF" d="M730.666,1266.344h-65.739v-100.257h65.739V1266.344z M670.995,1260.276h53.603v-88.12h-53.603
						V1260.276z"/>
				</g>
				<rect x="670.236" y="1200.622" fill="#FFFFFF" width="55.12" height="4.551"/>
				<rect x="670.236" y="1231.965" fill="#FFFFFF" width="55.12" height="4.551"/>
				<rect x="695.521" y="1168.679" fill="#FFFFFF" width="4.551" height="94.63"/>
			</g>
		</g>
		<g>
			<rect x="840.828" y="1169.122" fill="#98BAF4" width="59.671" height="94.188"/>
			<g>
				<g>
					<path fill="#FFFFFF" d="M902.964,1266.344h-65.74v-100.257h65.74V1266.344z M843.293,1260.276h53.603v-88.12h-53.603V1260.276z
						"/>
				</g>
				<rect x="842.535" y="1200.622" fill="#FFFFFF" width="55.12" height="4.551"/>
				<rect x="842.535" y="1231.965" fill="#FFFFFF" width="55.12" height="4.551"/>
				<rect x="867.819" y="1168.679" fill="#FFFFFF" width="4.551" height="94.63"/>
			</g>
		</g>
		<g>
			<rect x="1013.126" y="1169.122" fill="#98BAF4" width="59.671" height="94.188"/>
			<g>
				<g>
					<path fill="#FFFFFF" d="M1075.262,1266.344h-65.739v-100.257h65.739V1266.344z M1015.591,1260.276h53.603v-88.12h-53.603
						V1260.276z"/>
				</g>
				<rect x="1014.833" y="1200.622" fill="#FFFFFF" width="55.12" height="4.551"/>
				<rect x="1014.833" y="1231.965" fill="#FFFFFF" width="55.12" height="4.551"/>
				<rect x="1040.117" y="1168.679" fill="#FFFFFF" width="4.551" height="94.63"/>
			</g>
		</g>
	</g>
	<rect x="1130.206" y="969.541" fill="#DFEBFD" width="932.607" height="32.82"/>
	<path fill="#ACD29A" d="M823.39,737.155c0,0,16.125-52.474,55.816-51.27c39.692,1.204,52.095,37.729,65.739,31.87
		c13.644-5.858,53.336-2.476,55.816,19.4H823.39z"/>
	<g>
		<g>
			<path fill="#233862" d="M2713.732,1215.389v22.233c0,1.976-0.47,3.884-1.307,5.559c-2.042,4.086-6.295,6.897-11.15,6.897h-3.985
				c-6.83,0-12.456-5.592-12.456-12.456v-22.233c0-2.345,0.67-4.521,1.809-6.396c0-0.033,0-0.033,0-0.033
				c2.21-3.616,6.161-6.027,10.647-6.027h3.985C2708.14,1202.932,2713.732,1208.558,2713.732,1215.389z"/>
			<path opacity="0.3" fill="#233862" d="M2712.426,1243.181c-2.042,4.086-6.295,6.897-11.15,6.897h-3.985
				c-6.83,0-12.456-5.592-12.456-12.456v-22.233c0-2.345,0.67-4.521,1.809-6.396
				C2686.877,1210.367,2692.168,1240.871,2712.426,1243.181z"/>
		</g>
		<polygon fill="#172944" points="2516.253,1378.125 2577.827,1378.125 2577.827,1315.981 2513.591,1315.981 		"/>
		<path fill="#FFFFFF" d="M2710.409,1246.761l-302.509,7.459V1094.7h198.649c18.937,0,36.279,10.6,44.914,27.453l13,25.373
			L2710.409,1246.761z"/>
		<path fill="#233862" d="M2538.558,1368.014c0,16.872,8.702,35.477,8.702,35.477s12.933,0,14.731,0
			c12.941,0,23.433-15.884,23.433-35.477s-25.223-35.476-38.164-35.476C2534.317,1332.539,2538.558,1348.421,2538.558,1368.014z"/>
		<ellipse fill="#2B478B" cx="2547.259" cy="1368.014" rx="23.433" ry="35.477"/>
		<ellipse fill="#AFCDFB" cx="2547.555" cy="1368.014" rx="17.651" ry="26.723"/>
		<path fill="#233862" d="M2707.937,1368.014c0,16.872,8.702,35.477,8.702,35.477s12.934,0,14.731,0
			c12.941,0,23.433-15.884,23.433-35.477s-25.223-35.476-38.164-35.476C2703.696,1332.539,2707.937,1348.421,2707.937,1368.014z"/>
		<ellipse fill="#2B478B" cx="2716.638" cy="1368.014" rx="23.433" ry="35.477"/>
		<path fill="#233862" d="M2318.974,1368.014c0,16.872,8.702,35.477,8.702,35.477s12.934,0,14.731,0
			c12.941,0,23.433-15.884,23.433-35.477s-25.222-35.476-38.164-35.476C2314.734,1332.539,2318.974,1348.421,2318.974,1368.014z"/>
		<ellipse fill="#2B478B" cx="2327.676" cy="1368.014" rx="23.433" ry="35.477"/>
		<path fill="#FFFFFF" d="M2778.135,1351.271c0.033,14.833-11.987,26.854-26.788,26.854h-173.52
			c0.503-2.912,0.771-5.927,0.771-9.041c0-22.938-13.762-41.555-30.706-41.555c-16.977,0-30.738,18.617-30.738,41.555
			c0,3.114,0.233,6.129,0.736,9.041h-101.393c0,0-4.086-45.271-3.583-67.975c0.401-19.756,0.401-58.465-0.771-67.906
			c0-1.407,97.776-1.575,122.455-1.675c3.349-0.034,5.357-0.034,5.559-0.034l0.335,0.234l0.367,0.269
			c4.555,3.181,30.07,21.062,45.908,31.542c13.964,9.209,117.03,12.959,157.447,14.098c10.045,0.268,16.239,0.368,16.239,0.368
			s5.525,5.659,10.414,14.6c3.75,6.932,7.099,15.838,7.166,25.583c0.033,6.061,0.067,13.36,0.067,20.525
			C2778.135,1348.927,2778.135,1350.099,2778.135,1351.271z"/>
		<path fill="#98BAF4" d="M2686.018,1240.536h-135.949c-3.147,0-5.994-1.841-7.3-4.688l-33.652-74.872
			c-1.105-2.444,0.703-5.224,3.382-5.224h143.417c3.146,0,6.027,1.875,7.299,4.788l24.109,55.082l6.027,13.763
			C2695.628,1234.643,2691.776,1240.536,2686.018,1240.536z"/>
		<path fill="#DFEBFD" d="M2622.69,1347.75c-0.028,2.354-0.128,4.564-0.258,6.531c-0.976,13.032-14.066,23.841-14.066,23.841
			h-30.545c0.503-2.914,0.775-5.928,0.775-9.043c0-7.794-1.607-15.1-4.349-21.329c-5.397-12.114-15.172-20.225-26.353-20.225
			c-11.225,0-21,8.11-26.396,20.225c-2.742,6.229-4.35,13.535-4.35,21.329c0,3.115,0.244,6.129,0.746,9.043h-110.005v-283.411
			h88.303l0.42,52.813c0,0,1.489,7.918,4.503,14.994c2.699,6.315,6.287,14.727,10.191,23.884
			c8.038,18.774,17.426,40.679,23.296,54.171c2.942,6.832,5.024,11.482,5.555,12.487c1.65,3.144,26.152,16.421,46.864,28.205
			c5.167,2.942,10.105,5.784,14.382,8.354c6.101,3.675,10.866,6.774,13.12,8.813
			C2620.179,1303.527,2622.992,1329.981,2622.69,1347.75z"/>
		<polygon fill="#FFFFFF" points="2760.454,1287.046 2599.325,1287.046 2540.492,1240.77 2540.157,1240.536 2702.692,1240.536 
			2748.97,1277.771 		"/>
		<path fill="#A8302D" d="M2620.187,1314.237l-14.566-1.44c-5.09-0.502-9.209-4.319-10.112-9.343l-3.349-18.416
			c-0.067-0.301-0.101-0.569-0.067-0.87c10.381,5.96,19.12,11.284,22.435,14.264
			C2616.938,1300.608,2618.847,1306.635,2620.187,1314.237z"/>
		<path fill="#FFFFFF" d="M2664.475,1147.524h-167.861c0,0-0.648-10.741-4.861-23.009c-3.75-10.833-10.23-22.916-21.573-29.813
			h137.169c22.36,0,42.174,11.942,50.044,29.813c0.37,0.741,0.694,1.481,0.973,2.223
			C2660.725,1132.94,2662.854,1139.884,2664.475,1147.524z"/>
		<path fill="#A2C2DD" d="M2620.22,1314.237l-14.6-1.44c-5.09-0.502-9.209-4.319-10.112-9.343l-3.349-18.416
			c-0.067-0.301-0.101-0.603-0.067-0.904c10.381,5.994,19.12,11.318,22.435,14.298
			C2616.938,1300.608,2618.847,1306.635,2620.22,1314.237z"/>
		<path fill="#233862" d="M2778.135,1351.271c0.033,14.833-12.557,26.854-28.094,26.854h-172.214
			c0.503-2.912,0.771-5.927,0.771-9.041c0-7.802-1.607-15.102-4.353-21.33h203.856
			C2778.135,1348.927,2778.135,1350.099,2778.135,1351.271z"/>
		<path fill="#233862" d="M2517.153,1369.084c0,3.114,0.233,6.129,0.736,9.041h-109.999v-30.371h113.615
			C2518.761,1353.983,2517.153,1361.283,2517.153,1369.084z"/>
		<path fill="#233862" d="M2664.689,1288.356h65.892c2.104,0,3.714,2.839,3.393,5.984l-2.338,22.899
			c-0.345,3.368-2.261,5.854-4.515,5.854h-54.284c-3.481,0-6.553-3.444-7.564-8.481l-3.91-19.469
			C2660.685,1291.765,2662.355,1288.356,2664.689,1288.356z"/>
		<path fill="#AFCDFB" d="M2687.323,1215.623c-77.719-3.984-130.29-45.572-146.162-59.87h114.754c3.146,0,6.027,1.875,7.299,4.788
			L2687.323,1215.623z"/>
		<rect x="2145.005" y="1094.698" fill="#FFFFFF" width="293.976" height="283.453"/>
		<path fill="#DFEBFD" d="M2664.475,1147.524h-167.861c0,0-0.648-10.741-4.861-23.009h165.64c0.37,0.741,0.694,1.481,0.973,2.223
			C2660.725,1132.94,2662.854,1139.884,2664.475,1147.524z"/>
		<path fill="#233862" d="M2770.868,1301.646c-0.938,1.541-2.143,2.546-3.448,2.779l-22.603,4.186
			c-1.908,0.368-3.382-2.946-2.88-6.362l2.21-15.202l0.067-0.368l0.435-3.114c0.402-2.679,1.574-4.721,3.014-5.291l1.307-0.502
			l11.484,9.275C2760.454,1287.046,2765.979,1292.706,2770.868,1301.646z"/>
		<rect x="2145.011" y="1281.258" fill="#EA6A60" width="469.514" height="23.894"/>
		<rect x="2145.005" y="1143.81" fill="#EA6A60" width="293.976" height="23.884"/>
		<g>
			<circle fill="#EA6A60" cx="2291.993" cy="1223.946" r="41.845"/>
			<g>
				<g>
					<g>
						<path fill="#FFFFFF" d="M2291.993,1260.994c-9.896,0-19.2-3.854-26.197-10.851c-6.998-6.998-10.852-16.301-10.852-26.197
							c0-9.896,3.854-19.199,10.852-26.197c6.997-6.997,16.301-10.851,26.197-10.851c9.896,0,19.199,3.854,26.196,10.851
							c6.997,6.998,10.851,16.302,10.851,26.197c0,9.896-3.854,19.199-10.851,26.197
							C2311.192,1257.14,2301.889,1260.994,2291.993,1260.994z M2291.993,1190.308c-8.985,0-17.434,3.499-23.786,9.853
							c-6.354,6.354-9.853,14.8-9.853,23.785s3.499,17.433,9.853,23.786c6.353,6.354,14.801,9.853,23.786,9.853
							c8.984,0,17.432-3.499,23.785-9.853s9.853-14.801,9.853-23.786s-3.499-17.432-9.853-23.785
							S2300.978,1190.308,2291.993,1190.308z"/>
					</g>
					<polygon fill="#FFFFFF" points="2315.921,1217.903 2298.036,1217.903 2298.036,1200.018 2285.949,1200.018 2285.949,1217.903 
						2268.064,1217.903 2268.064,1229.989 2285.949,1229.989 2285.949,1247.875 2298.036,1247.875 2298.036,1229.989 
						2315.921,1229.989 					"/>
				</g>
			</g>
		</g>
		<path fill="#233862" d="M2647.845,1316.982l-27.625-2.745h-0.033l-14.566-1.44c-5.09-0.502-9.209-4.319-10.112-9.343
			l-3.349-18.416c-0.067-0.301-0.101-0.569-0.067-0.87v-0.034c-0.167-3.884,3.382-7.031,7.367-6.228l43.028,8.738
			c2.746,0.57,4.922,2.612,5.658,5.291l5.057,18.686C2654.14,1314.036,2651.36,1317.351,2647.845,1316.982z"/>
		<path fill="#98BAF4" d="M2497.179,1169.221l28.959,71.326h-49.689c0,0-10.191-1.706-11.498-22.536
			c-1.396-22.237-1.394-60.614-1.394-60.614l21.81-0.104C2493.68,1158.548,2494.981,1163.114,2497.179,1169.221z"/>
		<path fill="#233862" d="M2511.399,1203.923c0,0,2.514,28.827-11.717,36.722h26.586L2511.399,1203.923z"/>
		<path fill="#233862" d="M2515.306,1223.215c0,0-6.004-4.271-6.52-7.813v20.161h7.855L2515.306,1223.215z"/>
		<path fill="#233862" d="M2508.782,1215.389v22.233c0,1.976-0.47,3.884-1.307,5.559c-2.042,4.086-6.295,6.897-11.15,6.897h-3.985
			c-6.831,0-12.456-5.592-12.456-12.456v-22.233c0-2.345,0.67-4.521,1.809-6.396c0-0.033,0-0.033,0-0.033
			c2.209-3.616,6.161-6.027,10.647-6.027h3.985C2503.189,1202.932,2508.782,1208.558,2508.782,1215.389z"/>
		<path fill="#233862" d="M2439.267,1369.084c0,3.114,0.431,6.129,1.355,9.041h-202.407v-30.371h209.062
			C2442.225,1353.983,2439.267,1361.283,2439.267,1369.084z"/>
		<path fill="#233862" d="M2346.057,1369.084c0,3.114,0.431,6.129,1.355,9.041h-202.407v-30.371h209.062
			C2349.015,1353.983,2346.057,1361.283,2346.057,1369.084z"/>
		<path fill="#172944" d="M2241.024,1378.145h-72.311c-1.529-6.526-6.128-53.005,34.396-53.006
			C2239.937,1325.138,2242.645,1367.543,2241.024,1378.145z"/>
		<g>
			<path fill="#233862" d="M2191.349,1368.014c0,16.872,8.702,35.477,8.702,35.477s12.934,0,14.731,0
				c12.941,0,23.433-15.884,23.433-35.477s-25.222-35.476-38.164-35.476C2187.109,1332.539,2191.349,1348.421,2191.349,1368.014z"/>
			<ellipse fill="#2B478B" cx="2200.051" cy="1368.014" rx="23.433" ry="35.477"/>
			<ellipse fill="#AFCDFB" cx="2200.347" cy="1368.014" rx="17.65" ry="26.723"/>
		</g>
	</g>
	<g>
		<path fill="#163560" d="M1716.989,1076.694c-1.498-2.889,32.683-13.294,33.225,15.221c0,0,64.03-1.574,33.457-37.264
			c-10.584-12.354-9.495-22.57-9.178-32.08c0.322-9.511-6.593-37.15-30.293-34.367c0,0-6.207-2.525-13.953,1.493
			C1712.632,998.835,1673.172,1087.209,1716.989,1076.694z"/>
		<path fill="#FFB27D" d="M1821.672,1108.573c0,0,4.167-6.346,7.526-6.47c3.359-0.125,9.58-1.866,9.082-0.622
			c-0.497,1.244-4.354,1.368-4.728,2.115c-0.373,0.746,5.724,1.865,7.465,1.99c1.742,0.124,5.848,0,5.723,0.871
			c-0.124,0.87-7.399,4.479-12.532,3.98c-5.134-0.497-11.479,1.493-11.479,1.493L1821.672,1108.573z"/>
		<path fill="#163560" d="M1761.394,1110.625c0,0,2.266,4.485,6.375,9.641c4.953,6.203,12.59,13.369,22.178,14.783
			c4.58,0.676,9.059-0.31,13.176-2.139c0.011-0.004,0.015-0.004,0.015-0.004c11.646-5.169,20.401-17.057,20.401-17.057
			c2.053-5.599-1.307-9.395-1.307-9.395s-23.514,5.289-25.753,4.17c-2.239-1.12-15.303-38.754-18.412-43.482
			c-3.112-4.729-13.713-7.185-13.713-7.185L1761.394,1110.625z"/>
		<path fill="#233862" d="M1673.668,1364.446c0,0-7.175,6.548-5.775,11.2c1.4,4.652,7.875,7.754,8.75,13.44s4.375,8.788,7.525,8.788
			c3.149,0,15.018,0,15.018,0s2.318-4.002-3.281-5.208c-5.601-1.206-7.712-7.889-7.361-14.092c0.35-6.203-0.525-14.474-0.525-14.474
			l-11.899-2.758L1673.668,1364.446z"/>
		<path fill="#233862" d="M1734.396,1367.225c0,0-2.581,27.739,0.569,29.29l40.313-0.083c0,0,0-4.652-6.476-5.686
			c-6.475-1.034-17.85-4.825-19.774-13.269C1747.103,1369.035,1734.396,1367.225,1734.396,1367.225z"/>
		<path fill="#FFB27D" d="M1705.669,1168.218c8.296-18.604,13.372-23.944,12.402-29.719c-0.721-4.297,2.196-80.13,2.196-80.13
			c0.984-0.305,2.957-0.578,4.036-0.817c3.402-0.756,6.22-3.146,7.392-6.429c1.412-3.954,2.534-9.793,2.509-17.109l1.063,0.209
			l17.867,3.539c0,0-0.406,5.623-0.418,10.92c0,0.044-0.001,0.088-0.001,0.132c-0.021,4.601,2.996,8.661,7.417,9.937
			c2.256,0.651,4.22,1.209,4.22,1.209s6.562,18.73,7.814,37.975c1.253,19.242-11.931,27.603,0.1,66.057
			C1784.548,1203.264,1701.086,1178.499,1705.669,1168.218z"/>
		<path fill="#E8945B" d="M1753.134,1037.762c0,0-0.406,5.623-0.418,10.92c-9.999-0.282-15.284-9.403-17.449-14.459
			L1753.134,1037.762z"/>
		<path fill="#FFB27D" d="M1756.473,1042.778c0,0-23.656,0.39-23.672-14.346c-0.017-14.735-3.081-24.609,12.022-25.481
			s18.044,4.747,19.246,9.664C1765.271,1017.532,1762.626,1042.296,1756.473,1042.778z"/>
		<path fill="#163560" d="M1755.598,1002.589c0,0-6.478,17.288-16.417,19.844c-9.94,2.557-14.252-0.106-14.252-0.106
			s7.624-6.058,9.206-16.631C1734.135,1005.696,1750.712,994.361,1755.598,1002.589z"/>
		<path fill="#163560" d="M1753.992,1003.993c0,0,4.804,1.796,6.779,5.299c1.934,3.426,3.58,7.962,3.198,13.527
			c0,0,4.88-11.75-0.604-18.397C1757.551,997.374,1753.992,1003.993,1753.992,1003.993z"/>
		<path fill="#EBF3FA" d="M1751.326,1033.636c0,0,1.632,2.147,4.897,1.993c2.631-0.125,3.646-2.407,3.646-2.407
			S1755.037,1032.061,1751.326,1033.636z"/>
		<path fill="#163560" d="M1708.891,1091.915c0,0,0.09,11.22,0.69,21.383c0.399,6.737,1.02,13.011,1.986,15.243
			c2.426,5.599,5.161,6.509,5.161,6.509l21.166,5.188l7.442,1.821l23.47-7.01c0,0,10.689-29.836,6.397-46.632
			c-4.293-16.796-10.851-28.459-10.851-28.459s-19.15,18.751-44.087-1.591L1708.891,1091.915z"/>
		<path fill="#ED7D2B" d="M1767.313,1139.579c0,0,11.623,36.176,12.369,48.493c0.746,12.316-22.217,174.971-23.141,180.646
			c-0.871,5.35-7.514,8.76-7.514,8.76s-3.056,1.802-7.416,0.571c-6.05-1.709-7.962-3.754-7.962-3.754s-9.047-116.004-3.448-157.443
			c5.598-41.438,5.664-77.273,5.664-77.273H1767.313z"/>
		<path fill="#F99746" d="M1718.071,1138.5c0,0-17.729,23.788-19.381,39.868c-1.653,16.08-2.593,72.563-6.114,88.238
			c-3.521,15.677-16.458,45.844-16.458,94.737c0,0,1.344,2.803,5.496,4.296c1.328,0.477,3.107,0.94,4.834,1.336
			c3.425,0.785,6.938-0.889,8.501-4.035c8.746-17.609,36.607-74.408,38.036-86.197c1.011-8.344,9.808-63.565,28.996-95.969
			c4.607-7.778-2.827-38.715-2.827-38.715L1718.071,1138.5z"/>
		<path fill="#FFFFFF" d="M1751.852,1034.03c0,0,0.409,1.736,4.729,1.469c0,0,3.627-0.224,3.516-2.133
			C1760.097,1033.366,1756.58,1032.008,1751.852,1034.03z"/>
		<path fill="#233862" d="M1769.17,1133.994c0,0-4.666,3.691-13.935,3.878c-11.071,0.223-38.506-2.823-38.506-2.823
			s-1.219,3.406-1.169,7.002c0,0,33.507,8.452,52.92,1.234C1768.48,1143.285,1770.984,1138.574,1769.17,1133.994z"/>
		<g>
			<path fill="#FFFFFF" d="M1752.84,1141.694c0-3.152,2.266-5.718,5.052-5.718s5.052,2.565,5.052,5.718
				c0,3.153-2.266,5.719-5.052,5.719S1752.84,1144.847,1752.84,1141.694z M1754.515,1141.694c0,2.23,1.515,4.044,3.377,4.044
				s3.378-1.813,3.378-4.044c0-2.229-1.516-4.043-3.378-4.043S1754.515,1139.464,1754.515,1141.694z"/>
		</g>
		
			<rect x="1676.481" y="1171.463" transform="matrix(-0.9775 -0.2108 0.2108 -0.9775 3118.5283 2705.5469)" fill="#163560" width="53.939" height="30.232"/>
		<path fill="#17467F" d="M1733,1177.487c0,0-14.74,12.349-31.123,8.053s-21.604-19.422-21.604-19.422L1733,1177.487z"/>
		<g>
			<path fill="#17467F" d="M1722.696,1175.551c0-1.614,1.313-2.928,2.928-2.928c1.615,0,2.93,1.313,2.93,2.928
				c0,1.615-1.314,2.93-2.93,2.93C1724.01,1178.481,1722.696,1177.167,1722.696,1175.551z M1723.669,1175.551
				c0,1.079,0.877,1.956,1.955,1.956c1.079,0,1.956-0.877,1.956-1.956c0-1.078-0.877-1.955-1.956-1.955
				C1724.546,1173.596,1723.669,1174.473,1723.669,1175.551z"/>
		</g>
		<path fill="#FFB27D" d="M1682.703,1179.261c0,0-0.021,4.283-0.834,6.35c-0.813,2.065-3.249,4.82-4.062,4.82
			s0.744-4.304,0.338-4.218s-2.365,7.163-3.787,7.335c-1.422,0.173-2.712-7.938-1.967-11.123c0.744-3.185,3.96-7.005,3.96-7.005
			L1682.703,1179.261z"/>
		<path fill="#163560" d="M1720.268,1058.37c0,0-13.086,1.775-20.13,15.652c-5.443,10.724-9.178,44.457-13.018,55.078
			c-3.676,10.164-8.748,29.814-11.576,45.559c-0.219,1.221,0.454,2.425,1.607,2.882l4.813,1.908
			c1.038,0.412,2.221,0.012,2.792-0.948c4.276-7.181,21.137-35.934,26.992-52.569c6.845-19.448,19.649-31.527,19.649-31.527
			L1720.268,1058.37z"/>
		<g>
			<path fill="#0C2442" d="M1726.588,1173.283c0.031-0.482,3.075-48.585,2.493-75.632c-0.306-14.201-2.499-24.205-4.286-30.097
				c-1.949-6.43-4.86-9.061-4.939-9.187l-0.992,0.295c0.073,0.118,8.149,12.268,8.725,39.021
				c0.581,26.982-2.459,75.022-2.489,75.505L1726.588,1173.283z"/>
		</g>
	</g>
	<g>
		<g>
			<path fill="#FFB27D" d="M908.031,1372.35l-7.474-2.422c0,0-1.551-20.283,1.773-44.59c2.105-15.401,5.967-32.08,12.959-45.477
				c3.165-6.063,6.97-11.453,11.546-15.75c0,0,5.735-13.312,13.328-31.109c8.445-19.786,61.287-25.587,31.134,15.863
				c-6.186,8.505-12.829,23.478-20.792,32.57c-13.604,15.543-23.205,33.689-29.797,49.663
				C911.288,1353.946,908.031,1372.35,908.031,1372.35z"/>
			<path fill="#FFB27D" d="M891.018,1373.483c-2.266,3.672,2.626,7.268,8.677,10.656c6.051,3.39,3.545,3.729,11.283,9.49
				c7.738,5.762,12.3,5.126,13.486,4.283c1.054-0.747-2.107-4.304-5.426-8.197c-0.419-0.487-0.834-0.983-1.25-1.479
				c-3.706-4.439-4.255-10.012-5.995-15.789c-1.647-5.473,0.964-19.08,0.964-19.08l-10.329-8.203c0,0-2.098,12.371-3.253,17.524
				c-0.679,3.03-3.156,5.566-5.166,7.435C892.921,1371.143,891.814,1372.189,891.018,1373.483z"/>
			<path fill="#1C468A" d="M899.695,1384.139c6.051,3.39,3.545,3.729,11.283,9.49c7.738,5.762,12.3,5.126,13.486,4.283
				c1.054-0.747-2.107-4.304-5.426-8.197l-0.102,0.039c0,0-6.986-0.938-12.955-6.24c-4.866-4.319-8.636-10.381-11.971-13.391
				c-1.089,1.02-2.196,2.065-2.993,3.359C888.752,1377.155,893.644,1380.75,899.695,1384.139z"/>
		</g>
		<g>
			<path fill="#FFB27D" d="M863.868,1385.524l-8.613,4.464c0,0-5.153-6.712-9.755-14.819c-3.221-5.677-6.179-12.042-6.903-17.258
				c-1.759-12.664-15.166-33.476-13.771-37.021c1.395-3.545,27.981-9.676,27.981-9.676s5.197,35.582,8.653,58.584
				C862.469,1376.51,863.326,1382.152,863.868,1385.524z"/>
			<path fill="#2B478B" d="M857.307,1335.846c-4.922,2.386-9.493,3.759-13.416,4.527c-5.846,1.146-10.244,0.95-12.189,0.76
				c-0.72-0.071-1.102-0.139-1.102-0.139s-4.784-3.446-10.328-11.479c-5.082-7.36-8.857-17.889-8.857-18.018l40.597-3.953
				L857.307,1335.846z"/>
			<path fill="#233862" d="M843.891,1340.374c-5.846,1.146-10.244,0.95-12.189,0.76l4.562-17.725
				C836.264,1323.409,842.172,1332.639,843.891,1340.374z"/>
			<path fill="#FFFFFF" d="M863.868,1385.524l-8.613,4.464c0,0-5.153-6.712-9.755-14.819c3.584-0.271,9.813-1.346,15.96-5.37
				C862.469,1376.51,863.326,1382.152,863.868,1385.524z"/>
			<path fill="#FFB27D" d="M844.296,1319.344c0,0-10.884,15.356-17.476,36.937c-1.55,5.086-6.836,11.416-12.18,17.04
				c-5.184,5.459-10.421,10.253-12.358,12.611l-8.773-4.22c0,0,3.083-8.845,7.645-16.872c1.693-2.984,3.585-5.854,5.606-8.115
				c2.794-3.128,1.875-42.623,4.655-45.227C814.2,1308.896,844.296,1319.344,844.296,1319.344z"/>
			<path fill="#2B478B" d="M849.479,1310.202l-16.066,32.66c-0.093,0.013-11.975,0.37-20.413-4.354
				c-4.838-2.709-7.01-5.912-7.01-5.912l5.009-22.394H849.479z"/>
			<path fill="#B64C41" d="M820.701,1201.157c0,0-5.466-11.494-18.669-4.653s-0.349,32.923-7.278,39.365
				c-6.929,6.441,2.511,10.659,1.105,15.279c-1.406,4.62,2.611,9.873,11.851,9.255s18.968-0.12,23.142-8.202
				c4.174-8.083,3.226-25.869,1.613-28.369S820.701,1201.157,820.701,1201.157z"/>
			<path fill="#FFB27D" d="M819.603,1248.907l0.043,0.024C819.609,1248.951,819.603,1248.907,819.603,1248.907z"/>
			<path fill="#FFB27D" d="M842.096,1262.479l-22.45-13.548c0.125-0.05,0.578-0.728,2.257-5.583c0.715-2.07,1.094-3.866,1.281-5.29
				c0.019-0.144,0.037-0.28,0.05-0.417c0.23-2.07,0.062-3.264,0.062-3.264l4.918,1.778l9.096,3.295
				c-0.106,2.307,0.217,3.929,0.708,5.042c1.188,2.704,3.401,2.723,3.463,2.723L842.096,1262.479z"/>
			<path fill="#ED985F" d="M838.018,1244.493c-8.791,0.746-13.74-4.986-14.834-6.435c-0.162-0.212-0.243-0.33-0.243-0.33
				s0.106-0.03,0.292-0.087c0.715-0.211,2.655-0.796,4.98-1.485l9.096,3.295C837.203,1241.757,837.526,1243.379,838.018,1244.493z"
				/>
			<path fill="#FFB27D" d="M838.458,1241.335c0,0-19.53,2.146-19.93-11.062c-0.4-13.205-3.287-19.249,10.226-20.426
				c13.513-1.176,16.705,3.69,17.501,8.159C848.743,1231.965,843.96,1240.743,838.458,1241.335z"/>
			<path fill="#D35C2B" d="M802.032,1196.503c-0.273-0.61-0.467-1.008-0.467-1.008
				C801.769,1195.778,801.921,1196.12,802.032,1196.503z"/>
			<path fill="#FFB27D" d="M844.736,1248.538c0,0,18.727-14.389,20.726-19.152c1.999-4.765,10.596-22.201,12.817-23.979
				c0,0,4.656-0.598,5.322,2.624c0.667,3.222-4.434,22.35-7.987,28.125c-3.554,5.774-20.582,25.353-26.174,28.194L844.736,1248.538z
				"/>
			<path fill="#FFB27D" d="M890.248,1196.593c-0.309,1.668-0.988,3.458-1.791,4.385c-1.05,1.235-2.717,3.705-3.767,5.311
				c-0.679,0.988-1.112,1.729-1.112,1.729l-5.311-2.594c0,0-0.124-9.016,3.396-10.931c0.124-0.062,0.185-0.123,0.309-0.123
				c1.482-0.803,2.903-1.358,4.138-1.729c1.667-0.432,2.964-0.494,3.705-0.062C890.495,1192.95,890.618,1194.741,890.248,1196.593z"
				/>
			<path fill="#B64C41" d="M829.804,1216.299c-6.911-1.749-4.269,10.495-6.015,9.656c-1.954-0.938-5.312-0.923-4.781,1.436
				c0.529,2.359,1.294,3.203,1.693,4.676c0.398,1.473-0.003,4.39-1.61,3.802s-16.553-17.654-6-30.947
				c10.553-13.294,42.02-5.104,32.111,8.801C843.46,1216.167,834.725,1217.545,829.804,1216.299z"/>
			<path fill="#F99746" d="M854.886,1315.017c0,0-5.868,3.114-15.108,2.968c-5.886-0.089-18.386-2.648-26.422-5.549
				c-4.58-1.647-7.711-3.411-7.334-4.891c0.542-2.132,4.464-18.502,8.089-33.649c3.314-13.851,6.379-26.68,6.379-26.68
				s9.146,6.499,14.477,4.206c5.331-2.296,4.646-4.886,4.646-4.886s3.487-1.408,5.122-0.889c1.635,0.516,6.277-2.114,6.277-2.114
				s5.126,3.962,5.322,12.469c0.031,1.258-0.044,2.621-0.267,4.083l-3.7,4.265C852.367,1264.35,860.216,1289.097,854.886,1315.017z"
				/>
			<path fill="#AA443E" d="M878.132,1396.1h-25.718c0,0-0.491-4.185,0.1-7.76c0.071-0.436,0.297-0.826,0.635-1.173
				c1.506,0.511,3.718,0.87,6.179-0.014c2.017-0.724,3.509-1.825,4.549-2.83c0.266,0.258,5.579,5.322,8.036,5.322
				C874.431,1389.646,878.278,1390.859,878.132,1396.1z"/>
			<path fill="#FFFFFF" d="M814.64,1373.321c-5.184,5.459-10.421,10.253-12.358,12.611l-8.773-4.22c0,0,3.083-8.845,7.645-16.872
				C802.721,1367.284,806.839,1372.308,814.64,1373.321z"/>
			<path fill="#AA443E" d="M804.182,1383.665c0,0-0.321,5.583,1.541,6.323s5.331,2.571,5.331,6.114h-12.882
				c0,0-8.884-4.37-10.069-6.227s5.918-9.781,5.918-9.781S798.385,1384.92,804.182,1383.665z"/>
			<path fill="#FFB27D" d="M825.496,1292.922c0,0,5.64-1.054,7.847,0.391c2.207,1.443,2.859,3.704,1.27,4.628
				c-4.979,2.894-10.025-0.306-10.025-0.306L825.496,1292.922z"/>
			<path fill="#FFB27D" d="M820.717,1248.982c0,0-17.374,3.679-24.226,30.688c-0.67,2.644,0.023,5.463,1.85,7.488
				c3.15,3.491,10.096,8.598,26.247,10.478c1.763,0.205,2-4.27,2-4.27c-0.176,0.357-10.972-6.976-15.567-10.916
				c-0.831-0.712-0.796-2.208-0.196-3.124c1.552-2.369,4.157-6.466,5.033-8.568C817.137,1267.691,825.573,1250.374,820.717,1248.982
				z"/>
			<path fill="#F99746" d="M820.492,1247.215c0,0-10.214,0.727-18.543,11.832c0,0,2.818,10.216,16.05,12.943
				C817.998,1271.991,826.153,1253.596,820.492,1247.215z"/>
		</g>
		<path fill="#B64C41" d="M959.77,983.359c0,0-18.228-2.219-27.391,14.743c-9.164,16.961-8.423,41.533-17.308,53.123
			c-8.884,11.591,1.48,22.579,1.48,22.579l69.223,2.338c0,0,4.813-12.956,0-28.504C980.962,1032.091,1004.469,985.71,959.77,983.359
			z"/>
		<path fill="#E8945B" d="M1018.375,1189.211c-0.711,2.706-3.031,8.817-4.832,8.815c-1.468-0.001-1.994-7.482-3.884-9.071
			c-2.74-2.305-4.973-7.136-5.329-8.307c-0.733-2.414-1.423-2.916-1.423-2.916l0.004-0.004h-0.008c0,0-21.887-40.017-23.598-50.26
			c-0.563-3.334-1.995-10.025-3.679-17.519c-1.829-8.148-3.95-17.248-5.551-24.064c6.987-1.362,14.716-1.842,21.019-1.964
			c1.283,8.292,2.431,16.763,3.421,24.126c1.471,10.95,2.588,19.447,3.278,21.267c1.903,4.998,7.149,31.93,12.094,45.913
			c0.567,1.375,2.173,4.958,3.932,6.176C1016.018,1182.922,1019.082,1186.501,1018.375,1189.211z"/>
		<path fill="#FFB27D" d="M978.703,1149.714c-12.09-38.646,12.246-38.143,10.987-57.482c-1.259-19.339-16.232-40.132-16.232-40.132
			s-0.536-0.055-1.472-0.141c-0.513-0.048-0.955-0.382-1.132-0.865c-0.558-1.528-0.721-4.872-0.712-8.359
			c0.012-5.323,0.42-10.975,0.42-10.975l-17.957-3.556l-1.068-0.21c0.032,9.032-1.677,15.823-3.528,19.615
			c-0.88,1.805-2.598,3.039-4.586,3.317c-3.858,0.541-10.645,1.694-15.22,3.607c-2.222,0.928-3.918,2.034-4.51,3.334
			c-4.931,10.843-9.854,38.206-13.314,57.727c-1.928,10.88-3.399,19.324-4.167,21.113c-2.141,4.992-8.682,32.463-14.271,46.019
			l7.138,2.141c0,0,23.544-39.065,25.685-49.229c0.699-3.31,2.411-9.932,4.408-17.351c0.302-1.123,0.611-2.264,0.923-3.415
			c3.528,9.567,5.329,13.995,5.231,18.128c-0.139,5.883-4.127,11.17-12.464,29.867
			C918.256,1173.199,991.046,1189.184,978.703,1149.714z"/>
		<path fill="#E8945B" d="M970.563,1031.76c0,0-0.409,5.651-0.421,10.975c-10.048-0.283-15.36-9.449-17.536-14.53L970.563,1031.76z"
			/>
		<path fill="#FFB27D" d="M973.918,1036.801c0,0-23.774,0.393-23.791-14.417c-0.016-14.809-3.096-24.732,12.083-25.608
			c15.179-0.877,18.134,4.771,19.342,9.713C982.76,1011.43,980.103,1036.318,973.918,1036.801z"/>
		<path fill="#FFB27D" d="M1007.093,1381.936l-7.629,1.877c0,0-11.998-16.428-21.97-38.843
			c-6.32-14.201-11.819-30.415-12.927-45.485c-0.502-6.821-0.105-13.407,1.523-19.469c0,0-2.134-14.337-5.049-33.466
			c-3.238-21.268-7.437-48.457-10.728-68.45l1.986-0.59l32.458-18.98c0,0,14.915,33.998,11.105,85.113
			c-0.781,10.487,1.455,26.715-0.526,38.638c-3.382,20.377-1.99,40.859,0.816,57.91
			C1000.171,1364.575,1007.093,1381.936,1007.093,1381.936z"/>
		<path fill="#CB7D45" d="M928.687,1111.022c4.456,12.308,6.75,17.327,6.639,21.979c14.202-21.989,39.855-25.307,39.855-25.307
			l-48.713-5.568C926.914,1105.139,927.638,1108.122,928.687,1111.022z"/>
		<path fill="#B64C41" d="M980.845,998.254c-3.668-4.447-6.443-3.48-8-2.145c-12.747-7.07-21.375,3.425-21.375,3.425
			c-1.59,10.626-9.253,16.713-9.253,16.713s4.233,2.25,14.323,0.108c11.976-2.542,15.271-16.037,15.748-17.792
			c1.452,1.303,4.313,4.135,5.185,6.909c1.185,3.771,1.718,11.534,3.981,11.271C981.453,1016.744,986.357,1004.935,980.845,998.254z
			"/>
		<path fill="#FFB27D" d="M892.448,1181.539c0,0-2.17,5.113-4.43,6.54s-5.47,4.875-4.875,7.61s1.189,7.016,4.043,7.016
			c2.854,0,9.513-12.604,10.346-14.982c0.833-2.379,1.546-2.854,1.546-2.854L892.448,1181.539z"/>
		<path fill="#FFFFFF" d="M1004.469,1293.927c-28.707,16.402-104.278-9.718-104.201-11.228c0.4-8.029,7.663-56.359,16.191-102.479
			c5.242-28.362,19.201-38.957,16.969-40.745c-0.022-0.022-0.033-0.033-0.033-0.033c-8.606-6.107-4.886-16.591-4.32-20.345
			c-2.644,0.711-11.172,2.321-20.934-3.065c4.02-19.656,9.75-47.22,15.492-58.136c0.278-0.533,0.755-1.021,1.411-1.488
			c-0.045-0.044-0.056-0.066-0.056-0.066c5.375-3.92,16.358-5.119,16.358-5.119s5.919,14.492,7.729,16.757
			c11.716,14.637,32.76,8.029,29.895-1.088c-1.033-3.32-6.352-13.771-6.996-14.937c-0.033-0.056,1.488,0.145,1.488,0.145
			c3.531,0.466,6.03,0.821,7.829,1.133c3.531,0.6,4.409,1.021,5.286,1.699c3.098,3.098,7.129,10.794,7.452,24.531
			c0.122,5.108,5.441,61.512-11.772,60.535c-0.389-0.022-0.055,0.899,0.689,2.643c2.432,5.586,9.328,19.601,11.327,37.58
			C1000.781,1238.711,1004.469,1293.927,1004.469,1293.927z"/>
		<path fill="#FFFFFF" d="M967.087,1028.057c0,0,0.452,1.823,4.997,1.488c0,0,3.816-0.281,3.675-2.289
			C975.759,1027.256,972.04,1025.871,967.087,1028.057z"/>
		<path fill="#FFB27D" d="M897.531,1187.722c0,0-0.78,5.755-2.297,7.082c-1.517,1.327-1.738,3.716-3.292,2.432
			C890.387,1195.951,897.531,1187.722,897.531,1187.722z"/>
		<path fill="#FFB27D" d="M993.225,1391.858c0.007,4.314,6.06,4.795,12.988,4.49c6.929-0.305,4.978,1.304,14.589,2.128
			c9.612,0.823,13.156-2.118,13.721-3.46c0.502-1.189-4.058-2.549-8.929-4.111c-0.613-0.194-1.227-0.397-1.841-0.6
			c-5.488-1.822-8.889-6.271-13.41-10.268c-4.282-3.785-9.226-16.728-9.226-16.728l-13.101-1.536c0,0,4.73,11.623,6.462,16.611
			c1.019,2.935,0.248,6.395-0.477,9.041C993.612,1388.866,993.221,1390.338,993.225,1391.858z"/>
		<path fill="#1C468A" d="M1006.213,1396.348c6.929-0.305,4.978,1.304,14.589,2.128c9.612,0.823,13.156-2.118,13.721-3.46
			c0.502-1.189-4.058-2.549-8.929-4.111l-0.065,0.086c0,0-6.434,2.881-14.3,1.517c-6.411-1.11-12.807-4.278-17.228-5.081
			c-0.389,1.439-0.78,2.912-0.775,4.432C993.232,1396.172,999.285,1396.653,1006.213,1396.348z"/>
		<path fill="#F99746" d="M1004.469,1293.927c-28.707,16.402-104.278-9.718-104.201-11.228c0.4-8.029,7.663-56.359,16.191-102.479
			c5.242-28.362,19.201-38.957,16.969-40.745c0.533,0.434,8.629,6.963,23.477,6.074c13.293-0.799,23.532-2.465,26.042-2.909
			c2.432,5.586,9.328,19.601,11.327,37.58C1000.781,1238.711,1004.469,1293.927,1004.469,1293.927z"/>
		<path fill="#ED7D2B" d="M933.395,1139.442c0,0,23.506,9.81,48.863,0.556l1.288,3.974c0,0-26.085,9.061-51.167-1.249
			L933.395,1139.442z"/>
	</g>
	<path fill="#2E3552" d="M2974.446,1404H3.374c-1.856,0-3.374-1.519-3.374-3.374v-1.151c0-1.855,1.518-3.373,3.374-3.373h2971.072
		c1.855,0,3.373,1.518,3.373,3.373v1.151C2977.819,1402.482,2976.302,1404,2974.446,1404z"/>
	<g>
		<path fill="#233862" d="M1969.539,1398.915h-25.461c0.19-1.335,0.84-5.396,2.031-9.139c0.413-1.303,0.895-2.568,1.442-3.668
			c2.476-4.942,18.203-1.799,18.203-1.799s1.461,1.252,2.602,6.032C1968.861,1392.447,1969.307,1395.243,1969.539,1398.915z"/>
		<path fill="#9DB0F4" d="M1922.8,1010.014c0,0-20.288,3.563-24.875,15.537c-4.587,11.976-30.5,205.408-30.5,205.408
			s12.832,10.167,40.376,6.517S1922.8,1010.014,1922.8,1010.014z"/>
		<path fill="#233862" d="M1892.601,1390.879c-0.069,3.464-0.505,6.742-1.762,8.035h-50.359c0.64-1.822,2.452-4.563,7.622-5.401
			c5.875-0.95,15.032-3.779,20.379-9.432c1.905-2.007,3.324-4.377,3.946-7.145c2.369-10.549,19.59,3.231,19.59,3.231
			S1892.712,1385.723,1892.601,1390.879z"/>
		<path fill="#233862" d="M1870.914,1385.75c5.628,1.795,16.384,7.275,23.217,4.697c4.415-1.664,29.1-73.064,30.7-104.296
			c0.118-2.271,0.564-5.438,1.264-9.302c1.462-8.06,4.02-19.136,6.964-31.357c7.899-32.747,18.584-73.714,18.352-86.808
			c-0.357-20.323-60.565-4.259-60.565-4.259s-4.141,16.67-4.967,40.807c-1.635,47.909-6.13,128.836-18.355,185.036
			C1867.004,1382.654,1868.58,1385.009,1870.914,1385.75z"/>
		<path fill="#2B478B" d="M1912.701,1158.755l31.828,230.681c0,0,13.978,3.37,24.849,0.674c0,0,9.318-122.686,8.541-152.347
			c-0.776-29.66,6.688-79.366-1.703-84.848C1967.824,1147.434,1912.701,1158.755,1912.701,1158.755z"/>
		<path fill="#FFFFFF" d="M1980.239,1020.582c0,0-33.448-21.628-57.439-10.567c-3.823,1.763-8.185,6.682-11.307,10.121
			c-8.672,9.556-25.616,161.351-25.616,161.351s48.102,16.291,94.362-5.528V1020.582z"/>
		<path fill="#9DB0F4" d="M1920.896,1009.465c0,0-33.862,13.878-38.448,24.541c-4.587,10.662-19.492,76.141-19.492,83.819
			s25.954,1.717,30.132-10.667c3.47-10.284,15.172-41.875,21.343-61.856L1920.896,1009.465z"/>
		<g>
			<path fill="#FFB27D" d="M1927.929,1020.04c7.393,1.45,18.251-0.095,26.201-5.335c-3.589-8.573-5.061-15.343-5.584-19.723
				c-0.031-0.233-0.054-0.459-0.076-0.677c-0.237-2.271-0.203-3.811-0.092-4.518h-19.111c0,0-5.225,2.389-5.225,4.04
				c0,0.883-0.008,1.728-0.023,2.534c-0.038,2.197-0.126,4.116-0.24,5.764c-0.363,5.362-0.979,7.889-0.979,7.889
				S1920.464,1018.576,1927.929,1020.04z"/>
			<path fill="#E2915A" d="M1923.778,1002.125c14.479,2.798,22.883-5.114,24.768-7.144c0.268-0.291,0.405-0.463,0.405-0.463
				c-0.153-0.076-0.313-0.146-0.481-0.214c-5.39-2.183-17.621-0.447-24.451,2.057
				C1923.98,998.559,1923.893,1000.478,1923.778,1002.125z"/>
			<path fill="#FFB27D" d="M1953.274,986.646c-2.587,13.925-20.555,13.468-28.318,12.593c-2.186-0.244-3.561-0.522-3.561-0.522
				c-2.464-0.658-3.838-4.539-4.477-9.622c-1.268-10.061,0.334-24.828,2.032-28.605c2.559-5.683,7.376-11.83,25.47-7.395
				C1962.519,957.532,1956.595,968.805,1953.274,986.646z"/>
			<path fill="#233862" d="M1918.277,952.721c2.474-3.424,7.717-7.606,12.479-10.184c10.231-5.535,23.326,0.175,23.381,0.198
				c14.779,6.498,18.638,17.806,10.803,35.419c-8.285,18.626-16.175,16.53-16.175,16.53s1.675-1.042,1.522-6.847
				c-0.008-0.33-0.021-0.606-0.036-0.843c-0.077-1.19,0.343-2.383,1.232-3.177c1.836-1.639,2.73-6.594,1.193-7.973
				c-1.854-1.664-4.461,0.356-5.293,1.912c-0.728,1.098-2.03,1.482-3.243,0.715c-4.601-2.907-1.612-8.724-6.008-12.281
				c-4.396-3.559-13.314-0.571-19.908-3.407C1909.594,959.569,1916.414,955.301,1918.277,952.721z"/>
		</g>
		<path fill="#AEC3FF" d="M1916.219,1245.171c2.913,0.749,5.794,1.364,8.661,1.838c2.534,0.433,5.057,0.753,7.583,0.967
			c14.314,1.246,28.693-0.768,45.499-5.588c3.784-1.085,7.694-2.315,11.754-3.681c0.432-0.145-1.104-44.586-2.878-90.426
			c-0.181-4.731-0.367-9.482-0.551-14.199c-0.08-1.999-0.156-3.986-0.237-5.97c-1.609-40.542-3.203-77.155-3.539-79.127
			c-0.768-4.461-1.486-8.264-2.271-11.559c-2.289-9.605-5.133-14.872-11.333-19.401c-0.604-0.459-5.561-2.959-9.934-5.134
			c-3.623-1.8-6.842-3.371-6.842-3.371c-0.004,0-0.004,0-0.004,0c-1.44,0.708-3.172,4.01-4.983,8.646
			c-3.329,8.546-6.923,21.634-9.422,31.406c-0.008,0.027-0.012,0.042-0.012,0.05c0,0.004,0,0.004,0,0.004
			c-1.609,6.311-2.764,11.226-3.092,12.637c-0.559,2.381-1.296,6.99-2.164,13.24c-1.177,8.504-2.583,20.047-4.07,33.146
			c-0.153,1.346-0.306,2.71-0.459,4.086c-0.176,1.571-0.355,3.161-0.531,4.767c-0.058,0.516-0.114,1.031-0.168,1.548
			c-0.573,5.187-1.15,10.541-1.724,15.984c-0.479,4.499-7.301,7.751-7.771,12.326c-0.271,2.687-0.839,27.477-1.568,35.389
			C1915.64,1188.399,1916.013,1242.514,1916.219,1245.171z"/>
		<path fill="#9DB0F4" d="M1965.584,1065.33c0.022,0.093,1.16,40.996-29.608,45.965c-30.77,4.97-10.325,6.283-10.325,6.283
			s57.892-2.461,58.847-3.989C1985.453,1112.059,1965.584,1065.33,1965.584,1065.33z"/>
		<path fill="#9DB0F4" d="M1939.588,1128.854c0,0,0.577,0.409,1.686,1.124c0.019,0.007,0.038,0.022,0.058,0.034
			c4.693,2.996,18.625,11.164,38.909,16.642c2.129,0.577,4.331,1.124,6.598,1.628c-0.181-4.731-0.367-9.482-0.551-14.199
			c2.68-0.21,5.244-0.55,7.625-1.055c-0.08-0.623-0.164-1.246-0.244-1.869c-2.58-1.059-5.145-2.079-7.618-3.046
			c-2.014-0.788-3.963-1.537-5.81-2.232c-8.332-3.165-14.509-5.309-14.509-5.309l-24.665,7.813L1939.588,1128.854z"/>
		<path fill="#AEC3FF" d="M1933.06,1128.169c0,0,3.168,0.792,8.214,1.809c0.019,0,0.034,0.004,0.053,0.011
			c9.304,1.869,24.944,4.491,38.914,4.35c2.061-0.022,4.086-0.103,6.047-0.256c2.68-0.21,5.244-0.55,7.625-1.055
			c5.106-1.078,9.384-2.901,12.182-5.752c20.781-21.168-11.341-97.138-18.095-104.529c-7.885-8.631-22.275-11.658-30.222-12.698
			c-0.332-0.042-0.649-0.084-0.959-0.122c-2.794-0.332-4.587-0.401-4.687-0.405c-0.004,0-0.004,0-0.004,0s0.623,2.003,1.667,5.401
			c0.405,1.314,0.875,2.84,1.391,4.541c4.882,15.984,14.299,47.398,18.45,65.114c1.521,6.482,2.335,11.13,1.965,12.518
			c-1.621,6.051-18.412,9.162-29.049,10.538c-4.438,0.573-7.805,0.845-8.558,0.902c-0.054,0-0.104,0.004-0.157,0.011l-0.615,2.522
			l-1.472,6.051l-1.448,5.943L1933.06,1128.169z"/>
		<polygon fill="#F99746" points="1875.099,1164.585 1946.47,1161.579 1931.99,1072.633 1860.619,1075.64 		"/>
		<path fill="#FFB27D" d="M1937.837,1108.547c0,0-13.894-0.969-14.59,2.27c-1.625,7.549,11.943,13.748,16.34,13.324
			C1943.982,1123.717,1941.034,1108.043,1937.837,1108.547z"/>
		<path fill="#FFB27D" d="M1864.521,1093.702c0,0,13.293-4.156,14.72-1.167c3.326,6.969-8.44,16.138-12.814,16.742
			C1862.051,1109.881,1861.293,1093.951,1864.521,1093.702z"/>
		<path fill="#9DB0F4" d="M1950.687,1005.055c0,0,6.594,1.144,9.524,5.348c0,0-22.597,39.575-22.499,39.22
			S1945.097,1009.914,1950.687,1005.055z"/>
		<path fill="#9DB0F4" d="M1923.476,1005.589c-1.925,0.727-5.615,4.507-6.447,6.598l-2.598,33.115c0,0,5.546-24.303,8.369-35.288
			C1923.517,1007.222,1923.385,1006.374,1923.476,1005.589z"/>
		<path fill="#C65447" d="M1908.331,1073.629c0,0-0.564-2.468-3.813-2.181c-3.249,0.286-21.499,1.185-21.499,1.185
			s-3.521-0.059-3.194,2.197L1908.331,1073.629z"/>
	</g>
</g>
<g>
</g>
<g>
</g>
<g>
</g>
<g>
</g>
<g>
</g>
<g>
</g>
</svg>
