<?xml version="1.0" encoding="utf-8"?>
<!-- Generator: Adobe Illustrator 16.0.0, SVG Export Plug-In . SVG Version: 6.00 Build 0)  -->
<!DOCTYPE svg PUBLIC "-//W3C//DTD SVG 1.1//EN" "http://www.w3.org/Graphics/SVG/1.1/DTD/svg11.dtd">
<svg version="1.1" xmlns="http://www.w3.org/2000/svg" xmlns:xlink="http://www.w3.org/1999/xlink" x="0px" y="0px"
	 width="1781.603px" height="1378.68px" viewBox="0 0 1781.603 1378.68" enable-background="new 0 0 1781.603 1378.68"
	 xml:space="preserve">
<g id="Слой_2">
</g>
<g id="Layer_1">
	<g>
		<g>
			<path fill="#FFCB83" d="M690.284,239.012c-46.763,19.6-100.754-2.501-120.354-49.265
				c-19.599-46.764,2.501-100.755,49.265-120.354c46.764-19.6,100.755,2.5,120.354,49.265
				C759.148,165.422,737.048,219.412,690.284,239.012z"/>
			<path fill="#FFCB83" d="M689.359,236.804c-45.546,19.09-98.131-2.436-117.221-47.981c-19.089-45.547,2.435-98.132,47.982-117.221
				c45.547-19.09,98.131,2.435,117.221,47.981S734.905,217.715,689.359,236.804z"/>
			<circle fill="#FFFFFF" cx="654.903" cy="154.592" r="73.137"/>
			<path fill="#FFFFFF" d="M681.553,218.18c-35.256,14.776-75.96-1.885-90.736-37.142c-14.776-35.256,1.885-75.96,37.142-90.736
				c35.255-14.776,75.959,1.885,90.736,37.142C733.471,162.699,716.81,203.403,681.553,218.18z"/>
			<g>
				<path fill="#FFCB83" d="M597.993,174.021l-11.448,4.799c-1.882,0.788-2.77,2.959-1.982,4.841c0.788,1.881,2.96,2.77,4.841,1.98
					l11.447-4.798c1.882-0.788,2.771-2.96,1.982-4.841S599.875,173.232,597.993,174.021z"/>
				<path fill="#FFCB83" d="M676.517,206.163c-1.881,0.789-2.77,2.96-1.982,4.841l4.798,11.448c0.789,1.881,2.959,2.77,4.841,1.981
					c1.881-0.788,2.77-2.96,1.981-4.841l-4.798-11.448C680.569,206.264,678.398,205.375,676.517,206.163z"/>
				<path fill="#FFCB83" d="M720.108,122.841l-11.449,4.798c-1.88,0.789-2.771,2.96-1.981,4.841c0.788,1.882,2.96,2.77,4.841,1.981
					l11.449-4.798c1.88-0.788,2.77-2.96,1.981-4.841C724.16,122.941,721.989,122.053,720.108,122.841z"/>
				<path fill="#FFCB83" d="M625.337,84.049c-1.881,0.788-2.77,2.959-1.981,4.84l4.798,11.448c0.789,1.882,2.959,2.77,4.84,1.981
					c1.881-0.788,2.771-2.959,1.981-4.84l-4.797-11.448C629.39,84.148,627.219,83.26,625.337,84.049z"/>
			</g>
			<g>
				<path fill="#FFCB83" d="M651.061,52.911l1.021-14.519c0.084-1.191,1.117-2.089,2.309-2.006l16.654,1.171
					c1.191,0.084,2.09,1.117,2.006,2.309l-1.021,14.519c-0.083,1.192-1.119,2.091-2.311,2.007l-16.65-1.17
					C651.876,55.138,650.977,54.104,651.061,52.911z"/>
			</g>
			<g>
				<path fill="#FFCB83" d="M586.091,80.533l-11.066-9.452c-0.908-0.775-2.274-0.668-3.049,0.24l-10.843,12.694
					c-0.776,0.908-0.669,2.273,0.239,3.049l11.067,9.453c0.908,0.776,2.274,0.668,3.051-0.24l10.84-12.692
					C587.108,82.676,587,81.31,586.091,80.533z"/>
			</g>
			<g>
				<path fill="#FFCB83" d="M603.936,56.742c-1.07,0.449-2.306-0.057-2.756-1.129l-4.049-9.662
					c-0.449-1.072,0.057-2.308,1.127-2.756l19.719-8.265c1.07-0.449,2.306,0.057,2.755,1.129l4.049,9.662
					c0.45,1.072-0.056,2.308-1.126,2.756L603.936,56.742z"/>
				<path fill="#FFCB83" d="M609.113,60.225c-9.614,0.731-19.038-4.664-22.97-14.045c-4.914-11.724,0.607-25.211,12.331-30.125
					c11.724-4.913,25.21,0.607,30.125,12.331c3.932,9.384,1.177,19.893-6.089,26.235l2.196,5.239
					c9.999-7.681,14.018-21.419,8.92-33.582c-6.067-14.477-22.781-21.318-37.259-15.251c-14.477,6.067-21.318,22.782-15.251,37.259
					c5.097,12.163,17.709,18.93,30.197,17.187L609.113,60.225z"/>
				<path fill="#FFCB83" d="M618.487,67.705c2.301-0.965,4.619-1.829,6.948-2.598l-5.843-13.942L608.7,55.73l5.771,13.769
					C615.789,68.873,617.128,68.274,618.487,67.705z"/>
			</g>
			<g>
				<circle fill="#FFCB83" cx="654.747" cy="154.104" r="6.745"/>
				<path fill="#FFCB83" d="M661.924,98.964l-4.815,55.423c-0.122,1.396-1.352,2.43-2.748,2.308
					c-1.396-0.121-2.43-1.351-2.309-2.747C652.071,153.728,651.646,156.171,661.924,98.964z"/>
				<path fill="#FFCB83" d="M703.489,181.532l-49.714-24.967c-1.252-0.629-1.758-2.153-1.129-3.406
					c0.629-1.252,2.154-1.758,3.407-1.129C656.249,152.129,654.137,150.831,703.489,181.532z"/>
				<circle fill="#FFCB83" cx="654.747" cy="154.104" r="2.756"/>
			</g>
		</g>
		<g>
			<path fill="#FF6E53" d="M1571.483,482.477c-0.678-0.77-1.737-1.087-2.729-0.819c-4.857,1.313-13.657-0.646-18.007-2.167
				l-4.737-23.458c3.419-3.09,10.769-8.31,15.757-8.984c1.017-0.137,1.87-0.842,2.196-1.813l5.995-17.831
				c0.327-0.972,0.072-2.048-0.655-2.771c-3.566-3.551-6.269-12.152-7.127-16.68l17.947-15.83c4.385,1.416,12.58,5.171,15.658,9.152
				c0.627,0.813,1.664,1.199,2.67,0.996l18.438-3.724c1.005-0.203,1.811-0.962,2.073-1.953c1.292-4.864,7.389-11.505,10.881-14.512
				l22.684,7.627c0.966,4.506,1.813,13.481-0.098,18.138c-0.389,0.949-0.206,2.039,0.473,2.809l12.444,14.107
				c0.679,0.77,1.737,1.087,2.728,0.819c4.859-1.313,13.658,0.646,18.009,2.167l4.736,23.457c-3.419,3.09-10.769,8.311-15.757,8.985
				c-1.016,0.138-1.869,0.841-2.195,1.813l-5.996,17.83c-0.326,0.973-0.072,2.049,0.654,2.772c3.567,3.551,6.27,12.151,7.129,16.679
				l-17.947,15.831c-4.385-1.416-12.582-5.171-15.66-9.153c-0.627-0.812-1.663-1.198-2.668-0.995l-18.439,3.724
				c-1.006,0.203-1.811,0.961-2.074,1.953c-1.291,4.864-7.389,11.505-10.88,14.512l-22.683-7.627
				c-0.967-4.506-1.813-13.48,0.097-18.138c0.39-0.949,0.206-2.04-0.472-2.809L1571.483,482.477z M1623.081,476.722
				c12.758-2.576,21.013-15.008,18.437-27.768c-2.577-12.758-15.008-21.013-27.767-18.437c-12.76,2.576-21.014,15.008-18.438,27.767
				C1597.89,471.044,1610.321,479.298,1623.081,476.722z M1626.072,491.538c20.942-4.229,34.49-24.633,30.262-45.575
				s-24.634-34.49-45.575-30.262s-34.49,24.633-30.262,45.575C1584.726,482.218,1605.13,495.767,1626.072,491.538z"/>
			<path fill="#FF6E53" d="M1723.837,566.458c0.208-0.785,0.846-1.386,1.643-1.547l14.6-2.948c0.796-0.161,1.616,0.146,2.113,0.788
				c2.438,3.153,8.927,6.126,12.398,7.248l14.211-12.535c-0.68-3.585-2.818-10.396-5.644-13.207
				c-0.575-0.573-0.776-1.426-0.519-2.195l4.748-14.118c0.258-0.77,0.934-1.327,1.738-1.437c3.949-0.533,9.77-4.667,12.477-7.113
				l-3.75-18.575c-3.445-1.204-10.413-2.756-14.26-1.716c-0.783,0.213-1.623-0.039-2.16-0.648l-9.854-11.17
				c-0.537-0.609-0.682-1.473-0.374-2.225c1.513-3.688,0.843-10.794,0.077-14.361l-17.961-6.039
				c-2.766,2.381-7.594,7.639-8.615,11.49c-0.209,0.785-0.846,1.386-1.643,1.547l-14.601,2.947
				c-0.796,0.161-1.616-0.145-2.113-0.787c-2.437-3.154-8.927-6.127-12.399-7.248l-14.21,12.535
				c0.679,3.585,2.819,10.395,5.644,13.207c0.576,0.573,0.777,1.425,0.519,2.195l-4.747,14.118c-0.26,0.77-0.936,1.327-1.739,1.437
				c-3.949,0.533-9.769,4.667-12.477,7.113l3.751,18.574c3.444,1.205,10.412,2.757,14.259,1.717c0.784-0.213,1.623,0.039,2.16,0.648
				l9.854,11.17c0.538,0.609,0.683,1.473,0.374,2.225c-1.512,3.688-0.842,10.794-0.076,14.361l17.96,6.04
				C1717.986,575.567,1722.813,570.31,1723.837,566.458z M1728.866,544.061c-12.568,2.537-24.814-5.594-27.352-18.162
				c-2.538-12.568,5.594-24.813,18.162-27.352c12.567-2.538,24.813,5.593,27.351,18.162
				C1749.565,529.276,1741.435,541.522,1728.866,544.061z"/>
		</g>
		<path fill="#65CEFE" d="M480.033,382.005l-16.226-6.116l-14.237,9.898c-1.622,1.128-3.833-0.094-3.741-2.066l0.803-17.321
			l-13.813-10.481c-1.573-1.194-1.095-3.674,0.81-4.196l16.722-4.589l5.7-16.377c0.649-1.865,3.156-2.177,4.242-0.527l9.531,14.486
			l17.337,0.359c1.975,0.041,3.045,2.329,1.812,3.871l-10.831,13.541l5.015,16.6C483.725,380.977,481.88,382.702,480.033,382.005z"
			/>
		<polygon fill="#65CEFE" points="549.338,320.596 540.518,296.916 517.955,303.663 508.237,280.72 485.881,284.509 
			475.801,268.527 467.711,273.63 481.191,295.004 502.379,291.413 512.488,315.282 534.68,308.646 542.671,330.104 		"/>
		<polygon fill="#65CEFE" points="1404.803,306.233 1382.641,294.095 1369.99,313.959 1347.631,302.963 1333.201,320.455 
			1315.121,314.963 1312.342,324.114 1336.521,331.461 1350.195,314.884 1373.457,326.322 1385.898,306.785 1405.982,317.786 		"/>
		<polygon fill="#C9EDF9" points="853.161,48.04 843.679,71.463 864.879,81.719 856.556,105.205 875.607,117.504 872.253,136.099 
			881.665,137.797 886.152,112.927 868.099,101.271 876.756,76.839 855.905,66.752 864.498,45.526 		"/>
		<polygon fill="#FF6E53" points="1615.329,629.62 1610.669,620.438 1600.175,620.796 1595.679,610.132 1584.617,613.96 
			1579.001,602.126 1568.381,604.394 1561.116,593.892 1565.091,591.142 1570.523,598.993 1581.729,596.601 1587.128,607.976 
			1598.375,604.085 1603.336,615.851 1613.585,615.503 1617.905,624.015 1624.587,622.378 1625.737,627.073 		"/>
		<polygon fill="#FF6E53" points="1199.898,259.313 1194.994,244.724 1217.598,234.238 1213.057,212.021 1228.689,201.409 
			1223.318,193.495 1202.409,207.688 1206.713,228.743 1183.197,239.65 1190.578,261.605 		"/>
		<g>
			<path fill="#FFCB83" d="M1427.694,164.075c24.926,38.091-8.975,90.955-53.358,83.091c-7.972-1.412-16.288,0.423-23.419,4.82
				l-24.544,15.13c-6.763,4.17-15.263,2.362-19.525-4.153l-9.442-14.43c-4.264-6.515-2.861-15.551,3.223-20.76
				c22.196-19.008,31.639-24.401,34.619-40.342C1343.968,140.806,1402.765,125.977,1427.694,164.075z"/>
			<g>
				<path fill="#EEFBFF" d="M1369.16,185.028c-0.489-2.071-0.965-4.4-1.161-6.71c-1.134-13.316,9.157-17.921,14.58-14.486
					c3.475,2.198,4.879,7.297,2.884,12.13c-1.793,4.341-5.68,7.478-9.623,10.921c2.122,7.393,5.438,14.203,9.875,20.277
					c12.136-7.313,20.808-3.314,21.372,3.304c0.361,4.246-2.363,8.627-6.477,10.417c-2.455,1.068-8.811,2.538-16.333-5.785
					c-20.487,14.447-47.224,35.8-47.308,35.864l-3.395-4.719c0.082-0.063,26.667-21.275,47.08-35.703
					c-4.221-5.85-7.5-12.327-9.771-19.308c-23.349,20.382-43.929,36.496-44.648,37.079l-3.381-4.729
					C1324.347,222.368,1344.286,206.845,1369.16,185.028z M1379.006,168.807c-1.809-0.688-6.616,1.305-4.681,11.689
					C1379.731,175.753,1381.378,173.675,1379.006,168.807z M1389.453,211.73c2.983,3.103,7.497,5.906,10.53,2.553
					C1403.874,209.982,1398.311,206.761,1389.453,211.73z"/>
			</g>
			<path fill="#65CEFE" d="M1351.543,251.635c-0.207,0.122-0.423,0.225-0.626,0.352l-24.544,15.13
				c-6.763,4.17-15.263,2.362-19.525-4.153l-9.442-14.43c-4.264-6.515-2.861-15.551,3.223-20.76
				c9.873-8.456,17.219-14.216,22.6-19.41L1351.543,251.635z"/>
		</g>
		<g>
			<g>
				<g>
					<path fill="#F7A491" d="M57.685,1054.625c0,0-0.796-3.9-0.961-5.217c-0.193-1.545-0.413-6.215-0.413-6.215
						s-0.005-16.307,1.201-16.211c1.206,0.098,2.768,2.895,3.121,3.902c0.353,1.004,0.863,2.148,1.217,3.154
						c0.353,1.006,1.393,1.576,2.675,1.225c1.282-0.352,0.745-4.669,0.263-6.123c-1.505-4.537-7.97-15.846-8.603-17.072
						c-0.748-1.451,4.451-29.736,5.462-39.566h0.004c2.134-16.045,5.133-32.432,5.367-34.131l28.574-63.156l-19.074-19.479
						c0,0-32.695,69.646-33.933,73.314c-0.589,1.748-2.654,39.318-2.64,39.32c0.148,18.563,0.327,34.922,0.271,38.064
						c0,0-2.692,9.355-4.758,15.213c-2.066,5.857-1.615,12.076-1.942,13.811c-0.048,0.256-1.501,6.166-0.504,13.572
						c0.859,6.383,2.992-0.098,2.992-0.098s0.549-12.137,1.504-11.941c0.736,0.152,0.043,6.768,0.919,13.84
						c0.226,1.818,0.455,3.613,0.678,5.26c0.587,4.32,3.429,5.164,3.541,0.535c0.04-1.635,0.039-4.35-0.237-6.281
						c-0.299-2.088,0.107-4.109,0.126-5.906c0.039-3.566,0.021-6.166,0.169-6.086c0.191,0.104,0.702-0.604,1.001,1.318
						c0.36,2.311,0.03,7.402,0.826,10.758c0.45,1.902,1.148,5.938,1.148,5.938s1.852,6.41,2.243,6.394
						c2.12-0.091,2.115-5.069,1.162-7.569c0.219-1.912-0.636-6.135-0.636-6.135s0.203-8.951,1.478-8.955
						c1.048-0.006,4.723,21.473,6.843,21.232C58.498,1061.137,57.685,1054.625,57.685,1054.625z"/>
				</g>
				<path fill="#E74A60" d="M83.976,911.799c0,0-11.856-2.051-18.15-4.393c-8.386-3.119-13.905-5.854-13.905-5.854
					s9.208-39.41,20.698-63.342c4.749-9.891,9.55-14.664,16.247-15.807c0.041-0.008,14.119,9.27,13.56,31.615
					C102.295,859.266,83.976,911.799,83.976,911.799z"/>
				<g>
					<path fill="#F7A491" d="M120.438,1044.236l15.369,141.4c0,0-7.512,29.9-6.606,38.396
						c0.906,8.494,16.705,119.934,16.705,119.934l-0.667,6.252l-0.018,18.459h58.646c0,0-12.447-5.74-29.859-17.084
						c-1.288-0.84-4.254-3.516-4.977-8.848c-4.649-34.348,4.55-148.918,4.55-148.918l7.246-149.135L120.438,1044.236z"/>
					<path fill="#F7A491" d="M73.308,1073.98c-3.311,0.863-8.41,122.441-11.152,127.83
						c-17.389,34.162-21.522,138.023-21.522,138.023l-5.053,14.789l-5.412,18.137c0,0,17.366,4.754,26.471-0.422l-1.01-17.879
						l-0.924-16.352l43.872-129.396l24.005-131.984L73.308,1073.98z"/>
					<path fill="#FF6E53" d="M160.561,838.469c-7.077-9.959-36.276-38.805-39.519-38.744c-9.457,0.17-40.495,0.182-46.563,3.355
						l0.036,6.793c0.162,30.371,4.041,60.619,11.68,90.014c5.325,20.49,10.371,42.369,9.749,50.227l0.148,0.147
						c17.959,17.853,46.282,16.448,62.707-3.106l0,0c0,0-0.071-21.777,2.458-41.645
						C165.219,874.387,178.141,863.203,160.561,838.469z"/>
					<path fill="#F7A491" d="M111.527,768.813c0,0,0.818,20.258-0.95,27.939c-1.768,7.682-4.125,8.262,11.05,10.598
						c5.961,0.92,11.709,2.289,11.709,2.289s-1.558-11.279-1.792-16.041c-0.388-7.842,1.754-32.057,1.754-32.057L111.527,768.813z"
						/>
					<path fill="#F47458" d="M123.083,778.893c3.123,1.738,6.039,2.764,8.729,3.189c0.516-9.566,1.486-20.541,1.486-20.541
						l-20.77,6.936C114.939,772.619,118.365,776.268,123.083,778.893z"/>
					<path fill="#F7A491" d="M116.345,712.07c0,0-8.67,3.061-13.458,12.611c-4.787,9.549-6.574,36.391,12.293,46.891
						c9.338,5.195,20.112,6.182,25.183,1.611c5.174-4.664,4.544-15.025,4.025-23.643
						C143.361,732.477,139.607,706.645,116.345,712.07z"/>
					<path fill="#F7A491" d="M102.442,745.768c1.071,4.48-0.359,8.807-3.193,9.661s-6-2.087-7.07-6.567
						c-1.071-4.482,0.358-8.807,3.193-9.662C98.206,738.346,101.372,741.287,102.442,745.768z"/>
					<path fill="#E74A60" d="M55.626,1354.387c-8.009,3.672-16.579,1.404-20.047,0.232l-5.562,18.205c0,0,17.487,5.18,26.592,0.004
						L55.626,1354.387z"/>
					<path fill="#F47458" d="M63.235,1146.188c0.007,0.02,0.014,0.018,0.02-0.002L63.235,1146.188z"/>
					<path fill="#E74A60" d="M144.617,1373.262h60.968c2.255-0.209,2.804-2.107,2.022-3.275c-1.609-2.408-8.722-4.174-16.716-8.01
						c-14.023,1.521-43.448-8.443-45.661-11.795C143.952,1356.889,143.364,1372.975,144.617,1373.262z"/>
					<path fill="#F8A492" d="M267.074,884.527c1.182-1.641,5.135-9.672,5.135-9.672s4.098-13.758,3.249-13.576
						c-0.505,0.105-2.191,2.055-4.193,6.219c-1.223,2.543-2.561,6.998-3.827,9.199c-2.221,3.859-4.704,5.473-4.088,3.982
						c0.449-1.086,1.97-1.98,3.308-4.295c3.259-5.631,6.138-14.84,4.885-14.652c-1.103,0.162-4.253,6.512-7.743,11.445
						c-1.522,2.154-5.842,4.85-8.554,6.559c0.033-1.219,0.365-2.439,0.551-3.02c0.345-1.076,5.187-7.5,3.293-8.309
						c-1.895-0.809-13.42,13.102-13.42,13.102l-4.734,8.064l-0.419,0.309H240.5c0,0-57.499,22.543-59.427,21.934
						c-4.523-1.434-19.976-46.223-19.976-46.223l-32.171,5.801c-0.464-0.252,33.82,66.666,40.214,69.947
						c5.614,2.881,65.384-28.258,76.611-34.92c15.463-5.951,21.5-13.029,24.007-16.652c1.348-1.949,6.53-10.412,6.53-10.412
						s1.112-11.73,0.269-11.834c-2.836-0.348-3.621,10.707-3.621,10.707s-3.836,5.219-4.503,5.902
						C266.781,885.832,267.074,884.527,267.074,884.527z"/>
					<path fill="#E74A60" d="M108.162,826.57c-4.391,18.609,19.028,60.098,19.028,60.098s33.362-16.203,39.227-23.186
						c0,0-23.012-37.975-24.439-40.457c-3.08-5.357-13.889-16.43-21.172-14.396C116.166,809.922,108.162,826.57,108.162,826.57z"/>
					<path fill="#031322" d="M113.464,780.682c2.493-17.074,30.809-51.861,19.874-66.396c-8.849-11.764-24.278-8.244-34.107-4.863
						c-44.58,15.336-42.018,71.377-56.09,80.141c-25.513,15.889-41.207,25.783-43.046,61.58
						c-2.182,42.454,33.875,64.137,77.236,53.748c23.315-5.584,29.495-13.213,38.844-35.23c4.215-9.924,12.716-40.881,10.389-56.008
						C124.479,800.111,111.457,794.434,113.464,780.682z"/>
					<ellipse fill="#F7A491" cx="126.311" cy="749.387" rx="4.098" ry="9.152"/>
					<path fill="#FFCB83" d="M186.305,1136.215l2.086-83.887c0.361-23.707-4.332-47.203-13.739-68.793l-15.853-36.381
						c-6.413,2.1-12.458,3.889-19.197,4.668c-14.66,1.693-29.08,0.012-43.657-1.709c-0.045,0.568-0.111,1.065-0.201,1.482
						c-2.646,12.354-17.381,39.896-23.588,77.54c-7.046,42.731-9.681,106.642-8.8,111.655
						C130.727,1143.852,146.785,1146.281,186.305,1136.215z"/>
				</g>
			</g>
		</g>
		<g>
			<g>
				<path fill="#063E70" d="M1202.556,719.268l50.743,50.745c0,0,96.631,37.788,107.428,61.001
					c10.797,23.211-9.718,22.133-32.391,18.893c-22.673-3.238-86.912-43.186-86.912-43.186l-58.842-68.02L1202.556,719.268z"/>
				<path fill="#FFCB83" d="M1351.08,820.834l-12.551-4.453l-24.293,11.336c0,0-12.551,8.504-18.624,29.557
					s0,146.969,10.122,167.213C1315.856,1044.729,1351.08,820.834,1351.08,820.834z"/>
				<path fill="#F7A491" d="M1430.768,1325.789c0,0,8.924,5.746,9.656,8.391c0.733,2.646,7.276,31.256,4.827,34.572
					c-2.448,3.316-11.416,1.713-7.933,4.127c2.631,1.824,19.594,3.219,30.436,0.293c3.165-0.854,1.719-27.6,2.184-31.674
					c0.676-5.916,4.774-19.348,2.287-22.848c-1.212-1.705-8.175-4.707-14.436-7.148c-6.585-2.566-13.899-9.832-13.899-9.832
					L1430.768,1325.789z"/>
				<path fill="#063E70" d="M1457.232,1311.277c0,0-5.269,50.756-11.436,54.506c-1.637,0.994-10.312,1.738-11.11,5.881
					c-0.021,0.104-0.202,4.252,2.43,4.354l32.896-0.102c0,0,0.345-24.955,0.135-34.732c0,0,4.544-24.955,3.061-26.822
					C1471.723,1312.494,1457.232,1311.277,1457.232,1311.277z"/>
				<path fill="#F7A491" d="M1559.517,1325.789c0,0,8.925,5.746,9.657,8.391c0.732,2.646,7.275,31.256,4.827,34.572
					c-2.45,3.316-11.417,1.713-7.933,4.127c2.631,1.824,19.594,3.219,30.436,0.293c3.164-0.854,1.719-27.6,2.184-31.674
					c0.676-5.916,4.774-19.348,2.287-22.848c-1.212-1.705-8.175-4.707-14.436-7.148c-6.585-2.566-13.9-9.832-13.9-9.832
					L1559.517,1325.789z"/>
				<path fill="#4054E7" d="M1397.93,995.912c0,0,30.079,59.732,36.246,75.77l45.84,116.305l101.096,118.924
					c0,0-7.4,19.109-18.592,24.23c0,0-121.891-98.424-131.916-113.924c-15.283-23.629-84.873-168.4-84.873-168.4l-12.938-27.846
					L1397.93,995.912z"/>
				<path fill="#6577FF" d="M1325.227,995.279l0.481,50.934c0,0-21.761,166.371-17.544,176.256
					c10.285,24.113,123.352,105.807,123.352,105.807l15.385-26.451l-81.244-90.691l30.77-88.264
					c8.611-20.502,26.924-60.121,26.459-82.354c-0.398-19.055-38.167-63.234-38.167-63.234L1325.227,995.279z"/>
				<path fill="#063E70" d="M1371.393,1070.553c29.956-6.805,54.201-17.391,56.686-25.746c1.125-3.781-15.582-41.781-27.873-92.523
					c-4.014-16.566-3.292-32.129-9.717-90.152c-1.365-12.307-6.464-38.104-25.52-44.758c-6.699-2.332-10.431-2.037-10.431-2.037
					c-0.158,0.027-24.25,0.189-35.271,6.307c-2.719,3.693-12.858,23.889-15.557,78.952c-1.179,24.04-5.979,101.228-4.993,113.769
					c0.146,1.861,0.334,3.662,0.559,5.404C1303.588,1053.088,1338.629,1077.994,1371.393,1070.553z"/>
				<path fill="#F7A491" d="M1318.441,859.287c0.021,0.008,0.051-0.004,0.086-0.004c12.21-1.348,42.928-41.592,42.928-41.592
					l-0.066-0.111l-18.953-30.016c0,0-27.917,5.082-22.454,13.584c5.458,8.488,8.522,28.889,8.522,28.889
					c-0.092,0.232-0.215,0.514-0.383,0.852C1326.205,835.055,1319.947,847.393,1318.441,859.287z"/>
				<path fill="#FE875E" d="M1319.984,801.145c-5.461-8.492,22.46-13.578,22.46-13.578l1.577,2.498
					c0.039,2.115-0.197,4.041-0.783,5.697c-3.018,8.514-10.272,16.002-17.796,19.611
					C1324.057,810.113,1322.223,804.629,1319.984,801.145z"/>
				<g>
					<path fill="#F7A491" d="M1326.677,740.102c0.603-0.572,21.774,34.25,16.69,48.59c-5.082,14.342-22.19,25.775-32.348,20.66
						c-11.236-5.658-28.225-45.6-17.983-62.539S1326.677,740.102,1326.677,740.102z"/>
					<path fill="#031322" d="M1296.018,724.475c12.461-2.678,34.72,1.002,47.252,9.818c15.41,10.84,15.918,30.078,8.976,42.656
						c-6.943,12.578-2.763,21.838-2.763,21.838s-21.657-1.359-26.045-16.1c-1.84-6.186,0.449-10.377-3.712-13.865
						c-3.205-2.688-5.897-10.502-9.077-16.783c0,0-13.971-7.428-19.291-1.314C1289.539,752.816,1280.03,727.908,1296.018,724.475z"
						/>
					
						<ellipse transform="matrix(-0.9232 0.3843 -0.3843 -0.9232 2838.8555 971.7891)" fill="#F7A491" cx="1322.333" cy="769.534" rx="5.186" ry="8.921"/>
				</g>
				<path fill="#063E70" d="M1586.123,1311.336c0,0-5.41,50.697-11.576,54.447c-1.638,0.994-10.313,1.738-11.11,5.881
					c-0.021,0.104-0.271,4.387,2.429,4.318l32.862-0.066c0,0,0.378-24.955,0.169-34.732c0,0,4.544-24.955,3.06-26.822
					C1600.473,1312.494,1586.123,1311.336,1586.123,1311.336z"/>
			</g>
			<g>
				<g>
					<path fill="#FF6E53" d="M859.457,1077.049c-26.118-54.637-33.292-136.174-4.827-200.846
						c47.986-109.162,180.028-153.713,170.307-277.426c-2.448-31.162-16.312-56.227-36.733-72.352
						c-53.744-42.436-140.213-19.977-201.931,9.658c-39.421,18.941-76.034,45.79-109.816,80.565l-17.169-218.505
						c74.084-52.57,163.727-80.057,253.198-87.087c183.344-14.407,324.923,54.358,339.333,237.751
						c13.143,167.258-99.887,241.355-175.711,324.969c-42.087,46.41-51.596,82.164-48.342,123.576
						c1.683,21.409,9.713,47.844,22.619,64.693L859.457,1077.049z M991.102,1375.848
						c-178.214,14.004-198.851-225.416-18.824-239.563C1149.606,1122.352,1168.631,1361.896,991.102,1375.848z"/>
				</g>
			</g>
			<path fill="#F8A492" d="M1175.388,730.313c-0.331-1.508,0.895-0.316-1.376-12.125c-0.655-3.408-2.783-6.998-4.361-8.912
				c-0.854-1.035-2.815-2.803-4.043-3.535c-2.041-1.215-3.635,0.77-3.227,1.891c0.409,1.121,2.513,4.998,2.921,6.119
				c0.409,1.123,0.593,3.877-0.34,4.793c-0.932,0.916-15.69-16.012-16.607-17.494c-0.782-1.262-2.529-6.766-2.529-6.766
				s-1.287-4.006-2.858-2.984c-1.027,0.668-2.158,3.965,0.801,10.469c2.586,5.678,6.164,10.215,5.758,10.549
				c-1.061,0.873-7.471-6.803-7.471-6.803s-2.236-4.277-3.752-5.795c-0.955-2.842-2.693-6.377-4.514-4.994
				c-0.336,0.256,0.872,6.313,0.872,6.313s2.236,4.006,3.189,5.977c1.681,3.479,5.507,7.697,6.819,9.965
				c1.093,1.885,0.031,1.447-0.055,1.67c-0.067,0.172-1.721-1.939-4.24-5.027c-1.27-1.557-3.015-3.043-4.224-5.07
				c-1.119-1.879-3.013-4.25-4.186-5.65c-3.321-3.965-5.087-1.27-2.56,2.908c0.963,1.592,2.024,3.316,3.106,5.059
				c4.208,6.781,9.396,12.08,8.892,12.721c-0.654,0.828-9.574-9.391-9.574-9.391s-6.288-4.191-2.548,1.975
				c4.341,7.154,9.034,11.732,9.253,11.924c1.481,1.287,5.43,7.359,11.227,11.049c5.797,3.691,15.201,9.262,15.201,9.262
				c1.079,1.303,3.832,5.543,7.641,11.531l14.058-16.914C1181.713,737.873,1175.619,731.365,1175.388,730.313z"/>
			<path fill="#064C91" d="M1164.299,754.166l19.434-17.006l66.736,65.859c0,0,103.314,9.057,103.584,9.133l4.138,1.295
				c37.478,12.943,22.048,43.525,14.829,48.258c-16.82,11.023-110.234,4.416-140.162-14.148
				C1208.219,832.271,1164.299,754.166,1164.299,754.166z"/>
		</g>
		<g>
			<path fill="#F8A492" d="M468.823,848.598c0.745,2.738,1.173,3.646,2.12,5.484c6.105,11.859,20.27,28.781,20.27,28.781
				l10.957-26.346c0,0-1.786-8.273-4.884-20.1C486.703,839.367,476.624,841.074,468.823,848.598z"/>
			<path fill="#6577FF" d="M531.645,825.746c0,0-61.113,28.086-63.089,27.549c-1.272-0.346-25.068-42.852-25.322-82.825
				c-0.118-18.462,17.848-40.671,37.892-36.278c10.092,2.211,9.936,5.207,24.865,28.359
				C520.92,785.705,531.645,825.746,531.645,825.746z"/>
			<path fill="#F7A491" d="M583.813,1329.314c0,0-1.45,25.615-1.458,25.668c-0.533,3.252-2.632,11.287-2.632,14.244
				c0,11.105,49.418-9.43,38.342-14.352c-1.002-0.445-6.254-3.814-6.583-7.596c-0.508-5.824-1.797-17.607-1.797-17.607
				L583.813,1329.314z"/>
			<path fill="#063E70" d="M617.942,1354.77c0,0-11.602,3.398-17.544,4.248c-5.942,0.848-13.776-6.303-17.979-4.371
				c-4.626,2.125-4.445,21.266-4.445,21.266s62.218,5.449,79.714-0.188C664.618,1373.492,641.662,1362.684,617.942,1354.77z"/>
			<path fill="#F7A491" d="M482.722,1329.314c0,0-1.45,25.615-1.459,25.668c-0.533,3.252-2.631,11.287-2.631,14.244
				c0,11.105,49.417-9.43,38.342-14.352c-1.003-0.445-7.812-6.33-8.141-10.111c-0.508-5.824-0.24-15.092-0.24-15.092
				L482.722,1329.314z"/>
			<path fill="#063E70" d="M516.851,1354.77c0,0-11.602,3.398-17.544,4.248c-5.942,0.848-13.776-6.303-17.979-4.371
				c-4.626,2.125-4.811,21.266-4.811,21.266s62.5,6.352,80.08-0.188C563.421,1373.186,540.57,1362.684,516.851,1354.77z"/>
			<g>
				<path fill="#F7A491" d="M497.825,862.791l43.523-65.07c0.183-0.57,0.578-1.736,1.183-3.518
					c2.192-6.455,6.753-19.893,10.727-33.258l0.042-0.143c1.249-4.672,3.895-12.822,6.455-20.707
					c2.846-8.768,6.376-19.639,6.499-21.492c-0.109-0.318-0.315-0.887-0.587-1.643c-1.595-4.422-3.752-14.949-4.516-19.527
					c-0.486-2.916-0.971-10.002,2.276-10.002c5.105,0,2.672,7.078,5.026,11.498c0.866-2.955,2.615-8.814,3.538-14.746l0.854-13.835
					c0.164-1.044-0.875-8.675,2.705-8.675l0.171,0.006c3.216,0.251,3.144,8.365,4.482,22.088c0.423-1.578,0.846-3.483,1.165-5.234
					c-0.037-0.938,0.607-5.063,1.089-7.241c-0.646-3.823-0.271-9.854,3.545-9.286c1.913,0.285,1.755,8.702,1.755,8.702
					c-0.02,1.155-0.133,10.055-0.075,11.813c0.394-2.986,1.922-15.723,4.916-15.723c2.482,0,2.682,3.428,2.63,6.141
					c-0.03,1.605-1.59,15.402-1.677,17.008c1.168-2.094,2.555-14.254,3.713-14.254c4.841,0,3.091,17.289,1.313,21.795
					c-0.167,0.459-0.345,1.365-0.551,2.412c-0.604,3.08-1.617,8.234-4.151,12.863c-3.039,5.549-7.231,14.373-7.872,15.725
					c-0.468,2.756-1.924,12.668-3.757,25.135c-0.784,5.336-1.643,11.186-2.539,17.244l-0.047-0.006
					c-0.164,1.311-1.072,5.48-4.514,21.123c-4.711,21.406-5.2,22.332-5.41,22.727c-2.045,3.865-48.973,71.879-50.97,74.771
					l-1.178,1.707L497.825,862.791z"/>
				<path fill="#F47458" d="M578.778,711.025c0,0-3.532-9.641-9.821-9.658c0,0,3.514-1.354,6.527,1.193
					C578.497,705.105,578.778,711.025,578.778,711.025z"/>
			</g>
			<g>
				<path fill="#F7A491" d="M487.309,692.396l-5.603,37.818c0,0,21.349,18.295,33.794,14.436
					c10.441-3.238,3.281-17.809,3.281-17.809s-5.563-20.188-3.856-30.77C516.632,685.49,487.309,692.396,487.309,692.396z"/>
				<path fill="#FE875E" d="M491.331,703.83c5.352,2.697,15.931,6.377,24.163,7.268c-0.788-5.291-1.236-10.889-0.569-15.025
					c0.788-4.883-5.035-6.039-11.533-5.871c-8.503,0.779-16.083,2.195-16.083,2.195l-1.077,7.268
					C487.849,701.484,489.549,702.932,491.331,703.83z"/>
				<path fill="#F7A491" d="M460.366,648.777c-0.88,0.004,8.439,42.248,22.863,49.516c14.423,7.268,35.934,3.479,39.97-7.898
					c4.464-12.586-11.82-55.686-32.106-61.16C470.807,623.76,460.366,648.777,460.366,648.777z"/>
				<path fill="#031322" d="M477.057,609.961c-11.521,7.093-16.808,17.609-18.588,21.918c-5.408,2.738-11.95,8.662-15.091,24.621
					c-3.862,19.625,9.868,34.752,24.424,39.303c14.556,4.551,17.015,14.83,17.015,14.83l1.44-11.064c0,0-3.238-9.631-8.107-14.451
					c-4.869-4.822,2.307-11.848,2.938-17.578c0.485-4.412-2.559-12.98-1.899-20.221c0,0,8.088-13.082,16.061-16.314
					C508.842,625.493,491.839,600.861,477.057,609.961z"/>
				
					<ellipse transform="matrix(0.9327 -0.3606 0.3606 0.9327 -211.9349 217.949)" fill="#F7A491" cx="478.054" cy="676.88" rx="5.505" ry="9.471"/>
			</g>
			<path fill="#F8A492" d="M536.915,863.838l83.954-14.607c0,0-9.552-25.666-12.965-25.666c-3.413,0-63.48,27.986-63.48,27.986
				l-4.778,10.238L536.915,863.838z"/>
			<path fill="#063E70" d="M493.912,925.27c0,0-8.375,43.211-4.962,75.977c3.413,32.764,3.681,149.15,3.681,149.15l-13.023,186.223
				l30.902,0.721c0,0,36.644-186.135,35.961-181.355c-0.683,4.777,12.287-131.058,12.287-131.058l-43.686-103.751L493.912,925.27z"
				/>
			<path fill="#064C91" d="M502.103,923.223c0,0-5.461,38.908,1.365,55.973s58.546,184.498,59.229,198.151
				c0.683,13.651,17.882,164.544,17.882,164.544l35.933-1.078l7.773-167.764l-16.277-210.852l-15.804-53.309L502.103,923.223z"/>
			<path fill="#F7A491" d="M481.706,730.215c0,0,8.861,6.203,17.125,5.486c8.265-0.721,19.95-8.859,19.95-8.859l-1.624-5.875
				c0,0-21.38-3.322-21.919-2.963C494.699,718.361,481.706,730.215,481.706,730.215z"/>
			<path fill="#F8A492" d="M576.147,822.299c0,0,31.756,31.982,46.09,26.521c14.334-5.461,20.266-24.127-14.708-51.436
				C576.227,772.945,576.147,822.299,576.147,822.299z"/>
			<path fill="#65CEFE" d="M597.665,861.789c-4.717-27.389-38.907-112.625-41.638-128.324c-1.328-7.637-19.769-7.805-37.335-6.809
				c-18.554,1.053-36.985,3.559-36.985,3.559s-16.426,2.879-23.652,10.105s-9.146,27.213,1.242,65.154
				c8.201,29.949,18.367,46.395,23.398,68.211c1.019,7.316,1.892,14.536,3.048,22.971c1.85,32.619-0.021,75.713-0.021,75.713
				s89.419,19.795,122.865-10.238C608.586,962.131,602.498,889.852,597.665,861.789z"/>
			<path fill="#6577FF" d="M620.464,802.895c0,0-35.086,30.91-37.134,30.91c-1.318,0-50.069-38.273-61.322-69.717
				c-6.221-17.385,6.828-36.832,21.732-36.768c10.331,0.045,14.924,2.887,35.401,21.316S620.464,802.895,620.464,802.895z"/>
		</g>
		<g>
			<path fill="#FF6E53" d="M1133.241,197.574l-76.076,51.468c-7.723,5.225-18.22,3.199-23.444-4.523l-51.468-76.076
				c-5.225-7.723-3.199-18.22,4.523-23.444l76.076-51.467c7.724-5.226,18.22-3.2,23.444,4.523l51.468,76.075
				C1142.989,181.854,1140.964,192.35,1133.241,197.574z"/>
			<circle fill="#FFFFFF" cx="1059.341" cy="167.748" r="43.045"/>
			<path fill="#FF6E53" d="M1045.165,150.063l17.658,19.255c1.293,1.411,1.199,3.603-0.212,4.896
				c-1.41,1.293-3.602,1.198-4.895-0.212c-0.208-0.226-0.386-0.487-0.522-0.746L1045.165,150.063z"/>
			<path fill="#FF6E53" d="M1058.608,169.467l26.638-14.913l-23.237,19.799c-1.258,1.071-3.145,0.921-4.217-0.337
				c-1.07-1.257-0.92-3.145,0.338-4.216C1058.276,169.675,1058.446,169.559,1058.608,169.467z"/>
		</g>
		<path fill="#C9EDF9" d="M406.558,606.772H252.467c-27.766,0-50.273-22.509-50.273-50.272v-31.912
			c0-27.766,22.508-50.273,50.273-50.273h154.091c27.765,0,50.273,22.508,50.273,50.273V556.5
			C456.831,584.264,434.323,606.772,406.558,606.772z"/>
		<polygon fill="#C9EDF9" points="426.612,556.764 489.327,584.873 447.339,526.102 		"/>
		<g>
			<ellipse fill="#FFFFFF" cx="275.999" cy="536.26" rx="10.984" ry="9.763"/>
			<ellipse fill="#FFFFFF" cx="327.104" cy="536.26" rx="10.984" ry="9.763"/>
			<ellipse fill="#FFFFFF" cx="378.21" cy="536.26" rx="10.984" ry="9.763"/>
		</g>
		<g>
			<polygon fill="#C9EDF9" points="967.494,26.063 957.157,4.028 965.744,0 971.604,12.491 985.918,3.833 990.828,11.949 			"/>
		</g>
		<g>
			<polygon fill="#FF6E53" points="374.63,337.357 351.706,345.533 348.519,336.6 361.515,331.965 354.27,316.887 362.819,312.777 
							"/>
		</g>
		<g>
			<path fill="#FFCB83" d="M1344.768,87.632c1.931,6.154,3.861,12.309,5.79,18.463c1.512,4.815,2.633,12.632,7.333,15.363
				c1.163,0.677,3.087,0.366,3.694-0.969c2.328-5.129-1.021-11.692-2.626-16.711c-1.965-6.145-3.93-12.289-5.894-18.434
				C1351.386,80.093,1343.103,82.323,1344.768,87.632L1344.768,87.632z"/>
		</g>
		<g>
			<path fill="#FFCB83" d="M1409.903,80.97c-9.969,34.024-10.067,32.999-9.329,36.472c0.578,2.707,4.271,3.507,6.109,1.612
				c2.329-2.402,1.749-1.697,11.379-35.835C1419.544,77.967,1411.435,75.747,1409.903,80.97L1409.903,80.97z"/>
		</g>
		<g>
			<path fill="#FFCB83" d="M1447.922,156.69c5.873-2.816,11.745-5.634,17.617-8.45c5.224-2.506,11.962-4.497,15.536-9.245
				c1.571-2.087-0.59-4.837-2.813-4.904c-5.802-0.171-11.986,4.275-17.057,6.735c-5.857,2.843-11.715,5.686-17.573,8.527
				C1438.709,151.743,1443.016,159.044,1447.922,156.69L1447.922,156.69z"/>
		</g>
		<g>
			<path fill="#FFCB83" d="M1428.685,258.894c6.024,7.773,12.064,15.73,18.885,22.83c3.671,3.82,9.012-1.788,5.728-5.729
				c-6.328-7.593-12.827-14.995-18.935-22.778C1431.167,249.146,1425.564,254.867,1428.685,258.894L1428.685,258.894z"/>
		</g>
		<g>
			<path fill="#FFCB83" d="M1450.847,219.21c5.438,2.385,10.943,4.598,16.473,6.761c5.049,1.976,11.043,5.509,16.507,4.731
				c2.901-0.412,3.235-4.284,1.605-6.077c-2.044-2.249-3.14-2.077-15.147-6.703c-5.418-2.088-10.794-4.28-16.233-6.313
				C1449.684,209.977,1446.526,217.314,1450.847,219.21L1450.847,219.21z"/>
		</g>
	</g>
</g>
</svg>
