<?xml version="1.0" encoding="utf-8"?>
<!-- Generator: Adobe Illustrator 16.0.0, SVG Export Plug-In . SVG Version: 6.00 Build 0)  -->
<!DOCTYPE svg PUBLIC "-//W3C//DTD SVG 1.1//EN" "http://www.w3.org/Graphics/SVG/1.1/DTD/svg11.dtd">
<svg version="1.1" id="Layer_1" xmlns="http://www.w3.org/2000/svg" xmlns:xlink="http://www.w3.org/1999/xlink" x="0px" y="0px"
	 width="526.001px" height="514.77px" viewBox="-7 0 526.001 514.77" enable-background="new -7 0 526.001 514.77"
	 xml:space="preserve">
<path fill="#3F3F3F" d="M448.527,507.77c-2.259,0-4.427-0.897-6.017-2.516c-5.448-5.5-53.223-54.734-53.223-87.191
	c0-34.535,26.574-62.625,59.238-62.625c32.668,0,59.241,28.09,59.241,62.625c0,32.457-47.772,81.685-53.223,87.191
	C452.953,506.871,450.789,507.77,448.527,507.77z"/>
<path fill="#3F3F3F" d="M59.238,152.332c-2.258,0-4.426-0.898-6.016-2.516C47.773,144.316,0,95.078,0,62.625
	C0,28.09,26.574,0,59.238,0c32.668,0,59.242,28.09,59.242,62.625c0,32.453-47.773,81.684-53.223,87.191
	C63.664,151.434,61.5,152.332,59.238,152.332z"/>
<path fill="#3E9FFF" stroke="#3E9FFF" stroke-width="14" stroke-miterlimit="10" d="M397.754,507.77H105.785
	c-25.668,0-46.547-20.887-46.547-46.547s20.879-46.547,46.547-46.547H308.89c16.336,0,29.621-13.285,29.621-29.617
	s-13.285-29.621-29.621-29.621H46.547C20.879,355.438,0,334.551,0,308.891c0-25.656,20.879-46.543,46.547-46.543h418.906
	c16.336,0,29.621-13.289,29.621-29.621s-13.285-29.617-29.621-29.617h-308.89c-25.668,0-46.547-20.887-46.547-46.547
	s20.879-46.547,46.547-46.547h228.496c16.332,0,29.617-13.285,29.617-29.617c0-16.336-13.285-29.621-29.617-29.621H169.258
	c-4.672,0-8.465-3.785-8.465-8.465s3.793-8.461,8.465-8.461h215.801c25.668,0,46.543,20.887,46.543,46.547
	c0,25.656-20.875,46.543-46.543,46.543H156.563c-16.332,0-29.621,13.289-29.621,29.621s13.289,29.621,29.621,29.621h308.891
	c25.668,0,46.547,20.883,46.547,46.543c0,25.66-20.879,46.546-46.547,46.546H46.547c-16.336,0-29.621,13.285-29.621,29.617
	c0,16.336,13.285,29.621,29.621,29.621h262.344c25.668,0,46.547,20.887,46.547,46.547s-20.879,46.543-46.547,46.543H105.785
	c-16.332,0-29.621,13.289-29.621,29.621s13.289,29.621,29.621,29.621h291.969c4.668,0,8.461,3.781,8.461,8.461
	C406.215,503.985,402.422,507.77,397.754,507.77z"/>
</svg>
