<?xml version="1.0" encoding="utf-8"?>
<!-- Generator: Adobe Illustrator 16.0.0, SVG Export Plug-In . SVG Version: 6.00 Build 0)  -->
<!DOCTYPE svg PUBLIC "-//W3C//DTD SVG 1.1//EN" "http://www.w3.org/Graphics/SVG/1.1/DTD/svg11.dtd">
<svg version="1.1" xmlns="http://www.w3.org/2000/svg" xmlns:xlink="http://www.w3.org/1999/xlink" x="0px" y="0px"
	 width="2212.189px" height="1960.67px" viewBox="0 0 2212.189 1960.67" enable-background="new 0 0 2212.189 1960.67"
	 xml:space="preserve">
<g id="OBJECT">
	<circle fill="#C6E3F7" cx="1117.607" cy="942.377" r="942.377"/>
	<g>
		<path fill="#9FBBFC" d="M1833.216,1919.316c0,22.839-343.331,41.354-766.874,41.354c-423.545,0-766.883-18.515-766.883-41.354
			c0-22.838,343.338-41.363,766.883-41.363C1489.885,1877.953,1833.216,1896.479,1833.216,1919.316z"/>
		<g>
			<g>
				<path fill="#00FF00" d="M211.884,1090.574c-0.468,0-0.944-0.062-1.421-0.19l-137.617-36.869
					c-2.924-0.782-4.658-3.786-3.875-6.71c0.785-2.921,3.775-4.669,6.71-3.874l137.618,36.869c2.924,0.782,4.658,3.786,3.874,6.71
					C216.518,1088.958,214.303,1090.574,211.884,1090.574z"/>
			</g>
			<g>
				<path fill="#00FF00" d="M168.776,1124.402c-0.468,0-0.945-0.061-1.421-0.189l-105.854-28.36
					c-2.924-0.781-4.658-3.786-3.875-6.71c0.781-2.922,3.763-4.672,6.71-3.875l105.854,28.361c2.925,0.781,4.658,3.785,3.874,6.71
					C173.41,1122.787,171.197,1124.402,168.776,1124.402z"/>
			</g>
			
				<linearGradient id="SVGID_1_" gradientUnits="userSpaceOnUse" x1="658.168" y1="937.6572" x2="943.1113" y2="937.6572" gradientTransform="matrix(0.9659 0.2588 -0.2588 0.9659 -382.5637 -1.5044)">
				<stop  offset="0" style="stop-color:#FE9658"/>
				<stop  offset="1" style="stop-color:#F76E48"/>
			</linearGradient>
			<path fill="url(#SVGID_1_)" d="M305.075,1076.027l-48.224,179.956c-1.551,5.821-6.528,7.309-11.033,3.307l-65.133-57.76
				l-148.201-39.704c-23.288-6.239-37.233-30.404-30.994-53.692l28.361-105.854c6.24-23.288,30.394-37.238,53.692-30.999
				l190.54,51.055C297.37,1028.574,311.314,1052.739,305.075,1076.027z"/>
			<g>
				<path fill="#E6F3FB" d="M211.89,1096.053c-0.939,0-1.894-0.121-2.845-0.377l-137.617-36.869
					c-5.846-1.565-9.316-7.574-7.749-13.42c1.563-5.849,7.575-9.329,13.42-7.749l137.618,36.869
					c5.846,1.565,9.316,7.574,7.748,13.42C221.155,1092.823,216.727,1096.053,211.89,1096.053z"/>
			</g>
			<g>
				<path fill="#E6F3FB" d="M168.781,1129.882c-0.939,0-1.894-0.12-2.844-0.377l-105.854-28.36
					c-5.846-1.565-9.316-7.574-7.749-13.42c1.563-5.849,7.564-9.341,13.421-7.749l105.854,28.36
					c5.846,1.565,9.316,7.575,7.749,13.421C178.047,1126.653,173.619,1129.882,168.781,1129.882z"/>
			</g>
		</g>
		<path fill="#467DFA" d="M157.85,631.86c2.665-5.405,7.031-5.405,9.696,0l10.926,22.131c2.666,5.404,9.729,10.542,15.69,11.408
			l24.433,3.542c5.961,0.867,7.31,5.019,2.997,9.225l-17.68,17.231c-4.313,4.206-7.01,12.51-5.993,18.45l4.174,24.326
			c1.017,5.939-2.515,8.508-7.855,5.704l-21.843-11.483c-5.33-2.804-14.063-2.804-19.403,0l-21.843,11.483
			c-5.329,2.804-8.861,0.235-7.844-5.704l4.173-24.326c1.017-5.939-1.68-14.244-5.993-18.45l-17.679-17.231
			c-4.313-4.206-2.964-8.358,2.997-9.225l24.433-3.542c5.961-0.867,13.024-6.004,15.689-11.408L157.85,631.86z"/>
		<path fill="#06BAEB" d="M2069.539,1441.165c2.664-5.404,7.031-5.404,9.695,0l10.928,22.132
			c2.664,5.404,9.728,10.536,15.688,11.403l24.433,3.548c5.961,0.866,7.311,5.019,2.997,9.225l-17.681,17.23
			c-4.313,4.206-7.01,12.511-5.992,18.45l4.174,24.325c1.016,5.94-2.516,8.504-7.846,5.699l-21.842-11.482
			c-5.341-2.805-14.073-2.805-19.403,0l-21.843,11.482c-5.34,2.805-8.872,0.241-7.855-5.699l4.174-24.325
			c1.017-5.939-1.68-14.244-5.993-18.45l-17.679-17.23c-4.313-4.206-2.965-8.358,2.996-9.225l24.432-3.548
			c5.961-0.867,13.025-5.999,15.689-11.403L2069.539,1441.165z"/>
		<path fill="#FE9658" d="M1433.633,363.347l-50.502,50.327l-50.504-50.327c-17.026-16.973-20.322-43.064-7.224-57.967
			c13.089-14.897,34.45-16.428,47.539-3.382l10.188,7.973l10.188-7.973c13.089-13.045,34.45-11.515,47.539,3.382
			C1453.945,320.283,1450.66,346.374,1433.633,363.347z"/>
		<g>
			<path fill="#06BAEB" d="M140.387,1575.947c-2.805,0-5.611-1.071-7.749-3.211c-7.499-7.498-8.248-15.021-8.743-19.997
				c-0.358-3.618-0.469-4.709-2.43-6.673c-1.974-1.972-3.068-2.082-6.696-2.445c-4.979-0.5-12.503-1.255-20.005-8.76
				c-7.505-7.502-8.259-15.025-8.76-20.005c-0.364-3.628-0.473-4.722-2.445-6.696c-4.281-4.278-4.281-11.219,0-15.497
				c4.275-4.28,11.221-4.28,15.497,0c7.504,7.502,8.259,15.025,8.759,20.005c0.364,3.628,0.474,4.723,2.445,6.697
				c1.975,1.971,3.069,2.081,6.697,2.445c4.979,0.5,12.502,1.255,20.005,8.76c7.499,7.496,8.248,15.02,8.744,19.996
				c0.358,3.617,0.468,4.709,2.429,6.673c4.281,4.278,4.281,11.219,0,15.497C145.997,1574.876,143.19,1575.947,140.387,1575.947z"/>
		</g>
		<g>
			<path fill="#467DFA" d="M1748.498,594.317c-2.804,0-5.61-1.07-7.748-3.21c-4.28-4.278-4.28-11.219,0-15.497
				c7.496-7.499,15.021-8.248,19.997-8.744c3.616-0.358,4.708-0.468,6.673-2.429c1.969-1.972,2.078-3.066,2.442-6.691
				c0.501-4.982,1.255-12.508,8.765-20.013c7.494-7.502,15.021-8.256,20-8.756c3.628-0.364,4.725-0.474,6.702-2.448
				c4.278-4.278,11.218-4.278,15.497,0.005c4.277,4.28,4.277,11.218-0.006,15.496c-7.505,7.502-15.028,8.257-20.005,8.757
				c-3.625,0.361-4.72,0.474-6.691,2.443c-1.979,1.98-2.09,3.074-2.454,6.702c-0.5,4.979-1.254,12.5-8.751,20
				c-7.499,7.501-15.022,8.251-19.999,8.746c-3.617,0.358-4.709,0.468-6.674,2.43
				C1754.109,593.247,1751.303,594.317,1748.498,594.317z"/>
		</g>
		<g>
			<path fill="#FE9658" d="M511.852,569.777c-2.804,0-5.61-1.07-7.748-3.211c-7.5-7.497-8.248-15.02-8.743-19.997
				c-0.358-3.617-0.469-4.709-2.43-6.673c-1.975-1.972-3.069-2.081-6.697-2.445c-4.979-0.5-12.502-1.254-20.004-8.76
				c-7.505-7.502-8.26-15.025-8.76-20.005c-0.364-3.628-0.474-4.722-2.446-6.696c-4.28-4.278-4.28-11.219,0-15.497
				c4.276-4.281,11.222-4.281,15.497,0c7.505,7.502,8.26,15.025,8.76,20.004c0.364,3.628,0.474,4.723,2.445,6.697
				c1.975,1.972,3.068,2.082,6.697,2.445c4.979,0.5,12.502,1.255,20.004,8.759c7.5,7.497,8.249,15.021,8.744,19.997
				c0.358,3.618,0.468,4.709,2.43,6.673c4.28,4.278,4.28,11.219,0,15.497C517.463,568.707,514.656,569.777,511.852,569.777z"/>
		</g>
		<g>
			<linearGradient id="SVGID_2_" gradientUnits="userSpaceOnUse" x1="743.4473" y1="326.7842" x2="1028.3789" y2="326.7842">
				<stop  offset="0" style="stop-color:#1FD0F0"/>
				<stop  offset="1" style="stop-color:#06BAEB"/>
			</linearGradient>
			<path fill="url(#SVGID_2_)" d="M1028.379,266.51v120.548c0,24.112-19.725,43.835-43.836,43.835H787.282
				c-24.111,0-43.835-19.724-43.835-43.835V266.51c0-24.112,19.724-43.836,43.835-43.836h197.261
				C1008.654,222.674,1028.379,242.398,1028.379,266.51z"/>
			<linearGradient id="SVGID_3_" gradientUnits="userSpaceOnUse" x1="743.4473" y1="228.146" x2="1028.3789" y2="228.146">
				<stop  offset="0" style="stop-color:#467DFA"/>
				<stop  offset="1" style="stop-color:#0E6DBD"/>
			</linearGradient>
			<path fill="url(#SVGID_3_)" d="M984.549,222.674c0-0.005,0-0.011,0-0.011v-32.882c0-6.052-4.907-10.958-10.959-10.958
				c-6.053,0-10.959,4.907-10.959,10.958v32.877c0,0,0,0.01,0,0.016H809.205c0-0.005,0-0.011,0-0.011v-32.882
				c0-6.052-4.906-10.958-10.959-10.958c-6.051,0-10.958,4.907-10.958,10.958v32.877c0,0,0,0.01,0,0.016h-0.006
				c-24.111,0-43.835,19.724-43.835,43.836v10.958h284.932V266.51C1028.379,242.398,1008.654,222.674,984.549,222.674z"/>
		</g>
		<g>
			
				<linearGradient id="SVGID_4_" gradientUnits="userSpaceOnUse" x1="1980.4346" y1="1553.0371" x2="2199.627" y2="1553.0371" gradientTransform="matrix(0.9659 -0.2588 0.2588 0.9659 -346.2971 40.7098)">
				<stop  offset="0" style="stop-color:#1FD0F0"/>
				<stop  offset="1" style="stop-color:#06BAEB"/>
			</linearGradient>
			<path fill="url(#SVGID_4_)" d="M2163.225,908.01l48.223,179.955c3.115,11.639-3.863,23.727-15.502,26.846l-169.37,45.383
				c-11.639,3.119-23.722-3.858-26.847-15.502l-62.393-232.877c-3.125-11.644,3.853-23.727,15.496-26.846l116.439-31.202
				L2163.225,908.01z"/>
			
				<linearGradient id="SVGID_5_" gradientUnits="userSpaceOnUse" x1="2122.9053" y1="1448.9238" x2="2199.6211" y2="1448.9238" gradientTransform="matrix(0.9659 -0.2588 0.2588 0.9659 -346.2971 40.7098)">
				<stop  offset="0" style="stop-color:#467DFA"/>
				<stop  offset="1" style="stop-color:#0E6DBD"/>
			</linearGradient>
			<polygon fill="url(#SVGID_5_)" points="2069.271,853.767 2089.129,927.867 2163.225,908.01 			"/>
			<g>
				<path fill="#FFFFFF" d="M2127.318,985.707l-74.1,19.852c-5.844,1.568-11.858-1.899-13.422-7.748
					c-1.566-5.843,1.906-11.853,7.749-13.42l74.101-19.853c5.844-1.568,11.854,1.899,13.421,7.749
					C2136.63,978.13,2133.162,984.139,2127.318,985.707z"/>
			</g>
			<g>
				<path fill="#FFFFFF" d="M2138.663,1028.049l-116.444,31.202c-5.848,1.562-11.852-1.905-13.42-7.754
					c-1.567-5.843,1.9-11.852,7.748-13.42l116.444-31.202c5.843-1.563,11.858,1.905,13.421,7.753
					C2147.979,1020.472,2144.506,1026.481,2138.663,1028.049z"/>
			</g>
			<g>
				<path fill="#FFFFFF" d="M2097.08,1084.573l-63.512,17.015c-5.848,1.568-11.857-1.898-13.426-7.748
					c-1.566-5.843,1.906-11.853,7.75-13.42l63.516-17.016c5.849-1.568,11.854,1.9,13.426,7.749
					C2106.396,1076.996,2102.93,1083.004,2097.08,1084.573z"/>
			</g>
		</g>
		<linearGradient id="SVGID_6_" gradientUnits="userSpaceOnUse" x1="428.0684" y1="1148.1426" x2="1697.8887" y2="1148.1426">
			<stop  offset="0" style="stop-color:#467DFA"/>
			<stop  offset="1" style="stop-color:#0E6DBD"/>
		</linearGradient>
		<path fill="url(#SVGID_6_)" d="M1697.889,1215.341l-634.91,220.275l-634.91-220.275v-82.085c0-35.633,27.553-74.341,61.211-86.023
			l512.494-177.804c33.674-11.681,88.752-11.681,122.41,0l512.5,177.804c33.668,11.682,61.205,50.39,61.205,86.023V1215.341z"/>
		<linearGradient id="SVGID_7_" gradientUnits="userSpaceOnUse" x1="564.123" y1="1101.8984" x2="1561.8389" y2="1101.8984">
			<stop  offset="0" style="stop-color:#FFFFFF"/>
			<stop  offset="1" style="stop-color:#E6F3FB"/>
		</linearGradient>
		<path fill="url(#SVGID_7_)" d="M1561.839,1477.905c0,30.137-24.657,54.794-54.795,54.794H618.918
			c-30.137,0-54.795-24.657-54.795-54.794V725.898c0-30.137,24.658-54.794,54.795-54.794l888.126-0.005
			c30.138,0,54.795,24.657,54.795,54.794V1477.905z"/>
		<g>
			<linearGradient id="SVGID_8_" gradientUnits="userSpaceOnUse" x1="664.4014" y1="796.3662" x2="896.8711" y2="796.3662">
				<stop  offset="0" style="stop-color:#FE9658"/>
				<stop  offset="1" style="stop-color:#F76E48"/>
			</linearGradient>
			<path fill="url(#SVGID_8_)" d="M885.912,807.325H675.36c-6.052,0-10.959-4.907-10.959-10.958c0-6.052,4.907-10.959,10.959-10.959
				h210.552c6.053,0,10.959,4.907,10.959,10.959C896.871,802.418,891.965,807.325,885.912,807.325z"/>
		</g>
		<g>
			<linearGradient id="SVGID_9_" gradientUnits="userSpaceOnUse" x1="664.4014" y1="860.6699" x2="896.8711" y2="860.6699">
				<stop  offset="0" style="stop-color:#FE9658"/>
				<stop  offset="1" style="stop-color:#F76E48"/>
			</linearGradient>
			<path fill="url(#SVGID_9_)" d="M885.912,871.628H675.36c-6.052,0-10.959-4.907-10.959-10.959s4.907-10.958,10.959-10.958h210.552
				c6.053,0,10.959,4.906,10.959,10.958S891.965,871.628,885.912,871.628z"/>
		</g>
		<g>
			<linearGradient id="SVGID_10_" gradientUnits="userSpaceOnUse" x1="664.4014" y1="1007.3516" x2="1450.7988" y2="1007.3516">
				<stop  offset="0" style="stop-color:#FE9658"/>
				<stop  offset="1" style="stop-color:#F76E48"/>
			</linearGradient>
			<path fill="url(#SVGID_10_)" d="M1439.84,1018.311H675.36c-6.052,0-10.959-4.907-10.959-10.959
				c0-6.052,4.907-10.959,10.959-10.959h764.479c6.053,0,10.959,4.907,10.959,10.959
				C1450.799,1013.404,1445.893,1018.311,1439.84,1018.311z"/>
		</g>
		<g>
			<linearGradient id="SVGID_11_" gradientUnits="userSpaceOnUse" x1="664.4014" y1="1097.9502" x2="1450.7988" y2="1097.9502">
				<stop  offset="0" style="stop-color:#FE9658"/>
				<stop  offset="1" style="stop-color:#F76E48"/>
			</linearGradient>
			<path fill="url(#SVGID_11_)" d="M1439.84,1108.909H675.36c-6.052,0-10.959-4.907-10.959-10.959
				c0-6.052,4.907-10.959,10.959-10.959h764.479c6.053,0,10.959,4.907,10.959,10.959
				C1450.799,1104.002,1445.893,1108.909,1439.84,1108.909z"/>
		</g>
		<g>
			<linearGradient id="SVGID_12_" gradientUnits="userSpaceOnUse" x1="664.4014" y1="1188.5586" x2="1450.7988" y2="1188.5586">
				<stop  offset="0" style="stop-color:#FE9658"/>
				<stop  offset="1" style="stop-color:#F76E48"/>
			</linearGradient>
			<path fill="url(#SVGID_12_)" d="M1439.84,1199.518H675.36c-6.052,0-10.959-4.906-10.959-10.959
				c0-6.052,4.907-10.959,10.959-10.959h764.479c6.053,0,10.959,4.907,10.959,10.959
				C1450.799,1194.611,1445.893,1199.518,1439.84,1199.518z"/>
		</g>
		<g>
			<linearGradient id="SVGID_13_" gradientUnits="userSpaceOnUse" x1="664.4014" y1="1279.168" x2="1450.7988" y2="1279.168">
				<stop  offset="0" style="stop-color:#FE9658"/>
				<stop  offset="1" style="stop-color:#F76E48"/>
			</linearGradient>
			<path fill="url(#SVGID_13_)" d="M1439.84,1290.127H675.36c-6.052,0-10.959-4.907-10.959-10.959
				c0-6.053,4.907-10.959,10.959-10.959h764.479c6.053,0,10.959,4.906,10.959,10.959
				C1450.799,1285.22,1445.893,1290.127,1439.84,1290.127z"/>
		</g>
		<g>
			<linearGradient id="SVGID_14_" gradientUnits="userSpaceOnUse" x1="664.4014" y1="1369.7656" x2="1450.7988" y2="1369.7656">
				<stop  offset="0" style="stop-color:#FE9658"/>
				<stop  offset="1" style="stop-color:#F76E48"/>
			</linearGradient>
			<path fill="url(#SVGID_14_)" d="M1439.84,1380.725H675.36c-6.052,0-10.959-4.906-10.959-10.959
				c0-6.052,4.907-10.959,10.959-10.959h764.479c6.053,0,10.959,4.907,10.959,10.959
				C1450.799,1375.818,1445.893,1380.725,1439.84,1380.725z"/>
		</g>
		<linearGradient id="SVGID_15_" gradientUnits="userSpaceOnUse" x1="428.0684" y1="1567.3281" x2="1697.8887" y2="1567.3281">
			<stop  offset="0" style="stop-color:#1FD0F0"/>
			<stop  offset="1" style="stop-color:#06BAEB"/>
		</linearGradient>
		<path fill="url(#SVGID_15_)" d="M1697.889,1215.341v639.186c0,35.632-29.158,64.79-64.785,64.79H492.853
			c-35.632,0-64.784-29.158-64.784-64.79v-639.186l634.91,220.275L1697.889,1215.341z"/>
		<linearGradient id="SVGID_16_" gradientUnits="userSpaceOnUse" x1="1475.6494" y1="1590.0225" x2="1820.5283" y2="1590.0225">
			<stop  offset="0" style="stop-color:#FE9658"/>
			<stop  offset="1" style="stop-color:#F76E48"/>
		</linearGradient>
		<path fill="url(#SVGID_16_)" d="M1475.649,1590.03c0,95.232,77.204,172.432,172.448,172.432
			c95.232,0,172.431-77.199,172.431-172.432c0-95.248-77.198-172.447-172.431-172.447
			C1552.854,1417.583,1475.649,1494.782,1475.649,1590.03z"/>
		<g>
			<g>
				<path fill="#FFFFFF" d="M1726.904,1671.751h-115.983c-39.278,0-71.233-31.953-71.233-71.232s31.955-71.233,71.233-71.233h124.2
					c6.052,0,10.959,4.907,10.959,10.959c0,6.053-4.907,10.959-10.959,10.959h-124.2c-27.191,0-49.315,22.124-49.315,49.315
					c0,27.19,22.124,49.315,49.315,49.315h115.983c6.052,0,10.959,4.906,10.959,10.958S1732.956,1671.751,1726.904,1671.751z"/>
			</g>
			<g>
				<path fill="#FFFFFF" d="M1697.723,1595.724c-2.443,0-4.898-0.811-6.936-2.478c-4.685-3.834-5.375-10.736-1.541-15.422
					l30.753-37.58l-30.753-37.59c-3.834-4.686-3.141-11.592,1.541-15.423c4.683-3.834,11.588-3.138,15.422,1.542l36.43,44.531
					c3.305,4.037,3.305,9.843,0,13.88l-36.43,44.521C1704.042,1594.352,1700.896,1595.724,1697.723,1595.724z"/>
			</g>
		</g>
	</g>
</g>
<g id="TEXT">
	<g>
	</g>
	<g>
	</g>
	<g>
	</g>
	<g>
	</g>
	<g>
	</g>
</g>
</svg>
