<?xml version="1.0" encoding="utf-8"?>
<!-- Generator: Adobe Illustrator 16.0.0, SVG Export Plug-In . SVG Version: 6.00 Build 0)  -->
<!DOCTYPE svg PUBLIC "-//W3C//DTD SVG 1.1//EN" "http://www.w3.org/Graphics/SVG/1.1/DTD/svg11.dtd">
<svg version="1.1" id="Layer_1" xmlns="http://www.w3.org/2000/svg" xmlns:xlink="http://www.w3.org/1999/xlink" x="0px" y="0px"
	 width="322.547px" height="322.557px" viewBox="98.2 94.724 322.547 322.557" enable-background="new 98.2 94.724 322.547 322.557"
	 xml:space="preserve">
<g>
	<g>
		<path fill="#E30058" d="M273.356,301.168L254.26,286.08c-2.932-2.521-7.351-2.188-9.872,0.743
			c-2.521,2.931-2.188,7.351,0.743,9.872c0.151,0.129,0.308,0.252,0.469,0.369l0.725,0.57
			c-23.079-7.269-35.896-31.869-28.629-54.949c2.117-6.723,5.825-12.835,10.81-17.819c2.687-2.78,2.608-7.212-0.171-9.898
			c-2.712-2.62-7.013-2.621-9.727-0.002c-22.563,22.549-22.577,59.12-0.027,81.686c8.517,8.522,19.483,14.168,31.367,16.146
			l-4.362,3.452c-3.034,2.396-3.552,6.798-1.156,9.832c2.396,3.034,6.798,3.552,9.832,1.156l0,0l19.096-15.093
			c3.034-2.399,3.549-6.805,1.15-9.838c-0.338-0.428-0.725-0.813-1.15-1.149L273.356,301.168L273.356,301.168z"/>
		<path fill="#FF6426" d="M268.988,199.04l4.368-3.456c3.05-2.375,3.598-6.774,1.222-9.824c-2.375-3.05-6.773-3.597-9.823-1.221
			c-0.026,0.021-0.052,0.041-0.077,0.061L245.6,199.692c-3.033,2.397-3.549,6.799-1.15,9.833c0.338,0.427,0.724,0.814,1.15,1.151
			l19.092,15.092c3.018,2.418,7.422,1.933,9.842-1.083c2.418-3.016,1.933-7.422-1.084-9.84c-0.025-0.021-0.052-0.041-0.076-0.061
			l-0.726-0.572c23.079,7.27,35.896,31.873,28.625,54.951c-2.117,6.722-5.825,12.833-10.809,17.817
			c-2.78,2.686-2.856,7.117-0.171,9.896c2.687,2.78,7.118,2.855,9.897,0.171c0.06-0.057,0.116-0.114,0.172-0.173
			c22.565-22.548,22.578-59.12,0.03-81.685c-8.521-8.527-19.497-14.175-31.39-16.151L268.988,199.04L268.988,199.04z"/>
		<path fill="#3E9FFF" d="M413.742,277.096V234.9H380.24c-3.082-17.77-10.069-34.634-20.46-49.376l23.696-23.696L353.636,132
			l-23.692,23.692c-14.743-10.386-31.605-17.373-49.376-20.456v-33.512h-42.194v33.504c-17.771,3.083-34.635,10.069-49.376,20.456
			L165.3,132l-29.836,29.836l23.691,23.696c-10.389,14.743-17.377,31.606-20.461,49.376H105.2v42.188h33.5
			c3.084,17.771,10.071,34.633,20.46,49.377l-23.692,23.695L165.3,380l23.696-23.691c14.741,10.387,31.605,17.373,49.376,20.455
			v33.504h42.194v-33.5c17.771-3.082,34.633-10.068,49.376-20.455L353.636,380l29.84-29.836l-23.696-23.696
			c10.39-14.741,17.377-31.604,20.46-49.372H413.742z M259.468,343.332c-48.232,0-87.332-39.1-87.332-87.332
			c0-48.232,39.1-87.332,87.332-87.332c48.23,0,87.332,39.1,87.332,87.332l0,0C346.8,304.232,307.698,343.332,259.468,343.332z"/>
	</g>
	<g>
		<path fill="#3E9FFF" d="M244.428,326.092c2.396,3.032,6.797,3.551,9.832,1.156l19.096-15.092c3.034-2.399,3.549-6.805,1.15-9.838
			c-0.338-0.428-0.725-0.813-1.15-1.15L254.26,286.08c-2.932-2.521-7.351-2.188-9.872,0.743c-2.521,2.931-2.188,7.351,0.743,9.872
			c0.151,0.129,0.308,0.252,0.469,0.369l0.725,0.57c-23.079-7.269-35.896-31.869-28.629-54.949
			c2.117-6.723,5.825-12.835,10.81-17.819c2.687-2.78,2.608-7.212-0.171-9.898c-2.712-2.62-7.013-2.621-9.727-0.002
			c-22.563,22.549-22.577,59.12-0.027,81.686c8.517,8.522,19.483,14.168,31.367,16.146l-4.362,3.452
			c-3.036,2.394-3.558,6.795-1.163,9.831C244.423,326.086,244.426,326.089,244.428,326.092L244.428,326.092z"/>
		<path fill="#3F3F3F" d="M339.26,265.396c-0.176,1.526-0.4,3.043-0.664,4.543c-0.657,3.811,1.897,7.432,5.708,8.088
			c0.396,0.067,0.798,0.104,1.2,0.104c3.403-0.004,6.313-2.454,6.896-5.808c0.304-1.761,0.562-3.535,0.77-5.324
			c0.347-3.851-2.493-7.253-6.345-7.601c-3.717-0.336-7.043,2.305-7.561,6L339.26,265.396z"/>
		<path fill="#3F3F3F" d="M259.468,161.668c-52.099,0.005-94.328,42.243-94.323,94.341c0.005,52.099,42.243,94.328,94.341,94.323
			c36.067-0.004,68.977-20.572,84.782-52.992c1.55-3.541-0.065-7.669-3.607-9.219c-3.333-1.459-7.228-0.12-8.961,3.079
			c-19.436,39.887-67.525,56.466-107.413,37.03c-39.888-19.438-56.467-67.527-37.029-107.416
			c13.458-27.619,41.488-45.144,72.212-45.148c39.532,0.203,73.119,28.968,79.396,68c0.535,3.829,4.073,6.499,7.902,5.963
			c3.828-0.536,6.498-4.073,5.963-7.902c-0.009-0.063-0.019-0.126-0.029-0.189C345.335,195.7,305.896,161.912,259.468,161.668
			L259.468,161.668z"/>
		<path fill="#3F3F3F" d="M413.742,227.9H386c-3.237-14.741-9.062-28.792-17.2-41.5l19.628-19.628c2.73-2.733,2.73-7.163,0-9.896
			l-29.84-29.836c-2.73-2.734-7.16-2.737-9.896-0.006c-0.002,0.002-0.004,0.004-0.006,0.006l-19.624,19.624
			c-12.707-8.14-26.756-13.963-41.496-17.2v-27.74c-0.002-3.865-3.135-6.998-7-7h-42.194c-3.866,0-7,3.134-7,7v27.752
			c-1.71,0.376-3.407,0.787-5.094,1.232c-3.736,0.994-5.962,4.83-4.968,8.568c0.994,3.738,4.83,5.962,8.568,4.968l0,0
			c3.2-0.84,6.456-1.556,9.708-2.12c3.354-0.582,5.804-3.492,5.804-6.896v-26.504h28.196v26.504c0,3.404,2.45,6.314,5.804,6.896
			c16.756,2.884,32.656,9.474,46.54,19.288c2.783,1.959,6.573,1.632,8.979-0.776l18.744-18.744l19.944,19.936l-18.748,18.748
			c-2.407,2.405-2.733,6.195-0.772,8.976c9.814,13.885,16.401,29.787,19.28,46.544c0.582,3.355,3.494,5.805,6.9,5.804h26.504v28.196
			H380.24c-3.404-0.001-6.316,2.449-6.898,5.805c-2.88,16.758-9.468,32.658-19.28,46.543c-1.962,2.781-1.636,6.572,0.771,8.978
			l18.769,18.748l-19.944,19.937l-18.764-18.744c-2.733-2.733-7.166-2.733-9.9,0c-2.732,2.734-2.732,7.166,0,9.899l23.696,23.692
			c2.73,2.732,7.16,2.736,9.895,0.006c0.002-0.002,0.005-0.004,0.007-0.006l29.84-29.836c2.73-2.733,2.73-7.163,0-9.896L368.8,325.6
			c8.14-12.707,13.963-26.756,17.2-41.496h27.747c3.864-0.002,6.997-3.135,7-7V234.9C420.744,231.033,417.611,227.9,413.742,227.9
			L413.742,227.9z"/>
		<path fill="#3F3F3F" d="M307.38,361.2c-8.926,4.067-18.336,6.977-28,8.655c-3.354,0.584-5.8,3.494-5.8,6.896v26.504h-28.208
			v-26.487c-0.001-3.404-2.45-6.314-5.806-6.896c-16.756-2.885-32.655-9.475-46.54-19.288c-2.783-1.956-6.57-1.629-8.979,0.774
			L165.3,370.104l-19.94-19.936l18.744-18.748c2.409-2.404,2.736-6.193,0.776-8.977c-9.813-13.885-16.4-29.786-19.28-46.543
			c-0.58-3.355-3.491-5.807-6.896-5.805h-26.51V241.9H138.7c3.405,0.003,6.318-2.447,6.898-5.804
			c2.88-16.757,9.467-32.659,19.28-46.544c1.96-2.782,1.633-6.571-0.776-8.976l-18.744-18.748l19.94-19.936l18.748,18.744
			c2.781,2.687,7.213,2.607,9.896-0.174c2.62-2.713,2.619-7.014-0.002-9.726l-23.69-23.692c-2.73-2.734-7.16-2.736-9.895-0.006
			c-0.003,0.002-0.005,0.004-0.007,0.006l-29.84,29.836c-2.732,2.729-2.736,7.156-0.008,9.888c0.003,0.003,0.005,0.005,0.008,0.008
			l19.624,19.624c-8.139,12.708-13.962,26.757-17.2,41.496H105.2c-3.866,0-7,3.134-7,7v42.2c0,3.866,3.134,7,7,7h27.742
			c3.239,14.739,9.063,28.788,17.2,41.496l-19.624,19.629c-2.731,2.729-2.735,7.154-0.008,9.889
			c0.003,0.002,0.006,0.005,0.008,0.008l29.84,29.836c2.73,2.732,7.16,2.736,9.896,0.006c0.002-0.002,0.004-0.004,0.006-0.006
			l19.624-19.62c12.708,8.14,26.757,13.962,41.496,17.2v27.748c0,3.866,3.134,7,7,7h42.188c3.865-0.003,6.998-3.135,7-7V382.52
			c8.821-1.949,17.412-4.819,25.632-8.566c3.521-1.607,5.073-5.766,3.466-9.286C315.059,361.145,310.901,359.593,307.38,361.2
			L307.38,361.2L307.38,361.2z"/>
		<path fill="#3E9FFF" d="M290.448,296.876c2.73,2.733,7.16,2.735,9.896,0.007c0.002-0.003,0.004-0.005,0.006-0.007
			c22.563-22.548,22.578-59.12,0.029-81.685c-8.521-8.527-19.497-14.175-31.391-16.151l4.368-3.456
			c3.05-2.375,3.598-6.774,1.222-9.824c-2.375-3.05-6.773-3.597-9.823-1.221c-0.026,0.021-0.052,0.041-0.077,0.061L245.6,199.692
			c-3.033,2.397-3.549,6.799-1.15,9.833c0.338,0.427,0.724,0.814,1.15,1.151l19.092,15.092c3.018,2.418,7.422,1.933,9.842-1.083
			c2.418-3.017,1.933-7.422-1.084-9.84c-0.025-0.021-0.052-0.041-0.076-0.061l-0.726-0.572c23.079,7.27,35.896,31.873,28.625,54.951
			c-2.117,6.722-5.825,12.834-10.809,17.817C287.728,289.709,287.721,294.139,290.448,296.876z"/>
	</g>
</g>
</svg>
