<?xml version="1.0" encoding="utf-8"?>
<!-- Generator: Adobe Illustrator 16.0.0, SVG Export Plug-In . SVG Version: 6.00 Build 0)  -->
<!DOCTYPE svg PUBLIC "-//W3C//DTD SVG 1.1//EN" "http://www.w3.org/Graphics/SVG/1.1/DTD/svg11.dtd">
<svg version="1.1" id="_x2018_лой_x5F_1" xmlns="http://www.w3.org/2000/svg" xmlns:xlink="http://www.w3.org/1999/xlink"
	 x="0px" y="0px" width="2720.26px" height="1499.514px" viewBox="0 0 2720.26 1499.514"
	 enable-background="new 0 0 2720.26 1499.514" xml:space="preserve">
<g>
	<path fill="#EBF3FA" d="M2667.88,1252.033l-0.04,0.73c-1.09,21.26-3.949,41.35-8.14,60.24c-22.15,99.939-79.93,163.79-94.34,179.26
		c-0.01,0.01-0.021,0.02-0.03,0.03c-1.95,2.1-3.149,3.3-3.3,3.609c-62.61,0-467.37,0.07-928.62-0.06
		c-124.33-0.03-252.76-0.08-379.71-0.16c-57.65-0.03-114.99-0.06-171.5-0.1c-41.15-0.03-81.86-0.07-121.92-0.101
		c-152.08-0.13-294.9-0.3-417.39-0.52c-65.57-0.12-125.31-0.25-177.54-0.41c-139.07-0.391-224.77-0.891-225.03-1.54l-0.15-0.45
		c0,0-0.13-0.13-0.14-0.27c-0.01-0.011-0.01-0.021-0.01-0.03c0-0.15-0.16-0.31-0.16-0.31c-0.37-0.86-80.49-111.66-104.31-263.671
		c-5.52-35.25-8.02-72.71-5.79-111.529v-0.61c8.34-143.17,80.84-304.53,302.41-441.48c211.72-131.04-13.35-217.48,155-363.38
		c193.51-167.43,404.78,17.9,619.98-58.09c37.92-13.49,76.14-35.03,114.36-68.09c21.53-18.65,45.04-35.03,70.21-48.99
		c3.95-2.27,7.74-4.4,11.68-6.37c15.17-7.88,30.79-15.01,47.02-21.38c10.76-4.25,21.83-8.19,33.061-11.83
		c17.89-5.91,36.239-10.92,54.899-15.01c26.54-6.07,53.99-10.47,81.891-13.5c12.14-1.37,24.42-2.43,36.859-3.19
		c227.75-14.36,482.6,61.53,627.551,175.58c8.039,6.32,15.729,12.76,23.069,19.31c3.04,2.72,7.24,6.67,12.2,11.78
		c33.83,34.86,102.72,123.58,74.279,243.55c-2.43,10.23-5.56,20.7-9.479,31.37c-5.62,15.28-12.859,30.99-21.95,47.1
		c-14.1,25.02-11.979,49.59,0.76,74.47l0.141,0.15h0.01c0.7,1.34,1.431,2.68,2.19,4.02c2.659,4.69,5.7,9.39,9.079,14.1
		c1.921,2.7,3.961,5.39,6.11,8.08c0.53,0.67,1.07,1.34,1.62,2.02c1.1,1.35,2.221,2.69,3.37,4.04c0,0-0.01,0,0,0.01
		c0.92,1.08,1.851,2.15,2.8,3.23c0.94,1.08,1.9,2.16,2.891,3.25c0.979,1.08,1.97,2.15,2.979,3.23c1,1.08,2.021,2.16,3.06,3.25
		c1.041,1.08,2.091,2.16,3.15,3.24c1.061,1.08,2.141,2.16,3.23,3.24h0.01c18.3,18.17,23.35,41.08,28.09,67.85
		c1.851,10.431,3.65,21.46,6.18,33.011c0.11,0.51,0.23,1.029,0.34,1.55c2.17,9.729,4.881,19.83,8.581,30.27
		c0.169,0.511,0.359,1.03,0.55,1.551c3.279,9.069,7.319,18.399,12.42,27.97c0.47,0.89,0.949,1.78,1.449,2.67v0.01
		c0.381,0.71,0.771,1.41,1.181,2.12c0.29,0.521,0.58,1.03,0.88,1.55c0.5,0.88,1.021,1.76,1.55,2.641l0.011,0.02
		c0.21,0.36,0.43,0.74,0.67,1.11c3.64,6.069,7.75,12.229,12.39,18.47c2.02,2.74,4.15,5.5,6.39,8.27
		c11.96,14.811,26.96,30.08,45.92,45.721c24.98,20.62,56.851,41.899,97.71,63.7c6.5,3.47,12.761,6.989,18.79,10.55
		c56.801,33.55,92.391,70.83,105.12,112.899c1.8,5.94,4.84,17.551,7.771,31.5C2664.681,1204.663,2668.891,1231.563,2667.88,1252.033
		z"/>
	<path fill="#A8D29F" d="M2667.78,1252.014c0.029,0.25,0.04,0.5,0.06,0.75c-1.09,21.26-3.949,41.35-8.14,60.24l-112.4,17.63
		l-23.199,3.64l-13.2,2.07l-91.45,14.35l-8.18,1.28l-18.391,2.89l-4.779,0.75h-0.03c0,0-3.94,0.46-10.78,1.11
		c-0.57,0.06-1.17,0.11-1.78,0.17c-4.55,0.42-10.189,0.91-16.659,1.4c-2.431,0.189-4.98,0.369-7.631,0.55
		c-0.5,0.03-1,0.069-1.51,0.1c-3.71,0.25-7.6,0.48-11.66,0.71c-8.359,0.45-17.38,0.84-26.77,1.07c-3.65,0.09-7.36,0.16-11.1,0.21
		c-1.951,0.021-3.921,0.03-5.891,0.03c-2.37,0.01-4.75,0.01-7.14-0.01c-3.53-0.021-7.08-0.08-10.62-0.171
		c-2.6-0.06-5.21-0.14-7.801-0.229c-3.619-0.141-7.229-0.32-10.819-0.53c-0.55-0.03-1.101-0.069-1.65-0.11
		c-1.67-0.1-3.34-0.209-5-0.34c-8.239-0.619-16.28-1.47-23.93-2.6c-1.29-0.19-2.56-0.39-3.82-0.6
		c-28.77-4.7-51.239-13.67-56.409-29.73c-4.7-14.71,5.459-35.64,38.979-64.75c5.58-4.84,11.399-9.48,17.43-13.91
		c38.9-28.6,86.79-48.87,136.97-63.18c2.08-0.6,4.161-1.18,6.25-1.75c0.32-0.09,0.641-0.18,0.961-0.271
		c0.569-0.149,1.14-0.31,1.71-0.46c1.13-0.31,2.26-0.609,3.38-0.899c1.979-0.53,3.96-1.05,5.949-1.55
		c10.021-2.561,20.101-4.891,30.181-7.011c2.54-0.54,5.08-1.06,7.62-1.569c1.189-0.24,2.38-0.48,3.56-0.71
		c0.82-0.171,1.64-0.33,2.46-0.48c1.25-0.24,2.5-0.479,3.75-0.71c42-7.93,83.591-12.49,121-15c42.131-2.84,78.971-3.07,105.12-2.61
		c3.021,7.301,5.601,18.431,7.771,31.5C2663.62,1203.813,2666.08,1229.153,2667.78,1252.014z"/>
	<path fill="#F8FCFF" d="M1405.765,306.812c0,0,32.338-66.877,109.668-59.446c0,0,112.269-111.467,231.989-14.862
		c0,0,127.262-23.937,221.509,20.725c62.838,29.777,83.592,61.014,83.592,61.014L1405.765,306.812z"/>
	<path fill="#F8FCFF" d="M1292.542,901.833c0,0,43.66-75.689,148.064-67.28c0,0,151.577-126.154,313.215-16.819
		c0,0,171.819-27.091,299.064,23.456c84.838,33.7,112.859,69.054,112.859,69.054L1292.542,901.833z"/>
	<path fill="#79B27F" d="M2011.96,567.855c0,0-33.021-56.584-111.869-42.574c-78.848,14.011-57.865,105.112-101.5,147.936
		c-43.634,42.823-81.681,80.982-62.949,141.478c18.73,60.496-80.752,73.43-80.463,164.785
		c0.289,91.356,21.545,145.203,143.85,152.313c122.305,7.11,317.936-25.208,344.428-62.057
		c26.492-36.85,22.036-117.749-44.479-220.979c-66.514-103.23-5.742-112.493-50.194-172.271
		C2004.33,616.707,2035.622,592.474,2011.96,567.855z"/>
	<path fill="#F8FCFF" d="M525.284,473.375c0,0,28.708-49.769,97.358-44.239c0,0,99.667-82.951,205.95-11.06
		c0,0,112.978-17.813,196.646,15.423c55.784,22.159,74.209,45.405,74.209,45.405L525.284,473.375z"/>
	<g>
		<polygon fill="#739AF0" points="1443.373,1329.605 1420.165,1329.605 1425.161,671.526 1436.927,671.526 		"/>
		<polygon fill="#7FAAF7" points="1429.599,675.028 1260.833,819.54 1195.241,875.71 1190.279,870.696 1248.354,806.288 
			1343.486,700.788 1418.671,661.397 		"/>
		<polygon fill="#F99746" points="1260.833,819.54 1195.241,875.71 1190.279,870.696 1248.354,806.288 		"/>
		<polygon fill="#7FAAF7" points="1441.057,665.289 1424.587,671.141 1341.848,460.179 1311.931,383.902 1318.301,380.863 
			1358.441,453.879 1428.521,581.339 		"/>
		<polygon fill="#F99746" points="1358.441,453.879 1341.848,460.179 1311.931,383.902 1318.301,380.863 		"/>
		<polygon fill="#7FAAF7" points="1739.453,676.707 1629.327,684.323 1511.219,692.488 1429.77,668.591 1431.383,651.192 
			1624.289,662.751 1739.366,669.645 		"/>
		<polygon fill="#F99746" points="1739.453,676.707 1625.389,684.595 1624.289,662.751 1739.366,669.645 		"/>
		<circle fill="#2B478B" cx="1429.752" cy="664.097" r="15.15"/>
	</g>
	<g>
		<path fill="#D4DFFF" d="M654.043,1491.794H1228.2l239.352-0.156h432.852c0,0,0.252-0.435,0.738-1.305
			c0.348-0.617,0.817-1.451,1.426-2.513l0.234-0.313c0,0,0,0,0-0.156c0,0,0.235-0.166,0.235-0.322
			c0.956-1.269,1.669-2.704,2.626-4.442c0.486-0.8,0.956-1.756,1.678-2.704c0-0.156,0-0.156,0-0.321
			c0.234-0.157,0.234-0.157,0.234-0.157c3.278-5.668,7.347-13.05,12.042-21.97c0.426-0.809,0.852-1.626,1.286-2.452
			c2.339-6.737,4.912-14.284,7.651-22.596c6.512-20.171,13.98-44.793,21.283-72.589c2.86-10.963,5.721-22.396,8.425-34.315
			c1.591-6.877,3.19-14.041,4.721-21.275c0.443-2.121,0.878-4.242,1.313-6.363c2.809-13.546,5.452-27.5,7.834-41.759
			c4.678-27.917,8.373-57.008,10.451-86.49c-185.918,9.581-544.303,34.803-813.875,95.011
			c-380.381,84.951-474.383,98.671-635.521,113.911C443.008,1387.046,545.904,1443.619,654.043,1491.794z"/>
		<path fill="#D4DFFF" d="M895.821,1399.788c0,0,616.068-187.635,771.188-201.225c155.121-13.589,6.521,18.172,6.521,18.172
			s-421.616,109.678-519.613,156.454C946.673,1472.11,895.821,1399.788,895.821,1399.788z"/>
		<path fill="#D4DFFF" d="M1081.902,1486.425c0,0,513.444-235.825,652.381-274.145c138.937-38.32,8.956,15.245,8.956,15.245
			s-405.399,211.398-490.323,264.771C1240.625,1500.021,1081.902,1486.425,1081.902,1486.425z"/>
	</g>
	<path opacity="0.5" fill="#AEC3FF" d="M1216.334,735.933l-82.502,10.615l-82.502,10.767l-50.808-11.678
		c-1.212,2.277-3.336,3.943-5.761,4.854l3.64,469.691c-5.31,2.578-10.466,6.066-15.166,10.615l2.88-477.577L875.099,860.445
		l-45.194,43.526l-3.792-3.336l39.433-49.29l64.456-80.682l50.047-30.18c-0.152-0.152-0.152-0.152-0.152-0.304
		c0-2.427,0.911-4.55,2.123-6.37l-63.696-137.858l-25.024-53.992l4.397-2.577l32.305,51.26l56.417,89.479l10.767,50.654h218.845
		L1216.334,735.933z"/>
	<g>
		<polygon fill="#739AF0" points="2149.802,1302.497 2120.247,1302.497 2126.609,380.576 2141.592,380.576 		"/>
		<polygon fill="#83AFFC" points="2129.112,351.199 2255.978,98.297 2305.283,0 2313.583,3.44 2277.166,107.702 2217.509,278.485 
			2148.665,361.813 		"/>
		<polygon fill="#F99746" points="2255.978,98.297 2305.283,0 2313.583,3.44 2277.166,107.702 		"/>
		<polygon fill="#83AFFC" points="2120.464,368.285 2136.913,353.292 2338.103,560.165 2410.847,634.963 2404.867,641.672 
			2321.728,575.745 2176.587,460.664 		"/>
		<polygon fill="#F99746" points="2321.728,575.745 2338.103,560.165 2410.847,634.963 2404.867,641.672 		"/>
		<polygon fill="#83AFFC" points="1764.499,502.052 1890.036,438.795 2024.675,370.956 2132.087,358.841 2138.774,380.064 
			1906.59,461.636 1768.083,510.301 		"/>
		<polygon fill="#F99746" points="1764.499,502.052 1894.525,436.533 1906.59,461.636 1768.083,510.301 		"/>
		<circle fill="#2B478B" cx="2134.324" cy="364.109" r="19.292"/>
	</g>
	<path fill="#A8D29F" d="M1699.135,1353.094c0,0-123.988-36.856-196.582,8.309s-29.651,97.147-115.535,92.628
		c-85.884-4.521-128.826-8.863-133.346,41.9h379.695L1699.135,1353.094z"/>
	<g>
		<g>
			<g>
				<rect x="1806.772" y="910.719" fill="#F9DDBF" width="416.742" height="584.321"/>
				<path fill="#FFF3E9" d="M2547.303,926.267v568.726h-323.794V910.646h309.69C2538.054,915.802,2542.754,920.957,2547.303,926.267
					z"/>
				<path fill="#ED9F4A" d="M2304.19,719.856l-32.908,67.792l-14.559,29.877l-0.456,1.215l-0.607,1.063l-0.455,0.908l-0.757,1.517
					l-0.305,0.759l-14.408,29.573l-0.758,1.519l-1.819,3.942l-25.63,52.626l-5.916,12.283l-8.34,16.986l-4.397,9.101h-414.792
					l28.664-37.157l0.909-1.213l186.542-241.443l0.152-0.152h16.381l252.968-0.909
					C2272.648,685.277,2286.751,702.568,2304.19,719.856z"/>
				<polygon fill="#F9DDBF" points="2223.515,946.263 2223.515,994.854 1806.772,1012.464 1806.772,949.084 1794.44,949.084 
					2010.714,668.989 				"/>
				<path fill="#EFCDAF" d="M2014.438,808.523h-8.713c-29.598,0-53.59,23.993-53.59,53.59v136.183h114.153V860.373
					C2066.289,831.737,2043.075,808.523,2014.438,808.523z"/>
				<g>
					<polygon fill="#F99746" points="2585.295,964.636 2215.851,964.636 2197.197,939.915 2175.205,910.646 2002.163,679.969 
						1994.124,669.202 1993.214,667.99 2362.659,667.99 2363.569,669.202 2371.606,679.969 2544.651,910.646 2566.641,939.915 					
						"/>
				</g>
			</g>
			<g>
				<polygon fill="#ED9F4A" points="1965.495,1027.599 1868.283,1227.741 1572.946,1227.741 1726.921,1028.329 				"/>
				<g>
					<polygon fill="#F9DDBF" points="1974.345,1027.599 1877.132,1227.741 1581.796,1227.741 1735.771,1028.329 					"/>
					<polygon fill="#F9DDBF" points="1876.487,1227.739 1876.487,1494.487 1581.8,1495.065 1581.8,1227.739 					"/>
					<rect x="1876.487" y="1227.739" fill="#FFF3E9" width="249.543" height="266.748"/>
					<polygon fill="#F99746" points="2153.453,1239.575 1885.378,1239.575 1726.917,1028.325 1806.771,1028.339 1990.386,1028.378 
											"/>
					<circle fill="#EFCDAF" cx="1726.922" cy="1139.438" r="13.933"/>
					<polygon fill="#E88338" points="2153.453,1239.575 2102.575,1239.575 1806.771,1028.339 1990.386,1028.378 					"/>
				</g>
			</g>
		</g>
		<g>
			<polygon fill="#2B478B" points="2286.731,918.915 2489.554,918.915 2382.561,787.699 2179.739,787.699 			"/>
			<g>
				<polygon fill="#AEC3FF" points="2207.362,822.261 2410.185,822.261 2408.927,820.718 2206.104,820.718 				"/>
				<polygon fill="#AEC3FF" points="2334.886,787.696 2441.879,918.914 2443.422,918.914 2336.429,787.696 				"/>
				<polygon fill="#AEC3FF" points="2281.147,787.696 2388.142,918.914 2389.685,918.914 2282.69,787.696 				"/>
				<polygon fill="#AEC3FF" points="2229.438,787.696 2336.432,918.914 2337.975,918.914 2230.981,787.696 				"/>
				<polygon fill="#AEC3FF" points="2233.864,854.079 2436.687,854.079 2435.428,852.536 2232.606,852.536 				"/>
				<polygon fill="#AEC3FF" points="2261.851,888.401 2464.672,888.401 2463.413,886.858 2260.592,886.858 				"/>
				<g>
					<polygon fill="#AEC3FF" points="2368.645,827.916 2369.812,821.597 2358.339,815.276 2357.172,821.597 					"/>
					<polygon fill="#AEC3FF" points="2315.485,827.916 2316.652,821.597 2305.179,815.276 2304.013,821.597 					"/>
					<polygon fill="#AEC3FF" points="2263.005,827.916 2264.171,821.597 2252.698,815.276 2251.532,821.597 					"/>
				</g>
				<g>
					<polygon fill="#AEC3FF" points="2394.502,859.627 2395.669,853.308 2384.195,846.987 2383.028,853.308 					"/>
					<polygon fill="#AEC3FF" points="2341.343,859.627 2342.509,853.308 2331.036,846.987 2329.869,853.308 					"/>
					<polygon fill="#AEC3FF" points="2288.861,859.627 2290.028,853.308 2278.556,846.987 2277.389,853.308 					"/>
				</g>
				<g>
					<polygon fill="#AEC3FF" points="2422.487,893.949 2423.654,887.63 2412.182,881.31 2411.015,887.63 					"/>
					<polygon fill="#AEC3FF" points="2369.328,893.949 2370.495,887.63 2359.022,881.31 2357.855,887.63 					"/>
					<polygon fill="#AEC3FF" points="2316.848,893.949 2318.015,887.63 2306.541,881.31 2305.374,887.63 					"/>
				</g>
			</g>
		</g>
		<g>
			<polygon fill="#2B478B" points="1903.894,1198.889 2087.673,1198.889 1990.726,1079.992 1806.947,1079.992 			"/>
			<g>
				<polygon fill="#AEC3FF" points="1831.978,1111.309 2015.757,1111.309 2014.616,1109.91 1830.837,1109.91 				"/>
				<polygon fill="#AEC3FF" points="1947.526,1079.989 2044.475,1198.887 2045.873,1198.887 1948.925,1079.989 				"/>
				<polygon fill="#AEC3FF" points="1898.834,1079.989 1995.782,1198.887 1997.181,1198.887 1900.232,1079.989 				"/>
				<polygon fill="#AEC3FF" points="1851.98,1079.989 1948.928,1198.887 1950.326,1198.887 1853.378,1079.989 				"/>
				<polygon fill="#AEC3FF" points="1855.99,1140.14 2039.77,1140.14 2038.63,1138.741 1854.851,1138.741 				"/>
				<polygon fill="#AEC3FF" points="1881.349,1171.239 2065.128,1171.239 2063.987,1169.841 1880.209,1169.841 				"/>
				<g>
					<polygon fill="#AEC3FF" points="1978.117,1116.433 1979.174,1110.707 1968.778,1104.98 1967.721,1110.707 					"/>
					<polygon fill="#AEC3FF" points="1929.948,1116.433 1931.006,1110.707 1920.61,1104.98 1919.553,1110.707 					"/>
					<polygon fill="#AEC3FF" points="1882.395,1116.433 1883.452,1110.707 1873.057,1104.98 1871.999,1110.707 					"/>
				</g>
				<g>
					<polygon fill="#AEC3FF" points="2001.546,1145.167 2002.603,1139.44 1992.207,1133.714 1991.149,1139.44 					"/>
					<polygon fill="#AEC3FF" points="1953.378,1145.167 1954.435,1139.44 1944.039,1133.714 1942.981,1139.44 					"/>
					<polygon fill="#AEC3FF" points="1905.824,1145.167 1906.882,1139.44 1896.485,1133.714 1895.428,1139.44 					"/>
				</g>
				<g>
					<polygon fill="#AEC3FF" points="2026.904,1176.267 2027.961,1170.54 2017.565,1164.813 2016.509,1170.54 					"/>
					<polygon fill="#AEC3FF" points="1978.736,1176.267 1979.793,1170.54 1969.397,1164.813 1968.34,1170.54 					"/>
					<polygon fill="#AEC3FF" points="1931.183,1176.267 1932.239,1170.54 1921.844,1164.813 1920.786,1170.54 					"/>
				</g>
			</g>
		</g>
	</g>
	<path fill="#A8D29F" d="M835.76,1491.794c-0.06,0.17-0.12,0.33-0.18,0.5H140.03c-0.01-0.011-0.01-0.021-0.01-0.03
		c0-0.15-0.16-0.31-0.16-0.31c-0.37-0.86-80.49-111.66-104.31-263.671c17.41-6.689,78.88-27.47,165.36-25.22
		c3.48,0.09,7,0.22,10.56,0.391c31.91,1.489,66.98,6.18,104.31,15.81c1.31,0.34,2.63,0.68,3.95,1.03c0.37,0.1,0.74,0.199,1.11,0.3
		c2.64,0.71,5.28,1.439,7.94,2.2c2.98,0.85,5.96,1.729,8.97,2.64c1.07,0.33,2.15,0.66,3.23,0.99c3.979,1.239,7.979,2.54,12.01,3.89
		c46.98,15.811,76.13,32.85,96.42,49.32c0.42,0.34,0.84,0.68,1.26,1.02c9.74,8.051,17.41,15.96,24.04,23.51
		c1.81,2.061,3.55,4.091,5.23,6.091c2.08,2.489,4.08,4.93,6.041,7.319c6.57,8.021,12.64,15.42,19.76,21.881
		c19.64,17.869,47.25,28.67,115.33,25.959c12.21-0.489,23.88-0.6,35.03-0.359C802.49,1368.104,858.16,1430.844,835.76,1491.794z"/>
	<path fill="#A8D29F" d="M2667.88,1252.033c-0.029-0.01-0.07-0.01-0.1-0.02c-26.69-5.33-68.6-11.75-120.48-13.29
		c-32.14-0.96-68.119-0.05-106.67,4.15c-1.359,0.149-2.729,0.3-4.1,0.449c-4.021,0.471-8.07,0.96-12.15,1.5
		c-8.9,1.16-17.93,2.511-27.06,4.051c-0.011,0.01-0.021,0.01-0.03,0c-2.72,0.46-5.42,0.93-8.16,1.43c-2.93,0.52-5.87,1.07-8.82,1.64
		c-6.319,1.22-12.699,2.54-19.119,3.96c-2.82,0.62-5.65,1.271-8.49,1.94c-2.84,0.649-5.68,1.34-8.54,2.04
		c-3.46,0.859-6.931,1.74-10.41,2.649h-0.01c-1.08,0.29-2.17,0.58-3.25,0.87h-0.011c-3.189,0.86-6.39,1.74-9.6,2.65
		c-12.97,3.67-26.08,7.78-39.27,12.37c-21.66,7.479-40.9,14.85-58.101,22.03c-21.829,9.09-40.38,17.88-56.409,26.189
		c-15.83,8.18-29.271,15.95-41.07,23.2c-63.92,39.28-79.66,63.52-166.85,56.729c-7.771-0.59-15.211-0.83-22.341-0.729
		c-23.36,0.3-43.34,4.069-60.35,9.88c-34.101,11.64-56.25,31.51-69.72,48.09c-11.101,13.66-16.32,25.08-17.49,27.82
		c-0.18,0.41-0.26,0.63-0.26,0.63h17.75h69.72h249.54h97.479h24.891h17.47h214.65h17.47h49.31h18.061
		c14.41-15.47,72.189-79.32,94.34-179.26c4.189-18.891,7.05-38.98,8.14-60.24L2667.88,1252.033z"/>
	<path fill="#F8FCFF" d="M389.527,837.319c0,0,16.76-31.35,56.839-27.866c0,0,58.188-52.25,120.237-6.967
		c0,0,65.958-11.22,114.805,9.715c32.568,13.958,43.325,28.601,43.325,28.601L389.527,837.319z"/>
	<path fill="#F8FCFF" d="M1014.959,567.142c0,0,13.879-29.813,47.068-26.5c0,0,48.185-49.691,99.567-6.625
		c0,0,54.62-10.67,95.07,9.239c26.969,13.274,35.877,27.199,35.877,27.199L1014.959,567.142z"/>
	<g>
		<g>
			<g>
				<polygon fill="#1D3F77" points="430.73,1487.435 470.34,1486.941 562.85,1101.464 523.239,1101.957 				"/>
				<path fill="#1D3F77" d="M365.292,1496.013h177.63l0,0c0-10.393-8.425-18.817-18.817-18.817H384.109
					C373.717,1477.195,365.292,1485.62,365.292,1496.013L365.292,1496.013z"/>
			</g>
			<polygon fill="#1D3F77" points="775.623,1317.536 758.562,1231.999 758.562,1231.999 758.525,1231.818 701.749,947.166 
				149.886,947.245 223.761,1317.616 328.585,1317.601 328.585,1317.601 329.57,1317.601 446.883,1317.584 447.241,1317.584 
				447.241,1317.584 564.04,1317.567 564.841,1317.566 564.841,1317.566 681.385,1317.55 681.385,1317.55 682.441,1317.55 
				682.441,1317.55 			"/>
			<g>
				<polygon fill="#2A4E96" points="785.075,1310.214 233.213,1310.292 159.338,947.244 711.201,947.166 				"/>
				<g>
					<g>
						<polygon fill="#C0D8FB" points="339.093,1310.277 338.037,1310.277 264.361,948.205 265.417,948.205 						"/>
					</g>
					<g>
						<polygon fill="#C0D8FB" points="456.693,1310.261 455.637,1310.261 381.961,948.188 383.017,948.188 						"/>
					</g>
					<g>
						<polygon fill="#C0D8FB" points="574.293,1310.244 573.237,1310.244 499.561,948.172 500.617,948.172 						"/>
					</g>
					<g>
						<polygon fill="#C0D8FB" points="691.893,1310.228 690.837,1310.228 617.161,948.155 618.217,948.155 						"/>
					</g>
					<g>
						<polygon fill="#C0D8FB" points="728.733,1033.325 176.871,1033.403 176.669,1032.412 728.531,1032.334 						"/>
					</g>
					<g>
						<polygon fill="#C0D8FB" points="748.374,1129.848 196.511,1129.926 196.31,1128.934 748.172,1128.855 						"/>
					</g>
					<g>
						<polygon fill="#C0D8FB" points="768.014,1226.368 216.152,1226.446 215.95,1225.454 767.812,1225.376 						"/>
					</g>
				</g>
				<g>
					<polygon fill="#C0D8FB" points="284.293,1043.565 270.761,1032.895 279.95,1022.221 293.482,1032.892 					"/>
					<polygon fill="#C0D8FB" points="304.035,1140.583 290.502,1129.912 299.691,1119.238 313.224,1129.909 					"/>
					<polygon fill="#C0D8FB" points="402.421,1043.548 388.889,1032.878 398.078,1022.204 411.61,1032.875 					"/>
					<polygon fill="#C0D8FB" points="422.163,1140.565 408.631,1129.896 417.819,1119.222 431.352,1129.893 					"/>
					<polygon fill="#C0D8FB" points="520.021,1043.531 506.489,1032.861 515.678,1022.188 529.21,1032.858 					"/>
					<polygon fill="#C0D8FB" points="636.565,1043.515 623.033,1032.845 632.222,1022.171 645.754,1032.842 					"/>
					<polygon fill="#C0D8FB" points="323.574,1236.607 310.042,1225.937 319.231,1215.264 332.763,1225.934 					"/>
					<polygon fill="#C0D8FB" points="441.702,1236.591 428.17,1225.92 437.359,1215.247 450.891,1225.917 					"/>
					<polygon fill="#C0D8FB" points="559.302,1236.574 545.77,1225.903 554.959,1215.229 568.491,1225.9 					"/>
					<polygon fill="#C0D8FB" points="675.847,1236.558 662.314,1225.888 671.503,1215.214 685.035,1225.884 					"/>
					<polygon fill="#C0D8FB" points="656.307,1140.533 642.775,1129.862 651.964,1119.188 665.496,1129.859 					"/>
					<polygon fill="#C0D8FB" points="539.763,1140.549 526.23,1129.879 535.419,1119.205 548.952,1129.876 					"/>
				</g>
			</g>
		</g>
	</g>
	<g>
		<g>
			<g>
				<polygon fill="#1D3F77" points="1005.186,1490.124 1032.382,1489.784 1095.896,1225.126 1068.701,1225.465 				"/>
				<path fill="#1D3F77" d="M960.258,1496.013h121.957l0,0c0-7.135-5.785-12.919-12.92-12.919h-96.117
					C966.042,1483.094,960.258,1488.878,960.258,1496.013L960.258,1496.013z"/>
			</g>
			<polygon fill="#1D3F77" points="1241.981,1373.476 1230.267,1314.748 1230.267,1314.748 1230.243,1314.624 1191.261,1119.188 
				812.366,1119.243 863.086,1373.53 935.056,1373.52 935.056,1373.52 935.733,1373.52 1016.276,1373.508 1016.522,1373.508 
				1016.522,1373.508 1096.714,1373.497 1097.263,1373.496 1097.263,1373.496 1177.28,1373.485 1177.28,1373.485 1178.004,1373.485 
				1178.004,1373.484 			"/>
			<g>
				<polygon fill="#2A4E96" points="1248.471,1368.448 869.576,1368.502 818.856,1119.242 1197.75,1119.188 				"/>
				<g>
					<g>
						<polygon fill="#C0D8FB" points="942.271,1368.491 941.546,1368.492 890.962,1119.902 891.687,1119.902 						"/>
					</g>
					<g>
						<polygon fill="#C0D8FB" points="1023.012,1368.48 1022.287,1368.48 971.703,1119.891 972.428,1119.891 						"/>
					</g>
					<g>
						<polygon fill="#C0D8FB" points="1103.753,1368.469 1103.028,1368.469 1052.444,1119.879 1053.169,1119.879 						"/>
					</g>
					<g>
						<polygon fill="#C0D8FB" points="1184.494,1368.457 1183.769,1368.458 1133.185,1119.868 1133.91,1119.868 						"/>
					</g>
					<g>
						<polygon fill="#C0D8FB" points="1209.787,1178.344 830.893,1178.397 830.754,1177.716 1209.649,1177.663 						"/>
					</g>
					<g>
						<polygon fill="#C0D8FB" points="1223.272,1244.613 844.378,1244.667 844.239,1243.985 1223.134,1243.933 						"/>
					</g>
					<g>
						<polygon fill="#C0D8FB" points="1236.757,1310.882 857.862,1310.936 857.724,1310.255 1236.618,1310.201 						"/>
					</g>
				</g>
				<g>
					<polygon fill="#C0D8FB" points="904.646,1185.374 895.356,1178.048 901.665,1170.72 910.956,1178.046 					"/>
					<polygon fill="#C0D8FB" points="918.201,1251.983 908.91,1244.657 915.219,1237.329 924.51,1244.655 					"/>
					<polygon fill="#C0D8FB" points="985.75,1185.362 976.459,1178.036 982.769,1170.708 992.059,1178.034 					"/>
					<polygon fill="#C0D8FB" points="999.304,1251.972 990.014,1244.646 996.322,1237.317 1005.613,1244.644 					"/>
					<polygon fill="#C0D8FB" points="1066.491,1185.351 1057.201,1178.024 1063.509,1170.696 1072.8,1178.022 					"/>
					<polygon fill="#C0D8FB" points="1146.508,1185.34 1137.217,1178.014 1143.526,1170.686 1152.816,1178.012 					"/>
					<polygon fill="#C0D8FB" points="931.616,1317.912 922.325,1310.586 928.634,1303.258 937.925,1310.584 					"/>
					<polygon fill="#C0D8FB" points="1012.72,1317.9 1003.429,1310.574 1009.738,1303.246 1019.028,1310.572 					"/>
					<polygon fill="#C0D8FB" points="1093.461,1317.889 1084.17,1310.563 1090.479,1303.234 1099.77,1310.561 					"/>
					<polygon fill="#C0D8FB" points="1173.477,1317.878 1164.186,1310.552 1170.495,1303.224 1179.786,1310.55 					"/>
					<polygon fill="#C0D8FB" points="1160.062,1251.949 1150.771,1244.623 1157.08,1237.295 1166.371,1244.621 					"/>
					<polygon fill="#C0D8FB" points="1080.045,1251.961 1070.755,1244.635 1077.063,1237.307 1086.354,1244.633 					"/>
				</g>
			</g>
		</g>
	</g>
	<g>
		<path fill="#E8945B" d="M1582.404,1401.184l9.016-1.759c0,0-21.549-85.219-18.594-92.256c2.393-5.84,27.23-10.062,39.404-20.265
			c2.603-2.181,4.573-4.573,5.699-7.317c6.474-15.832-4.081-27.583-4.081-27.583s-22.095,5.066-42.148,13.65
			c-14.283,6.122-27.512,14.073-31.171,23.29C1531.734,1311.25,1582.404,1401.184,1582.404,1401.184z"/>
		<path fill="#415DA5" d="M1557.876,1414.321c0.139-0.886,0.734-1.684,1.604-2.162c2.144-1.181,6.533-2.874,9.819-7.263
			c1.851-2.466,9.488-9.761,9.488-9.761l0.045-0.021c0.197-0.048,1.195-0.035,6.04,1.947c2.504,1.021,5.105-3.678,5.105-3.678
			s0.799,0.318,1.536,1.104c0.59,0.619,1.141,1.535,1.226,2.819c0.122,1.808,1.992,4.743,3.385,6.696
			c0.845,1.184,1.51,2.005,1.51,2.005s0.523,1.02-3.735,2.637l-5.095,1.317c-1.769,0.204-3.142,0.093-4.944,0.343
			c-2.738,0.38-3.714,1.659-3.899,1.943c-0.025,0.038-0.035,0.058-0.035,0.058l-21.646,5.596
			C1557.556,1417.354,1557.667,1415.626,1557.876,1414.321z"/>
		<g id="BPbxa9_1_">
			<g>
				<path fill="#2C3A64" d="M1515.439,1417.722c2.221,0,4.022-1.802,4.022-4.021c0-49.91-40.604-90.519-90.513-90.519
					c-11.527,0-22.75,2.137-33.355,6.348c-2.063,0.816-3.069,3.163-2.252,5.227c0.827,2.053,3.147,3.069,5.227,2.252
					c9.652-3.834,19.875-5.782,30.381-5.782c45.474,0,82.468,36.995,82.468,82.475
					C1511.417,1415.92,1513.219,1417.722,1515.439,1417.722z"/>
			</g>
			<g>
				<g>
					<circle fill="#415DA5" cx="1429.2" cy="1413.694" r="13.403"/>
					<g>
						<g>
							
								<rect x="1407.535" y="1380.224" transform="matrix(-0.3378 0.9412 -0.9412 -0.3378 3227.8987 491.1545)" fill="#415DA5" width="67.257" height="1.818"/>
						</g>
						<g>
							<polygon fill="#415DA5" points="1493.358,1442.245 1494.075,1440.574 1429.796,1412.962 1387.539,1352.595 1386.05,1353.637 
								1428.604,1414.428 1428.841,1414.529 							"/>
						</g>
						<g>
							<path fill="#415DA5" d="M1454.689,1483.497l1.725-0.575c-0.455-1.364-25.308-66.767-26.365-69.55l-0.646-1.7L1389.358,1475
								l1.535,0.972l38.103-60.255C1438.099,1439.672,1454.344,1482.458,1454.689,1483.497z"/>
						</g>
						<g>
							
								<rect x="1428.676" y="1402.109" transform="matrix(-0.9855 0.1695 -0.1695 -0.9855 3146.3354 2537.4556)" fill="#415DA5" width="72.379" height="1.817"/>
						</g>
						<g>
							
								<rect x="1413.297" y="1344.302" transform="matrix(-0.9486 0.3164 -0.3164 -0.9486 3191.541 2236.5005)" fill="#415DA5" width="1.818" height="66.091"/>
						</g>
						<g>
							<polygon fill="#415DA5" points="1429.344,1414.64 1429.61,1414.505 1495.036,1381.338 1494.215,1379.717 1429.056,1412.749 
								1358.927,1400.985 1358.626,1402.778 							"/>
						</g>
						<g>
							<path fill="#415DA5" d="M1402.801,1481.226c0.388-1.14,17.177-42.453,26.577-65.557l36.312,57.124l1.533-0.976
								l-38.201-60.097l-0.663,1.632c-1.096,2.69-26.823,65.923-27.281,67.298L1402.801,1481.226z"/>
						</g>
						<g>
							
								<rect x="1463.502" y="1383.323" transform="matrix(-0.1466 0.9892 -0.9892 -0.1466 3082.6929 178.3551)" fill="#415DA5" width="1.818" height="71.195"/>
						</g>
						<g>
							
								<rect x="1422.58" y="1380.3" transform="matrix(-0.6558 0.7549 -0.7549 -0.6558 3447.5571 1190.5459)" fill="#415DA5" width="59.582" height="1.817"/>
						</g>
						<g>
							
								<rect x="1428.745" y="1418.58" transform="matrix(-0.9966 0.0827 -0.0827 -0.9966 2974.5068 2780.0066)" fill="#415DA5" width="1.818" height="66.105"/>
						</g>
						<g>
							
								<rect x="1363.384" y="1430.733" transform="matrix(-0.8218 0.5698 -0.5698 -0.8218 3368.5537 1809.615)" fill="#415DA5" width="75.746" height="1.817"/>
						</g>
						<g>
							<polygon fill="#415DA5" points="1480.805,1462.495 1482.095,1461.216 1430.108,1408.777 1430.108,1340.545 
								1428.291,1340.545 1428.291,1409.525 							"/>
						</g>
					</g>
				</g>
				<g>
					<path fill="#202E51" d="M1493.01,1367.844c-1.449-2.01-3-3.96-4.63-5.82c-6.2-7.09-13.649-13.06-22-17.56
						c-3.64-1.971-7.45-3.65-11.399-5.021c-8.08-2.819-16.75-4.35-25.78-4.35c-2.8,0-5.57,0.149-8.29,0.439h-0.01
						c-16.311,1.721-31.15,8.45-42.94,18.601l-0.01,0.01c-16.73,14.43-27.35,35.77-27.35,59.55c0,7.2,0.99,14.34,2.91,21.21
						c1.721,6.181,4.21,12.15,7.42,17.75c0.091,0.181,0.2,0.351,0.301,0.53c6.8,11.68,16.55,21.479,28.199,28.32
						c9.15,5.38,19.32,8.83,29.841,10.159c0.01,0,0.01,0,0.02,0s0.01,0,0.021,0c3.26,0.421,6.579,0.631,9.89,0.631
						c3.41,0,6.78-0.221,10.08-0.641h0.02c38.601-4.979,68.5-38.029,68.5-77.96C1507.8,1396.594,1502.32,1380.754,1493.01,1367.844z
						 M1491.75,1439.573c-0.22,0.561-0.46,1.12-0.72,1.67c-2.87,6.431-6.72,12.33-11.36,17.521c-0.399,0.46-0.81,0.91-1.229,1.35
						c-3.641,3.851-7.721,7.28-12.17,10.2c-0.5,0.34-1.011,0.66-1.53,0.98c-3.37,2.09-6.94,3.89-10.67,5.369
						c-0.561,0.221-1.13,0.44-1.7,0.65c-6.09,2.22-12.59,3.6-19.35,3.97c-0.61,0.04-1.21,0.061-1.82,0.08
						c-0.67,0.021-1.33,0.03-2,0.03c-8.46,0-16.82-1.58-24.62-4.63c-0.57-0.21-1.13-0.44-1.69-0.67c-2.72-1.16-5.369-2.48-7.93-3.99
						c-0.39-0.229-0.78-0.47-1.17-0.71c-0.52-0.31-1.03-0.63-1.53-0.97c-6.97-4.54-13.05-10.34-17.92-17.061
						c-0.31-0.43-0.62-0.87-0.92-1.31c-0.35-0.5-0.689-1.01-1.01-1.521c-0.62-0.93-1.2-1.87-1.76-2.829
						c-3.311-5.69-5.761-11.83-7.28-18.211c-1.24-5.149-1.87-10.46-1.87-15.8c0-3.51,0.271-6.95,0.78-10.31
						c0.1-0.601,0.2-1.2,0.3-1.79c3.18-17.55,13.15-32.76,27.07-42.811c0.489-0.359,0.989-0.71,1.489-1.05
						c4.11-2.81,8.54-5.17,13.221-7.029c0.569-0.221,1.14-0.431,1.71-0.641c6.95-2.54,14.43-3.96,22.22-4.06
						c0.3-0.011,0.61-0.011,0.91-0.011s0.61,0,0.91,0.011c7.279,0.09,14.29,1.34,20.84,3.569h0.01c0.17,0.061,0.33,0.12,0.5,0.181
						c0.58,0.2,1.141,0.409,1.71,0.62c2.97,1.13,5.84,2.46,8.59,3.97c2.851,1.569,5.57,3.34,8.15,5.29
						c0.49,0.359,0.96,0.729,1.43,1.12c2.53,2.01,4.92,4.21,7.141,6.56c2.17,2.3,4.17,4.76,6,7.35c1.72,2.421,3.29,4.961,4.67,7.61
						c0.29,0.54,0.569,1.08,0.83,1.62c2.04,4.13,3.659,8.5,4.83,13.05c0.14,0.59,0.29,1.181,0.42,1.78
						c1.09,4.82,1.67,9.83,1.67,14.97c0,3.061-0.2,6.08-0.601,9.04c-0.08,0.601-0.17,1.21-0.27,1.8
						C1495.19,1429.773,1493.74,1434.813,1491.75,1439.573z"/>
				</g>
			</g>
			<g>
				
					<rect x="1524.418" y="1348.269" transform="matrix(-0.3045 0.9525 -0.9525 -0.3045 3375.7017 239.9211)" fill="#739CF3" width="151.686" height="8.177"/>
			</g>
			<g>
				<polygon fill="#739CF3" points="1584.939,1426.249 1693.966,1416.769 1491.767,1280.062 1503.334,1303.743 1670.271,1410.62 
					1584.231,1418.103 				"/>
			</g>
			<g>
				<polygon fill="#739CF3" points="1570.245,1419.849 1577.117,1415.416 1493.225,1281.026 1483.456,1291.135 				"/>
			</g>
			<g>
				<path fill="#415DA5" d="M1435.712,1410.091l46.722-99.987l-6.26-2.504c-4.067-1.627-8.684,0.357-10.302,4.429l-37.732,94.973
					L1435.712,1410.091z"/>
			</g>
			<g>
				<path fill="#415DA5" d="M1482.434,1310.104c6.762-17.544,18.046-45.103,17.866-44.833l-6.806-4.534
					c-0.333,0.5-0.553,0.83-18.283,46.837L1482.434,1310.104z"/>
			</g>
			<circle fill="#415DA5" cx="1514.919" cy="1270.004" r="8.295"/>
			<circle fill="#415DA5" cx="1483.517" cy="1248.285" r="8.295"/>
			<g>
				<polygon fill="#415DA5" points="1482.158,1256.072 1513.842,1276.234 1518.235,1267.581 1486.552,1247.419 				"/>
			</g>
			<path fill="#415DA5" d="M1534.305,1445.499h17.72c2.082,0,3.786-1.704,3.786-3.786l0,0c0-2.083-1.704-3.786-3.786-3.786h-17.72
				c-2.082,0-3.786,1.703-3.786,3.786l0,0C1530.519,1443.795,1532.223,1445.499,1534.305,1445.499z"/>
			<g>
				
					<rect x="1540.556" y="1429.673" transform="matrix(-0.91 0.4147 -0.4147 -0.91 3573.5947 2086.6543)" fill="#415DA5" width="39.444" height="3.18"/>
			</g>
			<g>
				<g>
					<circle fill="#415DA5" cx="1682.119" cy="1413.694" r="13.403"/>
					<g>
						<g>
							
								<rect x="1660.454" y="1380.224" transform="matrix(-0.3378 0.9412 -0.9412 -0.3378 3566.2437 253.0991)" fill="#415DA5" width="67.257" height="1.818"/>
						</g>
						<g>
							<polygon fill="#415DA5" points="1746.276,1442.245 1746.994,1440.574 1682.715,1412.962 1640.458,1352.595 
								1638.969,1353.637 1681.522,1414.428 1681.76,1414.529 							"/>
						</g>
						<g>
							<path fill="#415DA5" d="M1707.608,1483.497l1.725-0.575c-0.456-1.364-25.308-66.767-26.365-69.55l-0.646-1.7L1642.276,1475
								l1.536,0.972l38.103-60.255C1691.018,1439.672,1707.263,1482.458,1707.608,1483.497z"/>
						</g>
						<g>
							
								<rect x="1681.595" y="1402.109" transform="matrix(-0.9855 0.1695 -0.1695 -0.9855 3648.5142 2494.5881)" fill="#415DA5" width="72.379" height="1.817"/>
						</g>
						<g>
							
								<rect x="1666.216" y="1344.302" transform="matrix(-0.9486 0.3164 -0.3164 -0.9486 3684.3862 2156.4797)" fill="#415DA5" width="1.818" height="66.091"/>
						</g>
						<g>
							<polygon fill="#415DA5" points="1682.263,1414.64 1682.529,1414.505 1747.955,1381.338 1747.134,1379.717 1681.975,1412.749 
								1611.846,1400.985 1611.545,1402.778 							"/>
						</g>
						<g>
							<path fill="#415DA5" d="M1655.72,1481.226c0.388-1.14,17.177-42.453,26.577-65.557l36.312,57.124l1.533-0.976l-38.201-60.097
								l-0.664,1.632c-1.095,2.69-26.822,65.923-27.28,67.298L1655.72,1481.226z"/>
						</g>
						<g>
							
								<rect x="1716.421" y="1383.323" transform="matrix(-0.1471 0.9891 -0.9891 -0.1471 3373.4824 -70.9509)" fill="#415DA5" width="1.819" height="71.195"/>
						</g>
						<g>
							
								<rect x="1675.499" y="1380.3" transform="matrix(-0.6558 0.7549 -0.7549 -0.6558 3866.3389 999.6074)" fill="#415DA5" width="59.582" height="1.817"/>
						</g>
						<g>
							
								<rect x="1681.665" y="1418.58" transform="matrix(-0.9966 0.0828 -0.0828 -0.9966 3479.5361 2759.0015)" fill="#415DA5" width="1.817" height="66.105"/>
						</g>
						<g>
							
								<rect x="1616.303" y="1430.733" transform="matrix(-0.8218 0.5698 -0.5698 -0.8218 3829.311 1665.4924)" fill="#415DA5" width="75.746" height="1.817"/>
						</g>
						<g>
							<polygon fill="#415DA5" points="1733.724,1462.495 1735.014,1461.216 1683.027,1408.777 1683.027,1340.545 1681.21,1340.545 
								1681.21,1409.525 							"/>
						</g>
					</g>
				</g>
				<g>
					<path fill="#202E51" d="M1682.12,1335.094c-12.03,0-23.44,2.72-33.64,7.58c-11.5,5.45-21.471,13.63-29.07,23.689
						c-1.98,2.61-3.8,5.36-5.44,8.21c-6.649,11.521-10.449,24.891-10.449,39.12c0,0.91,0.02,1.82,0.05,2.73
						c0.09,2.729,0.33,5.45,0.7,8.149c1.409,10.07,4.75,19.811,9.869,28.61c6.44,11.06,15.54,20.44,26.391,27.21
						c0.6,0.38,1.21,0.75,1.82,1.11c9.079,5.34,19.149,8.77,29.569,10.13c3.37,0.439,6.78,0.66,10.2,0.66
						c3.46,0,6.87-0.221,10.21-0.66c38.53-5.021,68.39-38.061,68.39-77.94C1760.72,1370.354,1725.46,1335.094,1682.12,1335.094z
						 M1744.67,1439.573c-0.22,0.561-0.46,1.12-0.72,1.67c-2.87,6.431-6.72,12.33-11.36,17.521c-0.399,0.46-0.81,0.91-1.229,1.35
						c-3.641,3.851-7.721,7.28-12.17,10.2c-0.5,0.34-1.011,0.66-1.53,0.98c-3.37,2.09-6.94,3.89-10.67,5.369
						c-0.561,0.221-1.13,0.44-1.7,0.65c-6.1,2.22-12.6,3.6-19.36,3.97c-0.6,0.04-1.21,0.061-1.81,0.08c-0.67,0.021-1.33,0.03-2,0.03
						c-8.47,0-16.82-1.58-24.62-4.63c-0.57-0.21-1.13-0.44-1.69-0.67c-2.72-1.16-5.369-2.48-7.93-3.99
						c-0.39-0.229-0.779-0.47-1.17-0.71c-0.52-0.31-1.03-0.63-1.53-0.97c-0.02,0-0.04-0.011-0.05-0.03
						c-7.399-4.83-13.79-11.08-18.79-18.34c-0.35-0.5-0.689-1.01-1.01-1.521c-0.62-0.93-1.2-1.87-1.76-2.829
						c-4.32-7.421-7.17-15.601-8.41-24.08c-0.41-2.69-0.64-5.41-0.71-8.15c-0.021-0.59-0.03-1.19-0.03-1.78
						c0-3.51,0.271-6.95,0.78-10.31c0.1-0.601,0.2-1.2,0.3-1.79c1.37-7.55,3.99-14.67,7.66-21.13c1.57-2.801,3.34-5.471,5.29-7.99
						c4.02-5.22,8.78-9.84,14.12-13.69c0.489-0.359,0.989-0.71,1.489-1.05c4.11-2.81,8.541-5.17,13.221-7.029
						c0.57-0.221,1.14-0.431,1.71-0.641c4.24-1.55,8.649-2.68,13.229-3.35h0.011c2.939-0.431,5.93-0.67,8.979-0.71
						c0.3-0.011,0.61-0.011,0.91-0.011s0.61,0,0.91,0.011c7.47,0.09,14.649,1.409,21.35,3.75c0.58,0.2,1.141,0.409,1.71,0.62
						c6.04,2.289,11.67,5.43,16.74,9.26c0.49,0.359,0.96,0.729,1.43,1.12c7.33,5.84,13.42,13.159,17.811,21.52
						c0.29,0.54,0.569,1.08,0.83,1.62c2.04,4.13,3.659,8.5,4.83,13.05c0.14,0.59,0.29,1.181,0.409,1.78
						c1.101,4.82,1.681,9.83,1.681,14.97c0,3.061-0.2,6.08-0.601,9.04c-0.08,0.601-0.17,1.21-0.27,1.8
						C1748.11,1429.773,1746.66,1434.813,1744.67,1439.573z"/>
				</g>
			</g>
			<g>
				<path fill="#F99746" d="M1618.063,1333.044c1.152,0.405,2.425,0.273,3.47-0.357l0,0c36.777-22.22,87.658-13.87,102.378-10.78
					l0.023,0.005c0.812,0.171,1.574-0.448,1.574-1.277v-2.874c0-2.199-1.607-4.065-3.782-4.389
					c-7.963-1.186-26.564-3.731-36.957-3.776c-0.28-0.001-0.562-0.002-0.841-0.002c-23.279,0-43.384,4.166-59.904,12.4
					c-3.373,1.682-7.283,1.918-10.84,0.669l-4.532-1.593c-2.59-0.91-5.427,0.451-6.336,3.041l0,0
					c-0.588,1.672,0.292,3.504,1.964,4.092L1618.063,1333.044z"/>
			</g>
			<path fill="#F99746" d="M1652.245,1277.05c0,0,1.477-6.701-2.726-7.155c-4.203-0.454-19.537,2.84-23.626,2.385
				c-4.09-0.454-25.443-3.976-29.191-0.341c-3.749,3.635-2.158,6.815,5.338,7.497c7.497,0.682,17.492,1.931,20.332,4.316
				S1645.771,1293.18,1652.245,1277.05z"/>
			<circle fill="#2C3A64" cx="1577.165" cy="1424.599" r="20.445"/>
		</g>
		<path fill="#E8945B" d="M1505.915,1251.299c0,0-6.693-8.492-10.353-7.436c-6.32,1.825-6.836,7.599-6.683,8.776
			s0.079,5.819,2.884,6.812s5.721-0.226,7.017-1.313C1500.076,1257.051,1505.915,1251.299,1505.915,1251.299z"/>
		<path fill="#E8945B" d="M1494.56,1244.441c0,0,0.927,5.277,7.33,7.036c6.403,1.689,46.006-14.976,55.435-19.619
			c5.066-2.533,12.384-16.605,18.013-28.92c1.337-3.025,2.604-5.91,3.729-8.514c2.814-6.544,4.644-11.258,4.644-11.258
			c0-6.474-7.146-3.945-13.619-0.99c-1.971,0.915-12.281-3.444-15.025,1.833c-1.267,2.462-2.948,2.183-4.215,4.927
			c-4.996,11.047-9.569,23.501-10.555,26.456C1538.537,1220.67,1494.56,1244.441,1494.56,1244.441z"/>
		<path fill="#FFB27D" d="M1510.862,1256.246c0,0-6.658-8.359-10.353-7.436c-8.701,2.176-7.53,8.448-7.376,9.626
			c0.153,1.178,0.773,4.971,3.577,5.963c2.805,0.992,5.721-0.227,7.017-1.313
			C1505.023,1261.998,1510.862,1256.246,1510.862,1256.246z"/>
		<path fill="#FFB27D" d="M1587.425,1172.515l-22.595,8.338c-2.886-2.805-5.781-7.264-8.104-11.339
			c-2.883-5.063-4.882-9.536-4.882-9.536l15.785-11.054l4.959-3.474C1572.908,1155.522,1587.425,1172.515,1587.425,1172.515z"/>
		<path fill="#E8945B" d="M1573.782,1150.909c0,0-4.472,13.945-17.057,18.604c-2.883-5.063-4.882-9.536-4.882-9.536l15.785-11.054
			L1573.782,1150.909z"/>
		<path fill="#FFB27D" d="M1544.692,1159.637c0,0,27.94,4.381,30.401-13.061c2.46-17.441,7.724-28.622-10.011-32.157
			c-17.735-3.535-22.147,2.631-24.385,8.252C1538.46,1128.293,1537.488,1158.048,1544.692,1159.637z"/>
		<path fill="#2C3A64" d="M1581.362,1111.241c0,0-1.268,0.258-2.288,1.323c-0.008-0.012-0.014-0.021-0.014-0.021
			c-0.073-3.761-3.766-7.563-3.766-7.563c1.774,2.228,1.198,6.354,1.198,6.354c-5.262-8.998-30.878-1.921-33.279-1.322
			c-2.401,0.598-4.097-3.005-4.097-3.005c-3.792,3.285-5.235,11.325-2.093,16.58c3.145,5.255,13.338,12.983,16.272,11.514
			c2.936-1.471,2.941,1.567,2.788,5.836s7.241,11.442,12.454,12.485c4.199,0.84,4.528-2.034,5.675-3.868
			c0.284-0.455,0.623-0.875,1.021-1.234c5.717-5.163,8.868-15.479,7.588-25.645c-0.509-4.038-2.18-7.431-3.115-9.071
			C1580.083,1112.962,1580.821,1111.753,1581.362,1111.241z"/>
		<path fill="#2C3A64" d="M1571.7,1265.654c0.281,1.267,3.378,11.681,11.399,14.354c5.206,1.76,17.872,6.052,29.131,6.896
			c2.603-2.181,4.573-4.573,5.699-7.317c6.474-15.832-4.081-27.583-4.081-27.583S1591.754,1257.07,1571.7,1265.654z"/>
		<path fill="#FFB27D" d="M1635.159,1228.936c0,0,22.637,26.072,1.851,55.387s-54.634,52.971-56.497,63.425
			c-3.605,20.234-25.154,62.013-35.416,82.682l-8.795-3.371c0,0,16.496-97.965,22.359-109.69
			c5.862-11.726,36.242-66.623,36.242-66.623L1635.159,1228.936z"/>
		<path fill="#5885D6" d="M1550.591,1187.622c2.182,0.703,7.459,2.674,8.866,5.065c1.478,2.393,16.958-4.292,18.787-10.555
			c-4.433-4.854-12.032-9.006-16.465-7.599C1559.176,1175.308,1554.954,1180.866,1550.591,1187.622z"/>
		<path fill="#35488B" d="M1639.718,1236.953c0,0-29.388,20.938-49.031,19.766c0,0-12.899,21.988-15.758,29.245
			c0,0,33.422,16.711,50.793,13.633c0,0,22.648-21.989,21.329-37.381S1639.718,1236.953,1639.718,1236.953z"/>
		<path fill="#739AF0" d="M1559.097,1197.569l7.045,10.035l0.563,1.267l14.637,33.423l7.458,17.028
			c4.996,1.196,14.284,0.352,18.436-1.126c22.657-7.74,32.508-21.25,32.508-21.25c-13.158-34.408-31.383-57.909-35.111-62.061
			c-6.474-7.036-23.432-12.807-23.432-12.807c-4.644,4.785-21.249,13.158-21.249,13.158
			C1556.291,1178.122,1559.097,1197.569,1559.097,1197.569z"/>
		<path fill="#5885D6" d="M1566.704,1208.871l14.637,33.423c11.117-22.445,4.081-55.024,4.081-55.024s-17.873,15.48-18.506,16.677
			C1566.846,1204.157,1566.704,1205.986,1566.704,1208.871z"/>
		<path fill="#FFB27D" d="M1499.508,1249.39c0,0,0.926,5.276,7.329,7.036c6.403,1.688,46.006-14.977,55.435-19.62
			c5.066-2.533,12.384-16.605,18.013-28.919c1.338-3.026,2.604-5.911,3.729-8.515c2.814-6.544,4.645-11.258,4.645-11.258
			c0-6.474-15.27-15.27-21.742-12.313c-1.971,0.915-4.574,4.925-7.318,10.202c-1.267,2.463-2.533,5.137-3.8,7.881
			c-4.996,11.048-9.569,23.502-10.554,26.457C1543.484,1225.618,1499.508,1249.39,1499.508,1249.39z"/>
		<path fill="#739AF0" d="M1555.798,1193.884c5.911,2.674,16.535,7.881,24.486,14.003c1.338-3.026,2.604-5.911,3.729-8.515
			c2.814-6.544,4.645-11.258,4.645-11.258c0-6.474-15.27-15.27-21.742-12.313c-1.971,0.915-4.574,4.925-7.318,10.202
			C1558.331,1188.466,1557.064,1191.14,1555.798,1193.884z"/>
		<g>
			<path fill="#739CF3" d="M1548.558,1438.446h-5.263c-1.764-0.246-3.065-0.696-4.873-0.905c-2.746-0.319-4.01,0.677-4.262,0.905
				c-0.034,0.029-0.049,0.047-0.049,0.047h-22.357c-0.563-0.711-0.022-2.355,0.507-3.566c0.356-0.823,1.133-1.446,2.093-1.691
				c2.371-0.607,7.045-1.148,11.325-4.575c2.408-1.924,11.629-7.075,11.629-7.075l0.049-0.01c0.202,0.003,1.166,0.265,5.36,3.396
				c2.168,1.615,5.863-2.282,5.863-2.282s0.694,0.508,1.212,1.453c0.416,0.746,0.72,1.771,0.479,3.035
				c-0.334,1.781,0.743,5.092,1.603,7.331c0.521,1.356,0.96,2.318,0.96,2.318S1553.085,1437.945,1548.558,1438.446z"/>
			<path fill="#415DA5" d="M1549.792,1424.143c-1.257,0.782-3.909,2.325-5.668,2.527c-2.375,0.275-6.816-5.085-6.816-5.085
				l0.049-0.01c0.202,0.003,1.166,0.265,5.36,3.396c2.168,1.615,5.863-2.282,5.863-2.282S1549.274,1423.197,1549.792,1424.143z"/>
			<path fill="#415DA5" d="M1548.558,1438.446h-5.263c-1.764-0.246-3.065-0.696-4.873-0.905c-2.746-0.319-4.01,0.677-4.262,0.905
				c-0.034,0.029-0.049,0.047-0.049,0.047h-22.357c-0.563-0.711-0.022-2.355,0.507-3.566c0.679-0.534,0.87,2.318,1.245,2.773
				c0.375,0.454,18.238,0.166,19.271-0.498c1.031-0.663,4.126-1.824,8.439-0.912c3.756,0.793,9.289-1.24,10.658-1.781
				c0.521,1.356,0.96,2.318,0.96,2.318S1553.085,1437.945,1548.558,1438.446z"/>
		</g>
	</g>
	<g>
		<g>
			<path fill="#2C3A64" d="M2334.853,1423.463c1.926,0,3.488-1.563,3.488-3.489c0-43.293-35.221-78.518-78.514-78.518
				c-9.998,0-19.733,1.854-28.933,5.506c-1.79,0.709-2.662,2.744-1.954,4.533c0.719,1.781,2.73,2.662,4.534,1.954
				c8.372-3.325,17.24-5.016,26.353-5.016c39.445,0,71.536,32.091,71.536,71.54
				C2331.363,1421.899,2332.926,1423.463,2334.853,1423.463z"/>
		</g>
		<path fill="#E8945B" d="M2397.788,1254.174c0,0-5.319,11.066-12.044,26.404c-7.542,17.196-16.846,39.768-22.388,58.117
			c-2.93,9.706-4.811,18.229-4.815,24.155c-0.003,2.034,7.84,10.294,10.104,13.444c14.29,19.888,33.808,46.446,33.808,46.446
			l5.328-1.338c0,0-7.463-33.217-18.335-49.8c-2.138-3.261-8.16-7.23-7.874-7.589c0.002-0.004,0.004-0.007,0.011-0.011
			c0.938-1.176,3.279-4.124,6.473-8.328c8.813-11.598,24.113-32.731,34.36-52.393c0.638-1.226,1.258-2.445,1.854-3.659
			c5.402-10.973,8.968-21.255,8.618-28.875L2397.788,1254.174z"/>
		<g>
			<path fill="#B84C42" d="M2412.504,1422.688l-3.667,2.319c-1.35,0.584-2.482,0.802-3.846,1.435
				c-2.071,0.959-2.456,2.301-2.518,2.592c-0.008,0.038-0.01,0.058-0.01,0.058l-15.575,9.854c-0.746-0.311-1.189-1.845-1.425-3.032
				c-0.161-0.805,0.068-1.639,0.615-2.255c1.349-1.523,4.336-4.01,5.609-8.596c0.719-2.577,4.573-10.699,4.573-10.699l0.029-0.029
				c0.144-0.087,0.945-0.306,5.428,0.313c2.315,0.317,2.946-4.382,2.946-4.382s0.736,0.094,1.568,0.61
				c0.662,0.404,1.385,1.078,1.848,2.18c0.655,1.551,3.056,3.684,4.77,5.069c1.04,0.839,1.825,1.403,1.825,1.403
				S2415.408,1420.298,2412.504,1422.688z"/>
			<path fill="#AA3E39" d="M2406.233,1410.876c-0.484,1.171-1.563,3.555-2.688,4.49c-1.517,1.263-7.283-1.002-7.283-1.002
				l0.029-0.029c0.144-0.087,0.945-0.306,5.428,0.313c2.315,0.317,2.946-4.382,2.946-4.382S2405.401,1410.359,2406.233,1410.876z"/>
			<path fill="#AA3E39" d="M2412.504,1422.688l-3.667,2.319c-1.35,0.584-2.482,0.802-3.846,1.435
				c-2.071,0.959-2.456,2.301-2.518,2.592c-0.008,0.038-0.01,0.058-0.01,0.058l-15.575,9.854c-0.746-0.311-1.189-1.845-1.425-3.032
				c0.207-0.72,1.762,1.443,2.25,1.636c0.488,0.193,12.788-7.908,13.176-8.886s1.965-3.256,5.426-4.438
				c3.011-1.031,5.852-5.071,6.535-6.101c1.04,0.839,1.825,1.403,1.825,1.403S2415.408,1420.298,2412.504,1422.688z"/>
		</g>
		<g>
			
				<rect x="2342.008" y="1362.24" transform="matrix(-0.3045 0.9525 -0.9525 -0.3045 4445.8779 -514.2823)" fill="#F99746" width="137.367" height="7.406"/>
		</g>
		<g>
			<polygon fill="#F99746" points="2396.817,1432.859 2495.552,1424.273 2312.439,1300.471 2322.915,1321.917 2474.093,1418.705 
				2396.176,1425.481 			"/>
		</g>
		<g>
			<polygon fill="#F99746" points="2383.51,1427.063 2389.733,1423.048 2313.76,1301.345 2304.913,1310.5 			"/>
		</g>
		<path fill="#415DA5" d="M2373.137,1409.708l-13.897,8.023c-1.633,0.942-2.197,3.05-1.254,4.684l0,0
			c0.942,1.633,3.05,2.197,4.684,1.255l13.896-8.023c1.633-0.942,2.197-3.051,1.255-4.684l0,0
			C2376.878,1409.329,2374.77,1408.765,2373.137,1409.708z"/>
		<g>
			<polygon fill="#415DA5" points="2370.383,1414.885 2387.905,1434.274 2389.522,1432.868 2371.999,1413.479 			"/>
		</g>
		<g>
			<path fill="#35488B" d="M2426.813,1348.453c1.044,0.366,2.196,0.247,3.143-0.325l0,0c33.306-20.121,79.383-12.56,92.713-9.762
				l0.022,0.004c0.734,0.154,1.425-0.405,1.425-1.156v-2.604c0-1.99-1.456-3.681-3.426-3.975c-7.21-1.073-24.057-3.379-33.468-3.419
				c-0.254-0.001-0.509-0.002-0.762-0.002c-21.081,0-39.288,3.773-54.249,11.229c-3.055,1.522-6.596,1.737-9.816,0.605l-4.104-1.441
				c-2.345-0.824-4.914,0.408-5.737,2.754l0,0c-0.532,1.514,0.264,3.173,1.778,3.705L2426.813,1348.453z"/>
		</g>
		<path fill="#415DA5" d="M2457.769,1297.744c0,0,1.338-6.068-2.469-6.48c-3.806-0.411-17.691,2.572-21.396,2.16
			c-3.703-0.411-23.041-3.6-26.436-0.309c-3.395,3.292-1.954,6.172,4.835,6.789c6.788,0.617,15.84,1.749,18.412,3.909
			C2433.287,1305.974,2451.905,1312.351,2457.769,1297.744z"/>
		<circle fill="#415DA5" cx="2389.776" cy="1431.364" r="18.516"/>
		<g>
			<g>
				<g>
					<g>
						
							<rect x="2469.595" y="1391.316" transform="matrix(-0.3378 0.9412 -0.9412 -0.3378 4654.7866 -490.7864)" fill="#415DA5" width="60.908" height="1.646"/>
					</g>
					<g>
						<polygon fill="#415DA5" points="2547.317,1447.481 2547.966,1445.97 2489.755,1420.963 2451.486,1366.294 2450.138,1367.238 
							2488.675,1422.291 2488.89,1422.383 						"/>
					</g>
					<g>
						<path fill="#415DA5" d="M2512.299,1484.84l1.561-0.521c-0.411-1.236-22.917-60.464-23.876-62.984l-0.584-1.54l-36.266,57.35
							l1.392,0.88l34.505-54.566C2497.273,1445.151,2511.985,1483.898,2512.299,1484.84z"/>
					</g>
					<g>
						
							<rect x="2488.741" y="1411.135" transform="matrix(-0.9855 0.1695 -0.1695 -0.9855 5245.8594 2376.1162)" fill="#415DA5" width="65.546" height="1.646"/>
					</g>
					<g>
						
							<rect x="2474.814" y="1358.784" transform="matrix(-0.9487 0.3162 -0.3162 -0.9487 5263.3809 1923.2917)" fill="#415DA5" width="1.646" height="59.853"/>
					</g>
					<g>
						<polygon fill="#415DA5" points="2489.345,1422.483 2489.587,1422.36 2548.836,1392.324 2548.092,1390.856 2489.084,1420.771 
							2425.575,1410.117 2425.303,1411.74 						"/>
					</g>
					<g>
						<path fill="#415DA5" d="M2465.308,1482.783c0.352-1.032,15.555-38.446,24.068-59.369l32.884,51.731l1.389-0.883
							l-34.595-54.423l-0.602,1.477c-0.991,2.438-24.29,59.7-24.705,60.945L2465.308,1482.783z"/>
					</g>
					<g>
						
							<rect x="2520.28" y="1394.122" transform="matrix(-0.1472 0.9891 -0.9891 -0.1472 4302.916 -857.4102)" fill="#415DA5" width="1.646" height="64.474"/>
					</g>
					<g>
						
							<rect x="2483.221" y="1391.385" transform="matrix(-0.6558 0.7549 -0.7549 -0.6558 5207.4063 410.1603)" fill="#415DA5" width="53.957" height="1.645"/>
					</g>
					<g>
						
							<rect x="2488.803" y="1426.051" transform="matrix(-0.9966 0.0825 -0.0825 -0.9966 5090.8291 2701.7236)" fill="#415DA5" width="1.646" height="59.865"/>
					</g>
					<g>
						
							<rect x="2429.612" y="1437.057" transform="matrix(-0.8218 0.5698 -0.5698 -0.8218 5308.0059 1215.4592)" fill="#415DA5" width="68.596" height="1.646"/>
					</g>
					<g>
						<polygon fill="#415DA5" points="2535.948,1465.82 2537.116,1464.661 2490.038,1417.174 2490.038,1355.383 2488.392,1355.383 
							2488.392,1417.851 						"/>
					</g>
				</g>
				<circle fill="#2C3A64" cx="2489.215" cy="1421.627" r="12.138"/>
			</g>
			<g>
				<path fill="#202E51" d="M2547.3,1380.533c-12.899-18.189-34.13-30.09-58.09-30.09c-24.01,0-45.279,11.95-58.18,30.21
					c-1.69,2.4-3.24,4.9-4.63,7.51v0.011c-5.341,9.979-8.37,21.359-8.37,33.45c0,0.649,0.01,1.31,0.029,1.96
					c0.061,2.47,0.261,4.93,0.591,7.38c1.22,9.31,4.28,18.3,9.01,26.43c6.16,10.58,14.99,19.44,25.54,25.64
					c8.38,4.931,17.69,8.061,27.32,9.23c0.08,0.02,0.16,0.03,0.25,0.03c2.789,0.34,5.609,0.51,8.439,0.51
					c2.88,0,5.73-0.17,8.52-0.51c0.091-0.011,0.181-0.021,0.261-0.03c20.319-2.51,38.01-13.61,49.31-29.55
					c8.25-11.61,13.101-25.79,13.101-41.09C2560.4,1406.323,2555.55,1392.144,2547.3,1380.533z M2549.729,1431.434
					c-0.539,3.37-1.359,6.64-2.43,9.81c-0.43,1.29-0.909,2.57-1.439,3.82c-0.21,0.51-0.42,1.01-0.65,1.51
					c-2.6,5.82-6.09,11.17-10.3,15.86c-0.36,0.41-0.729,0.82-1.11,1.22c-3.29,3.5-6.99,6.601-11.02,9.24
					c-0.45,0.311-0.91,0.6-1.38,0.89c-3.061,1.891-6.29,3.521-9.671,4.87c-0.51,0.2-1.029,0.391-1.539,0.58
					c-5.521,2.021-11.4,3.26-17.521,3.601c-0.55,0.029-1.1,0.06-1.649,0.069c-0.601,0.021-1.2,0.03-1.811,0.03
					c-7.66,0-15.22-1.43-22.29-4.19c-0.51-0.199-1.02-0.399-1.529-0.619c-2.471-1.04-4.87-2.24-7.19-3.601
					c-0.36-0.21-0.71-0.42-1.06-0.649c-0.471-0.28-0.931-0.57-1.391-0.881c-6.71-4.369-12.51-10.039-17.04-16.63v-0.01
					c-0.33-0.45-0.63-0.899-0.92-1.36c-0.561-0.84-1.09-1.699-1.6-2.569c-4-6.86-6.601-14.45-7.69-22.32
					c-0.34-2.44-0.54-4.899-0.569-7.38c-0.021-0.37-0.021-0.73-0.021-1.1c0-3.17,0.24-6.28,0.71-9.32
					c0.08-0.55,0.17-1.09,0.271-1.63c1.1-6.07,3.1-11.84,5.859-17.16c1.32-2.55,2.81-5,4.47-7.33c3.91-5.5,8.7-10.33,14.181-14.29
					c0.45-0.32,0.899-0.63,1.35-0.939c3.72-2.541,7.729-4.681,11.979-6.36c0.5-0.2,1.011-0.4,1.53-0.59
					c6.29-2.29,13.07-3.58,20.131-3.67c0.27-0.011,0.55-0.011,0.819-0.011c0.28,0,0.55,0,0.83,0.011
					c6.76,0.09,13.26,1.279,19.33,3.39c0.521,0.18,1.04,0.37,1.55,0.57c5.471,2.069,10.56,4.91,15.16,8.38
					c0.44,0.33,0.87,0.67,1.3,1.01c6.641,5.3,12.15,11.93,16.13,19.49c0.261,0.489,0.511,0.979,0.75,1.47
					c1.171,2.38,2.19,4.84,3.04,7.37c0.5,1.46,0.94,2.94,1.32,4.45c0.14,0.529,0.271,1.06,0.39,1.6
					c0.99,4.36,1.511,8.9,1.511,13.561c0,2.77-0.181,5.5-0.551,8.18C2549.9,1430.354,2549.82,1430.894,2549.729,1431.434z"/>
			</g>
			<g>
				<path fill="#B84C42" d="M2549.771,1407.934c-0.12-0.54-0.261-1.07-0.4-1.6c-0.57-2.221-1.26-4.391-2.07-6.511
					c-0.71-1.88-1.51-3.71-2.399-5.5c-0.24-0.5-0.49-0.989-0.75-1.47c-4.04-7.64-9.61-14.35-16.3-19.71
					c-0.431-0.35-0.86-0.689-1.301-1.02c-10.189-7.75-22.82-12.461-36.51-12.75c-0.46-0.021-0.91-0.021-1.37-0.021h-0.279
					c-7.181,0.03-14.081,1.28-20.5,3.54c-0.521,0.18-1.03,0.37-1.54,0.57c-4.381,1.67-8.521,3.819-12.371,6.39
					c-0.459,0.3-0.909,0.61-1.359,0.93c-5.67,3.99-10.65,8.9-14.72,14.511c-1.69,2.319-3.22,4.76-4.57,7.31
					c-2.939,5.48-5.08,11.46-6.26,17.76c-0.11,0.54-0.21,1.091-0.29,1.63c-0.54,3.271-0.811,6.631-0.811,10.051
					c0,0.279,0,0.569,0.01,0.85c0.03,2.5,0.211,4.97,0.53,7.39c1.24,9.45,4.601,18.24,9.58,25.891c0.301,0.46,0.601,0.91,0.92,1.359
					c4.69,6.82,10.7,12.66,17.66,17.171c0.46,0.3,0.931,0.59,1.4,0.869c2.729,1.681,5.59,3.141,8.58,4.391
					c0.51,0.21,1.02,0.41,1.54,0.609c6.979,2.69,14.56,4.17,22.479,4.17c0.84,0,1.67-0.02,2.5-0.05c0.55-0.02,1.101-0.05,1.65-0.09
					c6.27-0.41,12.29-1.75,17.93-3.88c0.521-0.19,1.03-0.39,1.54-0.6c3.46-1.41,6.77-3.12,9.891-5.11c0.46-0.29,0.92-0.59,1.379-0.9
					c4.081-2.739,7.831-5.95,11.141-9.55c0.38-0.4,0.75-0.81,1.109-1.22c4.261-4.851,7.771-10.36,10.371-16.351
					c0.229-0.5,0.439-1,0.64-1.51c0.17-0.399,0.33-0.81,0.479-1.22c1.54-4.05,2.67-8.29,3.351-12.69
					c0.079-0.54,0.159-1.09,0.229-1.63c0.32-2.59,0.49-5.229,0.49-7.899C2551.37,1417.193,2550.82,1412.464,2549.771,1407.934z
					 M2548.15,1431.204c-0.23,1.489-0.521,2.959-0.851,4.409c-0.71,3.05-1.649,6.021-2.8,8.87c-0.21,0.51-0.42,1.01-0.64,1.51
					c-2.47,5.69-5.811,10.931-9.83,15.551c-0.36,0.41-0.73,0.819-1.11,1.229c-3.19,3.47-6.79,6.57-10.72,9.21
					c-0.46,0.311-0.92,0.61-1.38,0.9c-2.97,1.89-6.12,3.52-9.42,4.87c-0.51,0.21-1.021,0.409-1.54,0.6
					c-5.42,2.05-11.21,3.34-17.25,3.72c-0.54,0.051-1.101,0.08-1.65,0.09c-0.76,0.041-1.52,0.051-2.29,0.051
					c-7.59,0-14.85-1.41-21.54-3.99c-0.51-0.19-1.02-0.4-1.529-0.61c-2.851-1.18-5.58-2.58-8.19-4.17
					c-0.47-0.29-0.931-0.58-1.39-0.88c-6.67-4.32-12.431-9.93-16.931-16.47c-0.319-0.45-0.62-0.91-0.92-1.37
					c-4.729-7.29-7.93-15.66-9.14-24.66c-0.32-2.42-0.5-4.89-0.521-7.39c-0.01-0.21-0.01-0.42-0.01-0.63
					c0-3.28,0.26-6.49,0.771-9.631c0.09-0.55,0.18-1.09,0.289-1.63c1.131-5.96,3.141-11.609,5.9-16.81
					c1.34-2.53,2.86-4.96,4.54-7.26c3.891-5.351,8.65-10.04,14.07-13.86c0.45-0.32,0.899-0.63,1.36-0.93
					c3.649-2.431,7.569-4.47,11.72-6.061c0.51-0.2,1.02-0.39,1.54-0.569h0.01c6.17-2.181,12.79-3.381,19.69-3.41h0.279
					c0.46,0,0.92,0.01,1.37,0.02c6.561,0.141,12.86,1.351,18.75,3.44c0.52,0.18,1.03,0.37,1.54,0.58
					c5.25,2.02,10.14,4.77,14.561,8.12c0.439,0.319,0.869,0.66,1.3,1.01c6.45,5.15,11.81,11.6,15.7,18.939
					c0.26,0.49,0.51,0.98,0.75,1.471c1.77,3.58,3.199,7.359,4.229,11.3c0.14,0.53,0.28,1.06,0.4,1.6c0.01,0.03,0.02,0.07,0.029,0.11
					c1.01,4.36,1.54,8.9,1.54,13.57c0,2.55-0.159,5.069-0.47,7.529C2548.3,1430.124,2548.229,1430.663,2548.15,1431.204z"/>
			</g>
		</g>
		<g>
			<g>
				<g>
					<g>
						
							<rect x="2237.468" y="1391.316" transform="matrix(-0.3378 0.9412 -0.9412 -0.3378 4344.2813 -272.2684)" fill="#415DA5" width="60.909" height="1.647"/>
					</g>
					<g>
						<polygon fill="#415DA5" points="2315.188,1447.481 2315.838,1445.97 2257.627,1420.963 2219.358,1366.294 2218.011,1367.238 
							2256.547,1422.291 2256.762,1422.383 						"/>
					</g>
					<g>
						<path fill="#415DA5" d="M2280.171,1484.84l1.562-0.521c-0.413-1.236-22.919-60.464-23.876-62.984l-0.585-1.54l-36.266,57.35
							l1.392,0.88l34.505-54.566C2265.146,1445.151,2279.857,1483.898,2280.171,1484.84z"/>
					</g>
					<g>
						
							<rect x="2256.613" y="1411.135" transform="matrix(-0.9855 0.1695 -0.1695 -0.9855 4784.959 2415.4653)" fill="#415DA5" width="65.547" height="1.646"/>
					</g>
					<g>
						
							<rect x="2242.686" y="1358.784" transform="matrix(-0.9487 0.3162 -0.3162 -0.9487 4811.0371 1996.697)" fill="#415DA5" width="1.646" height="59.853"/>
					</g>
					<g>
						<polygon fill="#415DA5" points="2257.218,1422.483 2257.459,1422.36 2316.708,1392.324 2315.964,1390.856 2256.956,1420.771 
							2193.448,1410.117 2193.175,1411.74 						"/>
					</g>
					<g>
						<path fill="#415DA5" d="M2233.18,1482.783c0.352-1.032,15.556-38.446,24.068-59.369l32.884,51.731l1.389-0.883l-34.595-54.423
							l-0.602,1.477c-0.991,2.438-24.29,59.7-24.705,60.945L2233.18,1482.783z"/>
					</g>
					<g>
						
							<rect x="2288.152" y="1394.122" transform="matrix(-0.1472 0.9891 -0.9891 -0.1472 4036.6299 -627.8091)" fill="#415DA5" width="1.646" height="64.474"/>
					</g>
					<g>
						
							<rect x="2251.093" y="1391.385" transform="matrix(-0.6558 0.7549 -0.7549 -0.6558 4823.0498 585.4028)" fill="#415DA5" width="53.957" height="1.645"/>
					</g>
					<g>
						
							<rect x="2256.676" y="1426.051" transform="matrix(-0.9966 0.0825 -0.0825 -0.9966 4627.4268 2720.7476)" fill="#415DA5" width="1.645" height="59.865"/>
					</g>
					<g>
						
							<rect x="2197.484" y="1437.056" transform="matrix(-0.8218 0.5698 -0.5698 -0.8218 4885.125 1347.7545)" fill="#415DA5" width="68.596" height="1.646"/>
					</g>
					<g>
						<polygon fill="#415DA5" points="2303.82,1465.82 2304.988,1464.661 2257.909,1417.174 2257.909,1355.383 2256.265,1355.383 
							2256.265,1417.851 						"/>
					</g>
				</g>
				<circle fill="#2C3A64" cx="2257.087" cy="1421.627" r="12.138"/>
			</g>
			<g>
				<path fill="#1D2A4C" d="M2294.29,1360.964c-1.85-1.15-3.77-2.21-5.73-3.17c-2.989-1.49-6.109-2.771-9.33-3.82
					c-6.97-2.29-14.409-3.53-22.14-3.53c-10.62,0-20.699,2.34-29.76,6.53c-1.29,0.59-2.57,1.23-3.82,1.9
					c-22.359,12.02-37.6,35.64-37.6,62.75c0,12.59,3.319,24.949,9.62,35.77c6.16,10.58,14.99,19.44,25.54,25.64
					c0.8,0.471,1.62,0.931,2.439,1.36c7.73,4.15,16.181,6.811,24.891,7.87c0.079,0.02,0.159,0.03,0.25,0.03
					c2.79,0.34,5.609,0.51,8.439,0.51c2.88,0,5.73-0.17,8.521-0.51c0.09-0.011,0.18-0.021,0.26-0.03
					c35.12-4.34,62.4-34.36,62.4-70.64C2328.271,1396.004,2314.66,1373.493,2294.29,1360.964z M2317.601,1431.434
					c-0.761,4.75-2.08,9.32-3.881,13.63c-0.199,0.51-0.42,1.01-0.649,1.51c-2.601,5.82-6.08,11.17-10.29,15.86
					c-0.36,0.41-0.73,0.82-1.11,1.22c-3.29,3.5-6.989,6.61-11.02,9.24c-0.46,0.311-0.91,0.6-1.38,0.89
					c-3.051,1.891-6.291,3.521-9.67,4.87c-0.5,0.2-1.011,0.391-1.53,0.58c-5.511,2.021-11.4,3.26-17.521,3.601
					c-0.55,0.029-1.1,0.06-1.649,0.069c-0.601,0.021-1.2,0.03-1.811,0.03c-7.67,0-15.239-1.43-22.3-4.19
					c-0.51-0.199-1.02-0.399-1.52-0.619c-2.471-1.04-4.87-2.24-7.19-3.601c-0.36-0.21-0.71-0.42-1.06-0.649
					c-0.471-0.28-0.931-0.57-1.391-0.881c-0.04-0.02-0.08-0.039-0.12-0.08c-6.67-4.359-12.43-10-16.93-16.55
					c-0.33-0.45-0.64-0.909-0.92-1.37c-0.57-0.84-1.09-1.699-1.601-2.569c-5.419-9.311-8.279-19.96-8.279-30.8
					c0-3.17,0.24-6.28,0.71-9.32c0.08-0.55,0.17-1.09,0.27-1.63c2.881-15.891,11.9-29.67,24.511-38.78
					c0.449-0.32,0.89-0.63,1.35-0.939c0.29-0.2,0.59-0.4,0.89-0.591c3.47-2.29,7.181-4.22,11.091-5.77c0.51-0.2,1.029-0.4,1.54-0.59
					c6.29-2.29,13.069-3.58,20.119-3.67c0.28-0.011,0.55-0.011,0.83-0.011c0.271,0,0.551,0,0.82,0.011
					c6.149,0.079,12.08,1.069,17.67,2.84c0.561,0.17,1.11,0.359,1.66,0.55c0.52,0.18,1.04,0.37,1.55,0.57
					c1.97,0.739,3.891,1.59,5.75,2.52c3.32,1.68,6.47,3.641,9.41,5.86c0.44,0.33,0.87,0.67,1.3,1.01
					c6.641,5.3,12.15,11.93,16.13,19.49c0.261,0.489,0.511,0.979,0.74,1.479c1.85,3.74,3.32,7.69,4.37,11.811
					c0.14,0.529,0.27,1.06,0.39,1.6c0.99,4.36,1.511,8.9,1.511,13.561c0,2.77-0.19,5.5-0.551,8.18
					C2317.771,1430.354,2317.69,1430.894,2317.601,1431.434z"/>
			</g>
			<g>
				<path fill="#B84C42" d="M2317.641,1407.934c-0.12-0.54-0.261-1.07-0.4-1.6c-1.08-4.19-2.58-8.21-4.47-12.011
					c-0.24-0.5-0.49-0.989-0.75-1.47c-4.041-7.64-9.61-14.35-16.301-19.71c-0.43-0.35-0.859-0.689-1.3-1.02
					c-2.989-2.28-6.19-4.29-9.569-6.011c-2.871-1.46-5.86-2.7-8.96-3.71h-0.011c-2.33-0.76-4.71-1.38-7.15-1.85
					c-3.51-0.71-7.129-1.11-10.819-1.18c-0.46-0.021-0.91-0.021-1.37-0.021h-0.28c-1.68,0.01-3.35,0.08-5,0.22
					c-5.38,0.45-10.579,1.58-15.489,3.32c-0.521,0.18-1.041,0.37-1.551,0.57c-3.76,1.43-7.34,3.21-10.71,5.319
					c-0.56,0.341-1.109,0.7-1.659,1.07c-0.46,0.3-0.91,0.61-1.36,0.93c-13.07,9.21-22.48,23.29-25.55,39.58
					c-0.11,0.54-0.211,1.091-0.29,1.63c-0.54,3.271-0.811,6.631-0.811,10.051c0,12.58,3.72,24.3,10.12,34.13
					c0.3,0.46,0.61,0.92,0.92,1.37c4.7,6.819,10.71,12.66,17.67,17.16c0.32,0.209,0.641,0.42,0.96,0.609
					c0.141,0.1,0.29,0.19,0.431,0.271c2.729,1.67,5.6,3.14,8.59,4.38c0.5,0.21,1.01,0.41,1.52,0.609
					c6.98,2.69,14.57,4.17,22.49,4.17c0.84,0,1.68-0.02,2.51-0.05c0.551-0.02,1.101-0.05,1.65-0.09c6.27-0.41,12.29-1.75,17.92-3.88
					c0.521-0.19,1.03-0.39,1.54-0.6c3.46-1.41,6.771-3.12,9.89-5.11c0.46-0.29,0.92-0.59,1.381-0.9
					c4.079-2.739,7.829-5.95,11.14-9.55c0.38-0.4,0.75-0.81,1.11-1.22c4.26-4.851,7.77-10.36,10.379-16.351
					c0.221-0.5,0.431-1,0.631-1.51c1.789-4.41,3.09-9.07,3.83-13.91c0.08-0.54,0.16-1.09,0.229-1.63
					c0.32-2.59,0.49-5.229,0.49-7.899C2319.24,1417.193,2318.69,1412.464,2317.641,1407.934z M2316.021,1431.204
					c-0.721,4.619-1.95,9.069-3.65,13.279c-0.21,0.51-0.42,1.01-0.641,1.51c-2.47,5.69-5.81,10.931-9.829,15.551
					c-0.36,0.41-0.73,0.819-1.11,1.229c-3.189,3.47-6.79,6.57-10.72,9.21c-0.46,0.311-0.92,0.61-1.38,0.9
					c-2.971,1.89-6.12,3.52-9.42,4.87c-0.511,0.21-1.021,0.409-1.541,0.6c-5.42,2.05-11.209,3.34-17.239,3.72
					c-0.54,0.051-1.1,0.08-1.65,0.09c-0.76,0.041-1.53,0.051-2.3,0.051c-7.59,0-14.85-1.41-21.54-3.99
					c-0.51-0.19-1.021-0.4-1.53-0.61c-2.84-1.18-5.579-2.58-8.18-4.17c-0.47-0.29-0.93-0.58-1.39-0.88
					c-0.13-0.08-0.26-0.16-0.391-0.26c-6.51-4.28-12.13-9.8-16.55-16.21c-0.31-0.45-0.62-0.91-0.91-1.37
					c-6.119-9.42-9.68-20.64-9.68-32.68c0-3.28,0.26-6.49,0.771-9.631c0.089-0.55,0.18-1.09,0.29-1.63
					c2.97-15.609,11.989-29.1,24.52-37.92c0.45-0.33,0.9-0.64,1.35-0.939c0.07-0.05,0.141-0.09,0.21-0.13
					c3.591-2.381,7.44-4.37,11.511-5.931c0.51-0.2,1.029-0.39,1.55-0.569c6.17-2.181,12.79-3.381,19.689-3.41h0.28
					c0.46,0,0.92,0.01,1.37,0.02c5.93,0.13,11.649,1.12,17.04,2.87c0.58,0.181,1.14,0.37,1.71,0.57c0.521,0.18,1.03,0.37,1.54,0.58
					c1.92,0.739,3.8,1.58,5.62,2.51c3.149,1.61,6.14,3.479,8.939,5.61c0.44,0.319,0.87,0.66,1.3,1.01
					c6.45,5.15,11.811,11.6,15.7,18.939c0.261,0.49,0.511,0.98,0.75,1.471c1.771,3.58,3.2,7.359,4.23,11.3
					c0.14,0.53,0.28,1.06,0.4,1.6c1.029,4.391,1.569,8.971,1.569,13.681c0,2.55-0.16,5.069-0.47,7.529
					C2316.17,1430.124,2316.101,1430.663,2316.021,1431.204z"/>
			</g>
		</g>
		<path fill="#FFB27D" d="M2441.354,1254.393c0,0,15.056,23.866-3.549,36.993s-81.242,19.404-78.171,21.95
			c9.395,7.788,17.929,19.767,17.479,91.484l-4.641,2.396c0,0-44.668-97.171-41.674-108.75
			C2332.782,1290.8,2397.932,1249.311,2441.354,1254.393z"/>
		<path fill="#35488B" d="M2405.239,1304.056c0,0,37.953-6.288,41.869-19.686c2.925-10.009,3.791-14.092-13.41-46.433
			c0,0-7.187,13.655-44.701,10.493c0,0,0.191,1.772,0.191,4.168c-0.048,3.977-0.671,9.63-3.785,11.259
			c-0.048,0.049-0.144,0.049-0.191,0.097c-4.936,2.252-12.579,6.795-13.729,7.226
			C2371.435,1271.18,2394.507,1275.597,2405.239,1304.056z"/>
		<path fill="#2C3A64" d="M2385.403,1263.857c16.721-4.935,33.056-4.415,42.684-13.407c-14.183-3.642-31.232,2.148-38.898,2.148
			C2389.141,1256.575,2388.518,1262.229,2385.403,1263.857z"/>
		<g>
			<path fill="#B84C42" d="M2383.404,1408.3l-3.911,1.879c-1.409,0.423-2.559,0.509-3.986,0.979c-2.169,0.713-2.706,2-2.801,2.282
				c-0.014,0.036-0.018,0.056-0.018,0.056l-16.613,7.98c-0.704-0.396-0.967-1.971-1.063-3.178c-0.068-0.818,0.258-1.619,0.872-2.168
				c1.517-1.356,4.771-3.479,6.569-7.887c1.013-2.477,5.785-10.096,5.785-10.096l0.031-0.026c0.152-0.069,0.975-0.193,5.354,0.941
				c2.264,0.583,3.436-4.011,3.436-4.011s0.721,0.179,1.487,0.788c0.61,0.479,1.25,1.231,1.582,2.38
				c0.471,1.615,2.607,4.014,4.148,5.588c0.936,0.954,1.65,1.605,1.65,1.605S2386.566,1406.263,2383.404,1408.3z"/>
			<path fill="#AA3E39" d="M2378.548,1395.84c-0.617,1.106-1.966,3.35-3.191,4.147c-1.653,1.079-7.117-1.84-7.117-1.84l0.031-0.026
				c0.152-0.069,0.975-0.193,5.354,0.941c2.264,0.583,3.436-4.011,3.436-4.011S2377.781,1395.23,2378.548,1395.84z"/>
			<path fill="#AA3E39" d="M2383.404,1408.3l-3.911,1.879c-1.409,0.423-2.559,0.509-3.986,0.979c-2.169,0.713-2.706,2-2.801,2.282
				c-0.014,0.036-0.018,0.056-0.018,0.056l-16.613,7.98c-0.704-0.396-0.967-1.971-1.063-3.178c0.289-0.69,1.582,1.639,2.044,1.887
				c0.463,0.248,13.62-6.371,14.118-7.297c0.499-0.926,2.33-3.006,5.904-3.779c3.109-0.674,6.4-4.357,7.199-5.301
				c0.936,0.954,1.65,1.605,1.65,1.605S2386.566,1406.263,2383.404,1408.3z"/>
		</g>
		<path fill="#35488B" d="M2288.989,1329.421c1.059-2.663,3.536-4.316,6.217-4.488c30.729-70.594,31.059-71.147,31.522-71.906
			l4.444,8.803c0.235-0.385-69.497,156.396-69.497,156.396l-6.856-2.798L2288.989,1329.421z"/>
		<circle fill="#415DA5" cx="2353.374" cy="1260.898" r="9.273"/>
		<circle fill="#415DA5" cx="2295.964" cy="1244.668" r="9.273"/>
		<g>
			<polygon fill="#415DA5" points="2297.911,1253.544 2351.903,1267.094 2352.841,1256.188 2298.85,1242.639 			"/>
		</g>
		<path fill="#FFB27D" d="M2350.683,1242.783c0,0-5.085,3.329-8.679,3.18c-3.593-0.149-8.16,1.348-8.16,1.348
			s-4.791,1.422-5.24,7.112c0,0,0.021,1.65,7.562-0.674c1.648-0.509,5.615,0.449,6.962,0c1.348-0.449,5.441-4.873,9.009-4.758
			L2350.683,1242.783z"/>
		<path fill="#E8945B" d="M2323.487,1236.346c0,0-5.085,3.329-8.678,3.179c-3.594-0.149-8.16,1.348-8.16,1.348
			s-4.791,1.423-5.24,7.112c0,0,0.104,2.34,7.561-0.674c2.046-0.827,5.615,0.449,6.963,0s6.285-4.239,9.705-5.179L2323.487,1236.346
			z"/>
		<path fill="#2C3A64" d="M2387.539,1099.839c7.419,1.338,10.861,5.351,15.567,16.781c4.912,11.931-1.036,22.912-5.77,21.481
			c-3.035-0.917-4.1,4.281-4.1,4.281l-28.881-25.229C2364.356,1117.153,2368.567,1098.625,2387.539,1099.839z"/>
		<path fill="#E8945B" d="M2370.625,1168.638c0,0,10.062,5.662,8.877,20c-1.184,14.339-14.343,36.942-24.347,42.553
			c-7.924,4.443-30.844,11.379-30.844,11.379l-0.824-6.224c0,0,18.649-12.177,22.684-16.335
			C2354.827,1211.09,2363.066,1165.17,2370.625,1168.638z"/>
		<path fill="#FFB27D" d="M2371.626,1200.882c0.458,3.231,1.309,6.014,2.361,8.66c0.875,2.215,1.89,4.327,2.933,6.527
			c3.056,6.467,10.255,9.65,10.499,22.083c0.082,4.281,36.258-13.808,36.468-28.781c-0.002-0.04,0.007-0.076,0.013-0.115
			c0.063-0.726,0.161-2.669,0.271-5.239c0.271-6.284,0.626-16.308,0.755-21.382c0.005-0.119,0.005-0.235,0.009-0.347
			c0.053-2.174,0.119-3.746,0.203-4.159c-4.842-20.604-15.982-20.692-19.786-20.628c-0.503,0.008-1.015,0.025-1.521,0.049
			c-2.091,0.096-4.07-0.898-5.274-2.61c-2.129-3.024-4.517-8.232-5.978-15.339l-0.868,0.369l-14.603,6.207
			c0,0,1.35,4.724,2.307,9.236c0.409,1.931,0.744,3.823,0.872,5.293c0.123,1.412-0.697,2.734-2.021,3.243l0,0
			c0,0,0,0.004-0.005,0.015C2378.005,1164.544,2369.294,1184.495,2371.626,1200.882z"/>
		<path fill="#E8945B" d="M2373.987,1209.542c0.875,2.215,1.89,4.327,2.933,6.527c3.056,6.467,10.255,9.65,10.499,22.083
			c0.219,0.022,0.443,0.042,0.67,0.062c26.708,2.087,35.811-28.958,35.811-28.958c0.063-0.726,0.161-2.669,0.271-5.239
			l-48.195,0.079C2375.976,1204.096,2374.981,1206.277,2373.987,1209.542z"/>
		<path fill="#739AF0" d="M2367.208,1194.83c0.134,0.399,0.285,0.797,0.451,1.197c4.629,11.036,14.861,67.83,14.861,67.83
			c0.125-0.071,41.794,2.73,58.311-20.054c0.806,2.408-3.102-11.48-9.188-30.141c-4.569-14.002-6.898-23.879-6.717-31.028
			c0.005-0.119,0.005-0.235,0.009-0.347c-1.064-0.852-2.099-1.639-3.055-2.392c-3.066-2.417-5.35-4.468-5.403-6.993
			c-0.021-0.992,0.05-2.011,0.189-3.026c0.065-0.479,0.145-0.957,0.235-1.432c0.966-5.021,3.241-9.514,3.241-9.514
			c-5.251-2.362-14.791-1.431-14.791-1.431s-3.576,8.003-11.192,12.774c-2.133,1.335-9.751,4.679-13.5,1.198
			c-2.48-2.303-2.553-7.017-2.397-7.51c0.005-0.011,0.005-0.015,0.005-0.015c-8.639,3.021-11.787,5.712-11.787,5.712
			C2371.484,1173.182,2363.634,1184.159,2367.208,1194.83z"/>
		<path fill="#E8945B" d="M2377.106,1146.178c0,0,1.352,4.722,2.307,9.236c8.476-2.025,11.354-10.746,12.297-15.443
			L2377.106,1146.178z"/>
		<path fill="#FFB27D" d="M2375.155,1151.051c0,0,20.24-3.892,17.623-16.459c-2.618-12.567-1.769-21.533-14.802-19.58
			c-13.034,1.954-14.538,7.271-14.685,11.678S2369.823,1151.739,2375.155,1151.051z"/>
		<path fill="#2C3A64" d="M2362.429,1119.578c2.327-4.433,4.856-4.097,6.415-3.237c9.756-8.37,18.736-0.896,18.736-0.896
			c3.237,8.732,10.82,12.535,10.82,12.535s-3.201,3.041-12.133,2.637c-2.729-0.123-5.426-1.479-7.857-3.3
			c4.634,5.031,10.17,8.196,10.17,8.196c-11.104-2.56-18.118-15.789-18.835-17.193c-1,1.364-2.924,4.274-3.171,6.783
			c-0.335,3.41,0.592,10.092-1.375,10.27C2365.199,1135.372,2358.94,1126.225,2362.429,1119.578z"/>
		<path fill="#FFB27D" d="M2350.683,1242.783l1.453,6.208c0,0,33.961-4.638,45.063-11.099c11.101-6.461,27.908-44.442,29.234-60.5
			c0.072-0.852,0.117-1.665,0.135-2.438c0.404-13.866-6.425-16.022-6.425-16.022c-2.733-1.254-6.131,3.433-9.728,10.755
			c-7.548,15.357-15.982,42.315-20.994,50.297C2385.571,1226.112,2350.683,1242.783,2350.683,1242.783z"/>
		<path fill="#739AF0" d="M2410.415,1169.687c9.313-2.195,16.152,5.268,16.152,5.268c0.404-13.866-6.425-16.022-6.425-16.022
			C2417.409,1157.678,2414.012,1162.364,2410.415,1169.687z"/>
		<path fill="#739AF0" d="M2366.479,1169.661c0,0-3.407,3.16-4.712,10.348c0,0,5.035,0.034,7.385,4.949
			C2369.152,1184.958,2371.01,1170.446,2366.479,1169.661z"/>
		<path fill="#2C3A64" d="M2386.141,1104.343c0,0,11.188-13.863,25.296-9.972c14.106,3.892,22.145,20.194,28.7,17.512
			c11.008-4.504,14.063,10.271,9.668,21.023c-3.838,9.39-20.431,12.963-30.475,2.681c-7.32-7.494-17.38-39.514-29.784-28.812
			S2386.141,1104.343,2386.141,1104.343z"/>
	</g>
	<polygon fill="#1D3F77" points="835.542,1317.536 844.994,1310.214 827.933,1310.201 	"/>
	<polygon fill="#1D3F77" points="1301.9,1373.476 1308.39,1368.448 1286.862,1368.448 	"/>
</g>
<g>
</g>
<g>
</g>
<g>
</g>
<g>
</g>
<g>
</g>
<g>
</g>
</svg>
