<?xml version="1.0" encoding="utf-8"?>
<!-- Generator: Adobe Illustrator 16.0.0, SVG Export Plug-In . SVG Version: 6.00 Build 0)  -->
<!DOCTYPE svg PUBLIC "-//W3C//DTD SVG 1.1 Tiny//EN" "http://www.w3.org/Graphics/SVG/1.1/DTD/svg11-tiny.dtd">
<svg version="1.1" baseProfile="tiny" id="Layer_1" xmlns="http://www.w3.org/2000/svg" xmlns:xlink="http://www.w3.org/1999/xlink"
	 x="0px" y="0px" width="511px" height="511px" viewBox="0 0 511 511" xml:space="preserve">
<path fill="#3E9FFF" d="M278.423,38.002l3.188,31.199c2.022,19.811,14.815,36.887,33.398,44.569l0.344,0.143
	c6.716,2.782,13.789,4.193,21.022,4.193c12.418,0,24.528-4.293,34.104-12.093l24.313-19.808l31.005,31.004l-26.044,31.969
	l-15.191,18.647l10.353,21.71c2.284,4.791,4.34,9.75,6.108,14.742l8.032,22.667l23.924,2.444l41.015,4.19v43.85l-31.202,3.188
	c-19.768,2.021-36.813,14.768-44.512,33.275l-0.148,0.355l-0.013,0.031l-0.014,0.032c-7.717,18.594-4.695,39.735,7.882,55.168
	l19.809,24.318l-31.008,31.006l-24.315-19.813c-9.573-7.797-21.684-12.091-34.099-12.091c-7.165,0-14.169,1.384-20.823,4.114
	l-0.217,0.088l-0.164,0.065l-0.162,0.067c-18.58,7.68-31.379,24.758-33.401,44.569l-3.185,31.2h-43.851l-3.185-31.199
	c-2.022-19.81-14.814-36.886-33.385-44.564l-0.034-0.014l-0.034-0.015l-0.335-0.138c-6.701-2.771-13.757-4.175-20.976-4.175
	c-12.418,0-24.529,4.294-34.107,12.096l-24.311,19.808l-31.007-31.007l19.804-24.313c12.59-15.45,15.611-36.593,7.883-55.178
	l-0.013-0.03l-0.013-0.031l-0.134-0.321c-7.693-18.524-24.741-31.283-44.524-33.307l-31.203-3.188v-43.851l31.196-3.187
	c19.774-2.019,36.817-14.761,44.515-33.268l0.117-0.277l0.038-0.09l0.037-0.089c7.713-18.566,4.688-39.694-7.895-55.14
	L87.197,117.21l31.007-31.007l24.32,19.814c9.571,7.795,21.681,12.088,34.097,12.088c7.216,0,14.271-1.404,20.969-4.173l0.24-0.098
	l0.065-0.026l0.065-0.027c18.595-7.684,31.402-24.766,33.424-44.576l3.188-31.203H278.423 M298.919,0.002h-84.842
	c-7.852,0-14.429,5.938-15.224,13.75l-5.271,51.59c-0.601,5.883-4.472,10.979-10.133,13.318l-0.343,0.14
	c-2.106,0.875-4.311,1.304-6.484,1.304c-3.657,0-7.228-1.213-10.101-3.553l-40.207-32.756c-2.827-2.302-6.25-3.438-9.662-3.438
	c-3.934,0-7.852,1.51-10.825,4.482l-59.992,59.992c-5.551,5.552-6.004,14.402-1.044,20.487l32.752,40.207
	c3.735,4.585,4.601,10.94,2.265,16.562l-0.167,0.397c-2.324,5.63-7.423,9.501-13.306,10.102l-51.59,5.271
	c-7.809,0.795-13.747,7.372-13.747,15.224v84.842c0,7.852,5.938,14.428,13.747,15.224l51.594,5.271
	c5.879,0.602,10.979,4.473,13.306,10.113l0.152,0.363c2.347,5.645,1.482,12-2.253,16.584l-32.752,40.207
	c-4.959,6.086-4.507,14.936,1.044,20.487l59.992,59.992c2.973,2.973,6.891,4.482,10.824,4.482c3.412,0,6.835-1.136,9.664-3.438
	l40.203-32.757c2.875-2.342,6.448-3.555,10.104-3.555c2.173,0,4.376,0.428,6.48,1.302l0.378,0.155
	c5.63,2.328,9.501,7.424,10.102,13.307l5.267,51.591c0.799,7.809,7.376,13.75,15.224,13.75h84.846
	c7.848,0,14.425-5.941,15.225-13.75l5.267-51.591c0.601-5.883,4.472-10.979,10.113-13.311l0.366-0.147
	c2.105-0.877,4.311-1.306,6.484-1.306c3.655,0,7.226,1.213,10.101,3.555l40.202,32.757c2.827,2.302,6.251,3.438,9.664,3.438
	c3.935,0,7.853-1.51,10.823-4.482l59.996-59.992c5.548-5.552,6-14.401,1.041-20.487l-32.752-40.207
	c-3.735-4.584-4.597-10.939-2.246-16.604l0.148-0.355c2.327-5.629,7.423-9.5,13.306-10.102l51.591-5.271
	c7.809-0.796,13.746-7.372,13.746-15.224v-84.842c0.004-7.852-5.938-14.429-13.746-15.224l-61.407-6.273
	c-2.219-6.261-4.769-12.413-7.626-18.405l38.99-47.86c4.959-6.085,4.507-14.936-1.045-20.487L407.168,44.84
	c-2.972-2.972-6.89-4.481-10.822-4.481c-3.413,0-6.837,1.137-9.665,3.441l-40.202,32.752c-2.874,2.341-6.444,3.554-10.104,3.554
	c-2.179,0-4.388-0.43-6.501-1.309l-0.358-0.148c-5.63-2.328-9.501-7.423-10.102-13.306l-5.271-51.59
	C313.344,5.939,306.771,0.002,298.919,0.002L298.919,0.002z"/>
<path fill="#3F3F3F" d="M256.502,163.842c-50.542,0-91.665,41.123-91.665,91.665c0,50.542,41.123,91.665,91.665,91.665
	s91.66-41.122,91.66-91.665C348.162,204.964,307.044,163.842,256.502,163.842z M310.354,238.809l-55.037,55.037
	c-2.99,2.986-6.905,4.483-10.823,4.483c-3.914,0-7.833-1.493-10.819-4.483L202.65,262.82c-5.977-5.977-5.977-15.665,0-21.642
	s15.665-5.977,21.641,0l20.207,20.203l44.215-44.215c5.977-5.977,15.664-5.977,21.641,0
	C316.33,223.144,316.33,232.832,310.354,238.809z"/>
</svg>
