<?xml version="1.0" encoding="utf-8"?>
<!-- Generator: Adobe Illustrator 16.0.0, SVG Export Plug-In . SVG Version: 6.00 Build 0)  -->
<!DOCTYPE svg PUBLIC "-//W3C//DTD SVG 1.1//EN" "http://www.w3.org/Graphics/SVG/1.1/DTD/svg11.dtd">
<svg version="1.1" id="Capa_1" xmlns="http://www.w3.org/2000/svg" xmlns:xlink="http://www.w3.org/1999/xlink" x="0px" y="0px"
	 width="512px" height="512px" viewBox="0 0 512 512" enable-background="new 0 0 512 512" xml:space="preserve">
<g>
	<path fill="#3F3F3F" d="M73.835,165.999h-12.5c-6.216,0-11.788,3.834-14.011,9.64c-36.028,94.169,12.362,200.115,108.15,234.106
		V497c0,8.284,6.716,15,15,15h171c8.284,0,15-6.716,15-15v-77h44c8.284,0,15-6.716,15-15v-64h46.1
		c11.965,0,19.129-13.379,12.469-23.339h0.001l-58.871-88.026c-1.048-18.569-4.933-36.717-11.563-54.006
		c-2.225-5.8-7.794-9.629-14.006-9.629h-15.771 M166.036,166h-62.2 M343.836,166h-62.164 M249.194,166h-50.73 M400.476,311
		c-8.284,0-15,6.716-15,15v64h-44c-8.284,0-15,6.716-15,15v77h-141v-83.21c0-6.712-4.459-12.606-10.917-14.435
		C94.713,361.77,47.23,276.927,72.028,196H378.92c3.861,12.596,6.031,25.663,6.464,38.977c0.245,7.554,1.379,4.766,48.114,76.023
		H400.476z"/>
</g>
<path fill="#3E9FFF" d="M358.834,105h-19.429c-0.642-1.646-1.319-3.28-2.033-4.899l13.74-13.74c5.854-5.852,5.858-15.357,0-21.213
	l-42.427-42.426c-5.856-5.857-15.354-5.857-21.213,0l-13.739,13.739c-1.62-0.714-3.253-1.392-4.899-2.034V15c0-8.284-6.716-15-15-15
	h-60c-8.284,0-15,6.716-15,15v19.428c-1.646,0.642-3.28,1.32-4.899,2.033l-13.74-13.739c-5.856-5.857-15.354-5.857-21.213,0
	L96.556,65.147c-5.854,5.852-5.858,15.357,0,21.213l13.74,13.74c-0.713,1.619-1.392,3.253-2.032,4.899H88.835
	c-8.284,0-15,6.716-15,15v46h30.001V135h15.182c6.697,0,12.583-4.439,14.423-10.879c1.952-6.833,4.706-13.47,8.186-19.725
	c3.256-5.855,2.233-13.16-2.503-17.896l-10.746-10.746l21.213-21.213l10.746,10.745c4.735,4.738,12.041,5.76,17.896,2.503
	c6.256-3.479,12.893-6.232,19.725-8.184c6.438-1.839,10.88-7.726,10.88-14.423V30h30v15.183c0,6.698,4.439,12.584,10.881,14.423
	c6.832,1.951,13.468,4.705,19.724,8.184c5.854,3.255,13.159,2.234,17.896-2.503l10.745-10.745l21.214,21.213L308.549,86.5
	c-4.737,4.737-5.759,12.041-2.503,17.896c3.479,6.256,6.231,12.892,8.184,19.724c1.839,6.439,7.726,10.88,14.423,10.88h15.184v31
	h29.998v-46C373.834,111.716,367.117,105,358.834,105z"/>
<path fill="#3F3F3F" d="M223.836,90c-39.217,0-68.449,37.415-57.8,76h115.636C292.235,127.719,263.307,90,223.836,90z"/>
</svg>
