<?xml version="1.0" encoding="utf-8"?>
<!-- Generator: Adobe Illustrator 16.0.0, SVG Export Plug-In . SVG Version: 6.00 Build 0)  -->
<!DOCTYPE svg PUBLIC "-//W3C//DTD SVG 1.1//EN" "http://www.w3.org/Graphics/SVG/1.1/DTD/svg11.dtd">
<svg version="1.1" id="Capa_1" xmlns="http://www.w3.org/2000/svg" xmlns:xlink="http://www.w3.org/1999/xlink" x="0px" y="0px"
	 width="592.202px" height="301.875px" viewBox="0 0 592.202 301.875" enable-background="new 0 0 592.202 301.875"
	 xml:space="preserve">
<g>
	<g>
		<path fill="#8ED8F8" d="M592.202,129.271L592.202,129.271c0-9.958-9.174-18.106-20.385-18.106h-2.421
			c4.522-4.299,7.303-10.06,7.303-16.372l0,0c0-8.098-4.575-15.289-11.537-19.647c8.477-2.194,14.719-9.171,14.719-17.385
			c0-9.958-9.173-18.106-20.384-18.106h-1.078c4.076-4.209,6.552-9.671,6.552-15.625v0C564.971,10.813,552.797,0,537.917,0H350.918
			H228.964h-187C27.085,0,14.91,10.813,14.91,24.029v0c0,10.717,8.006,19.853,18.967,22.925c-2.545,3.021-4.056,6.765-4.056,10.807
			c0,5.091,2.399,9.705,6.241,13.002H31.88c-14.879,0-27.053,10.813-27.053,24.03l0,0c0,7.292,3.71,13.847,9.531,18.263
			c-6.71,2.972-11.35,9.134-11.35,16.214l0,0c0,9.411,8.194,17.201,18.558,18.029c-3.132,3.921-4.984,8.698-4.984,13.845l0,0
			c0,8.769,5.362,16.475,13.314,20.672h-2.842C12.175,181.817,0,192.63,0,205.846c0,11.068,8.541,20.447,20.057,23.205
			c-2.006,3.146-3.165,6.768-3.165,10.623v0.001c0,11.96,11.018,21.745,24.483,21.745h2.572
			c-7.197,3.799-12.049,10.772-12.049,18.708c0,11.96,11.017,21.746,24.482,21.746H243.38h120.447h187
			c13.465,0,24.482-9.786,24.482-21.746s-11.018-21.746-24.482-21.746h-2.572c7.196-3.798,12.049-10.772,12.049-18.707v-0.001
			c0-4.445-1.539-8.578-4.145-12.031c0.592-0.244,1.172-0.506,1.738-0.786c0.646-0.124,1.279-0.276,1.899-0.456h-1.01
			c7.828-4.223,13.086-11.869,13.086-20.555c0-8.769-5.362-16.475-13.314-20.672h2.843c14.88,0,27.054-10.813,27.054-24.029l0,0
			c0-6.123-2.617-11.728-6.9-15.982C587.885,142.081,592.202,136.102,592.202,129.271z"/>
	</g>
	<g>
		<path fill="#4CB8DF" d="M550.827,258.382h-2.571c7.195-3.798,12.048-10.772,12.048-18.707v-0.001
			c0-4.445-1.539-8.578-4.145-12.031c0.592-0.244,1.172-0.506,1.738-0.786c0.646-0.124,1.279-0.276,1.899-0.456h-1.01
			c7.828-4.223,13.086-11.869,13.086-20.555c0-5.995-2.509-11.492-6.636-15.712H6.637C2.511,194.356,0,199.852,0,205.846
			c0,11.068,8.541,20.447,20.057,23.205c-2.006,3.146-3.165,6.768-3.165,10.623v0.001c0,11.96,11.018,21.745,24.483,21.745h2.572
			c-7.197,3.799-12.049,10.772-12.049,18.708c0,11.96,11.017,21.746,24.482,21.746h494.446c13.465,0,24.482-9.786,24.482-21.746
			S564.292,258.382,550.827,258.382z"/>
	</g>
	<path fill="#FFFFFF" d="M498.377,47.692v-2.393h-1.917c-0.049-0.339-0.115-0.671-0.202-0.996l1.764-0.75l-0.936-2.202l-1.765,0.75
		c-0.149-0.245-0.309-0.482-0.481-0.71l1.356-1.356l-1.691-1.692l-1.356,1.356c-0.237-0.179-0.484-0.345-0.74-0.499l0.742-1.768
		l-2.205-0.927l-0.742,1.767c-0.314-0.082-0.636-0.146-0.962-0.193v-1.917h-2.393v1.917c-0.339,0.048-0.672,0.116-0.996,0.202
		l-0.75-1.764l-2.201,0.936l0.749,1.764c-0.244,0.148-0.481,0.309-0.71,0.48l-1.356-1.356l-1.691,1.692l1.356,1.356
		c-0.179,0.237-0.346,0.485-0.498,0.741l-1.769-0.743l-0.927,2.206l1.767,0.742c-0.082,0.314-0.146,0.635-0.192,0.962h-1.918v2.393
		h1.918c0.048,0.339,0.115,0.671,0.201,0.996l-1.763,0.75l0.936,2.202l1.765-0.75c0.148,0.245,0.309,0.482,0.48,0.71l-1.356,1.356
		l1.691,1.692l1.356-1.356c0.237,0.179,0.484,0.345,0.74,0.498l-0.742,1.768l2.206,0.927l0.742-1.767
		c0.313,0.082,0.635,0.146,0.962,0.192v1.917h2.393V54.91c0.338-0.048,0.672-0.115,0.996-0.202l0.749,1.764l2.202-0.937l-0.75-1.764
		c0.245-0.148,0.481-0.309,0.71-0.48l1.356,1.356l1.691-1.692L494.84,51.6c0.18-0.238,0.346-0.485,0.499-0.741l1.768,0.743
		l0.927-2.206l-1.767-0.743c0.082-0.313,0.146-0.635,0.193-0.961H498.377z M488.044,51.343c-2.677,0-4.847-2.17-4.847-4.848
		s2.17-4.848,4.847-4.848c2.678,0,4.849,2.17,4.849,4.848S490.722,51.343,488.044,51.343z"/>
	<path fill="#FFFFFF" d="M137.677,62.781v-2.393h-1.918c-0.048-0.339-0.115-0.671-0.202-0.996l1.764-0.75l-0.936-2.202l-1.765,0.75
		c-0.148-0.245-0.309-0.482-0.48-0.71l1.356-1.356l-1.692-1.692l-1.355,1.356c-0.238-0.179-0.484-0.345-0.741-0.499l0.743-1.767
		l-2.206-0.927l-0.742,1.767c-0.314-0.082-0.635-0.146-0.962-0.192v-1.918h-2.393v1.918c-0.339,0.048-0.671,0.115-0.995,0.202
		l-0.75-1.764l-2.202,0.936l0.75,1.764c-0.245,0.148-0.482,0.309-0.71,0.48l-1.356-1.356l-1.691,1.692l1.355,1.356
		c-0.179,0.237-0.345,0.485-0.498,0.741l-1.768-0.743l-0.927,2.206l1.767,0.743c-0.083,0.313-0.146,0.635-0.193,0.961h-1.917v2.393
		h1.917c0.049,0.339,0.115,0.671,0.202,0.996l-1.764,0.75l0.937,2.202l1.764-0.75c0.148,0.245,0.309,0.482,0.48,0.71l-1.355,1.356
		l1.691,1.691l1.356-1.356c0.237,0.179,0.484,0.345,0.74,0.499l-0.742,1.768l2.205,0.927l0.742-1.767
		c0.314,0.082,0.635,0.146,0.962,0.192v1.918h2.393V70c0.339-0.047,0.672-0.115,0.996-0.202l0.75,1.764l2.202-0.936l-0.75-1.764
		c0.244-0.148,0.481-0.309,0.71-0.48l1.355,1.356l1.692-1.691l-1.356-1.356c0.179-0.237,0.345-0.484,0.499-0.741l1.767,0.743
		l0.928-2.206l-1.768-0.743c0.083-0.313,0.146-0.635,0.193-0.961H137.677z M127.344,66.433c-2.677,0-4.848-2.17-4.848-4.848
		s2.171-4.848,4.848-4.848c2.678,0,4.848,2.17,4.848,4.848S130.021,66.433,127.344,66.433z"/>
	<g>
		<g>
			<g>
				<path fill="#FFFFFF" d="M537.506,126.077c-0.068,0-0.133-0.036-0.17-0.095l-10.465-17.087c-0.177-0.279-0.344-0.569-0.497-0.86
					c-0.942-1.8-1.437-3.813-1.437-5.835c0-6.931,5.638-12.571,12.57-12.571c6.931,0,12.57,5.64,12.57,12.571
					c0,2.392-0.678,4.721-1.959,6.736l-10.443,17.047C537.64,126.041,537.575,126.077,537.506,126.077z M537.508,90.026
					c-6.712,0-12.174,5.461-12.174,12.173c0,1.958,0.479,3.908,1.386,5.638c0.154,0.295,0.316,0.576,0.487,0.848l10.299,16.812
					l10.275-16.772c1.243-1.954,1.899-4.209,1.899-6.525C549.681,95.487,544.22,90.026,537.508,90.026z"/>
			</g>
			<g>
				<circle fill="#4CB8DF" cx="537.508" cy="101.878" r="8"/>
				<path fill="#FFFFFF" d="M537.508,110.077c-4.521,0-8.199-3.678-8.199-8.199s3.678-8.199,8.199-8.199
					c4.521,0,8.198,3.678,8.198,8.199S542.028,110.077,537.508,110.077z M537.508,94.077c-4.302,0-7.802,3.5-7.802,7.801
					c0,4.302,3.5,7.801,7.802,7.801s7.801-3.5,7.801-7.801C545.309,97.577,541.81,94.077,537.508,94.077z"/>
			</g>
		</g>
	</g>
	
		<line fill="none" stroke="#FFFFFF" stroke-width="1.6413" stroke-miterlimit="10" stroke-dasharray="3.6909,4.6136" x1="470.915" y1="80.889" x2="520.29" y2="80.889"/>
	
		<line fill="none" stroke="#FFFFFF" stroke-width="1.6413" stroke-miterlimit="10" stroke-dasharray="3.6909,4.6136" x1="279.861" y1="30.801" x2="329.235" y2="30.801"/>
	
		<line fill="none" stroke="#FFFFFF" stroke-width="1.6413" stroke-miterlimit="10" stroke-dasharray="3.6909,4.6136" x1="111.755" y1="23.801" x2="161.129" y2="23.801"/>
	
		<line fill="none" stroke="#FFFFFF" stroke-width="1.6413" stroke-miterlimit="10" x1="393.644" y1="42.643" x2="438.897" y2="42.643"/>
	
		<line fill="none" stroke="#FFFFFF" stroke-width="1.6413" stroke-miterlimit="10" x1="191.57" y1="56.828" x2="236.824" y2="56.828"/>
	
		<line fill="none" stroke="#FFFFFF" stroke-width="1.6413" stroke-miterlimit="10" x1="44.708" y1="56.828" x2="89.962" y2="56.828"/>
	<g>
		<g>
			
				<circle fill="none" stroke="#FFFFFF" stroke-width="1.3543" stroke-miterlimit="10" stroke-dasharray="2.8036,2.8036" cx="438.995" cy="88.04" r="7.15"/>
		</g>
	</g>
	<g>
		<g>
			
				<circle fill="none" stroke="#FFFFFF" stroke-width="1.3543" stroke-miterlimit="10" stroke-dasharray="2.8036,2.8036" cx="34.377" cy="104.005" r="7.149"/>
		</g>
	</g>
	<g>
		<g>
			
				<circle fill="none" stroke="#FFFFFF" stroke-width="1.3543" stroke-miterlimit="10" stroke-dasharray="2.8036,2.8036" cx="238.893" cy="29.875" r="7.15"/>
		</g>
	</g>
</g>
<line fill="none" stroke="#FFFFFF" stroke-width="1.6413" stroke-miterlimit="10" x1="295.705" y1="272.692" x2="340.958" y2="272.692"/>
<line fill="none" stroke="#FFFFFF" stroke-width="1.6413" stroke-miterlimit="10" x1="494.354" y1="266.372" x2="539.607" y2="266.372"/>
<line fill="none" stroke="#FFFFFF" stroke-width="1.6413" stroke-miterlimit="10" stroke-dasharray="3.6909,4.6136" x1="419.124" y1="279.971" x2="468.498" y2="279.971"/>
<g>
	<g>
		<path fill="#DFF3FD" d="M160.013,67.262c-6.19-0.02-6.312-1.591-11.753-3.367c-6.521-2.129-8.661-1.686-14.645,0.45
			c-1.6,0.571-6.236,0.105-6.702,2.785c-0.467,2.688,4.334,3.585,4.441,5.543c0.248,4.519-5.245,0.94-6.8,2.925
			c-2.501,3.194,3.723,3.941,5.481,3.812c0.037,0.583,0.043,1.08-0.011,1.659c-3.562,0.967-6.657,1.526-5.337,5.947
			c0.76,2.543,3.892,7.205,6.679,5.012c1.637,5.697-6.558,3.071-7.524,7.108c2.766-0.274,7.914-3.985,10.423-5.25
			c3.759-1.894,5.284-4.509,7.563-7.827c0.771,0.805,1.243,3.771,2.249,4.148c2.604,0.98,3.172-2.654,4.863-3.325
			c4.562-1.806,3.997,2.24,7.347,4.095c1.399,0.775,3.256-0.11,4.524,0.542c1.973,1.014,1.686,1.957,3.049,3.632
			c1.666,2.048,5.333,4.352,3.757,7.221c6.766,0.82,1.657,5.362,1.312,8.568c-0.223,2.068,0.702,4.711,0.549,6.872
			c-0.212,2.952-0.57,3.649,0.691,6.308c1.846,3.887,3.875,6.629,5.091,10.723c1.155,3.893,3.121,8.719,6.228,11.274
			c0.747-4.01-3.266-6.25-2.563-10.74c1.522,0.433,3.288,5.854,4.097,7.515c1.132,2.324,1.676,6.135,4.063,8.226
			c2.643,2.316,6.454,1.348,9.278,2.799c1.463,0.752,2.009,2.332,3.373,2.957c1.511,0.693,3.984-0.035,5.215,1.129
			c2.527,2.394,0.401,5.939,5.483,6.682c3.702,0.54,7.037-2.756,5.002,3.149c-1.076,3.12-4.402,4.226-4.977,7.212
			c-0.544,2.82,0.746,7.779,1.816,9.916c1.906,3.808,4.938,9.304,8.938,9.572c1.372,3.403-0.092,6.68-0.396,9.829
			c-0.336,3.465,0.984,7.908-0.079,11.207c-1.327,4.114-2.844,4.368-1.592,9.042c0.461,1.72,1.464,1.28,1.364,3.37
			c-0.063,1.348-2.004,2.832-1.949,4.865c0.093,3.449,5.136,11.383,5.689,7.814c0.782-5.035,2.056-9.026,2.485-10.707
			c0.319-1.255,0.225-4.753,0.987-6.497c0.306-0.698,2.155-2.732,2.698-3.17c3.094-2.486,3.692-2.435,5.79-5.971
			c0.234-0.394,1.88-1.999,1.876-2.484c4.388-2.798,6.275-10.303,9.938-13.213c3.779-3.004,4.638-1.034,5.867-6.422
			c0.806-3.534,0.652-7.173,3.488-9.491c2.161-1.766,8.012-2.806,4.211-7.313c-1.978-2.344-6.159-0.515-9.152-2.156
			c-1.216-0.667-1.86-2.175-3.16-2.707c-1.467-0.601-4.188,0.3-5.439-0.432c-1.789-1.046-0.966-2.261-1.784-3.633
			c-1.754-2.942,0.463-1.506-2.708-3.16c-1.818-0.948-2.611,0.244-4.412-1.454c-1.101-1.038-0.871-3.643-2.338-4.547
			c-2.11-1.303-7.184,0.253-9.501,0.584c-2.063,0.295-2.721-0.037-4.425,1.004c-1.526,0.932,0.351,2.563-2.368,3.079
			c-0.63,0.12-2.393-1.817-3.59-1.824c-1.694-0.009-3.153,0.757-4.425,1.734c-1.326-2.563,1.264-5.801-0.058-7.737
			c-2.234-3.275-4.047,0.769-3.744-4.482c0.161-2.777,2.889-4.969-1.839-2.708c-1.642,0.785-3.355,5.723-6.559,2.707
			c-4.238-3.991,1.582-11.142,4.987-12.877c2.15-1.096,6.089-2.482,8.485-1.124c2.251,1.275,1.468,5.296,4.889,4.555
			c0.135-2.663-0.807-6.946,0.158-9.422c1.323-3.397,4.716-2.569,6.354-4.934c0.948-1.37,0.097-3.356,0.78-4.534
			c0.997-1.718,1.532-1.085,2.707-2.259c1.233-1.233,1.725-0.373,2.707-2.259c0.582-1.118,0.455-3.59,0.521-4.885
			c2.623-0.919,5.611-1.13,5.891,2.108c3.949-1.427,1.66-6.358,0.43-8.845c2.882-4.275,6.839-1.414,6.32,2.968
			c2.696,0.968,8.106,1.354,7.075-3.002c-8.056-2.97-0.467-4.338-3.184-10.008c-0.803-1.679-3.558-2.226-4.534-3.942
			c-1.034-1.819-0.71-5.526-1.309-7.727c-2.2,0.367-3.118,2.567-5.725,2.121c-0.282-3.926-5.182-7.784-8.544-3.896
			c-3.356,3.882,0.534,9.487,1.185,12.914c-4.197,0.284-3.387,5.157-7.085,4.072c-0.103-2.034-0.034-4.15-0.137-6.184
			c-5.485-0.296-11.467-1.202-9.863-8.645c0.861-3.995,2.428-2.304,5.429-3.601c2.857-1.236,2.456-2.754,4.592-4.437
			c2.409-1.898,4.228,0.005,4.864-4.174c0.468-3.079-0.453-3.863-3.271-4.174c-2.779-0.307-1.488,2.873-4.842-0.317
			c-1.941-1.847-0.816-4.341-4.399-4.897c-1.021,2.065-0.557,4.859-0.183,7.088c-2.859,0.916-12.396-3.307-13.487-1.241
			c-1.063,6.214-5.181,1.268-8.014-0.17c-3.354-1.702-6.875-1.595-10.48-2.135c-3.843-0.576-5.807-0.242-9.582,0.353
			c-3.539,0.557-3.828-0.364-6.905,0.46L160.013,67.262z"/>
		<path fill="#DFF3FD" d="M255.148,42.776c-2.261,1.405-4.384-1.39-7.131-0.811c-0.529,0.112-1.193,1.852-2.25,2.265
			c-1.104,0.431-2.797,0.53-4.093,0.42c0.386,0.958,0.28,2.575,0.764,3.477c-1.021-0.228-2.448,0.348-3.473,0.135
			c-0.128,3.877,0.87,4.457,3.543,5.8c2.985,1.501,4.278,0.196,5.415,4.065c0.41,1.393-0.434,3.136,0.08,4.511
			c0.422,1.126,2.174,1.772,2.518,2.823c0.938,2.872-0.299,4.657-0.79,7.562c-0.599,3.539,0.906,16.853,7.696,12.571
			c2.36-1.488,0.386-6.016,1.884-7.957c1.808-2.343,5.277-1.377,7.947-1.533c1.523-4.895,6.025-3.38,10.383-3.601
			c0.575-1.299,0.748-2.979,0.462-4.378c-0.513-0.122-1.148-0.13-1.668-0.135c0.296-2.542,7.252-3.863,2.82-8.057
			c4.869-1.163,5.947-3.219,6.138-7.653c0.139-3.23-1.181-1.84,0.88-4.538c1.458-1.909,4.654-0.753,3.566-4.446
			c-2.234-0.135-5.455,1.257-7.629,0.405c-2.709-1.062-2.508-4.06-4.506-5.347c-3.784-2.438-10.133,1.692-14.362,1.782
			c0.226,4.338-2.478,3.614-4.563,2.797L255.148,42.776z"/>
		<path fill="#DFF3FD" d="M453.775,181.363c-2.319,0.585,0.138-4.465-1.425-5.802c-5.289-0.902-4.966,2.845-8.948,4.559
			c-1.473,0.635-4.979-0.383-5.414-0.143c-2.663,1.469-0.722,3.626-1.82,5.898c-2.105,4.356-6.667,1.832-6.87,8.479
			c-0.131,4.3,2.768,7.738,1.512,12.187c7.263,3.364,11.188-10.111,18.79-2.944c1.043,0.983,0.984,2.981,2.033,3.858
			c1.482,1.238,3.478,0.663,4.761,1.535c3.552,2.413,2.274,5.343,7.223,2.495c4.038-2.324,10.165-10.41,10.473-14.773
			c0.238-3.362-1.91-5.943-4.039-8.226c-2.996-3.213-4.699-5.309-6.67-9.38c-1.894-3.916-2.357-3.683-3.101-1.321
			c-1.049,2.458,0.047,1.8-0.713,4.402c-3.315,1.949-3.171-2.806-4.638-1.452L453.775,181.363z"/>
		<path fill="#DFF3FD" d="M491.242,68.056c-0.672-3.965-5.099-2.405-8.576-2.709c-4.436-0.387-5.373-2.331-8.916-4.174
			c-4.34-2.258-5.29,0.871-9.615,1.453c-3.615,0.486-4.704-2.126-8.004-3.71c-4.297-2.063-5.014,0.088-9.127,1.025
			c-4.239,0.966-7.296-1.091-10.744-2.843c-4.095-2.081-4.889-1.139-9.47-0.217c-2.048,0.412-8.642,1.077-10.505,0.373
			c-1.18-0.446-1.798-1.986-1.851-3.115c-5.492-1.959-11.114,0.903-16.761,0.612c-2.107-1.806-3.461-1.204-6.621-1.204
			c-3.032,0-6.02-3.16-8.728-1.053c-5.04,3.919-12.852-1.125-10.777,7.82c-2.724,0.403-9.453,0.123-10.394-2.562
			c-5.666-0.833-1.94,6.354-3.976,7.956c-2.035,1.603-9.343,0.186-12.197,1.334c-3.425,1.378-14.884,13.029-15.756,7.899
			c9.381-2.99-4.405-10.741-9.421-9.942c-2.341,0.373-7.04,2.336-8.778,3.96c-2.704,2.525-2.414,6.556-4.305,9.591
			c-1.719,2.759-4.975,4.152-4.173,8.015c0.734,3.542,0.755,0.925,2.708,2.708c0.474,0.433,1.312-2.701,1.981-2.02
			c0.846,0.861,1.259,3.409,2.708,3.762c2.185,0.533,1.355-2.121,1.505-3.611c0.412-4.109,1.277-2.973,3.285-6.257
			c1.149-1.88,0.932-3.301,3.497-3.994c1.43,2.356-0.469,5.09,0.105,7.514c0.236,0.998,1.954,0.535,2.276,2.349
			c0.309,1.736-0.424,3.118-1.488,4.424c-4.399,5.402-9.33-0.267-13.791,1.071c-2.068,3.72-3.296,7.688-6.851,10.204
			c-2.52,1.783-4.525,0.296-3.269,4.185c0.778,2.414,4.238,1.158,3.189,4.867c-2.728,1.985-7.033,0.121-8.858,1.5
			c-1.783,1.348-0.539,7.222,1.253,7.967c4.365,1.815,4.254-4.6,6.318-6.117c2.584-1.899,8.143,1.37,7.303-3.656
			c6.626-1.641,4.757,7.298,9.345,7.536c0.195-4.498-0.667-5.559-3.046-8.969c4.492,0.85,6.75,7.396,9.458,9.201
			c2.482,0.226,2.867-2.798,2.752-5.06c5.821,0.561,3.235-7.084,9.535-5.608c4.295,1.007,8.281,6.758,1.232,6.464
			c-2.101-0.087-3.105-2.375-5.543-1.057c-1.602,0.867-2.955,4.519-1.714,5.923c2.444,2.765,11.152-1.724,8.982,5.868
			c-5.097,1.625-8.763,0.537-13.916,0.521c-2.961-0.009-10.486,2.303-10.462-3.524c-1.449-0.801-2.921-0.692-3.983,0.373
			l0.902-0.451c-5.862,5.399-15.648-2.771-18.395,5.541c-0.223,0.673-0.735,4.045-1.006,4.4c-1.394,1.828-2.297,0.704-3.971,1.897
			c-2.167,1.545-3.853,4.787-4.265,7.474c-0.374,2.439-0.366,8.305,0.642,10.832c1.074,2.69,4.901,4.875,6.579,7.325
			c2.295,3.354,2.047,4.879,7.324,3.497c3.546-0.928,5.91-3.378,9.602-1.354c2.92,1.602,2.5,4.566,7.11,2.865
			c1.666,3.354-1.694,6.202,0.091,9.762c0.887,1.767,2.633,2.027,3.059,4.189c0.41,2.084-0.842,3.481-0.901,5.415
			c-0.145,4.617,2.2,5.942,3.962,9.58c1.507,3.111,0.422,6.722,2.47,9.719c3.34,4.888,11.617,0.548,15.337-2.572
			c2.063-1.73,3.781-6.036,4.437-8.025c0.429-1.298,0.384-3.333,0.903-4.661c0.799-2.042,1.085-1.219,2.796-3.026
			c6.306-6.661-5.916-9.795,1.693-16.248c3.381-2.867,6.01-4.317,6.771-9.143c0.798-5.053,0.364-7.522-4.885-7.301
			c-3.67-6.667,15.35-7.863,13.396-16.106c-2.319-0.447-13.848-4.144-7.605-6.836c3.791-1.636,11.056,3.322,14.444,4.862
			c3.798,1.727,3.985,3.842,6.76,6.444c1.807,1.695,3.995,1.389,5.453,3.564c1.211,1.808,1.044,4.978,2.321,7.149
			c1.142,1.943,3.566,4.827,5.462,6.259c1.333-2.964,0.05-6.896,1.312-9.682c1.551-3.424,7.017-2.309,6.297-6.793
			c7.395-1.994,8.479,11.456,12.956,12.05c0.043-1.582,0.09-3.246,0.135-4.827c4.103-1.104,3.866,5.142,7.516,3.451
			c3.566-1.651,0.14-6.901-0.473-8.824c-2.963-9.305,9.486-3.096,12.423-10.495c1.321-3.331,0.46-8.151-1.159-10.734
			c-1.282-2.043-5.813-4.296-5.756-6.848c0.106-4.896,5.51-2.813,7.243-0.474c1.784,2.41,0.895,7.335,4.89,7.141
			c1.217-3.094-1.578-5.723-0.846-8.045c1.015-3.222,6.029-3.4,7.579-6.784c1.258-2.748,0.435-5.911,0.669-8.663
			c0.344-4.043,1.174-4.027-2.81-5.771c-2.789-1.221-6.482-0.839-3.613-5.426c1.616-2.582,5.604-2.945,8.127-3.941
			c3.598-1.421,5.248-1.614,8.938-1.352c1.883,0.134,1.15,1.671,3.372,0.447c1.353-0.745,2.287-4.063,2.665-5.458
			c4.048-1.011,4.514,5.711,3.421,7.967c-1.791,3.698-3.721,3.392-3.951,8.216c-0.174,3.657,1.141,8.781,3.51,3.159
			c0.66-1.567-0.625-3.947,0.193-5.426c1.189-2.15,3.756-1.33,5.324-2.565c3.199-2.519,2.582-5.662,7.124-7.003
			c4.083-1.205,7.313,0.669,8.236-4.867c0.297-1.781-2.027-3.334-0.119-4.646c1.747-1.202,2.609,0.979,4.07,1.487
			c1.656,0.575,1.652,2.039,3.835,0.935C489.742,73.859,491.43,69.164,491.242,68.056z"/>
	</g>
</g>
<g>
	<g>
		<g>
			<rect x="165.37" y="44.31" fill="#2E2E2F" width="17.363" height="15.283"/>
			
				<path fill="none" stroke="#464547" stroke-width="1.0172" stroke-linecap="round" stroke-linejoin="round" stroke-miterlimit="10" d="
				M176.549,81.957c5.403,1.776,17.639,40.082,17.639,40.082"/>
			
				<path fill="none" stroke="#464547" stroke-width="1.0172" stroke-linecap="round" stroke-linejoin="round" stroke-miterlimit="10" d="
				M177.103,82.341c7.725,4.721,39.14,39.697,39.14,39.697"/>
			<g>
				<path fill="#C06915" d="M176.955,55.646v7.723c0,0,10.51,2.403,11.713,11.627c1.203,9.224-5.362,14.39-11.713,14.856
					c-8.865,0.651-13.168-5.747-13.034-11.335c0.023-0.99,0.039-2.01,0.132-2.995c0.038-0.411,0.128-0.683-0.087-1.079
					c-0.195-0.359-0.526-0.646-0.881-0.843c-0.586-0.326-1.256-0.47-1.86-0.758c-0.773-0.369,0.113-0.982,0.499-1.269
					c0.586-0.435,1.321-0.661,2.048-0.664c1.011-0.004,1.998,0.396,2.804,1.006c1.368,1.035,2.032,2.41,2.56,3.993
					c1.732,5.2,4.899,5.503,6.952,5.123c1.805-0.334,4.88-3.529,1.671-8.282c-3.208-4.753-6.818-4.455-8.823-7.412
					c-2.006-2.956-1.404-9.691-1.404-9.691H176.955z"/>
				<path fill="#FAA61A" d="M176.955,55.646v9.995c0,0,10.51,2.403,11.713,11.627c1.203,9.225-5.362,14.39-11.713,14.856
					c-8.865,0.651-13.168-5.747-13.034-11.335c0.087-3.615,0.897-6.004-2.843-7.891c-0.278-0.141-0.228-0.553,0.076-0.625
					c1.756-0.418,5.818-0.58,7.98,5.907c1.732,5.201,4.899,5.503,6.952,5.123c1.805-0.334,4.88-3.529,1.671-8.282
					c-3.208-4.753-6.818-4.455-8.823-7.411c-2.006-2.957-1.404-11.964-1.404-11.964H176.955z"/>
				<path fill="#FFC40C" d="M179.018,77.808c-0.188-0.851-0.583-1.783-1.26-2.786c-2.632-3.898-5.532-4.399-7.598-6.085l-0.938-0.94
					c-0.1-0.123-0.196-0.25-0.288-0.386c-1.251-1.845-1.488-6.045-1.488-8.943c7.102,7.131,14.219,14.248,21.35,21.349
					c-0.089,2.281-0.695,4.254-1.653,5.91C184.432,83.222,181.724,80.516,179.018,77.808z"/>
				<path fill="#FFC40C" d="M164.044,77.181c-0.073-1.738-0.638-3.108-2.966-4.282c-0.278-0.141-0.228-0.553,0.076-0.625
					c1.756-0.418,5.818-0.58,7.98,5.907c1.732,5.201,4.899,5.503,6.952,5.123c0.494-0.092,1.084-0.401,1.613-0.896
					c2.242,2.242,4.483,4.484,6.726,6.726c-1.663,1.384-3.651,2.299-5.696,2.733C173.835,86.971,168.939,82.076,164.044,77.181z"/>
			</g>
			
				<line fill="none" stroke="#464547" stroke-width="1.0172" stroke-linecap="round" stroke-linejoin="round" stroke-miterlimit="10" x1="128.488" y1="122.038" x2="176.549" y2="81.259"/>
			
				<path fill="none" stroke="#464547" stroke-width="1.0172" stroke-linecap="round" stroke-linejoin="round" stroke-miterlimit="10" d="
				M172.365,122.038c0,0,4.15-40.8,4.184-40.779"/>
			<rect x="163.003" y="44.31" fill="#434345" width="17.362" height="15.283"/>
			<g>
				<path fill="#C66B25" d="M182.842,43.749H162.57c-4.467,0-8.089-3.622-8.089-8.089V17.81c0-1.177,0.954-2.131,2.131-2.131h32.188
					c1.177,0,2.13,0.954,2.13,2.131v17.85C190.931,40.127,187.31,43.749,182.842,43.749z"/>
				<path fill="#F7B52E" d="M182.75,45.514h-20.271c-4.468,0-8.09-3.622-8.09-8.089v-17.85c0-1.177,0.954-2.131,2.132-2.131h32.187
					c1.178,0,2.132,0.954,2.132,2.131v17.85C190.84,41.893,187.218,45.514,182.75,45.514z"/>
				<path fill="#BA8421" d="M181.38,44.31h-17.529c-3.863,0-6.995-3.132-6.995-6.995V21.88c0-1.018,0.825-1.843,1.843-1.843h27.833
					c1.019,0,1.843,0.825,1.843,1.843v15.435C188.374,41.178,185.242,44.31,181.38,44.31z"/>
				<path fill="#FDD629" d="M181.38,43.616h-17.529c-3.863,0-6.995-3.132-6.995-6.995V21.186c0-1.018,0.825-1.843,1.843-1.843
					h27.833c1.019,0,1.843,0.825,1.843,1.843v15.435C188.374,40.484,185.242,43.616,181.38,43.616z"/>
				<path fill="#434345" d="M167.227,19.343h-8.528c-1.018,0-1.843,0.825-1.843,1.843v8.528
					C160.313,26.257,163.77,22.8,167.227,19.343z"/>
				<path fill="#434345" d="M163.851,43.616h2.302c7.38-7.376,14.787-14.726,22.222-22.048v-0.382c0-1.018-0.825-1.843-1.843-1.843
					h-8.246c-6.851,6.892-13.68,13.805-20.543,20.683C158.938,42.167,161.224,43.616,163.851,43.616z"/>
				<path fill="#434345" d="M174.052,43.616h7.327c3.863,0,6.995-3.132,6.995-6.995v-7.327
					C183.601,34.067,178.826,38.841,174.052,43.616z"/>
			</g>
			<g>
				<polygon fill="#6A7578" points="174.004,49.877 170.718,49.877 169.075,52.723 170.718,55.568 174.004,55.568 175.646,52.723 
									"/>
				<polygon fill="#909DA0" points="173.82,49.625 170.535,49.625 168.892,52.471 170.535,55.316 173.82,55.316 175.463,52.471 				
					"/>
				<polygon fill="#909DA0" points="173.82,49.625 170.535,49.625 168.892,52.471 170.535,55.316 173.82,55.316 175.463,52.471 				
					"/>
				<circle fill="#AFBBB9" cx="172.177" cy="52.556" r="1.81"/>
				<circle fill="#AFBBB9" cx="172.177" cy="52.556" r="1.81"/>
				<path fill="#788281" d="M173.52,51.345c0.065,0.186,0.102,0.385,0.102,0.593c0,1-0.811,1.81-1.811,1.81
					c-0.532,0-1.011-0.232-1.342-0.599c0.246,0.708,0.917,1.217,1.708,1.217c1,0,1.811-0.811,1.811-1.81
					C173.987,52.089,173.81,51.666,173.52,51.345z"/>
			</g>
		</g>
	</g>
	<g>
		<g>
			<rect x="90.411" y="166.478" fill="#FBC983" width="89.386" height="44.15"/>
			<path fill="#F8B269" d="M137.231,208.794c-21.431-3.205-41.186-20.943-45.064-42.316h-1.756v44.15h46.82V208.794z"/>
			<rect x="135.104" y="166.478" fill="#D18F58" width="44.692" height="44.15"/>
			<path fill="#B57C4B" d="M165.78,199.409c-8.252-3.015-15.411-8.485-21.196-15.036c-4.423-5.009-8.588-11.143-8.93-17.895h-0.55
				v44.15h44.692v-8.997C175.063,201.83,170.272,201.05,165.78,199.409z"/>
			<rect x="107.44" y="166.478" fill="#CE7651" width="9.198" height="9.198"/>
			<g>
				<rect x="137.729" y="200.332" fill="#FFFFFF" width="13.414" height="7.435"/>
				<g>
					
						<line fill="none" stroke="#000000" stroke-width="0.3066" stroke-miterlimit="10" x1="138.61" y1="201.174" x2="138.61" y2="207"/>
					
						<line fill="none" stroke="#000000" stroke-width="0.3066" stroke-miterlimit="10" x1="139.339" y1="201.174" x2="139.339" y2="207"/>
					
						<line fill="none" stroke="#000000" stroke-width="0.3066" stroke-miterlimit="10" x1="140.067" y1="201.174" x2="140.067" y2="207"/>
					
						<line fill="none" stroke="#000000" stroke-width="0.3066" stroke-miterlimit="10" x1="140.796" y1="201.174" x2="140.796" y2="207"/>
					
						<line fill="none" stroke="#000000" stroke-width="0.3066" stroke-miterlimit="10" x1="141.523" y1="201.174" x2="141.523" y2="207"/>
					
						<line fill="none" stroke="#000000" stroke-width="0.3066" stroke-miterlimit="10" x1="142.252" y1="201.174" x2="142.252" y2="207"/>
					
						<line fill="none" stroke="#000000" stroke-width="0.3066" stroke-miterlimit="10" x1="142.979" y1="201.174" x2="142.979" y2="207"/>
					
						<line fill="none" stroke="#000000" stroke-width="0.3066" stroke-miterlimit="10" x1="143.708" y1="201.174" x2="143.708" y2="207"/>
					
						<line fill="none" stroke="#000000" stroke-width="0.3066" stroke-miterlimit="10" x1="144.437" y1="201.174" x2="144.437" y2="207"/>
					
						<line fill="none" stroke="#000000" stroke-width="0.3066" stroke-miterlimit="10" x1="145.164" y1="201.174" x2="145.164" y2="207"/>
					
						<line fill="none" stroke="#000000" stroke-width="0.3066" stroke-miterlimit="10" x1="145.893" y1="201.174" x2="145.893" y2="207"/>
					
						<line fill="none" stroke="#000000" stroke-width="0.3066" stroke-miterlimit="10" x1="146.621" y1="201.174" x2="146.621" y2="207"/>
					
						<line fill="none" stroke="#000000" stroke-width="0.3066" stroke-miterlimit="10" x1="147.349" y1="201.174" x2="147.349" y2="207"/>
					
						<line fill="none" stroke="#000000" stroke-width="0.3066" stroke-miterlimit="10" x1="148.077" y1="201.174" x2="148.077" y2="207"/>
					
						<line fill="none" stroke="#000000" stroke-width="0.3066" stroke-miterlimit="10" x1="148.805" y1="201.174" x2="148.805" y2="207"/>
					
						<line fill="none" stroke="#000000" stroke-width="0.3066" stroke-miterlimit="10" x1="149.533" y1="201.174" x2="149.533" y2="207"/>
					
						<line fill="none" stroke="#000000" stroke-width="0.3066" stroke-miterlimit="10" x1="150.262" y1="201.174" x2="150.262" y2="207"/>
				</g>
			</g>
		</g>
		<g>
			<rect x="127.497" y="122.573" fill="#FBC983" width="89.386" height="44.15"/>
			<path fill="#F8B269" d="M174.317,164.889c-21.43-3.205-41.186-20.943-45.064-42.316h-1.756v44.15h46.82V164.889z"/>
			<rect x="172.19" y="122.573" fill="#D18F58" width="44.692" height="44.15"/>
			<path fill="#B57C4B" d="M202.866,155.503c-8.252-3.015-15.411-8.485-21.196-15.036c-4.423-5.009-8.588-11.143-8.93-17.894h-0.55
				v44.15h44.692v-8.996C212.148,157.924,207.358,157.145,202.866,155.503z"/>
			<rect x="144.526" y="122.573" fill="#CE7651" width="9.198" height="9.198"/>
			<g>
				<rect x="174.815" y="156.426" fill="#FFFFFF" width="13.414" height="7.436"/>
				<g>
					
						<line fill="none" stroke="#000000" stroke-width="0.3066" stroke-miterlimit="10" x1="175.697" y1="157.27" x2="175.697" y2="163.095"/>
					
						<line fill="none" stroke="#000000" stroke-width="0.3066" stroke-miterlimit="10" x1="176.425" y1="157.27" x2="176.425" y2="163.095"/>
					
						<line fill="none" stroke="#000000" stroke-width="0.3066" stroke-miterlimit="10" x1="177.153" y1="157.27" x2="177.153" y2="163.095"/>
					
						<line fill="none" stroke="#000000" stroke-width="0.3066" stroke-miterlimit="10" x1="177.882" y1="157.27" x2="177.882" y2="163.095"/>
					
						<line fill="none" stroke="#000000" stroke-width="0.3066" stroke-miterlimit="10" x1="178.609" y1="157.27" x2="178.609" y2="163.095"/>
					
						<line fill="none" stroke="#000000" stroke-width="0.3066" stroke-miterlimit="10" x1="179.338" y1="157.27" x2="179.338" y2="163.095"/>
					
						<line fill="none" stroke="#000000" stroke-width="0.3066" stroke-miterlimit="10" x1="180.065" y1="157.27" x2="180.065" y2="163.095"/>
					
						<line fill="none" stroke="#000000" stroke-width="0.3066" stroke-miterlimit="10" x1="180.794" y1="157.27" x2="180.794" y2="163.095"/>
					
						<line fill="none" stroke="#000000" stroke-width="0.3066" stroke-miterlimit="10" x1="181.522" y1="157.27" x2="181.522" y2="163.095"/>
					
						<line fill="none" stroke="#000000" stroke-width="0.3066" stroke-miterlimit="10" x1="182.25" y1="157.27" x2="182.25" y2="163.095"/>
					
						<line fill="none" stroke="#000000" stroke-width="0.3066" stroke-miterlimit="10" x1="182.979" y1="157.27" x2="182.979" y2="163.095"/>
					
						<line fill="none" stroke="#000000" stroke-width="0.3066" stroke-miterlimit="10" x1="183.707" y1="157.27" x2="183.707" y2="163.095"/>
					
						<line fill="none" stroke="#000000" stroke-width="0.3066" stroke-miterlimit="10" x1="184.435" y1="157.27" x2="184.435" y2="163.095"/>
					
						<line fill="none" stroke="#000000" stroke-width="0.3066" stroke-miterlimit="10" x1="185.163" y1="157.27" x2="185.163" y2="163.095"/>
					
						<line fill="none" stroke="#000000" stroke-width="0.3066" stroke-miterlimit="10" x1="185.892" y1="157.27" x2="185.892" y2="163.095"/>
					
						<line fill="none" stroke="#000000" stroke-width="0.3066" stroke-miterlimit="10" x1="186.619" y1="157.27" x2="186.619" y2="163.095"/>
					
						<line fill="none" stroke="#000000" stroke-width="0.3066" stroke-miterlimit="10" x1="187.348" y1="157.27" x2="187.348" y2="163.095"/>
				</g>
			</g>
		</g>
		<g>
			<rect x="50.525" y="210.628" fill="#DCAB67" width="89.386" height="44.149"/>
			<path fill="#D9974F" d="M97.345,252.945C75.915,249.74,56.159,232,52.281,210.628h-1.756v44.149h46.819V252.945z"/>
			<rect x="95.219" y="210.628" fill="#B67A43" width="44.692" height="44.149"/>
			<path fill="#9A693A" d="M125.895,243.559c-8.252-3.016-15.411-8.486-21.196-15.037c-4.424-5.009-8.588-11.143-8.93-17.894h-0.55
				v44.149h44.692v-8.996C135.177,245.98,130.387,245.2,125.895,243.559z"/>
			<rect x="67.555" y="210.628" fill="#B3633D" width="9.198" height="9.197"/>
			<g>
				<rect x="97.844" y="244.481" fill="#FFFFFF" width="13.413" height="7.436"/>
				<g>
					
						<line fill="none" stroke="#000000" stroke-width="0.3066" stroke-miterlimit="10" x1="98.726" y1="245.325" x2="98.726" y2="251.15"/>
					
						<line fill="none" stroke="#000000" stroke-width="0.3066" stroke-miterlimit="10" x1="99.453" y1="245.325" x2="99.453" y2="251.15"/>
					
						<line fill="none" stroke="#000000" stroke-width="0.3066" stroke-miterlimit="10" x1="100.181" y1="245.325" x2="100.181" y2="251.15"/>
					
						<line fill="none" stroke="#000000" stroke-width="0.3066" stroke-miterlimit="10" x1="100.909" y1="245.325" x2="100.909" y2="251.15"/>
					
						<line fill="none" stroke="#000000" stroke-width="0.3066" stroke-miterlimit="10" x1="101.638" y1="245.325" x2="101.638" y2="251.15"/>
					
						<line fill="none" stroke="#000000" stroke-width="0.3066" stroke-miterlimit="10" x1="102.366" y1="245.325" x2="102.366" y2="251.15"/>
					
						<line fill="none" stroke="#000000" stroke-width="0.3066" stroke-miterlimit="10" x1="103.094" y1="245.325" x2="103.094" y2="251.15"/>
					
						<line fill="none" stroke="#000000" stroke-width="0.3066" stroke-miterlimit="10" x1="103.822" y1="245.325" x2="103.822" y2="251.15"/>
					
						<line fill="none" stroke="#000000" stroke-width="0.3066" stroke-miterlimit="10" x1="104.551" y1="245.325" x2="104.551" y2="251.15"/>
					
						<line fill="none" stroke="#000000" stroke-width="0.3066" stroke-miterlimit="10" x1="105.278" y1="245.325" x2="105.278" y2="251.15"/>
					
						<line fill="none" stroke="#000000" stroke-width="0.3066" stroke-miterlimit="10" x1="106.007" y1="245.325" x2="106.007" y2="251.15"/>
					
						<line fill="none" stroke="#000000" stroke-width="0.3066" stroke-miterlimit="10" x1="106.734" y1="245.325" x2="106.734" y2="251.15"/>
					
						<line fill="none" stroke="#000000" stroke-width="0.3066" stroke-miterlimit="10" x1="107.463" y1="245.325" x2="107.463" y2="251.15"/>
					
						<line fill="none" stroke="#000000" stroke-width="0.3066" stroke-miterlimit="10" x1="108.191" y1="245.325" x2="108.191" y2="251.15"/>
					
						<line fill="none" stroke="#000000" stroke-width="0.3066" stroke-miterlimit="10" x1="108.919" y1="245.325" x2="108.919" y2="251.15"/>
					
						<line fill="none" stroke="#000000" stroke-width="0.3066" stroke-miterlimit="10" x1="109.647" y1="245.325" x2="109.647" y2="251.15"/>
					
						<line fill="none" stroke="#000000" stroke-width="0.3066" stroke-miterlimit="10" x1="110.376" y1="245.325" x2="110.376" y2="251.15"/>
				</g>
			</g>
		</g>
		<g>
			<rect x="139.911" y="210.628" fill="#FBC983" width="76.972" height="44.149"/>
			<path fill="#F8B269" d="M180.229,252.945c-18.454-3.205-35.466-20.944-38.806-42.316h-1.512v44.149h40.317V252.945z"/>
			<rect x="178.397" y="210.628" fill="#D18F58" width="38.485" height="44.149"/>
			<path fill="#B57C4B" d="M204.813,243.559c-7.106-3.016-13.271-8.486-18.253-15.037c-3.81-5.009-7.396-11.143-7.689-17.894h-0.474
				v44.149h38.485v-8.996C212.806,245.98,208.682,245.2,204.813,243.559z"/>
			<rect x="154.575" y="210.628" fill="#CE7651" width="7.92" height="9.197"/>
			<g>
				<rect x="180.657" y="244.481" fill="#FFFFFF" width="11.551" height="7.436"/>
				<g>
					
						<line fill="none" stroke="#000000" stroke-width="0.2845" stroke-miterlimit="10" x1="181.417" y1="245.325" x2="181.417" y2="251.15"/>
					
						<line fill="none" stroke="#000000" stroke-width="0.2845" stroke-miterlimit="10" x1="182.044" y1="245.325" x2="182.044" y2="251.15"/>
					
						<line fill="none" stroke="#000000" stroke-width="0.2845" stroke-miterlimit="10" x1="182.671" y1="245.325" x2="182.671" y2="251.15"/>
					
						<line fill="none" stroke="#000000" stroke-width="0.2845" stroke-miterlimit="10" x1="183.298" y1="245.325" x2="183.298" y2="251.15"/>
					
						<line fill="none" stroke="#000000" stroke-width="0.2845" stroke-miterlimit="10" x1="183.925" y1="245.325" x2="183.925" y2="251.15"/>
					
						<line fill="none" stroke="#000000" stroke-width="0.2845" stroke-miterlimit="10" x1="184.552" y1="245.325" x2="184.552" y2="251.15"/>
					
						<line fill="none" stroke="#000000" stroke-width="0.2845" stroke-miterlimit="10" x1="185.179" y1="245.325" x2="185.179" y2="251.15"/>
					
						<line fill="none" stroke="#000000" stroke-width="0.2845" stroke-miterlimit="10" x1="185.806" y1="245.325" x2="185.806" y2="251.15"/>
					
						<line fill="none" stroke="#000000" stroke-width="0.2845" stroke-miterlimit="10" x1="186.434" y1="245.325" x2="186.434" y2="251.15"/>
					
						<line fill="none" stroke="#000000" stroke-width="0.2845" stroke-miterlimit="10" x1="187.061" y1="245.325" x2="187.061" y2="251.15"/>
					
						<line fill="none" stroke="#000000" stroke-width="0.2845" stroke-miterlimit="10" x1="187.688" y1="245.325" x2="187.688" y2="251.15"/>
					
						<line fill="none" stroke="#000000" stroke-width="0.2845" stroke-miterlimit="10" x1="188.314" y1="245.325" x2="188.314" y2="251.15"/>
					
						<line fill="none" stroke="#000000" stroke-width="0.2845" stroke-miterlimit="10" x1="188.941" y1="245.325" x2="188.941" y2="251.15"/>
					
						<line fill="none" stroke="#000000" stroke-width="0.2845" stroke-miterlimit="10" x1="189.568" y1="245.325" x2="189.568" y2="251.15"/>
					
						<line fill="none" stroke="#000000" stroke-width="0.2845" stroke-miterlimit="10" x1="190.195" y1="245.325" x2="190.195" y2="251.15"/>
					
						<line fill="none" stroke="#000000" stroke-width="0.2845" stroke-miterlimit="10" x1="190.822" y1="245.325" x2="190.822" y2="251.15"/>
					
						<line fill="none" stroke="#000000" stroke-width="0.2845" stroke-miterlimit="10" x1="191.449" y1="245.325" x2="191.449" y2="251.15"/>
				</g>
			</g>
		</g>
		<g>
			<rect x="178.451" y="166.478" fill="#DCAB67" width="72.571" height="44.15"/>
			<path fill="#D9974F" d="M216.464,208.794c-17.398-3.205-33.438-20.943-36.588-42.316h-1.425v44.15h38.013V208.794z"/>
			<rect x="214.736" y="166.478" fill="#B67A43" width="36.286" height="44.15"/>
			<path fill="#9A693A" d="M239.643,199.409c-6.7-3.015-12.512-8.485-17.209-15.036c-3.592-5.009-6.973-11.143-7.25-17.895h-0.447
				v44.15h36.286v-8.997C247.179,201.83,243.29,201.05,239.643,199.409z"/>
			<rect x="192.276" y="166.478" fill="#B3633D" width="7.468" height="9.198"/>
			<g>
				<rect x="216.868" y="200.332" fill="#FFFFFF" width="10.891" height="7.435"/>
				<g>
					
						<line fill="none" stroke="#000000" stroke-width="0.2763" stroke-miterlimit="10" x1="217.584" y1="201.174" x2="217.584" y2="207"/>
					
						<line fill="none" stroke="#000000" stroke-width="0.2763" stroke-miterlimit="10" x1="218.175" y1="201.174" x2="218.175" y2="207"/>
					
						<line fill="none" stroke="#000000" stroke-width="0.2763" stroke-miterlimit="10" x1="218.767" y1="201.174" x2="218.767" y2="207"/>
					
						<line fill="none" stroke="#000000" stroke-width="0.2763" stroke-miterlimit="10" x1="219.357" y1="201.174" x2="219.357" y2="207"/>
					
						<line fill="none" stroke="#000000" stroke-width="0.2763" stroke-miterlimit="10" x1="219.948" y1="201.174" x2="219.948" y2="207"/>
					
						<line fill="none" stroke="#000000" stroke-width="0.2763" stroke-miterlimit="10" x1="220.539" y1="201.174" x2="220.539" y2="207"/>
					
						<line fill="none" stroke="#000000" stroke-width="0.2763" stroke-miterlimit="10" x1="221.131" y1="201.174" x2="221.131" y2="207"/>
					
						<line fill="none" stroke="#000000" stroke-width="0.2763" stroke-miterlimit="10" x1="221.723" y1="201.174" x2="221.723" y2="207"/>
					
						<line fill="none" stroke="#000000" stroke-width="0.2763" stroke-miterlimit="10" x1="222.313" y1="201.174" x2="222.313" y2="207"/>
					
						<line fill="none" stroke="#000000" stroke-width="0.2763" stroke-miterlimit="10" x1="222.904" y1="201.174" x2="222.904" y2="207"/>
					
						<line fill="none" stroke="#000000" stroke-width="0.2763" stroke-miterlimit="10" x1="223.495" y1="201.174" x2="223.495" y2="207"/>
					
						<line fill="none" stroke="#000000" stroke-width="0.2763" stroke-miterlimit="10" x1="224.087" y1="201.174" x2="224.087" y2="207"/>
					
						<line fill="none" stroke="#000000" stroke-width="0.2763" stroke-miterlimit="10" x1="224.678" y1="201.174" x2="224.678" y2="207"/>
					
						<line fill="none" stroke="#000000" stroke-width="0.2763" stroke-miterlimit="10" x1="225.27" y1="201.174" x2="225.27" y2="207"/>
					
						<line fill="none" stroke="#000000" stroke-width="0.2763" stroke-miterlimit="10" x1="225.86" y1="201.174" x2="225.86" y2="207"/>
					
						<line fill="none" stroke="#000000" stroke-width="0.2763" stroke-miterlimit="10" x1="226.451" y1="201.174" x2="226.451" y2="207"/>
					
						<line fill="none" stroke="#000000" stroke-width="0.2763" stroke-miterlimit="10" x1="227.043" y1="201.174" x2="227.043" y2="207"/>
				</g>
			</g>
		</g>
		<g>
			<rect x="216.883" y="210.628" fill="#FBC983" width="76.972" height="44.149"/>
			<path fill="#F8B269" d="M257.201,252.945c-18.454-3.205-35.467-20.944-38.807-42.316h-1.512v44.149h40.318V252.945z"/>
			<rect x="255.369" y="210.628" fill="#D18F58" width="38.485" height="44.149"/>
			<path fill="#B57C4B" d="M281.785,243.559c-7.106-3.016-13.271-8.486-18.253-15.037c-3.81-5.009-7.396-11.143-7.689-17.894h-0.474
				v44.149h38.486v-8.996C289.778,245.98,285.653,245.2,281.785,243.559z"/>
			<rect x="231.547" y="210.628" fill="#CE7651" width="7.921" height="9.197"/>
			<g>
				<rect x="257.63" y="244.481" fill="#FFFFFF" width="11.551" height="7.436"/>
				<g>
					
						<line fill="none" stroke="#000000" stroke-width="0.2845" stroke-miterlimit="10" x1="258.389" y1="245.325" x2="258.389" y2="251.15"/>
					
						<line fill="none" stroke="#000000" stroke-width="0.2845" stroke-miterlimit="10" x1="259.016" y1="245.325" x2="259.016" y2="251.15"/>
					
						<line fill="none" stroke="#000000" stroke-width="0.2845" stroke-miterlimit="10" x1="259.643" y1="245.325" x2="259.643" y2="251.15"/>
					
						<line fill="none" stroke="#000000" stroke-width="0.2845" stroke-miterlimit="10" x1="260.27" y1="245.325" x2="260.27" y2="251.15"/>
					
						<line fill="none" stroke="#000000" stroke-width="0.2845" stroke-miterlimit="10" x1="260.896" y1="245.325" x2="260.896" y2="251.15"/>
					
						<line fill="none" stroke="#000000" stroke-width="0.2845" stroke-miterlimit="10" x1="261.523" y1="245.325" x2="261.523" y2="251.15"/>
					
						<line fill="none" stroke="#000000" stroke-width="0.2845" stroke-miterlimit="10" x1="262.15" y1="245.325" x2="262.15" y2="251.15"/>
					
						<line fill="none" stroke="#000000" stroke-width="0.2845" stroke-miterlimit="10" x1="262.778" y1="245.325" x2="262.778" y2="251.15"/>
					
						<line fill="none" stroke="#000000" stroke-width="0.2845" stroke-miterlimit="10" x1="263.405" y1="245.325" x2="263.405" y2="251.15"/>
					
						<line fill="none" stroke="#000000" stroke-width="0.2845" stroke-miterlimit="10" x1="264.032" y1="245.325" x2="264.032" y2="251.15"/>
					
						<line fill="none" stroke="#000000" stroke-width="0.2845" stroke-miterlimit="10" x1="264.659" y1="245.325" x2="264.659" y2="251.15"/>
					
						<line fill="none" stroke="#000000" stroke-width="0.2845" stroke-miterlimit="10" x1="265.286" y1="245.325" x2="265.286" y2="251.15"/>
					
						<line fill="none" stroke="#000000" stroke-width="0.2845" stroke-miterlimit="10" x1="265.913" y1="245.325" x2="265.913" y2="251.15"/>
					
						<line fill="none" stroke="#000000" stroke-width="0.2845" stroke-miterlimit="10" x1="266.54" y1="245.325" x2="266.54" y2="251.15"/>
					
						<line fill="none" stroke="#000000" stroke-width="0.2845" stroke-miterlimit="10" x1="267.167" y1="245.325" x2="267.167" y2="251.15"/>
					
						<line fill="none" stroke="#000000" stroke-width="0.2845" stroke-miterlimit="10" x1="267.794" y1="245.325" x2="267.794" y2="251.15"/>
					
						<line fill="none" stroke="#000000" stroke-width="0.2845" stroke-miterlimit="10" x1="268.421" y1="245.325" x2="268.421" y2="251.15"/>
				</g>
			</g>
		</g>
	</g>
</g>
<g>
	<g>
		<path fill="#383839" d="M335.981,255.305h-80.554c-5.048,0-9.177-4.129-9.177-9.176V89.726c0-5.047,4.129-9.177,9.177-9.177
			h80.554c5.047,0,9.177,4.129,9.177,9.177v156.404C345.158,251.176,341.028,255.305,335.981,255.305z"/>
		<rect x="251.105" y="99.056" fill="#FFFFFF" width="89.198" height="134.102"/>
		<polygon fill="#C7C8CA" points="337.13,99.056 308.283,99.056 322.707,113.479 		"/>
		<polygon fill="#C7C8CA" points="326.185,116.957 340.304,131.077 340.304,102.836 		"/>
		<polygon fill="#C7C8CA" points="319.229,116.957 301.329,99.056 268.842,99.056 302.986,133.2 		"/>
		<polygon fill="#9CCC4D" points="307.549,105.276 301.329,99.056 268.842,99.056 291.305,121.52 		"/>
		<polygon fill="#C7C8CA" points="340.304,140.786 340.304,138.031 322.707,120.434 306.464,136.677 325.438,155.652 		"/>
		<polygon fill="#C7C8CA" points="328.915,159.128 340.304,170.518 340.304,147.739 		"/>
		<polygon fill="#C7C8CA" points="270.687,165.5 251.105,145.919 251.105,185.082 		"/>
		<path fill="#C7C8CA" d="M293.138,187.952l-18.975-18.975l-21.503,21.504c6.275,6.374,12.565,12.733,18.861,19.087L293.138,187.952
			z"/>
		<path fill="#C7C8CA" d="M274.981,213.062c6.654,6.707,13.316,13.406,19.988,20.096h43.374l-41.729-41.729L274.981,213.062z"/>
		<path fill="#9CCC4D" d="M338.344,233.158l-18.382-18.383c-6.153,6.129-12.31,12.254-18.462,18.383H338.344z"/>
		<path fill="#C7C8CA" d="M268.064,213.024c-5.652-5.702-11.324-11.386-16.959-17.104v34.064L268.064,213.024z"/>
		<path fill="#C7C8CA" d="M254.886,233.158h33.141c-5.515-5.532-10.997-11.097-16.5-16.642L254.886,233.158z"/>
		<path fill="#9CCC4D" d="M268.702,192.642l-6.995,6.995c3.272,3.31,6.538,6.625,9.814,9.931l7.054-7.054L268.702,192.642z"/>
		<path fill="#9CCC4D" d="M279.765,224.826c-2.743-2.772-5.49-5.541-8.238-8.31l-7.848,7.849
			C268.952,227.812,274.856,227.785,279.765,224.826z"/>
		<polygon fill="#C7C8CA" points="299.509,136.677 261.888,99.056 251.105,99.056 251.105,138.965 274.163,162.023 		"/>
		
			<rect x="286.384" y="144.392" transform="matrix(0.7071 0.7071 -0.7071 0.7071 202.5873 -164.4513)" fill="#C7C8CA" width="26.833" height="35.845"/>
		<path fill="#9CCC4D" d="M284.327,126.653c-4.411,4.411-8.822,8.822-13.232,13.233c0.086,0.067,0.173,0.127,0.257,0.21
			c4.121,4.125,8.23,8.261,12.34,12.399l13.239-13.239L284.327,126.653z"/>
		<path fill="#9CCC4D" d="M267.664,143.317l-6.104,6.103l12.603,12.603l6.052-6.051c-4.109-4.138-8.22-8.273-12.341-12.398
			C267.791,143.491,267.731,143.403,267.664,143.317z"/>
		<path fill="#9CCC4D" d="M300.407,142.733l-13.25,13.25c6.304,6.346,12.623,12.677,18.98,18.969l13.244-13.244L300.407,142.733z"/>
		<polygon fill="#C7C8CA" points="300.092,187.952 340.304,228.164 340.304,177.472 325.438,162.606 		"/>
		<path fill="#9CCC4D" d="M300.499,215.967c3.437-3.448,6.866-6.903,10.307-10.349l-14.191-14.19l-10.327,10.328L300.499,215.967z"
			/>
		<path fill="#9CCC4D" d="M311.026,177.017l-10.935,10.935l14.187,14.187c3.639-3.65,7.263-7.316,10.886-10.984L311.026,177.017z"/>
		<rect x="251.105" y="99.056" fill="#C0C2C4" width="89.198" height="3.186"/>
		<path fill="#66CEF6" d="M304.604,247.62h-17.8c-2.002,0-3.64-1.639-3.64-3.641l0,0c0-2.003,1.638-3.641,3.64-3.641h17.8
			c2.002,0,3.641,1.638,3.641,3.641l0,0C308.245,245.981,306.606,247.62,304.604,247.62z"/>
		<g>
			<path fill="#1E4390" d="M340.304,116.838c-2.439,3.458-6.573,6.808-11.754,9.306c-8.726,4.206-21.218,6.178-30.107-0.898
				c-17.626-14.032-46.132-14.193-47.337-14.193v4.854c0.278,0,28,0.15,44.313,13.136c5.189,4.132,11.3,5.737,17.366,5.737
				c6.384,0,12.719-1.779,17.873-4.264c3.75-1.809,7.01-4.016,9.646-6.443V116.838z"/>
		</g>
		<g>
			<path fill="#1E4390" d="M340.304,199.719c-4.317-3.83-10.089-6.363-17.134-4.631c-7.343,1.81-11.255,5.991-14.708,9.68
				c-4.249,4.54-7.606,8.131-16.591,7.584c-8.742-0.528-11.303-8.941-13.966-20.77c-1.502-6.671-2.92-12.971-6.577-16.349
				c-6.998-6.461-15.961-4.76-20.223-3.403v5.159c1.896-0.766,10.766-3.882,16.93,1.812c2.546,2.352,3.804,7.936,5.135,13.848
				c2.383,10.586,5.35,23.761,18.409,24.549c0.699,0.042,1.372,0.063,2.022,0.063c9.818,0,14.179-4.66,18.404-9.176
				c3.281-3.506,6.381-6.817,12.325-8.281c7.482-1.846,12.786,2.741,15.973,7.041V199.719z"/>
		</g>
	</g>
	<g>
		<path fill="#EF4132" d="M282.505,143.719c0-6.189-5.017-11.207-11.206-11.207s-11.207,5.017-11.207,11.207
			c0,1.874,0.463,3.638,1.275,5.19h-0.001l0.007,0.012c0.138,0.263,0.286,0.519,0.444,0.769l9.48,15.478l9.461-15.443
			C281.862,147.988,282.505,145.929,282.505,143.719z"/>
		<path fill="#8C1D11" d="M278.348,135.009c1.764,1.98,3.534,5.077,3.595,8.227c0.042,2.21-0.811,4.337-2.19,7.262l-8.454,14.67l0,0
			l9.461-15.443c1.104-1.736,1.746-3.795,1.746-6.005C282.505,140.201,280.883,137.063,278.348,135.009z"/>
		<circle fill="#FFFFFF" cx="271.299" cy="143.428" r="7.247"/>
		<path fill="#C7C8CA" d="M274.568,136.961c2.012,1.288,3.347,3.54,3.347,6.106c0,4.002-3.244,7.247-7.247,7.247
			c-1.176,0-2.286-0.282-3.269-0.78c1.126,0.72,2.463,1.14,3.899,1.14c4.002,0,7.247-3.244,7.247-7.247
			C278.546,140.603,276.927,138.156,274.568,136.961z"/>
		<path fill="#F16461" d="M265.229,137.121c0.03-0.031,0.063-0.063,0.092-0.094c0.406-0.415,0.869-0.826,1.058-1.394
			c0.204-0.613-0.541-0.542-0.964-0.416c-0.964,0.288-1.751,1.146-2.379,1.892c-0.587,0.698-1.058,1.494-1.384,2.346
			c-0.305,0.796-0.644,1.803-0.147,2.591c0.056,0.087,0.122,0.172,0.212,0.221c0.091,0.049,0.211,0.055,0.292-0.008
			c0.053-0.041,0.082-0.104,0.109-0.165c0.529-1.189,1.07-2.383,1.793-3.471C264.281,138.065,264.761,137.596,265.229,137.121z"/>
	</g>
	<g>
		<path fill="#EF4132" d="M324.588,111.188c0-6.189-5.018-11.207-11.208-11.207c-6.188,0-11.206,5.018-11.206,11.207
			c0,1.874,0.462,3.639,1.275,5.19h-0.001l0.007,0.012c0.138,0.263,0.286,0.519,0.443,0.769l9.481,15.478l9.46-15.443
			C323.944,115.458,324.588,113.398,324.588,111.188z"/>
		<path fill="#8C1D11" d="M320.43,102.478c1.764,1.98,3.534,5.077,3.594,8.228c0.042,2.21-0.81,4.337-2.19,7.261l-8.453,14.67l0,0
			l9.46-15.443c1.104-1.736,1.748-3.795,1.748-6.005C324.588,107.67,322.965,104.533,320.43,102.478z"/>
		<circle fill="#FFFFFF" cx="313.38" cy="110.897" r="7.247"/>
		<path fill="#C7C8CA" d="M316.649,104.431c2.013,1.288,3.348,3.541,3.348,6.107c0,4.002-3.245,7.246-7.247,7.246
			c-1.177,0-2.286-0.282-3.269-0.78c1.126,0.72,2.463,1.14,3.898,1.14c4.003,0,7.247-3.245,7.247-7.247
			C320.627,108.072,319.009,105.625,316.649,104.431z"/>
		<path fill="#F16461" d="M307.311,104.59c0.03-0.031,0.062-0.063,0.092-0.094c0.406-0.415,0.868-0.826,1.058-1.393
			c0.203-0.613-0.541-0.542-0.965-0.416c-0.963,0.288-1.75,1.146-2.378,1.892c-0.587,0.698-1.059,1.494-1.384,2.346
			c-0.305,0.796-0.645,1.803-0.147,2.591c0.055,0.087,0.121,0.171,0.212,0.221s0.211,0.055,0.292-0.008
			c0.053-0.041,0.082-0.104,0.108-0.165c0.53-1.19,1.071-2.384,1.794-3.471C306.362,105.534,306.842,105.065,307.311,104.59z"/>
	</g>
	<g>
		<path fill="#EF4132" d="M328.486,176.806c0-6.189-5.018-11.207-11.206-11.207c-6.189,0-11.207,5.018-11.207,11.207
			c0,1.873,0.462,3.638,1.275,5.19h-0.001l0.007,0.012c0.138,0.263,0.286,0.519,0.443,0.769l9.48,15.478l9.461-15.443
			C327.845,181.075,328.486,179.016,328.486,176.806z"/>
		<path fill="#8C1D11" d="M324.329,168.096c1.764,1.979,3.534,5.076,3.594,8.227c0.043,2.21-0.811,4.338-2.19,7.262l-8.454,14.67
			l0,0l9.461-15.443c1.105-1.736,1.747-3.795,1.747-6.005C328.486,173.288,326.864,170.151,324.329,168.096z"/>
		<circle fill="#FFFFFF" cx="317.28" cy="176.515" r="7.247"/>
		<path fill="#C7C8CA" d="M320.549,170.048c2.013,1.288,3.348,3.54,3.348,6.106c0,4.002-3.244,7.246-7.246,7.246
			c-1.178,0-2.288-0.281-3.271-0.779c1.127,0.721,2.464,1.14,3.9,1.14c4.002,0,7.246-3.244,7.246-7.246
			C324.526,173.69,322.908,171.244,320.549,170.048z"/>
		<path fill="#F16461" d="M311.21,170.208c0.03-0.031,0.062-0.063,0.092-0.094c0.406-0.415,0.868-0.826,1.058-1.394
			c0.204-0.613-0.541-0.542-0.964-0.416c-0.964,0.288-1.752,1.146-2.379,1.893c-0.587,0.697-1.059,1.493-1.385,2.346
			c-0.304,0.796-0.644,1.803-0.146,2.591c0.055,0.087,0.12,0.172,0.211,0.221c0.09,0.049,0.211,0.056,0.292-0.008
			c0.053-0.041,0.082-0.104,0.109-0.165c0.529-1.189,1.071-2.384,1.793-3.472C310.263,171.152,310.741,170.682,311.21,170.208z"/>
	</g>
</g>
<g>
	<g>
		<circle fill="#515254" cx="350.692" cy="253.401" r="17.417"/>
		<path fill="#434345" d="M351.995,269.183c-9.048,0-16.383-7.335-16.383-16.383c0-6.351,3.616-11.854,8.898-14.572
			c-5.983,2.44-10.201,8.313-10.201,15.173c0,9.049,7.334,16.384,16.383,16.384c2.697,0,5.24-0.656,7.484-1.812
			C356.269,268.751,354.184,269.183,351.995,269.183z"/>
		<circle fill="#3D3D3E" cx="350.692" cy="253.401" r="9.665"/>
		<circle fill="#FEBE10" cx="350.692" cy="253.401" r="8.329"/>
		<circle fill="#CB7F15" cx="350.692" cy="253.401" r="6.639"/>
		<circle fill="#3D3D3E" cx="350.692" cy="253.401" r="1.303"/>
		<circle fill="#3D3D3E" cx="350.692" cy="248.901" r="0.854"/>
		<circle fill="#3D3D3E" cx="355.292" cy="253.654" r="0.854"/>
		<circle fill="#3D3D3E" cx="350.692" cy="258.07" r="0.854"/>
		<circle fill="#3D3D3E" cx="345.908" cy="253.654" r="0.854"/>
		<circle fill="#282829" cx="354.438" cy="253.401" r="17.417"/>
	</g>
	<g>
		<circle fill="#515254" cx="455.762" cy="253.401" r="17.417"/>
		<path fill="#434345" d="M457.065,269.183c-9.048,0-16.384-7.335-16.384-16.383c0-6.351,3.616-11.854,8.898-14.572
			c-5.983,2.44-10.201,8.313-10.201,15.173c0,9.049,7.335,16.384,16.383,16.384c2.698,0,5.241-0.656,7.485-1.812
			C461.339,268.751,459.253,269.183,457.065,269.183z"/>
		<circle fill="#3D3D3E" cx="455.762" cy="253.401" r="9.665"/>
		<circle fill="#FEBE10" cx="455.762" cy="253.401" r="8.328"/>
		<circle fill="#CB7F15" cx="455.762" cy="253.401" r="6.639"/>
		<circle fill="#3D3D3E" cx="455.762" cy="253.401" r="1.303"/>
		<circle fill="#3D3D3E" cx="455.762" cy="248.901" r="0.854"/>
		<circle fill="#3D3D3E" cx="460.361" cy="253.654" r="0.854"/>
		<circle fill="#3D3D3E" cx="455.762" cy="258.07" r="0.854"/>
		<circle fill="#3D3D3E" cx="450.979" cy="253.654" r="0.854"/>
		<circle fill="#282829" cx="459.507" cy="253.401" r="17.417"/>
	</g>
	<g>
		<rect x="367.479" y="167.675" fill="#FBC983" width="157.074" height="77.583"/>
		<rect x="446.016" y="167.675" fill="#D18F58" width="78.537" height="77.583"/>
		<path fill="#B57C4B" d="M499.922,225.542c-14.501-5.298-27.081-14.911-37.247-26.423c-7.773-8.802-15.091-19.58-15.692-31.444
			h-0.967v77.583h78.537v-15.81C516.233,229.796,507.816,228.427,499.922,225.542z"/>
	</g>
	<path fill="#EF4132" d="M423.626,245.258v-61.42h-55.788c-13.928,0-14.513,9.229-14.513,9.229l-1.224,17.736l-24.514,10.559v24.67
		L423.626,245.258z"/>
	<path fill="#C43427" d="M395.595,210.914l-21.332,10.854h-46.675v24.264l96.038-0.773v-61.42l-4.898,0.021
		c-6.771,0.028-12.967,3.823-16.068,9.844L395.595,210.914z"/>
	<polygon fill="#BB804E" points="446.016,167.675 461.135,148.317 535.456,148.317 524.553,167.675 	"/>
	<polygon fill="#BB804E" points="446.016,167.675 433.421,148.317 355.81,148.317 367.479,167.675 	"/>
	<g>
		<rect x="497.459" y="177.305" fill="#FFFFFF" width="23.571" height="13.065"/>
		<g>
			
				<line fill="none" stroke="#000000" stroke-width="0.5388" stroke-miterlimit="10" x1="499.008" y1="178.788" x2="499.008" y2="189.024"/>
			
				<line fill="none" stroke="#000000" stroke-width="0.5388" stroke-miterlimit="10" x1="500.287" y1="178.788" x2="500.287" y2="189.024"/>
			
				<line fill="none" stroke="#000000" stroke-width="0.5388" stroke-miterlimit="10" x1="501.567" y1="178.788" x2="501.567" y2="189.024"/>
			
				<line fill="none" stroke="#000000" stroke-width="0.5388" stroke-miterlimit="10" x1="502.847" y1="178.788" x2="502.847" y2="189.024"/>
			
				<line fill="none" stroke="#000000" stroke-width="0.5388" stroke-miterlimit="10" x1="504.126" y1="178.788" x2="504.126" y2="189.024"/>
			
				<line fill="none" stroke="#000000" stroke-width="0.5388" stroke-miterlimit="10" x1="505.406" y1="178.788" x2="505.406" y2="189.024"/>
			
				<line fill="none" stroke="#000000" stroke-width="0.5388" stroke-miterlimit="10" x1="506.686" y1="178.788" x2="506.686" y2="189.024"/>
			
				<line fill="none" stroke="#000000" stroke-width="0.5388" stroke-miterlimit="10" x1="507.965" y1="178.788" x2="507.965" y2="189.024"/>
			
				<line fill="none" stroke="#000000" stroke-width="0.5388" stroke-miterlimit="10" x1="509.244" y1="178.788" x2="509.244" y2="189.024"/>
			
				<line fill="none" stroke="#000000" stroke-width="0.5388" stroke-miterlimit="10" x1="510.524" y1="178.788" x2="510.524" y2="189.024"/>
			
				<line fill="none" stroke="#000000" stroke-width="0.5388" stroke-miterlimit="10" x1="511.804" y1="178.788" x2="511.804" y2="189.024"/>
			
				<line fill="none" stroke="#000000" stroke-width="0.5388" stroke-miterlimit="10" x1="513.084" y1="178.788" x2="513.084" y2="189.024"/>
			
				<line fill="none" stroke="#000000" stroke-width="0.5388" stroke-miterlimit="10" x1="514.362" y1="178.788" x2="514.362" y2="189.024"/>
			
				<line fill="none" stroke="#000000" stroke-width="0.5388" stroke-miterlimit="10" x1="515.643" y1="178.788" x2="515.643" y2="189.024"/>
			
				<line fill="none" stroke="#000000" stroke-width="0.5388" stroke-miterlimit="10" x1="516.923" y1="178.788" x2="516.923" y2="189.024"/>
			
				<line fill="none" stroke="#000000" stroke-width="0.5388" stroke-miterlimit="10" x1="518.202" y1="178.788" x2="518.202" y2="189.024"/>
			
				<line fill="none" stroke="#000000" stroke-width="0.5388" stroke-miterlimit="10" x1="519.481" y1="178.788" x2="519.481" y2="189.024"/>
		</g>
	</g>
	<rect x="318.903" y="239.665" fill="#434345" width="205.649" height="11.188"/>
	<rect x="318.903" y="239.665" fill="#6B6C6F" width="56.807" height="11.188"/>
	<polygon fill="#434345" points="437.491,230.814 524.553,230.814 524.553,248.181 427.723,248.181 	"/>
	<g>
		<circle fill="#282829" cx="496.506" cy="252.097" r="17.418"/>
		<circle fill="#515254" cx="500.614" cy="252.097" r="17.417"/>
		<path fill="#434345" d="M501.918,267.879c-9.049,0-16.383-7.335-16.383-16.383c0-6.351,3.615-11.854,8.898-14.572
			c-5.983,2.44-10.203,8.313-10.203,15.173c0,9.049,7.335,16.384,16.384,16.384c2.697,0,5.24-0.656,7.484-1.812
			C506.19,267.448,504.105,267.879,501.918,267.879z"/>
		<circle fill="#3D3D3E" cx="500.614" cy="252.097" r="9.665"/>
		<circle fill="#FEBE10" cx="500.614" cy="252.097" r="8.328"/>
		<circle fill="#CB7F15" cx="500.614" cy="252.097" r="6.639"/>
		<circle fill="#3D3D3E" cx="500.614" cy="252.097" r="1.304"/>
		<circle fill="#3D3D3E" cx="500.614" cy="247.598" r="0.854"/>
		<circle fill="#3D3D3E" cx="505.214" cy="252.351" r="0.854"/>
		<circle fill="#3D3D3E" cx="500.614" cy="256.767" r="0.854"/>
		<circle fill="#3D3D3E" cx="495.831" cy="252.351" r="0.854"/>
	</g>
	<path fill="#282829" d="M424.647,250.895c0-0.034,0.003-0.067,0.003-0.102c0-11.545-9.359-20.904-20.905-20.904
		c-11.545,0-20.904,9.359-20.904,20.904c0,0.034,0.002,0.067,0.002,0.102H424.647z"/>
	<g>
		<circle fill="#282829" cx="401.342" cy="252.703" r="17.417"/>
		<circle fill="#515254" cx="405.45" cy="252.703" r="17.417"/>
		<path fill="#434345" d="M406.754,268.485c-9.049,0-16.383-7.335-16.383-16.383c0-6.351,3.615-11.854,8.898-14.572
			c-5.983,2.439-10.202,8.313-10.202,15.173c0,9.048,7.335,16.383,16.383,16.383c2.697,0,5.24-0.655,7.484-1.811
			C411.027,268.052,408.941,268.485,406.754,268.485z"/>
		<circle fill="#3D3D3E" cx="405.45" cy="252.703" r="9.665"/>
		<circle fill="#FEBE10" cx="405.45" cy="252.703" r="8.328"/>
		<circle fill="#CB7F15" cx="405.451" cy="252.703" r="6.639"/>
		<circle fill="#3D3D3E" cx="405.45" cy="252.703" r="1.304"/>
		<circle fill="#3D3D3E" cx="405.45" cy="248.203" r="0.854"/>
		<circle fill="#3D3D3E" cx="410.05" cy="252.956" r="0.854"/>
		<circle fill="#3D3D3E" cx="405.45" cy="257.371" r="0.854"/>
		<circle fill="#3D3D3E" cx="400.667" cy="252.956" r="0.854"/>
	</g>
	<path fill="#ABE1FA" d="M398.506,210.914h25.12v-19.9H406.37C405.797,191.851,398.506,210.914,398.506,210.914z"/>
	<path fill="#549CB8" d="M405.408,200.692h-2.957c-1.974,5.066-3.945,10.222-3.945,10.222h7.688l2.061-6.294
		C408.889,202.682,407.446,200.692,405.408,200.692z"/>
	<path fill="#ABE1FA" d="M402.756,191.013h-48.965c-0.457,1.193-0.512,2.054-0.512,2.054l-1.186,17.736l-0.249,0.11h42.405
		C394.25,210.914,402.137,191.851,402.756,191.013z"/>
	<path fill="#549CB8" d="M363.219,206.122l-1.575,4.792h32.606c0,0,2.133-5.155,4.268-10.222h-29.869
		C365.649,200.692,364.222,202.524,363.219,206.122z"/>
	<path fill="#549CB8" d="M406.37,191.013c-0.139,0.201-0.667,1.464-1.388,3.256h11.614v13.026h-16.702
		c-0.825,2.144-1.389,3.618-1.389,3.618h25.12v-19.9H406.37z"/>
	<path fill="#549CB8" d="M356.985,191.013h-3.194c-0.456,1.193-0.512,2.054-0.512,2.054l-1.186,17.736l-0.248,0.11h2.967
		L356.985,191.013z"/>
	<path fill="#549CB8" d="M401.256,194.269c0.779-1.792,1.352-3.055,1.5-3.256h-28.132v19.9h19.626c0,0,0.61-1.475,1.504-3.618
		h-17.149v-13.026H401.256z"/>
	<path opacity="0.47" fill="#E7F6FD" d="M423.626,198.65v-5.187c-5.804,5.809-11.597,11.627-17.386,17.45h5.18
		C415.485,206.822,419.557,202.738,423.626,198.65z"/>
	<path opacity="0.47" fill="#E7F6FD" d="M422.965,191.013h-7.482c-5.051,5.051-10.102,10.102-15.153,15.153
		c-1.056,2.737-1.823,4.747-1.823,4.747h4.635C409.739,204.27,416.347,197.636,422.965,191.013z"/>
	<path opacity="0.47" fill="#E7F6FD" d="M383.612,191.013h-12.363l-19.109,19.11l-0.046,0.68l-0.249,0.11h11.904
		C370.365,204.274,376.986,197.641,383.612,191.013z"/>
	<path opacity="0.47" fill="#E7F6FD" d="M394.58,191.013h-7.859c-6.628,6.629-13.251,13.262-19.87,19.9h7.809
		C381.28,204.261,387.932,197.638,394.58,191.013z"/>
	<g>
		<path fill="#F1EB55" d="M336.643,234.68h-6.714c-1.293,0-2.341-1.049-2.341-2.342v-1.354c0-1.294,1.048-2.342,2.341-2.342h6.714
			c1.294,0,2.342,1.048,2.342,2.342v1.354C338.984,233.631,337.937,234.68,336.643,234.68z"/>
		<path fill="#E9B04F" d="M335.912,234.023h-5.253c-1.012,0-1.832-0.82-1.832-1.832v-1.06c0-1.012,0.82-1.832,1.832-1.832h5.253
			c1.012,0,1.833,0.82,1.833,1.832v1.06C337.745,233.203,336.924,234.023,335.912,234.023z"/>
		<path opacity="0.65" fill="#EDE38F" d="M332.412,229.299l-1.96,0.012c0,0-0.796,3.538,1.777,4.712h2.875
			C333.274,232.951,332.099,231.289,332.412,229.299z"/>
	</g>
	<g>
		<path fill="#F1EB55" d="M372.57,234.68h-6.713c-1.294,0-2.343-1.049-2.343-2.342v-1.354c0-1.294,1.049-2.342,2.343-2.342h6.713
			c1.294,0,2.343,1.048,2.343,2.342v1.354C374.913,233.631,373.864,234.68,372.57,234.68z"/>
		<path fill="#E9B04F" d="M371.84,234.023h-5.252c-1.013,0-1.833-0.82-1.833-1.832v-1.06c0-1.012,0.82-1.832,1.833-1.832h5.252
			c1.013,0,1.833,0.82,1.833,1.832v1.06C373.673,233.203,372.853,234.023,371.84,234.023z"/>
		<path opacity="0.65" fill="#EDE38F" d="M368.34,229.299l-1.96,0.012c0,0-0.796,3.538,1.777,4.712h2.875
			C369.203,232.951,368.026,231.289,368.34,229.299z"/>
	</g>
	<rect x="340.407" y="228.513" fill="#FFFAC0" width="21.686" height="11.021"/>
	<rect x="341.78" y="229.889" fill="#403E2D" width="18.939" height="8.269"/>
	<rect x="343.327" y="228.915" fill="#FFFAC0" width="1.266" height="10.221"/>
	<rect x="346.243" y="228.915" fill="#FFFAC0" width="1.266" height="10.221"/>
	<rect x="349.159" y="228.915" fill="#FFFAC0" width="1.267" height="10.221"/>
	<rect x="352.075" y="228.915" fill="#FFFAC0" width="1.267" height="10.221"/>
	<rect x="354.992" y="228.915" fill="#FFFAC0" width="1.267" height="10.221"/>
	<rect x="357.908" y="228.915" fill="#FFFAC0" width="1.267" height="10.221"/>
	
		<line fill="none" stroke="#861D0F" stroke-width="0.5427" stroke-miterlimit="10" x1="398.506" y1="210.914" x2="398.506" y2="230.551"/>
	
		<line fill="none" stroke="#861D0F" stroke-width="0.5427" stroke-miterlimit="10" x1="374.263" y1="221.768" x2="398.506" y2="221.768"/>
	<path fill="#282829" d="M420.482,217.426H417.3c-0.686,0-1.246-0.561-1.246-1.246l0,0c0-0.685,0.561-1.245,1.246-1.245h3.183
		c0.686,0,1.246,0.561,1.246,1.245l0,0C421.729,216.866,421.168,217.426,420.482,217.426z"/>
	<g>
		<path fill="#00364B" d="M401.049,207.295h-3.04c-0.638,0-1.16-0.522-1.16-1.16v-6.251c0-0.638,0.522-1.16,1.16-1.16h3.04
			c0.638,0,1.16,0.522,1.16,1.16v6.251C402.209,206.773,401.687,207.295,401.049,207.295z"/>
		<path fill="#1A5468" d="M400.506,207.295h-3.039c-0.639,0-1.16-0.522-1.16-1.16v-6.251c0-0.638,0.521-1.16,1.16-1.16h3.039
			c0.639,0,1.16,0.522,1.16,1.16v6.251C401.666,206.773,401.145,207.295,400.506,207.295z"/>
		<g>
			<g>
				<path fill="#B6E4FA" d="M394.053,210.373l3.085,0.329l-0.043-0.002c0.628,0.024,1.247-0.432,1.404-1.062
					c0.079-0.27,0.045-0.74,0.063-1.151l0.019-1.26l0.077-5.038c0.003-0.174,0.146-0.313,0.319-0.31
					c0.17,0.003,0.306,0.14,0.31,0.309l0.098,5.041l0.024,1.26c-0.012,0.426,0.065,0.806-0.044,1.359
					c-0.215,1.028-1.2,1.829-2.27,1.829l-0.032-0.001l-0.012-0.001l-3.094-0.222c-0.299-0.021-0.524-0.281-0.503-0.58
					s0.281-0.523,0.58-0.502C394.039,210.372,394.048,210.373,394.053,210.373z"/>
			</g>
		</g>
	</g>
	<g>
		<path fill="#00364B" d="M347.182,207.295h3.04c0.638,0,1.16-0.522,1.16-1.16v-6.251c0-0.638-0.522-1.16-1.16-1.16h-3.04
			c-0.638,0-1.16,0.522-1.16,1.16v6.251C346.021,206.773,346.544,207.295,347.182,207.295z"/>
		<path fill="#1A5468" d="M347.725,207.295h3.04c0.638,0,1.159-0.522,1.159-1.16v-6.251c0-0.638-0.521-1.16-1.159-1.16h-3.04
			c-0.638,0-1.16,0.522-1.16,1.16v6.251C346.564,206.773,347.087,207.295,347.725,207.295z"/>
		<g>
			<g>
				<path fill="#B6E4FA" d="M354.273,211.454l-3.094,0.222l-0.01,0.001l-0.033,0.001c-1.07,0-2.056-0.801-2.27-1.829
					c-0.11-0.554-0.032-0.934-0.045-1.359l0.025-1.26l0.098-5.041c0.003-0.174,0.146-0.312,0.319-0.309
					c0.171,0.004,0.306,0.142,0.309,0.31l0.077,5.038l0.02,1.26c0.018,0.411-0.017,0.882,0.062,1.151
					c0.157,0.63,0.777,1.086,1.405,1.062l-0.044,0.002l3.085-0.329c0.298-0.032,0.565,0.185,0.598,0.482
					c0.031,0.298-0.185,0.565-0.481,0.597C354.287,211.453,354.279,211.454,354.273,211.454z"/>
			</g>
		</g>
	</g>
	<rect x="340.407" y="243.038" fill="#E9B04F" width="14.585" height="5.863"/>
</g>
<g>
	<g>
		<g>
			
				<path fill="none" stroke="#002D4C" stroke-width="1.8695" stroke-linecap="round" stroke-linejoin="round" stroke-miterlimit="10" d="
				M187.838,180.987h-13.273c-1.411,0-2.555,1.144-2.555,2.555v5.339h18.383v-5.339C190.393,182.13,189.249,180.987,187.838,180.987
				z"/>
			<path fill="#1E4390" d="M213.999,278.823h-65.596c-1.762,0-3.189-1.429-3.189-3.189v-82.421c0-1.762,1.428-3.19,3.189-3.19
				h65.596c1.762,0,3.189,1.429,3.189,3.19v82.421C217.188,277.394,215.761,278.823,213.999,278.823z"/>
			<rect x="150.688" y="194.213" fill="#A9ABAE" width="61.026" height="80.419"/>
			<polygon fill="#FFFFFF" points="200.313,274.632 150.688,274.632 150.688,194.213 211.714,194.213 211.714,262.938 			"/>
			<path fill="#002D4C" d="M199.584,198.124h-36.766c0,0,1.506-2.856,1.506-5.92c0-3.064-1.506-5.92-1.506-5.92h36.766
				c0,0-0.938,2.39-1.038,5.92C198.468,194.928,199.542,197.689,199.584,198.124z"/>
			<path fill="#084676" d="M195.392,196.773h-28.381c0,0,1.163-2.204,1.163-4.569s-1.163-4.57-1.163-4.57h28.381
				c0,0-0.724,1.845-0.802,4.57C194.53,194.306,195.359,196.438,195.392,196.773z"/>
			<rect x="157.365" y="206.224" fill="#BABCBE" width="25.238" height="2.817"/>
			<rect x="157.365" y="214.417" fill="#A9ABAE" width="2.337" height="2.817"/>
			<rect x="161.416" y="214.417" fill="#DCDDDE" width="45.746" height="2.817"/>
			<rect x="157.365" y="220.648" fill="#A9ABAE" width="2.337" height="2.817"/>
			<rect x="161.416" y="220.648" fill="#DCDDDE" width="45.746" height="2.817"/>
			<rect x="157.365" y="226.879" fill="#A9ABAE" width="2.337" height="2.817"/>
			<rect x="161.416" y="226.879" fill="#DCDDDE" width="45.746" height="2.817"/>
			<rect x="157.365" y="233.112" fill="#A9ABAE" width="2.337" height="2.816"/>
			<rect x="161.416" y="233.112" fill="#DCDDDE" width="45.746" height="2.816"/>
			<rect x="157.365" y="239.343" fill="#A9ABAE" width="2.337" height="2.816"/>
			<rect x="161.416" y="239.343" fill="#DCDDDE" width="45.746" height="2.816"/>
			<rect x="157.365" y="245.575" fill="#A9ABAE" width="2.337" height="2.816"/>
			<rect x="161.416" y="245.575" fill="#DCDDDE" width="45.746" height="2.816"/>
			<rect x="157.365" y="251.806" fill="#A9ABAE" width="2.337" height="2.817"/>
			<rect x="161.416" y="251.806" fill="#DCDDDE" width="45.746" height="2.817"/>
		</g>
	</g>
	<g>
		<g>
			<g>
				<circle fill="#ED1C24" cx="150.688" cy="267.957" r="12.114"/>
			</g>
			<path fill="none" stroke="#FFFFFF" stroke-width="2.4926" stroke-miterlimit="10" d="M144.322,269.518l4.472,4.252
				c0,0,1.894-5.744,9.237-11.627"/>
		</g>
		
			<ellipse transform="matrix(0.7886 -0.6149 0.6149 0.7886 -130.5071 144.6481)" fill="#FFFFFF" cx="145.134" cy="262.144" rx="3.454" ry="2.036"/>
	</g>
	<path fill="#D3D5D6" d="M200.313,274.632c0,0,3.583-6.291,2.063-13.292c0,0,8.583-0.527,9.339,1.598L200.313,274.632z"/>
</g>
<g>
</g>
<g>
</g>
<g>
</g>
<g>
</g>
<g>
</g>
<g>
</g>
</svg>
