<?xml version="1.0" encoding="utf-8"?>
<!-- Generator: Adobe Illustrator 16.0.0, SVG Export Plug-In . SVG Version: 6.00 Build 0)  -->
<!DOCTYPE svg PUBLIC "-//W3C//DTD SVG 1.1//EN" "http://www.w3.org/Graphics/SVG/1.1/DTD/svg11.dtd">
<svg version="1.1" id="Layer_1" xmlns="http://www.w3.org/2000/svg" xmlns:xlink="http://www.w3.org/1999/xlink" x="0px" y="0px"
	 width="280.344px" height="335.071px" viewBox="0 0 280.344 335.071" enable-background="new 0 0 280.344 335.071"
	 xml:space="preserve">
<g>
	<g>
		<polygon fill="#A6A4E8" points="239.687,35.476 238.445,23.867 273.51,11.877 		"/>
		<polygon fill="#DEDFF5" points="273.51,11.877 248.589,36.796 240.914,27.195 		"/>
		<polygon fill="#DEDFF5" points="273.51,11.877 238.445,23.867 231.124,14.74 		"/>
		<polygon fill="#8987BF" points="240.914,27.195 239.687,35.476 244.26,31.38 		"/>
	</g>
	<g>
		<g>
			<path fill="none" stroke="#8987BF" stroke-width="0.9921" stroke-miterlimit="10" d="M236.844,30.578
				c-0.387,0.264-0.781,0.524-1.18,0.783"/>
			<path fill="none" stroke="#8987BF" stroke-width="0.9921" stroke-miterlimit="10" stroke-dasharray="2.8647,5.7294" d="
				M230.711,34.242c-5.582,2.868-11.863,4.797-17.999,4.071c-8.349-0.987-14.229-6.915-23.384-5.058
				c-8.307,1.686-15.49,8.561-17.627,16.787c-1.443,5.555,0.059,12.097,4.629,15.568c11.646,8.847,24.683-4.838,24.683-21.703
				c0-21.568-27.836-40.025-67.684-43.137C85.518-2.963,22.606,31.361,1.647,101.734"/>
			<path fill="none" stroke="#8987BF" stroke-width="0.9921" stroke-miterlimit="10" d="M0.854,104.49
				c-0.126,0.454-0.251,0.91-0.375,1.367"/>
		</g>
	</g>
</g>
<g>
	<linearGradient id="SVGID_1_" gradientUnits="userSpaceOnUse" x1="111.4902" y1="261.123" x2="145.9107" y2="370.5911">
		<stop  offset="0" style="stop-color:#272438"/>
		<stop  offset="1" style="stop-color:#304260"/>
	</linearGradient>
	<path fill="url(#SVGID_1_)" d="M98.833,335.071h34.387c1.342-11.541,2.36-21.138,2.779-26.875
		c1.962-26.905,0.812-62.708,3.416-66.43c2.604-3.721-7.028-24.779-7.028-24.779l-22.724,5.2l-10.669,37.176
		c0,0-1.056,59.364-0.414,70.283C98.639,330.67,98.725,332.534,98.833,335.071z"/>
	<linearGradient id="SVGID_2_" gradientUnits="userSpaceOnUse" x1="89.1421" y1="228.3643" x2="83.4948" y2="359.3834">
		<stop  offset="0" style="stop-color:#272438"/>
		<stop  offset="1" style="stop-color:#304260"/>
	</linearGradient>
	<path fill="url(#SVGID_2_)" d="M95.45,335.071c1.758-9.678,3.353-17.521,4.599-22.063c6.422-23.397,18.851-95.76,18.851-95.76
		l-55.206,4.939c0,0-4.797,28.583-6.148,59.974c0.854,0.62,1.27,1.882,0.304,2.846c-0.143,0.143-0.288,0.283-0.431,0.426
		c-0.127,3.634-0.207,7.292-0.222,10.938c-0.038,9.058,0.171,22.947,0.506,38.701H95.45z"/>
	<linearGradient id="SVGID_3_" gradientUnits="userSpaceOnUse" x1="126.335" y1="149.5605" x2="155.4131" y2="149.5605">
		<stop  offset="0" style="stop-color:#8A74DC"/>
		<stop  offset="0.4231" style="stop-color:#634DB4"/>
		<stop  offset="0.7889" style="stop-color:#473198"/>
		<stop  offset="1" style="stop-color:#3D278D"/>
	</linearGradient>
	<path fill="url(#SVGID_3_)" d="M155.375,153.459c0,0,0.607,6.684-3.041,10.443s-7.602,11.14-7.602,11.14s-4.775-4.457-7.36-7.938
		s-10.884-17.683-11.036-24.923c-0.152-7.241,12.771-18.102,12.771-18.102s7.145,11.696,7.754,18.38
		C147.469,149.143,155.375,153.459,155.375,153.459z"/>
	<path fill="#FEC4AD" d="M161.152,148.864c-1.217,3.342-1.217,6.823-1.217,11.418s0.456,12.531-2.433,14.48
		c-2.889,1.95-6.993,5.71-10.49,2.646s-5.321-7.938-5.776-12.532c-0.457-4.595,5.168-11.278,7.753-15.316L161.152,148.864z"/>
	<linearGradient id="SVGID_4_" gradientUnits="userSpaceOnUse" x1="164.0156" y1="151.4805" x2="147.486" y2="173.665">
		<stop  offset="0" style="stop-color:#8A74DC"/>
		<stop  offset="0.4231" style="stop-color:#634DB4"/>
		<stop  offset="0.7889" style="stop-color:#473198"/>
		<stop  offset="1" style="stop-color:#3D278D"/>
	</linearGradient>
	<path fill="url(#SVGID_4_)" d="M137.373,167.104c0,0,2.742,4.935,9.64,10.306c6.897,5.371,12.128,2.679,14.14,0
		c2.011-2.68,0-21.987,0-21.987s-7.299,1.101-12.163-5.861L137.373,167.104z"/>
	<polygon fill="#AEBFDE" points="153.268,156.368 161.152,155.422 161.152,148.864 153.268,149.561 	"/>
	<g>
		<path fill="#FEC4AD" d="M82.477,92.916c-1.251,3.549-13.014,7.676-13.014,7.676s35.567,40.729,49.297,40.471
			s-6.001-38.406-6.001-38.406s-3.994-2.003-5.246-5.874c-1.251-3.871,1.366-20.544,1.366-20.544l-14.486-8.865
			C94.394,67.373,83.728,89.367,82.477,92.916z"/>
		<linearGradient id="SVGID_5_" gradientUnits="userSpaceOnUse" x1="86.8403" y1="99.4326" x2="102.9102" y2="103.4501">
			<stop  offset="0" style="stop-color:#FFFFFF;stop-opacity:0"/>
			<stop  offset="1" style="stop-color:#E0BAD1"/>
		</linearGradient>
		<path fill="url(#SVGID_5_)" d="M82.477,92.916c-1.251,3.549-13.014,7.676-13.014,7.676s35.567,40.729,49.297,40.471
			s-6.001-38.406-6.001-38.406s-3.994-2.003-5.246-5.874c-1.251-3.871,1.366-20.544,1.366-20.544l-14.486-8.865
			C94.394,67.373,83.728,89.367,82.477,92.916z"/>
		<path fill="#FEC4AD" d="M126.758,44.898c2.179,2.09,5.785,6.271,5.453,8.662s-0.236,9.786-2.169,13.42
			c-2.684,5.047-2.372,12.773-4.111,17.306s-10.457,11.434-11.846,11.993c-1.389,0.561-6.078-0.342-8.331-2.096
			c-2.252-1.754-14.089-16.868-11.36-26.811c0,0-5.204,1-6.994-8.931c-0.467-2.59,9.938-9.692,11.579-12.214
			c3.986-6.127,18.095-0.926,22.146-0.518C125.175,46.118,126.758,44.898,126.758,44.898z"/>
		<path fill="#7B2B1A" d="M131.741,57.506c0,0,1.781-6.109-3.428-6.785l-16.259-3.309c-4.584-1.413-6.42-2.282-6.42-2.282
			s-1.35,6.202-2.97,7.591c-1.619,1.387-4.924,2.738-5.541,4.709c-0.618,1.973-0.877,4.027-0.877,4.027s-2.099-4.186-4.574-4.053
			c-2.475,0.132-3.278,3.822-1.315,6.039c1.964,2.217,4.037,3.93,4.037,3.93s-0.621,2.852-1.633,4.909s-2.891,5.499-2.891,5.499
			s-2.24-13.91-5.228-20.064c-2.988-6.154-3.028-23.258,15.06-23.02c0,0,11.807-9.045,23.503-6.557
			c10.132,2.156,20.861,10.477,12.103,24.16C132.27,57.047,131.741,57.506,131.741,57.506z"/>
		<g>
			<g>
				<path fill="#FFFFFF" d="M112.859,64.713c0,0,0.347,1.371,1.871,2.734c1.523,1.361,2.699,1.353,4.519-0.413
					C119.248,67.034,116.997,63.961,112.859,64.713z"/>
				<path fill="#542F38" d="M115.684,65.026c-0.531-0.199-0.847,1.407-0.764,1.749c0.135,0.552,0.375,1.263,1.619,1.447
					c1.832,0.271,2.221-2.043,2.221-2.043L115.684,65.026z"/>
				<path opacity="0.35" fill="#FFFFFF" d="M117.975,66.502c-0.781-0.063-1.297,0.748-0.821,1.174s1.156,0.609,1.373-0.045
					C118.744,66.977,118.757,66.564,117.975,66.502z"/>
				<path fill="#782F38" d="M111.289,64.795c0,0,5.198-0.229,8.822,2.799c0,0,0.41-0.78-0.567-1.639
					c-0.539-0.473-1.771-1.105-3.057-1.39C112.079,63.592,111.289,64.795,111.289,64.795z"/>
			</g>
			<path fill="#8E373F" d="M121.641,61.156c0,0,1.016-1.059,0.869-2.549c0,0-5.287-2.759-12.422-0.475c0,0-0.807,0.486,0.477,0.502
				S118.938,58.311,121.641,61.156z"/>
			<g>
				<path fill="#FFFFFF" d="M128.613,69.029c0,0-0.036,2.367-1.343,2.645c-1.731,0.367-1.825-1.484-1.78-2.739
					C125.489,68.935,127.047,67.986,128.613,69.029z"/>
				<path fill="#542F38" d="M128.62,69.356c0.415,0.132-0.099,1.314-0.301,1.493c-0.326,0.287-0.787,0.625-1.634,0.135
					c-1.248-0.723-0.467-2.395-0.467-2.395L128.62,69.356z"/>
				<path opacity="0.35" fill="#FFFFFF" d="M128.583,70.006c0.583,0.385,0.536,1.255-0.015,1.301
					c-0.551,0.045-1.123-0.197-0.945-0.789S128,69.62,128.583,70.006z"/>
				<path fill="#782F38" d="M129.173,69.615c0.585,0.033,0.458-0.489-0.49-0.943c-1.05-0.504-2.238-0.725-2.857-0.68
					c-1.122,0.082-1.229,0.871-1.229,0.871c1.528-0.071,2.98,0.308,4.2,0.81C128.91,69.633,129.032,69.606,129.173,69.615z"/>
			</g>
			<path fill="#8E373F" d="M131.672,63.043c-2.612-2.787-4.416-3.004-4.416-3.004c-0.693,0.789-0.745,2.33-0.745,2.33
				c2.42,0.445,4.072,1.26,5.149,1.934C131.847,63.717,131.834,63.261,131.672,63.043z"/>
		</g>
		<path fill="#2F2521" d="M106.685,61.989c-0.042,0.463,0.872,1.017,1.009,1.19c0.297,0.373,0.104,0.352,0.517,3.969
			c0.304,2.668,2.066,4.377,6.548,4.939c3.422,0.43,4.255-2.521,5.056-3.723c0.8-1.202,1.153-1.292,1.662-1.141
			c0.497,0.148,0.709,0.399,0.793,1.861c0.084,1.461-0.981,4.574,2.314,5.637c2.273,0.734,3.119,0.383,4.229-1.287
			c0.989-1.488,1.778-3.047,2.236-4.281c0.462-1.246,0.771-1.992,0.236-2.344c-0.659-0.432-1.663-0.691-2.657-0.983
			c-1.99-0.584-3.327-1.216-4.673-0.94c-1.346,0.275-1.454,0.81-2.025,0.65c-0.584-0.162-0.45-0.707-1.461-1.674
			c-1.012-0.967-6.317-2.525-8.307-3.109c-1.99-0.584-4.844-1.117-5.132-0.34C106.874,60.832,106.734,61.449,106.685,61.989z
			 M123.856,67.09c0.533-0.928,0.555-0.785,3.073-0.193c2.519,0.592,2.708,0.822,2.987,1.445c0.278,0.624-0.088,2.342-1.237,4.254
			c-0.62,1.031-1.459,2.326-3.476,1.734c-2.164-0.635-2.145-1.944-2.029-3.733C123.291,68.809,123.66,67.43,123.856,67.09z
			 M109.936,61.969c0.549-0.381,3.821,0.728,6.266,1.594c2.445,0.865,3.26,1.153,3.253,2.234c-0.002,0.398-0.375,1.775-1.167,3.365
			c-0.793,1.59-1.728,2.857-5.641,1.73c-2.76-0.794-3.642-2.186-3.756-4.775C108.791,63.862,109.387,62.35,109.936,61.969z
			 M95.733,60.529c0,0,1.302-0.809,1.811-0.72c0.232,0.04,0.626,0.377,0.626,0.377l8.556,2.085l2.896-2.123
			c0,0-7.273-1.85-10.835-2.71c-1.69-0.408-4.103,1.77-4.103,1.77S95.278,59.705,95.733,60.529z"/>
		<path fill="#F49A8A" d="M122.175,68.178c0,0,0.742,6.578,2.235,7.936c1.906,1.732,1.123,3.094-0.326,3.506
			c-1.448,0.413-4.849-0.2-4.849-0.2s0.077-3.229,1.131-5.584S122.175,68.178,122.175,68.178z"/>
		<path fill="#542F38" d="M120.849,82.267c0,0-0.714,2.274-2.522,3.401c-0.568,0.368-1.219,0.606-1.997,0.649
			c-2.396,0.13-3.636-1.213-4.288-2.708c-0.777-1.797-0.693-3.834-0.693-3.834s2.438,1.408,5.507,2.037
			C119.924,82.418,120.849,82.267,120.849,82.267z"/>
		<path fill="#C85A58" d="M118.327,85.668c-0.568,0.368-1.219,0.606-1.997,0.649c-2.396,0.13-3.636-1.213-4.288-2.708
			C112.652,83.264,116.33,86.317,118.327,85.668z"/>
	</g>
	<linearGradient id="SVGID_6_" gradientUnits="userSpaceOnUse" x1="127.4883" y1="111.2139" x2="137.6721" y2="159.5869">
		<stop  offset="0" style="stop-color:#8A74DC"/>
		<stop  offset="0.4231" style="stop-color:#634DB4"/>
		<stop  offset="0.7889" style="stop-color:#473198"/>
		<stop  offset="1" style="stop-color:#3D278D"/>
	</linearGradient>
	<path fill="url(#SVGID_6_)" d="M125.964,106.387c7.366,3.629,9.646,8.225,13.295,17.414s7.297,11.278,7.297,11.278
		s-7.753,1.671-16.419,18.798c0,0-9.122-5.849-11.402-17.545C116.455,124.637,125.964,106.387,125.964,106.387z"/>
	<linearGradient id="SVGID_7_" gradientUnits="userSpaceOnUse" x1="92.5796" y1="96.082" x2="92.5796" y2="232.6411">
		<stop  offset="0" style="stop-color:#8A74DC"/>
		<stop  offset="0.4231" style="stop-color:#634DB4"/>
		<stop  offset="0.7889" style="stop-color:#473198"/>
		<stop  offset="1" style="stop-color:#3D278D"/>
	</linearGradient>
	<path fill="url(#SVGID_7_)" d="M75.875,96.082l-24.45,9.264c0,0-3.94,23.101-3.619,31.705c0.321,8.604,13.291,93.986,13.291,93.986
		s32.423,3.607,48.725,0c16.302-3.608,27.552-6.91,27.552-6.91s-5.629-83.325-6.914-91.929c-1.284-8.604-4.495-25.812-4.495-25.812
		l-12.763-6.037l-7.077,4.996L75.875,96.082z"/>
	<linearGradient id="SVGID_8_" gradientUnits="userSpaceOnUse" x1="110.7495" y1="212.4736" x2="110.7495" y2="115.9263">
		<stop  offset="0" style="stop-color:#272438"/>
		<stop  offset="1" style="stop-color:#304260"/>
	</linearGradient>
	<path fill="url(#SVGID_8_)" d="M108.919,115.926c0,0,8.57,76.751,10.196,85.455l-5.574,11.093c0,0-9.357-6.415-9.899-9.976
		s-1.259-86.176-1.259-86.176L108.919,115.926z"/>
	<g>
		<path fill="#FEC4AD" d="M147.947,135.117c-1.693-0.596-9.01-2.365-11.854-2.297c-2.844,0.067-11.475-0.652-14.884-0.161
			c-3.41,0.491-6.568,5.251-9.476,6.63c-1.54,0.73-4.598,2.145-8.266,3.787c1.252,3.229,2.423,6.484,3.596,9.739
			c1.822-1.258,3.413-2.181,4.622-2.517c4.945-1.375,4.807-2.669,7.469-2.534c2.662,0.135,2.258,0.171,4.659-0.23
			c2.401-0.401,4.064-3.907,5.781-4.993s4.241-2.245,3.941-3.15c-0.3-0.906-0.418-2.015-6.19-0.752c0,0,5.491-1.984,7.931-2.016
			c2.441-0.031,7.602,0.625,10.043,0.594C147.761,137.186,149.641,135.711,147.947,135.117z"/>
		<polygon fill="#AEBFDE" points="102.076,143.395 108.983,140.01 115.269,153.951 108.536,158.844 		"/>
	</g>
	<g>
		<path id="XMLID_55_" fill="#97A3CC" d="M123.76,159.896l19.842,4.6c2.037,0.462,4.504-0.769,5.518-2.743l22.045-43.63
			c1.004-1.958,0.191-3.925-1.824-4.397l-19.659-4.691c-3.622-0.127-5.481,0.705-6.515,2.715l-22.073,43.311
			C120.05,157.085,120.326,158.44,123.76,159.896z"/>
		
			<linearGradient id="XMLID_2_" gradientUnits="userSpaceOnUse" x1="1045.5889" y1="383.3799" x2="1110.8594" y2="382.6928" gradientTransform="matrix(-0.7155 -0.228 -0.3981 0.8326 1081.162 67.138)">
			<stop  offset="0" style="stop-color:#EEF4FB"/>
			<stop  offset="0.3115" style="stop-color:#E3EDF8"/>
			<stop  offset="1" style="stop-color:#CFE1F3"/>
		</linearGradient>
		<path id="XMLID_37_" fill="url(#XMLID_2_)" d="M124.875,160.249l19.936,4.632c2.051,0.465,4.529-0.767,5.546-2.748l22.132-43.823
			c1.008-1.964,0.187-3.938-1.843-4.411l-19.763-4.703c-2.127-0.496-4.703,0.74-5.744,2.764l-22.261,43.708
			C121.828,157.709,122.726,159.761,124.875,160.249z"/>
	</g>
	<path fill="#FEC4AD" d="M157.01,152.498c1.998-0.508,4.66-0.711,5.326-1.931c0.665-1.219,1.664-1.523,2.773-2.438
		c1.109-0.914,0.443-1.828,1.774-2.946s0-3.048,0.11-4.063c0.111-1.017,0.223-3.049-0.221-4.877
		c-0.444-1.83-2.219-2.236-4.549-2.947s-3.994-0.711-3.994,0.406s2.441,2.643,2.441,2.643s-3.994-1.22-5.104-1.627
		c-1.109-0.406-2.885,0.509-2.107,1.83c0.775,1.32,3.993,3.048,4.992,3.556c0.998,0.508,1.553,1.524,1.553,1.524
		s-2.996,0-5.104-0.813c-2.107-0.813-3.994-2.642-5.436-1.829c-1.442,0.813-0.666,1.829,0.776,2.947c0,0,3.106,1.93,4.104,2.336
		c0,0-3.105,0.103-4.659-0.508c-1.554-0.609-2.329,0.102-1.886,1.22s4.77,2.032,4.881,2.438s-0.776,1.423-1.331,2.642
		C150.798,151.279,157.01,152.498,157.01,152.498z"/>
	<linearGradient id="SVGID_9_" gradientUnits="userSpaceOnUse" x1="102.6167" y1="116.2539" x2="102.6167" y2="105.3457">
		<stop  offset="0" style="stop-color:#272438"/>
		<stop  offset="1" style="stop-color:#304260"/>
	</linearGradient>
	<polygon fill="url(#SVGID_9_)" points="112.654,107.068 108.919,115.926 102.383,116.254 92.58,105.756 106.892,105.346 	"/>
	<linearGradient id="SVGID_10_" gradientUnits="userSpaceOnUse" x1="90.999" y1="95.7612" x2="90.999" y2="112.5278">
		<stop  offset="0" style="stop-color:#8A74DC"/>
		<stop  offset="0.4231" style="stop-color:#634DB4"/>
		<stop  offset="0.7889" style="stop-color:#473198"/>
		<stop  offset="1" style="stop-color:#3D278D"/>
	</linearGradient>
	<polygon fill="url(#SVGID_10_)" points="78.829,91.787 106.124,105.346 95.07,113.79 75.875,96.082 	"/>
	<linearGradient id="SVGID_11_" gradientUnits="userSpaceOnUse" x1="110.5786" y1="95.7607" x2="110.5786" y2="112.528">
		<stop  offset="0" style="stop-color:#8A74DC"/>
		<stop  offset="0.4231" style="stop-color:#634DB4"/>
		<stop  offset="0.7889" style="stop-color:#473198"/>
		<stop  offset="1" style="stop-color:#3D278D"/>
	</linearGradient>
	<polygon fill="url(#SVGID_11_)" points="106.124,105.346 115.034,111.931 113.201,100.35 110.297,97.055 	"/>
	<linearGradient id="SVGID_12_" gradientUnits="userSpaceOnUse" x1="76.1162" y1="131.1748" x2="62.8714" y2="198.7233">
		<stop  offset="0" style="stop-color:#8A74DC"/>
		<stop  offset="0.4231" style="stop-color:#634DB4"/>
		<stop  offset="0.7889" style="stop-color:#473198"/>
		<stop  offset="1" style="stop-color:#3D278D"/>
	</linearGradient>
	<path fill="url(#SVGID_12_)" d="M51.424,105.346c0,0-7.782,5.888-9.474,8.677s-0.677,9.298-1.354,16.425
		c-0.677,7.128,1.924,42.767,5.646,48.655c3.722,5.888,10.489,7.438,13.873,7.438s48.42-27.696,48.42-27.696l-6.46-15.449
		L69.02,155.859c0,0,0.338-25.102,0.677-30.68C70.035,119.601,58.192,106.895,51.424,105.346z"/>
</g>
<g>
	<path fill="#D5DEF5" d="M230.662,117.533v-9.053l-4.44-1.313c-0.287-0.869-0.642-1.706-1.048-2.514l2.215-4.074l-6.401-6.402
		l-4.075,2.216c-0.807-0.407-1.644-0.761-2.513-1.048l-1.313-4.44h-9.054l-1.313,4.44c-0.869,0.287-1.705,0.641-2.514,1.048
		l-4.074-2.216l-6.402,6.402l2.216,4.074c-0.406,0.808-0.761,1.645-1.048,2.514l-4.439,1.313v9.053l4.439,1.313
		c0.287,0.869,0.642,1.706,1.049,2.514l-2.217,4.074l6.402,6.402l4.075-2.216c0.808,0.407,1.644,0.761,2.513,1.048l1.313,4.44h9.054
		l1.313-4.44c0.868-0.287,1.706-0.641,2.513-1.048l4.075,2.216l6.401-6.402l-2.215-4.074c0.406-0.808,0.761-1.645,1.048-2.514
		L230.662,117.533z M218.516,113.007c0,5.498-4.457,9.955-9.955,9.955s-9.955-4.457-9.955-9.955s4.457-9.955,9.955-9.955
		S218.516,107.509,218.516,113.007z"/>
	<path fill="#D5DEF5" d="M261.859,92.699v-5.588l-2.74-0.809c-0.178-0.537-0.396-1.053-0.646-1.552l1.367-2.515l-3.95-3.95
		l-2.515,1.367c-0.498-0.251-1.015-0.47-1.551-0.646l-0.811-2.74h-5.586l-0.811,2.74c-0.535,0.177-1.053,0.396-1.551,0.646
		l-2.514-1.367l-3.951,3.95l1.367,2.515c-0.251,0.499-0.469,1.015-0.646,1.552l-2.74,0.809v5.588l2.74,0.809
		c0.178,0.537,0.396,1.053,0.646,1.551l-1.367,2.516l3.951,3.949l2.514-1.367c0.498,0.252,1.016,0.471,1.551,0.647l0.811,2.739
		h5.586l0.811-2.739c0.536-0.177,1.053-0.396,1.551-0.646l2.515,1.366l3.95-3.949l-1.367-2.516c0.251-0.498,0.469-1.014,0.646-1.551
		L261.859,92.699z M254.363,89.905c0,3.393-2.75,6.144-6.143,6.144s-6.143-2.751-6.143-6.144s2.75-6.144,6.143-6.144
		S254.363,86.513,254.363,89.905z"/>
</g>
<g>
	<g>
		
			<line fill="none" stroke="#E9F2F4" stroke-width="0.3024" stroke-miterlimit="10" x1="194.986" y1="160.102" x2="194.986" y2="172.778"/>
		<g>
			<ellipse fill="#918DFF" cx="194.986" cy="159.219" rx="6.502" ry="6.359"/>
		</g>
		<g>
			<ellipse fill="#918DFF" cx="194.986" cy="181.51" rx="6.502" ry="6.359"/>
		</g>
		<g>
			<polygon fill="#FFFFFF" points="194.472,161.722 191.465,157.935 194.189,159.049 200.457,153.688 			"/>
		</g>
		<g>
			<polygon fill="#FFFFFF" points="194.472,184.261 191.465,180.475 194.189,181.589 200.457,176.229 			"/>
		</g>
	</g>
	<rect x="205.332" y="161.717" fill="#E9F2F4" width="75.012" height="6.854"/>
	<rect x="205.332" y="183.765" fill="#E9F2F4" width="49.031" height="6.854"/>
	<rect x="205.332" y="155.006" fill="#918DFF" width="42.889" height="3.51"/>
	<rect x="205.332" y="176.846" fill="#918DFF" width="26.573" height="3.509"/>
</g>
</svg>
