<?xml version="1.0" encoding="utf-8"?>
<!-- Generator: Adobe Illustrator 16.0.0, SVG Export Plug-In . SVG Version: 6.00 Build 0)  -->
<!DOCTYPE svg PUBLIC "-//W3C//DTD SVG 1.1//EN" "http://www.w3.org/Graphics/SVG/1.1/DTD/svg11.dtd">
<svg version="1.1" id="Capa_1" xmlns="http://www.w3.org/2000/svg" xmlns:xlink="http://www.w3.org/1999/xlink" x="0px" y="0px"
	 width="595.279px" height="841.891px" viewBox="0 0 595.279 841.891" enable-background="new 0 0 595.279 841.891"
	 xml:space="preserve">
<g>
	<g>
		<path fill="#40A3FF" d="M493.547,218.452c-6.417,0-11.626,5.208-11.626,11.626s5.209,11.626,11.626,11.626
			c6.418,0,11.627-5.208,11.627-11.626C505.174,223.66,499.965,218.452,493.547,218.452z"/>
	</g>
</g>
<g>
	<g>
		<g>
			<path d="M149.692,180.376c40.075,0,76.712,15.606,105.952,45.13c8.769,8.854,16.685,18.705,23.528,29.277l18.469,28.531
				l18.468-28.532c6.845-10.574,14.76-20.424,23.526-29.274c29.241-29.524,65.879-45.13,105.953-45.13
				c35.77,0,68.418,14.555,91.933,40.985c23.06,25.917,35.759,60.905,35.759,98.52c0,23.496-5.636,46.758-17.23,71.116
				c-11.078,23.275-27.62,47.578-50.572,74.298c-44.774,52.125-108.482,107.104-182.25,170.767
				c-8.346,7.202-16.916,14.599-25.587,22.102c-8.806-7.619-17.511-15.131-25.986-22.443
				c-73.577-63.487-137.12-118.315-181.857-170.407c-22.94-26.711-39.477-51.011-50.557-74.288
				C27.639,366.654,22,343.383,22,319.882c0-37.843,12.836-72.985,36.145-98.954c11.45-12.756,24.935-22.728,40.081-29.637
				C114.103,184.049,131.418,180.376,149.692,180.376 M149.692,158.376C61.497,158.376,0,232.16,0,319.882
				c0,118.496,125.571,218.269,290.025,360.792c2.185,1.894,4.899,2.84,7.614,2.84s5.43-0.946,7.614-2.84
				C470.1,537.811,595.28,438.213,595.28,319.882c0-43.013-14.675-83.194-41.322-113.144
				c-27.747-31.186-66.233-48.361-108.369-48.361c-46.075,0-88.119,17.86-121.584,51.649
				c-11.637,11.749-20.335,23.487-26.364,32.802c-6.029-9.314-14.728-21.051-26.364-32.802
				C237.811,176.236,195.768,158.376,149.692,158.376L149.692,158.376z"/>
		</g>
	</g>
</g>
<g>
	<g>
		<path fill="#40A3FF" d="M534.213,259.872c-2.982-5.688-10.011-7.878-15.696-4.897c-5.687,2.982-7.88,10.009-4.897,15.696
			c7.675,14.634,11.901,32.111,11.901,49.212c0,33.596-15.99,69.253-50.322,112.216c-4.009,5.016-3.191,12.332,1.824,16.341
			c5.048,4.034,12.357,3.16,16.341-1.824c37.803-47.306,55.41-87.577,55.41-126.733
			C548.774,298.787,543.739,278.036,534.213,259.872z"/>
	</g>
</g>
<g>
	<g>
		<path fill="#40A3FF" d="M409.255,381.224h-65.109v-65.109c0-6.421-5.205-11.626-11.626-11.626h-69.76
			c-6.421,0-11.626,5.205-11.626,11.626v65.109h-65.109c-6.421,0-11.626,5.205-11.626,11.626v69.76
			c0,6.421,5.205,11.626,11.626,11.626h65.109v65.109c0,6.421,5.205,11.626,11.626,11.626h69.76c6.421,0,11.626-5.205,11.626-11.626
			v-65.109h65.109c6.421,0,11.626-5.205,11.626-11.626v-69.76C420.881,386.429,415.676,381.224,409.255,381.224z"/>
	</g>
</g>
</svg>
