<?xml version="1.0" encoding="utf-8"?>
<!-- Generator: Adobe Illustrator 16.0.0, SVG Export Plug-In . SVG Version: 6.00 Build 0)  -->
<!DOCTYPE svg PUBLIC "-//W3C//DTD SVG 1.1//EN" "http://www.w3.org/Graphics/SVG/1.1/DTD/svg11.dtd">
<svg version="1.1" id="elements" xmlns="http://www.w3.org/2000/svg" xmlns:xlink="http://www.w3.org/1999/xlink" x="0px" y="0px"
	 width="491.698px" height="394.253px" viewBox="0 0 491.698 394.253" enable-background="new 0 0 491.698 394.253"
	 xml:space="preserve">
<g>
	<g>
		<g>
			<path fill="#FFF1D6" d="M369.218,149.938c0,42.176-32.386,109.491-74.562,109.491c-42.175,0-76.365-34.19-76.365-76.366
				s34.19-76.365,76.365-76.365C336.832,106.698,369.218,107.762,369.218,149.938z"/>
			<path opacity="0.3" fill="#F8CADA" d="M177.663,168.589c-17.077-22.125,30.359-88.52,51.712-105.001s52.506-11.906,69.583,10.219
				c17.076,22.125,35.033,81.176,13.68,97.657C291.285,187.946,194.74,190.714,177.663,168.589z"/>
			<g>
				<path fill="#E8DFF0" d="M282.654,204.177c0,42.04-26.634,76.121-42.805,76.121c-16.17,0-42.374-34.081-42.374-76.121
					c0-42.041,18.734-76.122,42.374-76.122C263.49,128.055,282.654,162.136,282.654,204.177z"/>
				<path fill="#CEC1DF" d="M236.795,167.626c0,0-31.739,10.444-27.252,15.192c5.402,5.718,1.253,13.432,0,24.566
					c-1.155,10.263,8.892,15.946,10.875,20.439c3.343,7.578-7.458,17.755-3.411,22.302s10.61,8.444,10.61,15.471
					c0,3.691,14.718,13.137,21.292,11.824c0,0-11.844,9.506-26.136-6.296c-10.572-11.688-15.948-20.979-19.598-31.073
					c-5.217-14.431-6.651-30.59-5.65-45.902c0.457-6.99,0.823-14.052,2.685-21.7c2.251-9.249,7.529-19.108,7.529-19.108
					S224.281,172.167,236.795,167.626z"/>
				<path fill="#51337B" d="M239.613,280.848c-4.566,0-7.854-2.097-9.146-3.084c-0.39-0.299-0.816-0.573-1.229-0.84
					c-7.924-5.11-15.49-15.423-19.927-23.369c-6.006-10.756-8.475-19.545-10.097-26.724c-3.221-14.246-1.82-40.811-1.806-41.078
					c0.012-0.214,0.178-0.383,0.411-0.368c0.215,0.012,0.381,0.196,0.369,0.411c-0.015,0.265-1.41,26.724,1.788,40.862
					c1.611,7.125,4.061,15.846,10.018,26.516c4.392,7.864,11.865,18.062,19.669,23.095c0.425,0.273,0.865,0.557,1.28,0.874
					c2.085,1.595,9.646,6.223,19.407-1.088c11.312-8.471,20.996-22.477,25.905-37.465c4.283-13.071,8.523-33.246,4.4-55.13
					c-0.039-0.212,0.1-0.417,0.312-0.456c0.208-0.039,0.416,0.099,0.456,0.311c4.153,22.047-0.114,42.36-4.425,55.518
					c-4.958,15.135-14.745,29.283-26.18,37.847C246.621,279.823,242.804,280.848,239.613,280.848z"/>
			</g>
			<g>
				<polygon fill="#FFFFFF" points="238.334,98.313 240.933,76.878 243.314,98.313 				"/>
				<circle fill="#E8DFF0" cx="240.824" cy="78.935" r="4.655"/>
				<path fill="#CEC1DF" d="M240.824,83.59c0,0,0.42-2.024-0.229-2.024s-2.41-1.137-2.261-1.948c0.15-0.812,1.287-1.245,0.854-2.111
					s0.217-2.885,0.975-3.174c0,0-3.297,0.631-3.949,3.987C235.561,81.674,238.672,83.558,240.824,83.59z"/>
				<path fill="#51337B" d="M238.891,94.112c-0.016,0-0.032-0.001-0.048-0.003c-0.213-0.026-0.366-0.221-0.34-0.435l1.133-9.35
					c0.026-0.214,0.228-0.364,0.435-0.341c0.213,0.026,0.366,0.221,0.34,0.435l-1.133,9.349
					C239.254,93.967,239.086,94.112,238.891,94.112z"/>
				<path fill="#51337B" d="M242.803,94.112c-0.195,0-0.365-0.148-0.387-0.348l-1.039-9.349c-0.024-0.214,0.13-0.407,0.345-0.431
					c0.221-0.023,0.408,0.13,0.432,0.345l1.039,9.35c0.023,0.214-0.131,0.407-0.345,0.431
					C242.832,94.111,242.817,94.112,242.803,94.112z"/>
				<path fill="#51337B" d="M240.718,83.946c-0.233,0-0.476-0.012-0.729-0.037c-0.582-0.057-2.208-0.634-3.267-1.978
					c-0.794-1.008-1.099-2.217-0.907-3.595c0.195-1.404,0.846-2.525,1.933-3.333c1.544-1.145,3.615-1.341,5.409-0.514
					c0.501,0.231,0.911,0.522,1.219,0.863c0.145,0.16,0.132,0.407-0.028,0.551c-0.161,0.145-0.408,0.131-0.552-0.028
					c-0.236-0.262-0.563-0.49-0.967-0.676c-1.51-0.697-3.322-0.527-4.615,0.431c-0.913,0.678-1.459,1.624-1.625,2.813
					c-0.162,1.158,0.09,2.169,0.747,3.003c0.911,1.157,2.337,1.646,2.727,1.684c2.081,0.204,3.607-0.535,4.529-2.196l0,0
					c-0.002,0,0.947-2.182,0.063-3.877c-0.1-0.191-0.026-0.427,0.165-0.527c0.191-0.099,0.429-0.026,0.527,0.166
					c1.063,2.038-0.011,4.485-0.057,4.588C244.591,82.546,243.254,83.946,240.718,83.946z"/>
			</g>
			<g>
				<path fill="#FFFFFF" d="M262.476,164.664c0,0.006,0,0.006,0,0.013c0,6.639-10.178,12.017-22.734,12.017
					s-22.735-5.378-22.735-12.017c0-0.078,0-0.162,0.007-0.24c6.996,2.449,14.485,3.268,22.728,3.268
					C247.731,167.704,255.643,166.963,262.476,164.664z"/>
				<path fill="#51337B" d="M240.576,177.213c-2.748,0-5.615-0.276-8.558-0.835c-13.369-2.541-15.314-9.94-15.391-10.254
					c-0.05-0.209,0.078-0.419,0.287-0.471c0.209-0.053,0.42,0.077,0.472,0.285c0.019,0.072,1.943,7.234,14.779,9.673
					c9.594,1.825,18.356,0.592,24.665-3.469c0.181-0.117,0.423-0.065,0.54,0.117c0.117,0.181,0.064,0.423-0.117,0.54
					C252.72,175.715,246.973,177.213,240.576,177.213z"/>
				<path fill="#51337B" d="M258.786,171.627c-0.121,0-0.24-0.057-0.316-0.163c-0.126-0.175-0.087-0.419,0.089-0.545
					c3.382-2.435,3.526-5.52,3.527-5.55c0.008-0.215,0.188-0.37,0.402-0.377c0.216,0.007,0.385,0.186,0.379,0.4
					c-0.005,0.142-0.143,3.49-3.853,6.161C258.946,171.603,258.866,171.627,258.786,171.627z"/>
			</g>
			<g>
				
					<rect x="184.281" y="166.688" transform="matrix(-0.7685 -0.6398 0.6398 -0.7685 214.5484 443.2537)" fill="#51337B" width="6.342" height="32.261"/>
				<path fill="#CEC1DF" d="M199.396,180.293l8.742-7.764c3.339-2.966,3.645-8.124,0.679-11.463l0,0
					c-2.965-3.339-8.124-3.645-11.462-0.679l-8.742,7.764c-3.339,2.966-3.645,8.124-0.679,11.463l0,0
					C190.898,182.953,196.057,183.259,199.396,180.293z"/>
				<path fill="#FFFFFF" d="M170.94,203.853L170.94,203.853c2.697,1.972,6.516,1.378,8.487-1.318l1.385-1.894
					c1.971-2.697,1.378-6.516-1.319-8.487l0,0c-2.696-1.971-6.516-1.378-8.487,1.318l-1.384,1.894
					C167.65,198.063,168.244,201.881,170.94,203.853z"/>
				<circle fill="#E8DFF0" cx="170.156" cy="204.925" r="8.847"/>
				<path fill="#51337B" d="M194.346,182.905c-1.131,0-2.468-0.253-3.976-0.982c-2.893-1.4-4.807-3.987-5.121-6.921
					c-0.234-2.194,0.427-4.229,1.965-6.05l4.254-3.86c0.159-0.144,0.406-0.133,0.551,0.027c0.145,0.16,0.133,0.407-0.027,0.552
					l-4.218,3.823c-1.359,1.614-1.959,3.452-1.749,5.425c0.284,2.664,2.036,5.019,4.684,6.3c4.361,2.109,7.092-0.125,7.207-0.222
					l5.318-4.611c3.122-2.701,5.586-4.835,6.589-6.593c1.878-3.296,0.409-5.025,0.345-5.098c-0.141-0.161-0.128-0.407,0.032-0.55
					c0.161-0.143,0.403-0.131,0.548,0.028c0.079,0.087,1.926,2.192-0.247,6.007c-1.068,1.874-3.454,3.938-6.757,6.796l-5.321,4.613
					C198.335,181.667,196.845,182.905,194.346,182.905z"/>
				<path fill="#51337B" d="M193.768,163.963c-0.099,0-0.197-0.038-0.274-0.112c-0.154-0.151-0.155-0.398-0.004-0.552
					c0.192-0.195,4.74-4.786,7.836-5.197c2.51-0.334,4.192,0.453,4.264,0.487c0.193,0.093,0.276,0.325,0.184,0.52
					c-0.092,0.195-0.326,0.277-0.52,0.186c-0.015-0.007-1.555-0.717-3.825-0.418c-2.831,0.375-7.337,4.924-7.382,4.97
					C193.97,163.924,193.869,163.963,193.768,163.963z"/>
				<path fill="#51337B" d="M177.611,190.075c-0.088,0-0.177-0.03-0.25-0.091c-0.166-0.138-0.188-0.384-0.05-0.55l8.621-10.357
					c0.14-0.166,0.385-0.188,0.551-0.05s0.188,0.384,0.05,0.55l-8.622,10.357C177.833,190.027,177.723,190.075,177.611,190.075z"/>
				<path fill="#51337B" d="M182.664,193.917c-0.088,0-0.177-0.029-0.25-0.09c-0.166-0.138-0.188-0.384-0.05-0.55l8.44-10.14
					c0.14-0.166,0.385-0.188,0.551-0.05c0.166,0.138,0.188,0.384,0.05,0.55l-8.44,10.139
					C182.887,193.869,182.776,193.917,182.664,193.917z"/>
				<path fill="#51337B" d="M179.755,202.477c-0.08,0-0.161-0.025-0.23-0.075c-0.174-0.128-0.212-0.372-0.085-0.546l0.762-1.041
					c0.054-0.062,1.95-2.052,1.771-4.396c-0.102-1.341-0.865-2.562-2.27-3.629c-2.875-2.183-5.179-1.408-6.295-0.75
					c-1.012,0.595-1.877,1.379-2.573,2.33l-0.564,0.771c-0.127,0.175-0.372,0.211-0.545,0.084c-0.175-0.127-0.212-0.371-0.085-0.545
					l0.564-0.771c0.758-1.038,1.703-1.894,2.808-2.543c1.285-0.755,3.924-1.656,7.163,0.803c1.591,1.208,2.458,2.621,2.577,4.197
					c0.203,2.697-1.867,4.861-1.956,4.951l-0.726,0.999C179.993,202.421,179.875,202.477,179.755,202.477z"/>
				<path fill="#51337B" d="M170.388,214.122c-1.599,0-3.249-0.435-4.791-1.264l-0.322-0.173c-0.19-0.103-0.261-0.339-0.159-0.529
					c0.103-0.19,0.338-0.261,0.529-0.159l0.322,0.173c1.512,0.813,3.125,1.212,4.681,1.167c2.157-0.071,3.379-0.89,3.391-0.897
					c0.029-0.02,0.063-0.037,0.097-0.049c0.156-0.053,3.813-1.359,4.468-7.1c0.661-5.786-4.351-7.78-6.237-8.531
					c-1.229-0.489-3.486-0.686-5.795,0.368c-1.44,0.657-3.369,2.049-4.382,4.952c-1.912,5.479,2.013,8.854,2.052,8.889
					c0.166,0.139,0.187,0.385,0.048,0.55c-0.138,0.166-0.383,0.188-0.55,0.048c-0.044-0.036-4.375-3.762-2.287-9.743
					c1.104-3.164,3.217-4.686,4.794-5.406c2.084-0.952,4.599-1.102,6.408-0.383c1.843,0.733,7.453,2.966,6.725,9.346
					c-0.679,5.957-4.434,7.544-4.944,7.733c-0.264,0.168-1.578,0.933-3.761,1.004C170.58,214.12,170.484,214.122,170.388,214.122z"
					/>
			</g>
			<g>
				
					<rect x="288.543" y="165.93" transform="matrix(0.7071 -0.7071 0.7071 0.7071 -43.295 259.5971)" fill="#51337B" width="6.342" height="32.261"/>
				<path fill="#E8DFF0" d="M279.678,180.471l-8.706-7.804c-3.325-2.981-3.607-8.14-0.627-11.465l0,0
					c2.981-3.326,8.141-3.607,11.466-0.627l8.706,7.804c3.326,2.981,3.607,8.14,0.627,11.465l0,0
					C288.163,183.169,283.003,183.451,279.678,180.471z"/>
				<path fill="#FFFFFF" d="M311.448,202.301L311.448,202.301c2.648-2.398,2.852-6.528,0.453-9.175l-1.008-1.112
					c-2.398-2.647-6.527-2.852-9.175-0.453l0,0c-2.647,2.399-2.852,6.528-0.453,9.175l1.008,1.112
					C304.672,204.495,308.801,204.699,311.448,202.301z"/>
				<circle fill="#E8DFF0" cx="313.148" cy="204.177" r="9.286"/>
				<path fill="#51337B" d="M285.291,182.95c-1.761,0-3.54-0.667-4.985-1.89l-9.828-8.313c-0.215-0.222-4.56-4.823-2.341-8.514
					c0.112-0.185,0.352-0.243,0.536-0.133c0.185,0.111,0.245,0.351,0.134,0.536c-1.914,3.184,2.163,7.499,2.206,7.542l9.798,8.284
					c1.512,1.28,3.413,1.883,5.232,1.659c2.202-0.274,3.996-1.514,5.997-4.146c1.356-1.784,1.595-3.774,0.709-5.915
					c-0.421-1.018-1.092-1.959-1.996-2.799c-1.315-1.224-4.714-4.374-7.854-7.188c-3.802-3.408-6.533-3.194-6.56-3.191
					c-0.211,0.019-0.404-0.136-0.427-0.35c-0.021-0.214,0.133-0.405,0.347-0.427c0.122-0.014,3.071-0.279,7.161,3.387
					c3.145,2.819,6.548,5.973,7.864,7.198c0.985,0.917,1.722,1.95,2.186,3.072c0.688,1.661,1.105,4.168-0.809,6.686
					c-1.511,1.986-3.466,4.068-6.523,4.448C285.857,182.933,285.575,182.95,285.291,182.95z"/>
				<path fill="#51337B" d="M298.678,193.899c-0.101,0-0.2-0.038-0.276-0.114l-10.122-10.123c-0.152-0.152-0.152-0.399,0-0.552
					c0.152-0.153,0.399-0.153,0.552,0l10.123,10.122c0.152,0.152,0.152,0.399,0,0.552
					C298.877,193.861,298.777,193.899,298.678,193.899z"/>
				<path fill="#51337B" d="M303.108,189.36c-0.101,0-0.2-0.038-0.276-0.114l-10.015-10.014c-0.152-0.153-0.152-0.4,0-0.552
					c0.153-0.152,0.4-0.152,0.553,0l10.014,10.014c0.152,0.152,0.152,0.399,0,0.552C303.308,189.322,303.208,189.36,303.108,189.36z
					"/>
				<path fill="#51337B" d="M302.928,202.96c-0.088,0-0.175-0.029-0.248-0.089c-2.549-2.098-3.834-4.292-3.819-6.521
					c0.02-2.965,2.338-4.854,2.437-4.933c1.895-1.737,3.858-2.473,5.808-2.172c3.522,0.543,5.698,4.25,5.789,4.408
					c0.108,0.187,0.045,0.425-0.143,0.533c-0.187,0.107-0.425,0.044-0.533-0.143c-0.021-0.035-2.085-3.543-5.236-4.027
					c-1.703-0.26-3.448,0.409-5.177,1.993c-0.041,0.034-2.15,1.763-2.163,4.354c-0.01,1.98,1.179,3.966,3.534,5.905
					c0.167,0.138,0.19,0.384,0.054,0.55C303.152,202.911,303.04,202.96,302.928,202.96z"/>
				<path fill="#51337B" d="M313.184,213.877c-1.468,0-3.118-0.286-4.65-1.015c-1.912-0.91-4.315-2.854-4.903-6.952
					c-1.279-8.932,6.702-10.995,6.783-11.015c0.06-0.015,6.202-1.507,10.497,3.507c0.141,0.163,0.121,0.41-0.043,0.551
					c-0.161,0.14-0.41,0.122-0.55-0.043c-3.973-4.637-9.66-3.271-9.716-3.257c-0.304,0.075-7.376,1.926-6.198,10.146
					c0.538,3.754,2.726,5.529,4.465,6.357c2.892,1.376,6.317,1.041,7.582,0.283c2.449-1.468,6.087-3.647,5.219-10.839
					c-0.025-0.214,0.127-0.409,0.341-0.435c0.201-0.027,0.408,0.126,0.435,0.341c0.929,7.694-3.127,10.125-5.55,11.577
					C316.123,213.548,314.76,213.877,313.184,213.877z"/>
			</g>
			<g>
				<path fill="#E8DFF0" d="M287.25,131.132c0,15.439-6.289,26.545-22.694,32.54c-12.772,6.161-35.959,3.95-44.852,1.973
					c-16.105-6.087-27.254-19.252-27.254-34.513c0-21.053,21.219-36.175,47.4-36.175S287.25,110.079,287.25,131.132z"/>
				<path fill="#CEC1DF" d="M231.189,95.525c0,0-34.144,16.761-25.4,20.792c4.223,1.947,5.402,4.345,1.951,13.5
					c-2.068,5.485-4.985,5.49-5.198,11.8c-0.237,7.028,12.404,8.792,12.404,13.673c0,5.057,14.32,12.854,24.796,12.414
					c0,0-24.208,2.546-36.875-12.729c0,0-11.267-7.183-10.018-28.767C192.849,126.209,194.881,101.69,231.189,95.525z"/>
				<path fill="#51337B" d="M241.054,167.889c-3.341,0-13.996-0.144-21.545-1.863c-4.53-1.031-8.856-4.177-12.016-6.475l-0.18-0.131
					c-17.619-12.805-15.287-30.56-15.262-30.737c0.012-0.174,1.729-20.125,22.196-28.749c20.37-8.582,38.404-4.105,38.583-4.059
					c0.209,0.054,0.335,0.267,0.281,0.476c-0.054,0.208-0.27,0.335-0.476,0.281c-0.177-0.045-17.971-4.452-38.085,4.022
					c-20.032,8.44-21.708,27.918-21.723,28.113c-0.028,0.2-2.28,17.502,14.944,30.021l0.18,0.131
					c3.105,2.257,7.357,5.349,11.731,6.345c8.92,2.031,22.267,1.84,22.402,1.837c0.001,0,0.004,0,0.006,0
					c0.212,0,0.387,0.17,0.391,0.384c0.004,0.216-0.169,0.394-0.385,0.397C242.075,167.884,241.703,167.889,241.054,167.889z"/>
				<path fill="#51337B" d="M246.396,167.929c-0.89,0-1.389-0.039-1.415-0.041c-0.215-0.019-0.375-0.207-0.356-0.422
					s0.214-0.375,0.422-0.356c0.154,0.012,15.381,1.154,30.681-9.996c0.121-0.081,10.811-7.49,11.016-25.136
					c0.206-17.716-15.087-30.732-30.299-34.432c-0.21-0.051-0.338-0.263-0.287-0.472s0.261-0.337,0.472-0.288
					c15.512,3.773,31.105,17.076,30.896,35.2c-0.211,18.075-11.237,25.692-11.349,25.767
					C263.368,167.088,250.578,167.929,246.396,167.929z"/>
				<g>
					<path fill="#FFFFFF" d="M258.524,150.721h-35.401c-6.368,0-11.529-5.162-11.529-11.53v-9.418
						c0-6.368,3.735-10.231,10.393-10.231c2.875,0,11.168,1.949,18.188,1.949c6.067,0,12.028-1.629,15.497-2.364
						c7.237-1.533,14.756,2.339,14.451,7.769c-0.049,0.871-0.069,1.967-0.069,2.877v9.418
						C270.054,145.559,264.893,150.721,258.524,150.721z"/>
					<path fill="#51337B" d="M259.664,151.11l-37.958-0.088c-0.027,0-0.053-0.002-0.079-0.008
						c-0.103-0.021-10.277-2.249-10.351-10.54c-0.061-6.749-0.002-10.908,0.017-12.022l0,0c0.004-0.212-0.001-0.417-0.01-0.63
						c-0.016-0.343-0.079-3.423,2.526-5.774c2.693-2.432,7.165-3.203,13.289-2.292c14.448,2.149,22.301,0.327,27.499-0.878
						c0.805-0.187,1.549-0.359,2.248-0.502c3.375-0.691,7.675,0.283,10.45,2.363c1.892,1.418,2.981,3.237,3.149,5.259
						c0.709,8.504,0.005,14.526-0.003,14.586C270.434,140.67,269.4,150.233,259.664,151.11z M221.751,150.241l37.879,0.09
						c9.063-0.818,10.027-9.742,10.035-9.832c0.009-0.068,0.703-6.018,0.001-14.437c-0.149-1.793-1.131-3.417-2.84-4.699
						c-2.608-1.956-6.646-2.871-9.826-2.223c-0.691,0.141-1.43,0.313-2.228,0.498c-5.255,1.218-13.194,3.06-27.789,0.89
						c-5.886-0.875-10.14-0.168-12.651,2.099c-2.339,2.111-2.284,4.854-2.27,5.16c0.011,0.229,0.015,0.45,0.012,0.679
						c-0.02,1.111-0.077,5.262-0.017,12.002C212.123,147.894,221.098,150.091,221.751,150.241z"/>
					<ellipse fill="#51337B" cx="228.212" cy="134.831" rx="2.977" ry="5.305"/>
					<ellipse fill="#51337B" cx="249.864" cy="134.831" rx="2.869" ry="5.305"/>
					<path fill="#51337B" d="M240.042,146.693c-4.202,0-7.314-1.48-7.508-1.575s-0.275-0.328-0.18-0.522
						c0.094-0.194,0.327-0.275,0.521-0.181c0.069,0.033,6.963,3.301,13.953-0.002c0.195-0.091,0.428-0.008,0.52,0.187
						c0.093,0.195,0.009,0.428-0.186,0.52C244.665,146.299,242.209,146.693,240.042,146.693z"/>
				</g>
			</g>
			<g>
				<g>
					<path fill="#FFFFFF" d="M262.367,216.316h-42.956c-2.456,0-4.466-2.01-4.466-4.467v-16.973c0-2.856,2.336-5.192,5.192-5.192
						h41.957c2.532,0,4.604,2.071,4.604,4.603v17.697C266.698,214.367,264.749,216.316,262.367,216.316z"/>
				</g>
				<path fill="#51337B" d="M214.945,203.825c-0.002,0-0.004,0-0.007,0c-0.215-0.003-0.387-0.181-0.384-0.396l0.095-5.653
					c0.038-2.203,0.801-4.271,2.151-5.821c1.537-1.765,3.535-2.66,5.939-2.66h36.163c0.216,0,0.391,0.175,0.391,0.391
					s-0.175,0.391-0.391,0.391H222.74c-2.168,0-3.969,0.804-5.351,2.392c-1.229,1.413-1.925,3.303-1.959,5.322l-0.095,5.652
					C215.332,203.655,215.158,203.825,214.945,203.825z"/>
				<path fill="#51337B" d="M247.835,217.047c-10.623,0-23.661-0.32-24.483-0.34c-0.3-0.019-7.025-0.487-8.164-5.051
					c-0.009-0.012-0.633-1.575-0.633-4.271c0-0.216,0.175-0.391,0.391-0.391s0.391,0.175,0.391,0.391
					c0,2.529,0.587,4.016,0.593,4.031c1.016,4.06,7.393,4.507,7.457,4.511c0.29,0.007,30.561,0.748,36.88,0.002
					c5.986-0.708,5.989-6.631,5.986-6.883c0-0.081,0.056-7.401,0-12.482c-0.053-4.788-5.154-6.156-5.206-6.168
					c-0.209-0.054-0.334-0.267-0.281-0.476c0.055-0.209,0.265-0.335,0.477-0.281c0.057,0.015,5.732,1.537,5.791,6.917
					c0.056,5.088,0.001,12.415,0,12.488c0.001,0.061,0.017,6.868-6.676,7.66C258.183,216.961,253.332,217.047,247.835,217.047z"/>
			</g>
			<g>
				<path fill="#FFFFFF" d="M167.615,66.618h-48.693c-3.521,0-6.403,2.881-6.403,6.403v20.547c0,3.522,2.882,6.403,6.403,6.403
					h40.298c1.273,5.249,10.139,10.456,10.139,10.456c-3.484-4.42-3.823-8.336-3.663-10.456h1.919c3.522,0,6.403-2.881,6.403-6.403
					V73.021C174.019,69.499,171.137,66.618,167.615,66.618z"/>
				<path fill="#E8DFF0" d="M166.227,76.849h-44.846c-0.416,0-0.756-0.34-0.756-0.756l0,0c0-0.416,0.34-0.756,0.756-0.756h44.846
					c0.416,0,0.756,0.34,0.756,0.756l0,0C166.983,76.508,166.643,76.849,166.227,76.849z"/>
				<path fill="#E8DFF0" d="M165.895,83.516h-44.846c-0.416,0-0.756-0.34-0.756-0.756l0,0c0-0.416,0.34-0.756,0.756-0.756h44.846
					c0.416,0,0.756,0.34,0.756,0.756l0,0C166.651,83.176,166.311,83.516,165.895,83.516z"/>
				<path fill="#E8DFF0" d="M166.227,90.718h-44.846c-0.416,0-0.756-0.34-0.756-0.756l0,0c0-0.416,0.34-0.756,0.756-0.756h44.846
					c0.416,0,0.756,0.34,0.756,0.756l0,0C166.983,90.378,166.643,90.718,166.227,90.718z"/>
				<path fill="#51337B" d="M156.12,100.292c-1.455,0-35.68-0.004-39.426-0.399c-3.992-0.422-4.476-6.06-4.494-6.299l-0.001-21.825
					c0-0.177,0.144-0.321,0.321-0.321c0.178,0,0.321,0.144,0.321,0.321v21.799c0.003,0.028,0.459,5.321,3.921,5.687
					c3.713,0.392,39.002,0.396,39.358,0.396c0.177,0,0.321,0.144,0.321,0.321C156.44,100.149,156.297,100.292,156.12,100.292z"/>
				<path fill="#51337B" d="M169.359,110.748c-0.047,0-0.095-0.01-0.139-0.031c-7.712-3.7-9.848-9.195-10.24-10.425h-1.216
					c-0.177,0-0.321-0.143-0.321-0.32c0-0.178,0.144-0.321,0.321-0.321h1.456c0.146,0,0.274,0.099,0.311,0.241
					c0.015,0.06,1.535,5.642,8.705,9.598c-1.117-1.646-2.881-4.971-2.861-9.519c0-0.092,0.04-0.179,0.109-0.24
					c0.069-0.059,0.162-0.089,0.251-0.077c0.038,0.004,3.749,0.45,5.104-0.835l0.065-0.062c1.436-1.362,2.792-2.649,2.792-5.188V78
					c0-0.177,0.144-0.321,0.321-0.321c0.178,0,0.321,0.144,0.321,0.321v15.568c0,2.815-1.521,4.259-2.993,5.654l-0.065,0.061
					c-1.313,1.247-4.232,1.128-5.262,1.043c0.104,6.037,3.54,9.845,3.576,9.884c0.104,0.113,0.113,0.284,0.021,0.408
					C169.555,110.702,169.458,110.748,169.359,110.748z"/>
				<path fill="#51337B" d="M174.019,77.169c-0.177,0-0.321-0.144-0.321-0.321v-4.772c-0.112-0.477-1.332-5.138-6.083-5.138h-48.693
					c-0.174-0.016-3.669-0.275-5.288,3.091c-0.076,0.16-0.269,0.227-0.428,0.15c-0.16-0.077-0.227-0.269-0.15-0.428
					c1.814-3.774,5.853-3.459,5.895-3.454l48.665-0.001c5.422,0,6.705,5.619,6.717,5.676c0.005,0.022,0.008,0.045,0.008,0.068v4.808
					C174.34,77.026,174.196,77.169,174.019,77.169z"/>
			</g>
			<path fill="#7A5CA4" d="M181.766,58.375h-3.954c-0.471-0.796-1.032-1.538-1.683-2.188l2.673-3.192l-3.096-2.597l-2.922,3.49
				c-0.803-0.36-1.662-0.63-2.555-0.79v-4.12h-4.044v4.12c-0.804,0.146-1.579,0.367-2.306,0.679l-2.825-3.379l-3.096,2.597
				l2.521,3.019c-0.727,0.692-1.357,1.489-1.876,2.361h-4.217v4.037h2.77c-0.083,0.554-0.146,1.115-0.146,1.69
				c0,0.623,0.069,1.232,0.167,1.828l-2.999,0.873l1.122,3.878l3.248-0.942c0.422,0.72,0.921,1.385,1.482,1.995l-1.939,3.358
				l3.497,2.022l1.71-2.964c0.907,0.443,1.87,0.769,2.888,0.956v4.141h4.044v-4.141c0.9-0.166,1.759-0.436,2.569-0.803l1.62,2.812
				l3.504-2.022l-1.787-3.088c0.637-0.644,1.191-1.364,1.662-2.147l2.846,0.824l1.122-3.878l-2.549-0.741
				c0.118-0.637,0.187-1.288,0.187-1.959c0-0.575-0.062-1.136-0.145-1.69h2.507V58.375z M167.971,71.671
				c-4.169,0-7.555-3.386-7.555-7.555c0-4.176,3.386-7.555,7.555-7.555c4.175,0,7.555,3.379,7.555,7.555
				C175.526,68.285,172.146,71.671,167.971,71.671z"/>
		</g>
		<g>
			<g>
				<path fill="#51337B" d="M488.164,394.253h-81.092c-0.276,0-0.5-0.224-0.5-0.5s0.224-0.5,0.5-0.5h81.092
					c0.276,0,0.5,0.224,0.5,0.5S488.44,394.253,488.164,394.253z"/>
				<path fill="#51337B" d="M400.141,394.253h-15.248c-0.276,0-0.5-0.224-0.5-0.5s0.224-0.5,0.5-0.5h15.248
					c0.276,0,0.5,0.224,0.5,0.5S400.417,394.253,400.141,394.253z"/>
			</g>
			<g>
				<g>
					<path fill="#E8DFF0" d="M482.284,387.517c0.146,0.29-0.7-13.567-0.7-13.567l-7.644,2.061l2.089,11.864l6.401-0.067
						L482.284,387.517z"/>
					<path fill="#51337B" d="M474.291,387.007c1.337-0.559,1.702-0.058,2.549,0.061c1.373,0.19,3.589,0.362,5.051-0.211
						c2.248-0.883,2.248,4.119,1.954,6.473h-23.032c0,0-0.779-6.812,3.909-6.576C468.163,386.926,472.372,387.808,474.291,387.007z"
						/>
					<path fill="#51337B" d="M475.69,386.455c-0.237,0-0.448-0.171-0.491-0.413l-0.498-2.827c-0.048-0.272,0.134-0.531,0.405-0.579
						c0.265-0.054,0.53,0.133,0.579,0.405l0.498,2.827c0.048,0.272-0.134,0.531-0.405,0.579
						C475.749,386.453,475.72,386.455,475.69,386.455z"/>
					<path fill="#51337B" d="M482.105,386.26c-0.276,0-0.5-0.224-0.5-0.5v-2.808c0-0.276,0.224-0.5,0.5-0.5s0.5,0.224,0.5,0.5v2.808
						C482.605,386.036,482.382,386.26,482.105,386.26z"/>
					<path fill="#51337B" d="M478.366,388.029c-1.848,0-2.823-0.434-2.884-0.462c-0.251-0.115-0.36-0.412-0.245-0.663
						c0.115-0.252,0.414-0.358,0.66-0.246c0.03,0.012,2.052,0.875,5.872-0.085c0.269-0.066,0.539,0.096,0.607,0.363
						c0.066,0.269-0.096,0.54-0.363,0.607C480.559,387.908,479.341,388.029,478.366,388.029z"/>
					<path fill="#51337B" d="M483.986,393.295c-0.275,0-0.499-0.223-0.5-0.498l-0.007-1.872c0.103-2.396-1.027-3.725-1.039-3.737
						c-0.181-0.209-0.158-0.524,0.05-0.706c0.209-0.181,0.523-0.158,0.706,0.05c0.057,0.066,1.401,1.647,1.283,4.413l0.007,1.849
						c0.001,0.276-0.222,0.501-0.498,0.502C483.987,393.295,483.987,393.295,483.986,393.295z"/>
					<path fill="#51337B" d="M460.781,393.408c-0.276,0-0.5-0.224-0.5-0.5v-1.26c0.341-3.042,1.021-4.395,2.515-5.048
						c0.707-0.31,3-0.213,6.987,0.078c0.81,0.059,1.467,0.107,1.794,0.115c1.188,0.047,3.195-0.523,3.215-0.528
						c0.269-0.078,0.542,0.082,0.616,0.347c0.074,0.266-0.081,0.542-0.347,0.616c-0.088,0.024-2.185,0.6-3.51,0.565
						c-0.337-0.009-1.01-0.058-1.842-0.118c-1.914-0.14-5.899-0.429-6.514-0.159c-0.962,0.421-1.585,1.241-1.918,4.188l0.003,1.203
						C461.281,393.185,461.058,393.408,460.781,393.408z"/>
				</g>
				<g>
					<path fill="#E8DFF0" d="M463.177,387.478c0.158,0.284-1.24-13.528-1.24-13.528l-7.555,2.363l2.559,11.771l6.395-0.322
						L463.177,387.478z"/>
					<path fill="#51337B" d="M455.17,386.899c1.313-0.611,1.698-0.125,2.55-0.041c1.379,0.136,3.6,0.22,5.037-0.412
						c2.212-0.971,2.354,4.519,2.154,6.883l-23.185,0.424c0,0-0.822-6.774,3.871-6.726
						C449.043,387.063,453.284,387.776,455.17,386.899z"/>
					<path fill="#51337B" d="M455.916,385.724l-1-4.601c-0.059-0.271,0.112-0.536,0.382-0.595c0.273-0.059,0.536,0.112,0.595,0.382
						l1,4.601L455.916,385.724z"/>
					<path fill="#51337B" d="M459.295,387.699c-1.542,0-2.739-0.453-2.825-0.486c-0.258-0.1-0.385-0.389-0.285-0.646
						c0.099-0.257,0.386-0.384,0.646-0.287c0.031,0.015,3.229,1.211,5.631-0.544c0.223-0.162,0.535-0.113,0.699,0.109
						c0.162,0.224,0.113,0.536-0.109,0.699C461.824,387.44,460.461,387.699,459.295,387.699z"/>
					<path fill="#51337B" d="M463.016,385.604c-0.255,0-0.473-0.194-0.497-0.453l-0.382-4.087c-0.025-0.275,0.177-0.519,0.451-0.545
						c0.285-0.015,0.52,0.177,0.545,0.451l0.382,4.087c0.025,0.275-0.177,0.519-0.451,0.545
						C463.047,385.603,463.031,385.604,463.016,385.604z"/>
					<path fill="#51337B" d="M443.622,388.062c-0.187,0-0.366-0.105-0.452-0.284c-0.118-0.249-0.014-0.547,0.235-0.667
						c0.028-0.014,0.715-0.34,1.715-0.561c0.96-0.213,2.3-0.081,3.848,0.075c0.712,0.07,1.461,0.146,2.213,0.188
						c2.171,0.119,4.036-0.531,4.055-0.537c0.258-0.091,0.546,0.041,0.64,0.302c0.093,0.26-0.042,0.546-0.301,0.64
						c-0.083,0.03-2.055,0.729-4.45,0.594c-0.767-0.043-1.529-0.119-2.256-0.191c-1.402-0.14-2.728-0.271-3.532-0.094
						c-0.881,0.194-1.493,0.483-1.499,0.486C443.768,388.046,443.694,388.062,443.622,388.062z"/>
					<path fill="#51337B" d="M442.226,392.86l-0.998-0.063c0.003-0.041,0.063-0.999,0.132-1.433c0.285-1.818,0.985-3.19,1.015-3.248
						c0.127-0.245,0.428-0.343,0.673-0.215c0.245,0.126,0.342,0.428,0.216,0.673c-0.006,0.013-0.656,1.294-0.915,2.945
						C442.284,391.923,442.226,392.86,442.226,392.86z"/>
				</g>
			</g>
			<g>
				<path fill="#F9B234" d="M442.696,274.651c0,0-5.258,56.003-4.426,63.488c0.779,7.013,12.995,34.223,15.219,41.05
					c0.212,0.653,0.818,1.09,1.505,1.09h8.816c0,0-3.047-30.496-8.629-39.091l5.545-26.614c0,0,0.832,22.179,2.495,26.614
					c1.663,4.437,9.703,39.923,11.09,40.755c1.386,0.831,8.316,0,8.316,0s1.211-32.898-2.818-46.854c0,0,1.433-19.199,2.542-24.016
					c1.108-4.817,4.156-29.215,1.108-37.255L442.696,274.651z"/>
				<path opacity="0.5" fill="#F9B234" d="M471.391,276.104c0,0-27.144,7.22-22.361,15.953c2.604,4.756,2.034,14.971-2.807,20.624
					c-5.232,6.11-7.628,26.634-3.526,28.031c2.206,0.751,10.628,3.119,8.367,10.813c-0.887,3.021,0.999,20.576,3.318,22.424
					c4.477,3.567,8.547-1.042,8.953,2.144c0.559,4.371,3.299,6.033-9.35,4.398c-0.4-0.052-0.752-0.3-0.893-0.677l-14.653-39.102
					c0,0-1.084,0.683,0.357-18.634c1.442-19.316,2.778-45.21,2.778-45.21L471.391,276.104z"/>
				<path opacity="0.5" fill="#F9B234" d="M460.727,314.574c0,0,0.798,23.158,3.828,23.99c3.031,0.831,6.03,9.287,4.437,11.505
					c-1.195,1.663,4.89,25.281,6.445,25.576c2.749,0.52,0.52,5.371,7.191,6.298c0,0-3.085,1.536-8.014,0.521
					c-0.415-0.085-0.744-0.407-0.855-0.815c-0.527-1.932-2.105-7.741-3.428-12.967c-1.615-6.38-7.436-28.626-7.436-28.626
					S461.09,336.416,460.727,314.574z"/>
				<path fill="#51337B" d="M441.142,348.381c-0.203,0-0.395-0.125-0.469-0.327c-0.603-1.631-2.959-10.604-2.986-13.061
					c-0.027-2.363,1.747-28.304,1.822-29.407l2.365-27.458c0.023-0.275,0.273-0.474,0.541-0.455
					c0.275,0.023,0.479,0.266,0.455,0.541l-2.364,27.449c-0.018,0.261-1.846,26.995-1.819,29.318
					c0.025,2.311,2.35,11.17,2.924,12.727c0.096,0.259-0.036,0.546-0.296,0.642C441.258,348.371,441.199,348.381,441.142,348.381z"
					/>
				<path fill="#51337B" d="M463.811,380.779h-7.112c-3.132,0-3.624-1.053-3.697-1.465l-11.72-29.609
					c-0.102-0.256,0.024-0.547,0.281-0.648c0.252-0.104,0.546,0.023,0.648,0.281l11.743,29.668c0.021,0.055,0.034,0.113,0.035,0.173
					c0.004-0.017,0.24,0.601,2.709,0.601h6.559c-0.458-4.42-3.693-34.04-8.407-38.217c-0.135-0.119-0.194-0.302-0.157-0.478
					c1.455-6.848,4.232-20.045,4.333-20.98c0.03-0.274,0.279-0.472,0.551-0.443c0.274,0.029,0.473,0.276,0.443,0.551
					c-0.124,1.155-3.765,18.328-4.291,20.81c5.234,5.431,8.444,37.815,8.58,39.209c0.014,0.141-0.033,0.28-0.128,0.385
					S463.951,380.779,463.811,380.779z"/>
				<path fill="#51337B" d="M470.562,370.077c-0.224,0-0.427-0.15-0.484-0.377c-0.263-1.036-6.442-25.407-6.761-27.424
					c-0.077-0.495-0.225-1.22-0.407-2.126c-0.551-2.724-1.473-7.283-1.803-12.05c-0.431-6.208-2.722-26.863-2.745-27.07
					c-0.03-0.275,0.167-0.522,0.441-0.553c0.279-0.029,0.522,0.168,0.553,0.441c0.023,0.209,2.316,20.884,2.749,27.113
					c0.325,4.701,1.238,9.22,1.784,11.92c0.188,0.924,0.337,1.664,0.416,2.168c0.311,1.973,6.677,27.081,6.741,27.334
					c0.068,0.268-0.094,0.54-0.361,0.607C470.644,370.072,470.602,370.077,470.562,370.077z"/>
				<path fill="#51337B" d="M476.392,382.804c-2.771,0-3.091-1.735-3.104-1.81l-2.675-9.229c-0.076-0.265,0.076-0.542,0.342-0.619
					c0.263-0.08,0.542,0.076,0.619,0.342l2.688,9.286c0.02,0.088,0.27,1.085,2.244,1.029c1.935-0.038,4.582-0.237,5.628-0.32
					c0.04-3.578,0.276-27.035-0.33-30.067c-0.252-1.256-0.383-3.026-0.534-5.076c-0.276-3.744-0.62-8.403-1.909-11.028
					c-0.04-0.082-0.057-0.173-0.049-0.264c0.083-0.954,2.036-23.396,3.025-26.605c0.021-0.169,3.707-23.952,1.439-31.261
					c-0.082-0.264,0.065-0.544,0.329-0.626c0.27-0.084,0.544,0.066,0.626,0.329c2.336,7.529-1.269,30.796-1.423,31.782
					c-0.935,3.05-2.82,24.409-2.989,26.331c1.323,2.809,1.654,7.299,1.948,11.269c0.143,1.933,0.277,3.759,0.517,4.953
					c0.675,3.37,0.358,29.615,0.345,30.73c-0.003,0.258-0.201,0.471-0.457,0.492c-0.036,0.003-3.663,0.313-6.146,0.361
					C476.48,382.804,476.436,382.804,476.392,382.804z"/>
			</g>
			<g>
				<g>
					<path fill="#E8DFF0" d="M405.207,227.006c0.832,1.095-6.718-1.939-8.381-5.104c-1.664-3.163-8.04-9.763-10.259-7.711
						c-2.218,2.053-10.258-5.705-13.861-4.042c-3.604,1.664,7.485,6.095,7.485,6.095s-3.945,3.546-1.2,6.732
						c4.111,4.773,13.537,5.05,19.775,11.385C400.514,236.136,405.207,227.006,405.207,227.006z"/>
					<path fill="#51337B" d="M393.104,217.7c-0.155,0-0.31-0.072-0.407-0.208c-0.011-0.017-1.174-1.613-3.402-2.652
						c-1.707-0.794-2.264-0.452-2.802-0.118c-0.153,0.096-0.301,0.186-0.455,0.254c-0.825,0.37-3.034-0.619-4.276-1.241
						c-0.247-0.124-0.347-0.424-0.224-0.671c0.124-0.246,0.428-0.347,0.671-0.224c1.485,0.743,3.085,1.311,3.433,1.218
						c0.104-0.046,0.211-0.115,0.324-0.186c0.818-0.509,1.722-0.885,3.751,0.062c2.48,1.155,3.742,2.904,3.795,2.978
						c0.16,0.225,0.107,0.536-0.117,0.696C393.306,217.671,393.204,217.7,393.104,217.7z"/>
					<path fill="#51337B" d="M400.319,225.629c-0.085,0-0.171-0.021-0.25-0.067c-0.772-0.449-3.307-2.008-3.525-3.221
						c-0.116-0.645-1.636-2.503-2.678-3.616c-0.188-0.202-0.178-0.519,0.023-0.707c0.202-0.188,0.519-0.179,0.707,0.023
						c0.452,0.484,2.722,2.957,2.932,4.122c0.092,0.51,1.647,1.722,3.043,2.533c0.239,0.14,0.32,0.445,0.182,0.684
						C400.659,225.54,400.492,225.629,400.319,225.629z"/>
					<path fill="#51337B" d="M396.495,232.896c-0.092,0-0.185-0.025-0.269-0.078c-0.034-0.021-3.438-2.181-4.926-2.833
						c-0.396-0.174-1.119-0.465-2.002-0.819c-2.562-1.03-6.433-2.586-7.696-3.452c-0.183-0.124-0.378-0.252-0.581-0.384
						c-1.68-1.095-3.98-2.593-3.42-5.625c0.05-0.272,0.313-0.454,0.582-0.4c0.271,0.05,0.451,0.311,0.4,0.582
						c-0.438,2.377,1.38,3.561,2.983,4.605c0.209,0.137,0.411,0.268,0.6,0.397c1.174,0.804,5.137,2.396,7.505,3.349
						c0.896,0.359,1.629,0.654,2.031,0.831c1.557,0.684,4.918,2.814,5.061,2.905c0.232,0.147,0.302,0.457,0.153,0.69
						C396.822,232.814,396.66,232.896,396.495,232.896z"/>
					<path fill="#51337B" d="M378.578,218.883c-0.105,0-0.211-0.033-0.301-0.101c-0.221-0.167-0.265-0.48-0.099-0.7l1.212-1.607
						c-2.337-0.9-7.424-3.007-7.881-4.426c-0.204-0.63-0.073-1.222,0.365-1.668c0.752-0.762,2.285-0.959,3.82-0.487
						c2.054,0.63,6.339,2.855,6.52,2.95c0.245,0.127,0.341,0.43,0.213,0.674c-0.128,0.247-0.431,0.34-0.674,0.213
						c-0.044-0.022-4.386-2.278-6.352-2.882c-1.288-0.396-2.413-0.175-2.814,0.234c-0.175,0.177-0.215,0.386-0.127,0.659
						c0.244,0.757,4.294,2.684,7.905,4.033c0.148,0.056,0.261,0.178,0.306,0.329c0.044,0.151,0.014,0.314-0.081,0.44l-1.613,2.139
						C378.879,218.814,378.729,218.883,378.578,218.883z"/>
				</g>
				<g>
					<path fill="#E65093" d="M429.565,232.343c1.65-8.097,8.289-33.65,24.103-33.564c0,0-8.81,51.386-19.834,52.585
						c-16.568,1.802-36.872-17.924-36.872-17.924s2.356-7.479,5.405-8.311c0,0,18.47,5.865,24.737,8.512
						C428.152,234.083,429.339,233.457,429.565,232.343z"/>
					<path fill="#51337B" d="M431.532,225.062c-0.04,0-0.08-0.005-0.121-0.015c-0.268-0.067-0.431-0.339-0.364-0.606
						c0.146-0.586,3.66-14.413,10.754-20.702c7.129-6.319,13.537-6.121,13.814-6.127c0.275,0.012,0.489,0.243,0.479,0.52
						c-0.01,0.27-0.232,0.48-0.5,0.48c-0.009,0,0.048-0.002-0.084-0.001c-0.688,0-6.613,0.175-13.045,5.876
						c-6.861,6.083-10.412,20.056-10.447,20.196C431.961,224.91,431.757,225.062,431.532,225.062z"/>
					<path fill="#51337B" d="M432.273,251.665c-4.069,0-9.503-1.252-11.771-2.032c-3.185-1.096-9.996-5.116-12.768-6.926
						c-2.889-1.886-10.765-8.603-11.098-8.888c-0.145-0.123-0.207-0.317-0.16-0.502c0.666-2.643,3.288-6.746,4.455-7.963
						c0.488-0.51,1.009-0.768,1.55-0.768c0.003,0,0.006,0,0.009,0c0.527,0.003,0.907,0.256,1.085,0.403l10.375,3.397
						c0.263,0.086,0.406,0.369,0.32,0.631c-0.087,0.263-0.37,0.403-0.631,0.32l-10.477-3.431c-0.08-0.026-0.152-0.072-0.21-0.134
						c-0.002-0.002-0.19-0.174-0.479-0.188c-0.255,0.003-0.53,0.157-0.819,0.459c-1.032,1.077-3.395,4.759-4.127,7.219
						c1.373,1.166,8.196,6.936,10.754,8.604c2.736,1.787,9.443,5.751,12.547,6.818c2.937,1.012,11.953,2.982,14.848,1.419
						c2.812-1.517,3.717-4.368,3.726-4.397c0.081-0.263,0.356-0.412,0.625-0.331c0.264,0.08,0.412,0.359,0.332,0.623
						c-0.04,0.133-1.023,3.269-4.208,4.986C435.249,251.474,433.865,251.665,432.273,251.665z"/>
				</g>
			</g>
			<g>
				<path fill="#E65093" d="M473.271,198.182c1.643-1.272,8.168,1.805,10.888,3.529c3.827,2.425,3.985,5.382,3.499,12.27
					c-1.171,16.595-3.158,52.354-2.882,61.78l-43.201,1.108c0,0-2.491-66.537,1.121-70.973c2.213-2.717,2.144-4.941,5.803-6.419
					c2.316-0.935,9.1-1.843,9.164-1.198c0.124,1.248-0.209,3.705,6.391,3.25C466.253,201.378,469.867,200.819,473.271,198.182z"/>
				<path opacity="0.5" fill="#E65093" d="M451.063,198.771c-1.832,0.282-5.578,2.077-6.766,3.502
					c-1.769,2.124-3.571,6.058-3.561,13.267c0.022,14.139,0.838,61.33,0.838,61.33s31.228-0.802,29.815-0.765
					c-1.411,0.036-19.6-6.78-17.723-11.494c1.877-4.713,6.679-1.943,6.079-6.376c-0.6-4.434-0.067-23.766-3.659-25.329
					c-3.593-1.563-7.564-7.663-5.024-12.099c2.541-4.436,8.676-6.537,6.44-10.893c-2.236-4.355,12.979-4.97,15.768-11.732
					c0,0-3.509,2.903-7.053,2.872c-3.403-0.03-6.807-2.99-8.715-3.172C455.337,197.674,451.063,198.771,451.063,198.771z"/>
				<path fill="#51337B" d="M440.737,230.507c-0.274,0-0.498-0.222-0.5-0.496c-0.001-0.095-0.068-9.599,0.663-17.811
					c0.56-6.281,3.576-10.449,3.704-10.623c0.165-0.223,0.477-0.271,0.699-0.107c0.223,0.164,0.271,0.477,0.107,0.699
					c-0.03,0.04-2.98,4.13-3.515,10.119c-0.727,8.163-0.66,17.62-0.659,17.715c0.002,0.276-0.22,0.502-0.496,0.504
					C440.74,230.507,440.738,230.507,440.737,230.507z"/>
				<path fill="#51337B" d="M441.575,277.369c-0.128,0-0.252-0.049-0.345-0.138c-0.096-0.092-0.152-0.218-0.155-0.35l-0.763-31.007
					c-0.007-0.276,0.212-0.506,0.487-0.513c0.005,0,0.009,0,0.013,0c0.271,0,0.493,0.216,0.5,0.487l0.75,30.507l26.266-0.674
					c0.279,0.03,0.507,0.212,0.513,0.487c0.007,0.276-0.211,0.506-0.487,0.513l-26.766,0.687
					C441.584,277.369,441.579,277.369,441.575,277.369z"/>
				<path fill="#51337B" d="M470.562,276.625c-0.271,0-0.493-0.216-0.5-0.487c-0.007-0.276,0.211-0.506,0.487-0.513l13.747-0.353
					l1.564-40.488c0.012-0.275,0.213-0.482,0.52-0.48c0.275,0.011,0.491,0.243,0.48,0.52l-1.583,40.957
					c-0.011,0.264-0.224,0.474-0.487,0.48l-14.216,0.364C470.57,276.625,470.565,276.625,470.562,276.625z"/>
			</g>
			<g>
				<g>
					<path fill="#E65093" d="M463.079,238.893c0,0,4.578-24.818,15.787-37.145c3.983-4.381,12.106,5.581,12.034,11.518
						c-0.198,16.416-14.425,42.417-23.134,42.417c-11.09,0-35.457-15.825-35.457-15.825s3.02-8.016,6.069-8.848
						C438.379,231.01,460.029,237.229,463.079,238.893z"/>
					<path fill="#51337B" d="M467.096,256.288c-1.527,0-3.376-0.345-5.668-1.216c-7.932-3.016-29.146-14.659-29.359-14.776
						c-0.227-0.125-0.321-0.403-0.216-0.641c0.389-0.882,3.874-8.633,6.43-9.136c1.741-0.347,3.997,0.58,6.386,1.559
						c1.091,0.446,2.219,0.908,3.267,1.227c3.327,1.012,7.872,2.414,9.729,3.039c0.262,0.088,0.402,0.371,0.314,0.633
						s-0.37,0.407-0.633,0.314c-1.847-0.621-6.38-2.02-9.701-3.029c-1.093-0.332-2.243-0.803-3.354-1.259
						c-2.148-0.879-4.372-1.782-5.813-1.503c-1.476,0.291-4.082,4.979-5.521,8.141c2.98,1.629,21.565,11.735,28.828,14.496
						c6.737,2.563,9.184,0.316,11.341-1.667c0.312-0.285,0.616-0.564,0.924-0.823c2.42-2.032,11.441-18.322,11.997-19.668
						l0.211-0.492c4.654-10.72,4.83-16.549,4.157-19.551c-1.513-6.757-5.491-9.106-8.688-10.994l-0.437-0.258
						c-3.232-1.919-7.403-2.3-7.445-2.304c-0.275-0.023-0.479-0.267-0.455-0.541c0.024-0.275,0.265-0.472,0.541-0.455
						c0.18,0.016,4.443,0.405,7.87,2.44l0.435,0.257c3.362,1.985,7.547,4.457,9.155,11.636c0.704,3.147,0.545,9.201-4.217,20.167
						l-0.204,0.477c-0.519,1.257-9.656,17.851-12.278,20.052c-0.296,0.249-0.59,0.519-0.89,0.795
						C472.253,254.628,470.445,256.288,467.096,256.288z"/>
					<path fill="#51337B" d="M463.079,239.393c-0.062,0-0.123-0.012-0.182-0.034l-3.697-1.443c-0.258-0.101-0.385-0.391-0.284-0.647
						s0.391-0.387,0.647-0.284l3.184,1.243c0.882-3.131,5.233-18.502,6.455-21.257c0.112-0.253,0.408-0.365,0.66-0.254
						c0.252,0.112,0.366,0.407,0.254,0.66c-1.304,2.938-6.503,21.465-6.556,21.651c-0.038,0.136-0.132,0.25-0.258,0.313
						C463.232,239.375,463.155,239.393,463.079,239.393z"/>
				</g>
				<g>
					<path fill="#E8DFF0" d="M442.479,233.057c0.917,1.023-6.852-1.395-8.764-4.414c-1.913-3.02-8.799-9.086-10.845-6.861
						c-2.046,2.224-10.683-4.863-14.142-2.915c-3.459,1.947,7.95,5.473,7.95,5.473s-3.929,4.167-0.655,6.808
						c5.474,4.414,18.168,7.935,19.475,10.055C436.804,243.321,442.479,233.057,442.479,233.057z"/>
					<path fill="#51337B" d="M436.447,231.516c-0.082,0-0.165-0.021-0.242-0.063c-0.063-0.035-1.573-0.881-2.253-1.721l-0.181-0.227
						c-2.669-3.36-4.991-5.597-6.901-6.646c-2.63-1.446-2.799-1.334-3.292-0.996l-0.237,0.158c-1.165,0.739-3.502,0.455-6.408-0.783
						c-2.981-1.271-4.609-1.845-4.625-1.851c-0.261-0.091-0.398-0.376-0.307-0.637c0.091-0.261,0.376-0.401,0.637-0.307
						c0.067,0.023,1.671,0.588,4.688,1.874c3.019,1.286,4.84,1.267,5.479,0.859l0.21-0.14c0.946-0.646,1.457-0.639,4.339,0.944
						c2.026,1.114,4.45,3.436,7.202,6.9l0.175,0.22c0.463,0.572,1.573,1.26,1.962,1.477c0.241,0.134,0.328,0.438,0.193,0.68
						C436.794,231.423,436.623,231.516,436.447,231.516z"/>
					<path fill="#51337B" d="M417.517,232.721c-0.066,0-0.135-0.014-0.199-0.042c-0.077-0.033-1.893-0.842-2.877-2.863
						c-0.77-1.578,0.581-3.806,1.307-5.002c0.041-0.067,0.086-0.14,0.128-0.211c-1.871-0.628-7.888-2.786-8.287-4.52
						c-0.209-0.91,0.083-1.426,0.365-1.699c0.853-0.824,2.585-0.396,2.781-0.344c0.267,0.07,0.426,0.344,0.355,0.61
						c-0.07,0.268-0.347,0.431-0.61,0.356c-0.445-0.114-1.478-0.246-1.831,0.097c-0.141,0.136-0.17,0.391-0.086,0.755
						c0.26,1.129,6.786,3.599,8.106,3.954c0.15,0.04,0.299,0.166,0.358,0.31c0.125,0.304-0.014,0.532-0.425,1.21
						c-0.582,0.96-1.793,2.957-1.264,4.046c0.825,1.693,2.362,2.378,2.377,2.385c0.254,0.109,0.369,0.404,0.259,0.657
						C417.894,232.608,417.709,232.721,417.517,232.721z M416.377,224.768c0.016,0.006,0.032,0.011,0.048,0.015
						C416.422,224.781,416.405,224.776,416.377,224.768z"/>
					<path fill="#51337B" d="M431.648,239.384c-0.087,0-0.176-0.023-0.257-0.071c-0.025-0.016-2.599-1.551-4.721-2.021
						c-2.277-0.504-7.827-3.689-8.062-3.824c-0.239-0.138-0.322-0.443-0.185-0.683c0.138-0.24,0.445-0.321,0.683-0.185
						c0.057,0.032,5.651,3.244,7.78,3.715c2.282,0.506,4.908,2.073,5.02,2.14c0.236,0.143,0.313,0.449,0.171,0.687
						C431.984,239.297,431.818,239.384,431.648,239.384z"/>
				</g>
			</g>
			<g>
				<g>
					<path fill="#E8DFF0" d="M447.142,166.528c0,0-5.146,19.379,9.104,19.556c0.459,0.005,0.827,0.381,0.851,0.838l0.649,13.005
						c0.045,0.541,0.397,1.002,0.904,1.195c2.071,0.789,6.565,1.305,13.188-1.534c1.001-0.429,1.482-1.247,1.156-2.286
						c-0.687-2.192-0.432-5.812-0.289-13.03C472.925,173.182,471.678,155.646,447.142,166.528z"/>
					<path fill="#CEC1DF" d="M453.136,164.282c0,0-6.701,6.496-4.106,10.578c1.584,2.492,5.714,2.039,5.353,3.685
						c-0.362,1.646,5.407,2.994,7.097,4.191c1.69,1.198,1.793,11.213,1.95,12.027c0.156,0.814,2.063,4.774,9.843,3.418
						c0,0-3.404,4.564-12.96,3.223c-1.588-0.223-2.338-1.552-2.648-3.125c-0.177-0.893-0.218-1.949-0.176-3.516
						c0.209-7.842,0.414-7.918-3.819-8.958c-4.485-1.102-9.56-5.06-6.526-19.278C451.011,148.392,453.136,164.282,453.136,164.282z"
						/>
					<path fill="#51337B" d="M449.116,183.802c-0.122,0-0.244-0.044-0.341-0.134c-0.94-0.877-2.01-3.312-2.789-6.354
						c-0.771-3.014,0.498-10.117,0.553-10.418c0.05-0.273,0.313-0.449,0.581-0.403c0.271,0.049,0.452,0.31,0.403,0.581
						c-0.013,0.071-1.285,7.189-0.568,9.992c0.822,3.212,1.85,5.263,2.502,5.87c0.202,0.188,0.213,0.505,0.025,0.707
						C449.384,183.748,449.25,183.802,449.116,183.802z"/>
					<path fill="#51337B" d="M457.607,197.667c-0.265,0-0.486-0.208-0.499-0.475l-0.507-10.146
						c-0.074-0.125-0.316-0.435-0.911-0.482c-2.442-0.197-4.961-1.357-5.067-1.407c-0.25-0.116-0.358-0.413-0.242-0.664
						c0.115-0.251,0.414-0.36,0.664-0.242c0.024,0.011,2.466,1.135,4.726,1.317c1.102,0.089,1.646,0.782,1.794,1.179
						c0.018,0.048,0.028,0.099,0.03,0.149l0.512,10.245c0.014,0.276-0.198,0.511-0.474,0.524
						C457.624,197.667,457.615,197.667,457.607,197.667z"/>
					<path fill="#51337B" d="M462.91,202.089c-0.156,0-0.313-0.001-0.472-0.005c-2.193-0.051-3.741-0.605-4.6-1.65
						c-0.862-1.048-0.677-2.191-0.669-2.239c0.048-0.272,0.311-0.456,0.578-0.408c0.271,0.047,0.453,0.304,0.408,0.574
						c-0.005,0.036-0.107,0.769,0.468,1.454c0.661,0.788,1.988,1.227,3.838,1.27c5.425,0.138,9.109-2.051,10.105-2.721
						c0.229-0.153,0.539-0.095,0.694,0.136c0.154,0.229,0.093,0.54-0.136,0.694C472.097,199.885,468.381,202.089,462.91,202.089z"/>
					<path fill="#51337B" d="M472.993,197.802c-0.236,0-0.447-0.169-0.491-0.41c-0.015-0.081-0.361-1.992-0.423-2.929
						c-0.063-0.93,0.063-7.094,0.068-7.355c0.006-0.276,0.235-0.485,0.51-0.49c0.276,0.006,0.496,0.234,0.49,0.51
						c-0.045,2.204-0.118,6.56-0.07,7.27c0.058,0.88,0.405,2.797,0.409,2.815c0.049,0.272-0.131,0.532-0.402,0.582
						C473.054,197.799,473.023,197.802,472.993,197.802z"/>
				</g>
				<g>
					<path fill="#51337B" d="M444.083,165.876c-0.788-0.748-1.22-1.792-1.327-2.872c-0.177-1.775-0.088-4.685,2.168-5.625
						c3.327-1.386,3.882-3.881,3.882-6.376c0-2.495,4.713-4.713,8.039-3.604c3.327,1.109,4.714-0.586,7.209-0.293
						c2.495,0.293,2.426,1.125,2.98,3.343c0.554,2.218,2.109,0.854,5.248,1.952c3.138,1.098,2.606,3.155,3.438,5.095
						c0.832,1.941,4.136-0.393,4.967,4.042c0.832,4.436,0.907,3.047,2.772,5.822c1.523,2.266,0.188,5.002-0.52,5.129
						c-2.456,0.44-0.468,1.819-0.728,3.223c-0.497,2.685,2.339,3.951-0.971,6.065c-1.996,1.275-1.494,2.457-4.99,3.327
						c-2.272,0.565-2.438,1.375-3.882,0.266c-1.443-1.109-3.673-2.415-3.118-4.91c0.554-2.495,0.735-1.87-0.61-2.842
						c-2.12-1.531,4.699-5.198,1.441-8.04c-4.057-3.539-3.465,4.02-6.306-1.386c-2.006-3.819-3.051,0.227-6.101-1.966
						s-2.572-2.009-7.285-0.623C446.464,166.758,445.925,167.623,444.083,165.876z"/>
					<path fill="#51337B" d="M445.913,167.315c-0.662,0-1.232-0.155-1.721-0.465c-1.347-0.854-1.756-2.722-1.979-4.437
						c-0.438-3.367,2.305-5.359,2.421-5.442c0.226-0.159,0.537-0.106,0.696,0.117c0.16,0.225,0.108,0.537-0.115,0.697
						c-0.098,0.07-2.369,1.737-2.01,4.499c0.27,2.076,0.739,3.224,1.522,3.721c0.643,0.407,1.557,0.412,2.797,0.015
						c1.039-0.334,1.972-0.672,2.8-0.973c2.213-0.804,3.674-1.336,4.704-0.914c1.227,0.498,1.951,0.979,1.981,0.999
						c0.229,0.153,0.292,0.463,0.139,0.693c-0.153,0.229-0.463,0.291-0.693,0.139c-0.007-0.004-0.679-0.447-1.804-0.905
						c-0.676-0.271-2.135,0.257-3.986,0.929c-0.839,0.304-1.782,0.646-2.834,0.983C447.119,167.201,446.482,167.315,445.913,167.315
						z"/>
					<path fill="#51337B" d="M465.23,170.694c-0.112,0-0.227-0.016-0.341-0.049c-0.549-0.161-0.941-0.691-1.2-1.622
						c-0.526-1.883-1.763-2.021-2.033-2.029c-2.979,1.015-4.294-0.371-4.348-0.431c-0.187-0.203-0.173-0.52,0.03-0.706
						c0.2-0.185,0.515-0.174,0.701,0.024c0.048,0.05,1.011,0.972,3.361,0.143c0.042-0.015,0.086-0.023,0.13-0.027
						c0.807-0.057,2.476,0.444,3.121,2.758c0.22,0.787,0.453,0.912,0.52,0.932c0.288,0.07,0.907-0.47,1.277-0.8
						c0.16-0.142,0.313-0.277,0.453-0.39c0.492-0.39,1.066-0.55,1.665-0.469c0.721,0.099,1.403,0.545,1.92,1.256
						c0.162,0.224,0.113,0.536-0.11,0.698c-0.223,0.162-0.535,0.114-0.698-0.11c-0.351-0.481-0.805-0.792-1.247-0.854
						c-0.33-0.041-0.631,0.044-0.908,0.264c-0.128,0.101-0.265,0.223-0.408,0.352C466.576,170.113,465.924,170.694,465.23,170.694z"
						/>
					<path fill="#51337B" d="M473.445,186.421c-1.167,0-1.923-0.791-2.606-1.506c-0.265-0.277-0.539-0.563-0.837-0.814
						c-1.211-1.016-2.257-1.894-1.19-3.878c0.694-1.293,0.299-1.66-0.459-2.197c-1.181-0.836-0.597-1.732,0.464-3.36l0.491-0.762
						c1.257-1.969,1.057-3.16,1.055-3.172c-0.05-0.269,0.125-0.531,0.394-0.584c0.261-0.057,0.527,0.113,0.586,0.382
						c0.033,0.156,0.285,1.599-1.19,3.912l-0.497,0.77c-1.119,1.719-1.059,1.761-0.724,1.998c0.923,0.654,1.819,1.518,0.762,3.486
						c-0.654,1.219-0.343,1.553,0.952,2.64c0.341,0.285,0.634,0.592,0.917,0.889c0.923,0.966,1.457,1.449,2.58,1.068
						c0.59-0.2,1.15-0.369,1.665-0.525c1.097-0.331,2.044-0.618,2.487-0.988c0.324-0.271,0.604-0.57,0.874-0.859
						c0.324-0.348,0.659-0.707,1.069-1.015c0.104-0.077,0.231-0.161,0.374-0.254c0.809-0.528,1.917-1.251,1.557-3.005
						c-0.109-0.538-0.203-0.968-0.279-1.318c-0.271-1.244-0.352-1.619-0.162-2.315c0.07-0.257-0.039-0.449-0.229-0.734
						c-0.119-0.181-0.243-0.366-0.266-0.596c-0.056-0.594,0.518-1.382,1.574-1.675c0.096-0.026,0.381-0.285,0.613-0.883
						c0.334-0.861,0.442-2.177-0.254-3.286c-0.016-0.005-1.728-1.864-2.209-3.099c-0.049-0.124-0.117-0.408-0.302-1.187
						c-0.215-0.907-0.718-3.032-0.926-3.35l-0.065-0.091c-0.34-0.48-0.854-1.206-3.067-1.326c-0.063-0.003-0.124-0.019-0.181-0.045
						c-0.045-0.021-1.101-0.518-1.453-1.914c-0.044-0.173-0.078-0.374-0.115-0.595c-0.209-1.258-0.495-2.981-3.816-3.66l0,0
						c-0.021,0-0.532-0.051-1.742-0.193l-0.18-0.021c-1.223-0.14-2.106-0.24-2.647-2.146c-0.672-2.367-1.603-2.642-2.244-2.642
						c-0.002,0-0.003,0-0.005,0c-0.993,0-1.886,0.189-2.75,0.373c-1.288,0.273-2.504,0.533-3.911,0.167
						c-0.268-0.069-0.429-0.342-0.359-0.609c0.069-0.267,0.339-0.431,0.609-0.358c1.179,0.305,2.232,0.081,3.454-0.178
						c0.914-0.194,1.858-0.394,2.957-0.394c0.002,0,0.003,0,0.005,0c2.25,0.001,2.97,2.536,3.207,3.369
						c0.357,1.261,0.662,1.296,1.798,1.426l0.183,0.021c1.278,0.149,1.768,0.197,1.771,0.198c4.049,0.824,4.43,3.116,4.657,4.485
						c0.032,0.19,0.061,0.364,0.098,0.514c0.189,0.748,0.655,1.101,0.835,1.212c2.602,0.169,3.323,1.188,3.714,1.74l0.061,0.084
						c0.265,0.366,0.574,1.535,1.087,3.704c0.126,0.529,0.221,0.941,0.262,1.056c0.342,0.877,1.608,2.358,2.067,2.854
						c0.949,1.497,0.816,3.166,0.395,4.254c-0.312,0.805-0.777,1.346-1.277,1.483c-0.598,0.167-0.831,0.528-0.846,0.636
						c0.007-0.023,0.061,0.055,0.103,0.119c0.208,0.313,0.555,0.837,0.36,1.551c-0.121,0.444-0.096,0.596,0.175,1.839
						c0.076,0.354,0.171,0.788,0.282,1.33c0.496,2.421-1.122,3.477-1.991,4.044c-0.122,0.079-0.231,0.15-0.32,0.217
						c-0.339,0.254-0.63,0.565-0.938,0.896c-0.291,0.312-0.593,0.635-0.965,0.945c-0.599,0.501-1.587,0.8-2.838,1.178
						c-0.506,0.153-1.055,0.319-1.633,0.516C474.091,186.365,473.754,186.421,473.445,186.421z"/>
					<path fill="#51337B" d="M446.237,157.182c-0.191,0-0.374-0.11-0.457-0.297c-0.111-0.251,0.001-0.546,0.252-0.659l0,0
						c0.091-0.041,2.219-1.038,2.175-3.644c-0.057-3.474,2.175-5.158,4.104-5.544c2.031-0.408,4.121-0.248,4.209-0.242
						c0.275,0.022,0.481,0.263,0.459,0.538c-0.021,0.275-0.267,0.474-0.537,0.459c-0.02-0.003-2.045-0.154-3.934,0.226
						c-1.627,0.326-3.348,1.692-3.301,4.547c0.055,3.28-2.651,4.522-2.767,4.574C446.375,157.168,446.306,157.182,446.237,157.182z"
						/>
				</g>
			</g>
		</g>
		<g>
			<g>
				<g>
					<path fill="#E8DFF0" d="M78.753,163.239c0,0,4.418,8.743,2.885,13.723c-1.525,4.959-3.95,7.511-8.032,7.96
						c-0.655,0.072-1.16,0.613-1.173,1.272c-0.047,2.196-0.121,6.816,0.028,8.857c0.416,5.718,0.416,2.703,0.416,2.703
						l-16.426,5.406c0,0,3.759-14.358,3.551-23.611l-1.36-2.95c0,0-3.328-5.613-2.607-6.015c2.588-1.443,3.535-5.476,3.535-5.476
						s0-6.861,3.743-4.99C67.055,161.991,78.753,163.239,78.753,163.239z"/>
					<path fill="#CEC1DF" d="M71.279,166.62c0,0-6.296,0.902-4.84,3.726c1.455,2.824,2.509,4.176,0.949,5.527
						c-1.289,1.118-5.255,2.607-4.766,4.787c0.489,2.179,1.009,8.924-0.446,10.178c-1.456,1.254-0.936,5.205,2.287,5.621
						c3.223,0.416,4.309,1.713,4.309,1.713s-8.748,1.029-10.739-3.617c0,0,1.882-9.494,1.969-15.005c0,0-2.608-6.518-5.728-9.204
						c-3.119-2.686,11.124-12.065,11.124-12.065L71.279,166.62z"/>
					<path fill="#51337B" d="M72.929,196.524c-0.204,0-0.371-0.163-0.375-0.367c-0.001-0.053-0.109-5.292-0.528-8.458
						c-0.168-1.272,0.031-2.259,0.594-2.933c0.644-0.771,1.521-0.822,1.559-0.824c0.235-0.014,0.383,0.15,0.394,0.356
						c0.01,0.206-0.148,0.381-0.354,0.393c-0.029,0.002-0.604,0.047-1.029,0.566c-0.416,0.507-0.557,1.295-0.418,2.344
						c0.424,3.208,0.533,8.488,0.534,8.541c0.004,0.207-0.16,0.379-0.367,0.383C72.934,196.524,72.931,196.524,72.929,196.524z"/>
					<path fill="#51337B" d="M66.201,198.513c-2.378,0-5.146-0.6-7.824-2.569c-0.167-0.122-0.203-0.357-0.08-0.523
						c0.122-0.168,0.358-0.204,0.523-0.08c6.435,4.728,13.421,1.093,13.489,1.056c0.186-0.095,0.409-0.027,0.508,0.154
						c0.097,0.183,0.028,0.41-0.154,0.508C72.618,197.081,69.875,198.513,66.201,198.513z"/>
					<path fill="#51337B" d="M58.279,194.81c-0.018,0-0.036-0.001-0.055-0.004c-0.205-0.03-0.347-0.221-0.316-0.426
						c0.82-5.576,1.958-14.244,1.728-15.267l-0.814-1.645c-0.091-0.186-0.014-0.411,0.172-0.501c0.188-0.091,0.41-0.014,0.502,0.172
						l0.844,1.727c0.363,1.57-1.478,14.189-1.688,15.624C58.623,194.676,58.463,194.81,58.279,194.81z"/>
					<path fill="#51337B" d="M76.009,184.313c-0.226,0-0.43-0.153-0.485-0.382c-0.065-0.268,0.099-0.539,0.367-0.604
						c2.95-0.718,4.608-3.01,5.378-7.431c0.561-3.224-1.448-9.387-1.468-9.449c-0.087-0.262,0.056-0.545,0.318-0.631
						c0.261-0.086,0.544,0.056,0.631,0.319c0.087,0.262,2.106,6.466,1.503,9.933c-0.525,3.021-1.731,7.161-6.126,8.231
						C76.087,184.309,76.048,184.313,76.009,184.313z"/>
				</g>
				<g>
					<path fill="#7A5CA4" d="M83.709,160.64c0,0,11-11.652,2.475-13.728c-8.525-2.075-7.278,2.915-10.188,4.579
						c-2.911,1.664-5.614,0.416-9.565,0c-3.951-0.416-9.201,0.593-10.396,4.471s-0.416,6.88-3.327,7.338
						c-2.911,0.458-3.119,4.756,0,7.598c3.119,2.842,5.406,5.545,7.277,6.376c0,0-3.951-5.268-1.248-6.376s3.743,1.594,3.743,1.594
						s-0.624-9.565,1.872-8.941c2.495,0.624,1.087,2.412,4.622,2.817S80.819,168.125,83.709,160.64z"/>
					<path fill="#51337B" d="M62.48,172.867c-0.118,0-0.232-0.056-0.305-0.156c-0.529-0.738-1.554-1.795-2.078-1.709
						c-0.21,0.037-0.397-0.107-0.43-0.311c-0.033-0.205,0.106-0.397,0.311-0.43c0.657-0.109,1.385,0.433,1.94,0.989
						c-0.264-2.577-0.09-6.393,1.255-7.631c0.909-0.839,2.198-0.132,2.818,0.416l0.233,0.299c0.578,0.782,1.177,1.591,2.496,1.625
						c0.059,0.005,2.278,0.279,3.037,0.324c0.206,0.012,0.364,0.19,0.352,0.396c-0.012,0.206-0.162,0.371-0.396,0.353
						c-0.782-0.046-2.956-0.314-3.048-0.326c-1.648-0.041-2.455-1.13-3.044-1.926l-0.177-0.236l0,0
						c-0.012,0-1.135-0.954-1.764-0.374c-1.319,1.216-1.29,6.03-0.834,8.246c0.036,0.173-0.055,0.348-0.217,0.419
						C62.582,172.856,62.531,172.867,62.48,172.867z"/>
					<path fill="#51337B" d="M73.5,167.101c-0.197,0-0.362-0.153-0.374-0.353c-0.013-0.207,0.145-0.384,0.352-0.397
						c0.051-0.003,5.071-0.321,7.03-1.722c1.511-1.08,2.617-3.057,2.836-4.069c0.013-0.063,0.042-0.121,0.085-0.169
						c0.062-0.07,6.202-7.088,5.753-10.581c-0.073-0.573-0.325-0.997-0.769-1.295c-0.171-0.116-0.217-0.349-0.101-0.521
						c0.115-0.173,0.348-0.218,0.521-0.102c0.624,0.421,0.991,1.034,1.093,1.822c0.471,3.667-5.169,10.291-5.872,11.1
						c-0.319,1.303-1.572,3.326-3.11,4.425c-2.133,1.525-7.206,1.847-7.421,1.86C73.515,167.101,73.507,167.101,73.5,167.101z"/>
					<path fill="#51337B" d="M60.038,177.37c-0.067,0-0.135-0.018-0.196-0.055c-0.004-0.002-0.008-0.005-0.013-0.008l0,0
						c-4.288-2.878-4.257-3.048-4.206-3.328c0.038-0.203,0.238-0.34,0.437-0.301c0.124,0.022,0.222,0.103,0.271,0.208
						c0.192,0.2,1.092,0.854,2.18,1.611c-0.167-0.28-0.354-0.602-0.56-0.974c-1.484-2.675,0.575-3.937,0.596-3.949
						c0.18-0.103,0.409-0.047,0.514,0.132c0.105,0.177,0.048,0.406-0.129,0.512l0,0c-0.149,0.091-1.429,0.951-0.324,2.941
						c1.163,2.096,1.606,2.495,1.646,2.529c0.164,0.115,0.209,0.34,0.1,0.509C60.282,177.309,60.161,177.37,60.038,177.37z"/>
					<path fill="#51337B" d="M55.289,173.829c-0.086,0-0.172-0.029-0.242-0.088c-0.126-0.106-3.107-2.645-4.74-5.949
						c-1.319-2.67,0.536-3.772,2.174-4.746c0.725-0.43,1.475-0.875,1.93-1.437c0.452-0.56,0.424-0.931,0.372-1.605
						c-0.075-0.979-0.179-2.319,1.19-4.912c1.836-3.474,6.618-4.617,14.21-3.399l0.206,0.033c2.084,0.329,5.469,0.864,7.748-3.457
						c0.699-1.326,1.692-2.182,2.951-2.543c2.512-0.724,5.173,0.796,5.285,0.862c0.179,0.104,0.239,0.333,0.136,0.512
						c-0.103,0.179-0.331,0.24-0.513,0.136c-0.023-0.014-2.501-1.422-4.705-0.789c-1.054,0.304-1.892,1.034-2.49,2.171
						c-2.529,4.794-6.39,4.187-8.466,3.858l-0.271-0.043c-7.241-1.161-11.759-0.149-13.427,3.009
						c-1.269,2.401-1.175,3.616-1.106,4.503c0.055,0.721,0.103,1.343-0.538,2.134c-0.539,0.666-1.347,1.146-2.129,1.61
						c-1.796,1.067-2.848,1.82-1.885,3.769c1.564,3.165,4.522,5.683,4.553,5.708c0.158,0.134,0.178,0.37,0.044,0.528
						C55.502,173.783,55.396,173.829,55.289,173.829z"/>
					<path opacity="0.5" fill="#7A5CA4" d="M67.068,151.566c0,0-8.159,1.464-8.789,5.899c-0.63,4.436-1.142,7.141-3.358,7.583
						c-2.01,0.401-3.236,2.122-2.293,4.499c0.832,2.097,0.889,2.242,3.364,4.498c0,0-6.424-5.096-5.546-8.276
						c0.878-3.18,2.584-2.794,3.189-2.756s1.328-1.636,1.52-2.763s0.602-6.635,4.464-7.907
						C64.428,150.759,67.068,151.566,67.068,151.566z"/>
				</g>
			</g>
			<g>
				<path fill="#E8DFF0" d="M68.093,375.123c0,0,0,13.213,0.159,12.929l-0.159,0.284l6.395,0.322l1.058-11.664L68.093,375.123z"/>
				<path fill="#51337B" d="M76.133,387.417c-1.338-0.556-1.702-0.055-2.549,0.064c-1.372,0.192-3.588,0.368-5.05-0.204
					c-2.25-0.879-2.243,4.122-1.945,6.476l23.032-0.032c0,0,0.77-6.813-3.918-6.57C82.261,387.328,78.053,388.216,76.133,387.417z"
					/>
				<path fill="#51337B" d="M68.094,386.755c-0.207,0-0.375-0.168-0.375-0.375v-2.963c0-0.207,0.168-0.375,0.375-0.375
					s0.375,0.168,0.375,0.375v2.963C68.469,386.587,68.301,386.755,68.094,386.755z"/>
				<path fill="#51337B" d="M74.619,387.069c-0.011,0-0.022,0-0.034-0.002c-0.206-0.019-0.358-0.2-0.339-0.407l0.297-3.277
					c0.019-0.205,0.186-0.369,0.407-0.339c0.206,0.019,0.358,0.2,0.339,0.407l-0.297,3.277
					C74.975,386.923,74.812,387.069,74.619,387.069z"/>
				<path fill="#51337B" d="M71.145,388.293c-0.171,0-0.336-0.008-0.49-0.023c-1.308-0.137-2.259-0.641-2.298-0.662
					c-0.183-0.098-0.251-0.324-0.153-0.507c0.098-0.182,0.322-0.249,0.507-0.154c0.009,0.005,0.868,0.456,2.022,0.577
					c1.175,0.128,3.178-0.365,3.197-0.371c0.202-0.049,0.404,0.073,0.454,0.274c0.049,0.201-0.073,0.404-0.274,0.454
					C74.032,387.899,72.416,388.293,71.145,388.293z"/>
				<path fill="#51337B" d="M66.588,394.128c-0.205,0-0.372-0.165-0.375-0.37c-0.002-0.162-0.052-3.984,0.148-5.107
					c0.229-1.273,1.05-1.692,1.085-1.709c0.187-0.091,0.41-0.015,0.502,0.17c0.091,0.185,0.017,0.407-0.165,0.5
					c-0.028,0.016-0.527,0.296-0.684,1.171c-0.153,0.859-0.147,3.595-0.141,4.595l22.167-0.03c0.079-1.433-0.014-4.361-1.2-5.111
					l-0.107-0.069c-0.387-0.249-0.972-0.626-1.803-0.653c-0.206-0.007-0.369-0.181-0.362-0.388c0.007-0.202,0.173-0.362,0.375-0.362
					c0.004,0,0.008,0,0.013,0c1.038,0.034,1.756,0.497,2.185,0.773l0.101,0.064c1.909,1.207,1.568,5.651,1.522,6.153
					c-0.017,0.193-0.179,0.342-0.372,0.342L66.588,394.128C66.588,394.128,66.588,394.128,66.588,394.128z"/>
				<path fill="#51337B" d="M77.859,388.167c-0.743,0-1.469-0.13-2.472-0.597c-0.188-0.087-0.27-0.311-0.182-0.498
					s0.312-0.271,0.498-0.182c1.284,0.598,2,0.57,3.065,0.476c0.16-0.015,0.414-0.03,0.724-0.05
					c0.912-0.056,2.438-0.149,3.254-0.334c1.002-0.227,1.91-0.211,1.949-0.213c0.207,0.004,0.371,0.175,0.368,0.382
					c-0.004,0.204-0.171,0.368-0.375,0.368c-0.002,0-0.004,0-0.007,0c-0.002-0.002-0.861-0.012-1.77,0.195
					c-0.876,0.197-2.379,0.29-3.374,0.351c-0.301,0.019-0.548,0.033-0.703,0.047C78.492,388.144,78.174,388.167,77.859,388.167z"/>
			</g>
			<g>
				<path fill="#E8DFF0" d="M29.004,388.818c-0.147,0.29,2.709-13.268,2.709-13.268l7.601,3.103l-3.657,10.165l-6.402-0.067
					L29.004,388.818z"/>
				<path fill="#51337B" d="M36.875,387.431c-1.337-0.559-1.702-0.058-2.549,0.061c-1.373,0.19-3.589,0.363-5.05-0.211
					c-2.249-0.883-2.249,4.119-1.954,6.473h23.032c0,0,0.779-6.812-3.909-6.576C43.003,387.35,38.794,388.231,36.875,387.431z"/>
				<path fill="#51337B" d="M29.363,386.744c-0.024,0-0.05-0.002-0.075-0.008c-0.203-0.041-0.334-0.239-0.292-0.442l0.962-4.702
					c0.041-0.203,0.235-0.341,0.442-0.292c0.203,0.041,0.334,0.239,0.292,0.442l-0.962,4.702
					C29.694,386.622,29.538,386.744,29.363,386.744z"/>
				<path fill="#51337B" d="M36.195,387.177c-0.042,0-0.085-0.007-0.127-0.022c-0.195-0.069-0.296-0.284-0.226-0.479l1.467-4.076
					c0.069-0.196,0.284-0.299,0.479-0.226c0.195,0.069,0.296,0.284,0.226,0.479l-1.467,4.076
					C36.493,387.082,36.349,387.177,36.195,387.177z"/>
				<path fill="#51337B" d="M32.677,388.246c-1.76,0-3.223-0.506-3.314-0.538c-0.195-0.069-0.297-0.283-0.229-0.479
					c0.069-0.194,0.278-0.298,0.479-0.229c0.03,0.01,3.172,1.093,5.598,0.011c0.19-0.082,0.41,0.001,0.495,0.19
					c0.084,0.189-0.001,0.411-0.19,0.495C34.589,388.109,33.593,388.246,32.677,388.246z"/>
				<path fill="#51337B" d="M50.354,394.128H27.322c-0.15,0-0.286-0.09-0.345-0.228c-0.312-0.729-0.374-4.763,0.407-6.05
					c0.558-0.922,1.164-1.04,1.231-1.05c0.211-0.044,0.396,0.109,0.428,0.313c0.031,0.201-0.103,0.389-0.3,0.426
					c-0.024,0.007-0.36,0.108-0.718,0.7c-0.569,0.937-0.598,4.145-0.419,5.139h22.38c0.016-1.19-0.076-3.498-0.651-4.211
					c-0.13-0.161-0.104-0.397,0.057-0.527c0.16-0.13,0.396-0.104,0.527,0.057c0.932,1.155,0.823,4.674,0.809,5.071
					C50.721,393.969,50.555,394.128,50.354,394.128z"/>
				<path fill="#51337B" d="M39.484,388.271c-0.251,0-0.495-0.009-0.729-0.029c-1.292-0.114-2.015-0.46-2.045-0.475
					c-0.186-0.09-0.263-0.313-0.173-0.499c0.091-0.187,0.316-0.261,0.499-0.176c0.007,0.003,0.643,0.301,1.785,0.401
					c1.715,0.153,4.263-0.392,4.288-0.397c4.177-0.86,5.537,0.191,5.68,0.314c0.156,0.136,0.173,0.373,0.037,0.529
					c-0.135,0.153-0.367,0.174-0.524,0.041c-0.031-0.024-1.262-0.93-5.037-0.151C43.173,387.85,41.198,388.271,39.484,388.271z"/>
			</g>
			<g>
				<path fill="#E8DFF0" d="M86.185,219.24c0,0,1.424,7.235,7.173,8.181c3.292,0.542,8.591-9.537,8.629-12.466
					c0.039-2.985,0.815-11.688,1.135-13.44s-0.096-9.545,3.439-9.74c3.535-0.195,16.634-3.117,15.595-1.363
					c-1.04,1.753-3.327,1.558-6.238,2.532c0,0,4.574,7.792,0.208,8.571c-4.367,0.778-4.367,5.259-3.951,9.934
					s-2.287,20.453-6.446,24.544c-4.159,4.09-11.436,7.597-18.511,4.869c-5.383-2.075-4.777-3.116-4.777-3.116l-0.621-21.563
					L86.185,219.24z"/>
				<path fill="#51337B" d="M93.067,227.14c-0.149,0-0.3-0.007-0.45-0.021c-2.673-0.255-4.567-3.273-4.647-3.401
					c-0.108-0.176-0.054-0.407,0.122-0.516s0.407-0.055,0.516,0.121c0.018,0.028,1.781,2.83,4.08,3.05
					c1.826,0.172,3.54-0.95,5.061-3.346c2.571-4.049,3.444-5.92,3.897-9.739c0.184-1.547,0.248-3.438,0.311-5.268
					c0.101-2.937,0.187-5.472,0.723-6.505c0.344-0.661,0.394-2.42,0.435-3.832c0.025-0.899,0.048-1.675,0.139-2.117
					c0.041-0.201,0.226-0.333,0.443-0.291c0.202,0.042,0.333,0.24,0.291,0.443c-0.078,0.377-0.1,1.158-0.124,1.986
					c-0.044,1.566-0.095,3.342-0.518,4.156c-0.458,0.883-0.55,3.578-0.64,6.185c-0.063,1.845-0.128,3.752-0.315,5.33
					c-0.47,3.966-1.367,5.895-4.009,10.054C96.815,225.894,95.03,227.14,93.067,227.14z"/>
				<path fill="#51337B" d="M117.445,196.125c-0.16,0-0.309-0.104-0.358-0.265c-0.265-0.86-1.239-2.697-1.249-2.716
					c-0.053-0.099-0.059-0.215-0.016-0.319c0.043-0.103,0.129-0.182,0.235-0.215c0.088-0.027,2.149-0.665,3.047-0.867
					c0.845-0.19,2.032-0.55,2.581-1.483c0.093-0.158,0.094-0.221,0.094-0.222c-0.13-0.043-0.917,0.05-1.39,0.106
					c-0.299,0.035-0.598,0.069-0.861,0.083c-0.471,0.025-2.076,0.198-3.936,0.399c-2.354,0.254-5.286,0.571-7.492,0.76
					c-2.904,0.25-3.484,1.969-3.508,2.042c-0.063,0.196-0.278,0.309-0.469,0.245c-0.197-0.061-0.309-0.268-0.249-0.465
					c0.028-0.093,0.725-2.275,4.161-2.57c2.198-0.189,5.125-0.505,7.477-0.759c1.947-0.21,3.485-0.376,3.977-0.402
					c0.249-0.013,0.53-0.046,0.813-0.08c0.969-0.113,1.805-0.21,2.122,0.278c0.165,0.253,0.134,0.578-0.093,0.964
					c-0.696,1.184-2.082,1.614-3.063,1.834c-0.626,0.141-1.894,0.519-2.559,0.72c0.313,0.611,0.886,1.77,1.094,2.444
					c0.061,0.198-0.05,0.408-0.248,0.469C117.519,196.12,117.481,196.125,117.445,196.125z"/>
				<path fill="#51337B" d="M110.448,224.731c-0.03,0-0.063-0.004-0.094-0.012c-0.2-0.052-0.321-0.257-0.27-0.457
					c0.473-1.833,1.313-5.587,1.458-8.03c0.072-1.216,0.101-2.991,0.131-4.871c0.041-2.594,0.084-5.275,0.252-6.653
					c0.243-2.012,1.443-2.461,2.963-3.029c0.458-0.172,0.978-0.366,1.529-0.621c2.032-0.94,1.238-2.974,1.203-3.06
					c-0.077-0.191,0.015-0.41,0.206-0.488c0.194-0.075,0.41,0.014,0.488,0.204c0.394,0.957,0.569,3.028-1.583,4.024
					c-0.577,0.267-1.11,0.467-1.58,0.643c-1.479,0.553-2.293,0.857-2.482,2.417c-0.163,1.34-0.205,4.001-0.246,6.575
					c-0.03,1.889-0.059,3.672-0.133,4.904c-0.148,2.501-1,6.313-1.479,8.173C110.768,224.619,110.615,224.731,110.448,224.731z"/>
				<path fill="#51337B" d="M105.031,237.021c-0.105,0-0.211-0.045-0.285-0.132c-0.135-0.157-0.115-0.395,0.042-0.528
					c2.883-2.455,4.505-9.129,4.521-9.195c0.048-0.202,0.245-0.331,0.451-0.277c0.202,0.048,0.326,0.25,0.277,0.451
					c-0.067,0.284-1.697,6.98-4.764,9.592C105.204,236.992,105.117,237.021,105.031,237.021z"/>
				<path fill="#51337B" d="M92.765,242.213c-2.043,0-4.413-0.361-6.989-1.411l-2.167-1.093c-0.185-0.094-0.259-0.319-0.166-0.504
					c0.094-0.186,0.321-0.259,0.504-0.166l2.14,1.08c7.709,3.14,13.639-0.267,13.699-0.303c0.177-0.103,0.407-0.047,0.514,0.133
					c0.104,0.178,0.046,0.408-0.133,0.514C99.993,240.564,97.127,242.213,92.765,242.213z"/>
				<path fill="#F9B234" d="M72.929,195.641c0,0,12.909,0.901,14.12,11.787c0.138,1.24,0.245,2.479,0.472,3.706
					c0.365,1.97,0.891,9.992,0.761,11.001c-0.208,1.612-11.626,2.646-11.626,2.646S76.663,197.79,72.929,195.641z"/>
			</g>
			<g>
				<path fill="#E65093" d="M84.081,275.486c0,0,0.516,43.457-1.259,57.29c-1.532,11.936-3.631,39.546-4.33,46.189
					c-0.555,5.268-9.616,4.756-12.943,2.405c-3.327-2.352-0.208-28.193-1.872-35.956s-8.63-30.354-8.75-40.334
					S73.892,263.634,84.081,275.486z"/>
				<path fill="#E65093" d="M39.678,275.486l-0.901,26.337c0,2.816,1.351,22.247,1.144,25.056
					c-0.275,3.743-0.811,7.693-1.433,10.119c-0.467,1.822-6.774,29.15-10.598,39.744c-0.585,1.622,0.265,3.408,1.894,3.974
					c3.416,1.185,8.892,2.409,11.834-0.503c3.885-3.845,15.746-32.474,19.988-44.368c0.817-2.292,1.727-4.544,2.771-6.742
					c2.611-5.494,8.182-20.607,10.97-53.616H39.678z"/>
				<path opacity="0.5" fill="#E65093" d="M75.317,275.85c0,0-16.726,6.484-20.392,8.563c-3.666,2.079-9.696,9.911-6.161,12.856
					c3.535,2.946,10.659,21.867,3.146,27.273c-7.512,5.406-12.502,14.14-9.384,17.882c3.119,3.743,6.221,14.348-0.944,19.338
					c-7.166,4.99-12.502,10.669-11.047,14.347s7.887,5.088,11.083,4.104c0,0-1.656,3.59-11.541,0.74
					c-1.24-0.358-2.521-1.897-2.373-3.18c0.155-1.342,0.914-2.912,1.751-5.813c1.842-6.382,8.569-37.142,9.884-39.576
					c1.315-2.435,1.717-9.614-0.563-30.561l0.901-26.337L75.317,275.85z"/>
				<path opacity="0.5" fill="#E65093" d="M69.114,315.325c0,0-5.981,19.406-2.665,21.694c3.316,2.287,4.94,11.02,3.088,13.515
					c-1.852,2.495-5.989,11.853-3.088,13.724c2.9,1.871,2.146,10.981,1.433,13.1c-1.027,3.05,1.656,4.533,8.627,4.655
					c0,0-3.226,1.926-8.416,0.507c0,0-4.081-0.333-4.092-8.291c-0.012-8.711,0.734-24.799,0-27.696s-2.395-10.688-2.395-10.688
					S68.395,318.199,69.114,315.325z"/>
				<path fill="#51337B" d="M38.654,336.669c-0.03,0-0.061-0.004-0.091-0.011c-0.201-0.051-0.323-0.254-0.273-0.455
					c2.031-8.129,1.164-18.666,0.646-24.961c-0.106-1.291-0.198-2.408-0.248-3.296c-0.296-5.21,0.519-29.646,0.526-29.893
					c0.007-0.202,0.174-0.362,0.375-0.362c0.004,0,0.008,0,0.013,0c0.207,0.007,0.369,0.181,0.362,0.388
					c-0.009,0.246-0.821,24.648-0.528,29.824c0.051,0.884,0.142,1.994,0.248,3.277c0.521,6.342,1.396,16.955-0.665,25.204
					C38.976,336.556,38.822,336.669,38.654,336.669z"/>
				<path fill="#51337B" d="M36.977,382.376c-0.029,0-0.058,0-0.087,0c-2.545-0.011-8.099-0.813-9.017-3.227
					c-0.619-1.628,0.438-4.968,1.462-8.199c0.217-0.685,0.43-1.354,0.617-1.985c1.019-3.41,7.537-29.477,7.603-29.739
					c0.051-0.201,0.256-0.317,0.455-0.273c0.201,0.051,0.323,0.254,0.273,0.455c-0.066,0.264-6.59,26.346-7.612,29.772
					c-0.189,0.634-0.402,1.308-0.621,1.997c-0.938,2.964-2.002,6.322-1.476,7.705c0.664,1.748,5.341,2.732,8.319,2.744
					c0.041,0,0.083,0,0.125,0c2.559,0,3.999-0.376,7.559-6.777c3.226-5.802,10.699-23.751,10.773-23.932
					c0.081-0.191,0.302-0.281,0.49-0.203c0.191,0.08,0.282,0.3,0.203,0.49c-0.076,0.182-7.564,18.171-10.811,24.01
					C41.635,381.683,40.011,382.376,36.977,382.376z"/>
				<path fill="#51337B" d="M56.793,348.74c-0.046,0-0.092-0.008-0.137-0.025c-0.193-0.076-0.288-0.294-0.213-0.486
					c0.109-0.278,10.905-27.823,11.665-30.641c0.739-2.738,7.463-33.298,6.865-41.278c-0.016-0.207,0.14-0.387,0.346-0.402
					c0.224-0.026,0.387,0.141,0.402,0.346c0.604,8.063-6.147,38.781-6.889,41.53c-0.771,2.857-11.245,29.583-11.69,30.719
					C57.084,348.65,56.942,348.74,56.793,348.74z"/>
				<path fill="#51337B" d="M71.369,383.262c-1.785,0-3.618-0.276-5.069-0.905c-3.321-1.44-2.914-7.83-2.694-11.262
					c0.031-0.492,0.059-0.926,0.071-1.276c0.094-2.621,0.115-18.933,0-21.436c-0.111-2.418-2.074-9.754-2.094-9.827
					c-0.054-0.2,0.065-0.406,0.265-0.46c0.205-0.053,0.406,0.065,0.46,0.265c0.082,0.305,2.003,7.489,2.119,9.987
					c0.12,2.612,0.097,18.773,0,21.498c-0.013,0.356-0.041,0.797-0.073,1.296c-0.207,3.249-0.594,9.296,2.245,10.527
					c3.175,1.374,8.266,0.979,10.204-0.314c0.171-0.111,0.405-0.068,0.521,0.104c0.114,0.172,0.067,0.405-0.104,0.521
					C76.026,382.774,73.74,383.262,71.369,383.262z"/>
				<path fill="#51337B" d="M78.058,380.791c-0.034,0-0.069-0.005-0.104-0.016c-0.199-0.058-0.313-0.266-0.256-0.464
					c0.004-0.015,0.408-1.44,0.796-5.36c0.51-5.142,3.712-40.143,3.744-40.495c0.026-0.313,2.707-31.74,1.469-57.064
					c-0.01-0.207,0.149-0.383,0.356-0.394c0.246,0.001,0.382,0.15,0.394,0.356c1.24,25.377-1.445,56.854-1.472,57.168
					c-0.033,0.354-3.235,35.358-3.745,40.503c-0.396,4.01-0.805,5.438-0.821,5.496C78.37,380.685,78.221,380.791,78.058,380.791z"/>
			</g>
			<g>
				<path fill="#F9B234" d="M56.444,194.637c-0.714,0.042-1.433,0.001-2.139-0.113c-1.413-0.229-4.653-0.064-6.311,1.021
					c-1.537,1.006,0.1,2.379-0.655,4.141c-4.081,9.525-9.282,29.925-8.216,45.909c1.456,21.833-0.97,30.254-0.97,30.254h45.953
					c0,0-1.171-56.4-2.857-73.087c-0.415-4.104-6.502-6.759-8.72-7.217l0.4,0.096c0.069,0.822-0.778,1.499-1.521,1.857
					c-2.635,1.271-11.865,1.615-13.375-2.943L56.444,194.637z"/>
				<path fill="#51337B" d="M38.152,276.225c-0.104,0-0.203-0.043-0.274-0.119c-0.073-0.078-0.109-0.185-0.099-0.291
					c0.014-0.151,1.419-15.14,1.425-18.804c0.007-3.576-0.453-20.335-0.458-20.503c-0.006-0.207,0.157-0.38,0.364-0.386
					c0.004,0,0.008,0,0.011,0c0.202,0,0.369,0.161,0.375,0.364c0.005,0.169,0.465,16.939,0.458,20.526
					c-0.005,3.394-1.155,15.935-1.389,18.451l13.335-0.353c0.231,0.001,0.379,0.158,0.385,0.365
					c0.005,0.207-0.158,0.379-0.365,0.385l-13.758,0.363C38.159,276.225,38.155,276.225,38.152,276.225z"/>
				<path fill="#51337B" d="M84.081,275.861H54.925c-0.207,0-0.375-0.168-0.375-0.375s0.168-0.375,0.375-0.375h28.772L83.23,255.66
					c-0.005-0.207,0.159-0.379,0.366-0.384c0.233,0.021,0.379,0.159,0.384,0.366l0.476,19.835c0.002,0.101-0.036,0.198-0.106,0.271
					S84.182,275.861,84.081,275.861z"/>
				<path fill="#51337B" d="M82.53,224.414c-0.085,0-0.168-0.028-0.235-0.083c-0.085-0.068-0.137-0.172-0.14-0.281
					c-0.195-6.944-0.84-20.629-1.876-22.716c-1.247-2.515-5.181-4.635-6.591-5.239c-0.171-0.073-0.263-0.261-0.215-0.44
					s0.221-0.29,0.403-0.277c0.106,0.012,10.592,1.275,13.134,9.885c1.342,4.543,1.47,11.048,1.539,14.542
					c0.021,1.051,0.04,2.043,0.09,2.22c0.046,0.146,0.025,0.305-0.06,0.447c-0.482,0.811-4.342,1.624-5.979,1.937
					C82.577,224.412,82.554,224.414,82.53,224.414z M76.484,196.726c1.732,1.07,3.627,2.582,4.467,4.274
					c1.271,2.561,1.847,19.534,1.94,22.586c2.204-0.442,4.575-1.082,5.004-1.458c-0.054-0.312-0.069-0.97-0.096-2.31
					c-0.068-3.459-0.195-9.898-1.508-14.344C84.68,200.015,79.65,197.677,76.484,196.726z M87.924,222.248h0.01H87.924z"/>
				<path opacity="0.5" fill="#F9B234" d="M54.572,200.148c-0.041-0.214,1.47,16.341,5.628,17.588
					c4.159,1.248,9.842,6.725,4.991,9.289c-4.852,2.563-5.91,7.424-2.98,11.712c2.929,4.289,6.238,13.724,2.634,15.595
					c-3.604,1.872-10.813,6.1-11.089,9.011c-0.277,2.911,4.563,5.957,6.573,5.333s4.932-0.17,9.645,2.533
					c4.713,2.703-4.397,3.587,5.344,4.641H38.153c0,0,2.597-18.205,1.116-27.886c0,0-0.414-3.309,0.07-21.165
					C40.035,201.105,54.572,200.148,54.572,200.148z"/>
				<g>
					<path fill="#E8DFF0" d="M108.676,252.229c-0.208,3.353-10.431,0.996-11.678,0.996s-5.614,1.247-5.614,1.247
						c-8.109,1.248-38.625,7.053-44.913-1.613c-4.766-6.57-9.407-24.295-8.891-25.509l14.505-0.324
						c1.214,2.07,2.004,5.331,3.66,8.425c0.166,0.308,0.333,0.607,0.516,0.907c2.396,3.983,6.471,7.443,15.054,7.352
						c3.136-0.033,13.05,0.274,20.12,0.316c3.252,0.025,5.905-0.008,7.02-0.158c0.35-0.041,0.657-0.125,0.923-0.232
						c2.978-1.182,1.114-5.813,2.645-7.345c1.663-1.663,1.73,2.396,1.838,4.716c0.208,4.575,2.961,2.845,4.017,2.911
						C110.58,244.084,108.884,248.877,108.676,252.229z"/>
					<path fill="#51337B" d="M64.01,257.714c-6.691,0-12.452-1.054-15.089-2.31c-2.471-1.178-4.566-5.75-5.692-8.206l-0.236-0.514
						c-1.072-2.312-5.379-15.823-5.562-16.396c-0.063-0.198,0.046-0.409,0.243-0.472c0.202-0.063,0.409,0.047,0.472,0.243
						c0.045,0.141,4.475,14.04,5.526,16.309l0.238,0.518c1.009,2.201,3.108,6.781,5.333,7.841
						c3.298,1.572,11.769,2.746,20.227,1.998c7.806-0.693,25.013-3.13,26.684-3.779c0.118-0.028,1.295-0.239,3.041,0.046
						c0.245,0.04,0.608,0.129,1.052,0.238c1.86,0.458,5.326,1.311,7.138,0.063c0.67-0.46,1.055-1.161,1.178-2.143
						c0.025-0.204,0.192-0.353,0.419-0.325c0.205,0.025,0.351,0.213,0.325,0.419c-0.148,1.189-0.652,2.087-1.496,2.667
						c-2.092,1.437-5.768,0.532-7.743,0.046c-0.419-0.103-0.761-0.188-0.993-0.226c-1.606-0.261-2.706-0.069-2.717-0.067
						c-1.815,0.713-19.407,3.149-26.82,3.807C67.655,257.638,65.799,257.714,64.01,257.714z"/>
					<path fill="#51337B" d="M109.135,249.979c-0.031,0-0.063-0.004-0.095-0.013c-0.201-0.052-0.32-0.257-0.268-0.457
						c0.271-1.037,0.78-3.957-0.113-4.999c-0.254-0.297-0.613-0.416-1.104-0.365c-2.386,0.246-3.282-0.121-3.666-1.523
						c-0.11-0.402-0.128-1.147-0.15-2.09c-0.034-1.466-0.092-3.918-0.704-4.399c-0.228-0.178-0.362-0.153-0.458-0.113
						c-0.427,0.189-0.809,1.144-0.848,1.671c-0.055,0.729-0.194,2.706-0.194,2.706c-0.039,1.171-0.663,3.492-2.744,3.795
						c-2.321,0.338-18.648,0.027-19.343,0.014l0,0c0,0-6.567-0.074-8.5-0.119c-0.207-0.005-0.371-0.177-0.366-0.384
						s0.191-0.362,0.384-0.366c1.931,0.045,8.493,0.119,8.493,0.119c0.173,0.004,16.962,0.323,19.225-0.006
						c1.986-0.289,2.102-3.063,2.103-3.092c0.001-0.014,0.141-1.993,0.195-2.723c0.045-0.604,0.482-1.943,1.293-2.301
						c0.281-0.124,0.721-0.186,1.224,0.209c0.825,0.648,0.935,2.551,0.991,4.972c0.02,0.82,0.037,1.596,0.123,1.908
						c0.212,0.77,0.465,1.229,2.865,0.977c0.742-0.081,1.33,0.133,1.751,0.623c1.31,1.527,0.379,5.257,0.269,5.678
						C109.453,249.868,109.302,249.979,109.135,249.979z"/>
					<path fill="#51337B" d="M67.237,243.826c-0.008,0-0.017,0-0.025-0.001c-5.975-0.406-8.472-3.75-8.575-3.892
						c-2.263-2.207-5.404-9.923-5.537-10.25c-0.078-0.191,0.015-0.41,0.207-0.488c0.191-0.078,0.41,0.015,0.488,0.207
						c0.032,0.078,3.215,7.897,5.408,10.043c0.063,0.078,2.455,3.25,8.06,3.632c0.207,0.014,0.363,0.192,0.349,0.399
						C67.598,243.675,67.434,243.826,67.237,243.826z"/>
				</g>
				<path fill="#F9B234" d="M33.917,227.472c-0.027,1.258,1.079,2.234,2.324,2.049c5.242-0.782,17.468-0.575,18.468-1.512
					c1.604-1.501,1.867-33.658-3.061-33.574c-4.928,0.083-13.131,2.989-15.393,11.948C34.412,213.681,34.01,223.111,33.917,227.472z
					"/>
				<path fill="#51337B" d="M35.647,229.799c-0.197,0-0.35-0.005-0.446-0.016c-1.241-0.138-1.615-2.031-1.654-2.246
					c-0.006-0.078,0.063-2.384,0.211-5.491c0.179-3.745,1.358-15.605,4.347-20.797c2.913-5.058,9.52-6.392,12.007-6.894l0.416-0.086
					c1.976-0.419,5.795-0.022,5.956-0.006c0.206,0.021,0.355,0.206,0.334,0.412c-0.021,0.205-0.214,0.345-0.412,0.334
					c-0.039-0.005-3.861-0.399-5.722-0.006l-0.424,0.087c-2.396,0.483-8.762,1.769-11.505,6.533
					c-2.964,5.149-4.104,17.446-4.247,20.457c-0.147,3.099-0.217,5.399-0.217,5.401c0.067,0.325,0.408,1.49,0.992,1.555
					c0.794,0.089,6.391-0.296,8.481-0.451l9.011-0.498c0.05-0.01,0.102,0.004,0.149,0.021c0.024,0.01,0.671,0.229,1.233-0.193
					c0.497-0.371,1.063-1.342,0.936-3.858c0.007-0.137,0.601-9.556,0.276-15.976c-0.01-0.206,0.149-0.383,0.356-0.394
					c0.213-0.006,0.382,0.149,0.394,0.356c0.326,6.462-0.271,15.923-0.277,16.019c0.116,2.252-0.304,3.768-1.247,4.462
					c-0.756,0.557-1.585,0.388-1.846,0.314l-8.938,0.494C43.539,229.354,37.539,229.799,35.647,229.799z"/>
				<path fill="#51337B" d="M83.24,243.763c-0.201,0-0.367-0.159-0.375-0.361l-0.679-18.607c-0.007-0.207,0.154-0.381,0.361-0.389
					c0.005,0,0.01,0,0.014,0c0.201,0,0.367,0.159,0.375,0.361l0.679,18.607c0.007,0.207-0.154,0.381-0.361,0.389
					C83.249,243.763,83.244,243.763,83.24,243.763z"/>
			</g>
			<g>
				<path fill="#51337B" d="M98.088,394.253H16.232c-0.276,0-0.5-0.224-0.5-0.5s0.224-0.5,0.5-0.5h81.855c0.276,0,0.5,0.224,0.5,0.5
					S98.364,394.253,98.088,394.253z"/>
				<path fill="#51337B" d="M7.431,394.253H0.5c-0.276,0-0.5-0.224-0.5-0.5s0.224-0.5,0.5-0.5h6.931c0.276,0,0.5,0.224,0.5,0.5
					S7.707,394.253,7.431,394.253z"/>
			</g>
		</g>
		<g>
			<path fill="#7A5CA4" d="M175.958,31.316c-0.137,0.131-0.35,0.159-0.518,0.055c-1.989-1.229-4.009-2.399-6.003-3.479
				c-0.206-0.112-0.283-0.37-0.171-0.578c0.11-0.206,0.37-0.283,0.577-0.171c2.007,1.088,4.042,2.267,6.045,3.503
				c0.2,0.124,0.262,0.386,0.139,0.585C176.006,31.264,175.983,31.292,175.958,31.316z M160.751,23.387
				c-0.119,0.114-0.299,0.153-0.46,0.084c-3.167-1.347-6.376-2.516-9.539-3.474c-0.225-0.067-0.353-0.305-0.284-0.53
				c0.065-0.223,0.304-0.352,0.53-0.284c3.191,0.967,6.43,2.146,9.625,3.504c0.216,0.092,0.317,0.342,0.225,0.558
				C160.826,23.301,160.792,23.348,160.751,23.387z M141.254,17.521c-0.094,0.09-0.229,0.136-0.368,0.112
				c-3.354-0.59-6.745-0.966-10.08-1.117c-0.235-0.011-0.417-0.21-0.405-0.445c0.01-0.234,0.209-0.417,0.444-0.405
				c3.371,0.152,6.799,0.533,10.189,1.129c0.231,0.041,0.386,0.261,0.345,0.493C141.363,17.379,141.318,17.459,141.254,17.521z
				 M120.926,16.615c-0.068,0.065-0.157,0.108-0.257,0.117c-3.335,0.294-6.707,0.817-10.022,1.555
				c-0.229,0.051-0.457-0.094-0.508-0.323s0.096-0.457,0.323-0.508c3.353-0.746,6.761-1.275,10.132-1.572
				c0.234-0.021,0.44,0.152,0.461,0.387C121.067,16.404,121.016,16.529,120.926,16.615z M101.049,21.011
				c-0.042,0.04-0.093,0.072-0.151,0.093c-3.125,1.114-6.273,2.443-9.359,3.95c-0.211,0.103-0.466,0.016-0.569-0.195
				c-0.103-0.212-0.017-0.467,0.196-0.569c3.114-1.522,6.292-2.863,9.446-3.987c0.221-0.079,0.465,0.037,0.543,0.258
				C101.214,20.724,101.167,20.899,101.049,21.011z M33.805,81.23c-0.135,0.13-0.345,0.159-0.513,0.058
				c-0.201-0.122-0.266-0.383-0.146-0.583c1.133-1.886,3.021-4.906,5.579-8.592c0.135-0.188,0.399-0.241,0.592-0.107
				c0.193,0.134,0.241,0.399,0.107,0.592c-2.545,3.666-4.422,6.67-5.548,8.544C33.856,81.175,33.831,81.205,33.805,81.23z
				 M82.716,29.92c-0.021,0.021-0.045,0.04-0.071,0.056c-2.81,1.739-5.637,3.669-8.401,5.736c-0.188,0.141-0.455,0.103-0.595-0.085
				c-0.141-0.189-0.101-0.46,0.085-0.595c2.785-2.083,5.632-4.027,8.464-5.779c0.2-0.124,0.462-0.062,0.585,0.138
				C82.891,29.563,82.858,29.785,82.716,29.92z M45.426,64.44c-0.15,0.144-0.387,0.159-0.556,0.028
				c-0.185-0.145-0.218-0.413-0.073-0.598c2.109-2.701,4.305-5.354,6.528-7.885c0.145-0.171,0.423-0.194,0.6-0.039
				c0.177,0.154,0.194,0.423,0.039,0.6c-2.211,2.519-4.398,5.159-6.497,7.847C45.456,64.411,45.441,64.426,45.426,64.44z
				 M66.352,42.114c-0.004,0.004-0.009,0.008-0.014,0.013c-2.509,2.2-5.055,4.597-7.42,6.975c-0.003,0.003-0.005,0.005-0.008,0.008
				c-0.167,0.159-0.43,0.158-0.594-0.006c-0.167-0.166-0.167-0.435-0.002-0.602c2.381-2.395,4.937-4.802,7.464-7.016
				c0.176-0.154,0.445-0.137,0.6,0.04C66.528,41.698,66.516,41.957,66.352,42.114z"/>
			<g>
				<circle fill="#7A5CA4" cx="33.62" cy="80.798" r="3.199"/>
			</g>
		</g>
		<path fill="#7A5CA4" d="M47.771,109.96l-3.217,2.446c-0.876-0.357-1.791-0.613-2.723-0.74l0.2-4.251l-4.125-0.198l-0.219,4.647
			c-0.876,0.204-1.742,0.515-2.567,0.938l-2.548-3.353l-3.291,2.501l2.548,3.353c-0.563,0.615-1.058,1.275-1.457,1.979l-4.389-1.002
			l-0.912,4.027l3.918,0.898c-0.163,1.013-0.184,2.051-0.066,3.082l-3.431,2.608l2.497,3.285l2.254-1.713
			c0.275,0.502,0.571,0.997,0.927,1.464c0.386,0.507,0.819,0.96,1.266,1.385l-1.9,2.564l3.311,2.462l2.061-2.775
			c0.789,0.325,1.606,0.557,2.439,0.706l0.5,3.932l4.096-0.518l-0.441-3.469c1.012-0.201,1.997-0.531,2.941-1.009l2.561,3.37
			l3.291-2.501l-2.562-3.37c0.63-0.692,1.162-1.443,1.594-2.243l3.058,1.285l1.601-3.812l-3.364-1.408
			c0.12-0.918,0.125-1.847,0.024-2.774l2.826-1.09l-1.485-3.849l-2.532,0.973c-0.298-0.591-0.645-1.164-1.06-1.71
			c-0.355-0.467-0.753-0.885-1.164-1.285l2.04-1.55L47.771,109.96z M44.771,129.31c-3.392,2.578-8.242,1.917-10.82-1.475
			c-2.583-3.397-1.917-8.242,1.475-10.82c3.397-2.583,8.237-1.923,10.82,1.474C48.824,121.882,48.168,126.728,44.771,129.31z"/>
		<path fill="#7A5CA4" d="M192.478,32.989l-2.041,1.551c-0.555-0.226-1.135-0.389-1.727-0.469l0.127-2.696l-2.616-0.125
			l-0.139,2.947c-0.556,0.129-1.105,0.327-1.628,0.595l-1.617-2.126l-2.087,1.586l1.616,2.126c-0.357,0.39-0.671,0.809-0.924,1.255
			l-2.784-0.636l-0.579,2.555l2.485,0.569c-0.104,0.643-0.117,1.301-0.042,1.955l-2.176,1.654l1.583,2.083l1.43-1.086
			c0.174,0.318,0.362,0.632,0.588,0.929c0.245,0.321,0.519,0.609,0.803,0.878l-1.205,1.626l2.1,1.562l1.307-1.76
			c0.5,0.206,1.019,0.354,1.547,0.448l0.317,2.494l2.598-0.328l-0.28-2.201c0.642-0.127,1.267-0.337,1.865-0.64l1.625,2.137
			l2.087-1.586l-1.625-2.137c0.399-0.439,0.737-0.915,1.011-1.422l1.939,0.815l1.015-2.418l-2.134-0.893
			c0.076-0.583,0.08-1.171,0.016-1.76l1.792-0.691l-0.942-2.441l-1.605,0.617c-0.189-0.375-0.409-0.738-0.672-1.084
			c-0.226-0.297-0.478-0.562-0.738-0.815l1.293-0.983L192.478,32.989z M190.574,45.262c-2.151,1.636-5.228,1.216-6.863-0.935
			c-1.638-2.155-1.216-5.228,0.935-6.863c2.155-1.638,5.225-1.22,6.863,0.935C193.145,40.551,192.729,43.624,190.574,45.262z"/>
		<path fill="#7A5CA4" d="M27.825,91.516l-2.041,1.551c-0.556-0.227-1.136-0.389-1.727-0.469l0.127-2.696l-2.616-0.126l-0.139,2.948
			c-0.556,0.129-1.105,0.327-1.628,0.595l-1.616-2.126l-2.087,1.586l1.617,2.126c-0.358,0.391-0.671,0.809-0.924,1.255l-2.784-0.635
			l-0.579,2.554l2.485,0.569c-0.104,0.643-0.117,1.301-0.042,1.955l-2.176,1.654l1.584,2.083l1.429-1.087
			c0.175,0.319,0.362,0.633,0.588,0.929c0.245,0.322,0.52,0.609,0.803,0.878l-1.205,1.626l2.101,1.561l1.307-1.76
			c0.5,0.206,1.019,0.354,1.547,0.448l0.317,2.494l2.598-0.329l-0.28-2.2c0.642-0.127,1.267-0.337,1.865-0.64l1.625,2.137
			l2.087-1.586l-1.625-2.137c0.399-0.439,0.737-0.916,1.011-1.422l1.939,0.815l1.015-2.418l-2.134-0.893
			c0.076-0.582,0.08-1.171,0.016-1.76l1.792-0.691l-0.942-2.441l-1.606,0.618c-0.189-0.375-0.409-0.738-0.672-1.085
			c-0.226-0.297-0.478-0.562-0.738-0.815l1.293-0.983L27.825,91.516z M25.921,103.789c-2.151,1.635-5.228,1.216-6.863-0.935
			c-1.638-2.155-1.216-5.228,0.936-6.863c2.155-1.638,5.225-1.22,6.862,0.935C28.492,99.077,28.076,102.15,25.921,103.789z"/>
		<path fill="#7A5CA4" d="M435.789,188.327h-2.393c-0.285-0.482-0.625-0.93-1.019-1.324l1.617-1.932l-1.873-1.572l-1.769,2.113
			c-0.486-0.218-1.006-0.381-1.547-0.478v-2.494h-2.448v2.494c-0.485,0.088-0.955,0.222-1.396,0.411l-1.71-2.045l-1.873,1.572
			l1.525,1.827c-0.44,0.419-0.821,0.901-1.136,1.429h-2.553v2.443h1.677c-0.051,0.335-0.088,0.675-0.088,1.023
			c0,0.377,0.042,0.746,0.101,1.106l-1.815,0.528l0.68,2.347l1.966-0.57c0.255,0.436,0.558,0.838,0.896,1.207l-1.174,2.033
			l2.117,1.224l1.035-1.794c0.549,0.269,1.132,0.466,1.747,0.579v2.506h2.448v-2.506c0.545-0.101,1.064-0.265,1.555-0.486
			l0.981,1.701l2.12-1.224l-1.081-1.869c0.386-0.39,0.721-0.826,1.006-1.299l1.723,0.499l0.679-2.347l-1.542-0.448
			c0.071-0.386,0.113-0.78,0.113-1.186c0-0.348-0.038-0.688-0.088-1.023h1.517V188.327z M427.44,196.374
			c-2.523,0-4.573-2.05-4.573-4.573c0-2.527,2.05-4.573,4.573-4.573c2.527,0,4.572,2.045,4.572,4.573
			C432.013,194.324,429.968,196.374,427.44,196.374z"/>
		<path fill="#7A5CA4" d="M284.307,10.239h-4.309c-0.514-0.868-1.124-1.675-1.834-2.385l2.913-3.478l-3.373-2.83L274.52,5.35
			c-0.875-0.392-1.811-0.687-2.784-0.86V0h-4.406v4.49c-0.875,0.158-1.721,0.399-2.513,0.739l-3.078-3.682l-3.373,2.83l2.747,3.29
			c-0.793,0.754-1.479,1.622-2.045,2.573h-4.596v4.398h3.019c-0.091,0.604-0.158,1.215-0.158,1.841c0,0.679,0.075,1.343,0.181,1.992
			l-3.268,0.951l1.223,4.225l3.539-1.026c0.46,0.785,1.004,1.509,1.615,2.173l-2.113,3.66l3.811,2.203l1.863-3.229
			c0.988,0.483,2.037,0.837,3.146,1.041v4.512h4.406v-4.512c0.981-0.181,1.917-0.475,2.8-0.875l1.766,3.063l3.817-2.203
			l-1.946-3.365c0.694-0.702,1.298-1.486,1.811-2.339l3.102,0.898l1.223-4.225l-2.777-0.808c0.129-0.694,0.204-1.403,0.204-2.135
			c0-0.626-0.068-1.237-0.158-1.841h2.731V10.239z M269.276,24.726c-4.543,0-8.232-3.689-8.232-8.232
			c0-4.55,3.689-8.232,8.232-8.232c4.549,0,8.231,3.682,8.231,8.232C277.508,21.037,273.825,24.726,269.276,24.726z"/>
		<g>
			<path fill="#7A5CA4" d="M425.609,170.289c-0.231,0-0.422-0.186-0.425-0.418c-0.053-3.446-0.151-6.875-0.294-10.192
				c-0.01-0.234,0.173-0.433,0.407-0.443c0.259-0.021,0.434,0.172,0.444,0.407c0.141,3.325,0.239,6.761,0.293,10.215
				c0.003,0.235-0.184,0.429-0.419,0.432C425.614,170.289,425.612,170.289,425.609,170.289z M424.728,149.9
				c-0.221,0-0.407-0.171-0.424-0.395c-0.249-3.411-0.555-6.825-0.909-10.146c-0.025-0.234,0.144-0.443,0.378-0.468
				c0.223-0.02,0.442,0.143,0.468,0.378c0.355,3.332,0.662,6.755,0.912,10.175c0.017,0.234-0.159,0.438-0.394,0.455
				C424.749,149.9,424.738,149.9,424.728,149.9z M422.548,129.618c-0.208,0-0.391-0.153-0.421-0.365
				c-0.491-3.397-1.05-6.777-1.66-10.045c-0.044-0.231,0.108-0.454,0.34-0.497c0.225-0.04,0.452,0.109,0.496,0.34
				c0.613,3.28,1.174,6.672,1.667,10.081c0.033,0.232-0.128,0.448-0.361,0.481C422.588,129.617,422.568,129.618,422.548,129.618z
				 M418.783,109.576c-0.194,0-0.368-0.132-0.414-0.328c-0.787-3.347-1.655-6.658-2.58-9.843c-0.065-0.226,0.064-0.462,0.29-0.527
				c0.229-0.067,0.462,0.064,0.527,0.289c0.929,3.199,1.8,6.525,2.59,9.886c0.055,0.229-0.088,0.458-0.316,0.512
				C418.848,109.572,418.814,109.576,418.783,109.576z M413.076,90.005c-0.175,0-0.339-0.109-0.401-0.283
				c-1.148-3.241-2.395-6.426-3.702-9.468c-0.093-0.216,0.007-0.466,0.223-0.559c0.215-0.091,0.467,0.006,0.559,0.223
				c1.315,3.059,2.568,6.261,3.724,9.52c0.078,0.221-0.037,0.464-0.259,0.543C413.172,89.998,413.124,90.005,413.076,90.005z
				 M405.005,71.298c-0.154,0-0.302-0.083-0.377-0.229c-1.584-3.048-3.278-6.015-5.039-8.82c-0.124-0.199-0.064-0.461,0.135-0.586
				c0.198-0.124,0.461-0.064,0.587,0.134c1.771,2.824,3.479,5.811,5.071,8.88c0.109,0.208,0.027,0.465-0.181,0.574
				C405.139,71.282,405.071,71.298,405.005,71.298z M394.156,54.063c-0.128,0-0.255-0.058-0.339-0.168
				c-2.063-2.713-4.258-5.328-6.524-7.774c-0.161-0.172-0.149-0.441,0.022-0.601c0.17-0.159,0.441-0.15,0.601,0.023
				c2.286,2.465,4.5,5.102,6.579,7.837c0.143,0.187,0.105,0.454-0.081,0.596C394.336,54.035,394.246,54.063,394.156,54.063z
				 M380.3,39.149c-0.1,0-0.199-0.035-0.28-0.105c-2.548-2.232-5.232-4.342-7.98-6.271c-0.193-0.135-0.239-0.4-0.104-0.592
				c0.136-0.192,0.402-0.239,0.593-0.104c2.773,1.946,5.483,4.075,8.053,6.327c0.177,0.155,0.194,0.423,0.04,0.6
				C380.536,39.101,380.418,39.149,380.3,39.149z M363.63,27.453c-0.07,0-0.141-0.017-0.205-0.053
				c-2.939-1.619-6.017-3.105-9.146-4.417c-0.217-0.09-0.319-0.34-0.228-0.557c0.091-0.217,0.339-0.321,0.557-0.228
				c3.157,1.323,6.262,2.822,9.228,4.456c0.206,0.113,0.281,0.372,0.167,0.578C363.925,27.374,363.779,27.453,363.63,27.453z
				 M344.837,19.564c-0.041,0-0.083-0.006-0.124-0.019c-3.198-0.97-6.519-1.801-9.865-2.47c-0.23-0.046-0.38-0.27-0.334-0.5
				c0.047-0.231,0.272-0.381,0.5-0.334c3.374,0.674,6.721,1.512,9.946,2.49c0.225,0.068,0.352,0.306,0.283,0.531
				C345.188,19.446,345.02,19.564,344.837,19.564z M294.279,16.338c-0.203,0-0.384-0.146-0.419-0.354
				c-0.038-0.232,0.117-0.451,0.35-0.491c2.177-0.369,5.711-0.871,10.184-1.176c0.265-0.004,0.438,0.162,0.454,0.396
				c0.016,0.234-0.161,0.437-0.396,0.453c-4.439,0.302-7.942,0.801-10.101,1.166C294.328,16.336,294.304,16.338,294.279,16.338z
				 M324.832,15.548c-0.016,0-0.031-0.001-0.046-0.002c-3.341-0.354-6.761-0.566-10.163-0.629c-0.235-0.004-0.423-0.198-0.418-0.433
				c0.004-0.235,0.178-0.427,0.433-0.417c3.428,0.063,6.872,0.277,10.238,0.634c0.233,0.024,0.402,0.234,0.378,0.468
				C325.23,15.386,325.046,15.548,324.832,15.548z"/>
			<g>
				<circle fill="#7A5CA4" cx="294.446" cy="15.912" r="3.199"/>
			</g>
		</g>
		<g>
			<path fill="#FFFFFF" d="M156.901,131.896h-42.459c-4.278,0-7.779,3.5-7.779,7.779v12.645c0,4.278,3.501,7.779,7.779,7.779h1.286
				c-0.084,0.497,1.049,3.242-3.177,9.454c-0.819,1.203,7.172-1.985,9.478-9.454h34.873c4.278,0,7.779-3.5,7.779-7.779v-12.645
				C164.68,135.397,161.18,131.896,156.901,131.896z M115.785,160.099h0.337C115.943,160.166,115.822,160.176,115.785,160.099z"/>
			<path fill="#E8DFF0" d="M151.568,137.87h-36.532c-0.197,0-0.358-0.161-0.358-0.358l0,0c0-0.197,0.161-0.358,0.358-0.358h36.532
				c0.197,0,0.358,0.161,0.358,0.358l0,0C151.926,137.709,151.765,137.87,151.568,137.87z"/>
			<path fill="#E8DFF0" d="M154.426,141.574h-39.383c-0.197,0-0.358-0.161-0.358-0.358l0,0c0-0.197,0.161-0.358,0.358-0.358h39.383
				c0.197,0,0.358,0.161,0.358,0.358l0,0C154.784,141.413,154.623,141.574,154.426,141.574z"/>
			<path fill="#E8DFF0" d="M156.972,149.965h-41.735c-0.197,0-0.357-0.161-0.357-0.358l0,0c0-0.197,0.161-0.358,0.357-0.358h41.735
				c0.197,0,0.358,0.161,0.358,0.358l0,0C157.33,149.804,157.169,149.965,156.972,149.965z"/>
			<path fill="#E8DFF0" d="M150.478,145.748h-35.435c-0.197,0-0.358-0.161-0.358-0.358l0,0c0-0.197,0.161-0.358,0.358-0.358h35.435
				c0.197,0,0.358,0.161,0.358,0.358l0,0C150.835,145.587,150.674,145.748,150.478,145.748z"/>
			<path fill="#E8DFF0" d="M151.02,154.356h-35.435c-0.197,0-0.358-0.161-0.358-0.358l0,0c0-0.197,0.161-0.357,0.358-0.357h35.435
				c0.197,0,0.358,0.161,0.358,0.357l0,0C151.377,154.195,151.216,154.356,151.02,154.356z"/>
			<path fill="#51337B" d="M112.344,170.132c-0.035,0-0.065-0.018-0.103-0.039c-0.202-0.115-0.086-0.325-0.043-0.405
				c0.017-0.031,0.041-0.057,0.069-0.077c0.153-0.244,0.558-0.907,1.615-2.684c1.778-2.988,1.747-5.78,1.694-6.575
				c-0.674,0.057-2.656,0.092-5.017-1.037c-2.761-1.319-3.908-3.969-4.063-6.01c-0.07-0.933-0.044-13.65-0.043-14.191
				c0-0.127,0.104-0.23,0.231-0.23h0c0.127,0,0.231,0.104,0.23,0.231c0,0.132-0.027,13.24,0.042,14.156
				c0.144,1.912,1.218,4.394,3.801,5.627c2.735,1.307,4.968,0.974,4.99,0.97c0.061-0.01,0.124,0.005,0.174,0.042
				c0.05,0.037,0.083,0.093,0.091,0.154c0.019,0.139,0.441,3.441-1.734,7.098c-0.661,1.11-1.081,1.816-1.36,2.26
				c1.641-0.506,6.477-2.542,8.892-9.404c0.033-0.092,0.12-0.154,0.218-0.154h25.179c0.127,0,0.231,0.104,0.231,0.231
				c0,0.128-0.104,0.231-0.231,0.231h-25.016c-2.863,7.938-8.923,9.516-9.674,9.682
				C112.438,170.103,112.388,170.132,112.344,170.132z"/>
			<path fill="#51337B" d="M152.235,160.43c-1.871,0-3.295-0.091-3.442-0.101c-0.127-0.008-0.224-0.118-0.215-0.246
				c0.008-0.127,0.109-0.219,0.246-0.215c0.092,0.006,9.267,0.59,12.201-1.237c2.931-1.825,3.425-3.656,3.425-7.071v-11.885
				c0.003-0.292-0.025-7.105-7.562-7.548l-40.572,0c-0.085-0.003-7.183-0.386-8.873,4.735l-0.347,1.085
				c-0.04,0.121-0.169,0.188-0.291,0.149c-0.122-0.039-0.188-0.169-0.15-0.291l0.348-1.087c1.804-5.464,9.253-5.058,9.327-5.054
				l40.571,0c7.994,0.469,8.011,7.937,8.01,8.012v11.883c0,3.52-0.545,5.535-3.643,7.463
				C159.385,160.197,155.235,160.43,152.235,160.43z"/>
		</g>
		<g>
			<g>
				<path fill="#FFFFFF" d="M391.777,131.328h-42.223c-3.251,0-5.911,2.66-5.911,5.911v17.488c0,3.251,2.66,5.912,5.911,5.912
					h33.867c0,0,4.804,6.65,8.005,8.128c3.202,1.478,3.572,1.478,3.572,1.478s-4.434-6.158-4.506-9.606h1.284
					c3.251,0,5.911-2.66,5.911-5.912v-17.488C397.688,133.988,395.028,131.328,391.777,131.328z"/>
			</g>
			<g>
				<circle fill="#E8DFF0" cx="361.196" cy="146.354" r="2.142"/>
				<path fill="#51337B" d="M361.196,148.792c-1.345,0-2.438-1.094-2.438-2.438c0-1.344,1.094-2.438,2.438-2.438
					s2.438,1.094,2.438,2.438C363.635,147.698,362.541,148.792,361.196,148.792z M361.196,144.508c-1.019,0-1.846,0.828-1.846,1.846
					c0,1.018,0.827,1.846,1.846,1.846c1.018,0,1.846-0.828,1.846-1.846C363.042,145.336,362.214,144.508,361.196,144.508z"/>
			</g>
			<g>
				<circle fill="#E8DFF0" cx="370.534" cy="146.354" r="2.143"/>
				<path fill="#51337B" d="M370.534,148.792c-1.345,0-2.438-1.094-2.438-2.438c0-1.344,1.094-2.438,2.438-2.438
					s2.438,1.094,2.438,2.438C372.973,147.698,371.879,148.792,370.534,148.792z M370.534,144.508c-1.018,0-1.846,0.828-1.846,1.846
					c0,1.018,0.828,1.846,1.846,1.846c1.019,0,1.846-0.828,1.846-1.846C372.38,145.336,371.553,144.508,370.534,144.508z"/>
			</g>
			<g>
				<circle fill="#E8DFF0" cx="379.872" cy="146.354" r="2.143"/>
				<path fill="#51337B" d="M379.872,148.792c-1.345,0-2.438-1.094-2.438-2.438c0-1.344,1.094-2.438,2.438-2.438
					s2.438,1.094,2.438,2.438C382.31,147.698,381.217,148.792,379.872,148.792z M379.872,144.508c-1.018,0-1.846,0.828-1.846,1.846
					c0,1.018,0.828,1.846,1.846,1.846s1.846-0.828,1.846-1.846C381.718,145.336,380.89,144.508,379.872,144.508z"/>
			</g>
			<path fill="#51337B" d="M394.999,170.541c-0.011,0-0.021,0-0.031-0.002c-5.301-0.56-10.901-8.439-11.703-9.604h-33.312
				c-5.52,0-6.591-5.476-6.602-5.531c-0.029-0.16,0.077-0.314,0.237-0.344c0.157-0.03,0.315,0.076,0.346,0.237
				c0.038,0.206,0.998,5.046,6.019,5.046h33.469c0.099,0,0.19,0.049,0.246,0.131c0.057,0.085,5.564,8.22,10.718,9.37
				c-1.002-1.58-3.721-6.083-4.185-9.161c-0.014-0.088,0.013-0.177,0.072-0.242c0.061-0.066,0.158-0.104,0.234-0.098
				c0.027,0.001,2.838,0.117,4.877-1.508c1.172-0.934,1.871-2.459,1.871-4.081v-18.408c-0.021-0.161-0.619-4.722-7.072-4.722
				h-28.079c-0.164,0-0.297-0.132-0.297-0.296c0-0.164,0.133-0.296,0.297-0.296h28.079c6.999,0,7.657,5.229,7.662,5.281
				l0.002,18.441c0,1.8-0.783,3.499-2.094,4.544c-1.784,1.422-4.032,1.619-4.907,1.639c0.719,3.596,4.36,9.087,4.398,9.144
				c0.063,0.095,0.066,0.219,0.007,0.317C395.198,170.487,395.102,170.541,394.999,170.541z"/>
			<path fill="#51337B" d="M343.644,153.801c-0.164,0-0.297-0.132-0.297-0.296c0-0.135,0.002-13.597,0.135-17.521
				c0.141-4.167,5.488-4.92,5.542-4.928l10.576-0.024h0.001c0.163,0,0.295,0.132,0.296,0.295c0.001,0.164-0.132,0.296-0.296,0.297
				l-10.538,0.022c-0.01,0.004-4.865,0.694-4.989,4.358c-0.132,3.914-0.134,17.366-0.134,17.501
				C343.939,153.669,343.807,153.801,343.644,153.801z"/>
		</g>
	</g>
</g>
<g>
	<path fill="#7A5CA4" d="M239.515,208.164h-4.938l-0.863,2.793h-3.85l5.483-14.95h3.388l5.524,14.95h-3.871L239.515,208.164z
		 M235.439,205.382h3.214l-1.612-5.186L235.439,205.382z"/>
	<path fill="#7A5CA4" d="M249.188,210.957h-3.594v-14.95h3.594V210.957z"/>
</g>
<g>
	<path fill="#7A5CA4" d="M169.414,301.959c1.106-2.903,2.949-4.355,5.527-4.355h1.68l-1.855,8.047l-0.488,2.051h9.98
		c0.325,0,0.618-0.098,0.879-0.293c0.273-0.208,0.449-0.475,0.527-0.801l0.234-0.996h0.02l1.855-8.008h6.387l-5.449,21.992
		c-1.028,2.903-2.878,4.355-5.547,4.355h-1.68l1.855-7.754l0.586-2.344h-9.961c-0.755,0-1.257,0.364-1.504,1.094l-0.176,0.742
		l-1.992,8.262h-6.25L169.414,301.959z"/>
	<path fill="#7A5CA4" d="M190.449,323.951l4.922-19.961h6.445l-4.844,19.961H190.449z M196.992,297.584h6.426l-1.211,4.688h-6.426
		L196.992,297.584z"/>
	<path fill="#7A5CA4" d="M205.391,309.303h15.918l-1.504,5.82h-15.859L205.391,309.303z"/>
	<path fill="#7A5CA4" d="M233.359,303.6h-8.711l1.465-5.996h23.32l-1.484,5.996h-8.438l-5.078,20.352h-6.23L233.359,303.6z"/>
	<path fill="#7A5CA4" d="M254.688,323.873c-1.888-0.117-3.317-0.54-4.287-1.27s-1.702-1.719-2.197-2.969
		c-1.081-2.695-0.847-5.762,0.703-9.199c2.083-3.919,5.481-6.021,10.195-6.309h6.465c1.992,0.131,3.304,0.713,3.936,1.748
		s0.784,2.197,0.459,3.486l-0.039,0.195l-1.738,7.109h-11.602c-0.638-0.091-0.967-0.566-0.986-1.426s0.251-1.726,0.811-2.598
		s1.374-1.354,2.441-1.445h2.285h2.07l0.41-1.641h-0.078h-3.945h-0.02c-1.563,0.053-2.825,0.488-3.789,1.309
		c-0.964,0.769-1.595,1.706-1.895,2.813c-0.755,2.981,0.144,4.519,2.695,4.609h2.988h8.242l-1.367,5.664L254.688,323.873z"/>
	<path fill="#7A5CA4" d="M277.539,323.873c-1.888-0.117-3.317-0.54-4.287-1.27s-1.702-1.719-2.197-2.969
		c-1.081-2.695-0.847-5.762,0.703-9.199c2.083-3.919,5.481-6.021,10.195-6.309h11.328l-1.309,5.43h-6.387h-3.145h-0.02
		c-1.563,0.053-2.825,0.488-3.789,1.309c-0.964,0.769-1.595,1.706-1.895,2.813c-0.886,3.034,0.013,4.57,2.695,4.609h2.988h7.441
		l-1.367,5.664L277.539,323.873z"/>
	<path fill="#7A5CA4" d="M297.52,297.584h6.445l-1.484,6.445h5.527c1.784,0,3.19,0.678,4.219,2.031
		c1.028,1.342,1.348,2.917,0.957,4.727l-3.164,13.164h-6.465l3.184-13.164c0.052-0.338-0.02-0.631-0.215-0.879
		c-0.208-0.26-0.488-0.391-0.84-0.391h-4.57l-3.438,14.434h-6.445L297.52,297.584z"/>
</g>
</svg>
