<?xml version="1.0" encoding="utf-8"?>
<!-- Generator: Adobe Illustrator 16.0.0, SVG Export Plug-In . SVG Version: 6.00 Build 0)  -->
<!DOCTYPE svg PUBLIC "-//W3C//DTD SVG 1.1//EN" "http://www.w3.org/Graphics/SVG/1.1/DTD/svg11.dtd">
<svg version="1.1" id="Layer_1" xmlns="http://www.w3.org/2000/svg" xmlns:xlink="http://www.w3.org/1999/xlink" x="0px" y="0px"
	 width="2192.063px" height="2087.909px" viewBox="0 0 2192.063 2087.909" enable-background="new 0 0 2192.063 2087.909"
	 xml:space="preserve">
<g>
	<path fill="#EBF2F9" d="M182.239,1436.615c0,0-274.745-229.365-149.545-528.698s351.815,157.54,509.774-264.958
		S735.812-102.973,1156.32,30.444s248.136,483.55,468.216,518.716c220.081,35.166,393.97,161.967,293.114,436.151
		c-100.855,274.186,149.545,454.243,149.545,454.243L182.239,1436.615z"/>
	<polygon fill="#F1A34F" points="1434.213,105.121 1348.27,113.858 1375.075,135.715 1159.883,393.935 1029.75,229.179 
		881.437,395.395 822.066,302.816 705.94,420.627 743.355,458.042 812.96,388.436 876.302,482.507 1029.073,310.072 
		1156.585,476.691 1416.084,169.156 1442.951,191.064 	"/>
	<g>
		<g>
			<path fill="#699DEE" d="M1953.554,1742.88c0,0-35.462-41.37-2.187-67.648c0,0,24.306-14.716,44.124-13.52
				c0,0-28.083,47.09-18.998,51.773c9.086,4.684,27.509-54.729,27.509-54.729s55.312-5.362,73.104,3.191
				c0,0-47.283,38.694-37.325,40.998c9.958,2.302,61.031-35.676,61.031-35.676s51.479,8.76,48.732,40.164
				c-2.744,31.403-20.482,41.1-28.278,40.265s-53.4-18.243-54.394-11.856c-0.993,6.389,26.459,27.265,45.682,28.241
				c0,0-36.294,40.025-60.414,28.474c-24.122-11.552-26.18-29.861-41.216-36.729c-15.037-6.868-27.872-6.851-21.664,0.153
				s33.42,13.812,42.019,29.021s16.313,25.468-8.643,21.714c-24.955-3.756-65.521-22.017-67.301-42.927
				C1953.554,1742.88,1953.554,1742.88,1953.554,1742.88z"/>
			<g>
				<path fill="#699DEE" d="M2124.251,1708.282c0,0-139.82-5.389-170.697,34.598c0,0-6.829,20.452-27.842,39.075l-3.275,8.927
					c0,0,24.229-25.547,32.898-27.092C1955.335,1763.79,1941.777,1714.251,2124.251,1708.282z"/>
				<path fill="#699DEE" d="M1925.712,1781.955c0,0-30.012,22.194-32.096,61.852l5.447,0.487c0,0,9.584-41.005,26.908-57.04
					C1943.297,1771.218,1925.712,1781.955,1925.712,1781.955z"/>
			</g>
		</g>
		<g>
			<path fill="#699DEE" d="M1829.569,1690.852c0,0,56.41-31.589,30.085-74.462c0,0-21.06-26.324-43.623-33.093
				c0,0,12.033,63.932,0,65.437c-12.035,1.504-8.273-72.206-8.273-72.206s-59.127-11.833-82.443-9.576
				c0,0,36.563,45.679,24.528,44.175c-12.034-1.505-53.401-64.684-53.401-64.684s-60.923-11.282-70.701,24.82
				c-9.777,36.103,6.018,54.154,15.044,56.41c9.025,2.257,66.938,1.503,65.436,9.025c-1.505,7.521-40.616,19.555-62.428,12.785
				c0,0,24.068,59.419,55.658,56.41c31.589-3.007,41.367-22.563,60.923-24.066c19.556-1.505,33.846,3.759,24.068,9.024
				s-42.872,1.726-58.666,15.153c-15.795,13.429-28.582,21.701,0.752,27.719c29.332,6.018,81.982,2.257,92.512-20.308
				C1829.569,1690.852,1829.569,1690.852,1829.569,1690.852z"/>
			<g>
				<path fill="#699DEE" d="M1653.569,1582.544c0,0,157.948,51.146,176,108.308c0,0-0.752,25.573,15.043,54.905v11.283
					c0,0-16.548-38.359-25.573-43.624C1819.039,1713.416,1854.389,1663.775,1653.569,1582.544z"/>
				<path fill="#699DEE" d="M1844.612,1745.757c0,0,24.358,36.989,10.472,82.017l-6.268-1.685c0,0,6.084-49.593-6.66-74.536
					C1829.412,1726.61,1844.612,1745.757,1844.612,1745.757z"/>
			</g>
		</g>
		<g>
			<path fill="#AFCDFB" d="M1919.312,1647.285c0,0-74.358-41.642-39.657-98.153c0,0,27.761-34.701,57.505-43.624
				c0,0-15.864,84.273,0,86.256c15.863,1.983,10.904-95.18,10.904-95.18s78.325-37.675,109.061-34.7
				c0,0-48.581,82.291-32.718,80.308s70.394-85.265,70.394-85.265s80.308-14.872,93.196,32.718s-7.933,71.384-19.829,74.359
				c-11.897,2.974-88.24,1.982-86.257,11.896c1.983,9.915,53.539,25.778,82.291,16.854c0,0-31.727,78.325-73.368,74.36
				c-41.641-3.966-54.529-29.744-80.308-31.728c-25.776-1.982-44.615,4.958-31.726,11.897c12.889,6.94,56.512,2.274,77.333,19.976
				c20.82,17.699,37.675,28.605-0.992,36.537c-38.666,7.932-108.067,2.975-121.948-26.769
				C1919.312,1647.285,1919.312,1647.285,1919.312,1647.285z"/>
			<g>
				<path fill="#699DEE" d="M2151.312,1504.517c0,0-208.205,67.418-232,142.769c0,0,0.992,33.71-19.828,72.377v14.872
					c0,0,21.812-50.564,33.709-57.505C1933.193,1677.029,1886.595,1611.593,2151.312,1504.517z"/>
				<path fill="#699DEE" d="M1899.484,1719.662c0,0-32.108,48.758-13.805,108.111l8.261-2.219c0,0-8.018-65.374,8.781-98.253
					C1919.52,1694.421,1899.484,1719.662,1899.484,1719.662z"/>
			</g>
		</g>
		<path fill="#F1A34F" d="M1916.807,1956.482c80.444,0,145.657-65.214,145.657-145.657H1771.15
			C1771.15,1891.269,1836.363,1956.482,1916.807,1956.482z"/>
		<path fill="#FFB973" d="M1952.649,1955.367c-5.924,0.741-11.965,1.115-18.097,1.115c-80.443,0-145.65-65.216-145.65-145.659
			h36.186C1825.087,1885.143,1880.744,1946.456,1952.649,1955.367z"/>
		<path fill="#F1A34F" d="M2046.505,1945.924h-259.396c-9.925,0-17.971,8.046-17.971,17.97h295.338
			C2064.476,1953.97,2056.431,1945.924,2046.505,1945.924z"/>
		<rect x="1766.36" y="1810.823" fill="#D86713" width="299.417" height="4.469"/>
	</g>
	<g>
		<path fill="#4A75CB" d="M799.5,862.055l-62.949,748.481c0,0-6.595,45.372,27.153,45.452c55.49,0.133,276.19,0,276.19,0
			s-41.763-9.445-41.257-30.695c0.597-25.048,73.574-770.321,73.574-770.321L799.5,862.055z"/>
		<path fill="#AFCDFB" d="M1057.801,1642.408c-10.913,0.033-221.71,0.693-275.748,0c-23.551-0.293-27.68-20.938-27.875-34.301
			c-0.098-6.406,0.716-11.142,0.716-11.142l1.636-19.454l4.173-49.584l3.685-43.807l4.736-56.292l3.988-47.513l44.728-531.849
			l272.714-7.077c0,0-30.737,311.893-52.478,538.925c-2.428,25.295-4.736,49.55-6.871,72.19c-0.693,7.229-1.354,14.295-2.005,21.177
			c-2.016,21.481-3.859,41.206-5.463,58.623c-0.846,9.18-1.625,17.709-2.33,25.522c-2.774,30.617-4.4,50.169-4.422,53.887
			c-0.011,2.167,0.174,4.184,0.531,6.059C1021.994,1641.628,1053.705,1642.408,1057.801,1642.408z"/>
		<polygon fill="#AFCDFB" points="1446.5,454.759 137.203,454.759 290.536,1070.667 311.53,1155.018 382.945,1441.89 
			1709.724,1441.89 		"/>
		<polygon fill="#4A75CB" points="137.201,454.758 115.95,461.842 354.694,1463.317 382.947,1441.893 		"/>
		<polygon fill="#4A75CB" points="354.694,1463.317 1673.306,1463.317 1709.719,1441.893 382.947,1441.893 		"/>
		<rect x="817.752" y="1642.707" fill="#4A75CB" width="285.5" height="13.568"/>
		<polygon fill="#4A75CB" points="1030.674,1463.313 1029.201,1473.684 760.703,1527.928 764.387,1484.121 766.144,1463.313 		"/>
		<path fill="#699DEE" d="M1057.801,1642.408c-10.913,0.033-221.71,0.693-275.748,0c-23.551-0.293-27.68-20.938-27.875-34.301
			l267.229-50.278c-2.774,30.617-4.4,50.169-4.422,53.887c-0.011,2.167,0.174,4.184,0.531,6.059
			C1021.994,1641.628,1053.705,1642.408,1057.801,1642.408z"/>
		<polygon opacity="0.2" fill="#699DEE" points="948.535,1247.965 382.946,1441.892 334.645,1247.85 		"/>
		<polygon fill="#699DEE" points="1446.499,454.758 137.201,454.758 334.53,1247.85 1658.049,1248.102 		"/>
	</g>
	<path fill="#4A75CB" d="M1081.508,1348.39c-3.782-19.455-22.62-35.228-42.077-35.228c-19.456,0-32.162,15.772-28.38,35.228
		c3.781,19.457,22.619,35.229,42.076,35.229C1072.583,1383.619,1085.29,1367.847,1081.508,1348.39z"/>
	<polygon fill="#FFFFFF" points="1597.183,1213.723 371.283,1213.723 232.452,660.667 221.811,618.255 212.727,582.079 
		191.437,497.254 1399.667,497.254 1423.049,582.079 1433.023,618.255 1444.712,660.667 	"/>
	<polygon fill="#AFCDFB" points="1399.667,497.254 191.437,497.254 212.727,582.08 1423.049,582.08 	"/>
	<g>
		<path fill="#E9F3FE" d="M249.379,524.985c-5.856,0-9.42,4.747-7.96,10.604s7.391,10.604,13.248,10.604
			c5.856,0,9.42-4.748,7.959-10.604C261.167,529.732,255.236,524.985,249.379,524.985z"/>
		<path fill="#E9F3FE" d="M284.612,524.985c-5.856,0-9.42,4.747-7.96,10.604c1.46,5.856,7.392,10.604,13.248,10.604
			c5.856,0,9.42-4.748,7.96-10.604C296.4,529.732,290.469,524.985,284.612,524.985z"/>
		<path fill="#E9F3FE" d="M335.799,535.589c-1.46-5.856-7.391-10.604-13.248-10.604s-9.42,4.747-7.96,10.604
			c1.46,5.856,7.392,10.604,13.248,10.604S337.259,541.445,335.799,535.589z"/>
	</g>
	<g>
		<polygon fill="#E49963" points="1799.627,1994.06 1786.867,2047.804 1767.753,2047.695 1767.052,1994.06 		"/>
		<polygon fill="#E49963" points="1638.849,1996.351 1602.542,2047.804 1588.39,2029.635 1610.243,1989.276 		"/>
		<path fill="#163560" d="M1733.245,1287.813c6.599-3.751,14.507-4.16,20.037-3.833c-1.425-1.47-4.226-2.006-4.226-2.006
			c3.43-0.51,11.085,2.893,11.085,2.893c47.708-18.385,55.206,51.865,54.204,68.186c-0.995,16.318,16.031,21.648,40.854,34.506
			c47.357,24.534,51.518,57.387,51.518,57.387c-0.369,0.218-0.754,0.466-1.164,0.747c-2.35-3.98-7.187-11.456-11.266-12.584
			c0.154,0.362,4.82,10.292,6.562,15.982c-13.972,10.628-40.107,34.178-58.323,50.874c0.08-3.264-0.049-7.896-1.241-10.344
			l-2.251,13.553c-9.747,8.961-16.469,15.265-16.469,15.265c1.204-13.188-59.646-82.784-91.393-103.628
			c-7.729-11.376-10.476-31.477-10.681-33.059c1.334,15.938,4.06,24.877,6.497,29.91
			C1700.105,1386.919,1715.755,1297.751,1733.245,1287.813z"/>
		<path fill="#E49963" d="M1733.05,1415.848c-0.158,0.071,15.328,8.112,26.978,4.927c10.958-2.988,18.118-17.196,17.967-17.229
			c-4.641-0.921-5.979-7.298-5.88-34.701l-2.098,0.413l-35.274,6.985c0,0,0.803,11.102,0.827,21.558
			C1735.593,1406.582,1735.061,1414.91,1733.05,1415.848z"/>
		<path fill="#E37970" d="M1772.94,1299.315c0,0-17.401-18.525-39.247-0.948C1733.693,1298.367,1746.407,1296.169,1772.94,1299.315z
			"/>
		<path fill="#D68D5D" d="M1734.743,1376.243c0,0,0.803,11.102,0.827,21.558c19.738-0.556,30.172-18.563,34.447-28.543
			L1734.743,1376.243z"/>
		<path fill="#163560" d="M1773.66,1365.418c0,0,10.344-16.344,12.826-30.32c1.773-9.979-3.309-46.965-40.474-41.638
			c0,0-10.795,1.063-20.941,7.917c-8.069,5.45-19.714,17.216-6.694,49.491l3.383,10.902L1773.66,1365.418z"/>
		<path fill="#2B478B" d="M1594.152,2015.531l18.697,0.571l20.239,0.62c0,0,46.748-52.048,72.971-135.484
			c0.612-1.939,1.256-3.901,1.939-5.889c14.351-41.846,44.102-94.37,59.779-141.913c2.496-7.573,4.737-14.701,6.747-21.447
			c0.644-2.161,1.271-4.283,1.867-6.373c11.555-40.145,14.899-66.502,17.982-94.664l-113.211,0.906
			C1681.164,1611.858,1662.887,1804.158,1594.152,2015.531z"/>
		<path fill="#E7F1FD" d="M1697.012,1546.806c0.285,53.872-7.903,76.985-7.903,76.985s48.474,24.628,106.084,6.5
			c0.679-0.214,47.702-10.946,47.702-10.946c-0.965-2.181-9.538-38.487-10.478-40.486c-12.164-26.121-21.399-37.574-22.842-45.604
			c-2.676-14.992-2.734-30.504-1.401-45.135c3.515-38.729,13.97-70.88,13.97-70.88c-15.697-3.571-30.396-9.847-46.735-15.974
			c-3.758,4.679-15.246,9.576-25.212,9.353c-11.475-0.254-15.197-5.166-14.602-10.529c-12.229,6.805-21.986,13.233-21.986,13.233
			c-10.394,18.054-31.473,35.585-33,63.279C1680.232,1483.412,1697.004,1545.296,1697.012,1546.806z"/>
		<path fill="#A8D29F" d="M1631.285,1466.771c16.619-19.414,59.68-61.518,104.112-66.683l-38.343,74.696
			c0,0-2.156,12.803-13.51,20.263c-27.812,18.276-63.173,26.355-63.173,26.355s-23.948-10.446-56.684-34.434
			c-10.275-7.529-28.331-36.247-28.331-36.247l4.87-16.296c0,0,30.655,17.139,41.605,22.082c6.241,2.817,20.607,9.544,30.729,14.299
			C1619.001,1473.832,1626.658,1472.176,1631.285,1466.771z"/>
		<path fill="#E49963" d="M1728.151,1386.146c0,0,46.702,0.77,46.733-28.32c0.033-29.092,6.082-48.585-23.734-50.308
			c-29.816-1.722-35.622,9.373-37.994,19.081C1710.783,1336.306,1716.003,1385.195,1728.151,1386.146z"/>
		<path fill="#163560" d="M1729.879,1306.806c0,0,12.787,34.13,32.41,39.177c19.624,5.046,28.136-0.212,28.136-0.212
			s-15.052-11.958-18.176-32.832C1772.25,1312.938,1739.525,1290.561,1729.879,1306.806z"/>
		<path fill="#163560" d="M1733.049,1309.576c0,0-9.55,7.62-11.878,15.028s-3.375,22.658-7.82,22.14c0,0-9.633-23.198,1.193-36.321
			C1726.024,1296.507,1733.049,1309.576,1733.049,1309.576z"/>
		<path fill="#E49963" d="M1540.227,1434.427c0,0-6.583-23.729-32.669-20.375c-2.993,0.938-11.74,4.426-6.15,13.79
			c4.122,6.903,5.907,3.342,12.39,12.618c6.483,9.277,13.52,11.372,21.56,10.263L1540.227,1434.427z"/>
		<path fill="#E49963" d="M1787.509,2044.8c0,0-1.54,10.645,2.434,22.035c0,0,3.129,14.254-10.91,14.519
			c-14.038,0.266-17.481-1.06-15.893-9.801c1.59-8.74,4.613-23.857,4.613-23.857L1787.509,2044.8z"/>
		<path fill="#82B378" d="M1761.814,2087.441c0,0,0.3,0.186,0.883,0.468h27.479c0.529-0.282,0.776-0.468,0.776-0.468
			c1.587-7.152-1.005-20.609-1.005-20.609c-15.9,14.569-25.849-0.362-25.849-0.362
			C1761.514,2072.696,1761.814,2087.441,1761.814,2087.441z"/>
		<path fill="#E49963" d="M1554.562,2072.981c0,0,25.882-28.729,33.828-43.347l19.246,9.86l-43.021,40.401l-10.065-1.324
			L1554.562,2072.981z"/>
		<path fill="#82B378" d="M1538.503,2087.909h35.416c3.413-2.549,6.597-8.448,10.557-16.368c2.107-4.224,6.852-6.552,11.72-7.83
			v23.925h7.347l6.958-25.434c4.577-8.422,0.361-16.059-2.866-22.709c-3.748-0.009-13.837,2.558-32.956,24.103
			c-6.288,7.073-13.229,9.604-20.116,9.384c-0.097,0.062-0.193,0.114-0.282,0.149
			C1542.745,2078.314,1539.447,2084.761,1538.503,2087.909z"/>
		<path fill="#A8D29F" d="M1735.595,1400.089c0,0-27.02,66.75-27.814,80.259c-0.794,13.508-3.178,220.907-3.178,220.907
			s1.589,9.536-16.688,5.563c-18.277-3.973-23.045-7.946-23.045-7.946s17.482-127.936,12.715-172.435
			c-4.768-44.5,36.553-117.076,36.553-117.076L1735.595,1400.089z"/>
		<path fill="#233862" d="M1612.849,2016.103l20.239,0.62c0,0,46.748-52.048,72.971-135.484c0.612-1.939,1.256-3.901,1.939-5.889
			c14.351-41.846,44.102-94.37,59.779-141.913c2.496-7.573,4.737-14.701,6.747-21.447c0.644-2.161,1.271-4.283,1.867-6.373
			l-16.672-12.65c0,0-50.053,81.053-65.549,157.329C1680.71,1916.552,1626.802,1996.276,1612.849,2016.103z"/>
		<path fill="#163560" d="M1665.993,1514.049l0.982,3.022l52.396-17.03c0,0,0.691-0.809,0.332-1.865
			c-0.396-1.167-1.314-1.157-1.314-1.157L1665.993,1514.049z"/>
		<path fill="#2B478B" d="M1757.98,1857.398c-0.286,37.094,1.59,122.374,6.421,157.68h17.927c9.909,0,14.852-0.144,14.852-0.144
			c12.119-61.386,20.74-112.178,27.018-155.946c5.149-35.918,9.727-66.71,13.247-93.218c3.544-26.676,6.007-49.014,6.89-67.886
			c0.135-2.972,0.238-5.864,0.293-8.67c0.057-2.82,0.072-5.563,0.049-8.225l-97.819-9.535
			C1748.087,1736.448,1758.139,1835.841,1757.98,1857.398z"/>
		<path fill="#233862" d="M1782.328,2015.078c9.909,0,14.852-0.144,14.852-0.144c12.119-61.386,20.74-112.178,27.018-155.946
			c5.149-35.918,9.727-66.71,13.247-93.218c3.544-26.676,6.007-49.014,6.89-67.886l-35.895,21.113c0,0,22.91,8.081,14.169,69.269
			C1813.867,1849.452,1794.494,2006.416,1782.328,2015.078z"/>
		<path fill="#A8D29F" d="M1777.708,1697.282c0,0,6.89,24.896,30.729,21.717c23.839-3.179,57.738-17.481,57.738-17.481
			s-10.188-32.19-22.854-74.481c-15.337-51.197-34.32-117.199-43.269-158.831c-2.511-11.665-4.228-21.407-4.862-28.384
			l-19.779-38.372c0,0-29.488,66.185-31.077,82.871C1742.745,1501.009,1777.708,1697.282,1777.708,1697.282z"/>
		<path fill="#E49963" d="M1801.512,1481.834l-26.104-80.385c0.071,0.032,32.969,9.788,49.518,18.148
			c0,0,10.343,13.335,16.743,44.101c0,0,6.762,73.862-8.337,100.881c0,0-47.678,9.535-123.962-16.688v-17.482
			c0,0,83.437,4.371,100.521,6.357L1801.512,1481.834z"/>
		<path fill="#82B378" d="M1778.765,1519.284c1.065,27.018,7.422,79.464,64.104,107.537c0.15,0.072,0.302,0.152,0.453,0.215
			c-15.337-51.197-34.32-117.199-43.269-158.831C1789.644,1483.765,1778.185,1504.409,1778.765,1519.284z"/>
		<path fill="#A8D29F" d="M1775.409,1401.449c0,0,48.389,3.408,60.043,29.366c11.655,25.958,15.363,112.309,0.53,137.736
			c0,0-20.422,5.815-56.541-0.938c-0.442-0.083-0.888-0.168-1.335-0.254c0,0-11.522-28.21-1.192-33.772
			c0,0,30.461,1.589,27.283-8.476C1801.018,1515.047,1775.409,1401.449,1775.409,1401.449z"/>
		<path fill="#E49963" d="M1717.924,1535.06c0,0-6.647-8.057-8.064-16.281s-5.816-14.323-17.29-15.83
			c-11.473-1.509-16.404-1.671-16.376,1.563c0.03,3.234,9.374,25.813,25.837,39.296S1717.924,1535.06,1717.924,1535.06z"/>
		<polygon fill="#163560" points="1662.225,1516.966 1665.993,1514.049 1666.975,1517.071 		"/>
	</g>
	<path fill="#163560" d="M1524.016,1438.324c-0.391,0-0.786-0.104-1.144-0.321l-306.015-186.083c-1.04-0.632-1.37-1.988-0.737-3.029
		c0.633-1.042,1.992-1.369,3.028-0.737l306.015,186.082c1.04,0.633,1.371,1.989,0.738,3.029
		C1525.487,1437.947,1524.76,1438.324,1524.016,1438.324z"/>
	<g>
		<g>
			<path fill="#82B378" d="M580.403,735.888c-6.483,5.494-19.601,15.8-24.838,20.181l13.272,165.985l-136.609-61.064l-24.838,20.182
				c-3.302,13.081-5.063,26.776-5.063,40.883c0,91.962,74.549,166.512,166.511,166.512c91.962,0,166.512-74.55,166.512-166.512
				C735.348,830.092,672.364,735.888,580.403,735.888z"/>
			<path fill="#AA413E" d="M527.025,721.915c-71.929,5.673-130.996,57.051-148.175,125.102l161.447,40.883l24.838-20.181
				L527.025,721.915z"/>
		</g>
		<g>
			<path fill="#A8D29F" d="M593.675,735.362c-4.468,0-8.893,0.181-13.272,0.526l13.272,165.985l-161.447-40.884
				c-3.302,13.082-5.063,26.776-5.063,40.884c0,91.961,74.549,166.511,166.511,166.511c91.962,0,166.512-74.55,166.512-166.511
				C760.187,809.911,685.637,735.362,593.675,735.362z"/>
			<path fill="#C65447" d="M551.864,701.733c-71.929,5.673-130.996,57.052-148.175,125.102l161.447,40.883L551.864,701.733z"/>
		</g>
	</g>
	<path fill="#163560" d="M532.023,765.303c-0.564,0-1.128-0.215-1.559-0.646c-0.861-0.861-0.861-2.256,0-3.118l99.417-99.417
		h639.397c1.219,0,2.205,0.987,2.205,2.205c0,1.218-0.986,2.205-2.205,2.205H631.707l-98.125,98.125
		C533.151,765.087,532.587,765.303,532.023,765.303z"/>
	<path fill="#163560" d="M726.038,950.529c-0.564,0-1.128-0.216-1.559-0.646c-0.861-0.861-0.861-2.256,0-3.117l107.026-107.026
		h471.286c1.218,0,2.205,0.987,2.205,2.205s-0.987,2.205-2.205,2.205h-469.46L727.596,949.883
		C727.166,950.313,726.602,950.529,726.038,950.529z"/>
	<polygon fill="#AFCDFB" points="1282.507,645.807 629.912,645.807 616.684,625.524 1269.279,625.524 	"/>
	<polygon fill="#AFCDFB" points="1302.791,826.153 830.982,826.153 817.754,805.87 1289.562,805.87 	"/>
	<polygon fill="#AFCDFB" points="1159.136,1193.006 985.288,1193.006 901.533,895.149 1075.382,895.149 	"/>
	<polygon fill="#AFCDFB" points="1377.259,1193.006 1203.411,1193.006 1119.656,895.149 1293.504,895.149 	"/>
	<g>
		<path fill="#AA413E" d="M1231.033,1357.852c0,0,59.117,66.346,61.957,91.724c2.839,25.379-28.146,65.08-28.146,65.08
			L1231.033,1357.852z"/>
		<path fill="#163560" d="M1205.699,2055.933c0,0-1.258,22.355-4.898,31.977h-73.92c1.249-3.201,4.154-7.311,10.892-8.607
			c11.58-2.23,30.955-11.191,37.965-28.053C1183.115,2033.515,1205.699,2055.933,1205.699,2055.933z"/>
		<path fill="#163560" d="M1293.903,2055.933c0,0-1.257,22.355-4.89,31.977h-73.92c1.24-3.201,4.145-7.311,10.892-8.607
			c11.572-2.23,30.954-11.191,37.964-28.053C1271.327,2033.515,1293.903,2055.933,1293.903,2055.933z"/>
		<path fill="#163560" d="M1161.835,1671.399c0,0,10.358,73.002,48.997,202.593c38.64,129.592,43.905,185.709,43.905,185.709
			l41.45-1.281c0,0,0.354-141.628-17.454-206.794c-17.807-65.167-3.843-234.932-3.843-234.932L1161.835,1671.399z"/>
		<path fill="#1C468A" d="M1141.666,1620.692c0,0-1.467,110.01,15.805,245.083s11.417,192.41,11.417,192.41l41.367,1.516
			c0,0,24.722-135.123,17.634-202.73s33.853-231.99,33.853-231.99L1141.666,1620.692z"/>
		<path fill="#FFB27D" d="M1221.746,1363.255l-22.04,15.925l-31.854-6.542c0.44-2.834,2.544-14.578,4.459-25.217
			c0.115-0.627,0.231-1.255,0.339-1.868c1.641-9.052,3.058-16.828,3.058-16.828l29.751-14.466l11.092-5.394
			c-0.029,0.19-0.859,10.046-0.976,11.484C1213.494,1345.898,1221.746,1363.255,1221.746,1363.255z"/>
		<path fill="#C65447" d="M1277.637,1634.273c-6.397,32.16-112.863,35.974-140.306,6.781c-3.122-3.327-3.276-18.808-2.1-39.681
			c2.304-40.782,9.699-102.127,9.986-133.469c0.141-15.137,2.028-30.616,4.542-44.674c5.349-29.96,13.504-53.471,13.504-53.471
			s52.002-18.525,61.731-15.375C1271.873,1369.563,1284.034,1602.113,1277.637,1634.273z"/>
		<path fill="#AA413E" d="M1135.232,1601.374c2.304-40.782,9.699-102.127,9.986-133.469c0.141-15.137,2.028-30.616,4.542-44.674
			l31.281-6.083C1181.042,1417.148,1211.625,1554.812,1135.232,1601.374z"/>
		<path fill="#FFB27D" d="M1152.172,1544.53c0,0,2.132,5.616-2.347,9.387c-4.477,3.771-7.381,9.881-6.355,14.347
			c1.025,4.464,10.848,11.747,14.253,10.573s10.335-7.056,9.588-9.41c-0.746-2.355,4.662-20.667-3.64-27.718
			C1155.371,1534.66,1152.172,1544.53,1152.172,1544.53z"/>
		<path fill="#C65447" d="M1187.151,1361.51c0,0-30.508,6.292-54.816,45.769c-24.309,39.478-40.301,68.828-35.823,83.057
			c4.479,14.228,45.295,63.573,52.332,63.573s18.393-5.639,19.032-18.328c0,0-28.737-47.464-23.076-54.572
			c2.419-3.039,37.309-34.252,42.29-20.153C1195.331,1484.183,1187.151,1361.51,1187.151,1361.51z"/>
		<path fill="#FCA56B" d="M1213.342,1320.801c-6.533,12.196-30.878,22.743-41.031,26.62c0.115-0.627,0.231-1.255,0.339-1.868
			c1.641-9.052,3.058-16.828,3.058-16.828l29.751-14.466C1212.034,1314.159,1216.038,1315.781,1213.342,1320.801z"/>
		<path fill="#FFB27D" d="M1164.493,1326.731c0,0,47.923,16.475,56.774-16.573c8.85-33.048,20.995-53.178-9.229-65.094
			c-30.223-11.916-39.572-1.248-44.961,8.99C1161.689,1264.294,1152.255,1321.594,1164.493,1326.731z"/>
		<path fill="#163560" d="M1168.959,1250.871c0,0,3.057,38.457,10.273,36.787c7.216-1.669,13.761-2.907,12.704,8.686
			c-1.057,11.592-11.063,24.979,11.178,27.029c22.24,2.05,54.212-61.159,48.102-73.127
			C1233.588,1215.714,1143.48,1208.745,1168.959,1250.871z"/>
		<path fill="#AA413E" d="M1176.01,1355.22c0.618-0.287,38.358-12.561,42.458-11.068c4.1,1.491,6.527,10.233,6.527,10.233
			l-61.73,15.38C1163.265,1369.765,1168.125,1358.878,1176.01,1355.22z"/>
	</g>
	<g>
		<g>
			<polygon fill="#C67022" points="82.228,2022.78 722.477,2022.78 856.43,1474.042 216.181,1474.042 			"/>
			<polygon fill="#F1A34F" points="990.624,2022.78 350.375,2022.78 216.421,1474.042 856.67,1474.042 			"/>
			<polygon fill="#FFFFFF" points="946.743,1991.679 379.07,1991.679 260.301,1505.144 827.974,1505.144 			"/>
			<polygon fill="#AA5D17" points="82.228,2022.78 218.214,1996.688 350.375,2022.78 			"/>
		</g>
		<path fill="#1C468A" d="M329.606,1416.681c-32.104,0-58.308,25.669-59.21,57.559h23.702c0.888-18.819,16.474-33.856,35.509-33.856
			c19.604,0,35.552,15.948,35.552,35.552c0,19.604-15.948,35.553-35.552,35.553c-6.544,0-11.851,5.306-11.851,11.851
			s5.306,11.851,11.851,11.851c32.673,0,59.254-26.581,59.254-59.254S362.279,1416.681,329.606,1416.681z"/>
		<path fill="#1C468A" d="M479.716,1416.681c-32.104,0-58.308,25.669-59.21,57.559h23.702c0.888-18.819,16.474-33.856,35.509-33.856
			c19.604,0,35.552,15.948,35.552,35.552c0,19.604-15.948,35.553-35.552,35.553c-6.545,0-11.851,5.306-11.851,11.851
			s5.306,11.851,11.851,11.851c32.673,0,59.254-26.581,59.254-59.254S512.389,1416.681,479.716,1416.681z"/>
		<path fill="#1C468A" d="M629.825,1416.681c-32.104,0-58.308,25.669-59.21,57.559h23.702c0.888-18.819,16.474-33.856,35.509-33.856
			c19.604,0,35.552,15.948,35.552,35.552c0,19.604-15.948,35.553-35.552,35.553c-6.545,0-11.851,5.306-11.851,11.851
			s5.306,11.851,11.851,11.851c32.673,0,59.254-26.581,59.254-59.254S662.499,1416.681,629.825,1416.681z"/>
		<path fill="#1C468A" d="M779.935,1416.681c-32.104,0-58.308,25.669-59.21,57.559h23.702c0.888-18.819,16.474-33.856,35.509-33.856
			c19.604,0,35.552,15.948,35.552,35.552c0,19.604-15.948,35.553-35.552,35.553c-6.545,0-11.851,5.306-11.851,11.851
			s5.306,11.851,11.851,11.851c32.673,0,59.254-26.581,59.254-59.254S812.607,1416.681,779.935,1416.681z"/>
		<polygon fill="#AFCDFB" points="471.146,1677.103 343.73,1677.103 320.652,1591.07 448.068,1591.07 		"/>
		<polygon fill="#AFCDFB" points="652.584,1677.103 525.168,1677.103 502.091,1591.07 629.506,1591.07 		"/>
		<polygon fill="#AFCDFB" points="826.23,1677.103 698.814,1677.103 675.736,1591.07 803.152,1591.07 		"/>
		<polygon fill="#AFCDFB" points="504.754,1796.425 377.339,1796.425 354.261,1710.393 481.676,1710.393 		"/>
		<polygon fill="#AFCDFB" points="686.193,1796.425 558.777,1796.425 535.699,1710.393 663.115,1710.393 		"/>
		<polygon fill="#AFCDFB" points="859.838,1796.425 732.423,1796.425 709.345,1710.393 836.76,1710.393 		"/>
		<polygon fill="#AFCDFB" points="539.354,1918.246 411.938,1918.246 388.86,1832.214 516.276,1832.214 		"/>
		<polygon fill="#AFCDFB" points="720.792,1918.246 593.376,1918.246 570.298,1832.214 697.714,1832.214 		"/>
		<polygon fill="#AFCDFB" points="894.438,1918.246 767.022,1918.246 743.944,1832.214 871.36,1832.214 		"/>
		<polygon fill="#D88029" points="216.421,1474.042 218.214,1996.688 82.228,2022.78 		"/>
	</g>
</g>
<g>
</g>
<g>
</g>
<g>
</g>
<g>
</g>
<g>
</g>
<g>
</g>
</svg>
