<?xml version="1.0" encoding="utf-8"?>
<!-- Generator: Adobe Illustrator 16.0.0, SVG Export Plug-In . SVG Version: 6.00 Build 0)  -->
<!DOCTYPE svg PUBLIC "-//W3C//DTD SVG 1.1//EN" "http://www.w3.org/Graphics/SVG/1.1/DTD/svg11.dtd">
<svg version="1.1" id="_x3C_Layer_x3E_" xmlns="http://www.w3.org/2000/svg" xmlns:xlink="http://www.w3.org/1999/xlink" x="0px"
	 y="0px" width="2788.448px" height="1252.222px" viewBox="0 0 2788.448 1252.222" enable-background="new 0 0 2788.448 1252.222"
	 xml:space="preserve">
<g>
	<path fill="#EBF3FA" d="M2628.078,1248.792c0,0-133.96,0.218-338.275,0.654c-598.245,1.09-1800.07,3.049-2009.724,2.068
		c-281.315-1.308-475.938-729.264,50.099-679.817c571.344,53.582,153.455-274.239,489.987-328.583
		c366.267-59.249,440.108,168.594,703.127,75.475c359.513-127.318,554.789-82.991,679.927,9.91
		c137.228,101.941,189.831,262.366,281.97,318.454c2.069,1.308,4.139,2.504,6.207,3.594
		c179.05,98.02,260.079,192.881,286.544,277.068C2836.969,1114.399,2628.078,1248.792,2628.078,1248.792z"/>
	<path fill="#F8FBFF" d="M2485.224,646.976l-1357.131,230.77l-101.341-121.517L2203.204,328.51
		C2340.45,430.453,2393.099,590.834,2485.224,646.976z"/>
	<path fill="#F8FBFF" d="M1776.662,360.238L433.696,793.002c39.563-28.838-51.417-185.189,1.991-237.073L1776.662,360.238z"/>
	<circle fill="#F8FBFF" cx="1941.832" cy="319.611" r="32.368"/>
	<g>
		<g>
			<rect x="1522.852" y="392.887" fill="#C4D9ED" width="153.228" height="745.129"/>
			<rect x="1557.266" y="392.887" fill="#D5E7F7" width="153.228" height="745.129"/>
			<rect x="1557.305" y="392.689" fill="#C4D9ED" width="153.188" height="43.058"/>
			<rect x="1557.305" y="486.076" fill="#C4D9ED" width="153.188" height="43.057"/>
			<rect x="1557.305" y="579.461" fill="#C4D9ED" width="153.188" height="43.058"/>
			<rect x="1557.305" y="672.847" fill="#C4D9ED" width="153.188" height="43.058"/>
			<rect x="1557.305" y="766.233" fill="#C4D9ED" width="153.188" height="43.058"/>
			<rect x="1557.305" y="859.619" fill="#C4D9ED" width="153.188" height="43.058"/>
			<rect x="1557.305" y="953.005" fill="#C4D9ED" width="153.188" height="43.058"/>
			<rect x="1557.305" y="1046.391" fill="#C4D9ED" width="153.188" height="43.058"/>
		</g>
		<g>
			<rect x="1767.8" y="498.324" fill="#C4D9ED" width="153.227" height="639.692"/>
			<rect x="1802.214" y="498.324" fill="#D5E7F7" width="153.228" height="639.692"/>
			<rect x="1802.253" y="498.155" fill="#C4D9ED" width="153.188" height="36.965"/>
			<rect x="1802.253" y="578.326" fill="#C4D9ED" width="153.188" height="36.965"/>
			<rect x="1802.253" y="658.498" fill="#C4D9ED" width="153.188" height="36.964"/>
			<rect x="1802.253" y="738.668" fill="#C4D9ED" width="153.188" height="36.965"/>
			<rect x="1802.253" y="818.84" fill="#C4D9ED" width="153.188" height="36.965"/>
			<rect x="1802.253" y="899.012" fill="#C4D9ED" width="153.188" height="36.965"/>
			<rect x="1802.253" y="979.184" fill="#C4D9ED" width="153.188" height="36.965"/>
			<rect x="1802.253" y="1059.356" fill="#C4D9ED" width="153.188" height="36.965"/>
		</g>
		<rect x="1439.922" y="1115.161" fill="#DCEAF9" width="64.165" height="93.566"/>
		<path fill="#D5E7F7" d="M1459.518,987.516v259.773H779.836l-4.628-0.043l-173.46-1.63c-0.145-0.253-0.321-0.557-0.524-0.903
			c-0.287-0.498-0.624-1.09-1.014-1.765c-0.126-0.237-0.27-0.481-0.422-0.743c-0.515-0.921-1.098-1.959-1.748-3.15
			c-0.793-1.443-1.68-3.091-2.66-4.923v-0.008c-3.648-6.841-8.486-16.324-13.984-28.104c-1.807-3.867-3.673-7.988-5.607-12.346
			c-0.768-1.739-1.536-3.504-2.322-5.312v-0.009c-0.76-1.748-1.52-3.529-2.279-5.354c-0.025-0.059-0.051-0.118-0.076-0.178
			c-0.524-1.25-1.056-2.517-1.588-3.809c-0.557-1.316-1.106-2.651-1.664-4.002c-2.837-6.976-5.741-14.382-8.63-22.193
			c-0.076-0.202-0.152-0.413-0.228-0.616c0,0,0,0,0-0.008c-1.893-5.109-3.775-10.387-5.642-15.825
			c-1.029-2.99-2.043-6.021-3.058-9.104c-0.059-0.187-0.126-0.372-0.186-0.574c-0.446-1.368-0.886-2.736-1.334-4.121
			c-0.371-1.165-0.743-2.33-1.105-3.504c-0.76-2.416-1.521-4.856-2.271-7.322c-0.963-3.167-1.918-6.385-2.854-9.636
			c-1.267-4.416-2.508-8.908-3.716-13.477c-0.363-1.368-0.727-2.745-1.081-4.121c-1.063-4.13-2.11-8.31-3.124-12.54
			c-0.33-1.36-0.65-2.72-0.963-4.088c-0.203-0.845-0.397-1.688-0.591-2.533c-1.529-6.696-2.981-13.52-4.333-20.47
			c-1.494-7.65-2.871-15.453-4.104-23.383c-1.141-7.322-2.171-14.762-3.057-22.303c-0.845-7.118-1.563-14.321-2.146-21.609
			c-1.384-17.05-2.019-34.556-1.748-52.382c0.473-31.043,3.724-63.072,10.716-95.5c0.254-1.183,0.517-2.356,0.777-3.539
			c1.731-7.718,3.665-15.445,5.835-23.188c1.647-5.903,3.429-11.814,5.346-17.725c1.394-4.282,2.854-8.571,4.392-12.861
			c3.479-9.712,7.338-19.423,11.611-29.126h3.631v-8.057c23.188-50.034,57.372-99.596,106.022-146.479
			c0.912-0.879,1.824-1.749,2.728-2.618h2.846v99.368h87.942V523.561h97.037V628.67h22.124V503.184h97.037v235.275h122.727v137.191
			h45.854v34.563h105.33v-59.517h60.472V688.974h74.7v298.542H1459.518z"/>
		<rect x="878.698" y="519.067" fill="#C4D9ED" width="97.091" height="23.971"/>
		<rect x="878.698" y="564.1" fill="#C4D9ED" width="97.091" height="23.973"/>
		<rect x="878.698" y="604.617" fill="#C4D9ED" width="97.091" height="23.972"/>
		<rect x="759.56" y="604.617" fill="#C4D9ED" width="97.092" height="23.972"/>
		<rect x="759.56" y="564.1" fill="#C4D9ED" width="97.092" height="23.973"/>
		<rect x="759.56" y="523.646" fill="#C4D9ED" width="97.092" height="23.972"/>
		<rect x="759.532" y="643.901" fill="#C4D9ED" width="216.257" height="23.972"/>
		<rect x="759.532" y="683.185" fill="#C4D9ED" width="216.257" height="23.972"/>
		<rect x="1309.424" y="688.993" fill="#C4D9ED" width="75.357" height="37.002"/>
		<rect x="1309.424" y="744.022" fill="#C4D9ED" width="75.357" height="37.003"/>
		<rect x="1309.424" y="799.051" fill="#C4D9ED" width="75.357" height="37.003"/>
		<rect x="1309.424" y="856.735" fill="#C4D9ED" width="75.357" height="37.004"/>
		<rect x="1309.424" y="912.631" fill="#C4D9ED" width="75.357" height="37.004"/>
		<rect x="1309.424" y="968.528" fill="#C4D9ED" width="75.357" height="37.003"/>
		<rect x="1309.424" y="1027.007" fill="#C4D9ED" width="75.357" height="37.003"/>
		<rect x="759.532" y="721.578" fill="#C4D9ED" width="216.257" height="15.218"/>
		<rect x="1282.685" y="688.993" fill="#C4D9ED" width="27.785" height="161.705"/>
		<rect x="1193.75" y="850.698" fill="#C4D9ED" width="55.891" height="59.517"/>
		<path fill="#C4D9ED" d="M759.56,523.646v23.974l-0.017,96.277l-0.008,23.974v17.607h-19.262V525.553
			c0.869-0.642,1.73-1.275,2.592-1.907H759.56z"/>
		<rect x="866.856" y="503.184" fill="#C4D9ED" width="11.842" height="125.404"/>
		<g opacity="0.8">
			<g>
				<g>
					<g>
						<rect x="1061.957" y="762.063" fill="#C4D9ED" width="16.449" height="23.187"/>
						<rect x="1031.194" y="762.063" fill="#C4D9ED" width="16.451" height="23.187"/>
						<rect x="1001.121" y="762.063" fill="#C4D9ED" width="16.45" height="23.187"/>
						<rect x="972.607" y="762.063" fill="#C4D9ED" width="16.449" height="23.187"/>
						<rect x="943.545" y="762.063" fill="#C4D9ED" width="16.45" height="23.187"/>
					</g>
					<g>
						<rect x="914.151" y="762.063" fill="#C4D9ED" width="16.45" height="23.187"/>
						<rect x="883.389" y="762.063" fill="#C4D9ED" width="16.45" height="23.187"/>
						<rect x="853.315" y="762.063" fill="#C4D9ED" width="16.45" height="23.187"/>
						<rect x="824.802" y="762.063" fill="#C4D9ED" width="16.45" height="23.187"/>
						<rect x="795.74" y="762.063" fill="#C4D9ED" width="16.449" height="23.187"/>
					</g>
				</g>
				<g>
					<g>
						<rect x="765.455" y="762.063" fill="#C4D9ED" width="16.451" height="23.187"/>
						<rect x="734.693" y="762.063" fill="#C4D9ED" width="16.45" height="23.187"/>
						<rect x="704.62" y="762.063" fill="#C4D9ED" width="16.45" height="23.187"/>
						<rect x="676.106" y="762.063" fill="#C4D9ED" width="16.45" height="23.187"/>
						<rect x="647.045" y="762.063" fill="#C4D9ED" width="16.449" height="23.187"/>
					</g>
					<g>
						<rect x="617.649" y="762.063" fill="#C4D9ED" width="16.451" height="23.187"/>
						<rect x="586.889" y="762.063" fill="#C4D9ED" width="16.449" height="23.187"/>
						<rect x="556.814" y="762.063" fill="#C4D9ED" width="16.45" height="23.187"/>
						<path fill="#C4D9ED" d="M544.755,772.39v12.861h-4.392C541.757,780.969,543.218,776.68,544.755,772.39z"/>
					</g>
				</g>
			</g>
			<g>
				<g>
					<g>
						<rect x="1061.957" y="802.979" fill="#C4D9ED" width="16.449" height="23.187"/>
						<rect x="1031.194" y="802.979" fill="#C4D9ED" width="16.451" height="23.187"/>
						<rect x="1001.121" y="802.979" fill="#C4D9ED" width="16.45" height="23.187"/>
						<rect x="972.607" y="802.979" fill="#C4D9ED" width="16.449" height="23.187"/>
						<rect x="943.545" y="802.979" fill="#C4D9ED" width="16.45" height="23.187"/>
					</g>
					<g>
						<rect x="914.151" y="802.979" fill="#C4D9ED" width="16.45" height="23.187"/>
						<rect x="883.389" y="802.979" fill="#C4D9ED" width="16.45" height="23.187"/>
						<rect x="853.315" y="802.979" fill="#C4D9ED" width="16.45" height="23.187"/>
						<rect x="824.802" y="802.979" fill="#C4D9ED" width="16.45" height="23.187"/>
						<rect x="795.74" y="802.979" fill="#C4D9ED" width="16.449" height="23.187"/>
					</g>
				</g>
				<g>
					<g>
						<rect x="765.455" y="802.979" fill="#C4D9ED" width="16.451" height="23.187"/>
						<rect x="734.693" y="802.979" fill="#C4D9ED" width="16.45" height="23.187"/>
						<rect x="704.62" y="802.979" fill="#C4D9ED" width="16.45" height="23.187"/>
						<rect x="676.106" y="802.979" fill="#C4D9ED" width="16.45" height="23.187"/>
						<rect x="647.045" y="802.979" fill="#C4D9ED" width="16.449" height="23.187"/>
					</g>
					<g>
						<rect x="617.649" y="802.979" fill="#C4D9ED" width="16.451" height="23.187"/>
						<rect x="586.889" y="802.979" fill="#C4D9ED" width="16.449" height="23.187"/>
						<rect x="556.814" y="802.979" fill="#C4D9ED" width="16.45" height="23.187"/>
						<path fill="#C4D9ED" d="M544.755,802.976v23.188h-15.572c1.731-7.718,3.665-15.445,5.835-23.188H544.755z"/>
					</g>
				</g>
			</g>
			<g>
				<g>
					<g>
						<rect x="1061.957" y="843.268" fill="#C4D9ED" width="16.449" height="23.188"/>
						<rect x="1031.194" y="843.268" fill="#C4D9ED" width="16.451" height="23.188"/>
						<rect x="1001.121" y="843.268" fill="#C4D9ED" width="16.45" height="23.188"/>
						<rect x="972.607" y="843.268" fill="#C4D9ED" width="16.449" height="23.188"/>
						<rect x="943.545" y="843.268" fill="#C4D9ED" width="16.45" height="23.188"/>
					</g>
					<g>
						<rect x="914.151" y="843.268" fill="#C4D9ED" width="16.45" height="23.188"/>
						<rect x="883.389" y="843.268" fill="#C4D9ED" width="16.45" height="23.188"/>
						<rect x="853.315" y="843.268" fill="#C4D9ED" width="16.45" height="23.188"/>
						<rect x="824.802" y="843.268" fill="#C4D9ED" width="16.45" height="23.188"/>
						<rect x="795.74" y="843.268" fill="#C4D9ED" width="16.449" height="23.188"/>
					</g>
				</g>
				<g>
					<g>
						<rect x="765.455" y="843.268" fill="#C4D9ED" width="16.451" height="23.188"/>
						<rect x="734.693" y="843.268" fill="#C4D9ED" width="16.45" height="23.188"/>
						<rect x="704.62" y="843.268" fill="#C4D9ED" width="16.45" height="23.188"/>
						<rect x="676.106" y="843.268" fill="#C4D9ED" width="16.45" height="23.188"/>
						<rect x="647.045" y="843.268" fill="#C4D9ED" width="16.449" height="23.188"/>
					</g>
					<g>
						<rect x="617.649" y="843.268" fill="#C4D9ED" width="16.451" height="23.188"/>
						<rect x="586.889" y="843.268" fill="#C4D9ED" width="16.449" height="23.188"/>
						<rect x="556.814" y="843.268" fill="#C4D9ED" width="16.45" height="23.188"/>
						<rect x="528.3" y="843.268" fill="#C4D9ED" width="16.451" height="23.188"/>
					</g>
				</g>
			</g>
			<g>
				<g>
					<g>
						<g>
							<rect x="1061.957" y="886.075" fill="#C4D9ED" width="16.449" height="23.187"/>
							<rect x="1031.194" y="886.075" fill="#C4D9ED" width="16.451" height="23.187"/>
							<rect x="1001.121" y="886.075" fill="#C4D9ED" width="16.45" height="23.187"/>
							<rect x="972.607" y="886.075" fill="#C4D9ED" width="16.449" height="23.187"/>
							<rect x="943.545" y="886.075" fill="#C4D9ED" width="16.45" height="23.187"/>
						</g>
						<g>
							<rect x="914.151" y="886.075" fill="#C4D9ED" width="16.45" height="23.187"/>
							<rect x="883.389" y="886.075" fill="#C4D9ED" width="16.45" height="23.187"/>
							<rect x="853.315" y="886.075" fill="#C4D9ED" width="16.45" height="23.187"/>
							<rect x="824.802" y="886.075" fill="#C4D9ED" width="16.45" height="23.187"/>
							<rect x="795.74" y="886.075" fill="#C4D9ED" width="16.449" height="23.187"/>
						</g>
					</g>
					<g>
						<g>
							<rect x="765.455" y="886.075" fill="#C4D9ED" width="16.451" height="23.187"/>
							<rect x="734.693" y="886.075" fill="#C4D9ED" width="16.45" height="23.187"/>
							<rect x="704.62" y="886.075" fill="#C4D9ED" width="16.45" height="23.187"/>
							<rect x="676.106" y="886.075" fill="#C4D9ED" width="16.45" height="23.187"/>
							<rect x="647.045" y="886.075" fill="#C4D9ED" width="16.449" height="23.187"/>
						</g>
						<g>
							<rect x="617.649" y="886.075" fill="#C4D9ED" width="16.451" height="23.187"/>
							<rect x="586.889" y="886.075" fill="#C4D9ED" width="16.449" height="23.187"/>
							<rect x="556.814" y="886.075" fill="#C4D9ED" width="16.45" height="23.187"/>
							<rect x="528.3" y="886.075" fill="#C4D9ED" width="16.451" height="23.187"/>
						</g>
					</g>
				</g>
				<g>
					<g>
						<g>
							<rect x="1061.957" y="926.991" fill="#C4D9ED" width="16.449" height="23.187"/>
							<rect x="1031.194" y="926.991" fill="#C4D9ED" width="16.451" height="23.187"/>
							<rect x="1001.121" y="926.991" fill="#C4D9ED" width="16.45" height="23.187"/>
							<rect x="972.607" y="926.991" fill="#C4D9ED" width="16.449" height="23.187"/>
							<rect x="943.545" y="926.991" fill="#C4D9ED" width="16.45" height="23.187"/>
						</g>
						<g>
							<rect x="914.151" y="926.991" fill="#C4D9ED" width="16.45" height="23.187"/>
							<rect x="883.389" y="926.991" fill="#C4D9ED" width="16.45" height="23.187"/>
							<rect x="853.315" y="926.991" fill="#C4D9ED" width="16.45" height="23.187"/>
							<rect x="824.802" y="926.991" fill="#C4D9ED" width="16.45" height="23.187"/>
							<rect x="795.74" y="926.991" fill="#C4D9ED" width="16.449" height="23.187"/>
						</g>
					</g>
					<g>
						<g>
							<rect x="765.455" y="926.991" fill="#C4D9ED" width="16.451" height="23.187"/>
							<rect x="734.693" y="926.991" fill="#C4D9ED" width="16.45" height="23.187"/>
							<rect x="704.62" y="926.991" fill="#C4D9ED" width="16.45" height="23.187"/>
							<rect x="676.106" y="926.991" fill="#C4D9ED" width="16.45" height="23.187"/>
							<rect x="647.045" y="926.991" fill="#C4D9ED" width="16.449" height="23.187"/>
						</g>
						<g>
							<rect x="617.649" y="926.991" fill="#C4D9ED" width="16.451" height="23.187"/>
							<rect x="586.889" y="926.991" fill="#C4D9ED" width="16.449" height="23.187"/>
							<rect x="556.814" y="926.991" fill="#C4D9ED" width="16.45" height="23.187"/>
							<rect x="528.3" y="926.991" fill="#C4D9ED" width="16.451" height="23.187"/>
						</g>
					</g>
				</g>
				<g>
					<g>
						<g>
							<rect x="1061.957" y="967.279" fill="#C4D9ED" width="16.449" height="23.187"/>
							<rect x="1031.194" y="967.279" fill="#C4D9ED" width="16.451" height="23.187"/>
							<rect x="1001.121" y="967.279" fill="#C4D9ED" width="16.45" height="23.187"/>
							<rect x="972.607" y="967.279" fill="#C4D9ED" width="16.449" height="23.187"/>
							<rect x="943.545" y="967.279" fill="#C4D9ED" width="16.45" height="23.187"/>
						</g>
						<g>
							<rect x="914.151" y="967.279" fill="#C4D9ED" width="16.45" height="23.187"/>
							<rect x="883.389" y="967.279" fill="#C4D9ED" width="16.45" height="23.187"/>
							<rect x="853.315" y="967.279" fill="#C4D9ED" width="16.45" height="23.187"/>
							<rect x="824.802" y="967.279" fill="#C4D9ED" width="16.45" height="23.187"/>
							<rect x="795.74" y="967.279" fill="#C4D9ED" width="16.449" height="23.187"/>
						</g>
					</g>
					<g>
						<g>
							<rect x="765.455" y="967.279" fill="#C4D9ED" width="16.451" height="23.187"/>
							<rect x="734.693" y="967.279" fill="#C4D9ED" width="16.45" height="23.187"/>
							<rect x="704.62" y="967.279" fill="#C4D9ED" width="16.45" height="23.187"/>
							<rect x="676.106" y="967.279" fill="#C4D9ED" width="16.45" height="23.187"/>
							<rect x="647.045" y="967.279" fill="#C4D9ED" width="16.449" height="23.187"/>
						</g>
						<g>
							<rect x="617.649" y="967.279" fill="#C4D9ED" width="16.451" height="23.187"/>
							<rect x="586.889" y="967.279" fill="#C4D9ED" width="16.449" height="23.187"/>
							<rect x="556.814" y="967.279" fill="#C4D9ED" width="16.45" height="23.187"/>
							<rect x="528.3" y="967.279" fill="#C4D9ED" width="16.451" height="23.187"/>
						</g>
					</g>
				</g>
			</g>
		</g>
		<rect x="812.471" y="1039.922" fill="#C4D9ED" width="381.279" height="205.693"/>
		<rect x="1101.586" y="1142.769" fill="#C4D9ED" width="381.278" height="102.847"/>
		<path fill="#C4D9ED" d="M781.904,1071.971v173.646H601.748c-0.145-0.253-0.321-0.557-0.524-0.903
			c-0.287-0.498-0.624-1.09-1.014-1.765c-0.126-0.237-0.27-0.481-0.422-0.743c-0.515-0.921-1.098-1.959-1.748-3.15
			c-0.793-1.443-1.68-3.091-2.66-4.923v-0.008c-3.648-6.841-8.486-16.324-13.984-28.104c-1.807-3.867-3.673-7.988-5.607-12.346
			c-0.768-1.739-1.536-3.504-2.322-5.312v-0.009c-0.76-1.748-1.52-3.529-2.279-5.354c-0.025-0.059-0.051-0.118-0.076-0.178
			c-0.524-1.25-1.056-2.517-1.588-3.809c-0.557-1.316-1.106-2.651-1.664-4.002c-2.837-6.976-5.741-14.382-8.63-22.193
			c-0.076-0.202-0.152-0.413-0.228-0.616c0,0,0,0,0-0.008c-1.893-5.109-3.775-10.387-5.642-15.825
			c-1.029-2.99-2.043-6.021-3.058-9.104c-0.059-0.187-0.126-0.372-0.186-0.574c-0.446-1.368-0.886-2.736-1.334-4.121
			c-0.371-1.165-0.743-2.33-1.105-3.504c-0.76-2.416-1.521-4.856-2.271-7.322c-0.963-3.167-1.918-6.385-2.854-9.636
			c-1.267-4.416-2.508-8.908-3.716-13.477c-0.363-1.368-0.727-2.745-1.081-4.121c-1.063-4.13-2.11-8.31-3.124-12.54H781.904z"/>
		<rect x="1097.241" y="1064.01" fill="#D5E7F7" width="71.038" height="38.096"/>
		<rect x="1006.054" y="1064.01" fill="#D5E7F7" width="71.038" height="38.096"/>
		<rect x="916.604" y="1064.01" fill="#D5E7F7" width="71.037" height="38.096"/>
		<rect x="828.872" y="1064.01" fill="#D5E7F7" width="71.039" height="38.096"/>
		<rect x="779.837" y="1039.922" fill="#ADC9E0" width="36.597" height="207.464"/>
		<rect x="1367.801" y="672.889" fill="#DCEAF9" width="1.982" height="16.104"/>
		<rect x="1296.597" y="672.889" fill="#DCEAF9" width="1.981" height="16.104"/>
		<path fill="#D5E7F7" d="M521.583,999.195c0.886,7.541,1.916,14.98,3.057,22.303c1.232,7.93,2.609,15.732,4.104,23.383
			c1.352,6.95,2.804,13.773,4.333,20.47c0.193,0.845,0.388,1.688,0.591,2.533c0.313,1.368,0.633,2.728,0.963,4.088
			c1.014,4.23,2.061,8.41,3.124,12.54c0.354,1.376,0.718,2.753,1.081,4.121c1.208,4.568,2.449,9.061,3.716,13.477
			c0.937,3.251,1.892,6.469,2.854,9.636c0.751,2.466,1.512,4.906,2.271,7.322c0.362,1.174,0.734,2.339,1.105,3.504
			c0.448,1.385,0.888,2.753,1.334,4.121c0.06,0.202,0.127,0.388,0.186,0.574c1.015,3.082,2.028,6.113,3.058,9.104
			c1.866,5.438,3.749,10.716,5.642,15.825c0,0.008,0,0.008,0,0.008c0.075,0.203,0.151,0.414,0.228,0.616
			c2.889,7.812,5.793,15.218,8.63,22.193c0.558,1.351,1.107,2.686,1.664,4.002c0.532,1.292,1.063,2.559,1.588,3.809
			c0.025,0.06,0.051,0.119,0.076,0.178V999.195H521.583z"/>
		<g>
			<path fill="#D5E7F7" d="M571.187,1067.883V1183c-0.025-0.059-0.051-0.118-0.076-0.178c-0.524-1.25-1.056-2.517-1.588-3.809
				c-0.557-1.316-1.106-2.651-1.664-4.002c-2.837-6.976-5.741-14.382-8.63-22.193c-0.076-0.202-0.152-0.413-0.228-0.616
				c0,0,0,0,0-0.008c-1.893-5.109-3.775-10.387-5.642-15.825c-1.029-2.99-2.043-6.021-3.058-9.104
				c-0.059-0.187-0.126-0.372-0.186-0.574c-0.446-1.368-0.886-2.736-1.334-4.121c-0.371-1.165-0.743-2.33-1.105-3.504
				c-0.76-2.416-1.521-4.856-2.271-7.322c-0.963-3.167-1.918-6.385-2.854-9.636c-1.267-4.416-2.508-8.908-3.716-13.477
				c-0.363-1.368-0.727-2.745-1.081-4.121c-1.063-4.13-2.11-8.31-3.124-12.54c-0.33-1.36-0.65-2.72-0.963-4.088H571.187z"/>
			<path fill="#C4D9ED" d="M571.187,1044.88v57.229h-28.636c-1.267-4.416-2.508-8.908-3.716-13.477
				c-0.363-1.368-0.727-2.745-1.081-4.121c-1.063-4.13-2.11-8.31-3.124-12.54c-0.33-1.36-0.65-2.72-0.963-4.088
				c-0.203-0.845-0.397-1.688-0.591-2.533c-1.529-6.696-2.981-13.52-4.333-20.47H571.187z"/>
			<g>
				<g>
					<g>
						<path fill="#C4D9ED" d="M553.359,1119.067v17.303c-1.029-2.99-2.043-6.021-3.058-9.104c-0.059-0.187-0.126-0.372-0.186-0.574
							c-0.446-1.368-0.886-2.736-1.334-4.121c-0.371-1.165-0.743-2.33-1.105-3.504H553.359z"/>
					</g>
				</g>
			</g>
			<rect x="539.918" y="1060.96" fill="#ADC9E0" width="11.299" height="19.546"/>
		</g>
		<g>
			<rect x="1410.688" y="1067.886" fill="#D5E7F7" width="261.793" height="176.06"/>
			<rect x="1410.688" y="1044.883" fill="#C4D9ED" width="261.793" height="57.223"/>
			<g>
				<g>
					<g>
						<rect x="1641.21" y="1119.065" fill="#C4D9ED" width="13.446" height="18.951"/>
						<rect x="1616.068" y="1119.065" fill="#C4D9ED" width="13.445" height="18.951"/>
						<rect x="1591.488" y="1119.065" fill="#C4D9ED" width="13.445" height="18.951"/>
						<rect x="1568.184" y="1119.065" fill="#C4D9ED" width="13.444" height="18.951"/>
						<rect x="1544.431" y="1119.065" fill="#C4D9ED" width="13.445" height="18.951"/>
					</g>
					<g>
						<rect x="1520.406" y="1119.065" fill="#C4D9ED" width="13.445" height="18.951"/>
						<rect x="1495.264" y="1119.065" fill="#C4D9ED" width="13.445" height="18.951"/>
						<rect x="1470.684" y="1119.065" fill="#C4D9ED" width="13.445" height="18.951"/>
						<rect x="1447.378" y="1119.065" fill="#C4D9ED" width="13.445" height="18.951"/>
						<rect x="1423.626" y="1119.065" fill="#C4D9ED" width="13.444" height="18.951"/>
					</g>
				</g>
				<g>
					<g>
						<rect x="1641.21" y="1152.507" fill="#C4D9ED" width="13.446" height="18.95"/>
						<rect x="1616.068" y="1152.507" fill="#C4D9ED" width="13.445" height="18.95"/>
						<rect x="1591.488" y="1152.507" fill="#C4D9ED" width="13.445" height="18.95"/>
						<rect x="1568.184" y="1152.507" fill="#C4D9ED" width="13.444" height="18.95"/>
						<rect x="1544.431" y="1152.507" fill="#C4D9ED" width="13.445" height="18.95"/>
					</g>
					<g>
						<rect x="1520.406" y="1152.507" fill="#C4D9ED" width="13.445" height="18.95"/>
						<rect x="1495.264" y="1152.507" fill="#C4D9ED" width="13.445" height="18.95"/>
						<rect x="1470.684" y="1152.507" fill="#C4D9ED" width="13.445" height="18.95"/>
						<rect x="1447.378" y="1152.507" fill="#C4D9ED" width="13.445" height="18.95"/>
						<rect x="1423.626" y="1152.507" fill="#C4D9ED" width="13.444" height="18.95"/>
					</g>
				</g>
				<g>
					<g>
						<rect x="1641.21" y="1185.436" fill="#C4D9ED" width="13.446" height="18.951"/>
						<rect x="1616.068" y="1185.436" fill="#C4D9ED" width="13.445" height="18.951"/>
						<rect x="1591.488" y="1185.436" fill="#C4D9ED" width="13.445" height="18.951"/>
						<rect x="1568.184" y="1185.436" fill="#C4D9ED" width="13.444" height="18.951"/>
						<rect x="1544.431" y="1185.436" fill="#C4D9ED" width="13.445" height="18.951"/>
					</g>
					<g>
						<rect x="1520.406" y="1185.436" fill="#C4D9ED" width="13.445" height="18.951"/>
						<rect x="1495.264" y="1185.436" fill="#C4D9ED" width="13.445" height="18.951"/>
						<rect x="1470.684" y="1185.436" fill="#C4D9ED" width="13.445" height="18.951"/>
						<rect x="1447.378" y="1185.436" fill="#C4D9ED" width="13.445" height="18.951"/>
						<rect x="1423.626" y="1185.436" fill="#C4D9ED" width="13.444" height="18.951"/>
					</g>
				</g>
			</g>
			<rect x="1641.21" y="1060.96" fill="#ADC9E0" width="11.299" height="19.546"/>
			<rect x="1529.044" y="1060.96" fill="#ADC9E0" width="11.298" height="19.546"/>
			<rect x="1439.815" y="1060.96" fill="#ADC9E0" width="11.299" height="19.546"/>
		</g>
		<g>
			<rect x="1688.922" y="1067.886" fill="#D5E7F7" width="261.792" height="176.06"/>
			<rect x="1688.922" y="1044.883" fill="#C4D9ED" width="261.792" height="57.223"/>
			<g>
				<g>
					<g>
						<rect x="1919.444" y="1119.065" fill="#C4D9ED" width="13.445" height="18.951"/>
						<rect x="1894.302" y="1119.065" fill="#C4D9ED" width="13.445" height="18.951"/>
						<rect x="1869.723" y="1119.065" fill="#C4D9ED" width="13.444" height="18.951"/>
						<rect x="1846.417" y="1119.065" fill="#C4D9ED" width="13.444" height="18.951"/>
						<rect x="1822.663" y="1119.065" fill="#C4D9ED" width="13.445" height="18.951"/>
					</g>
					<g>
						<rect x="1798.64" y="1119.065" fill="#C4D9ED" width="13.445" height="18.951"/>
						<rect x="1773.497" y="1119.065" fill="#C4D9ED" width="13.444" height="18.951"/>
						<rect x="1748.917" y="1119.065" fill="#C4D9ED" width="13.444" height="18.951"/>
						<rect x="1725.611" y="1119.065" fill="#C4D9ED" width="13.445" height="18.951"/>
						<rect x="1701.859" y="1119.065" fill="#C4D9ED" width="13.445" height="18.951"/>
					</g>
				</g>
				<g>
					<g>
						<rect x="1919.444" y="1152.507" fill="#C4D9ED" width="13.445" height="18.95"/>
						<rect x="1894.302" y="1152.507" fill="#C4D9ED" width="13.445" height="18.95"/>
						<rect x="1869.723" y="1152.507" fill="#C4D9ED" width="13.444" height="18.95"/>
						<rect x="1846.417" y="1152.507" fill="#C4D9ED" width="13.444" height="18.95"/>
						<rect x="1822.663" y="1152.507" fill="#C4D9ED" width="13.445" height="18.95"/>
					</g>
					<g>
						<rect x="1798.64" y="1152.507" fill="#C4D9ED" width="13.445" height="18.95"/>
						<rect x="1773.497" y="1152.507" fill="#C4D9ED" width="13.444" height="18.95"/>
						<rect x="1748.917" y="1152.507" fill="#C4D9ED" width="13.444" height="18.95"/>
						<rect x="1725.611" y="1152.507" fill="#C4D9ED" width="13.445" height="18.95"/>
						<rect x="1701.859" y="1152.507" fill="#C4D9ED" width="13.445" height="18.95"/>
					</g>
				</g>
				<g>
					<g>
						<rect x="1919.444" y="1185.436" fill="#C4D9ED" width="13.445" height="18.951"/>
						<rect x="1894.302" y="1185.436" fill="#C4D9ED" width="13.445" height="18.951"/>
						<rect x="1869.723" y="1185.436" fill="#C4D9ED" width="13.444" height="18.951"/>
						<rect x="1846.417" y="1185.436" fill="#C4D9ED" width="13.444" height="18.951"/>
						<rect x="1822.663" y="1185.436" fill="#C4D9ED" width="13.445" height="18.951"/>
					</g>
					<g>
						<rect x="1798.64" y="1185.436" fill="#C4D9ED" width="13.445" height="18.951"/>
						<rect x="1773.497" y="1185.436" fill="#C4D9ED" width="13.444" height="18.951"/>
						<rect x="1748.917" y="1185.436" fill="#C4D9ED" width="13.444" height="18.951"/>
						<rect x="1725.611" y="1185.436" fill="#C4D9ED" width="13.445" height="18.951"/>
						<rect x="1701.859" y="1185.436" fill="#C4D9ED" width="13.445" height="18.951"/>
					</g>
				</g>
			</g>
			<rect x="1919.444" y="1060.96" fill="#ADC9E0" width="11.298" height="19.546"/>
			<rect x="1807.276" y="1060.96" fill="#ADC9E0" width="11.299" height="19.546"/>
			<rect x="1718.05" y="1060.96" fill="#ADC9E0" width="11.297" height="19.546"/>
		</g>
		<g>
			<rect x="2236.876" y="1067.886" fill="#D5E7F7" width="261.793" height="176.06"/>
			<rect x="2236.876" y="1044.883" fill="#C4D9ED" width="261.793" height="57.223"/>
			<g>
				<g>
					<g>
						<rect x="2467.398" y="1119.065" fill="#C4D9ED" width="13.444" height="18.951"/>
						<rect x="2442.255" y="1119.065" fill="#C4D9ED" width="13.445" height="18.951"/>
						<rect x="2417.677" y="1119.065" fill="#C4D9ED" width="13.444" height="18.951"/>
						<rect x="2394.37" y="1119.065" fill="#C4D9ED" width="13.445" height="18.951"/>
						<rect x="2370.618" y="1119.065" fill="#C4D9ED" width="13.445" height="18.951"/>
					</g>
					<g>
						<rect x="2346.593" y="1119.065" fill="#C4D9ED" width="13.445" height="18.951"/>
						<rect x="2321.451" y="1119.065" fill="#C4D9ED" width="13.445" height="18.951"/>
						<rect x="2296.871" y="1119.065" fill="#C4D9ED" width="13.445" height="18.951"/>
						<rect x="2273.565" y="1119.065" fill="#C4D9ED" width="13.445" height="18.951"/>
						<rect x="2249.813" y="1119.065" fill="#C4D9ED" width="13.445" height="18.951"/>
					</g>
				</g>
				<g>
					<g>
						<rect x="2467.398" y="1152.507" fill="#C4D9ED" width="13.444" height="18.95"/>
						<rect x="2442.255" y="1152.507" fill="#C4D9ED" width="13.445" height="18.95"/>
						<rect x="2417.677" y="1152.507" fill="#C4D9ED" width="13.444" height="18.95"/>
						<rect x="2394.37" y="1152.507" fill="#C4D9ED" width="13.445" height="18.95"/>
						<rect x="2370.618" y="1152.507" fill="#C4D9ED" width="13.445" height="18.95"/>
					</g>
					<g>
						<rect x="2346.593" y="1152.507" fill="#C4D9ED" width="13.445" height="18.95"/>
						<rect x="2321.451" y="1152.507" fill="#C4D9ED" width="13.445" height="18.95"/>
						<rect x="2296.871" y="1152.507" fill="#C4D9ED" width="13.445" height="18.95"/>
						<rect x="2273.565" y="1152.507" fill="#C4D9ED" width="13.445" height="18.95"/>
						<rect x="2249.813" y="1152.507" fill="#C4D9ED" width="13.445" height="18.95"/>
					</g>
				</g>
				<g>
					<g>
						<rect x="2467.398" y="1185.436" fill="#C4D9ED" width="13.444" height="18.951"/>
						<rect x="2442.255" y="1185.436" fill="#C4D9ED" width="13.445" height="18.951"/>
						<rect x="2417.677" y="1185.436" fill="#C4D9ED" width="13.444" height="18.951"/>
						<rect x="2394.37" y="1185.436" fill="#C4D9ED" width="13.445" height="18.951"/>
						<rect x="2370.618" y="1185.436" fill="#C4D9ED" width="13.445" height="18.951"/>
					</g>
					<g>
						<rect x="2346.593" y="1185.436" fill="#C4D9ED" width="13.445" height="18.951"/>
						<rect x="2321.451" y="1185.436" fill="#C4D9ED" width="13.445" height="18.951"/>
						<rect x="2296.871" y="1185.436" fill="#C4D9ED" width="13.445" height="18.951"/>
						<rect x="2273.565" y="1185.436" fill="#C4D9ED" width="13.445" height="18.951"/>
						<rect x="2249.813" y="1185.436" fill="#C4D9ED" width="13.445" height="18.951"/>
					</g>
				</g>
			</g>
			<rect x="2467.398" y="1060.96" fill="#ADC9E0" width="11.298" height="19.546"/>
			<rect x="2355.231" y="1060.96" fill="#ADC9E0" width="11.298" height="19.546"/>
			<rect x="2266.003" y="1060.96" fill="#ADC9E0" width="11.299" height="19.546"/>
		</g>
	</g>
	<path fill="#ABC6DD" d="M2209.012,1205.612c0-1.045,0-2.09-0.03-3.138c0-6.395-0.03-12.911-0.06-18.32
		c-0.061-8.696-3.05-16.648-6.397-22.833c-4.362-7.979-9.294-13.029-9.294-13.029l-10.251-8.282l-34.428-27.7l-0.197-0.427
		c0.795-0.813,1.494-1.718,2.006-2.745c0.749-1.495,1.167-3.197,1.167-4.96v-19.846c0-6.098-4.991-11.119-11.117-11.119h-3.557
		c-2.069,0-3.999,0.593-5.665,1.595l-23.634-51.047c-1.436-6.805-3.354-13.021-5.45-18.552
		c-6.449-17.016-24.749-28.599-45.549-28.599h-0.695h-121.697h-55.606v0.006h-0.009v0.297h-234.644v252.668h29.187
		c2.58,13.061,10.482,22.642,19.948,22.642c0,0,11.543,0,13.147,0c9.466,0,17.369-9.581,19.949-22.642h60.867
		c2.58,13.061,10.484,22.642,19.949,22.642c0,0,11.543,0,13.148,0c9.465,0,17.367-9.581,19.946-22.642h38.501h7.682h20.084h70.414
		c-0.448-2.599-0.656-5.287-0.656-8.067c0-0.203,0.056-0.381,0.059-0.581l0.598,8.648h6.266
		c2.58,13.061,10.483,22.642,19.949,22.642c0,0,11.544,0,13.147,0c9.467,0,17.37-9.581,19.948-22.642h21.444h76.691
		c2.58,13.061,10.483,22.642,19.948,22.642c0,0,11.543,0,13.148,0c9.519,0,17.46-9.685,19.994-22.859
		C2199.445,1228.252,2209.04,1218.11,2209.012,1205.612z"/>
	<g>
		<g>
			<path fill="#A8302D" d="M1859.571,804.762v52.307c0,4.648-1.104,9.138-3.072,13.076c-4.805,9.613-14.81,16.229-26.232,16.229
				h-9.375c-16.069,0-29.305-13.155-29.305-29.305v-52.307c0-5.516,1.575-10.635,4.254-15.048c0-0.078,0-0.078,0-0.078
				c5.199-8.507,14.496-14.181,25.051-14.181h9.375C1846.415,775.456,1859.571,788.692,1859.571,804.762z"/>
			<path opacity="0.3" fill="#A8302D" d="M1856.499,870.145c-4.805,9.613-14.81,16.229-26.232,16.229h-9.375
				c-16.069,0-29.305-13.155-29.305-29.305v-52.307c0-5.516,1.575-10.635,4.254-15.048
				C1796.394,792.946,1808.84,864.71,1856.499,870.145z"/>
		</g>
		<polygon fill="#661717" points="1394.985,1187.614 1539.845,1187.614 1539.845,1041.413 1388.722,1041.413 		"/>
		<path fill="#C94C43" d="M1851.756,878.568l-711.679,17.548V520.829h467.339c44.55,0,85.35,24.939,105.665,64.588l30.584,59.691
			L1851.756,878.568z"/>
		<g>
			<path fill="#631818" d="M1447.458,1163.827c0,39.691,20.473,83.46,20.473,83.46s30.428,0,34.656,0
				c30.447,0,55.129-37.366,55.129-83.46s-59.338-83.46-89.785-83.46C1437.484,1080.367,1447.458,1117.733,1447.458,1163.827z"/>
			<ellipse fill="#822121" cx="1467.931" cy="1163.827" rx="55.129" ry="83.46"/>
			<ellipse fill="#661717" cx="1468.626" cy="1163.827" rx="41.525" ry="62.866"/>
		</g>
		<g>
			<path fill="#631818" d="M1845.938,1163.827c0,39.691,20.472,83.46,20.472,83.46s30.428,0,34.656,0
				c30.447,0,55.129-37.366,55.129-83.46s-59.338-83.46-89.785-83.46C1835.963,1080.367,1845.938,1117.733,1845.938,1163.827z"/>
			<ellipse fill="#822121" cx="1866.41" cy="1163.827" rx="55.128" ry="83.46"/>
			<ellipse fill="#661717" cx="1867.105" cy="1163.827" rx="41.525" ry="62.866"/>
		</g>
		<g>
			<path fill="#631818" d="M930.869,1163.827c0,39.691,20.473,83.46,20.473,83.46s30.427,0,34.655,0
				c30.446,0,55.128-37.366,55.128-83.46s-59.338-83.46-89.783-83.46C920.895,1080.367,930.869,1117.733,930.869,1163.827z"/>
			<ellipse fill="#822121" cx="951.341" cy="1163.827" rx="55.128" ry="83.46"/>
			<ellipse fill="#661717" cx="952.037" cy="1163.827" rx="41.525" ry="62.866"/>
		</g>
		<path fill="#C94C43" d="M2011.085,1124.436c0.079,34.896-28.203,63.178-63.021,63.178h-408.22
			c1.182-6.852,1.812-13.943,1.812-21.269c0-53.963-32.376-97.763-72.237-97.763c-39.94,0-72.316,43.8-72.316,97.763
			c0,7.325,0.55,14.417,1.733,21.269h-238.535c0,0-9.611-106.505-8.43-159.916c0.945-46.477,0.945-137.543-1.813-159.756
			c0-3.311,230.026-3.705,288.086-3.939c7.878-0.081,12.604-0.081,13.077-0.081l0.787,0.552l0.866,0.631
			c10.714,7.483,70.741,49.551,108.003,74.207c32.851,21.664,275.324,30.487,370.407,33.167c23.632,0.628,38.206,0.865,38.206,0.865
			s12.998,13.313,24.5,34.346c8.822,16.308,16.699,37.261,16.857,60.186c0.078,14.259,0.157,31.432,0.157,48.289
			C2011.085,1118.921,2011.085,1121.679,2011.085,1124.436z"/>
		<path fill="#A2C2DD" d="M1794.371,863.921h-319.833c-7.404,0-14.1-4.33-17.172-11.027l-79.172-176.144
			c-2.599-5.75,1.656-12.289,7.957-12.289h337.399c7.405,0,14.181,4.412,17.174,11.265l56.718,129.586l14.18,32.378
			C1816.979,850.058,1807.921,863.921,1794.371,863.921z"/>
		<path fill="#A8302D" d="M1645.405,1116.164c-0.08,5.516-0.314,10.715-0.631,15.363c-2.284,30.644-33.086,56.087-33.086,56.087
			h-71.844c1.182-6.852,1.812-13.943,1.812-21.269c0-18.355-3.781-35.528-10.241-50.182c-12.683-28.516-35.686-47.581-61.996-47.581
			c-26.392,0-49.393,19.065-62.076,47.581c-6.459,14.653-10.24,31.826-10.24,50.182c0,7.325,0.55,14.417,1.733,21.269h-258.781
			V520.852h207.733v132.343c0,0,62.312,146.367,90.356,210.808c6.932,16.068,11.816,27.02,13.077,29.383
			c6.224,11.895,151.014,85.156,174.961,106.741C1639.496,1012.1,1646.114,1074.334,1645.405,1116.164z"/>
		<path fill="#A2C2DD" d="M1350.111,696.149l68.127,167.802h-116.896c0,0-23.979-4.015-27.054-53.02
			c-3.282-52.316-3.275-142.6-3.275-142.6l51.309-0.247C1341.88,671.039,1344.942,681.78,1350.111,696.149z"/>
		<polygon fill="#C94C43" points="1969.491,973.343 1590.419,973.343 1452.009,864.473 1451.222,863.921 1833.602,863.921 
			1942.471,951.522 		"/>
		<path fill="#C4D9ED" d="M1993.991,1007.689c-2.206,3.625-5.042,5.988-8.114,6.538l-53.174,9.848
			c-4.491,0.867-7.957-6.932-6.775-14.967l5.199-35.765l0.158-0.865l1.024-7.328c0.944-6.302,3.701-11.106,7.088-12.447l3.073-1.181
			l27.021,21.821C1969.491,973.343,1982.489,986.656,1993.991,1007.689z"/>
		<path fill="#A8302D" d="M1639.496,1037.311l-34.267-3.39c-11.975-1.181-21.664-10.162-23.791-21.979l-7.878-43.327
			c-0.157-0.708-0.236-1.339-0.157-2.046c24.422,14.02,44.98,26.547,52.779,33.557
			C1631.856,1005.249,1636.345,1019.428,1639.496,1037.311z"/>
		<path fill="#C4D9ED" d="M1704.565,1043.769l-64.99-6.458h-0.079l-34.267-3.39c-11.975-1.181-21.664-10.162-23.791-21.979
			l-7.878-43.327c-0.157-0.708-0.236-1.339-0.157-2.046v-0.081c-0.395-9.138,7.956-16.542,17.33-14.651l101.229,20.56
			c6.461,1.341,11.58,6.145,13.313,12.447l11.896,43.958C1719.376,1036.837,1712.837,1044.636,1704.565,1043.769z"/>
		<path fill="#C94C43" d="M1743.69,645.102h-394.91c0,0-1.526-25.268-11.436-54.128c-8.822-25.486-24.069-53.912-50.753-70.138
			h322.702c52.604,0,99.217,28.098,117.732,70.138c0.871,1.742,1.633,3.483,2.287,5.228
			C1734.868,610.794,1739.878,627.13,1743.69,645.102z"/>
		<path fill="#A2C2DD" d="M1639.575,1037.311l-34.346-3.39c-11.975-1.181-21.664-10.162-23.791-21.979l-7.878-43.327
			c-0.157-0.708-0.236-1.418-0.157-2.127c24.422,14.101,44.98,26.628,52.779,33.638
			C1631.856,1005.249,1636.345,1019.428,1639.575,1037.311z"/>
		<path opacity="0.3" fill="#8E2323" d="M2011.085,1124.436c0.079,34.896-29.541,63.178-66.094,63.178h-405.146
			c1.182-6.852,1.812-13.943,1.812-21.269c0-18.355-3.781-35.528-10.241-50.182h479.591
			C2011.085,1118.921,2011.085,1121.679,2011.085,1124.436z"/>
		<path opacity="0.3" fill="#8E2323" d="M1397.103,1166.345c0,7.325,0.55,14.417,1.733,21.269h-258.781v-71.45h267.288
			C1400.884,1130.817,1397.103,1147.99,1397.103,1166.345z"/>
		<path opacity="0.3" fill="#8E2323" d="M1744.195,976.423h155.015c4.952,0,8.738,6.678,7.982,14.079l-5.502,53.872
			c-0.809,7.924-5.318,13.771-10.619,13.771H1763.36c-8.188,0-15.414-8.102-17.795-19.953l-9.197-45.802
			C1734.772,984.444,1738.704,976.423,1744.195,976.423z"/>
		<path fill="#C4D9ED" d="M1797.442,805.312c-182.84-9.374-306.518-107.213-343.858-140.851h269.967
			c7.405,0,14.181,4.412,17.174,11.265L1797.442,805.312z"/>
		<rect x="521.605" y="520.829" fill="#8E2525" width="691.581" height="666.832"/>
		<path fill="#631818" d="M1383.566,777.789c0,0,5.915,67.818-27.566,86.392h62.548L1383.566,777.789z"/>
		<path fill="#631818" d="M1392.756,823.175c0,0-14.124-10.051-15.336-18.383v47.432h18.48L1392.756,823.175z"/>
		<g>
			<path fill="#C94C43" d="M1377.408,804.762v52.307c0,4.648-1.104,9.138-3.073,13.076c-4.805,9.613-14.809,16.229-26.232,16.229
				h-9.375c-16.069,0-29.304-13.155-29.304-29.305v-52.307c0-5.516,1.574-10.635,4.254-15.048c0-0.078,0-0.078,0-0.078
				c5.198-8.507,14.495-14.181,25.05-14.181h9.375C1364.252,775.456,1377.408,788.692,1377.408,804.762z"/>
			<path opacity="0.3" fill="#8E2323" d="M1374.335,870.145c-4.805,9.613-14.809,16.229-26.232,16.229h-9.375
				c-16.069,0-29.304-13.155-29.304-29.305v-52.307c0-5.516,1.574-10.635,4.254-15.048
				C1314.229,792.946,1326.676,864.71,1374.335,870.145z"/>
		</g>
		<path fill="#661717" d="M747.485,1187.661H577.367c-3.595-15.355-14.414-124.699,80.921-124.702
			C744.926,1062.956,751.297,1162.719,747.485,1187.661z"/>
		<g>
			<path fill="#631818" d="M630.62,1163.827c0,39.691,20.472,83.46,20.472,83.46s30.429,0,34.656,0
				c30.447,0,55.129-37.366,55.129-83.46s-59.338-83.46-89.785-83.46C620.646,1080.367,630.62,1117.733,630.62,1163.827z"/>
			<ellipse fill="#822121" cx="651.093" cy="1163.827" rx="55.128" ry="83.46"/>
			<ellipse fill="#661717" cx="651.788" cy="1163.827" rx="41.525" ry="62.866"/>
		</g>
		<path opacity="0.3" fill="#8E2323" d="M1743.69,645.102h-394.91c0,0-1.526-25.268-11.436-54.128h389.682
			c0.871,1.742,1.633,3.483,2.287,5.228C1734.868,610.794,1739.878,627.13,1743.69,645.102z"/>
	</g>
	<path fill="#F99746" d="M1407.343,108.371c-71.344,0-129.18,57.835-129.18,129.18c0,71.344,129.18,229.957,129.18,229.957
		s129.18-158.613,129.18-229.957C1536.522,166.206,1478.687,108.371,1407.343,108.371z M1407.343,296.62
		c-33.348,0-60.382-27.035-60.382-60.383s27.034-60.381,60.382-60.381c33.349,0,60.382,27.033,60.382,60.381
		S1440.691,296.62,1407.343,296.62z"/>
	<g>
		<path fill="#699FF0" d="M1150.06,926.676c-0.714,0-1.422-0.307-1.913-0.899l-3.095-3.745c-0.872-1.057-0.722-2.62,0.334-3.492
			c1.056-0.873,2.62-0.722,3.492,0.334l3.091,3.741c0.873,1.056,0.726,2.619-0.33,3.492
			C1151.177,926.49,1150.617,926.676,1150.06,926.676z M1142.762,917.825c-0.717,0-1.428-0.31-1.919-0.907
			c-1.383-1.686-2.783-3.395-4.196-5.128c-0.866-1.062-0.708-2.624,0.354-3.489c1.062-0.867,2.624-0.708,3.49,0.354
			c1.411,1.729,2.807,3.435,4.188,5.116c0.869,1.059,0.715,2.621-0.344,3.49C1143.873,917.64,1143.315,917.825,1142.762,917.825z
			 M1134.398,907.567c-0.723,0-1.439-0.314-1.93-0.921c-1.375-1.7-2.762-3.422-4.158-5.164c-0.856-1.069-0.685-2.63,0.385-3.486
			c1.069-0.858,2.63-0.685,3.486,0.385c1.391,1.736,2.773,3.452,4.144,5.146c0.862,1.064,0.697,2.626-0.368,3.488
			C1135.498,907.386,1134.946,907.567,1134.398,907.567z M1126.122,897.238c-0.731,0-1.456-0.322-1.946-0.94
			c-1.361-1.718-2.73-3.454-4.104-5.208c-0.845-1.079-0.656-2.638,0.422-3.482c1.078-0.844,2.637-0.656,3.482,0.422
			c1.37,1.748,2.733,3.477,4.089,5.188c0.851,1.073,0.669,2.634-0.404,3.484C1127.205,897.063,1126.661,897.238,1126.122,897.238z
			 M1117.96,886.817c-0.742,0-1.475-0.331-1.964-0.963c-1.343-1.736-2.69-3.49-4.042-5.26c-0.831-1.089-0.622-2.646,0.467-3.477
			c1.088-0.832,2.645-0.623,3.477,0.467c1.344,1.762,2.686,3.506,4.022,5.234c0.838,1.084,0.639,2.642-0.444,3.479
			C1119.024,886.648,1118.49,886.817,1117.96,886.817z M1109.933,876.295c-0.753,0-1.497-0.342-1.984-0.99
			c-1.322-1.758-2.645-3.531-3.968-5.319c-0.815-1.102-0.583-2.654,0.518-3.469c1.101-0.817,2.654-0.584,3.469,0.518
			c1.316,1.778,2.632,3.542,3.946,5.29c0.823,1.095,0.603,2.649-0.492,3.473C1110.975,876.133,1110.451,876.295,1109.933,876.295z
			 M1102.061,865.659c-0.767,0-1.522-0.354-2.008-1.021c-1.295-1.78-2.59-3.575-3.883-5.384c-0.797-1.114-0.54-2.663,0.575-3.46
			c1.113-0.797,2.663-0.541,3.46,0.575c1.285,1.797,2.572,3.58,3.86,5.351c0.806,1.107,0.561,2.659-0.547,3.465
			C1103.077,865.504,1102.566,865.659,1102.061,865.659z M1094.364,854.891c-0.781,0-1.549-0.368-2.032-1.056
			c-1.266-1.804-2.53-3.622-3.79-5.452c-0.776-1.129-0.491-2.673,0.637-3.449c1.13-0.777,2.673-0.491,3.45,0.637
			c1.251,1.818,2.506,3.623,3.763,5.415c0.787,1.121,0.516,2.668-0.605,3.455C1095.353,854.745,1094.856,854.891,1094.364,854.891z
			 M1086.863,843.991c-0.797,0-1.581-0.384-2.06-1.095c-1.233-1.83-2.462-3.672-3.685-5.526c-0.754-1.144-0.438-2.682,0.706-3.436
			c1.144-0.755,2.682-0.439,3.436,0.705c1.213,1.841,2.433,3.669,3.657,5.485c0.765,1.136,0.465,2.678-0.671,3.442
			C1087.822,843.854,1087.34,843.991,1086.863,843.991z M1079.578,832.943c-0.815,0-1.613-0.401-2.087-1.137
			c-1.196-1.856-2.386-3.725-3.569-5.604c-0.729-1.159-0.381-2.69,0.779-3.42s2.691-0.381,3.42,0.779
			c1.173,1.864,2.353,3.717,3.54,5.558c0.742,1.151,0.41,2.687-0.741,3.429C1080.503,832.815,1080.038,832.943,1079.578,832.943z
			 M1072.532,821.741c-0.834,0-1.649-0.421-2.117-1.184c-1.156-1.885-2.303-3.779-3.441-5.686c-0.703-1.176-0.318-2.698,0.857-3.401
			c1.177-0.7,2.7-0.318,3.401,0.858c1.128,1.889,2.266,3.768,3.411,5.635c0.716,1.168,0.35,2.695-0.818,3.411
			C1073.421,821.623,1072.974,821.741,1072.532,821.741z M1065.748,810.379c-0.855,0-1.688-0.442-2.147-1.235
			c-1.111-1.913-2.212-3.836-3.301-5.77c-0.673-1.193-0.25-2.706,0.943-3.379c1.195-0.672,2.707-0.25,3.378,0.943
			c1.08,1.914,2.17,3.819,3.27,5.715c0.688,1.185,0.285,2.702-0.9,3.391C1066.599,810.272,1066.17,810.379,1065.748,810.379z
			 M1059.251,798.853c-0.878,0-1.729-0.467-2.179-1.292c-1.064-1.949-2.117-3.907-3.156-5.875c-0.64-1.212-0.177-2.712,1.034-3.353
			c1.208-0.64,2.711-0.178,3.352,1.034c1.03,1.948,2.072,3.887,3.125,5.816c0.656,1.202,0.213,2.709-0.989,3.365
			C1060.06,798.755,1059.653,798.853,1059.251,798.853z M1053.054,787.123c-0.903,0-1.773-0.494-2.211-1.354
			c-1.009-1.979-2.004-3.966-2.985-5.962c-0.604-1.229-0.097-2.716,1.132-3.32c1.228-0.604,2.716-0.098,3.32,1.133
			c0.97,1.975,1.955,3.938,2.952,5.896c0.623,1.221,0.138,2.714-1.083,3.337C1053.818,787.036,1053.433,787.123,1053.054,787.123z
			 M1047.208,775.224c-0.93,0-1.821-0.524-2.244-1.422c-0.948-2.008-1.881-4.023-2.798-6.048c-0.565-1.248-0.011-2.718,1.237-3.283
			c1.248-0.564,2.717-0.012,3.283,1.237c0.905,2,1.827,3.992,2.764,5.977c0.584,1.238,0.055,2.717-1.184,3.302
			C1047.924,775.148,1047.563,775.224,1047.208,775.224z M1041.747,763.157c-0.959,0-1.872-0.56-2.277-1.496
			c-0.882-2.038-1.747-4.084-2.594-6.139c-0.522-1.267,0.081-2.717,1.348-3.238c1.266-0.524,2.716,0.081,3.238,1.348
			c0.836,2.027,1.689,4.048,2.561,6.059c0.544,1.257-0.034,2.717-1.291,3.262C1042.41,763.09,1042.076,763.157,1041.747,763.157z
			 M1036.7,750.916c-0.991,0-1.927-0.599-2.31-1.577c-0.81-2.068-1.601-4.144-2.372-6.227c-0.476-1.285,0.181-2.712,1.465-3.188
			c1.285-0.478,2.711,0.181,3.187,1.465c0.76,2.054,1.54,4.102,2.338,6.141c0.5,1.275-0.129,2.715-1.405,3.214
			C1037.307,750.86,1037.001,750.916,1036.7,750.916z M1032.107,738.506c-1.026,0-1.986-0.642-2.342-1.666
			c-0.73-2.098-1.441-4.203-2.13-6.315c-0.424-1.302,0.287-2.702,1.589-3.127c1.301-0.422,2.702,0.286,3.127,1.59
			c0.678,2.081,1.378,4.155,2.098,6.222c0.451,1.293-0.233,2.707-1.526,3.158C1032.653,738.461,1032.378,738.506,1032.107,738.506z
			 M1028.006,725.929c-1.064,0-2.047-0.69-2.373-1.761c-0.644-2.122-1.272-4.275-1.868-6.401c-0.37-1.319,0.4-2.688,1.719-3.058
			c1.321-0.368,2.688,0.401,3.057,1.72c0.586,2.092,1.205,4.211,1.838,6.298c0.398,1.311-0.342,2.696-1.653,3.094
			C1028.488,725.894,1028.245,725.929,1028.006,725.929z M1024.438,713.192c-1.105,0-2.113-0.744-2.401-1.864
			c-0.554-2.161-1.087-4.342-1.584-6.48c-0.31-1.334,0.521-2.668,1.854-2.978c1.337-0.311,2.667,0.521,2.978,1.854
			c0.488,2.103,1.013,4.246,1.558,6.371c0.34,1.327-0.46,2.679-1.787,3.019C1024.85,713.167,1024.643,713.192,1024.438,713.192z
			 M1021.445,700.306c-1.151,0-2.183-0.806-2.426-1.977c-0.453-2.184-0.883-4.389-1.277-6.552c-0.246-1.348,0.647-2.64,1.995-2.886
			s2.64,0.647,2.885,1.995c0.388,2.125,0.81,4.29,1.255,6.435c0.278,1.342-0.584,2.654-1.925,2.933
			C1021.782,700.29,1021.612,700.306,1021.445,700.306z M1019.072,687.29c-1.201,0-2.256-0.873-2.447-2.097
			c-0.345-2.198-0.665-4.423-0.951-6.614c-0.177-1.358,0.78-2.604,2.138-2.781c1.361-0.173,2.604,0.781,2.781,2.139
			c0.28,2.149,0.594,4.332,0.933,6.489c0.212,1.353-0.713,2.622-2.066,2.834C1019.329,687.28,1019.2,687.29,1019.072,687.29z
			 M1017.36,674.164c-1.255,0-2.332-0.949-2.464-2.225c-0.23-2.219-0.432-4.46-0.601-6.662c-0.104-1.365,0.917-2.558,2.284-2.662
			c1.355-0.123,2.558,0.917,2.663,2.283c0.166,2.157,0.364,4.354,0.589,6.529c0.141,1.362-0.849,2.582-2.211,2.723
			C1017.532,674.16,1017.445,674.164,1017.36,674.164z M1016.35,660.957c-1.314,0-2.411-1.032-2.476-2.359
			c-0.108-2.229-0.187-4.48-0.233-6.693c-0.028-1.37,1.059-2.503,2.429-2.531c1.368-0.064,2.502,1.059,2.531,2.428
			c0.045,2.167,0.122,4.373,0.228,6.555c0.066,1.368-0.988,2.532-2.357,2.599C1016.432,660.956,1016.391,660.957,1016.35,660.957z
			 M1016.08,647.704c-0.007,0-0.014,0-0.021,0c-1.37-0.012-2.471-1.131-2.46-2.501c0.019-2.231,0.069-4.481,0.151-6.687
			c0.051-1.369,1.189-2.424,2.571-2.387c1.369,0.051,2.437,1.202,2.386,2.57c-0.08,2.158-0.13,4.359-0.147,6.544
			C1018.549,646.606,1017.44,647.704,1016.08,647.704z M1016.575,634.471c-0.056,0-0.111-0.002-0.168-0.006
			c-1.367-0.091-2.4-1.273-2.31-2.64c0.149-2.225,0.333-4.472,0.546-6.681c0.131-1.364,1.346-2.362,2.708-2.229
			c1.364,0.132,2.362,1.344,2.23,2.708c-0.209,2.159-0.389,4.357-0.534,6.532C1018.96,633.466,1017.87,634.471,1016.575,634.471z
			 M1017.851,621.293c-0.104,0-0.21-0.007-0.316-0.02c-1.359-0.174-2.32-1.416-2.147-2.774c0.281-2.203,0.599-4.43,0.944-6.619
			c0.214-1.354,1.483-2.272,2.837-2.063c1.353,0.214,2.276,1.484,2.063,2.837c-0.338,2.142-0.649,4.318-0.924,6.473
			C1020.149,620.379,1019.082,621.293,1017.851,621.293z M1019.917,608.234c-0.153,0-0.309-0.014-0.464-0.043
			c-1.346-0.255-2.23-1.553-1.976-2.899c0.413-2.18,0.865-4.385,1.343-6.551c0.295-1.339,1.618-2.185,2.957-1.888
			c1.337,0.295,2.183,1.619,1.887,2.956c-0.467,2.119-0.909,4.274-1.313,6.406C1022.125,607.405,1021.084,608.234,1019.917,608.234z
			 M1022.768,595.322c-0.201,0-0.405-0.024-0.609-0.076c-1.328-0.335-2.133-1.684-1.797-3.012c0.542-2.145,1.125-4.317,1.735-6.458
			c0.375-1.318,1.748-2.084,3.065-1.706c1.317,0.375,2.081,1.748,1.706,3.065c-0.597,2.093-1.167,4.217-1.697,6.313
			C1024.887,594.573,1023.876,595.322,1022.768,595.322z M1026.388,582.606c-0.249,0-0.501-0.038-0.751-0.117
			c-1.306-0.415-2.028-1.809-1.614-3.115c0.668-2.104,1.38-4.238,2.117-6.341c0.453-1.292,1.867-1.974,3.161-1.521
			c1.293,0.453,1.974,1.868,1.521,3.161c-0.721,2.058-1.417,4.144-2.07,6.203C1028.416,581.931,1027.44,582.606,1026.388,582.606z
			 M1030.756,570.125c-0.295,0-0.595-0.053-0.887-0.165c-1.279-0.49-1.919-1.924-1.429-3.204c0.79-2.062,1.625-4.149,2.481-6.206
			c0.527-1.264,1.978-1.859,3.243-1.336c1.265,0.527,1.863,1.979,1.336,3.244c-0.838,2.013-1.655,4.056-2.427,6.073
			C1032.695,569.519,1031.754,570.125,1030.756,570.125z M1035.837,557.919c-0.34,0-0.686-0.07-1.016-0.219
			c-1.25-0.562-1.807-2.03-1.245-3.28c0.906-2.015,1.856-4.052,2.825-6.054c0.596-1.232,2.078-1.749,3.313-1.154
			c1.233,0.597,1.75,2.08,1.153,3.313c-0.948,1.961-1.878,3.956-2.766,5.93C1037.688,557.375,1036.784,557.919,1035.837,557.919z
			 M1041.59,546.013c-0.384,0-0.773-0.089-1.137-0.278c-1.217-0.629-1.693-2.125-1.064-3.342c1.011-1.957,2.069-3.938,3.145-5.89
			c0.661-1.199,2.17-1.635,3.369-0.976c1.2,0.661,1.637,2.169,0.976,3.37c-1.054,1.914-2.092,3.856-3.083,5.774
			C1043.354,545.524,1042.488,546.013,1041.59,546.013z M1047.969,534.432c-0.425,0-0.856-0.11-1.25-0.34
			c-1.183-0.691-1.581-2.211-0.889-3.393c1.108-1.895,2.266-3.819,3.442-5.719c0.721-1.163,2.25-1.524,3.415-0.803
			s1.524,2.25,0.803,3.415c-1.154,1.864-2.291,3.752-3.378,5.611C1049.651,533.992,1048.821,534.432,1047.969,534.432z
			 M1054.928,523.187c-0.465,0-0.936-0.13-1.354-0.404c-1.147-0.749-1.469-2.286-0.72-3.433c1.203-1.842,2.453-3.706,3.714-5.541
			c0.776-1.128,2.32-1.417,3.449-0.639c1.129,0.776,1.415,2.32,0.639,3.449c-1.239,1.803-2.467,3.635-3.648,5.444
			C1056.531,522.791,1055.737,523.187,1054.928,523.187z M1062.417,512.289c-0.503,0-1.011-0.152-1.45-0.469
			c-1.111-0.802-1.361-2.352-0.56-3.463c1.291-1.788,2.624-3.592,3.962-5.362c0.825-1.092,2.38-1.309,3.474-0.483
			c1.093,0.826,1.309,2.381,0.483,3.474c-1.316,1.742-2.627,3.516-3.896,5.274C1063.946,511.932,1063.187,512.289,1062.417,512.289z
			 M1070.391,501.739c-0.539,0-1.081-0.175-1.537-0.534c-1.075-0.85-1.257-2.409-0.408-3.484c1.357-1.717,2.766-3.461,4.187-5.185
			c0.871-1.057,2.435-1.208,3.492-0.335c1.057,0.872,1.207,2.435,0.335,3.492c-1.399,1.697-2.786,3.414-4.122,5.105
			C1071.849,501.416,1071.124,501.739,1070.391,501.739z M1078.804,491.535c-0.572,0-1.147-0.197-1.615-0.599
			c-1.039-0.893-1.158-2.458-0.265-3.498c1.435-1.671,2.898-3.34,4.39-5.01c0.912-1.021,2.48-1.111,3.502-0.197
			c1.021,0.913,1.11,2.48,0.197,3.502c-1.47,1.645-2.912,3.291-4.326,4.938C1080.196,491.242,1079.501,491.535,1078.804,491.535z
			 M1087.614,481.672c-0.604,0-1.209-0.219-1.687-0.662c-1.004-0.932-1.063-2.501-0.131-3.505c1.498-1.615,3.022-3.228,4.573-4.839
			c0.95-0.987,2.52-1.018,3.507-0.067c0.987,0.95,1.018,2.52,0.068,3.507c-1.53,1.59-3.034,3.182-4.511,4.774
			C1088.944,481.406,1088.28,481.672,1087.614,481.672z M1096.783,472.142c-0.634,0-1.267-0.241-1.751-0.724
			c-0.97-0.967-0.973-2.538-0.005-3.508c1.554-1.559,3.133-3.117,4.737-4.673c0.983-0.953,2.554-0.93,3.507,0.053
			c0.954,0.983,0.93,2.554-0.053,3.507c-1.584,1.537-3.144,3.075-4.678,4.615C1098.055,471.898,1097.419,472.142,1096.783,472.142z
			 M1106.275,462.933c-0.661,0-1.32-0.263-1.809-0.783c-0.938-0.999-0.889-2.568,0.11-3.506c1.604-1.506,3.232-3.011,4.886-4.515
			c1.013-0.921,2.582-0.848,3.504,0.166s0.847,2.583-0.166,3.504c-1.634,1.486-3.243,2.973-4.828,4.461
			C1107.494,462.71,1106.884,462.933,1106.275,462.933z M1116.06,454.034c-0.687,0-1.371-0.284-1.861-0.84
			c-0.906-1.027-0.808-2.595,0.22-3.501c1.649-1.455,3.322-2.908,5.019-4.361c1.041-0.892,2.605-0.77,3.498,0.271
			c0.891,1.041,0.77,2.606-0.271,3.498c-1.678,1.437-3.333,2.875-4.964,4.313C1117.228,453.829,1116.643,454.034,1116.06,454.034z
			 M1126.106,445.432c-0.712,0-1.418-0.305-1.909-0.895c-0.876-1.053-0.732-2.617,0.322-3.493c1.69-1.406,3.404-2.811,5.14-4.214
			c1.064-0.861,2.626-0.696,3.488,0.369c0.861,1.065,0.696,2.627-0.369,3.488c-1.718,1.389-3.414,2.78-5.088,4.171
			C1127.227,445.244,1126.665,445.432,1126.106,445.432z M1136.346,437.058c-0.708,0-1.411-0.302-1.902-0.887
			c-0.88-1.049-0.743-2.614,0.307-3.494c1.67-1.401,3.332-2.84,4.939-4.277c1.021-0.912,2.588-0.826,3.502,0.196
			c0.913,1.021,0.825,2.589-0.196,3.502c-1.646,1.472-3.347,2.945-5.058,4.38C1137.474,436.868,1136.908,437.058,1136.346,437.058z
			 M1146.199,428.242c-0.654,0-1.307-0.257-1.794-0.768c-0.946-0.991-0.91-2.561,0.081-3.507c1.572-1.501,3.135-3.045,4.645-4.587
			c0.958-0.98,2.529-0.996,3.507-0.038c0.979,0.958,0.996,2.528,0.038,3.507c-1.548,1.583-3.151,3.166-4.764,4.706
			C1147.431,428.014,1146.814,428.242,1146.199,428.242z M1155.446,418.793c-0.597,0-1.197-0.215-1.672-0.649
			c-1.011-0.924-1.082-2.494-0.157-3.504c1.467-1.605,2.92-3.251,4.319-4.893c0.888-1.042,2.453-1.168,3.497-0.279
			c1.042,0.888,1.167,2.454,0.279,3.497c-1.436,1.685-2.927,3.374-4.433,5.021C1156.788,418.521,1156.118,418.793,1155.446,418.793z
			 M1164.021,408.729c-0.54,0-1.084-0.175-1.54-0.537c-1.073-0.851-1.253-2.411-0.402-3.484c1.345-1.697,2.678-3.441,3.96-5.183
			c0.812-1.104,2.364-1.339,3.468-0.527s1.339,2.365,0.527,3.468c-1.317,1.79-2.687,3.582-4.069,5.325
			C1165.477,408.407,1164.752,408.729,1164.021,408.729z M1171.858,398.08c-0.481,0-0.967-0.14-1.395-0.431
			c-1.132-0.771-1.424-2.314-0.652-3.446c1.219-1.789,2.422-3.624,3.575-5.455c0.729-1.16,2.26-1.508,3.42-0.777
			c1.159,0.73,1.507,2.262,0.777,3.421c-1.185,1.882-2.421,3.768-3.674,5.605C1173.43,397.701,1172.651,398.08,1171.858,398.08z
			 M1178.903,386.891c-0.422,0-0.85-0.108-1.241-0.335c-1.186-0.687-1.589-2.205-0.902-3.39c1.083-1.868,2.148-3.786,3.167-5.702
			c0.643-1.209,2.145-1.668,3.354-1.025c1.209,0.643,1.668,2.145,1.025,3.354c-1.046,1.969-2.142,3.94-3.254,5.86
			C1180.591,386.448,1179.759,386.891,1178.903,386.891z M1185.105,375.227c-0.363,0-0.732-0.08-1.081-0.25
			c-1.232-0.598-1.747-2.082-1.148-3.314c0.947-1.951,1.868-3.939,2.738-5.911c0.553-1.253,2.017-1.82,3.271-1.267
			c1.252,0.553,1.82,2.018,1.267,3.271c-0.894,2.025-1.841,4.068-2.813,6.073C1186.91,374.712,1186.026,375.227,1185.105,375.227z
			 M1190.441,363.146c-0.306,0-0.617-0.057-0.918-0.177c-1.272-0.507-1.893-1.95-1.386-3.222c0.8-2.007,1.576-4.058,2.306-6.097
			c0.461-1.29,1.88-1.961,3.171-1.5c1.29,0.462,1.961,1.881,1.5,3.171c-0.75,2.094-1.546,4.201-2.368,6.262
			C1192.358,362.554,1191.427,363.146,1190.441,363.146z M1194.896,350.706c-0.249,0-0.503-0.038-0.753-0.118
			c-1.305-0.416-2.026-1.811-1.611-3.116c0.656-2.062,1.286-4.165,1.871-6.25c0.37-1.319,1.737-2.092,3.058-1.718
			c1.319,0.37,2.088,1.739,1.718,3.058c-0.601,2.141-1.247,4.299-1.92,6.416C1196.923,350.032,1195.947,350.706,1194.896,350.706z
			 M1198.468,337.977c-0.194,0-0.392-0.023-0.589-0.071c-1.331-0.324-2.147-1.666-1.822-2.997c0.511-2.099,0.995-4.242,1.438-6.369
			c0.279-1.341,1.593-2.204,2.934-1.923c1.341,0.279,2.202,1.592,1.923,2.934c-0.454,2.182-0.95,4.379-1.475,6.533
			C1200.6,337.216,1199.585,337.977,1198.468,337.977z M1201.166,325.028c-0.141,0-0.284-0.012-0.428-0.037
			c-1.35-0.235-2.253-1.519-2.019-2.869c0.371-2.133,0.712-4.306,1.015-6.456c0.19-1.357,1.45-2.299,2.801-2.111
			c1.356,0.19,2.302,1.445,2.111,2.801c-0.31,2.203-0.659,4.429-1.039,6.615C1203.397,324.178,1202.349,325.028,1201.166,325.028z
			 M1203.009,311.927c-0.089,0-0.179-0.005-0.27-0.015c-1.362-0.147-2.346-1.371-2.199-2.733c0.232-2.144,0.435-4.335,0.603-6.513
			c0.105-1.366,1.302-2.389,2.664-2.282c1.366,0.105,2.387,1.298,2.282,2.664c-0.172,2.228-0.38,4.471-0.618,6.666
			C1205.334,310.985,1204.259,311.927,1203.009,311.927z M1204.027,298.732c-0.039,0-0.078-0.001-0.118-0.003
			c-1.369-0.064-2.426-1.225-2.362-2.593c0.101-2.156,0.171-4.356,0.208-6.542c0.023-1.371,1.17-2.454,2.522-2.438
			c1.37,0.023,2.461,1.152,2.438,2.522c-0.038,2.234-0.109,4.485-0.213,6.689C1206.44,297.697,1205.343,298.732,1204.027,298.732z
			 M1204.252,285.497c-1.356,0-2.464-1.091-2.479-2.451c-0.026-2.17-0.083-4.372-0.17-6.546c-0.055-1.369,1.011-2.522,2.379-2.578
			c1.353-0.039,2.522,1.01,2.578,2.379c0.089,2.22,0.147,4.47,0.173,6.686c0.016,1.37-1.081,2.494-2.451,2.509
			C1204.271,285.497,1204.262,285.497,1204.252,285.497z M1203.722,272.263c-1.294,0-2.384-1.004-2.472-2.314
			c-0.146-2.153-0.323-4.349-0.528-6.526c-0.129-1.364,0.873-2.574,2.236-2.702c1.356-0.137,2.574,0.872,2.702,2.236
			c0.21,2.221,0.391,4.461,0.539,6.659c0.092,1.367-0.941,2.549-2.308,2.641C1203.834,272.261,1203.778,272.263,1203.722,272.263z
			 M1202.48,259.096c-1.237,0-2.307-0.924-2.459-2.183c-0.261-2.156-0.553-4.341-0.869-6.493c-0.199-1.355,0.738-2.615,2.094-2.814
			c1.353-0.201,2.615,0.738,2.814,2.094c0.322,2.194,0.62,4.421,0.886,6.618c0.165,1.36-0.805,2.596-2.165,2.76
			C1202.68,259.09,1202.58,259.096,1202.48,259.096z M1200.56,246.009c-1.185,0-2.233-0.853-2.441-2.06
			c-0.366-2.124-0.767-4.292-1.192-6.444c-0.265-1.344,0.609-2.648,1.953-2.914c1.344-0.264,2.648,0.609,2.914,1.953
			c0.433,2.192,0.841,4.4,1.213,6.563c0.232,1.35-0.673,2.633-2.023,2.865C1200.842,245.997,1200.7,246.009,1200.56,246.009z
			 M1197.999,233.032c-1.137,0-2.162-0.787-2.419-1.942c-0.472-2.124-0.976-4.271-1.498-6.383c-0.329-1.33,0.483-2.674,1.813-3.003
			c1.326-0.327,2.674,0.482,3.003,1.813c0.531,2.149,1.044,4.335,1.525,6.497c0.297,1.337-0.546,2.663-1.883,2.96
			C1198.358,233.012,1198.177,233.032,1197.999,233.032z M1194.828,220.188c-1.092,0-2.093-0.727-2.393-1.832
			c-0.568-2.093-1.169-4.216-1.789-6.311c-0.389-1.313,0.361-2.693,1.675-3.082c1.311-0.388,2.693,0.361,3.082,1.675
			c0.63,2.13,1.242,4.289,1.82,6.418c0.358,1.322-0.422,2.685-1.745,3.043C1195.261,220.16,1195.042,220.188,1194.828,220.188z
			 M1191.071,207.479c-1.05,0-2.025-0.672-2.362-1.726c-0.661-2.067-1.358-4.169-2.073-6.248c-0.446-1.295,0.243-2.707,1.538-3.152
			c1.297-0.447,2.707,0.243,3.152,1.538c0.727,2.113,1.437,4.25,2.108,6.352c0.417,1.305-0.303,2.701-1.607,3.118
			C1191.576,207.441,1191.321,207.479,1191.071,207.479z M1186.756,194.927c-1.01,0-1.959-0.621-2.328-1.624
			c-0.755-2.053-1.542-4.123-2.338-6.152c-0.5-1.275,0.128-2.715,1.403-3.215c1.276-0.499,2.715,0.128,3.215,1.403
			c0.809,2.062,1.608,4.165,2.375,6.25c0.473,1.286-0.185,2.711-1.471,3.185C1187.33,194.878,1187.04,194.927,1186.756,194.927z
			 M1181.913,182.577c-0.972,0-1.894-0.575-2.291-1.527c-0.837-2.01-1.709-4.045-2.592-6.048c-0.552-1.254,0.017-2.718,1.27-3.27
			c1.252-0.553,2.717,0.017,3.27,1.27c0.896,2.034,1.781,4.1,2.631,6.141c0.527,1.265-0.071,2.717-1.336,3.243
			C1182.554,182.516,1182.231,182.577,1181.913,182.577z M1176.569,170.445c-0.935,0-1.83-0.531-2.25-1.435
			c-0.92-1.978-1.873-3.974-2.833-5.934c-0.603-1.23-0.094-2.716,1.136-3.319s2.716-0.094,3.319,1.136
			c0.975,1.99,1.943,4.017,2.876,6.025c0.578,1.242,0.039,2.717-1.203,3.295C1177.275,170.37,1176.919,170.445,1176.569,170.445z
			 M601.641,160.297c-0.431,0-0.867-0.112-1.265-0.349c-1.177-0.7-1.565-2.221-0.866-3.398c0.051-0.085,1.267-2.125,3.741-5.72
			c0.777-1.128,2.321-1.414,3.45-0.636c1.128,0.777,1.413,2.321,0.636,3.45c-2.368,3.439-3.55,5.42-3.562,5.44
			C603.312,159.864,602.487,160.297,601.641,160.297z M1170.741,158.546c-0.899,0-1.767-0.491-2.207-1.346
			c-1.003-1.948-2.025-3.885-3.066-5.813c-0.651-1.205-0.201-2.71,1.004-3.361c1.205-0.65,2.71-0.202,3.361,1.003
			c1.057,1.957,2.094,3.923,3.112,5.9c0.627,1.218,0.147,2.713-1.07,3.34C1171.511,158.458,1171.124,158.546,1170.741,158.546z
			 M609.148,149.315c-0.511,0-1.026-0.157-1.469-0.483c-1.103-0.813-1.338-2.366-0.526-3.468c1.291-1.751,2.652-3.547,4.046-5.337
			c0.842-1.08,2.401-1.273,3.481-0.432c1.081,0.842,1.274,2.4,0.432,3.481c-1.367,1.755-2.701,3.515-3.966,5.23
			C610.661,148.966,609.909,149.315,609.148,149.315z M1164.45,146.898c-0.865,0-1.705-0.453-2.161-1.259
			c-1.079-1.906-2.175-3.801-3.291-5.684c-0.698-1.179-0.308-2.7,0.871-3.398c1.178-0.698,2.699-0.308,3.398,0.871
			c1.132,1.911,2.245,3.834,3.339,5.768c0.675,1.192,0.255,2.706-0.937,3.38C1165.283,146.794,1164.863,146.898,1164.45,146.898z
			 M617.291,138.854c-0.553,0-1.108-0.184-1.569-0.561c-1.06-0.868-1.216-2.43-0.349-3.49c1.384-1.691,2.826-3.414,4.288-5.121
			c0.891-1.04,2.456-1.163,3.498-0.271c1.041,0.891,1.162,2.457,0.271,3.498c-1.438,1.68-2.857,3.374-4.218,5.036
			C618.721,138.543,618.009,138.854,617.291,138.854z M1157.71,135.514c-0.831,0-1.643-0.417-2.112-1.175
			c-1.151-1.861-2.321-3.709-3.508-5.545c-0.744-1.15-0.414-2.686,0.736-3.43c1.151-0.744,2.686-0.415,3.43,0.736
			c1.205,1.863,2.392,3.74,3.561,5.628c0.721,1.165,0.361,2.694-0.804,3.415C1158.606,135.395,1158.155,135.514,1157.71,135.514z
			 M625.906,128.792c-0.588,0-1.179-0.208-1.652-0.631c-1.021-0.913-1.109-2.481-0.196-3.502c1.474-1.648,2.987-3.306,4.499-4.927
			c0.934-1.002,2.504-1.057,3.506-0.124c1.002,0.934,1.057,2.503,0.123,3.505c-1.488,1.597-2.979,3.229-4.429,4.852
			C627.266,128.513,626.587,128.792,625.906,128.792z M1150.534,124.413c-0.797,0-1.58-0.383-2.059-1.094
			c-1.223-1.813-2.463-3.613-3.719-5.399c-0.789-1.12-0.52-2.667,0.601-3.456c1.12-0.788,2.667-0.519,3.456,0.601
			c1.276,1.813,2.535,3.64,3.776,5.48c0.766,1.136,0.466,2.677-0.67,3.443C1151.493,124.276,1151.011,124.413,1150.534,124.413z
			 M634.932,119.104c-0.623,0-1.245-0.233-1.727-0.7c-0.983-0.954-1.007-2.524-0.053-3.507c1.509-1.556,3.072-3.137,4.689-4.74
			c0.973-0.964,2.543-0.957,3.507,0.015c0.965,0.973,0.958,2.543-0.015,3.508c-1.593,1.58-3.133,3.138-4.621,4.672
			C636.226,118.852,635.58,119.104,634.932,119.104z M1142.934,113.612c-0.763,0-1.516-0.351-2.002-1.013
			c-1.293-1.763-2.602-3.511-3.927-5.244c-0.833-1.088-0.625-2.645,0.464-3.477c1.087-0.833,2.645-0.625,3.477,0.464
			c1.345,1.759,2.674,3.533,3.986,5.322c0.81,1.104,0.572,2.657-0.533,3.467C1143.957,113.456,1143.443,113.612,1142.934,113.612z
			 M644.332,109.783c-0.654,0-1.308-0.257-1.795-0.768c-0.946-0.991-0.909-2.562,0.082-3.507c1.576-1.504,3.198-3.023,4.866-4.556
			c1.01-0.925,2.579-0.859,3.505,0.149c0.926,1.009,0.859,2.578-0.149,3.505c-1.645,1.51-3.243,3.008-4.797,4.49
			C645.563,109.556,644.947,109.783,644.332,109.783z M1134.917,103.127c-0.729,0-1.452-0.32-1.941-0.935
			c-1.353-1.698-2.742-3.406-4.129-5.077c-0.875-1.054-0.73-2.618,0.324-3.493c1.055-0.876,2.618-0.729,3.493,0.324
			c1.408,1.696,2.819,3.43,4.192,5.155c0.854,1.071,0.677,2.632-0.395,3.485C1136.005,102.951,1135.459,103.127,1134.917,103.127z
			 M654.079,100.829c-0.686,0-1.369-0.283-1.859-0.837c-0.908-1.026-0.812-2.594,0.214-3.501c1.637-1.448,3.314-2.905,5.032-4.369
			c1.042-0.889,2.608-0.763,3.497,0.28c0.888,1.042,0.763,2.608-0.28,3.497c-1.694,1.443-3.348,2.88-4.962,4.308
			C655.249,100.624,654.663,100.829,654.079,100.829z M1126.494,92.984c-0.695,0-1.386-0.291-1.877-0.857
			c-1.423-1.645-2.885-3.3-4.346-4.92c-0.917-1.017-0.837-2.585,0.181-3.503c1.017-0.918,2.584-0.836,3.503,0.18
			c1.484,1.645,2.969,3.326,4.414,4.997c0.896,1.036,0.783,2.603-0.252,3.499C1127.647,92.785,1127.069,92.984,1126.494,92.984z
			 M664.151,92.246c-0.717,0-1.428-0.309-1.918-0.907c-0.869-1.059-0.715-2.622,0.343-3.491c1.693-1.39,3.422-2.784,5.189-4.18
			c1.073-0.848,2.633-0.667,3.484,0.409c0.849,1.075,0.667,2.635-0.409,3.484c-1.742,1.376-3.447,2.751-5.117,4.122
			C665.262,92.061,664.705,92.246,664.151,92.246z M674.532,84.04c-0.748,0-1.487-0.337-1.976-0.978
			c-0.83-1.09-0.619-2.646,0.471-3.476c1.745-1.329,3.523-2.658,5.335-3.986c1.104-0.81,2.656-0.572,3.467,0.533
			c0.81,1.104,0.571,2.657-0.533,3.467c-1.788,1.311-3.542,2.623-5.264,3.934C675.583,83.875,675.055,84.04,674.532,84.04z
			 M1117.63,83.161c-0.66,0-1.319-0.262-1.807-0.781c-1.496-1.589-3.026-3.181-4.548-4.731c-0.96-0.978-0.946-2.548,0.032-3.508
			c0.977-0.958,2.546-0.946,3.508,0.032c1.547,1.575,3.102,3.193,4.621,4.808c0.939,0.997,0.891,2.567-0.106,3.506
			C1118.851,82.938,1118.24,83.161,1117.63,83.161z M685.202,76.217c-0.779,0-1.545-0.366-2.028-1.05
			c-0.79-1.119-0.523-2.667,0.596-3.457c1.794-1.267,3.62-2.531,5.476-3.791c1.134-0.771,2.676-0.474,3.445,0.659
			c0.77,1.134,0.474,2.676-0.659,3.445c-1.831,1.243-3.632,2.49-5.402,3.739C686.195,76.069,685.696,76.217,685.202,76.217z
			 M1108.357,73.723c-0.625,0-1.249-0.234-1.731-0.705c-1.559-1.52-3.156-3.043-4.748-4.527c-1.001-0.935-1.056-2.504-0.122-3.506
			c0.935-1.002,2.504-1.057,3.506-0.122c1.618,1.509,3.242,3.058,4.827,4.604c0.981,0.957,1.001,2.527,0.044,3.507
			C1109.647,73.472,1109.002,73.723,1108.357,73.723z M696.146,68.784c-0.81,0-1.603-0.396-2.079-1.124
			c-0.749-1.146-0.427-2.684,0.72-3.433c1.84-1.202,3.709-2.399,5.607-3.592c1.162-0.729,2.692-0.378,3.42,0.781
			c0.729,1.16,0.379,2.691-0.781,3.42c-1.873,1.176-3.717,2.357-5.533,3.544C697.082,68.654,696.612,68.784,696.146,68.784z
			 M1098.681,64.7c-0.587,0-1.176-0.207-1.649-0.628c-1.64-1.461-3.305-2.91-4.947-4.306c-1.043-0.887-1.17-2.453-0.283-3.496
			c0.886-1.044,2.452-1.172,3.497-0.283c1.67,1.42,3.364,2.895,5.033,4.381c1.023,0.911,1.113,2.479,0.202,3.502
			C1100.043,64.419,1099.364,64.7,1098.681,64.7z M707.35,61.749c-0.841,0-1.66-0.427-2.126-1.199
			c-0.708-1.173-0.331-2.697,0.842-3.405c1.883-1.136,3.794-2.266,5.73-3.389c1.186-0.688,2.704-0.282,3.39,0.902
			c0.687,1.185,0.283,2.703-0.902,3.39c-1.911,1.108-3.797,2.223-5.656,3.344C708.228,61.634,707.786,61.749,707.35,61.749z
			 M1088.601,56.131c-0.549,0-1.101-0.181-1.56-0.553c-1.692-1.371-3.422-2.739-5.143-4.066c-1.085-0.837-1.286-2.395-0.45-3.479
			c0.836-1.085,2.395-1.286,3.479-0.45c1.752,1.352,3.514,2.745,5.236,4.141c1.064,0.862,1.228,2.424,0.365,3.488
			C1090.04,55.817,1089.323,56.131,1088.601,56.131z M718.794,55.117c-0.872,0-1.717-0.46-2.17-1.276
			c-0.666-1.197-0.234-2.708,0.963-3.373c1.923-1.069,3.872-2.131,5.847-3.184c1.208-0.646,2.711-0.189,3.355,1.021
			c0.645,1.208,0.188,2.711-1.021,3.355c-1.949,1.039-3.872,2.087-5.771,3.143C719.616,55.016,719.202,55.117,718.794,55.117z
			 M730.466,48.895c-0.902,0-1.772-0.494-2.211-1.353c-0.623-1.22-0.139-2.714,1.081-3.337c1.961-1.001,3.946-1.994,5.955-2.976
			c1.231-0.604,2.716-0.092,3.318,1.139c0.602,1.23,0.091,2.716-1.139,3.318c-1.982,0.969-3.942,1.948-5.877,2.937
			C731.231,48.807,730.846,48.895,730.466,48.895z M1078.123,48.055c-0.508,0-1.021-0.156-1.463-0.479
			c-1.765-1.292-3.56-2.57-5.335-3.801c-1.126-0.781-1.406-2.326-0.625-3.452c0.781-1.126,2.327-1.406,3.452-0.625
			c1.81,1.255,3.64,2.559,5.439,3.875c1.105,0.809,1.346,2.361,0.537,3.466C1079.64,47.703,1078.887,48.055,1078.123,48.055z
			 M742.349,43.086c-0.934,0-1.827-0.529-2.249-1.431c-0.58-1.241-0.044-2.717,1.197-3.297c1.995-0.932,4.013-1.854,6.055-2.766
			c1.248-0.558,2.718,0.003,3.276,1.254c0.558,1.251-0.003,2.717-1.254,3.276c-2.015,0.899-4.007,1.81-5.977,2.729
			C743.058,43.011,742.7,43.086,742.349,43.086z M1067.25,40.519c-0.466,0-0.937-0.131-1.356-0.405
			c-1.83-1.197-3.688-2.379-5.526-3.512c-1.166-0.719-1.528-2.248-0.809-3.414c0.72-1.166,2.249-1.527,3.414-0.809
			c1.875,1.157,3.772,2.363,5.638,3.584c1.146,0.75,1.467,2.288,0.717,3.434C1068.851,40.124,1068.058,40.519,1067.25,40.519z
			 M754.426,37.695c-0.964,0-1.881-0.566-2.283-1.509c-0.537-1.26,0.05-2.717,1.311-3.254c2.026-0.863,4.075-1.714,6.146-2.555
			c1.269-0.516,2.716,0.097,3.231,1.366s-0.096,2.716-1.366,3.231c-2.044,0.83-4.066,1.67-6.067,2.522
			C755.08,37.631,754.75,37.695,754.426,37.695z M1055.99,33.578c-0.421,0-0.849-0.108-1.24-0.334
			c-1.885-1.091-3.806-2.166-5.709-3.194c-1.205-0.651-1.654-2.156-1.002-3.362c0.652-1.206,2.157-1.652,3.361-1.002
			c1.946,1.052,3.909,2.15,5.835,3.265c1.186,0.687,1.591,2.204,0.905,3.389C1057.679,33.133,1056.846,33.578,1055.99,33.578z
			 M766.681,32.724c-0.996,0-1.935-0.604-2.314-1.588c-0.493-1.278,0.143-2.714,1.421-3.207c2.056-0.793,4.131-1.574,6.229-2.343
			c1.285-0.473,2.711,0.188,3.183,1.475s-0.188,2.711-1.475,3.183c-2.071,0.759-4.121,1.53-6.15,2.313
			C767.28,32.67,766.978,32.724,766.681,32.724z M779.099,28.174c-1.027,0-1.987-0.643-2.343-1.667
			c-0.449-1.294,0.235-2.707,1.53-3.157c2.081-0.723,4.183-1.433,6.304-2.13c1.299-0.428,2.703,0.28,3.131,1.582
			c0.428,1.301-0.281,2.703-1.582,3.131c-2.095,0.688-4.17,1.39-6.226,2.104C779.644,28.129,779.369,28.174,779.099,28.174z
			 M1044.354,27.29c-0.374,0-0.754-0.085-1.111-0.265c-1.953-0.981-3.934-1.938-5.886-2.844c-1.243-0.577-1.782-2.052-1.205-3.294
			c0.577-1.242,2.053-1.783,3.294-1.205c1.999,0.927,4.025,1.907,6.023,2.91c1.224,0.615,1.718,2.106,1.103,3.33
			C1046.137,26.789,1045.262,27.29,1044.354,27.29z M791.662,24.044c-1.058,0-2.038-0.682-2.368-1.746
			c-0.406-1.308,0.326-2.698,1.634-3.104c2.104-0.653,4.228-1.292,6.371-1.919c1.314-0.386,2.692,0.37,3.077,1.685
			c0.384,1.315-0.37,2.692-1.685,3.077c-2.117,0.619-4.214,1.25-6.293,1.896C792.153,24.008,791.906,24.044,791.662,24.044z
			 M1032.359,21.724c-0.324,0-0.654-0.064-0.971-0.199c-2.001-0.852-4.037-1.679-6.05-2.459c-1.277-0.495-1.912-1.931-1.417-3.208
			c0.494-1.277,1.932-1.914,3.208-1.417c2.064,0.799,4.151,1.647,6.203,2.521c1.26,0.537,1.847,1.993,1.311,3.254
			C1034.24,21.158,1033.323,21.724,1032.359,21.724z M804.355,20.334c-1.089,0-2.088-0.723-2.391-1.824
			c-0.362-1.321,0.415-2.686,1.736-3.049c2.125-0.583,4.268-1.153,6.429-1.708c1.325-0.34,2.679,0.458,3.02,1.785
			c0.341,1.327-0.458,2.679-1.785,3.02c-2.135,0.549-4.252,1.112-6.352,1.688C804.794,20.306,804.573,20.334,804.355,20.334z
			 M817.163,17.041c-1.121,0-2.137-0.765-2.41-1.902c-0.32-1.332,0.5-2.671,1.833-2.991c2.143-0.514,4.303-1.015,6.481-1.5
			c1.336-0.3,2.663,0.544,2.961,1.881s-0.544,2.663-1.881,2.961c-2.151,0.48-4.286,0.975-6.403,1.482
			C817.549,17.019,817.354,17.041,817.163,17.041z M1020.026,16.953c-0.271,0-0.545-0.044-0.815-0.138
			c-2.058-0.716-4.144-1.401-6.199-2.036c-1.309-0.404-2.042-1.793-1.638-3.102c0.404-1.309,1.791-2.043,3.102-1.638
			c2.111,0.652,4.253,1.355,6.365,2.09c1.294,0.45,1.978,1.864,1.528,3.158C1022.013,16.311,1021.053,16.953,1020.026,16.953z
			 M830.069,14.159c-1.152,0-2.184-0.807-2.427-1.979c-0.277-1.341,0.585-2.654,1.927-2.931c2.157-0.446,4.332-0.877,6.523-1.295
			c1.342-0.255,2.645,0.626,2.901,1.972c0.256,1.346-0.626,2.645-1.972,2.901c-2.166,0.413-4.315,0.839-6.448,1.28
			C830.404,14.142,830.235,14.159,830.069,14.159z M1007.394,13.055c-0.213,0-0.429-0.028-0.645-0.085
			c-2.107-0.566-4.235-1.095-6.326-1.573c-1.335-0.305-2.17-1.635-1.865-2.971c0.306-1.335,1.635-2.17,2.97-1.865
			c2.151,0.491,4.34,1.036,6.508,1.618c1.323,0.355,2.107,1.716,1.752,3.039C1009.49,12.325,1008.488,13.055,1007.394,13.055z
			 M843.059,11.685c-1.183,0-2.23-0.85-2.44-2.055c-0.235-1.35,0.667-2.634,2.017-2.87c2.17-0.379,4.357-0.743,6.559-1.093
			c1.352-0.214,2.624,0.708,2.839,2.06c0.215,1.353-0.708,2.624-2.06,2.839c-2.177,0.346-4.339,0.707-6.485,1.081
			C843.344,11.672,843.2,11.685,843.059,11.685z M994.507,10.113c-0.152,0-0.306-0.014-0.46-0.043
			c-2.142-0.401-4.302-0.762-6.422-1.072c-1.355-0.198-2.294-1.457-2.096-2.813c0.197-1.356,1.461-2.296,2.813-2.096
			c2.185,0.319,4.412,0.69,6.619,1.104c1.346,0.252,2.233,1.548,1.981,2.895C996.718,9.281,995.677,10.113,994.507,10.113z
			 M856.119,9.61c-1.214,0-2.274-0.892-2.452-2.128c-0.195-1.356,0.747-2.613,2.103-2.807c2.181-0.313,4.377-0.611,6.589-0.895
			c1.353-0.175,2.601,0.787,2.775,2.146c0.174,1.358-0.787,2.601-2.145,2.775c-2.187,0.28-4.359,0.575-6.515,0.884
			C856.355,9.602,856.236,9.61,856.119,9.61z M981.427,8.201c-0.089,0-0.179-0.005-0.27-0.015c-2.194-0.238-4.377-0.462-6.55-0.672
			c-1.364-0.132-2.362-1.345-2.229-2.708c0.132-1.364,1.339-2.363,2.708-2.229c2.191,0.212,4.393,0.438,6.605,0.678
			c1.362,0.147,2.346,1.371,2.199,2.733C983.752,7.259,982.677,8.201,981.427,8.201z M869.235,7.929
			c-1.245,0-2.318-0.935-2.461-2.201c-0.154-1.361,0.825-2.59,2.186-2.744c2.189-0.248,4.393-0.481,6.612-0.7
			c1.371-0.133,2.577,0.862,2.711,2.225s-0.862,2.577-2.225,2.711c-2.194,0.216-4.375,0.447-6.54,0.692
			C869.423,7.924,869.329,7.929,869.235,7.929z M968.265,6.926c-0.071,0-0.142-0.003-0.213-0.009
			c-2.198-0.187-4.386-0.36-6.562-0.52c-1.366-0.1-2.393-1.289-2.292-2.655c0.1-1.367,1.297-2.4,2.655-2.292
			c2.196,0.161,4.403,0.336,6.621,0.525c1.365,0.116,2.377,1.317,2.261,2.682C970.623,5.95,969.539,6.926,968.265,6.926z
			 M882.396,6.633c-1.276,0-2.36-0.979-2.469-2.273c-0.114-1.365,0.899-2.564,2.264-2.679c2.195-0.184,4.405-0.354,6.627-0.509
			c1.379-0.098,2.552,0.935,2.647,2.301c0.095,1.367-0.936,2.552-2.302,2.647c-2.2,0.153-4.386,0.321-6.558,0.503
			C882.536,6.63,882.466,6.633,882.396,6.633z M955.076,5.959c-0.051,0-0.103-0.001-0.154-0.005
			c-2.203-0.134-4.393-0.255-6.572-0.362c-1.368-0.067-2.423-1.231-2.356-2.599c0.067-1.368,1.234-2.419,2.599-2.356
			c2.199,0.108,4.41,0.23,6.632,0.366c1.367,0.083,2.408,1.26,2.324,2.627C957.469,4.946,956.376,5.959,955.076,5.959z
			 M895.59,5.713c-1.307,0-2.401-1.021-2.475-2.342c-0.076-1.368,0.971-2.539,2.338-2.615c2.199-0.123,4.413-0.23,6.64-0.324
			c1.361-0.066,2.524,1.006,2.582,2.374c0.058,1.369-1.006,2.525-2.374,2.582c-2.205,0.092-4.395,0.199-6.571,0.321
			C895.683,5.711,895.636,5.713,895.59,5.713z M941.867,5.312c-0.031,0-0.062,0-0.093-0.002c-2.205-0.081-4.397-0.147-6.578-0.2
			c-1.37-0.033-2.453-1.17-2.42-2.539c0.033-1.369,1.15-2.459,2.539-2.42c2.202,0.053,4.415,0.12,6.641,0.202
			c1.369,0.05,2.438,1.201,2.387,2.57C944.295,4.261,943.194,5.312,941.867,5.312z M908.805,5.159c-1.337,0-2.44-1.065-2.478-2.41
			c-0.039-1.37,1.04-2.511,2.409-2.55c2.202-0.062,4.417-0.11,6.646-0.143c0.013,0,0.025,0,0.038,0c1.353,0,2.459,1.086,2.479,2.444
			c0.021,1.37-1.074,2.497-2.443,2.517c-2.206,0.033-4.398,0.08-6.578,0.142C908.853,5.159,908.829,5.159,908.805,5.159z
			 M928.644,4.993c-0.009,0-0.019,0-0.028,0c-1.917-0.021-3.826-0.032-5.725-0.032l-0.854,0c-0.001,0-0.003,0-0.004,0
			c-1.368,0-2.478-1.108-2.48-2.476c-0.002-1.37,1.106-2.482,2.476-2.485l0.862,0c1.917,0,3.845,0.011,5.781,0.033
			c1.37,0.015,2.468,1.138,2.452,2.508C931.108,3.901,930.001,4.993,928.644,4.993z"/>
	</g>
	<path fill="#A8D29F" d="M2628.078,1248.792c0,0-133.96,0.218-338.275,0.654c-3.049-1.309-4.683-2.069-4.683-2.069
		s23.088-126.337,142.891-153.455c119.801-27.119,121.217-142.89,196.038-165.98c61.535-18.95,116.534,6.1,153.891-0.326
		C2836.969,1114.399,2628.078,1248.792,2628.078,1248.792z"/>
	<g>
		<g>
			<path fill="#FFB27D" d="M849.856,788.22c0,0-1.522,1.633-4.354,4.684c-10.348,11.218-38.445,41.713-69.377,76.782
				c-7.296,8.277-14.811,16.882-22.325,25.482c-11.219,12.963-22.219,25.923-32.457,38.449l-0.107,0.106
				c-3.16,3.703-6.099,7.298-9.039,10.891c-6.101,7.517-11.764,14.704-16.991,21.458c-15.683,20.474-26.682,37.027-28.753,45.414
				c-12.523,52.387,11.871,199.852,18.189,235.899H342.444c10.347-74.93,24.723-180.789,26.575-196.908
				c2.832-25.377-85.714-134.287-87.238-213.793c-1.417-79.396,51.078-136.246,59.356-214.443
				c4.029-36.813-0.546-84.733-6.427-125.574c-3.049-21.673-6.643-41.06-9.475-55.764c-1.417-7.187,0.98-13.832,5.446-18.405
				c1.198-1.196,2.505-2.396,3.921-3.159c5.445-3.591,12.524-4.464,19.275-1.523c19.604,8.388,41.387,30.605,47.051,86.039
				c0,0,16.444,10.346,43.019,27.227c10.782,6.754,23.199,14.595,36.922,23.31c10.563,6.642,21.892,13.831,33.761,21.346
				c0.763,0.436,1.526,0.981,2.288,1.417c4.792,3.047,9.476,6.097,14.485,9.255h0.108c1.742,1.088,3.486,2.287,5.337,3.378
				c3.158,2.067,6.427,4.137,9.801,6.208c0.653,0.434,1.308,0.869,2.071,1.197c21.563,13.723,44.107,28.1,66.87,42.586h0.108
				c3.704,2.174,7.406,4.572,11.108,6.969c2.832,1.851,5.773,3.592,8.714,5.445c3.594,2.396,7.296,4.682,11,6.969h0.109
				c25.811,16.337,51.078,32.455,74.711,47.377c3.703,2.396,7.407,4.683,11,6.969c2.941,1.854,5.772,3.705,8.604,5.446
				c3.813,2.396,7.297,4.683,10.891,7.081h0.109c45.089,28.424,79.94,50.642,92.683,58.811
				C848.007,787.022,849.856,788.112,849.856,788.22z"/>
			<path fill="#FFC197" d="M352.146,477.521c0.518,9.251-5.869,17.358-15.033,18.744l-2.374,0.352
				c-3.105-21.577-6.647-41.026-9.48-55.735c-1.4-7.189-3.546-14.098-2.938-21.459c14.891-7.285,20.619,10.327,22.45,17.473
				C347.834,448.511,351.311,464.139,352.146,477.521z"/>
		</g>
		<path opacity="0.3" fill="#E2915A" d="M753.8,895.168c-11.219,12.963-22.219,25.923-32.457,38.449l-0.107,0.106
			c-3.16,3.703-6.099,7.298-9.039,10.891c-6.101,7.517-11.764,14.704-16.991,21.458c-15.683,20.474-26.682,37.027-28.753,45.414
			c-12.523,52.387,11.871,199.852,18.189,235.899H462.027c41.278-61.533,46.614-169.898,46.94-219.671
			c0.108-12.527,4.14-27.556,10.674-43.455c12.416-30.715,33.762-65.129,53.366-93.556c18.078-26.355,34.742-47.483,41.495-55.87
			c0,0,0,0,0-0.108c2.179-2.505,3.267-3.923,3.267-3.923l123.068-5.227h0.109l1.634,8.713l1.307,7.405l5.663,30.714L753.8,895.168z"
			/>
		<g>
			<g>
				<path fill="#D3671E" d="M840.638,951.043l-368.326,38.065c-11.548,1.193-21.973-7.278-23.167-18.826l-76.122-736.569
					c-1.193-11.548,7.278-21.973,18.826-23.166l368.326-38.066c11.549-1.193,21.973,7.278,23.166,18.827l76.123,736.568
					C860.657,939.424,852.186,949.849,840.638,951.043z"/>
				<path fill="#F99746" d="M880.411,946.933l-368.326,38.065c-11.548,1.193-21.973-7.279-23.166-18.827l-76.123-736.568
					c-1.193-11.549,7.278-21.973,18.826-23.166l368.327-38.066c11.547-1.193,21.972,7.278,23.166,18.827l76.123,736.568
					C900.431,935.314,891.959,945.739,880.411,946.933z"/>
				<g>
					<path opacity="0.4" fill="#D3671E" d="M683.543,214.38c-0.235-2.282-2.297-3.957-4.579-3.721l-106.662,11.023
						c-2.282,0.236-3.958,2.296-3.722,4.579c0.236,2.282,2.296,3.956,4.579,3.721l106.663-11.023
						C682.104,218.723,683.779,216.663,683.543,214.38z"/>
					<path opacity="0.4" fill="#D3671E" d="M553.358,223.641c-2.283,0.235-3.958,2.296-3.723,4.578
						c0.236,2.283,2.297,3.957,4.579,3.721c2.283-0.235,3.958-2.296,3.722-4.578C557.7,225.079,555.641,223.405,553.358,223.641z"/>
				</g>
				<circle opacity="0.4" fill="#D86713" cx="696.884" cy="922.422" r="26.908"/>
				
					<rect x="482.793" y="247.508" transform="matrix(0.9947 -0.1028 0.1028 0.9947 -54.5173 70.2465)" fill="#FBECDB" width="342.961" height="633.086"/>
				
					<rect x="511.561" y="805.668" transform="matrix(0.9947 -0.1028 0.1028 0.9947 -82.9799 74.6783)" fill="#FCE6D2" width="342.962" height="73.492"/>
				<g>
					<path fill="#F1A34F" d="M618.542,838.194l176.064-18.195c2.035-0.211,3.528-2.048,3.318-4.083
						c-0.211-2.035-2.049-3.528-4.083-3.317l-176.063,18.195c-2.036,0.21-3.529,2.048-3.319,4.083l0,0
						C614.67,836.912,616.507,838.405,618.542,838.194z"/>
					<path fill="#F1A34F" d="M799.6,832.129c-0.21-2.035-2.047-3.528-4.082-3.318l-176.064,18.195
						c-2.036,0.211-3.528,2.048-3.318,4.084c0.211,2.035,2.048,3.527,4.084,3.318l176.063-18.196
						C798.317,836.001,799.81,834.165,799.6,832.129z"/>
				</g>
				<path fill="#D3671E" d="M590.868,822.203c-0.218-2.509-0.871-4.794-1.851-6.972c-4.03-10.129-14.377-16.664-25.702-15.465
					c-11.327,1.196-20.148,9.691-22.11,20.365c-0.434,2.396-0.542,4.794-0.325,7.299c1.415,13.72,29.623,41.819,29.623,41.819
					S592.286,836.031,590.868,822.203z M567.018,836.25c-6.425,0.653-12.198-4.028-12.851-10.455
					c-0.218-2.613,0.326-5.118,1.523-7.188c1.852-3.158,5.118-5.337,8.932-5.772c3.92-0.436,7.515,1.088,9.909,3.811
					c1.636,1.744,2.723,4.031,3.051,6.645C578.235,829.823,573.553,835.598,567.018,836.25z"/>
				<g>
					
						<rect x="507.249" y="345.327" transform="matrix(-0.9947 0.1028 -0.1028 -0.9947 1252.9182 789.1376)" fill="#D3671E" width="197.75" height="163.056"/>
					
						<rect x="607.382" y="335.071" transform="matrix(-0.1028 -0.9947 0.9947 -0.1028 343.645 1146.5601)" fill="#F1A34F" width="163.057" height="166.457"/>
					<polygon opacity="0.4" fill="#D86713" points="775.828,449.708 780.079,490.84 614.504,507.952 597.742,345.759 					"/>
					<polygon fill="#F1A34F" points="512.019,476.971 543.188,473.75 539.535,465.263 541.633,458.711 510.464,461.933 					"/>
					<polygon fill="#F1A34F" points="505.267,411.645 536.437,408.424 532.784,399.937 534.882,393.385 503.713,396.607 					"/>
					<polygon opacity="0.4" fill="#D86713" points="769.077,384.381 737.907,387.602 739.747,378.547 736.354,372.565 
						767.523,369.343 					"/>
				</g>
			</g>
			<g>
				<g>
					<g>
						<path fill="#DDB997" d="M545.78,564.3c-0.98-0.654-2.07-1.196-3.268-1.741c-3.05-1.2-6.535-1.742-10.128-1.418
							c-8.495,0.873-15.356,6.863-17.754,14.596c-0.87,2.613-1.196,5.445-0.87,8.386c1.196,11.437,11.543,19.823,22.979,18.623
							c4.683-0.436,8.822-2.395,11.981-5.554c4.682-4.138,7.404-10.564,6.642-17.428C554.711,573.232,551.008,567.569,545.78,564.3z
							 M546.65,595.995c-2.723,2.394-6.206,3.92-10.128,4.356c-10.128,0.978-19.278-6.318-20.257-16.446
							c-0.218-2.287,0-4.576,0.653-6.751c1.852-7.189,7.95-12.854,15.793-13.613c3.048-0.33,5.988,0.105,8.603,1.306
							c1.307,0.436,2.505,1.087,3.594,1.85c4.356,2.941,7.517,7.735,8.06,13.396C553.622,586.3,551.117,592.182,546.65,595.995z"/>
					</g>
					<polygon fill="#D3671E" points="522.489,572.458 535.736,593.068 553.484,542.05 534.186,578.063 					"/>
				</g>
				<g>
					<g>
						<path fill="#DDB997" d="M563.315,656.547c-0.654-6.643-4.356-12.197-9.584-15.574c-0.982-0.654-2.178-1.195-3.27-1.744
							c-3.158-1.195-6.534-1.741-10.127-1.414c-11.436,1.199-19.822,11.545-18.624,22.981c1.197,11.436,11.436,19.822,22.979,18.623
							C556.126,678.33,564.513,667.983,563.315,656.547z M544.364,677.024c-10.129,1.088-19.168-6.318-20.257-16.445
							c-0.981-10.129,6.425-19.277,16.556-20.26c3.047-0.326,5.987,0.109,8.602,1.2c1.307,0.433,2.506,1.087,3.594,1.851
							c4.357,2.94,7.516,7.732,8.059,13.396C561.899,666.893,554.493,675.933,544.364,677.024z"/>
					</g>
					<polygon fill="#D3671E" points="530.414,649.147 543.662,669.756 561.411,618.739 542.111,654.75 					"/>
				</g>
				<g>
					<g>
						<path fill="#DDB997" d="M571.265,733.22c-1.197-11.545-11.543-19.929-22.979-18.731
							c-11.436,1.196-19.822,11.545-18.624,22.979c1.197,11.545,11.436,19.822,22.979,18.734
							C564.077,755.002,572.463,744.657,571.265,733.22z M552.314,753.698c-10.129,1.087-19.168-6.318-20.257-16.448
							c-0.981-10.129,6.316-19.275,16.446-20.257c10.128-1.09,19.276,6.318,20.257,16.446
							C569.85,743.567,562.444,752.606,552.314,753.698z"/>
					</g>
				</g>
				<g>
					<path fill="#DDB997" d="M782.838,552.999l-196.953,20.354c-1.994,0.207-3.796-1.257-4.001-3.252l-0.084-0.802
						c-0.206-1.995,1.258-3.795,3.253-4.002l196.952-20.354c1.995-0.206,3.796,1.258,4.003,3.252l0.082,0.802
						C786.296,550.993,784.832,552.792,782.838,552.999z"/>
					<path fill="#DDB997" d="M784.319,567.339l-196.952,20.355c-1.995,0.205-3.796-1.258-4.002-3.252l-0.083-0.803
						c-0.205-1.994,1.258-3.796,3.252-4.002l196.952-20.354c1.996-0.206,3.797,1.258,4.003,3.253l0.083,0.802
						C787.778,565.333,786.315,567.133,784.319,567.339z"/>
				</g>
				<g>
					<path fill="#DDB997" d="M790.776,629.817l-196.952,20.354c-1.995,0.206-3.796-1.258-4.002-3.253l-0.083-0.802
						c-0.207-1.994,1.257-3.796,3.253-4.002l196.952-20.354c1.994-0.205,3.795,1.258,4.001,3.252l0.084,0.803
						C794.234,627.809,792.771,629.611,790.776,629.817z"/>
					<path fill="#DDB997" d="M792.259,644.158l-196.953,20.354c-1.994,0.206-3.795-1.258-4.002-3.252l-0.082-0.802
						c-0.206-1.995,1.257-3.796,3.252-4.003l196.952-20.354c1.995-0.206,3.796,1.257,4.002,3.252l0.083,0.801
						C795.717,642.151,794.254,643.952,792.259,644.158z"/>
				</g>
				<g>
					<path fill="#DDB997" d="M798.716,706.633l-196.953,20.355c-1.994,0.206-3.795-1.258-4.001-3.252l-0.083-0.803
						c-0.207-1.994,1.257-3.795,3.252-4.001l196.952-20.355c1.995-0.206,3.796,1.257,4.003,3.253l0.082,0.802
						C802.174,704.627,800.71,706.428,798.716,706.633z"/>
					<path fill="#DDB997" d="M800.197,720.975L603.245,741.33c-1.995,0.206-3.796-1.257-4.002-3.253l-0.083-0.801
						c-0.206-1.995,1.258-3.796,3.252-4.002l196.952-20.355c1.996-0.205,3.796,1.258,4.003,3.252l0.083,0.803
						C803.656,718.968,802.192,720.769,800.197,720.975z"/>
				</g>
			</g>
		</g>
		<g>
			<path fill="#FFB27D" d="M833.635,289.628c0,0,53.46-47.502,88.526-20.543c35.066,26.96-78.89,113.796-78.89,113.796
				L833.635,289.628z"/>
			<path fill="#FFB27D" d="M895.485,484.588l-62.125,34.365c-18.009,9.963-40.896,3.379-50.858-14.631l-10.147-18.344
				c-9.962-18.01-3.378-40.896,14.632-50.858l62.124-34.365c18.01-9.963,40.896-3.379,50.859,14.631l10.146,18.343
				C920.079,451.74,913.495,474.625,895.485,484.588z"/>
			<path fill="#FFB27D" d="M906.242,588.675l-62.124,34.366c-18.01,9.963-40.896,3.379-50.859-14.631l-10.146-18.344
				c-9.962-18.01-3.378-40.896,14.631-50.858l62.125-34.365c18.01-9.963,40.896-3.379,50.858,14.631l10.146,18.344
				C930.836,555.828,924.252,578.713,906.242,588.675z"/>
			<path fill="#FFB27D" d="M916.709,689.951l-62.124,34.366c-18.01,9.962-40.896,3.378-50.859-14.631l-10.146-18.344
				c-9.963-18.01-3.379-40.896,14.631-50.858l62.125-34.366c18.009-9.962,40.896-3.378,50.858,14.632l10.146,18.343
				C941.303,657.102,934.719,679.989,916.709,689.951z"/>
			<path fill="#FFC197" d="M775.287,461.428c9.641-7.252,22.794-16.375,34.839-22.127c8.332-3.979,18.297-1.125,23.039,6.799
				l13.621,22.764c4.726,7.899,2.291,18.146-5.543,22.977c-9.622,5.934-23.148,13.676-36.991,19.659
				c-9.705,4.194-21.019,0.302-26.216-8.905l-8.27-14.655C764.697,478.955,767.044,467.629,775.287,461.428z"/>
			<path fill="#FFC197" d="M786.342,568.383c9.64-7.252,22.793-16.374,34.838-22.125c8.333-3.98,18.298-1.126,23.039,6.798
				l13.62,22.765c4.727,7.897,2.292,18.146-5.543,22.976c-9.621,5.933-23.147,13.676-36.991,19.658
				c-9.704,4.194-21.018,0.303-26.214-8.905l-8.27-14.655C775.751,585.911,778.098,574.584,786.342,568.383z"/>
			<path fill="#FFC197" d="M798.671,668.628c9.641-7.252,22.794-16.374,34.838-22.126c8.332-3.979,18.298-1.126,23.039,6.798
				l13.621,22.765c4.726,7.897,2.292,18.146-5.542,22.976c-9.622,5.933-23.148,13.676-36.991,19.659
				c-9.706,4.193-21.02,0.302-26.216-8.905l-8.27-14.655C788.08,686.155,790.427,674.83,798.671,668.628z"/>
		</g>
	</g>
	<g>
		<polygon fill="#CA5F00" points="1134.664,1000.733 1278.278,1023.333 1183.716,956.865 1178.559,977.663 1143.47,983.497 		"/>
		<polygon fill="#F1A34F" points="1278.278,1023.333 1159.41,959.864 1042.121,952.271 		"/>
		<polygon fill="#F1A34F" points="1183.716,956.865 1278.278,1023.333 1205.813,920.537 		"/>
	</g>
	<g>
		<polygon fill="#CA5F00" points="973.161,129.699 861.627,72.229 961.362,74.145 954.353,91.257 975.813,113.207 		"/>
		<polygon fill="#F1A34F" points="861.627,72.229 976.76,88.623 1062.311,143.124 		"/>
		<polygon fill="#F1A34F" points="961.362,74.145 861.627,72.229 964.492,37.582 		"/>
	</g>
</g>
</svg>
