<?xml version="1.0" encoding="utf-8"?>
<!-- Generator: Adobe Illustrator 16.0.0, SVG Export Plug-In . SVG Version: 6.00 Build 0)  -->
<!DOCTYPE svg PUBLIC "-//W3C//DTD SVG 1.1//EN" "http://www.w3.org/Graphics/SVG/1.1/DTD/svg11.dtd">
<svg version="1.1" id="Layer_1" xmlns="http://www.w3.org/2000/svg" xmlns:xlink="http://www.w3.org/1999/xlink" x="0px" y="0px"
	 width="2599.732px" height="1809.725px" viewBox="0 0 2599.732 1809.725" enable-background="new 0 0 2599.732 1809.725"
	 xml:space="preserve">
<g>
	<path fill="#F7CC7F" d="M1855.292,401.498c-38.546,151.685,53.498,306.45,205.184,344.996
		c151.685,38.547,306.449-53.498,344.996-205.183c38.547-151.685-53.499-306.45-205.184-344.996
		C2048.603,157.769,1893.838,249.813,1855.292,401.498z M1925.395,409.722L1925.395,409.722
		c34.067-113.21,153.459-177.369,266.67-143.303l0,0c113.21,34.067,177.369,153.459,143.302,266.669v0
		c-34.066,113.21-153.458,177.369-266.669,143.302l0,0C1955.487,642.324,1891.329,522.932,1925.395,409.722z"/>
	<path fill="#F7CC7F" d="M1658.613,401.938c1.337,6.778,7.472,9.146,22.612,15.151c27.084,10.743,54.182,21.49,80.864,33.169
		c4.199,1.838,8.398,8.382,8.917,13.151c3.086,28.354,4.458,56.9,7.83,85.212c1.045,8.774,0.19,13.439-7.694,18.393
		c-31.517,19.805-62.48,40.491-93.307,60.628c7.708,33.055,46.53,107.351,67.283,128.127c32.691-13.755,66.306-27.302,99.337-42.147
		c10.28-4.62,15.532-3.732,24.101,4.458c19.876,19,41.549,36.243,63.443,52.953c8.865,6.767,13.589,12.07,10.716,24.261
		c-7.447,31.599-12.976,63.645-19.89,95.377c-1.858,8.528-0.235,13.861,8.185,16.468c39.615,12.264,79.247,24.473,118.866,36.725
		c9.74,3.012,11.24-4.997,13.673-10.733c12.307-29.026,24.778-58.002,36.103-87.415c4.252-11.044,9.95-14.679,21.949-15.055
		c31.751-0.995,63.437-4.061,97.585-6.476c20.199,30.668,42.5,64.527,65.425,99.332c46.016-15.24,87.462-38.055,126.712-68.232
		c-15.545-37.348-31.094-74.708-44.797-107.633c23.508-29.778,45.891-56.876,66.626-85.183c6.002-8.193,10.705-9.541,19.713-7.562
		c31.259,6.866,62.731,12.757,94.04,19.408c6.77,1.438,11.734,1.7,15.201-5.695c17.519-37.366,31.654-75.703,37.36-116.907
		c1.271-9.186-2.025-12.811-9.592-15.936c-30.457-12.58-60.674-25.743-91.181-38.196c-7.391-3.018-10.484-6.152-11.156-15.167
		c-2.327-31.271-6.007-62.479-10.477-93.523c-1.142-7.931,1.378-11.015,6.959-14.69c31.099-20.483,62.046-41.195,93.842-62.357
		c-16.133-45.292-36.708-87.333-66.181-125.989c-38.097,15.855-75.948,31.608-112.169,46.683
		c-30.521-25.315-60.071-49.827-91.691-76.054c5.602-27.955,12.289-60.115,18.435-92.378c5.043-26.479,8.838-22.997-17.763-34.162
		c-2.538-1.065-4.69-3.051-7.021-4.61c-23.794-7.16-47.587-14.319-71.379-21.479c-5.563-0.63-11.396-0.4-16.633-2.059
		c-13.621-4.316-21.29-1.22-26.718,13.369c-11.309,30.398-24.528,60.104-37.676,89.778c-1.723,3.887-7.378,7.94-11.646,8.48
		c-27.842,3.523-56.065,4.641-83.614,9.604c-13.479,2.429-19.15-1.255-25.801-11.764c-18.864-29.805-38.954-58.833-60.531-91.114
		c-42.679,22.409-84.312,44.269-126.414,66.375c3.309,8.39,5.133,13.249,7.127,18.039c12.299,29.537,24.331,59.191,37.155,88.499
		c3.642,8.322,1.786,13-3.911,19.771c-19.577,23.265-37.656,47.786-57.079,71.187c-3.012,3.629-10.456,6.179-15.178,5.358
		c-25.856-4.492-51.461-10.413-77.233-15.421c-20.853-4.052-28.61-5.483-35.214,1.325L1658.613,401.938z M1845.544,399.021
		c19.335-76.083,67.14-140.083,134.61-180.209c67.469-40.127,146.527-51.579,222.609-32.244
		c76.083,19.334,140.083,67.14,180.211,134.61c40.127,67.47,51.578,146.528,32.243,222.611
		c-19.334,76.083-67.14,140.082-134.609,180.209c-67.471,40.126-146.528,51.578-222.611,32.244
		c-76.082-19.334-140.082-67.14-180.209-134.61C1837.661,554.162,1826.21,475.104,1845.544,399.021z"/>
</g>
<path fill="#50BFA5" d="M55.025,794.711c4.375,3.413,9.344,1.626,21.696-2.687c22.094-7.715,44.198-15.434,66.54-22.369
	c3.517-1.091,9.507,0.675,12.329,3.298c16.779,15.596,32.619,32.208,49.55,47.628c5.248,4.779,7.181,8.06,4.998,15.213
	c-8.727,28.594-16.654,57.433-24.787,85.867c22.058,16.019,84.689,40.725,108.212,42.431c12.621-25.538,25.91-51.435,38.163-77.813
	c3.814-8.21,7.47-10.432,16.978-9.963c22.058,1.089,44.283,0.166,66.362-1.197c8.941-0.552,14.597,0.186,19.261,9.099
	c12.089,23.103,25.579,45.468,38.062,68.371c3.354,6.156,7.144,8.542,13.627,5.698c30.502-13.379,60.986-26.8,91.485-40.188
	c7.498-3.291,4.199-8.943,2.66-13.706c-7.786-24.095-15.445-48.246-24.031-72.06c-3.224-8.941-1.674-14.145,5.414-20.68
	c18.757-17.296,36.386-35.814,55.852-55.232c28.387,8.004,59.729,16.84,91.946,25.923c19.931-33.444,33.104-69.086,41.074-108.044
	c-29.073-14.507-58.155-29.019-83.785-41.808c-1.379-30.44-2.033-58.662-4.322-86.75c-0.663-8.13,1.485-11.421,7.995-14.955
	c22.591-12.264,44.799-25.231,67.307-37.651c4.866-2.685,8.019-5.136,6.237-11.449c-9.006-31.899-20.576-62.61-38.772-90.629
	c-4.057-6.246-7.964-6.715-14.202-4.634c-25.107,8.372-50.375,16.264-75.447,24.739c-6.074,2.053-9.601,1.776-14.747-3.346
	c-17.852-17.765-36.492-34.781-55.526-51.282c-4.863-4.215-4.954-7.413-3.497-12.579c8.116-28.786,16.02-57.632,24.202-87.197
	c-33.606-19.022-68.2-33.734-106.419-41.713c-14.798,29.655-29.501,59.119-43.571,87.313c-31.841,0.672-62.67,1.323-95.659,2.02
	c-11.294-19.92-24.139-42.964-37.368-65.785c-10.858-18.73-6.723-18.611-28.745-11.406c-2.101,0.688-4.452,0.613-6.687,0.892
	c-18.211,8.161-36.423,16.321-54.634,24.481c-3.709,2.541-7.13,5.748-11.182,7.493c-10.541,4.54-13.57,10.452-9.196,22.164
	c9.113,24.404,16.702,49.392,24.318,74.322c0.998,3.266-0.306,8.7-2.614,11.271c-15.055,16.775-31.605,32.292-45.724,49.788
	c-6.908,8.561-12.289,9.305-21.851,6.42c-27.124-8.182-54.583-15.247-84.654-23.506C27.733,436.554,13.944,471.714,0,507.271
	c6.419,3.356,10.082,5.347,13.81,7.207c22.996,11.47,45.891,23.152,69.085,34.207c6.586,3.139,7.918,6.955,8.018,14.061
	c0.343,24.418,2.255,48.813,2.763,73.233c0.079,3.787-3.101,9.249-6.4,11.233c-18.063,10.865-36.722,20.729-55.005,31.237
	c-14.792,8.501-20.255,11.71-20.686,19.316L55.025,794.711z M167.002,694.67c-28.256-56.363-32.872-120.357-12.997-180.192
	c19.875-59.835,61.861-108.349,118.225-136.605c56.363-28.256,120.357-32.872,180.192-12.997s108.349,61.862,136.605,118.225
	s32.872,120.357,12.997,180.192c-19.875,59.835-61.862,108.349-118.226,136.605c-56.363,28.256-120.357,32.872-180.191,12.997
	C243.771,793.021,195.258,751.034,167.002,694.67z"/>
<path fill="#F7CC7F" d="M328.342,148.288l8.978-16.482l-8.448-16.761c-0.962-1.909,0.676-4.096,2.772-3.701l18.404,3.47
	l13.284-13.237c1.513-1.508,4.093-0.621,4.366,1.5l2.396,18.626l16.658,8.58c1.897,0.977,1.854,3.712-0.074,4.628l-16.923,8.041
	l-2.989,18.54c-0.34,2.112-2.947,2.916-4.412,1.36L349.5,149.197l-18.506,2.878C328.887,152.403,327.319,150.165,328.342,148.288z"
	/>
<path fill="#07345A" d="M1308.043,226.396l7.666-12.451l-6.156-2.496c-1.348-0.546-1.996-2.082-1.45-3.428l0,0
	c0.547-1.347,2.081-1.997,3.429-1.45l7.099,2.879l6.854-11.182l-6.575-2.666c-1.347-0.546-1.996-2.081-1.45-3.428l0,0
	c0.547-1.347,2.082-1.996,3.429-1.45l7.519,3.049l7.959-12.805c0.677-1.087,2.038-1.531,3.225-1.05l1.148,0.466
	c1.506,0.611,2.104,2.428,1.255,3.814l-7.402,12.082l10.9,4.42l7.959-12.804c0.677-1.088,2.038-1.531,3.225-1.05l1.253,0.508
	c1.507,0.611,2.104,2.428,1.256,3.814l-7.403,12.082l6.156,2.497c1.347,0.546,1.996,2.081,1.449,3.428l0,0
	c-0.546,1.347-2.08,1.997-3.428,1.45l-7.1-2.879l-6.748,11.224l6.575,2.667c1.347,0.546,1.996,2.081,1.45,3.428l0,0
	c-0.547,1.347-2.082,1.997-3.429,1.45l-7.519-3.049l-8.13,13.205c-0.674,1.095-2.039,1.542-3.23,1.06l-1.342-0.544
	c-1.509-0.612-2.106-2.433-1.253-3.819l7.666-12.451l-10.9-4.42l-8.131,13.205c-0.674,1.094-2.039,1.542-3.229,1.059l-1.343-0.544
	C1307.787,229.603,1307.19,227.781,1308.043,226.396z M1335.821,216.42l6.854-11.181l-10.901-4.421l-6.853,11.181L1335.821,216.42z"
	/>
<path fill="#F47458" d="M1258.854,443.154l-10.379,55.161c0.869,2.8,3.564,3.523,10.224,5.375
	c11.913,3.313,23.831,6.628,35.615,10.355c1.855,0.586,3.922,3.159,4.355,5.148c2.578,11.825,4.442,23.809,7.141,35.604
	c0.836,3.656,0.686,5.663-2.418,8.108c-12.408,9.776-24.542,19.899-36.643,29.785c4.741,13.601,24.468,43.203,34.161,51.035
	c13.175-7.276,26.749-14.506,40.018-22.257c4.13-2.413,6.387-2.274,10.371,0.795c9.242,7.123,19.164,13.422,29.154,19.488
	c4.046,2.456,6.278,4.481,5.614,9.754c-1.719,13.669-2.608,27.44-4.098,41.142c-0.4,3.682,0.524,5.86,4.195,6.581
	c17.269,3.391,34.541,6.758,51.811,10.144c4.246,0.833,4.519-2.614,5.286-5.145c3.886-12.802,7.844-25.59,11.298-38.511
	c1.297-4.852,3.538-6.643,8.584-7.341c13.353-1.85,26.585-4.57,40.886-7.126c9.904,12.031,20.839,25.314,32.079,38.968
	c18.731-8.502,35.192-19.996,50.396-34.497c-8.24-15.06-16.484-30.124-23.749-43.4c8.579-13.624,16.804-26.066,24.278-38.944
	c2.163-3.728,4.088-4.508,7.978-4.079c13.499,1.49,27.045,2.559,40.556,3.955c2.921,0.302,5.027,0.189,6.157-3.088
	c5.71-16.556,9.948-33.37,10.501-51.013c0.123-3.933-1.432-5.314-4.766-6.292c-13.418-3.937-26.761-8.13-40.194-12.012
	c-3.255-0.94-4.701-2.124-5.391-5.898c-2.39-13.09-5.348-26.093-8.632-38.991c-0.839-3.295,0.085-4.71,2.275-6.512
	c12.199-10.043,24.326-20.177,36.789-30.538c-8.847-18.385-19.422-35.198-33.599-50.183c-15.361,8.406-30.624,16.757-45.229,24.75
	c-14.019-9.308-27.591-18.32-42.114-27.963c1.104-12.048,2.479-25.92,3.618-39.81c0.936-11.401,2.694-10.102-9.033-13.615
	c-1.119-0.335-2.116-1.076-3.17-1.629c-10.362-1.95-20.725-3.9-31.087-5.849c-2.375-0.016-4.827,0.344-7.11-0.12
	c-5.942-1.208-9.039,0.444-10.672,6.844c-3.403,13.336-7.645,26.466-11.855,39.58c-0.553,1.718-2.756,3.683-4.533,4.103
	c-11.589,2.74-23.448,4.483-34.85,7.818c-5.578,1.632-8.137,0.333-11.416-3.802c-9.303-11.727-19.087-23.072-29.645-35.722
	c-17,11.378-33.584,22.477-50.354,33.701c1.773,3.391,2.762,5.359,3.819,7.291c6.52,11.91,12.932,23.881,19.663,35.67
	c1.911,3.348,1.339,5.405-0.761,8.519c-7.213,10.698-13.737,21.859-20.879,32.608c-1.107,1.667-4.134,3.078-6.163,2.944
	c-11.113-0.731-22.184-2.076-33.284-3.029C1264.672,440.239,1261.334,439.984,1258.854,443.154z M1361.398,489.586
	c9.277-49.305,56.768-81.753,106.072-72.476l0,0c49.305,9.277,81.753,56.767,72.476,106.071v0
	c-9.277,49.305-56.767,81.753-106.071,72.476l0,0C1384.57,586.381,1352.121,538.891,1361.398,489.586L1361.398,489.586z"/>
<polygon fill="#355389" points="898.204,140.776 930.862,144.717 916.925,119.361 "/>
<g>
	<path fill="#F47458" d="M1018.16,422.268c-1.021,11.034,8.466,21.122,18.99,22.963c10.899,1.907,20.613-5.196,24.362-15.238
		c7.396-19.81-14.278-35.435-26.033-23.448c-10.973,11.189-7.503,27.814,4.342,27.82c4.468,0.002,11.661-3.745,8.808-9.163
		c-0.639-1.214-2.439-1.126-3.101,0c-1.438,2.448-1.322,2.536-2.002,3.083c-1.067,0.857-2.548,1.144-3.88,1.121
		c-12.062-0.206-4.042-27.805,10.177-21.12c7.807,3.67,10.109,12.55,7.401,20.299c-2.609,7.462-9.606,13.243-17.702,12.724
		c-9.669-0.62-17.78-9.511-18.406-19.04C1020.99,420.347,1018.335,420.377,1018.16,422.268L1018.16,422.268z"/>
</g>
<g>
	<g>
		<path fill="#50BFA5" d="M1614.744,13.507l9.765,4.193c0,0,16.304-3.639,18.126-6.701c1.821-3.063,2.886-10.802,5.164-10.807
			c2.278-0.004,6.592,1.125,7.207,6.545c0.447,3.934-6.165,14.58-5.366,15.852c0.499,0.795,6.044,3.364,10.124,5.175
			c2.684,1.191,4.482,3.776,4.674,6.713l0.001,0.009c0.13,1.985-1.144,3.79-3.054,4.328l-2.973,0.837l0.686,3.032
			c0.509,2.258-0.894,4.504-3.142,5.03l-2.29,0.536l0.569,1.861c0.734,2.396-0.77,4.901-3.226,5.371l-1.993,0.382l0.039,0.523
			c0.162,2.176-1.361,4.116-3.509,4.469l-1.976,0.325l-26.006-11.172c-2.437-1.047-4.634-2.582-6.457-4.511l-8.498-5.446
			c-0.913-0.585-1.263-1.752-0.821-2.745l10.095-22.674C1612.371,13.535,1613.644,13.035,1614.744,13.507z"/>
	</g>
</g>
<path fill="#5184CE" d="M1340.268,478.801h-176.48c-18.062,0-32.705,14.642-32.705,32.704v57.822
	c0,18.063,14.643,32.705,32.704,32.705h176.48c18.062,0,32.704-14.642,32.704-32.705v-57.822
	C1372.972,493.443,1358.33,478.801,1340.268,478.801z"/>
<polygon fill="#466EB6" points="1106.475,1693.537 919.559,1779.691 919.559,1798.775 1585.232,1798.775 1585.232,1779.691 
	1396.627,1693.537 "/>
<rect x="1106.475" y="1324.26" fill="#466EB6" width="290.27" height="369.435"/>
<path fill="#466EB6" d="M2129.959,1440.154V607.086c0-39.582-32.088-71.67-71.671-71.67H443.046c-39.583,0-71.67,32.088-71.67,71.67
	v833.068H2129.959z"/>
<rect x="919.559" y="1779.691" opacity="0.3" fill="#184655" width="665.673" height="19.084"/>
<rect x="1106.475" y="1650.186" opacity="0.3" fill="#184655" width="290.152" height="43.352"/>
<path fill="#5184CE" d="M371.375,1440.154v133.496c0,27.768,18.354,50.278,40.996,50.278h1676.592
	c22.642,0,40.996-22.511,40.996-50.278v-133.496H371.375z"/>
<circle fill="#184655" cx="1253.441" cy="511.53" r="16.327"/>
<path fill="#CCE6FF" d="M2088.793,1403.977V609.311c0-20.831-17.494-37.717-39.076-37.717h-1598.1
	c-21.582,0-39.076,16.887-39.076,37.717v794.666H2088.793z"/>
<rect x="486.154" y="635.743" fill="#E9FFFF" width="1007.509" height="703.017"/>
<rect x="486.154" y="635.743" fill="#5184CE" width="1007.509" height="82.311"/>
<rect x="1852.209" y="811.629" opacity="0.6" fill="#9BC1F9" width="68.771" height="532.308"/>
<rect x="1756.167" y="973.995" opacity="0.6" fill="#9BC1F9" width="68.771" height="369.941"/>
<rect x="1949.634" y="926.958" opacity="0.6" fill="#9BC1F9" width="68.771" height="416.979"/>
<rect x="1660.125" y="910.56" opacity="0.6" fill="#9BC1F9" width="68.771" height="433.377"/>
<rect x="1564.083" y="1039.054" opacity="0.6" fill="#9BC1F9" width="68.771" height="304.883"/>
<g>
	<rect x="1852.209" y="934.311" opacity="0.3" fill="#9BC1F9" width="68.771" height="409.626"/>
	<rect x="1756.167" y="1059.256" opacity="0.3" fill="#9BC1F9" width="68.771" height="284.681"/>
	<rect x="1949.634" y="1023.06" opacity="0.3" fill="#9BC1F9" width="68.771" height="320.877"/>
	<rect x="1660.125" y="1010.44" opacity="0.3" fill="#9BC1F9" width="68.771" height="333.496"/>
	<rect x="1564.083" y="1109.32" opacity="0.3" fill="#9BC1F9" width="68.771" height="234.616"/>
</g>
<rect x="520.915" y="751.95" opacity="0.6" fill="#9BC1F9" width="929.931" height="119.357"/>
<rect x="852.308" y="905.205" opacity="0.6" fill="#9BC1F9" width="598.538" height="30.593"/>
<rect x="520.915" y="905.205" fill="#5184CE" width="294.446" height="353.042"/>
<rect x="852.308" y="969.694" opacity="0.6" fill="#9BC1F9" width="598.538" height="30.593"/>
<rect x="852.308" y="1163.163" opacity="0.6" fill="#9BC1F9" width="598.538" height="30.594"/>
<rect x="852.308" y="1227.653" opacity="0.6" fill="#9BC1F9" width="598.538" height="30.593"/>
<path fill="#F7CC7F" d="M100.569,1031.805l559.031-1.007c8.396-0.015,15.213,6.778,15.229,15.174l1.327,736.634
	c0.015,8.396-6.778,15.214-15.174,15.229l-559.031,1.008c-8.396,0.015-15.213-6.779-15.229-15.174l-1.327-736.634
	C85.38,1038.639,92.174,1031.82,100.569,1031.805z"/>
<rect x="116.735" y="1052.702" transform="matrix(-1 0.0018 -0.0018 -1 764.0878 2824.7153)" fill="#FFFFFF" width="528.073" height="720"/>
<path fill="#13375B" d="M494.55,1020.925c-0.006-3.238-2.636-5.858-5.874-5.854l-221.727,0.399
	c-3.238,0.006-5.859,2.637-5.853,5.875l0.042,23.045l233.454-0.42L494.55,1020.925z"/>
<path fill="#13375B" d="M377.762,987.252c-19.313,0.034-34.94,15.719-34.906,35.031s15.719,34.94,35.032,34.906
	c19.313-0.035,34.94-15.72,34.906-35.032C412.758,1002.845,397.074,987.217,377.762,987.252z M377.865,1044.646
	c-12.385,0.021-22.444-10-22.466-22.386c-0.022-12.386,10-22.444,22.385-22.467c12.386-0.022,22.444,10,22.466,22.386
	S390.25,1044.624,377.865,1044.646z"/>
<g>
	<path fill="#355389" d="M490.959,1015.528c2.106,0.887,3.586,2.968,3.591,5.396l0.042,23.046l-233.454,0.42
		c0.028,15.966,12.995,28.886,28.961,28.857l175.636-0.316c15.966-0.029,28.886-12.995,28.857-28.961l-0.042-23.046
		C494.545,1018.496,493.065,1016.415,490.959,1015.528z"/>
	<path fill="#9BC1F9" d="M266.949,1015.471L266.949,1015.471c-2.024,0.004-3.807,1.033-4.858,2.595
		C263.142,1016.504,264.925,1015.475,266.949,1015.471z"/>
	<path fill="#9BC1F9" d="M261.356,1019.602c0.114-0.368,0.262-0.72,0.442-1.053C261.618,1018.882,261.47,1019.233,261.356,1019.602z
		"/>
</g>
<g>
	<path fill="#184655" d="M583.604,1264.624l-75.069,0.136l-0.135-75.068l75.068-0.135L583.604,1264.624z M511.599,1261.686
		l68.932-0.124l-0.124-68.932l-68.932,0.124L511.599,1261.686z"/>
</g>
<g>
	<path fill="#184655" d="M583.83,1389.533l-75.068,0.136l-0.136-75.068l75.069-0.136L583.83,1389.533z M511.824,1386.595
		l68.932-0.124l-0.124-68.932l-68.933,0.124L511.824,1386.595z"/>
</g>
<g>
	<path fill="#184655" d="M584.054,1514.442l-75.068,0.136l-0.135-75.068l75.069-0.135L584.054,1514.442z M512.048,1511.504
		l68.933-0.124l-0.124-68.932l-68.933,0.124L512.048,1511.504z"/>
</g>
<g>
	<path fill="#184655" d="M584.279,1639.352l-75.068,0.136l-0.135-75.069l75.068-0.135L584.279,1639.352z M512.274,1636.413
		l68.932-0.124l-0.124-68.932l-68.932,0.124L512.274,1636.413z"/>
</g>
<rect x="155.692" y="1191.572" transform="matrix(-1 0.0018 -0.0018 -1 634.8143 2393.376)" fill="#9BC1F9" width="321.273" height="10.805"/>
<rect x="155.747" y="1222.169" transform="matrix(-1 0.0018 -0.0018 -1 634.9799 2454.5713)" fill="#9BC1F9" width="321.273" height="10.805"/>
<rect x="155.802" y="1252.767" transform="matrix(-1 0.0018 -0.0018 -1 635.1449 2515.7664)" fill="#9BC1F9" width="321.273" height="10.805"/>
<rect x="155.925" y="1320.747" transform="matrix(-1 0.0018 -0.0018 -1 635.5079 2651.7271)" fill="#9BC1F9" width="321.273" height="10.805"/>
<rect x="155.98" y="1351.345" transform="matrix(-1 0.0018 -0.0018 -1 635.6733 2712.9224)" fill="#9BC1F9" width="321.273" height="10.805"/>
<rect x="156.035" y="1381.942" transform="matrix(-1 0.0018 -0.0018 -1 635.8387 2774.1174)" fill="#9BC1F9" width="321.273" height="10.805"/>
<rect x="156.145" y="1443.138" transform="matrix(-1 0.0018 -0.0018 -1 636.1696 2896.5078)" fill="#9BC1F9" width="321.273" height="10.805"/>
<rect x="156.2" y="1473.735" transform="matrix(-1 0.0018 -0.0018 -1 636.335 2957.7026)" fill="#9BC1F9" width="321.273" height="10.805"/>
<rect x="156.255" y="1504.333" transform="matrix(-1 0.0018 -0.0018 -1 636.4999 3018.8979)" fill="#9BC1F9" width="321.273" height="10.805"/>
<rect x="156.365" y="1565.528" transform="matrix(-1 0.0018 -0.0018 -1 636.8303 3141.2883)" fill="#9BC1F9" width="321.273" height="10.805"/>
<rect x="156.421" y="1596.126" transform="matrix(-1 0.0018 -0.0018 -1 636.9962 3202.4834)" fill="#9BC1F9" width="321.273" height="10.805"/>
<rect x="156.476" y="1626.724" transform="matrix(-1 0.0018 -0.0018 -1 637.1611 3263.6787)" fill="#9BC1F9" width="321.273" height="10.805"/>
<rect x="156.619" y="1705.786" transform="matrix(-1 0.0018 -0.0018 -1 686.9568 3421.7578)" fill="#9BC1F9" width="370.636" height="10.805"/>
<rect x="156.665" y="1731.903" transform="matrix(-1 0.0018 -0.0018 -1 760.1887 3473.9243)" fill="#9BC1F9" width="443.728" height="10.804"/>
<g>
	<polygon fill="#F47458" points="545.699,1252.354 522.387,1212.357 530.729,1207.496 544.26,1230.711 566.35,1177.717 
		575.263,1181.432 	"/>
</g>
<g>
	<polygon fill="#F47458" points="545.927,1378.899 522.615,1338.903 530.957,1334.041 544.488,1357.256 566.578,1304.263 
		575.491,1307.978 	"/>
</g>
<g>
	<polygon fill="#F47458" points="546.373,1626.311 523.06,1586.314 531.402,1581.452 544.934,1604.668 567.024,1551.674 
		575.937,1555.389 	"/>
</g>
<polygon fill="#F47458" points="572.345,1458.04 565.623,1451.256 546.44,1470.265 527.19,1451.325 520.492,1458.133 
	539.656,1476.988 520.56,1495.912 527.283,1502.696 546.465,1483.688 565.715,1502.627 572.413,1495.819 553.249,1476.964 "/>
<path opacity="0.3" fill="#9BC1F9" d="M170.477,1531.645c-18.685,0.034-36.794,3.751-53.508,10.797l0.032,17.597
	c16.164-7.93,34.321-12.404,53.505-12.438c67.486-0.122,122.489,54.684,122.611,122.17c0.078,43.239-22.393,81.354-56.299,103.192
	l26.35-0.048c1.892-1.703,3.749-3.458,5.56-5.275c26.083-26.178,40.411-60.944,40.344-97.897
	c-0.066-36.954-14.52-71.669-40.697-97.752C242.197,1545.906,207.43,1531.578,170.477,1531.645z"/>
<path opacity="0.3" fill="#9BC1F9" d="M170.544,1569.151c-19.652,0.035-37.995,5.725-53.5,15.515l0.018,9.58
	c15.119-10.744,33.579-17.082,53.497-17.118c51.204-0.092,92.937,41.491,93.029,92.694c0.092,51.204-41.49,92.937-92.694,93.029
	c-19.917,0.036-38.4-6.236-53.558-16.925l0.018,9.58c15.54,9.734,33.903,15.357,53.555,15.322
	c55.603-0.101,100.757-45.418,100.657-101.021C271.465,1614.205,226.147,1569.051,170.544,1569.151z"/>
<g>
	<path fill="#184655" d="M267.969,1156.464v-35.969h-14.335v-3.147h33.188v3.147h-14.335v35.969H267.969z"/>
	<path fill="#184655" d="M323.447,1153.316v3.147h-28.77v-39.116h27.754v3.147h-23.27v13.7h16.846v3.146h-16.846v15.975H323.447z"/>
	<path fill="#184655" d="M328.029,1147.102l3.895-1.296c1.309,2.786,2.984,4.845,5.024,6.176c2.04,1.331,4.544,1.997,7.511,1.997
		c3.055,0,5.516-0.696,7.381-2.09c1.866-1.393,2.799-3.227,2.799-5.501c0-1.816-0.611-3.311-1.833-4.483
		c-1.223-1.172-3.295-2.243-6.219-3.213c-1.593-0.512-3.704-1.129-6.333-1.852s-4.315-1.261-5.057-1.613
		c-2.335-1.093-3.993-2.257-4.975-3.491c-0.982-1.233-1.473-2.76-1.473-4.575c0-3.244,1.232-5.796,3.699-7.657
		c2.465-1.859,5.858-2.79,10.179-2.79c3.84,0,7.009,0.763,9.508,2.288c2.498,1.525,4.402,3.866,5.711,7.021l-3.797,0.979
		c-1.201-2.433-2.745-4.231-4.631-5.396c-1.888-1.163-4.217-1.745-6.988-1.745c-2.684,0-4.86,0.626-6.53,1.878
		s-2.504,2.883-2.504,4.893c0,1.518,0.54,2.795,1.62,3.835c1.08,1.041,2.754,1.888,5.024,2.539c0.872,0.265,2.138,0.626,3.796,1.084
		c4.757,1.306,7.823,2.337,9.197,3.095c2.204,1.164,3.802,2.438,4.795,3.821c0.992,1.385,1.489,3.021,1.489,4.907
		c0,3.421-1.337,6.145-4.009,8.172c-2.673,2.027-6.29,3.042-10.851,3.042c-4.103,0-7.479-0.812-10.129-2.434
		C331.678,1153.07,329.578,1150.54,328.029,1147.102z"/>
	<path fill="#184655" d="M377.877,1156.464v-35.969h-14.335v-3.147h33.188v3.147h-14.335v35.969H377.877z"/>
	<path fill="#184655" d="M405.306,1156.464v-39.116h4.484v39.116H405.306z"/>
	<path fill="#184655" d="M427.824,1120.178v36.286h-4.353v-39.116h7.299l23.206,33.008v-33.008h4.353v39.116h-4.778
		L427.824,1120.178z"/>
	<path fill="#184655" d="M499.406,1152.073c-1.615,1.729-3.524,3.021-5.728,3.875c-2.205,0.855-4.768,1.283-7.692,1.283
		c-6.001,0-10.571-1.732-13.714-5.197c-3.142-3.465-4.713-8.485-4.713-15.062c0-6.507,1.604-11.527,4.811-15.063
		c3.208-3.535,7.746-5.303,13.616-5.303c4.342,0,7.812,0.935,10.408,2.804s4.517,4.813,5.761,8.833l-4.222,0.715
		c-1.047-3.156-2.548-5.484-4.5-6.982c-1.953-1.499-4.457-2.248-7.511-2.248c-4.365,0-7.736,1.459-10.114,4.376
		c-2.378,2.919-3.567,7.059-3.567,12.418c0,5.783,1.206,10.147,3.617,13.092c2.411,2.944,5.995,4.417,10.752,4.417
		c3.578,0,6.459-0.833,8.641-2.5c2.182-1.666,3.273-3.865,3.273-6.599v-4.179h-12.045v-2.936h16.889v18.646h-3.96V1152.073z"/>
</g>
<g>
	<g>
		<g>
			<path fill="#50BFA5" d="M1067.706,187.732l-10.188,39.743l31.19-17.518l93.161-34.354l-68.654-1.903
				c0,0-35.601,4.267-37.676,5.738C1073.464,180.909,1067.706,187.732,1067.706,187.732z"/>
			<polygon fill="#96D9C9" points="1040.551,159.75 1181.869,175.603 1067.706,187.732 			"/>
			<polygon fill="#96D9C9" points="1108.237,233.787 1074.794,199.646 1181.869,175.603 			"/>
		</g>
		<g>
			<g>
				<path fill="#9BC1F9" d="M853.556,309.356c0.811-3.163,1.814-6.336,2.982-9.431c1.075-2.849,2.316-5.7,3.687-8.472l3.002,1.484
					c-1.323,2.674-2.519,5.423-3.555,8.17c-1.125,2.981-2.091,6.036-2.872,9.082c-0.23,0.895-0.445,1.793-0.646,2.694l-3.269-0.73
					C853.098,311.202,853.324,310.261,853.556,309.356z M871.995,272.959c4.368-5.532,9.425-10.88,15.031-15.895l2.232,2.496
					c-5.462,4.887-10.386,10.093-14.635,15.474L871.995,272.959z M978.228,278.934c-0.179-0.145-0.355-0.292-0.53-0.442l2.176-2.544
					c0.153,0.13,0.307,0.259,0.437,0.366c0.001,0.001,0.088,0.057,0.322,0.146c1.751,0.661,6.513,1.228,9.373-0.045
					c2.404-1.069,4.458-2.905,6.108-5.456l2.812,1.818c-1.979,3.063-4.594,5.378-7.56,6.697c-3.966,1.765-9.718,0.948-11.916,0.119
					C978.931,279.396,978.53,279.18,978.228,278.934z M904.333,243.743c5.947-3.948,12.31-7.61,18.913-10.885l1.488,3
					c-6.478,3.212-12.718,6.803-18.547,10.674L904.333,243.743z M968.051,251.405c0.373-3.191,1.173-6.427,2.377-9.619
					c0.648-1.716,1.424-3.449,2.307-5.152l2.973,1.542c-0.822,1.587-1.545,3.199-2.146,4.793c-1.108,2.937-1.844,5.906-2.185,8.826
					c-0.243,2.073-0.272,4.189-0.088,6.289l-3.336,0.293C967.749,256.049,967.782,253.704,968.051,251.405z M986.048,236.381
					l-0.398-0.251l1.773-2.841l0.432,0.273c6.463,4.143,11.464,10.34,13.724,17.001l-3.171,1.075
					C996.388,245.684,991.883,240.123,986.048,236.381z M944.436,226.837c3.826-0.686,10.776-1.799,14.331-1.545
					c2.761,0.197,5.28,0.47,7.701,0.835l-0.499,3.311c-2.333-0.351-4.768-0.614-7.441-0.806c-2.331-0.167-7.252,0.38-13.501,1.5
					L944.436,226.837z M986.341,219.232c5.412-4.993,11.542-9.16,18.22-12.386l1.457,3.016c-6.381,3.083-12.237,7.063-17.406,11.832
					L986.341,219.232z"/>
			</g>
			<g>
				<path fill="#9BC1F9" d="M1026.11,203.626c3.612-0.544,7.224-0.788,10.735-0.725l0.06-3.348
					c-3.697-0.066-7.497,0.19-11.293,0.761L1026.11,203.626z"/>
			</g>
		</g>
	</g>
	<g>
		<path fill="#A34B3D" d="M776.963,253.448c2.016,0.083,7.541,1.933,15.62,17.201c10.317,19.499,25.396,78.4,25.396,78.4
			l-45.011,16.763l-5.783-12.294l-9.524-94.649C757.663,258.869,776.405,253.425,776.963,253.448z"/>
		<path fill="#B75742" d="M717.463,244.958c12.871,0.017,44.718,3.772,59.5,8.495c0,0,10.858,93.329-9.776,164.247
			c-4.619,15.875,3.82,65.808,3.82,65.808l-133.373-1.76c0,0,15.8-120.716,9.848-140.214c-5.952-19.498-6.094-87.453-6.094-87.453
			s0.914-0.143,29.966-5.164C684.904,246.574,703.722,244.94,717.463,244.958z"/>
		<path fill="#F7A491" d="M701.922,656.731c0,0,2.951,34.055,8.375,43.486c5.425,9.431-0.285,25.463-0.571,27.664
			c-0.286,2.2-11.421,5.344-29.124,3.458c-17.703-1.886-17.417-5.973-15.99-12.574c1.428-6.602,10.85-15.089,11.421-21.376
			c0.571-6.287-5.425-28.921-5.425-28.921L701.922,656.731z"/>
		<path fill="#E0973F" d="M755.959,455.4c0,0,92.067-5.112,112.626,7.339c20.559,12.451-14.606,73.56-14.606,73.56
			s-64.064-2.953-189.547,4.289c-29.715,1.715-32.276-77.479-26.719-84.032S755.959,455.4,755.959,455.4z"/>
		<path fill="#DD513A" d="M678.395,733.982c-18.229-1.942-15.975-10.898-14.505-17.696c0.92-4.256,6.15-9.274,9.267-14.02
			c1.63,1.298,4.28,3.59,12.196,5.928c8.221,2.428,19.49-2.377,26.67-5.387c2.56,9.525,2.676,21.672,2.437,23.515
			C714.167,728.587,696.624,735.924,678.395,733.982z"/>
		<path fill="#F7CC7F" d="M688.457,521.265c3.678,27.834,21.891,166.398,21.891,166.398l-42.258,5.239
			c0,0-51.966-180.859-49.301-208.522c2.665-27.664,22.117-29.991,22.117-29.991S678.721,447.583,688.457,521.265z"/>
		<path fill="#F7A491" d="M639.936,264.455c12.471-4.678,18.571,107.681,20.252,153.928c22.083,2.125,60.574,0.016,70.158-0.704
			c4.508-0.338,14.901-4.145,19.384-4.732c4.594-0.602,8.758-0.915,11.016-0.522c0.829,0.145,23.847,9.558,25.816,11.622
			c2.442,2.56,9.043,9.017,7.929,11.81c-1.114,2.792-12.697-7.781-12.697-7.781l-5.66-3.176c7.047,6.884,20.487,15.95,18.551,19.252
			c-1.888,3.22-14.012-5.981-22.654-12.252c7.412,6.695,16.62,18.674,14.499,20.542c-1.907,1.679-12.38-12.19-23.574-16.185
			c-4.148-1.48-8.283,2.619-11.545,3.114c-2.398,0.364-6.101,1.138-8.453,0.471l-12.12-3.437c-4.128,0.374-4.232,2.816-8.401,3.703
			c-4.84,1.03-12.781,2.115-18.945,3.621c-35.494,8.672-47.333,12.7-58.2,12.693C612.374,456.402,610.465,275.51,639.936,264.455z"
			/>
		<path fill="#A34B3D" d="M616.271,369.94c-2.335-47.372-1.994-105.76,24.561-115.722c10.478-3.931,28.949,19.704,25.627,116.684
			C652.283,372.073,631.47,373.015,616.271,369.94z"/>
		<path fill="#F7A491" d="M829.908,689.757c0,0-6.102,10.776-1.3,19.813s29.997,22.33,32.622,27.23
			c2.625,4.899,1.597,8.367,1.597,8.367l-74.816-18.341l5.733-22.553l6.997-15.585L829.908,689.757z"/>
		<path fill="#DD513A" d="M832.465,714.392c0,0-21.03,3.643-29.371-3.008c-8.34-6.651-7.781-7.873-10.857-6.73
			c-1.978,0.734-4.987,9.716-6.885,16.038c-1.01,3.365,1.013,6.89,4.424,7.733l77.905,19.252c5.919,1.138,9.834-2.556,5.852-7.304
			c-2.73-3.255-6.153-5.779-8.041-7.48C859.692,727.664,832.465,714.392,832.465,714.392z"/>
		<path fill="#F7CC7F" d="M822.576,477.223c5.951-12.524,19.487-28.831,43.303-19.01c22.715,9.367,28.812,32.388,21.645,55.962
			c-7.167,23.574-54.348,162.153-55.992,181.206l-37.671,0.25c0,0,6.846-109.729,8.525-136.252
			C804.002,533.858,812.275,498.899,822.576,477.223z"/>
		<path fill="#184655" d="M883.73,349.586H757.806c-3.332,0-6.333,2.02-7.597,5.113l-38.773,94.888h-69.422
			c-1.941,0-3.515,1.578-3.515,3.524l0,0c0,1.947,1.574,3.524,3.515,3.524h197.583c5.432,0,10.358-3.199,12.583-8.172l39.042-87.265
			C893.66,355.748,889.686,349.586,883.73,349.586z"/>
		<path fill="#FFFFFF" d="M815.933,404.84c-0.851,4.262-4.556,7.112-8.275,6.366c-3.72-0.747-6.046-4.807-5.195-9.069
			c0.851-4.262,4.556-7.112,8.275-6.366S816.783,400.578,815.933,404.84z"/>
		<g>
			<path fill="#0E2E35" d="M747.389,130.969c-3.795-1.278-7.532-2.721-11.14-4.461c-4.078-1.967-9.364-4.27-12.702-4.786
				c-7.028-1.084-19.101-0.361-25.768,6.871c-8.307,9.01-23.065,1.627-20.092,48.818c3.365,53.416,33.066,47.553,33.787,46.648
				c0.721-0.904,26.489-34.172,26.489-34.172s9.01,19.708,9.01,18.985C746.973,208.175,792.977,146.322,747.389,130.969z"/>
			<path fill="#F7A491" d="M724.842,228.006l2.564,19.086c0,0,5.743,27.498-1.646,32.799c-7.389,5.301-31.423-33.583-31.423-33.583
				l2.538-48.363L724.842,228.006z"/>
			<path fill="#F47458" d="M696.056,213.619c6.103,16.496,20.641,26.636,30.96,30.569l-2.174-16.182l-27.966-30.061L696.056,213.619
				z"/>
			<path fill="#F7A491" d="M723.324,145.315c15.658-2.528,29.701,10.064,29.31,25.738c-0.17,6.813-0.729,15.32-2.144,24.48
				c-3.405,22.033-18.437,41.434-28.376,39.702c-9.94-1.732-34.949-20.738-30.545-52.092
				C694.288,163.786,706.893,147.968,723.324,145.315z"/>
			<path fill="#F7A491" d="M698.466,186.886c-0.839,4.845-4.72,8.215-8.668,7.526c-3.948-0.688-6.47-5.174-5.631-10.019
				c0.839-4.845,4.72-8.215,8.668-7.526C696.783,177.555,699.304,182.041,698.466,186.886z"/>
			<path fill="#0E2E35" d="M692.834,176.867c0,0,12.018,2.986,16.478-4.744c4.46-7.73,20.407-24.409,40.679-17.494
				c20.272,6.916-17.839-16.815-19.461-16.815c-1.622,0-21.083-0.136-21.083-0.136s-15.001,12.34-15.542,13.696
				c-0.541,1.356-4.865,16.137-4.865,16.137L692.834,176.867z"/>
		</g>
		<path fill="#FFFFFF" d="M714.821,209.116l21.867,4.181c0,0-2.086,8.237-11.755,6.678
			C713.143,218.073,714.821,209.116,714.821,209.116z"/>
	</g>
</g>
<g>
	<path fill="#F7A491" d="M969.206,1714.696c0,0-4.001,27.919-10.887,36.928c-2.312,3.023-6.533,6.848-9.304,12.313
		c-4.313,8.506-1.929,21.171,1.253,28.146c1.633,3.58-0.115,3.569,3.604,4.724c11.013,3.416,22.729-2.338,27.418-12.945
		c2.619-5.925,4.917-13.829,5.379-23.789c1.176-25.349,9.015-38.237,9.015-38.237L969.206,1714.696z"/>
	<path fill="#F7A491" d="M1089.662,1727.466c0,0,2.471,31.48,0.466,41.712c-1.074,5.478-7.055,16.755-4.312,21.91
		c2.744,5.156,5.879,6.445,5.879,6.445l71.104,1.151c3.873,0.063,1.313-2.444-1.81-4.753c-5.112-3.78-9.236-6.279-25.565-14.223
		c-1.064-0.518-4.942-2.997-6.34-3.856c-3.545-2.177-7.105-5.604-10.171-9.036c-5.105-5.716-5.551-33.438-5.551-33.438
		L1089.662,1727.466z"/>
	<path fill="#E25A44" d="M1145.237,1309.012c0,0,8.954,51.112,3.075,84.621c-5.879,33.51-34.097,344.113-34.097,344.113
		l-31.357,1.779c0,0-6.573-129.746-5.397-147.789c1.176-18.044,10.481-48.239,10.481-48.239l-3.121-104.755l39.57-137.619
		L1145.237,1309.012z"/>
	<path fill="#F47458" d="M1053.075,1298.262c0,0-24.691,37.375-30.57,68.307s4.314,125.991-6.994,166.524
		c-6.122,21.942-29.324,55.827-32.852,84.182c-3.527,28.354-17.364,102.625-17.364,102.625l31.343,6.248l72.844-185.487
		l57.138-167.652l14.637-86.346L1053.075,1298.262z"/>
	<path fill="#F7CC7F" d="M983.425,1778.283c-17.082,3.132-28.448-6.917-34.362-14.44c-4.341,8.522-6.46,21.24-3.266,28.241
		c2.813,6.166,11.033,5.989,17.505,6.231c6.843,0.255,12.138-3.567,15.533-9.561C980.42,1785.956,982.056,1782.471,983.425,1778.283
		z"/>
	<path fill="#F7CC7F" d="M1129.076,1775.847c-18.805,4.853-32.706,1.554-40.481-1.6c-2.005,5.716-4.664,12.887-3.254,17.021
		c1.727,5.063,4.185,6.207,6.355,6.265c17.176,0.453,62.917,1.07,76.015,1.242c1.829,0.024,2.838-2.125,1.662-3.537
		C1166.125,1791.337,1130.477,1776.708,1129.076,1775.847z"/>
	<path fill="#F38B80" d="M1257.782,1220.723c1.309-2.786-12.504-6.577-12.949-9.578c-0.444-3.002,18.072-1.311,19.001-3.81
		c1.711-4.604-20.166-3.099-19.514-5.268c0.653-2.168,23.137-4.832,21.155-8.875c-1.98-4.042-23.025,5.194-23.359,2.557
		c-0.335-2.64,20.343-6.83,20.57-12.515c0.121-3.038-34.432,11.644-38.052,9.609s5.719-15.406,2.92-17.824
		c-2.8-2.418-14.926,25.546-17.115,26.362c-2.182,0.813-49.599,15.149-65.723,17.526c-1.361-5.46-13.484-35.5-14.65-40.649
		c-9.465,5.358-21.527-1.091-31.217,3.684c4.876,17.199,15.828,73.849,20.204,76.399c13.325,7.767,83.43-29.266,95.018-35.82
		c11.6-6.561,17.522-3.429,25.078-5.098C1246.706,1215.756,1256.473,1223.508,1257.782,1220.723z"/>
	<path fill="#0E2E35" d="M1133.036,1053.846c3.526-16.03,6.98-32.162-2.316-49.771c-7.523-14.252-20.528-22.451-35.581-24.237
		c-42.648-5.061-33.533,34.754-93.141,43.372c-18.522,2.679-35.729,5.253-51.193,14.465c-27.924,16.633-38.464,43.315-19.945,86.783
		c45.345,106.439,153.848,13.946,170.397-4.879C1117.68,1100.896,1130.766,1064.164,1133.036,1053.846z"/>
	<path fill="#F7CC7F" d="M1065.912,1104.442c0,0-21.535,2.444-34.416,16.456c-12.881,14.011,20.821,126.641,23.163,144.474
		c2.342,17.833-22.396,67.188-22.396,67.188s84.092,16.716,105.952,2.279c0,0,1.92-137.833-0.421-150.571
		c-2.342-12.738-21.86-64.541-26.544-69.637C1106.565,1109.537,1065.912,1104.442,1065.912,1104.442z"/>
	<path fill="#F7A491" d="M1076.751,1061.023c0,0-0.169,0.957-0.471,2.585c-1.452,7.813-7.042,33.728-10.819,40.853
		c-4.563,8.609,15.625,36.07,35.056,32.719c5.784-0.998-4.889-25.231-4.376-27.798c0.981-4.914,2.313-11.617,3.676-18.491
		c0.769-3.877,1.547-7.809,2.278-11.503c2.078-10.501,3.773-19.089,3.773-19.089L1076.751,1061.023z"/>
	<path opacity="0.5" fill="#F47458" d="M1076.28,1063.608c0.303-1.628,0.472-2.585,0.472-2.585l29.117-0.725
		c0,0-1.696,8.588-3.773,19.089c-0.728,3.674-1.501,7.582-2.266,11.438c-4.495-0.66-9.192-2.841-13.902-6.955
		c-5.134-4.486-8.5-9.876-10.53-15.631C1075.756,1066.403,1076.055,1064.82,1076.28,1063.608z"/>
	<path fill="#F7A491" d="M1094.266,991.82c0,0-11.874,1.646-20.477,12.751c-8.603,11.104-17.875,45.442,3.495,64.112
		c21.37,18.669,42.485-2.463,45.616-24.869S1125.398,991.012,1094.266,991.82z"/>
	<path fill="#F7A491" d="M1129.13,1038.282c-1.348,5.401-4.887,9.051-7.905,8.15s-4.372-6.01-3.023-11.411
		c1.348-5.402,4.887-9.051,7.905-8.15C1129.125,1027.771,1130.478,1032.881,1129.13,1038.282z"/>
	<path fill="#0E2E35" d="M1107.455,991.919c0,0-27.906,32.037-41.022,33.546c-13.116,1.509-14.839,18.86-14.839,18.86
		s4.689-39.982,17.675-47.692C1082.253,988.922,1107.455,991.919,1107.455,991.919z"/>
	<path fill="#F7A491" d="M1070.721,1033.245c1.067,5.799-1.079,11.117-4.792,11.878c-3.713,0.761-7.588-3.323-8.654-9.122
		c-1.067-5.799,1.078-11.116,4.792-11.878C1065.78,1023.362,1069.655,1027.446,1070.721,1033.245z"/>
	<path fill="#184655" d="M1070.323,1195.846l90.174,13.192c2.711,0.396,4.587,2.915,4.19,5.626l-17.6,120.302
		c-0.396,2.711-2.916,4.587-5.626,4.19l-90.174-13.191c-2.71-0.396-4.586-2.916-4.19-5.627l17.599-120.302
		C1065.093,1197.325,1067.612,1195.449,1070.323,1195.846z"/>
	<path fill="#13375B" d="M1137.582,1201.698c0.08-0.55-0.3-1.06-0.85-1.141l-37.613-5.503c-0.549-0.08-1.06,0.301-1.14,0.85
		l-0.572,3.909l39.603,5.794L1137.582,1201.698z"/>
	<path fill="#13375B" d="M1118.621,1193.053c-3.276-0.479-6.32,1.789-6.8,5.064c-0.479,3.276,1.788,6.321,5.064,6.8
		c3.276,0.479,6.32-1.788,6.8-5.063C1124.165,1196.577,1121.897,1193.533,1118.621,1193.053z M1117.196,1202.79
		c-2.101-0.308-3.555-2.261-3.248-4.361c0.307-2.101,2.26-3.555,4.361-3.248c2.101,0.308,3.555,2.26,3.248,4.361
		C1121.25,1201.643,1119.298,1203.097,1117.196,1202.79z"/>
	<path fill="#355389" d="M1137.108,1200.692c0.335,0.203,0.534,0.594,0.474,1.006l-0.572,3.909l-39.603-5.794
		c-0.396,2.709,1.478,5.226,4.187,5.622l29.794,4.358c2.708,0.396,5.226-1.479,5.622-4.187l0.572-3.909
		C1137.642,1201.286,1137.443,1200.896,1137.108,1200.692z"/>
	<path fill="#FFFFFF" d="M1109.539,1054.913l-20.293-0.107c0,0,0.427,7.71,9.35,8.015
		C1109.475,1063.193,1109.539,1054.913,1109.539,1054.913z"/>
	<path fill="#F7A491" d="M1007.059,1226.609l32.673,3.339c0,0-0.533,27.73,0.028,30.917c0,0,55.873,15.488,79.224,19.69
		c0,0,10.632-6.026,14.933-7.942c4.301-1.916,15.865-4.007,18.421-4.341c2.557-0.335,1.684,2.467-0.512,3.445
		s-7.877,3.655-9.488,6.933c0,0,4.612,0.505,7.052-0.583c2.44-1.087,5.802-3.39,5.855-4.583s0.608-4.07,1.409-3.915
		c0.204,0.039,0.477,0.984,0.75,1.972c0.261,0.938,0.536,1.901,0.765,2.849c0.411,1.7,0.882,4.185,1.065,5.301
		c0.418,2.546-1.14,9.571-1.358,12.065c-0.399,4.555-1.7,6.578-4.105,7.739c-3.877,1.351-7.979,2.212-14.043,2.839
		c-11.114,1.149-21.329-2.05-25.786-2.551c-4.457-0.5-75.602-7.557-75.602-7.557s-28.283-4.07-30.159-8.938
		C1006.306,1278.422,1007.059,1226.609,1007.059,1226.609z"/>
	<path fill="#F7CC7F" d="M1035.444,1116.826c0,0-10.313,4.89-19.378,26.01c-8.614,20.07-11.146,120.229-11.146,120.229l34.178-5.696
		l17.368-46.7c12.378-27.951,9.183-60.495-8.853-85.177C1042.802,1118.908,1038.37,1114.932,1035.444,1116.826z"/>
</g>
<rect x="1574.366" y="635.672" opacity="0.6" fill="#9BC1F9" width="145.066" height="145.066"/>
<rect x="1745.096" y="635.672" opacity="0.6" fill="#9BC1F9" width="282.998" height="19.711"/>
<rect x="1745.096" y="677.457" opacity="0.6" fill="#9BC1F9" width="190.984" height="19.711"/>
<rect x="1745.096" y="719.242" opacity="0.6" fill="#9BC1F9" width="254.205" height="19.711"/>
<g>
	<path fill="#F7A491" d="M2125.476,1117.249c-5.93-4.821-51.787,15.301-51.206,22.306c0.582,7.005-31.999,74.911-31.999,74.911
		l-56.303-44.894l-0.023,0.015c-0.497-1.624-5.835-19.084-6.095-22.207c-0.271-3.276-9.786-9.01-14.205-8.166
		c-4.418,0.845,3.779,6.388,4.316,7.405c1.466,2.769-4.198,3.809-4.198,3.809s-16.078-5.155-16.424-10.405
		c-0.346-5.251-11.339,9.18-10.048,11.188c1.262,1.963,27.533,23.13,31.318,27.725c0,0,72.826,83.252,78.012,85.43
		c4.549,1.911,20.771-26.779,36.098-45.826C2100.045,1199.492,2144.006,1132.315,2125.476,1117.249z"/>
	<path fill="#F48C7F" d="M2272.42,1729.408c0,0,10.008,9.765,10.234,13.348c0.228,3.584,0.887,41.975-3.198,45.559
		s-16.086,6.125-12.228,10.156c2.915,3.047,25.349,2.396,40.216,1.577c4.34-0.238,9.782-34.865,11.501-39.954
		c2.496-7.393,8.567-24.041,6.298-29.192c-1.106-2.511-6.396-7.67-13.852-12.485c-7.841-5.064-15.344-16.34-15.344-16.34
		L2272.42,1729.408z"/>
	<path fill="#F7A491" d="M2168.754,1752.146c0,0,8.956,25.299,8.967,25.364c0.666,4.009,3.288,13.911,3.288,17.555
		c0,13.688-61.733-11.62-47.897-17.687c1.252-0.549,5.181-4.935,5.593-9.593c0.634-7.179-5.2-16.182-5.2-16.182L2168.754,1752.146z"
		/>
	<g>
		<path fill="#50BFA5" d="M2071.912,1281.046c0,0-4.501,45.353-4.501,46.029c0,73.365-14.543,216.674-11.777,230.467
			c6.748,33.644,79.366,205.267,79.366,205.267l39.249-4.691l-42.129-207.393l9.804-80.796l26.633-163.487L2071.912,1281.046z"/>
		<path fill="#96D9C9" d="M2203.635,1321.161l7.447,42.985l20.148,176.912l76.735,172.903c0,0-10.794,25.159-26.718,28.693
			l-122.129-177.521l-75.865-227.152l2.664-50.465L2203.635,1321.161z"/>
	</g>
	<path fill="#B75742" d="M2056.258,1173.061l54.425,5.556c0,0,2.496-44.617,2.496-65.9c0-25.821-2.199-59.079-5.317-58.363
		c-8.752,2.009-20.538,6.84-27.555,16.481C2056.026,1104.196,2056.258,1173.061,2056.258,1173.061z"/>
	<path fill="#F47458" d="M2082.995,1108.161c-1.14,7.873-22.061,221.898-22.061,221.898c99.095,47.86,153.775,8.525,153.775,8.525
		s-3.242-150.292,0.644-170.748c2.571-13.534,5.777-103.468-2.993-105.986c-11.255-3.232-24.159-6.665-38.225-8.125
		c-12.007-1.246-58.648-1.968-66.993,0.835C2107.142,1054.561,2087.79,1075.055,2082.995,1108.161z"/>
	<path fill="#F47458" d="M2310.907,1718.174c0,0-23.064,64.94-32.092,68.075c-2.397,0.832-13.9,2.944-16.071,8.031
		c-0.653,1.533,0,6.651,0,6.651h48.075c0,0,6.08-28.613,8.483-41.186c0,0,12.726-30.717,11.312-33.508
		C2329.2,1723.446,2310.907,1718.174,2310.907,1718.174z"/>
	<path fill="#F47458" d="M2184.521,1799.582l-7.07-22.332c0,0-14.847,6.28-22.271,5.233c-7.423-1.047-21.916-5.233-21.916-5.233
		c-29.63,9.752-53.904,14.485-49.488,22.332l0,0H2184.521z"/>
	<g>
		<path fill="#F7A491" d="M2048.622,1264.365c-0.225-0.094-1.031-0.728-1.496-1.11c1.763-20.968,1.444-41.286-5.137-48.155
			c0.158-0.329,1.598-3.387,3.1-6.558c7.627,5.899,11.25,21.569,9.828,47.009c-0.098,1.749-0.601,3.085-1.006,5.268
			C2051.702,1263.248,2049.695,1264.816,2048.622,1264.365z"/>
	</g>
	<path fill="#F7A491" d="M2160.887,1012.354l6.387,42.101c0,0-23.326,50.128-37.252,45.78c-11.685-3.647-4.496-48.002-4.496-48.002
		s6.369-23.819,4.459-35.739S2160.887,1012.354,2160.887,1012.354z"/>
	<path fill="#F47458" d="M2129.985,1016.494c-1.91-11.92,30.902-4.14,30.902-4.14l0.529,3.491c-0.961,2.336-2.134,4.336-3.559,5.868
		c-7.329,7.888-18.785,12.625-28.689,12.983C2130.159,1028.271,2130.768,1021.382,2129.985,1016.494z"/>
	<g>
		<path fill="#F7A491" d="M2166.27,952.794c0.928-0.337,7.434,47.949-4.913,61.235s-36.401,17.635-45.03,7.17
			c-9.544-11.573-9.064-63.47,10.131-77.138C2145.654,930.395,2166.27,952.794,2166.27,952.794z"/>
		<path fill="#0E2E35" d="M2133.766,918.232c14.837,3.025,24.447,12.093,27.979,15.957c6.736,0.795,15.894,4.519,25.35,20.175
			c11.626,19.25,3.04,40.577-10.494,51.042c-13.534,10.464-13.346,22.551-13.346,22.551l-2.141-6.252
			c-1.578-4.736-2.223-9.759-1.694-14.727c0.316-2.98,0.955-6.203,2.188-8.854c3.256-6.988-6.992-11.631-9.865-17.445
			c-2.213-4.477-2.32-14.718-5.806-22.118l-4.163-5.649c0,0-9.604-7.474-19-5.364
			C2113.377,949.656,2114.729,914.351,2133.766,918.232z"/>
		<path fill="#F7A491" d="M2152.374,989.273c-0.098,5.891,2.58,10.714,5.982,10.771c3.401,0.059,6.238-4.67,6.336-10.562
			s-2.58-10.714-5.981-10.772C2155.309,978.653,2152.472,983.382,2152.374,989.273z"/>
	</g>
	<path fill="#FFFFFF" d="M2132.324,1002.885l-18.61-0.963c0,0,0.063,7.091,8.235,7.751
		C2131.913,1010.478,2132.324,1002.885,2132.324,1002.885z"/>
	<g>
		<path fill="#0E2E35" d="M1980.04,1112.969c4.371-4.477,8.449-9.093,12.242-13.809l81.229,79.323
			c4.992,4.875,3.273,14.731-3.839,22.014c-7.113,7.283-16.926,9.235-21.918,4.36l-81.229-79.323
			C1971.15,1121.631,1975.668,1117.444,1980.04,1112.969z"/>
		
			<ellipse transform="matrix(-0.6987 0.7154 -0.7154 -0.6987 3802.3765 333.3682)" opacity="0.6" fill="#C5DDF9" cx="1830.987" cy="967.396" rx="204.876" ry="206.149"/>
		<path fill="#FFFFFF" d="M1978.708,1109.261c-33.701,35.832-79.797,59.238-130.442,63.843l-222.225-225.88
			c0.044-0.426,0.075-0.851,0.121-1.276c5.532-51.573,29.521-96.662,64.635-129.334L1978.708,1109.261z"/>
		<path fill="#FFFFFF" d="M1829.228,761.662l205.508,208.888c-0.1,6.32-0.472,12.689-1.159,19.099
			c-3.131,29.189-12.186,56.295-25.811,80.256l-277.539-282.105C1759.779,771.181,1793.64,761.777,1829.228,761.662z"/>
		<path fill="#184655" d="M1669.159,1133.101c92.084,89.93,239.187,88.645,328.562-2.872
			c89.375-91.516,87.179-238.607-4.905-328.537c-92.085-89.93-239.188-88.645-328.563,2.871
			C1574.877,896.079,1577.075,1043.17,1669.159,1133.101z M1687.842,1113.97c-81.453-79.548-83.396-209.657-4.34-290.607
			c79.057-80.951,209.176-82.088,290.629-2.54s83.396,209.657,4.34,290.607C1899.415,1192.38,1769.295,1193.517,1687.842,1113.97z"
			/>
		<path opacity="0.5" fill="#50BFA5" d="M1678.98,1123.044c86.495,84.474,224.671,83.266,308.622-2.696
			c83.951-85.963,81.889-224.127-4.608-308.6c-86.496-84.473-224.671-83.265-308.622,2.697
			C1590.42,900.407,1592.483,1038.571,1678.98,1123.044z M1687.842,1113.97c-81.453-79.548-83.396-209.657-4.34-290.607
			c79.057-80.951,209.176-82.088,290.629-2.54s83.396,209.657,4.34,290.607C1899.415,1192.38,1769.295,1193.517,1687.842,1113.97z"
			/>
		<path fill="#184655" d="M2325.789,1461.078l12.623-13.094c12.615-13.085,12.235-33.919-0.85-46.534l-234.513-227.364
			c-13.086-12.615-33.919-12.234-46.534,0.851l-12.624,13.094c-12.615,13.085-12.234,33.918,0.851,46.533l234.513,227.364
			C2292.339,1474.543,2313.173,1474.162,2325.789,1461.078z"/>
	</g>
	<path fill="#F8A492" d="M2312.855,1332.327c0.062-0.459,0.069-0.918,0.024-1.378c-1.461-14.822-13.767-139.284-15.839-144.574
		c-1.871-4.777-57.064-83.717-57.064-83.717l-27.128,36.959l53.08,70.804c1.19,4.499,20.341,88.517,20.341,88.517
		s3.926,15.314,5.685,24.488c-0.802,2.21-1.59,4.298-2.287,6.011c-1.759,3.66-3.833,6.664-5.719,9.191
		c-2.373,3.18-6.295,10.128-6.779,11.987c-0.562,2.161-1.575,6.653-2.148,9.364c-0.574,2.712-1.359,5.868-1.492,7.34
		c-0.08,0.896-1.003,2.682-1.714,3.942c-1.06,1.879,0.747,4.098,2.795,3.417c1.929-0.641,3.43-3.137,4.354-4.692
		c2.612-4.391,4.006-12.407,4.655-11.982c0.649,0.424,2.938,14.025,3.3,15.563c0.362,1.538,3.107,17.332,4.657,20.219
		c1.549,2.886,3.6,2.403,4.144,0.596c0.468-1.556-1.711-23.654-1.711-23.654s-0.271-2.818,0.963-1.938
		c1.234,0.881,3.253,20.941,4.111,23.876c0.859,2.936,2.815,4.492,4.477,2.133c2.021-2.869-1.453-24.147-1.453-24.147
		s-0.39-2.675,0.753-2.426s2.574,17.346,3.464,18.824c0.889,1.479,3.133,2.009,4.203-0.456c1.261-2.903-2.004-21.871-2.004-21.871
		s0.16-1.51,0.873-1.009c0.712,0.501,2.975,14.988,4.448,16.33c1.238,1.126,2.271,0.033,2.271,0.033
		c2.705-1.846-1.443-15.626-1.402-22.479c0.041-6.852-3.137-14.552-2.188-22.71
		C2312.583,1334.374,2312.749,1333.117,2312.855,1332.327z"/>
	<path fill="#F47458" d="M2283.096,1152.654l-47.146,31.654c0,0-26.573-39.542-40.838-53.619
		c-17.868-17.636,6.51-71.658,18.022-68.602C2238.885,1068.924,2283.096,1152.654,2283.096,1152.654z"/>
</g>
<rect x="34.12" y="1795.725" fill="#0E2E35" width="2346" height="14"/>
<g>
</g>
<g>
</g>
<g>
</g>
<g>
</g>
<g>
</g>
<g>
</g>
<g>
</g>
<g>
</g>
<g>
</g>
<g>
</g>
<g>
</g>
<g>
</g>
<g>
</g>
<g>
</g>
<g>
</g>
</svg>
