<?xml version="1.0" encoding="utf-8"?>
<!-- Generator: Adobe Illustrator 16.0.0, SVG Export Plug-In . SVG Version: 6.00 Build 0)  -->
<!DOCTYPE svg PUBLIC "-//W3C//DTD SVG 1.1//EN" "http://www.w3.org/Graphics/SVG/1.1/DTD/svg11.dtd">
<svg version="1.1" id="Layer_1" xmlns="http://www.w3.org/2000/svg" xmlns:xlink="http://www.w3.org/1999/xlink" x="0px" y="0px"
	 width="3278.053px" height="1661.109px" viewBox="0 0 3278.053 1661.109" enable-background="new 0 0 3278.053 1661.109"
	 xml:space="preserve">
<g>
	<g>
		<circle fill="#FFC385" cx="903.239" cy="736.949" r="727.79"/>
	</g>
	<g>
		<g>
			<path fill="#2F3027" d="M589.061,38.884c-9.184,0-16.656-7.471-16.656-16.655s7.472-16.655,16.656-16.655
				s16.655,7.471,16.655,16.655S598.245,38.884,589.061,38.884z M589.061,8.523c-7.558,0-13.707,6.148-13.707,13.706
				s6.149,13.706,13.707,13.706s13.706-6.148,13.706-13.706S596.619,8.523,589.061,8.523z"/>
		</g>
		<g>
			<path fill="#2F3027" d="M700.938,38.884c-9.184,0-16.655-7.471-16.655-16.655s7.471-16.655,16.655-16.655
				s16.655,7.471,16.655,16.655S710.123,38.884,700.938,38.884z M700.938,8.523c-7.558,0-13.706,6.148-13.706,13.706
				s6.148,13.706,13.706,13.706s13.706-6.148,13.706-13.706S708.496,8.523,700.938,8.523z"/>
		</g>
		<g>
			<path fill="#2F3027" d="M812.816,38.884c-9.184,0-16.655-7.471-16.655-16.655s7.471-16.655,16.655-16.655
				s16.655,7.471,16.655,16.655S822,38.884,812.816,38.884z M812.816,8.523c-7.558,0-13.706,6.148-13.706,13.706
				s6.148,13.706,13.706,13.706s13.706-6.148,13.706-13.706S820.374,8.523,812.816,8.523z"/>
		</g>
		<g>
			<path fill="#2F3027" d="M924.693,38.884c-9.184,0-16.655-7.471-16.655-16.655s7.471-16.655,16.655-16.655
				s16.656,7.471,16.656,16.655S933.877,38.884,924.693,38.884z M924.693,8.523c-7.558,0-13.706,6.148-13.706,13.706
				s6.148,13.706,13.706,13.706S938.4,29.787,938.4,22.229S932.251,8.523,924.693,8.523z"/>
		</g>
		<g>
			<path fill="#2F3027" d="M589.061,139.238c-9.184,0-16.656-7.471-16.656-16.655s7.472-16.655,16.656-16.655
				s16.655,7.471,16.655,16.655S598.245,139.238,589.061,139.238z M589.061,108.876c-7.558,0-13.707,6.148-13.707,13.706
				s6.149,13.706,13.707,13.706s13.706-6.148,13.706-13.706S596.619,108.876,589.061,108.876z"/>
		</g>
		<g>
			<circle fill="#2F3027" cx="700.938" cy="122.583" r="15.181"/>
		</g>
		<g>
			<path fill="#2F3027" d="M812.816,139.238c-9.184,0-16.655-7.471-16.655-16.655s7.471-16.655,16.655-16.655
				s16.655,7.471,16.655,16.655S822,139.238,812.816,139.238z M812.816,108.876c-7.558,0-13.706,6.148-13.706,13.706
				s6.148,13.706,13.706,13.706s13.706-6.148,13.706-13.706S820.374,108.876,812.816,108.876z"/>
		</g>
		<g>
			<path fill="#2F3027" d="M924.693,139.238c-9.184,0-16.655-7.471-16.655-16.655s7.471-16.655,16.655-16.655
				s16.656,7.471,16.656,16.655S933.877,139.238,924.693,139.238z M924.693,108.876c-7.558,0-13.706,6.148-13.706,13.706
				s6.148,13.706,13.706,13.706s13.707-6.148,13.707-13.706S932.251,108.876,924.693,108.876z"/>
		</g>
		<g>
			<path fill="#2F3027" d="M589.061,239.591c-9.184,0-16.656-7.471-16.656-16.655s7.472-16.655,16.656-16.655
				s16.655,7.471,16.655,16.655S598.245,239.591,589.061,239.591z M589.061,209.23c-7.558,0-13.707,6.148-13.707,13.706
				s6.149,13.706,13.707,13.706s13.706-6.148,13.706-13.706S596.619,209.23,589.061,209.23z"/>
		</g>
		<g>
			<path fill="#2F3027" d="M700.938,239.591c-9.184,0-16.655-7.471-16.655-16.655s7.471-16.655,16.655-16.655
				s16.655,7.471,16.655,16.655S710.123,239.591,700.938,239.591z M700.938,209.23c-7.558,0-13.706,6.148-13.706,13.706
				s6.148,13.706,13.706,13.706s13.706-6.148,13.706-13.706S708.496,209.23,700.938,209.23z"/>
		</g>
		<g>
			<path fill="#2F3027" d="M812.816,239.591c-9.184,0-16.655-7.471-16.655-16.655s7.471-16.655,16.655-16.655
				s16.655,7.471,16.655,16.655S822,239.591,812.816,239.591z M812.816,209.23c-7.558,0-13.706,6.148-13.706,13.706
				s6.148,13.706,13.706,13.706s13.706-6.148,13.706-13.706S820.374,209.23,812.816,209.23z"/>
		</g>
		<g>
			<circle fill="#2F3027" cx="924.693" cy="222.936" r="15.181"/>
		</g>
		<g>
			<path fill="#2F3027" d="M589.061,339.945c-9.184,0-16.656-7.471-16.656-16.655s7.472-16.655,16.656-16.655
				s16.655,7.471,16.655,16.655S598.245,339.945,589.061,339.945z M589.061,309.583c-7.558,0-13.707,6.148-13.707,13.706
				s6.149,13.706,13.707,13.706s13.706-6.148,13.706-13.706S596.619,309.583,589.061,309.583z"/>
		</g>
		<g>
			<path fill="#2F3027" d="M700.938,339.945c-9.184,0-16.655-7.471-16.655-16.655s7.471-16.655,16.655-16.655
				s16.655,7.471,16.655,16.655S710.123,339.945,700.938,339.945z M700.938,309.583c-7.558,0-13.706,6.148-13.706,13.706
				s6.148,13.706,13.706,13.706s13.706-6.148,13.706-13.706S708.496,309.583,700.938,309.583z"/>
		</g>
		<g>
			<path fill="#2F3027" d="M812.816,339.945c-9.184,0-16.655-7.471-16.655-16.655s7.471-16.655,16.655-16.655
				s16.655,7.471,16.655,16.655S822,339.945,812.816,339.945z M812.816,309.583c-7.558,0-13.706,6.148-13.706,13.706
				s6.148,13.706,13.706,13.706s13.706-6.148,13.706-13.706S820.374,309.583,812.816,309.583z"/>
		</g>
		<g>
			<path fill="#2F3027" d="M924.693,339.945c-9.184,0-16.655-7.471-16.655-16.655s7.471-16.655,16.655-16.655
				s16.656,7.471,16.656,16.655S933.877,339.945,924.693,339.945z M924.693,309.583c-7.558,0-13.706,6.148-13.706,13.706
				s6.148,13.706,13.706,13.706s13.707-6.148,13.707-13.706S932.251,309.583,924.693,309.583z"/>
		</g>
		<g>
			<path fill="#2F3027" d="M589.061,440.298c-9.184,0-16.656-7.471-16.656-16.655s7.472-16.655,16.656-16.655
				s16.655,7.471,16.655,16.655S598.245,440.298,589.061,440.298z M589.061,409.937c-7.558,0-13.707,6.148-13.707,13.706
				s6.149,13.706,13.707,13.706s13.706-6.148,13.706-13.706S596.619,409.937,589.061,409.937z"/>
		</g>
		<g>
			<path fill="#2F3027" d="M700.938,440.298c-9.184,0-16.655-7.471-16.655-16.655s7.471-16.655,16.655-16.655
				s16.655,7.471,16.655,16.655S710.123,440.298,700.938,440.298z M700.938,409.937c-7.558,0-13.706,6.148-13.706,13.706
				s6.148,13.706,13.706,13.706s13.706-6.148,13.706-13.706S708.496,409.937,700.938,409.937z"/>
		</g>
		<g>
			<path fill="#2F3027" d="M812.816,440.298c-9.184,0-16.655-7.471-16.655-16.655s7.471-16.655,16.655-16.655
				s16.655,7.471,16.655,16.655S822,440.298,812.816,440.298z M812.816,409.937c-7.558,0-13.706,6.148-13.706,13.706
				s6.148,13.706,13.706,13.706s13.706-6.148,13.706-13.706S820.374,409.937,812.816,409.937z"/>
		</g>
		<g>
			<path fill="#2F3027" d="M924.693,440.298c-9.184,0-16.655-7.471-16.655-16.655s7.471-16.655,16.655-16.655
				s16.656,7.471,16.656,16.655S933.877,440.298,924.693,440.298z M924.693,409.937c-7.558,0-13.706,6.148-13.706,13.706
				s6.148,13.706,13.706,13.706s13.707-6.148,13.707-13.706S932.251,409.937,924.693,409.937z"/>
		</g>
		<g>
			<path fill="#2F3027" d="M589.061,540.652c-9.184,0-16.656-7.471-16.656-16.655s7.472-16.655,16.656-16.655
				s16.655,7.471,16.655,16.655S598.245,540.652,589.061,540.652z M589.061,510.291c-7.558,0-13.707,6.148-13.707,13.706
				s6.149,13.706,13.707,13.706s13.706-6.148,13.706-13.706S596.619,510.291,589.061,510.291z"/>
		</g>
		<g>
			<path fill="#2F3027" d="M700.938,540.652c-9.184,0-16.655-7.471-16.655-16.655s7.471-16.655,16.655-16.655
				s16.655,7.471,16.655,16.655S710.123,540.652,700.938,540.652z M700.938,510.291c-7.558,0-13.706,6.148-13.706,13.706
				s6.148,13.706,13.706,13.706s13.706-6.148,13.706-13.706S708.496,510.291,700.938,510.291z"/>
		</g>
		<g>
			<path fill="#2F3027" d="M812.816,540.652c-9.184,0-16.655-7.471-16.655-16.655s7.471-16.655,16.655-16.655
				s16.655,7.471,16.655,16.655S822,540.652,812.816,540.652z M812.816,510.291c-7.558,0-13.706,6.148-13.706,13.706
				s6.148,13.706,13.706,13.706s13.706-6.148,13.706-13.706S820.374,510.291,812.816,510.291z"/>
		</g>
		<g>
			<path fill="#2F3027" d="M924.693,540.652c-9.184,0-16.655-7.471-16.655-16.655s7.471-16.655,16.655-16.655
				s16.656,7.471,16.656,16.655S933.877,540.652,924.693,540.652z M924.693,510.291c-7.558,0-13.706,6.148-13.706,13.706
				s6.148,13.706,13.706,13.706s13.707-6.148,13.707-13.706S932.251,510.291,924.693,510.291z"/>
		</g>
	</g>
	<g>
		<path fill="#2F3027" d="M3105.065,1131.758c-9.184,0-16.655-7.472-16.655-16.656c0-9.184,7.472-16.655,16.655-16.655
			s16.655,7.472,16.655,16.655C3121.721,1124.287,3114.249,1131.758,3105.065,1131.758z M3105.065,1101.396
			c-7.558,0-13.706,6.148-13.706,13.706s6.148,13.707,13.706,13.707s13.706-6.149,13.706-13.707
			S3112.623,1101.396,3105.065,1101.396z"/>
	</g>
	<g>
		<path fill="#2F3027" d="M1530.679,202.884c-9.184,0-16.655-7.472-16.655-16.656s7.471-16.655,16.655-16.655
			s16.655,7.471,16.655,16.655S1539.863,202.884,1530.679,202.884z M1530.679,172.522c-7.558,0-13.706,6.148-13.706,13.706
			s6.148,13.707,13.706,13.707s13.706-6.149,13.706-13.707S1538.237,172.522,1530.679,172.522z"/>
	</g>
	<g>
		<circle fill="#2F3027" cx="1675.77" cy="1335.625" r="15.181"/>
	</g>
	<g>
		<circle fill="#FFC385" cx="2881.918" cy="534.695" r="396.135"/>
	</g>
	<g>
		<path fill="#F5A858" d="M3193.556,634.583c32.998-14.646,32.483-35.592,32.483-35.592l-40.343-28.607l-115.135,129.817
			c-47.158-152.825-120.317-171.716-120.317-171.716l6.44-33.367c0,0,31.381-1.907,53.154-33.578
			c21.773-31.671-12.637-72.113-12.637-72.113c37.223-58.346-19.636-88.354-19.636-88.354l-56.185,70.162l-59.726,148.7
			c0,0-26.583,202.764-38.86,218.605c-8.528,11.005-3.412,120.633,0.775,188.014c19.042,2.811,38.523,4.274,58.346,4.274
			c25.179,0,49.806-2.355,73.68-6.846l-3.49-129.137c26.524,45.361,61.561,82.283,85.104,104.379
			c32.493-13.86,62.757-31.938,90.103-53.545C3179.868,753.616,3193.556,634.583,3193.556,634.583z"/>
	</g>
	<g>
		<path fill="#F5A858" d="M1567.368,993.481l-351.789-442.542l-308.828-213.97l-65.707,947.352h541.836
			c73.829-64.746,134.448-144.185,177.287-233.758L1567.368,993.481z"/>
	</g>
	<g>
		<g>
			<path fill="#2F3027" d="M2372.881,1607.391l-2.645-1.305c75.895-153.782,96.333-274.034,96.53-275.23l2.91,0.48
				C2469.479,1332.538,2448.968,1453.221,2372.881,1607.391z"/>
		</g>
		<g>
			<path fill="#2F3027" d="M2467.492,1333.104l-0.901-0.896c-0.46-0.457-45.94-46.33-42.245-97.952
				c3.694-51.622,55.245-90.549,55.765-90.937l1.02-0.758l0.901,0.896c0.46,0.457,45.94,46.33,42.245,97.952
				c-3.694,51.622-55.245,90.549-55.765,90.937L2467.492,1333.104z M2480.85,1146.481c-7.225,5.732-50.251,41.727-53.563,87.986
				c-3.313,46.286,34.149,88.019,40.485,94.718c7.225-5.732,50.251-41.727,53.563-87.986
				C2524.647,1194.913,2487.186,1153.18,2480.85,1146.481z"/>
		</g>
		<g>
			<path fill="#008B86" d="M2421.384,1205.932c4.223-58.995,63.15-102.849,63.15-102.849s52.082,51.799,47.859,110.795
				s-63.151,102.849-63.151,102.849S2417.161,1264.928,2421.384,1205.932z"/>
		</g>
		<g>
			<path fill="#008B86" d="M2281.842,1380.474c-28.396-46.539-7.629-110.98-7.629-110.98s66.803,11.013,95.197,57.552
				c28.396,46.538,7.629,110.979,7.629,110.979S2310.236,1427.012,2281.842,1380.474z"/>
		</g>
		<g>
			<path fill="#008B86" d="M2577.837,1330.623c47.443-26.854,111.17-3.987,111.17-3.987s-13.196,66.406-60.64,93.261
				c-47.444,26.854-111.171,3.987-111.171,3.987S2530.393,1357.477,2577.837,1330.623z"/>
		</g>
		<g>
			<path fill="#008B86" d="M2317.28,1474.004c27.313,13.914,36.363,50.89,36.363,50.89s-35.231,14.417-62.544,0.504
				c-27.313-13.914-36.364-50.89-36.364-50.89S2289.968,1460.09,2317.28,1474.004z"/>
		</g>
		<g>
			<path fill="#2F3027" d="M2467.492,1333.104l-0.901-0.896c-0.46-0.457-45.94-46.33-42.245-97.952
				c3.694-51.622,55.245-90.549,55.765-90.937l1.02-0.758l0.901,0.896c0.46,0.457,45.94,46.33,42.245,97.952
				c-3.694,51.622-55.245,90.549-55.765,90.937L2467.492,1333.104z M2480.85,1146.481c-7.225,5.732-50.251,41.727-53.563,87.986
				c-3.313,46.286,34.149,88.019,40.485,94.718c7.225-5.732,50.251-41.727,53.563-87.986
				C2524.647,1194.913,2487.186,1153.18,2480.85,1146.481z"/>
		</g>
		<g>
			<path fill="#2F3027" d="M2386.026,1454.693l-1.251-0.223c-0.639-0.114-64.154-11.887-90.538-56.41
				c-26.386-44.522-6.213-105.89-6.006-106.505l0.405-1.204l1.251,0.223c0.639,0.114,64.153,11.887,90.538,56.41
				c26.386,44.522,6.213,105.89,6.006,106.505L2386.026,1454.693z M2290.64,1293.732c-2.669,8.828-17.509,62.927,6.135,102.824
				c23.644,39.898,78.223,52.858,87.249,54.756c2.669-8.828,17.509-62.927-6.135-102.824
				C2354.23,1308.566,2299.664,1295.625,2290.64,1293.732z"/>
		</g>
		<g>
			<path fill="#2F3027" d="M2335.895,1537.911c-7.683,0-14.716-1.35-20.903-4.011c-25.175-10.827-35.334-42.296-35.754-43.63
				l-0.382-1.213l1.142-0.557c0.677-0.329,16.77-8.066,35.36-8.066c7.683,0,14.716,1.35,20.903,4.011
				c25.175,10.827,35.334,42.296,35.754,43.63l0.382,1.213l-1.142,0.557C2370.578,1530.173,2354.485,1537.911,2335.895,1537.911z
				 M2282.478,1490.615c2.147,5.916,12.483,31.46,33.68,40.576c5.816,2.501,12.457,3.77,19.737,3.77
				c15.088,0,28.845-5.47,32.88-7.23c-2.147-5.916-12.483-31.46-33.68-40.576c-5.816-2.501-12.457-3.77-19.737-3.77
				C2300.27,1483.384,2286.513,1488.854,2282.478,1490.615z"/>
		</g>
		<g>
			<path fill="#2F3027" d="M2550.587,1452.385c-31.508,0-57.602-8.658-57.861-8.746l-1.204-0.405l0.223-1.251
				c0.13-0.729,13.58-73.297,64.434-103.434c17.465-10.35,38.933-15.598,63.808-15.598c31.508,0,57.602,8.658,57.861,8.746
				l1.204,0.405l-0.223,1.251c-0.13,0.729-13.58,73.297-64.434,103.434C2596.929,1447.137,2575.461,1452.385,2550.587,1452.385z
				 M2494.9,1441.234c5.481,1.679,28.535,8.202,55.687,8.202c24.338,0,45.3-5.109,62.304-15.186
				c46.01-27.266,60.753-90.401,62.781-100.147c-5.481-1.679-28.535-8.202-55.687-8.202c-24.338,0-45.3,5.109-62.304,15.186
				C2511.672,1368.352,2496.929,1431.488,2494.9,1441.234z"/>
		</g>
		<g>
			
				<rect x="2243.762" y="1371.047" transform="matrix(0.5098 0.8603 -0.8603 0.5098 2326.4922 -1337.9795)" fill="#2F3027" width="187.138" height="2.949"/>
		</g>
		<g>
			
				<rect x="2583.812" y="1280.623" transform="matrix(0.5099 0.8602 -0.8602 0.5099 2460.7295 -1543.8523)" fill="#2F3027" width="2.949" height="214.091"/>
		</g>
		<g>
			<polygon fill="#2F3027" points="2629.627,1424.443 2570.819,1396.024 2588.228,1327.042 2591.087,1327.765 2574.269,1394.415 
				2630.91,1421.787 			"/>
		</g>
		<g>
			<polygon fill="#2F3027" points="2346.624,1388.401 2286.35,1377.959 2286.854,1375.053 2344.909,1385.11 2368.675,1334.481 
				2371.345,1335.735 			"/>
		</g>
	</g>
	<g>
		<g>
			<rect x="906.751" y="336.969" fill="#FFF0E1" width="1390.587" height="892.209"/>
		</g>
		<g>
			<rect x="906.751" y="1040.493" fill="#FFDCB8" width="1390.587" height="188.686"/>
		</g>
		<g>
			<g>
				<g>
					<rect x="1072.885" y="486.753" fill="#FFFFFF" width="335.562" height="477.399"/>
				</g>
				<g>
					<g>
						<defs>
							<path id="SVGID_1_" d="M1408.447,964.154h-335.562v-477.4h335.562V964.154z"/>
						</defs>
						<clipPath id="SVGID_2_">
							<use xlink:href="#SVGID_1_"  overflow="visible"/>
						</clipPath>
						<g clip-path="url(#SVGID_2_)">
							<g>
								<g>
									<path fill="#FF7C70" d="M1149.7,1948.379l-24.12,13.689c0,0-3.259,30.638-7.822,48.238s-30.638,17.778-5.867,24.859
										c24.771,7.082,22.164,14.035,37.809,7.3c15.645-6.736,29.912-21.348,29.912-21.348l-9.704-72.739H1149.7z"/>
								</g>
								<g>
									<path fill="#FF7C70" d="M1394.368,1937.732l13.917,84.554c0,0,23.674,25.612,28.889,20.181
										c5.215-5.433,14.993-13.907,14.993-17.166c0-3.26-3.523-20.215-3.523-20.215l-4.299-49.535h-18.904L1394.368,1937.732z"/>
								</g>
								<g>
									<path fill="#20211B" d="M1179.611,2021.119c0,0,7.387,13.608,6.999,46.27h-176.909c0,0,5.055-22.163,43.936-31.105
										c38.881-8.942,55.819-37.359,69.597-34.604c9.721,1.944,0,26.828,0,26.828L1179.611,2021.119z"/>
								</g>
								<g>
									<path fill="#20211B" d="M1399.731,2067.388h134.14c0,0,3.888-14.775-16.719-28.384s-41.7-15.149-55.648-26.627
										c-13.949-11.477-32.612-11.865-34.167-4.478c-1.555,7.387,3.499,16.33,3.499,16.33l-22.551-1.944
										C1408.285,2022.286,1398.176,2039.004,1399.731,2067.388z"/>
								</g>
								<g>
									<path fill="#FF4D4D" d="M1403.477,1993.075l43.467-7.573l-1.842-21.227c-10.546,0.63-35.471,1.759-45.954,2.499
										L1403.477,1993.075z"/>
								</g>
								<g>
									<path fill="#FF4D4D" d="M1174.925,1985.992l-3.935-29.499c-10.978,0.513-26.95,1.487-39.63,2.296l-5.779,3.28
										c0,0-1.681,15.798-4.317,31.222L1174.925,1985.992z"/>
								</g>
								<g>
									<path fill="#6FABFF" d="M1071.534,1258.264l-43.635,17.968c0,0-25.667,132.188,20.534,287.479
										c46.202,155.29,70.586,414.534,70.586,414.534h103.954c0,0,3.199-144.247-25.035-245.635
										c-28.235-101.388-50.846-144.715-53.75-313.923h20.534c0,0,36.434,97.538,109.587,228.443
										c73.153,130.905,102.242,331.114,102.242,331.114h90.267c0,0,2.567-112.938-29.518-219.46
										c-32.084-106.521-142.456-290.045-147.589-482.553L1071.534,1258.264z"/>
								</g>
								<g>
									<path fill="#4B8EEB" d="M1144.188,1418.688h-53.156c0,0,26.756,34.922,36.845,115.754s-1.127,132.169,44.065,220.332
										c35.646,69.539,24.196,179.928,17.767,223.471h33.265c0,0,3.199-144.247-25.036-245.635
										S1147.092,1587.895,1144.188,1418.688z"/>
								</g>
								<g>
									<path fill="#4B8EEB" d="M1466.817,1978.245c0,0,2.567-112.938-29.518-219.46
										c-32.084-106.521-142.456-290.045-147.589-482.553l-218.176-17.968l-43.635,17.968c0,0-0.581,3.003-1.409,8.6
										l247.408,44.923c0,0,6.295,88.654,42.088,178.612c35.794,89.958,104.458,232.455,107.282,334.604
										c1.537,55.586-7.156,103.31-15.401,135.273H1466.817z"/>
								</g>
								<g>
									<path fill="#008B86" d="M1229.348,864.906l-34.288,8.663c0,0-50.583,7.534-95.553,15.019l12.774,106.262l235.822,14.438
										c0,0,6.283-72.19-1.405-104.31l-53.459-20.82l-48.608-12.513l-11.069-6.738H1229.348z"/>
								</g>
								<g>
									<path fill="#008B86" d="M1154.455,961.801l-54.948-73.214c0,0-71.608,218.67-71.608,387.645h261.811l26.276-251.473
										l-9.592-73.225L1154.455,961.801z"/>
								</g>
								<g>
									<path fill="#008B86" d="M1346.698,904.977c29.205,33.677,53.675,76.294,102.861,159.249L1559.33,927.15l39.785,24.385
										c0,0-77.003,176.786-146.948,228.443c0,0-107.17-51.265-164.923-155.219c-66.878-120.381,49.951-89.781,49.951-89.781
										L1346.698,904.977z"/>
								</g>
								<g>
									<path fill="#FF7C70" d="M1212.385,611.758c0,0-42.352,52.939-54.865,116.467c-12.513,63.527,14.438,86.629,59.678,77.003
										l-22.139,68.341l12.427,49.305l85.752-38.717l16.363-123.205l33.689-49.09l-7.701-79.891l-44.277-20.213H1212.385z"/>
								</g>
								<g>
									<path fill="#20211B" d="M1260.191,713.466c22.568,3.149,37.218-44.918,50.694-32.085
										c13.476,12.834-3.208,62.244-32.084,73.795c0,0-21.817,30.159-5.134,46.844c16.684,16.684,46.844-26.951,46.844-26.951
										s28.234,12.834,44.918-25.026c16.684-37.86-2.567-65.453-2.567-65.453s46.202-41.71,29.518-76.361
										s-58.394-22.459-58.394-22.459s-12.834-63.527-39.785-69.944c-26.951-6.417-34.01,17.967-34.01,17.967
										s-23.142-19.494-52.705-11.052c-38.046,10.864-33.282,72.013-33.282,72.013s-35.713,2.567-34.49,32.726
										c1.551,38.256,46.213,25.353,46.213,25.353s15.228-27.278,26.458-41.074c0,0,6.096,20.855,27.914,26.63
										c21.818,5.775,36.577-10.267,38.502,5.775C1280.726,660.206,1232.599,709.616,1260.191,713.466z"/>
								</g>
								<g>
									<path fill="#FF4D4D" d="M1262.646,777.605c-13.5,15.5-45.448,27.623-45.448,27.623l-13.711,42.325
										C1254.146,826.605,1262.646,777.605,1262.646,777.605z"/>
								</g>
								<g>
									<polygon fill="#006E6A" points="1307.307,1107.818 1312.018,1062.735 1281.377,1026.417 									"/>
								</g>
								<g>
									<path fill="#FF7C70" d="M1559.33,927.15c0,0-8.948-36.756,11.478-53.704c20.425-16.948,13.037-57.364,24.771-52.584
										s9.995,40.276,1.304,52.949c0,0,57.365-2.538,56.061,7.022s-12.603,13.906-12.603,13.906s17.817,0.436,17.383,7.389
										s-15.646,9.126-15.646,9.126s17.834,1.304,15.653,8.691s-18.695,10.43-18.695,10.43s16.515-1.334,13.907,6.721
										c-2.607,8.056-53.829,14.438-53.829,14.438L1559.33,927.15z"/>
								</g>
								<g>
									<path fill="#20211B" d="M1124.931,1278.188c-0.061,0-0.121-0.003-0.183-0.009c-1.075-0.1-1.867-1.052-1.767-2.127
										c10.79-116.707,32.418-206.111,48.661-260.562c17.617-59.053,32.904-90.946,33.057-91.261
										c0.47-0.973,1.639-1.381,2.611-0.91c0.973,0.47,1.38,1.639,0.91,2.611c-0.151,0.313-15.334,32.004-32.865,90.797
										c-16.18,54.261-37.725,143.358-48.479,259.684C1126.782,1277.426,1125.929,1278.188,1124.931,1278.188z"/>
								</g>
								<g>
									<path fill="#20211B" d="M1222.057,1007.2c-5.098,0-9.246-4.148-9.246-9.247c0-5.098,4.148-9.246,9.246-9.246
										s9.246,4.148,9.246,9.246C1231.303,1003.051,1227.155,1007.2,1222.057,1007.2z M1222.057,992.619
										c-2.942,0-5.335,2.393-5.335,5.334c0,2.942,2.393,5.335,5.335,5.335s5.335-2.393,5.335-5.335
										C1227.392,995.011,1224.999,992.619,1222.057,992.619z"/>
								</g>
								<g>
									<path fill="#20211B" d="M1200.196,1095.734c-5.098,0-9.246-4.148-9.246-9.246c0-5.099,4.147-9.247,9.246-9.247
										s9.246,4.148,9.246,9.247C1209.442,1091.585,1205.294,1095.734,1200.196,1095.734z M1200.196,1081.153
										c-2.941,0-5.334,2.393-5.334,5.335c0,2.941,2.393,5.334,5.334,5.334c2.942,0,5.335-2.393,5.335-5.334
										C1205.531,1083.545,1203.138,1081.153,1200.196,1081.153z"/>
								</g>
								<g>
									<path fill="#20211B" d="M1185.616,1184.268c-5.098,0-9.246-4.148-9.246-9.246s4.148-9.246,9.246-9.246
										s9.246,4.148,9.246,9.246S1190.714,1184.268,1185.616,1184.268z M1185.616,1169.688c-2.942,0-5.335,2.393-5.335,5.334
										s2.393,5.334,5.335,5.334s5.335-2.393,5.335-5.334S1188.558,1169.688,1185.616,1169.688z"/>
								</g>
								<g>
									<path fill="#2F3027" d="M1353.023,768.863c-38.411-29.712-27.707-68.512-19.106-99.688
										c3.801-13.779,7.392-26.794,6.355-37.161c-1.43-14.295-11.5-16.028-24.251-18.222c-14.964-2.575-33.588-5.779-36.589-34.79
										c-1.734-16.765-9.724-29.766-23.748-38.64c-18.917-11.972-44.758-13.165-55.387-9.414l-1.302-3.688
										c11.654-4.112,38.564-2.997,58.781,9.797c14.875,9.413,23.708,23.778,25.546,41.542
										c2.696,26.062,18.286,28.744,33.362,31.338c12.662,2.179,25.754,4.431,27.479,21.687
										c1.109,11.092-2.575,24.449-6.477,38.59c-8.722,31.615-18.607,67.448,17.729,95.554L1353.023,768.863z"/>
								</g>
								<g>
									<path fill="#2F3027" d="M1304.497,677.019l-2.702-2.828c0.201-0.193,20.104-19.412,16.514-32.209
										c-1.408-5.016-6.517-8.523-15.187-10.425c-35.37-7.758-37.151-12.069-48.739-40.114c-1.45-3.509-3.093-7.486-4.972-11.872
										c-3.489-8.142-9.119-13.565-16.735-16.119c-21.473-7.202-52.063,10.042-52.37,10.217l-1.939-3.396
										c1.313-0.75,32.438-18.28,55.553-10.529c8.718,2.924,15.14,9.076,19.086,18.287c1.89,4.409,3.538,8.398,4.992,11.918
										c11.156,26.998,12.589,30.467,45.962,37.787c10.194,2.236,16.289,6.675,18.116,13.193
										C1326.294,655.979,1305.389,676.167,1304.497,677.019z"/>
								</g>
								<g>
									<path fill="#FFFFFF" d="M1232.075,749.477c-37.006,33.485-49.177-0.351-49.177-0.351L1232.075,749.477z"/>
								</g>
								<g>
									<path fill="#FF4D4D" d="M1289.779,734.19c-0.577,0-1.161-0.057-1.748-0.178c-2.816-0.58-4.777-2.322-5.669-5.038
										c-2.812-8.558,6.122-25.58,10.802-30.78c4.14-4.6,10.322-6.637,14.381-4.739c1.913,0.894,4.977,3.414,4.002,10.235
										c-0.153,1.07-1.148,1.809-2.212,1.66c-1.069-0.153-1.813-1.144-1.66-2.212c0.324-2.268,0.277-5.174-1.787-6.139
										c-2.48-1.162-6.883,0.552-9.817,3.813c-4.665,5.184-12.08,20.594-9.994,26.943c0.454,1.382,1.3,2.13,2.742,2.427
										c3.648,0.752,7.867-3.171,10.239-7.135c2.313-3.866,2.601-7.104,1.696-8.188c-0.874-1.047-3.491-0.885-7,0.433
										c-1.013,0.38-2.139-0.133-2.518-1.144s0.133-2.138,1.144-2.518c5.444-2.044,9.273-1.8,11.378,0.724
										c2.687,3.22,1.067,8.672-1.344,12.701C1299.776,729.465,1295.03,734.19,1289.779,734.19z"/>
								</g>
								<g>
									<path fill="#20211B" d="M1133.994,1980.201c-0.066,0-0.133-0.004-0.2-0.011c-1.074-0.108-1.857-1.068-1.749-2.143
										c0.104-1.024,9.869-104.48-33.848-279.106c-42.918-171.431-40.273-363.108-29.454-423.057
										c0.192-1.063,1.217-1.762,2.271-1.577c1.063,0.192,1.769,1.209,1.577,2.272c-10.769,59.667-13.376,250.551,29.399,421.412
										c43.902,175.364,34.05,279.42,33.946,280.45C1135.835,1979.45,1134.985,1980.201,1133.994,1980.201z"/>
								</g>
								<g>
									<path fill="#20211B" d="M1432.843,1980.631c-0.981,0-1.827-0.737-1.94-1.735
										c-12.846-112.913-67.996-220.813-121.331-325.158c-15.842-30.994-30.806-60.271-44.764-89.777
										c-61.12-129.206-73.731-286.011-73.852-287.579c-0.083-1.077,0.723-2.017,1.8-2.1c1.083-0.076,2.017,0.725,2.099,1.801
										c0.12,1.562,12.684,157.667,73.488,286.206c13.933,29.452,28.883,58.702,44.711,89.669
										c53.493,104.657,108.807,212.877,121.733,326.497c0.122,1.072-0.649,2.042-1.722,2.164
										C1432.992,1980.626,1432.917,1980.631,1432.843,1980.631z"/>
								</g>
							</g>
							<g>
								<path fill="#008B86" d="M1135.06,911.907l-35.553-23.319l-172.721,153.89l-229.032,44.564v41.533l239.136,20.208
									c61.828-29.292,114.777-66.369,164.466-106.306L1135.06,911.907z"/>
							</g>
							<g>
								<path fill="#006E6A" d="M1050.142,1081.421c0.19-0.896,21.811-102.873,43.422-170.688c0,0-71.359,88.154-105.083,210.749
									C1009.957,1108.938,1030.415,1095.5,1050.142,1081.421z"/>
							</g>
						</g>
					</g>
					<g>
						<path fill="#2F3027" d="M1409.921,965.627H1071.41V485.279h338.511V965.627z M1074.359,962.678h332.613v-474.45h-332.613
							V962.678z"/>
					</g>
				</g>
			</g>
			<g>
				<g>
					<rect x="1530.679" y="481.645" fill="#2F3027" width="468.869" height="10"/>
				</g>
				<g>
					<rect x="1530.679" y="564.773" fill="#2F3027" width="201.842" height="2.949"/>
				</g>
				<g>
					<rect x="1530.679" y="644.376" fill="#2F3027" width="420.864" height="2.949"/>
				</g>
				<g>
					<rect x="1530.679" y="723.979" fill="#2F3027" width="321.854" height="2.949"/>
				</g>
				<g>
					<rect x="1530.679" y="803.582" fill="#2F3027" width="501.873" height="2.949"/>
				</g>
				<g>
					<rect x="1530.679" y="883.184" fill="#2F3027" width="210.432" height="2.949"/>
				</g>
				<g>
					<rect x="1530.679" y="962.787" fill="#2F3027" width="602" height="2.949"/>
				</g>
			</g>
			<g>
				<rect x="1072.885" y="439.206" fill="#2F3027" width="335.562" height="2.949"/>
			</g>
		</g>
		<g>
			<rect x="963.044" y="1095.562" fill="#EBB47C" width="1278" height="10"/>
		</g>
		<g>
			<rect x="963.044" y="1159.105" fill="#EBB47C" width="1278" height="10"/>
		</g>
	</g>
	<g>
		<g>
			<path fill="#FFFFFF" d="M345.167,1016.458l-235.182,32.43c-29.383,4.331-49.69,31.662-45.358,61.045l18.937,128.447
				c4.332,29.382,31.663,49.689,61.045,45.358l235.182-32.43c29.383-4.331,49.69-31.662,45.359-61.045l-18.937-128.447
				C401.881,1032.435,374.55,1012.126,345.167,1016.458z"/>
		</g>
		<g>
			<g>
				
					<rect x="957.754" y="532.03" transform="matrix(0.5957 0.8032 -0.8032 0.5957 864.382 -538.8763)" fill="#2F3027" width="19.436" height="114.294"/>
			</g>
			<g>
				<g>
					<path fill="#FF4202" d="M1364.99,294.356c-74.24-100.101-215.57-121.065-315.671-46.825s-121.065,215.571-46.826,315.671
						c74.24,100.101,215.571,121.065,315.671,46.826C1418.266,535.788,1439.23,394.457,1364.99,294.356z M1017.821,551.834
						c-67.961-91.635-48.77-221.014,42.866-288.975c91.635-67.962,221.014-48.771,288.975,42.865
						c67.962,91.636,48.771,221.014-42.865,288.976C1215.162,662.662,1085.783,643.47,1017.821,551.834z"/>
				</g>
			</g>
			<g>
				
					<rect x="687.944" y="458.327" transform="matrix(0.5957 0.8032 -0.8032 0.5957 910.2231 -274.6483)" fill="#FF4202" width="79.972" height="617.013"/>
			</g>
		</g>
		<g>
			
				<rect x="240.202" y="938.221" transform="matrix(0.1314 0.9913 -0.9913 0.1314 1313.2075 727.0798)" fill="#2F3027" width="2.949" height="349.469"/>
		</g>
		<g>
			<polygon fill="#FF7C70" points="356.369,1522.131 362.268,1550.461 359.198,1577.664 397.216,1589.462 401.149,1568.487 
				393.283,1563.898 401.149,1522.131 361.613,1517.543 			"/>
		</g>
		<g>
			<polygon fill="#FF7C70" points="569.607,1516.048 575.506,1544.378 575.506,1577.664 613.524,1589.462 617.457,1568.487 
				609.591,1563.898 614.388,1516.048 574.851,1511.46 			"/>
		</g>
		<g>
			<path fill="#2F3027" d="M136.702,1285.795c-0.001,0-0.002,0-0.003,0c-27.157-0.001-50.627-20.293-54.594-47.2l-18.937-128.447
				c-2.153-14.601,1.509-29.165,10.312-41.012c8.802-11.846,21.69-19.555,36.291-21.707l235.195-32.432
				c2.678-0.395,5.412-0.596,8.112-0.596c27.157,0,50.627,20.291,54.594,47.2l18.937,128.447
				c2.152,14.601-1.51,29.165-10.312,41.012c-8.802,11.846-21.69,19.555-36.291,21.707L144.81,1285.2
				C142.132,1285.594,139.4,1285.795,136.702,1285.795z M353.078,1017.351c-2.557,0-5.146,0.19-7.695,0.566l-235.195,32.432
				c-13.808,2.035-26.008,9.333-34.34,20.547c-8.332,11.214-11.798,25.001-9.761,38.822l18.937,128.447
				c3.755,25.471,25.971,44.679,51.677,44.681c0.001,0,0.002,0,0.003,0c2.555,0,5.142-0.19,7.691-0.566l235.195-32.432
				c13.808-2.035,26.008-9.333,34.34-20.547s11.799-25.001,9.761-38.822l-18.937-128.447
				C400.998,1036.56,378.782,1017.351,353.078,1017.351z"/>
		</g>
		<g>
			<path fill="#FFFFFF" d="M166.421,1109.837l-26.356,3.635c-3.293,0.485-5.568,3.548-5.083,6.841l2.122,14.396
				c0.485,3.292,3.548,5.568,6.841,5.083l26.356-3.635c3.293-0.485,5.569-3.548,5.083-6.841l-2.123-14.395
				C172.776,1111.628,169.713,1109.352,166.421,1109.837z"/>
		</g>
		<g>
			<path fill="#2F3027" d="M143.059,1141.332C143.059,1141.332,143.059,1141.332,143.059,1141.332c-3.689,0-6.876-2.756-7.415-6.409
				l-2.122-14.395c-0.292-1.982,0.205-3.959,1.399-5.567c1.195-1.608,2.945-2.655,4.928-2.947l26.37-3.637
				c0.351-0.052,0.722-0.079,1.088-0.079c3.688,0,6.875,2.755,7.414,6.409l2.123,14.395c0.603,4.092-2.235,7.911-6.328,8.515
				l-26.369,3.637C143.795,1141.304,143.425,1141.332,143.059,1141.332z M167.307,1111.247c-0.222,0-0.445,0.017-0.671,0.05
				l-26.37,3.637c-1.189,0.176-2.251,0.811-2.977,1.786s-1.026,2.176-0.849,3.379l2.122,14.395c0.327,2.217,2.26,3.889,4.496,3.89
				c0,0,0,0,0,0c0.222,0,0.445-0.017,0.671-0.05l26.369-3.637c2.47-0.364,4.192-2.682,3.826-5.165l-2.123-14.395
				C171.476,1112.919,169.543,1111.247,167.307,1111.247z"/>
		</g>
		<g>
			<path fill="#FFFFFF" d="M348.236,1085.585l-26.356,3.634c-3.293,0.485-5.569,3.548-5.083,6.841l2.122,14.396
				c0.485,3.292,3.548,5.568,6.841,5.083l26.356-3.635c3.292-0.485,5.568-3.548,5.083-6.841l-2.122-14.395
				C354.592,1087.375,351.529,1085.099,348.236,1085.585z"/>
		</g>
		<g>
			<path fill="#2F3027" d="M324.875,1117.079L324.875,1117.079c-3.689,0-6.876-2.755-7.415-6.408l-2.122-14.396
				c-0.292-1.981,0.205-3.959,1.4-5.567c1.195-1.608,2.945-2.655,4.927-2.947l26.37-3.636c0.352-0.052,0.723-0.079,1.089-0.079
				c3.688,0,6.874,2.755,7.413,6.408l2.122,14.395c0.603,4.092-2.235,7.911-6.328,8.515L325.962,1117
				C325.611,1117.051,325.24,1117.079,324.875,1117.079z M349.124,1086.995c-0.222,0-0.446,0.017-0.672,0.05l-26.37,3.636
				c-1.189,0.176-2.251,0.811-2.976,1.786c-0.725,0.977-1.027,2.176-0.85,3.379l2.122,14.396c0.327,2.217,2.26,3.888,4.496,3.889h0
				c0.221,0,0.445-0.017,0.671-0.05l26.369-3.637c2.47-0.364,4.192-2.682,3.826-5.165l-2.122-14.395
				C353.292,1088.667,351.359,1086.995,349.124,1086.995z"/>
		</g>
		<g>
			<path fill="#6FABFF" d="M481.721,920.408l-66.826,34.401c0,0-26.888,136.42-50.613,303.682s-27.284,285.888-27.284,285.888
				h64.058c0,0,46.264-205.223,60.499-276.397c14.235-71.176,65.244-209.968,65.244-209.968s9.49,205.223,8.304,266.908
				c-1.186,61.685,4.745,219.457,4.745,219.457h72.362c0,0,6.327-86.597,17.399-201.664
				c11.071-115.066,18.584-319.103,13.048-387.905l-90.156-43.892l-61.741,10.677L481.721,920.408z"/>
		</g>
		<g>
			<path fill="#FF7C70" d="M252.774,938.993c0,0,16.607,13.84,18.98,26.889s-1.582,25.702-4.35,26.098c-2.768,0.396-7.513,0-7.513,0
				s-0.395,11.862-12.258,17.398c-11.862,5.535-15.026-3.954-26.493-2.373c-11.467,1.582-20.562-8.699-23.725-19.375
				c-3.163-10.677,0.396-31.634,21.353-48.637H252.774z"/>
		</g>
		<g>
			<path fill="#20211B" d="M577.915,1570.195c-11.827-10.137-20.04,24.049-19.333,39.609H702.87c0,0-0.708-14.854-25.463-21.22
				c-24.755-6.365-34.475-12.023-42.936-18.39c-8.46-6.365-19.07-14.853-25.436-10.609c-6.366,4.244-1.415,12.731-1.415,12.731
				S587.817,1578.683,577.915,1570.195z"/>
		</g>
		<g>
			<path fill="#20211B" d="M361.606,1570.195c-11.827-10.137-20.04,24.049-19.333,39.609h144.289c0,0-0.708-14.854-25.463-21.22
				c-24.755-6.365-34.475-12.023-42.936-18.39c-8.46-6.365-19.07-14.853-25.436-10.609c-6.366,4.244-1.415,12.731-1.415,12.731
				S371.508,1578.683,361.606,1570.195z"/>
		</g>
		<g>
			<path fill="#2F3027" d="M176.923,1040.535l-2.948-0.084c0.521-18.198,6.916-61.141,54.9-66.854
				c44.029-5.246,61.081,29.137,67.326,50.098l-2.827,0.842c-5.979-20.07-22.261-53.01-64.15-48.01
				C183.52,981.967,177.423,1023.102,176.923,1040.535z"/>
		</g>
		<g>
			<path fill="#4B8EEB" d="M642.657,954.809l-25.684-12.504l-202.077,12.504l229.389,38.672
				C644.006,978.125,643.475,964.98,642.657,954.809z"/>
		</g>
		<g>
			<path fill="#FF7C70" d="M724.508,406.76c0,0-27.679,73.943-52.195,87.783c-24.516,13.84-43.892-12.653-43.892-12.653
				l-10.676,34.006l-65.244-18.189l42.706-68.803c0,0,41.519-37.565,47.845-39.542s68.408-9.095,68.408-9.095L724.508,406.76z"/>
		</g>
		<g>
			<path fill="#20211B" d="M578.994,384.616c-6.722-7.513-13.839-24.911-8.304-33.61s19.375-0.791,23.725-14.235
				s12.258-41.124,38.355-46.66c26.098-5.536,35.983,25.702,49.823,20.167c13.84-5.536,37.565-12.653,46.264,3.954
				c8.699,16.607-5.931,29.656,5.141,49.823s28.075,26.493,21.353,43.496s-42.105,26.011-42.105,26.011s-2.577-16.125-8.508-31.942
				c-5.931-15.817-20.167-17.003-21.353-3.164c-1.187,13.839,4.35,42.136-9.886,35.105c-14.235-7.031-8.699-41.037-28.075-29.965
				c-19.375,11.071,2.373,40.728-12.653,52.195c-15.026,11.467-37.564,8.304-37.169-12.653c0,0-26.493-0.396-31.633-18.189
				C558.828,407.155,578.994,384.616,578.994,384.616z"/>
		</g>
		<g>
			<polygon fill="#FF4D4D" points="621.897,470.422 624.591,494.091 628.422,481.889 			"/>
		</g>
		<g>
			<path fill="#6FABFF" d="M427.549,494.091c21.808-13.801,74.339-5.09,135.581,17.059c74.554,26.963,105.625,29.261,142.003,80.665
				s54.567,120.207,123.37,122.58s113.09-84.619,113.09-84.619l27.679,23.725c0,0-23.725,149.468-131.279,170.821
				s-172.402-44.287-172.402-44.287l-22.934,174.774H414.896c0,0-35.587-75.92-37.169-201.663c0,0-91.737,92.528-124.952,185.847
				h-34.006C218.768,938.993,206.906,633.73,427.549,494.091z"/>
		</g>
		<g>
			<path fill="#FF7C70" d="M941.593,629.776c0,0-2.274-40.036,4.25-46.857c6.524-6.821,10.083,2.373,10.083,2.373
				s2.669-22.835,15.125-23.725s13.938,8.897,24.318,16.311c10.379,7.414,16.014,7.71,12.752,26.691
				c-3.262,18.98-25.504,42.409-38.85,48.933L941.593,629.776z"/>
		</g>
		<g>
			<path fill="#FFFFFF" d="M513.179,495.645c0,0,20.365-11.464,51.987-18.344l56.731,25.368l13.438,33.916L513.179,495.645z"/>
		</g>
		<g>
			<path fill="#4B8EEB" d="M398.304,552.229c0,0-66.318,95.576-56.208,240.922c20.347-24.589,35.63-40.006,35.63-40.006
				S362.91,661.361,398.304,552.229z"/>
		</g>
		<g>
			<path fill="#2F3027" d="M733.998,364.055c-11.072-20.167,3.559-33.215-5.14-49.823s-32.425-9.49-46.264-3.954
				c-13.839,5.536-23.725-25.702-49.823-20.167c-26.097,5.536-34.006,33.215-38.355,46.66c-4.35,13.444-18.189,5.536-23.725,14.235
				c-5.536,8.699,1.582,26.098,8.304,33.61c0,0-12.245,13.689-15.218,28.152c9.567,8.175,21.115,12.156,30.188,1.256
				c19.232-23.106,27.129-35.932,41.371-38.122c14.241-2.19,20.632,20.872,34.888,0c14.257-20.871,15.24-41.027,27.039-34.636
				c10.49,5.682,26.033,46.337,51.465,42.5C744.208,378.41,738.594,372.426,733.998,364.055z"/>
		</g>
		<g>
			<path fill="#4B8EEB" d="M590.583,689.489c15.147,75.275,50.54,111.013,70.398,125.677l4.61-35.131
				C613.436,736.207,590.583,689.489,590.583,689.489z"/>
		</g>
		<g>
			<path fill="#FFFFFF" d="M819.56,761.187c-13.043,0-26.595-2.152-40.633-6.466c-22.481-6.909-44.104-22.705-64.27-46.95
				c-16.062-19.312-31.251-44.011-45.146-73.41c-23.628-49.996-35.491-96.95-35.608-97.418l2.861-0.715
				c0.117,0.466,11.922,47.179,35.434,96.917c21.621,45.737,57.838,103.466,107.594,118.756
				c72.955,22.419,130.139-13.705,174.824-110.433l2.678,1.237c-18.947,41.014-39.441,70.452-62.652,89.998
				C872.118,751.669,846.975,761.187,819.56,761.187z"/>
		</g>
		<g>
			<path fill="#4B8EEB" d="M430.927,1356.909c-18.466,93.149-68.384,157.838-93.875,185.876c-0.037,1.044-0.054,1.594-0.054,1.594
				h64.058c0,0,46.264-205.223,60.499-276.397c14.235-71.176,65.244-209.968,65.244-209.968H490.76
				C490.76,1058.013,456.175,1229.542,430.927,1356.909z"/>
		</g>
		<g>
			
				<rect x="476.948" y="1055.352" transform="matrix(0.9989 0.0476 -0.0476 0.9989 50.8266 -22.6722)" fill="#FFFFFF" width="49.879" height="2.951"/>
		</g>
		<g>
			<path fill="#4B8EEB" d="M644.076,984.163l-13.371-5.279c0,0-0.138,144.554-10.298,268.429
				c-10.16,123.876-17.042,219.248-29.824,246.778c-6.286,13.539-14.139,33.497-20.497,50.288h42.124
				c0,0,6.328-86.597,17.398-201.664C639.384,1241.106,646.384,1070.143,644.076,984.163z"/>
		</g>
		<g>
			<path fill="#FF7C70" d="M205.161,972.493l-6.719,9.013l-1.548,3.945c0,0,1.211,6.242,4.133,10.223
				c2.923,3.98,24.454-3.845,24.454-3.845s15.24-2.294,15.896-1.966c0.655,0.327,12.126-2.458,12.126-2.458l1.475-19.992
				c0,0-15.076-2.622-18.681-2.295c-3.605,0.328-13.484,2.131-17.64,2.786C214.501,968.559,205.161,972.493,205.161,972.493z"/>
		</g>
	</g>
	<g>
		<circle fill="#D4E6FF" cx="269.888" cy="199.294" r="190.135"/>
	</g>
	<g>
		<polygon fill="#D4E6FF" points="341.731,364.424 471.392,413.269 413.735,243.188 		"/>
	</g>
	<g>
		<polygon fill="#2F3027" points="2298.813,1230.653 905.276,1230.653 905.276,982.728 908.226,982.728 908.226,1227.704 
			2295.863,1227.704 2295.863,338.444 1457.044,338.444 1457.044,335.495 2298.813,335.495 		"/>
	</g>
	<g>
		<g>
			<g>
				<path fill="#FF7C70" d="M2777.82,1499.701l-21.481,12.192c0,0-2.903,27.288-6.968,42.965
					c-4.064,15.676-27.288,15.834-5.226,22.142c22.063,6.307,19.74,12.5,33.675,6.501c13.935-6,26.642-19.013,26.642-19.013
					l-8.644-64.787H2777.82z"/>
			</g>
			<g>
				<path fill="#FF7C70" d="M2995.736,1490.218l12.396,75.308c0,0,21.086,22.813,25.73,17.975
					c4.645-4.839,13.354-12.387,13.354-15.289c0-2.903-3.139-18.005-3.139-18.005l-3.828-44.119h-16.838L2995.736,1490.218z"/>
			</g>
			<g>
				<path fill="#20211B" d="M2804.462,1564.488c0,0,6.579,12.12,6.232,41.209h-157.565c0,0,4.502-19.738,39.132-27.704
					c34.63-7.965,49.716-33.274,61.987-30.82c8.657,1.731,0,23.895,0,23.895L2804.462,1564.488z"/>
			</g>
			<g>
				<path fill="#20211B" d="M3000.514,1605.697h119.473c0,0,3.464-13.159-14.891-25.279c-18.354-12.121-37.141-13.493-49.564-23.716
					c-12.423-10.222-29.046-10.568-30.431-3.988c-1.385,6.579,3.117,14.544,3.117,14.544l-20.086-1.731
					C3008.132,1565.526,2999.128,1580.417,3000.514,1605.697z"/>
			</g>
			<g>
				<path fill="#FF4D4D" d="M3003.85,1539.509l38.714-6.745l-1.641-18.905c-9.393,0.561-31.592,1.566-40.929,2.226L3003.85,1539.509
					z"/>
			</g>
			<g>
				<path fill="#FF4D4D" d="M2800.288,1533.202l-3.506-26.274c-9.777,0.456-24.003,1.324-35.297,2.045l-5.146,2.921
					c0,0-1.498,14.07-3.847,27.809L2800.288,1533.202z"/>
			</g>
			<g>
				<path fill="#6FABFF" d="M2708.201,885.043l-38.864,16.003c0,0-22.861,117.734,18.289,256.045s62.868,369.209,62.868,369.209
					h92.589c0,0,2.849-128.475-22.299-218.776s-45.286-128.892-47.873-279.599h18.289c0,0,32.45,86.873,97.604,203.466
					c65.154,116.592,91.063,294.909,91.063,294.909h80.396c0,0,2.286-100.589-26.29-195.463s-126.88-258.332-131.452-429.791
					L2708.201,885.043z"/>
			</g>
			<g>
				<path fill="#4B8EEB" d="M2772.911,1027.925h-47.344c0,0,23.83,31.104,32.816,103.099c8.986,71.993-1.004,117.717,39.247,196.24
					c31.748,61.937,21.55,160.255,15.824,199.036h29.628c0,0,2.849-128.475-22.299-218.776S2775.498,1178.632,2772.911,1027.925z"/>
			</g>
			<g>
				<path fill="#4B8EEB" d="M3060.264,1526.3c0,0,2.286-100.589-26.29-195.463s-126.88-258.332-131.452-429.792l-194.32-16.002
					l-38.864,16.002c0,0-0.518,2.676-1.255,7.66l220.356,40.012c0,0,5.605,78.96,37.486,159.083
					c31.88,80.121,93.035,207.038,95.552,298.018c1.369,49.509-6.374,92.015-13.718,120.482H3060.264z"/>
			</g>
			<g>
				<path fill="#008B86" d="M2848.76,534.695l-30.539,7.715c0,0-45.052,6.71-85.104,13.377l11.377,94.643l210.037,12.859
					c0,0,5.597-64.297-1.251-92.904l-47.614-18.544l-43.294-11.145l-9.858-6.001H2848.76z"/>
			</g>
			<g>
				<path fill="#008B86" d="M2782.056,620.996l-48.939-65.208c0,0-63.779,194.76-63.779,345.259h233.185l23.403-223.977
					l-8.544-65.218L2782.056,620.996z"/>
			</g>
			<g>
				<path fill="#008B86" d="M2953.279,570.385c26.011,29.994,47.807,67.952,91.614,141.836l97.768-122.088l35.436,21.718
					c0,0-68.584,157.457-130.881,203.465c0,0-95.452-45.658-146.891-138.247c-59.565-107.218,44.489-79.965,44.489-79.965
					L2953.279,570.385z"/>
			</g>
			<g>
				<path fill="#FF7C70" d="M2833.652,309.226c0,0-37.722,47.151-48.866,103.733s12.859,77.157,53.152,68.584l-19.718,60.868
					l11.068,43.914l76.376-34.483l14.574-109.733l30.005-43.722l-6.858-71.156l-39.436-18.003H2833.652z"/>
			</g>
			<g>
				<path fill="#20211B" d="M2876.231,399.813c20.1,2.805,33.148-40.007,45.15-28.577s-2.857,55.438-28.576,65.726
					c0,0-19.433,26.862-4.572,41.722c14.859,14.86,41.722-24.004,41.722-24.004s25.147,11.431,40.007-22.29
					c14.86-33.72-2.286-58.296-2.286-58.296s41.15-37.149,26.29-68.012c-14.859-30.863-52.009-20.004-52.009-20.004
					s-11.431-56.582-35.435-62.297s-30.291,16.003-30.291,16.003s-20.611-17.362-46.942-9.844
					c-33.886,9.676-29.644,64.139-29.644,64.139s-31.808,2.286-30.719,29.148c1.381,34.073,41.16,22.581,41.16,22.581
					s13.563-24.295,23.565-36.583c0,0,5.429,18.575,24.861,23.719c19.432,5.144,32.577-9.145,34.292,5.144
					C2894.521,352.376,2851.655,396.384,2876.231,399.813z"/>
			</g>
			<g>
				<path fill="#FF4D4D" d="M2868.229,465.253c-8.001,8.287-30.291,16.289-30.291,16.289l-8.649,26.7
					C2857.469,492.417,2868.229,465.253,2868.229,465.253z"/>
			</g>
			<g>
				<polygon fill="#006E6A" points="2918.194,751.046 2922.391,710.893 2895.101,678.547 				"/>
			</g>
			<g>
				<path fill="#FF7C70" d="M3142.661,590.133c0,0-7.969-32.737,10.223-47.833c18.192-15.095,11.612-51.092,22.063-46.834
					c10.451,4.258,8.902,35.873,1.162,47.16c0,0,51.092-2.26,49.931,6.255s-11.225,12.386-11.225,12.386s15.869,0.387,15.482,6.58
					c-0.388,6.193-13.935,8.128-13.935,8.128s15.884,1.161,13.941,7.741c-1.942,6.581-16.65,9.29-16.65,9.29
					s14.708-1.188,12.386,5.986s-47.942,12.859-47.942,12.859L3142.661,590.133z"/>
			</g>
			<g>
				<path fill="#FFFFFF" d="M2757.094,901.169l-2.672-0.246c18.389-198.89,73.109-314.043,73.659-315.183l2.416,1.167
					C2829.948,588.043,2775.434,702.807,2757.094,901.169z"/>
			</g>
			<g>
				<path fill="#FFFFFF" d="M2842.267,661.029c-4.32,0-7.834-3.515-7.834-7.834s3.514-7.834,7.834-7.834s7.834,3.515,7.834,7.834
					S2846.587,661.029,2842.267,661.029z M2842.267,648.042c-2.841,0-5.152,2.311-5.152,5.152s2.312,5.152,5.152,5.152
					s5.152-2.311,5.152-5.152S2845.107,648.042,2842.267,648.042z"/>
			</g>
			<g>
				<path fill="#FFFFFF" d="M2822.796,739.883c-4.32,0-7.834-3.515-7.834-7.835c0-4.32,3.514-7.834,7.834-7.834
					s7.834,3.515,7.834,7.834C2830.63,736.369,2827.116,739.883,2822.796,739.883z M2822.796,726.896
					c-2.841,0-5.152,2.311-5.152,5.152s2.312,5.152,5.152,5.152s5.152-2.312,5.152-5.152S2825.637,726.896,2822.796,726.896z"/>
			</g>
			<g>
				<path fill="#FFFFFF" d="M2809.81,818.737c-4.32,0-7.834-3.514-7.834-7.834s3.514-7.834,7.834-7.834s7.834,3.514,7.834,7.834
					S2814.13,818.737,2809.81,818.737z M2809.81,805.75c-2.841,0-5.152,2.312-5.152,5.152s2.312,5.152,5.152,5.152
					s5.152-2.312,5.152-5.152S2812.65,805.75,2809.81,805.75z"/>
			</g>
			<g>
				<path fill="#2F3027" d="M2958.913,449.153c-34.211-26.463-24.678-61.021-17.018-88.788c3.386-12.272,6.584-23.865,5.66-33.098
					c-1.273-12.732-10.243-14.275-21.6-16.229c-13.328-2.293-29.915-5.147-32.588-30.986c-1.51-14.593-9.314-26.228-23.196-34.583
					c-19.075-11.479-43.142-12.734-46.723-11.288l-1.307-3.229c4.42-1.788,29.852-0.487,49.825,11.533
					c14.871,8.949,23.237,21.468,24.865,37.208c2.401,23.212,16.286,25.602,29.714,27.912c11.277,1.94,22.938,3.947,24.476,19.316
					c0.987,9.879-2.294,21.776-5.769,34.371c-7.768,28.158-16.572,60.073,15.79,85.105L2958.913,449.153z"/>
			</g>
			<g>
				<path fill="#2F3027" d="M2916.113,370.92l-2.546-2.378c0.184-0.196,18.243-19.735,14.356-32.214
					c-1.446-4.641-5.974-7.827-13.456-9.468c-31.502-6.91-33.089-10.749-43.41-35.728c-1.292-3.125-2.755-6.667-4.429-10.574
					c-2.935-6.847-7.76-11.444-14.344-13.663c-20.292-6.838-50.98,10.345-51.287,10.52l-1.719-3.03
					c1.312-0.744,32.372-18.121,54.118-10.791c7.563,2.549,13.092,7.795,16.433,15.592c1.684,3.927,3.151,7.48,4.447,10.615
					c9.936,24.046,11.213,27.136,40.937,33.656c8.797,1.93,14.192,5.913,16.036,11.838
					C2935.733,349.703,2916.917,370.061,2916.113,370.92z"/>
			</g>
			<g>
				<path fill="#FFFFFF" d="M2851.188,431.887c-32.96,29.824-43.799-0.313-43.799-0.313L2851.188,431.887z"/>
			</g>
			<g>
				<path fill="#FF4D4D" d="M2902.584,418.272c-0.515,0-1.034-0.051-1.558-0.159c-2.508-0.517-4.254-2.068-5.049-4.487
					c-2.505-7.623,5.453-22.783,9.621-27.414c3.688-4.098,9.196-5.911,12.809-4.221c1.704,0.796,4.433,3.041,3.564,9.116
					c-0.138,0.952-1.02,1.619-1.971,1.478c-0.952-0.136-1.614-1.018-1.479-1.971c0.289-2.02,0.247-4.608-1.591-5.468
					c-2.209-1.032-6.13,0.492-8.743,3.396c-4.155,4.617-10.76,18.341-8.901,23.997c0.404,1.231,1.157,1.897,2.442,2.162
					c3.257,0.67,7.007-2.825,9.119-6.354c2.061-3.443,2.316-6.327,1.512-7.292c-0.777-0.931-3.108-0.788-6.235,0.386
					c-0.902,0.339-1.904-0.118-2.243-1.019c-0.338-0.9,0.118-1.905,1.019-2.243c4.849-1.82,8.259-1.603,10.135,0.645
					c2.393,2.868,0.95,7.725-1.197,11.313C2911.487,414.063,2907.26,418.272,2902.584,418.272z"/>
			</g>
			<g>
				<path fill="#FFFFFF" d="M2765.164,1526.436l-2.668-0.271c0.092-0.913,8.801-93.109-30.157-248.726
					c-38.211-152.629-35.859-323.267-26.229-376.631l2.641,0.477c-9.598,53.172-11.923,223.265,26.189,375.502
					C2774.026,1432.911,2765.258,1525.519,2765.164,1526.436z"/>
			</g>
			<g>
				<path fill="#FFFFFF" d="M3028.674,1526.835c-11.449-100.64-60.586-196.774-108.104-289.743
					c-14.108-27.603-27.435-53.675-39.864-79.949c-54.406-115.013-65.633-254.598-65.739-255.994l2.674-0.205
					c0.107,1.392,11.301,140.498,65.49,255.053c12.412,26.237,25.729,52.291,39.828,79.875
					c47.628,93.182,96.877,189.537,108.382,290.661L3028.674,1526.835z"/>
			</g>
		</g>
		<g>
			<path fill="#008B86" d="M2764.781,576.557l-31.665-20.77L2579.28,692.85l-203.989,39.691v36.992l212.989,17.999
				c55.066-26.09,102.227-59.112,146.482-94.682L2764.781,576.557z"/>
		</g>
		<g>
			<path fill="#006E6A" d="M2689.147,727.536c0.17-0.798,19.426-91.625,38.675-152.024c0,0-63.557,78.516-93.594,187.706
				C2653.356,752.044,2671.578,740.076,2689.147,727.536z"/>
		</g>
		<g>
			<path fill="#6FABFF" d="M1989.408,606.678c1.854-2.967,9.756-104.341,9.756-104.341s73.197,79.616,100.889,194.34
				c0,0,107.802,18.938,156.264,22.265v35.029c0,0-140.439,25.646-205.714,8.9c0,0-47.967-87.334-50.192-89.127
				C1998.186,671.952,1989.408,606.678,1989.408,606.678z"/>
		</g>
		<g>
			<path fill="#4B8EEB" d="M2007.487,538.322l8.941-9.836c0,0,58.12,69.921,62.591,181.601s-39.343,12.181-39.343,12.181
				s-15.368-67.416-19.057-83.802C2016.933,622.081,2007.487,538.322,2007.487,538.322z"/>
		</g>
		<g>
			<polygon fill="#FF7C70" points="1808.335,1479.971 1825.948,1517.679 1817.142,1565.273 1777.923,1569.527 1769.248,1552.441 
				1784.599,1471.565 			"/>
		</g>
		<g>
			<path fill="#FF7C70" d="M2098.691,1480.756l8.571,49.157c0,0-1.483,22.603,0,23.789c1.483,1.186,4.45,19.73,4.45,19.73
				l-36.346,4.45l-14.361-25.442l-11.601-48.733L2098.691,1480.756z"/>
		</g>
		<g>
			<path fill="#6FABFF" d="M1983.637,959.753l50.229-26.664h26.824c0,0,11.958,105.785,14.925,203.696
				c2.967,97.912,17.803,197.802,22.747,265.054c4.945,67.253,8.901,110.298,8.901,110.298l-71.209,8.408
				c0,0-42.527-154.31-52.417-218.596c-9.89-64.285-48.462-182.966-49.45-188.9c-0.989-5.934,1.978-60.329,0-98.9
				C1932.208,975.578,1983.637,959.753,1983.637,959.753z"/>
		</g>
		<g>
			<path fill="#20211B" d="M1811.635,1558.375c0,0-4.069-30.023,4.394-29.105c8.463,0.919,21.814,26.139,37.639,29.105
				s88.517,17.729,99.396,47.4h-201.758c0,0-3.179-34.049,17.943-53.335C1769.248,1552.441,1787.387,1569.777,1811.635,1558.375z"/>
		</g>
		<g>
			<path fill="#20211B" d="M2103.392,1558.375c0,0-4.068-30.023,4.395-29.105c8.463,0.919,21.814,26.139,37.639,29.105
				s86.615,17.563,97.494,47.233h-201.757c0,0-1.279-33.882,19.844-53.168C2061.006,1552.441,2079.144,1569.777,2103.392,1558.375z"
				/>
		</g>
		<g>
			<path fill="#4B8EEB" d="M2030.328,952.278l-62.279,278.818c-14.686-56.428-33.182-113.961-33.862-118.047
				c-0.09-0.535-0.146-1.472-0.178-2.75c3.117-22.007,6.306-41.53,7.941-47.528c4.023-14.753,33.487-61.693,33.487-61.693
				L2030.328,952.278z"/>
		</g>
		<g>
			<path fill="#6FABFF" d="M2036.054,942.94c-20.769,32.144-49.45,95.935-69.725,182.967s-56.68,182.966-71.114,232.417
				c-14.435,49.45-59.93,162.197-59.93,162.197l-68.241-20.77c0,0,13.846-152.307,35.604-243.296
				c21.758-90.988,19.78-175.054,34.615-235.384c14.835-60.329,25.714-107.802,25.714-107.802l90.989,17.802L2036.054,942.94z"/>
		</g>
		<g>
			<path fill="#4B8EEB" d="M1861.711,918.764l32.26,0.569l59.996,11.738l107.787,11.868l0.966,9.338l-212.027,13.323
				C1855.925,943.658,1859.823,926.919,1861.711,918.764z"/>
		</g>
		<g>
			<path fill="#6FABFF" d="M1942.801,506.811h-22.253c0,0-48.214,22.229-62.307,138.685
				c-14.094,116.456-7.707,297.444-7.707,297.444h217.206c0,0,16.736-346.399-58.182-419.833l-9.148,15.577l-30.164-12.531
				L1942.801,506.811z"/>
		</g>
		<g>
			<path fill="#FF4D4D" d="M2278.816,730.304l-22.5-11.362v35.029c0,0,6.098,26.745,19.614,33.063
				c13.518,6.318,21.924-23.104,21.924-23.104s15.083-19.546,12.857-21.03C2308.487,741.417,2278.816,730.304,2278.816,730.304z"/>
		</g>
		<g>
			<path fill="#FF7C70" d="M2258.487,588.854c0,0,24.367-41.117,35.164-41.387c5.687-0.143-2.226,24.184-2.226,24.184
				s45.989-26.333,53.406-23.366c7.418,2.967-6.305,15.206-6.305,15.206s16.319-7.046,19.656-2.596
				c3.339,4.451-11.867,17.802-11.867,17.802s9.858-5.934,12.347,0s-13.089,17.802-13.089,17.802s8.901-0.742,10.385,2.967
				c1.483,3.709-48.011,31.037-74.714,35.117L2258.487,588.854z"/>
		</g>
		<g>
			<path fill="#FF7C70" d="M2020.686,301.075c17.885,25.227,36.841,61.071,40.549,107.802c3.709,46.73-17.555,73.928-60.823,63.543
				l-1.731,41.539v18.296l-43.021-25.961l-19.286-19.039l5.439-42.527l-29.917-26.456l-2.226-73.681l78.873-29.423l26.951-14.093
				H2020.686z"/>
		</g>
		<g>
			<path fill="#FF4D4D" d="M1999.499,494.293c-11.682-13.708-21.094-32.752-21.094-32.752c13.723,9.272,22.005,10.879,22.005,10.879
				L1999.499,494.293z"/>
		</g>
		<g>
			<path fill="#20211B" d="M1961.098,432.118c13.805,6.442,18.297,28.681,0,42.527c-18.297,13.846-38.077-2.967-61.318-31.153
				c-23.242-28.187-24.726-43.022-35.11-54.396s-23.736-52.417-3.955-73.681c19.779-21.264,46.482-20.769,46.482-20.769
				s13.352-40.549,34.121-48.956c20.77-8.406,44.342,2.967,44.342,2.967s21.922-11.868,52.086-9.396
				c30.165,2.473,34.95,35.604,25.882,50.439c-9.068,14.835-29.343,25.714-61.979,18.297c0,0,8.406,25.714-23.242,35.11
				c-31.648,9.396-25.679,6.923-19.268,26.208c6.41,19.286,13.828,28.681-9.414,24.231c-23.241-4.451-26.208,1.483-20.769,15.33
				C1934.395,422.722,1946.263,425.195,1961.098,432.118z"/>
		</g>
		<g>
			<path fill="#FFFFFF" d="M1937.175,480.985c0,0-12.176,12.498-16.627,25.826c0,0,4.588,3.155,12.007,8.131
				c21.352,14.32,54.099,31.284,80.521,43.945l0.895-25.036l13.636-1.596c0,0-13.859-24.111-28.023-37.961l-0.903,19.665
				C1998.68,513.958,1955.031,497.166,1937.175,480.985z"/>
		</g>
		<g>
			<path fill="#4B8EEB" d="M2020.62,815.956c-57.393-39.79-111.936-158.712-122.219-224.931
				c-8.358-53.828,26.526,21.213,28.314,24.194c1.788,2.98,109.339,120.907,109.339,120.907s15.354,1.579,29.507,4.961
				c1.256,18.65,2.129,37.152,2.717,54.951C2045.937,812.826,2020.62,815.956,2020.62,815.956z"/>
		</g>
		<g>
			<path fill="#6FABFF" d="M1938.287,549c51.121,8.969,116.4,135.721,116.4,135.721l203.8-95.867l22.758,45.729
				c0,0-150.148,137.393-242.588,164.465C1948.735,724.875,1819.64,528.185,1938.287,549z"/>
		</g>
		<g>
			<path fill="#FFFFFF" d="M2043.135,764.902l-0.773-0.98c-4.945-6.27-121.158-153.979-125.301-192.136
				c-4.172-38.407,13.775-57.014,14.541-57.787l1.907,1.886c-0.179,0.182-17.807,18.554-13.782,55.611
				c3.889,35.812,113.62,176.578,123.969,189.781l224.452-152.605l1.508,2.219L2043.135,764.902z"/>
		</g>
		<g>
			<path fill="#2F3027" d="M1860.714,315.415c19.779-21.264,46.482-20.769,46.482-20.769s13.352-40.549,34.121-48.956
				c20.77-8.406,44.342,2.967,44.342,2.967s21.922-11.868,52.086-9.396c12.568,1.03,20.718,7.39,25.308,15.524
				c-1.677,1.025-3.479,2.055-5.427,3.088c-66.053,35.069-98.241-5.65-114.335,28.121s9.332,61.783-25.51,73.259
				c-34.842,11.477-26.976,32.978-19.509,53.074c3.274,8.813,3.662,21.249,2.422,32.265c-0.305-0.368-0.608-0.729-0.915-1.101
				c-23.242-28.187-24.726-43.022-35.11-54.396C1854.285,377.723,1840.934,336.679,1860.714,315.415z"/>
		</g>
		<g>
			<path fill="#FF7C70" d="M2375.291,732.542c0,0-46.035-17.32-70.514-10.273l5.192,7.046c0,0-39.684,22.624-45.247,32.637
				s6.306,3.709,6.306,3.709s-5.935,5.595-4.08,10.4s12.609-2.612,12.609-2.612s-8.9,7.789-4.821,12.61
				c4.08,4.821,14.835-2.597,21.141-5.563c6.305-2.967,25.22-7.047,27.444-6.676c2.226,0.371,18.173,2.241,18.173,2.241
				l33.797-6.527V732.542z"/>
		</g>
		<g>
			<path fill="#FF4D4D" d="M2256.316,718.942c0,0,48.956-6.688,74.67,22.488c0,0-19.78,4.882-37.335-2.257l-37.335,14.798V718.942z"
				/>
		</g>
		<g>
			<path fill="#FF4D4D" d="M2345.079,776.061c0,0-24.478,21.516-65.026,11.862c0,0,0.485-26.711,28.434-32.895
				C2336.426,748.848,2345.079,776.061,2345.079,776.061z"/>
		</g>
		<g>
			<path fill="#FF4D4D" d="M2280.053,787.923c0,0,0.151-16.898,9.315-28.523c9.165-11.624,10.097-1.288,10.097-1.288
				s2.646-8.1,7.116-7.876c4.471,0.223,5.985,3.735,5.985,3.735s0.273-5.524,5.191-6.195c4.918-0.67,7.824,6.339,7.824,6.339
				s0.602-6.992,4.247-5.267c9.687,4.584,15.25,27.212,15.25,27.212l-32.513,2.787c0,0-12.244,4.918-14.927,5.365
				C2294.957,784.66,2280.053,787.923,2280.053,787.923z"/>
		</g>
	</g>
	<g>
		<g>
			<circle fill="#A6CBFF" cx="2521.121" cy="199.294" r="190.135"/>
		</g>
		<g>
			<polygon fill="#A6CBFF" points="2592.965,364.424 2722.624,413.269 2664.969,243.188 			"/>
		</g>
	</g>
	<g>
		<g>
			<path fill="#6FABFF" d="M2355.611,105.665c-15.67,27.64-24.625,59.587-24.625,93.629c0,87.628,59.285,161.398,139.93,183.421
				c16.214-27.827,25.511-60.179,25.511-94.707C2496.427,200.393,2436.622,126.758,2355.611,105.665z"/>
		</g>
		<g>
			<circle fill="#D4E6FF" cx="2289.232" cy="251.849" r="146.429"/>
		</g>
		<g>
			<polygon fill="#D4E6FF" points="2162.061,307.178 2124.444,407.033 2255.429,362.63 			"/>
		</g>
	</g>
	<g>
		<path fill="#FFFFFF" d="M1022.439,433.78c-2.761,0-5-2.239-5-5c0-91.7,74.603-166.303,166.303-166.303c2.761,0,5,2.239,5,5
			s-2.239,5-5,5c-86.186,0-156.303,70.117-156.303,156.303C1027.439,431.541,1025.201,433.78,1022.439,433.78z"/>
	</g>
	<g>
		<g>
			<circle fill="#20211B" cx="2230.431" cy="250.479" r="13.065"/>
		</g>
		<g>
			<path fill="#2F3027" d="M2289.232,265.019c-8.017,0-14.539-6.522-14.539-14.54s6.522-14.54,14.539-14.54
				c8.018,0,14.54,6.522,14.54,14.54S2297.25,265.019,2289.232,265.019z M2289.232,238.889c-6.391,0-11.59,5.2-11.59,11.59
				s5.199,11.59,11.59,11.59s11.591-5.2,11.591-11.59S2295.623,238.889,2289.232,238.889z"/>
		</g>
		<g>
			<path fill="#2F3027" d="M2348.034,265.019c-8.018,0-14.54-6.522-14.54-14.54s6.522-14.54,14.54-14.54
				c8.017,0,14.539,6.522,14.539,14.54S2356.051,265.019,2348.034,265.019z M2348.034,238.889c-6.391,0-11.591,5.2-11.591,11.59
				s5.2,11.59,11.591,11.59s11.59-5.2,11.59-11.59S2354.425,238.889,2348.034,238.889z"/>
		</g>
	</g>
	<g>
		<g>
			<circle fill="#FFFFFF" cx="2462.32" cy="199.294" r="13.065"/>
		</g>
		<g>
			<path fill="#FFFFFF" d="M2521.121,213.833c-8.018,0-14.54-6.522-14.54-14.54c0-8.018,6.522-14.54,14.54-14.54
				s14.54,6.522,14.54,14.54C2535.661,207.311,2529.139,213.833,2521.121,213.833z M2521.121,187.703
				c-6.391,0-11.591,5.2-11.591,11.591c0,6.391,5.2,11.59,11.591,11.59s11.591-5.2,11.591-11.59
				C2532.712,192.903,2527.512,187.703,2521.121,187.703z"/>
		</g>
		<g>
			<path fill="#FFFFFF" d="M2579.922,213.833c-8.017,0-14.539-6.522-14.539-14.54c0-8.018,6.522-14.54,14.539-14.54
				c8.018,0,14.54,6.522,14.54,14.54C2594.462,207.311,2587.939,213.833,2579.922,213.833z M2579.922,187.703
				c-6.391,0-11.59,5.2-11.59,11.591c0,6.391,5.199,11.59,11.59,11.59s11.591-5.2,11.591-11.59
				C2591.513,192.903,2586.313,187.703,2579.922,187.703z"/>
		</g>
	</g>
	<g>
		<path fill="#2F3027" d="M3120.246,414.933c-9.184,0-16.655-7.471-16.655-16.655s7.472-16.655,16.655-16.655
			s16.655,7.471,16.655,16.655S3129.43,414.933,3120.246,414.933z M3120.246,384.572c-7.558,0-13.706,6.148-13.706,13.706
			s6.148,13.706,13.706,13.706s13.706-6.148,13.706-13.706S3127.804,384.572,3120.246,384.572z"/>
	</g>
	<g>
		<circle fill="#2F3027" cx="3185.696" cy="965.601" r="36.623"/>
	</g>
	<g>
		<circle fill="#2F3027" cx="68.458" cy="547.466" r="36.623"/>
	</g>
	<g>
		<path fill="#2F3027" d="M16.655,706.145C7.471,706.145,0,698.673,0,689.489s7.471-16.655,16.655-16.655
			s16.655,7.471,16.655,16.655S25.839,706.145,16.655,706.145z M16.655,675.783c-7.558,0-13.706,6.148-13.706,13.706
			s6.148,13.707,13.706,13.707s13.706-6.149,13.706-13.707S24.213,675.783,16.655,675.783z"/>
	</g>
	<g>
		<path fill="#2F3027" d="M218.656,1432.819c-9.184,0-16.655-7.472-16.655-16.655s7.471-16.655,16.655-16.655
			s16.655,7.472,16.655,16.655S227.84,1432.819,218.656,1432.819z M218.656,1402.458c-7.558,0-13.706,6.148-13.706,13.706
			s6.148,13.706,13.706,13.706s13.706-6.148,13.706-13.706S226.214,1402.458,218.656,1402.458z"/>
	</g>
	<g>
		<path fill="#2F3027" d="M2384.364,1057.148c-9.184,0-16.655-7.472-16.655-16.655s7.472-16.655,16.655-16.655
			s16.655,7.472,16.655,16.655S2393.548,1057.148,2384.364,1057.148z M2384.364,1026.787c-7.558,0-13.706,6.148-13.706,13.706
			s6.148,13.706,13.706,13.706s13.706-6.148,13.706-13.706S2391.922,1026.787,2384.364,1026.787z"/>
	</g>
	<g>
		<path fill="#FF7C70" d="M1524.527,137.109h-34.219l-13.594-45.156l-7.578,4.375l-8.438,40.781h-30.547l24.141-114.219h30.547
			l-10.547,48.75l2.969-4.609c4.583-7.447,7.969-12.525,10.156-15.234l23.203-28.906h35.859l-43.047,52.656L1524.527,137.109z"/>
		<path fill="#FF7C70" d="M1585.934,65.234l24.375-42.344h34.063l-47.813,69.922l-9.453,44.297h-30.547l9.375-44.297l-18.516-69.922
			h31.484L1585.934,65.234z"/>
		<path fill="#FF7C70" d="M1700.074,46.563c-5.625,0-10.703,2.031-15.234,6.094s-8.086,9.662-10.664,16.797
			c-2.578,7.136-3.867,14.871-3.867,23.203c0,6.98,1.458,12.188,4.375,15.625c2.916,3.438,7.109,5.156,12.578,5.156
			c4.322,0,8.697-0.533,13.125-1.602c4.427-1.067,9.635-2.877,15.625-5.43v25.234c-10.573,4.688-22.031,7.031-34.375,7.031
			c-13.542,0-23.972-3.867-31.289-11.602c-7.318-7.734-10.977-18.684-10.977-32.852c0-13.854,2.643-26.563,7.93-38.125
			c5.286-11.563,12.474-20.286,21.563-26.172c9.088-5.885,19.492-8.828,31.211-8.828c13.802,0,26.328,3.412,37.578,10.234
			l-11.563,23.828c-4.844-2.864-9.297-5.012-13.359-6.445C1708.668,47.279,1704.449,46.563,1700.074,46.563z"/>
		<path fill="#FF7C70" d="M1817.34,21.25l-65.469,117.422h-26.875l65.469-117.422H1817.34z"/>
		<path fill="#FF7C70" d="M1873.746,115.703h-35l-9.766,21.406h-31.719l58.125-114.219h39.297l9.609,114.219h-29.766
			L1873.746,115.703z M1849.918,91.328h22.891l-1.328-33.125l-0.156-6.719c0-3.906,0.104-7.317,0.313-10.234
			c-1.25,4.48-2.839,8.803-4.766,12.969L1849.918,91.328z"/>
		<path fill="#FF7C70" d="M1960.777,137.109V55.156h-0.625c-3.49,21.719-5.729,35.053-6.719,40l-8.828,41.953h-27.188
			l24.141-114.219h40.469v81.094h0.625l37.344-81.094h41.094l-24.453,114.219h-27.422l9.141-42.891
			c2.604-11.875,5.416-23.229,8.438-34.063l1.172-5h-0.625l-37.656,81.953H1960.777z"/>
		<path fill="#FF7C70" d="M2062.887,137.109l24.141-114.219h30.547l-18.828,89.297h37.266l-5.313,24.922H2062.887z"/>
	</g>
</g>
<g>
</g>
<g>
</g>
<g>
</g>
<g>
</g>
<g>
</g>
<g>
</g>
</svg>
