<?xml version="1.0" encoding="utf-8"?>
<!-- Generator: Adobe Illustrator 16.0.0, SVG Export Plug-In . SVG Version: 6.00 Build 0)  -->
<!DOCTYPE svg PUBLIC "-//W3C//DTD SVG 1.1//EN" "http://www.w3.org/Graphics/SVG/1.1/DTD/svg11.dtd">
<svg version="1.1" id="Layer_1" xmlns="http://www.w3.org/2000/svg" xmlns:xlink="http://www.w3.org/1999/xlink" x="0px" y="0px"
	 width="389.984px" height="512px" viewBox="367.027 -60.001 389.984 512" enable-background="new 367.027 -60.001 389.984 512"
	 xml:space="preserve">
<g>
	<path fill="#40A3FF" d="M367.027,149.99v89.998h10.845l139.149,83.488V452l89.996-44.998v-83.525l139.149-83.488h10.845
		c0-10.813,0-81.253,0-89.998H367.027z M607.017,209.988v30h80.842l-110.84,66.504v81.969l-29.999,14.998v-96.967l-110.841-66.504
		h80.842v-30H397.026v-29.999h329.986v29.999H607.017z"/>
	<path d="M517.021-15.003c0-24.812-20.187-44.998-44.998-44.998s-44.998,20.186-44.998,44.998s20.187,44.998,44.998,44.998
		S517.021,9.809,517.021-15.003z M472.023-0.003c-8.271,0-14.999-6.729-14.999-15s6.729-14.999,14.999-14.999
		s14.999,6.729,14.999,14.999S480.293-0.003,472.023-0.003z"/>
	<path d="M547.02,104.992c0-41.353-33.644-74.997-74.997-74.997s-74.997,33.644-74.997,74.997v15H547.02V104.992z M429.595,89.993
		c6.191-17.46,22.873-29.999,42.429-29.999s36.237,12.539,42.429,29.999H429.595z"/>
	<path d="M697.013-15.003c0-24.812-20.186-44.998-44.998-44.998c-24.812,0-44.998,20.186-44.998,44.998s20.187,44.998,44.998,44.998
		C676.828,29.995,697.013,9.809,697.013-15.003z M652.015-0.003c-8.271,0-14.999-6.729-14.999-15s6.729-14.999,14.999-14.999
		s15,6.729,15,14.999S660.287-0.003,652.015-0.003z"/>
	<path d="M727.012,104.992c0-41.353-33.644-74.997-74.997-74.997c-41.353,0-74.996,33.644-74.996,74.997v15h149.993V104.992z
		 M609.588,89.993c6.189-17.46,22.872-29.999,42.428-29.999c19.557,0,36.237,12.539,42.429,29.999H609.588z"/>
</g>
</svg>
