<?xml version="1.0" encoding="utf-8"?>
<!-- Generator: Adobe Illustrator 16.0.0, SVG Export Plug-In . SVG Version: 6.00 Build 0)  -->
<!DOCTYPE svg PUBLIC "-//W3C//DTD SVG 1.1//EN" "http://www.w3.org/Graphics/SVG/1.1/DTD/svg11.dtd">
<svg version="1.1" id="Layer_1" xmlns="http://www.w3.org/2000/svg" xmlns:xlink="http://www.w3.org/1999/xlink" x="0px" y="0px"
	 width="264.21px" height="400.999px" viewBox="19.02 71 264.21 400.999" enable-background="new 19.02 71 264.21 400.999"
	 xml:space="preserve">
<path fill="#40A3FF" d="M276.004,226.439H26.02c-3.867,0-7,3.133-7,7v51.005c0,2.043,0.891,3.984,2.445,5.313l99.111,84.932v90.312
	c-0.004,2.53,1.359,4.858,3.562,6.101c2.203,1.238,4.902,1.195,7.066-0.113l46.872-28.416c2.09-1.266,3.371-3.539,3.371-5.984
	v-61.898l99.107-84.928c1.554-1.328,2.448-3.273,2.448-5.316v-51.005C283.003,229.572,279.867,226.439,276.004,226.439z
	 M269.004,240.438v10.647H33.019v-10.647H269.004z M169.894,366.149c-1.555,1.332-2.445,3.272-2.445,5.315v61.177l-32.873,19.928
	v-81.104c0-2.043-0.895-3.983-2.445-5.315l-99.111-84.929v-16.136h235.985v16.136L169.894,366.149z"/>
<path fill="#40A3FF" d="M60.93,122.216c12.288-0.014,22.247-9.974,22.262-22.265v-6.687C83.192,80.967,73.225,71,60.93,71
	c-12.298,0-22.264,9.967-22.264,22.265v6.687C38.68,112.242,48.64,122.202,60.93,122.216z M49.751,93.261
	c0-6.17,5.005-11.176,11.179-11.176c6.171,0,11.176,5.006,11.176,11.176v6.69c0,6.174-5.005,11.176-11.176,11.176
	c-6.174,0-11.179-5.001-11.179-11.176V93.261z"/>
<path fill="#40A3FF" d="M89.993,204.43l12.862-17.667c0.689-0.949,1.06-2.09,1.06-3.262v-32.729
	c0.566-6.401-1.583-12.745-5.925-17.487c-4.341-4.738-10.472-7.438-16.899-7.441h-4.222c-1.895,0-3.655,0.967-4.672,2.566
	l-3.879,6.084l-4.359-2.439c-1.725-0.963-3.836-0.938-5.535,0.072l-3.616,2.147l-3.328-5.687c-0.992-1.696-2.814-2.743-4.781-2.743
	h-4.759c-6.427,0-12.561,2.703-16.899,7.441c-4.341,4.742-6.492,11.085-5.929,17.487v32.737c0,1.18,0.375,2.327,1.072,3.28
	L33.13,204.44L89.993,204.43z M30.198,181.696v-31.185c0-0.188-0.007-0.372-0.029-0.56c-0.335-3.327,0.75-6.643,2.995-9.126
	c2.241-2.482,5.431-3.901,8.78-3.897h1.581l4.542,7.758c0.747,1.281,1.981,2.205,3.417,2.569c1.436,0.365,2.963,0.137,4.229-0.628
	l5.625-3.342l6.139,3.436c2.566,1.433,5.803,0.617,7.379-1.858l5.056-7.935h1.184c3.345,0,6.532,1.418,8.775,3.897
	c2.241,2.483,3.327,5.799,2.992,9.13c-0.021,0.184-0.029,0.372-0.029,0.556v31.185H30.198z"/>
<path fill="#40A3FF" d="M149.619,122.216c12.288-0.014,22.247-9.974,22.262-22.265v-6.687c0-12.298-9.967-22.265-22.262-22.265
	c-12.298,0-22.264,9.967-22.264,22.265v6.687C127.369,112.242,137.329,122.202,149.619,122.216z M138.44,93.261
	c0-6.17,5.005-11.176,11.179-11.176c6.171,0,11.176,5.006,11.176,11.176v6.69c0,6.174-5.005,11.176-11.176,11.176
	c-6.174,0-11.179-5.001-11.179-11.176V93.261z"/>
<path fill="#40A3FF" d="M178.683,204.43l12.861-17.667c0.689-0.949,1.06-2.09,1.06-3.262v-32.729
	c0.567-6.401-1.583-12.745-5.925-17.487c-4.341-4.738-10.472-7.438-16.899-7.441h-4.222c-1.895,0-3.655,0.967-4.672,2.566
	l-3.879,6.084l-4.359-2.439c-1.725-0.963-3.836-0.938-5.535,0.072l-3.616,2.147l-3.327-5.687c-0.993-1.696-2.815-2.743-4.782-2.743
	h-4.759c-6.427,0-12.561,2.703-16.899,7.441c-4.341,4.742-6.492,11.085-5.929,17.487v32.737c0,1.18,0.375,2.327,1.072,3.28
	l12.948,17.653L178.683,204.43z M118.886,181.696v-31.185c0-0.188-0.007-0.372-0.029-0.56c-0.336-3.327,0.75-6.643,2.994-9.126
	c2.241-2.482,5.431-3.901,8.78-3.897h1.581l4.542,7.758c0.747,1.281,1.981,2.205,3.417,2.569c1.437,0.365,2.963,0.137,4.229-0.628
	l5.625-3.342l6.139,3.436c2.566,1.433,5.803,0.617,7.379-1.858l5.056-7.935h1.184c3.345,0,6.532,1.418,8.775,3.897
	c2.241,2.483,3.328,5.799,2.992,9.13c-0.021,0.184-0.029,0.372-0.029,0.556v31.185H118.886z"/>
<path fill="#40A3FF" d="M240.156,122.216c12.287-0.014,22.247-9.974,22.262-22.265v-6.687c0-12.298-9.967-22.265-22.262-22.265
	c-12.298,0-22.265,9.967-22.265,22.265v6.687C217.906,112.242,227.865,122.202,240.156,122.216z M228.977,93.261
	c0-6.17,5.005-11.176,11.179-11.176c6.171,0,11.176,5.006,11.176,11.176v6.69c0,6.174-5.005,11.176-11.176,11.176
	c-6.174,0-11.179-5.001-11.179-11.176V93.261z"/>
<path fill="#40A3FF" d="M269.219,204.43l12.862-17.667c0.689-0.949,1.06-2.09,1.06-3.262v-32.729
	c0.566-6.401-1.583-12.745-5.925-17.487c-4.341-4.738-10.472-7.438-16.898-7.441h-4.223c-1.895,0-3.654,0.967-4.672,2.566
	l-3.88,6.084l-4.359-2.439c-1.725-0.963-3.836-0.938-5.535,0.072l-3.616,2.147l-3.327-5.687c-0.993-1.696-2.815-2.743-4.782-2.743
	h-4.759c-6.427,0-12.562,2.703-16.899,7.441c-4.341,4.742-6.492,11.085-5.929,17.487v32.737c0,1.18,0.375,2.327,1.071,3.28
	l12.948,17.653L269.219,204.43z M209.423,181.696v-31.185c0-0.188-0.007-0.372-0.029-0.56c-0.336-3.327,0.75-6.643,2.994-9.126
	c2.241-2.482,5.431-3.901,8.78-3.897h1.581l4.542,7.758c0.747,1.281,1.981,2.205,3.417,2.569c1.437,0.365,2.963,0.137,4.229-0.628
	l5.625-3.342l6.139,3.436c2.565,1.433,5.803,0.617,7.379-1.858l5.056-7.935h1.184c3.346,0,6.532,1.418,8.776,3.897
	c2.241,2.483,3.327,5.799,2.991,9.13c-0.021,0.184-0.028,0.372-0.028,0.556v31.185H209.423z"/>
</svg>
