<?xml version="1.0" encoding="utf-8"?>
<!-- Generator: Adobe Illustrator 16.0.0, SVG Export Plug-In . SVG Version: 6.00 Build 0)  -->
<!DOCTYPE svg PUBLIC "-//W3C//DTD SVG 1.1 Tiny//EN" "http://www.w3.org/Graphics/SVG/1.1/DTD/svg11-tiny.dtd">
<svg version="1.1" baseProfile="tiny" id="Capa_1" xmlns="http://www.w3.org/2000/svg" xmlns:xlink="http://www.w3.org/1999/xlink"
	 x="0px" y="0px" width="612px" height="537.89px" viewBox="0 127.055 612 537.89" xml:space="preserve">
<path fill="#007BFF" d="M431.508,611.156c0,10.039-7.888,17.93-17.93,17.93H198.422c-10.042,0-17.93-7.891-17.93-17.93
	c0-10.042,7.888-17.931,17.93-17.931h215.156C423.62,593.227,431.508,601.114,431.508,611.156z"/>
<path fill="#0050C7" d="M431.508,611.156c0,10.039-7.888,17.93-17.93,17.93H270.141v-35.859h143.438
	C423.62,593.227,431.508,601.114,431.508,611.156z"/>
<path fill="#007BFF" d="M431.508,180.844c0,10.04-7.888,17.93-17.93,17.93H198.422c-10.042,0-17.93-7.89-17.93-17.93
	c0-10.042,7.888-17.93,17.93-17.93h215.156C423.62,162.914,431.508,170.802,431.508,180.844z"/>
<g>
	<path fill="#0050C7" d="M540.995,381.853c-6.584,0-12.905-3.625-16.058-9.911l-75.5-151.002c-4.43-8.859-0.84-19.628,8.021-24.058
		c8.842-4.412,19.628-0.858,24.058,8.02l75.501,151.001c4.431,8.859,0.841,19.628-8.02,24.058
		C546.423,381.239,543.691,381.853,540.995,381.853z"/>
	<path fill="#0050C7" d="M465.458,597.009c-2.696,0-5.428-0.612-8.001-1.892c-6.286-3.134-9.91-9.474-9.91-16.038
		c0-2.697,0.613-5.446,1.891-8.021l75.502-151.002c4.446-8.858,15.181-12.414,24.058-8.019c6.286,3.134,9.91,9.473,9.91,16.038
		c0,2.696-0.613,5.445-1.892,8.02l-75.501,151.002C478.363,593.385,472.042,597.009,465.458,597.009z"/>
</g>
<g>
	<path fill="#007BFF" d="M71.005,381.853c-2.697,0-5.428-0.613-8.001-1.891c-8.86-4.43-12.449-15.199-8.02-24.058l75.5-151.001
		c4.448-8.877,15.181-12.431,24.058-8.02c8.86,4.43,12.449,15.199,8.02,24.058l-75.5,151.001
		C83.91,378.228,77.589,381.853,71.005,381.853z"/>
	<path fill="#007BFF" d="M146.542,597.009c-6.583,0-12.904-3.624-16.057-9.91l-75.5-151.002c-4.43-8.858-0.84-19.628,8.02-24.058
		c8.841-4.396,19.628-0.841,24.058,8.019l75.5,151.002c4.43,8.859,0.84,19.628-8.02,24.059
		C151.97,596.396,149.238,597.009,146.542,597.009z"/>
</g>
<g>
	<path fill="#0050C7" d="M524.938,397.891c-1.943,0-3.904-0.314-5.83-0.979L403.966,357.27c-9.368-3.222-14.341-13.429-11.119-22.78
		c3.223-9.368,13.447-14.322,22.78-11.119l115.143,39.641c9.367,3.221,14.341,13.429,11.118,22.78
		C539.331,393.234,532.38,397.891,524.938,397.891z"/>
	<path fill="#0050C7" d="M386.404,307.42c-3.678,0-7.406-1.138-10.611-3.484c-7.967-5.866-9.684-17.089-3.816-25.074l54.313-73.855
		c5.865-7.967,17.055-9.665,25.074-3.816c7.967,5.865,9.684,17.089,3.815,25.074l-54.313,73.854
		C397.347,304.898,391.919,307.42,386.404,307.42z"/>
</g>
<path fill="#007BFF" d="M362.659,314.239c-3.229,5.38-8.965,8.249-14.704,8.249c-3.584,0-6.813-1.077-10.039-3.229l-67.774-45.183
	l-87.855-58.451c-8.246-5.377-10.398-16.494-4.662-24.743c5.378-8.247,16.494-10.398,24.742-5.019l67.774,45.18l87.855,58.451
	C366.244,294.876,368.396,305.993,362.659,314.239z"/>
<path fill="#0050C7" d="M291.642,456.968c-3.748,0-7.512-1.172-10.733-3.589c-7.932-5.937-9.542-17.177-3.589-25.091l64.541-86.077
	c5.953-7.932,17.193-9.507,25.091-3.589c7.932,5.936,9.542,17.176,3.59,25.091L306,449.789
	C302.481,454.499,297.105,456.968,291.642,456.968z"/>
<path fill="#007BFF" d="M236.12,474.303c-1.873,0-3.782-0.298-5.673-0.928L83.333,424.348c-9.386-3.115-14.463-13.271-11.329-22.675
	c3.116-9.368,13.202-14.516,22.675-11.329l147.114,49.027c9.386,3.116,14.463,13.271,11.329,22.675
	C250.618,469.557,243.631,474.303,236.12,474.303z"/>
<path fill="#0050C7" d="M421.423,606.691c-3.922,0-7.88-1.277-11.188-3.923l-123.301-98.646c-7.722-6.199-8.983-17.476-2.802-25.214
	c6.216-7.704,17.474-9,25.214-2.802l123.302,98.646c7.723,6.199,8.982,17.475,2.803,25.214
	C431.893,604.38,426.693,606.691,421.423,606.691z"/>
<g>
	<path fill="#007BFF" d="M184.064,600.405c-3.748,0-7.512-1.172-10.733-3.589c-7.932-5.938-9.542-17.178-3.589-25.092l64.54-86.076
		c5.971-7.933,17.177-9.509,25.091-3.591c7.932,5.938,9.542,17.178,3.589,25.092l-64.54,86.077
		C194.903,597.938,189.527,600.405,184.064,600.405z"/>
	<path fill="#007BFF" d="M257.552,452.064c-7.249,0-14.095-4.431-16.792-11.627l-82.4-219.708
		c-3.466-9.28,1.225-19.61,10.488-23.095c9.244-3.466,19.61,1.208,23.094,10.488l82.4,219.709c3.466,9.28-1.225,19.61-10.488,23.095
		C261.771,451.698,259.653,452.064,257.552,452.064z"/>
</g>
<g>
	<path fill="#0050C7" d="M304.915,476.946c-8.037,0-15.338-5.429-17.369-13.587c-2.416-9.596,3.432-19.33,13.044-21.729
		l217.292-54.314c9.578-2.434,19.331,3.414,21.73,13.044c2.415,9.595-3.434,19.331-13.045,21.729l-217.292,54.314
		C307.82,476.771,306.351,476.946,304.915,476.946z"/>
	<path fill="#0050C7" d="M413.578,198.773H270.141v-35.859h143.438c10.042,0,17.93,7.888,17.93,17.93
		C431.508,190.883,423.62,198.773,413.578,198.773z"/>
	<path fill="#0050C7" d="M362.659,314.239c-3.229,5.38-8.965,8.249-14.704,8.249c-3.584,0-6.813-1.077-10.039-3.229l-67.774-45.183
		v-43.031l87.855,58.451C366.244,294.876,368.396,305.993,362.659,314.239z"/>
</g>
<path fill="#FF0B69" d="M270.141,413.93c-29.765,0-53.789,24.024-53.789,53.789c0,29.763,24.024,53.789,53.789,53.789
	s53.789-24.026,53.789-53.789C323.93,437.954,299.905,413.93,270.141,413.93z"/>
<g>
	<path fill="#DD025B" d="M323.93,467.719c0,29.763-24.023,53.789-53.789,53.789V413.93
		C299.905,413.93,323.93,437.954,323.93,467.719z"/>
	<path fill="#DD025B" d="M557.016,449.789c-29.659,0-53.789-24.129-53.789-53.789c0-29.661,24.13-53.789,53.789-53.789
		c29.66,0,54.984,24.128,54.984,53.789C612,425.66,586.676,449.789,557.016,449.789z"/>
	<path fill="#DD025B" d="M449.438,234.633c-29.659,0-53.788-24.128-53.788-53.789c0-29.661,24.129-53.789,53.788-53.789
		c29.66,0,53.789,24.128,53.789,53.789C503.227,210.505,479.098,234.633,449.438,234.633z"/>
	<path fill="#DD025B" d="M377.719,378.07c-29.66,0-53.789-24.128-53.789-53.789c0-29.661,24.129-53.789,53.789-53.789
		s53.789,24.128,53.789,53.789C431.508,353.942,407.379,378.07,377.719,378.07z"/>
	<path fill="#DD025B" d="M449.438,664.945c-29.659,0-53.788-24.129-53.788-53.789s24.129-53.789,53.788-53.789
		c29.66,0,53.789,24.129,53.789,53.789S479.098,664.945,449.438,664.945z"/>
</g>
<g>
	<path fill="#FF0B69" d="M54.984,449.789C25.324,449.789,0,425.66,0,396c0-29.661,25.324-53.789,54.984-53.789
		c29.66,0,53.789,24.128,53.789,53.789C108.773,425.66,84.645,449.789,54.984,449.789z"/>
	<path fill="#FF0B69" d="M162.563,234.633c-29.661,0-53.789-24.128-53.789-53.789c0-29.661,24.128-53.789,53.789-53.789
		s53.789,24.128,53.789,53.789C216.352,210.505,192.223,234.633,162.563,234.633z"/>
	<path fill="#FF0B69" d="M162.563,664.945c-29.661,0-53.789-24.129-53.789-53.789s24.128-53.789,53.789-53.789
		s53.789,24.129,53.789,53.789S192.223,664.945,162.563,664.945z"/>
</g>
</svg>
