<?xml version="1.0" encoding="utf-8"?>
<!-- Generator: Adobe Illustrator 16.0.0, SVG Export Plug-In . SVG Version: 6.00 Build 0)  -->
<!DOCTYPE svg PUBLIC "-//W3C//DTD SVG 1.1//EN" "http://www.w3.org/Graphics/SVG/1.1/DTD/svg11.dtd">
<svg version="1.1" id="Layer_1" xmlns="http://www.w3.org/2000/svg" xmlns:xlink="http://www.w3.org/1999/xlink" x="0px" y="0px"
	 width="536.004px" height="382.584px" viewBox="0 0 536.004 382.584" enable-background="new 0 0 536.004 382.584"
	 xml:space="preserve">
<circle fill="#DEEBF7" cx="241.114" cy="291.251" r="91.333"/>
<path fill="#FBE5D6" d="M217.753,151.33c0,6.627-5.658,12-12.639,12H12.639c-6.98,0-12.639-5.373-12.639-12V93.077
	c0-6.627,5.658-12,12.639-12h192.476c6.98,0,12.639,5.373,12.639,12V151.33z"/>
<polygon fill="#FFECB6" points="225.837,154.917 380.753,0 536.003,155.25 "/>
<g>
	<linearGradient id="SVGID_1_" gradientUnits="userSpaceOnUse" x1="81.9819" y1="115.8286" x2="138.3569" y2="115.8286">
		<stop  offset="0" style="stop-color:#FBB040"/>
		<stop  offset="1" style="stop-color:#F7941E"/>
	</linearGradient>
	<path fill="url(#SVGID_1_)" d="M81.982,103.641v23.875c0,0,4.5,4.875,26,4.875s30.375-5.125,30.375-5.125v-23.958
		c0,0-6.875-4.042-28.25-4.042S86.982,101.016,81.982,103.641z"/>
	<ellipse fill="#F5B89E" cx="110.154" cy="103.391" rx="28.203" ry="5.375"/>
	<g>
		<g>
			<path d="M86.322,118.47c0.358,0.232,0.909,0.494,1.478,0.579c0.613,0.092,0.938-0.106,0.938-0.477
				c0-0.354-0.282-0.601-0.99-0.944c-0.975-0.472-1.619-1.089-1.619-1.909c0-0.964,0.839-1.576,2.232-1.395
				c0.666,0.086,1.157,0.282,1.508,0.477c-0.119,0.402-0.179,0.604-0.298,1.005c-0.236-0.139-0.658-0.354-1.236-0.431
				s-0.857,0.135-0.857,0.43c0,0.361,0.333,0.574,1.095,0.953c1.037,0.516,1.533,1.101,1.533,1.906c0,0.959-0.764,1.674-2.384,1.426
				c-0.674-0.104-1.337-0.379-1.669-0.609C86.16,119.077,86.213,118.875,86.322,118.47z"/>
			<path d="M92.411,115.272c0,0.479,0,0.718,0,1.196c0.383,0.041,0.574,0.061,0.958,0.1c0,0.384,0,0.577,0,0.961
				c-0.383-0.04-0.574-0.061-0.957-0.104c0,0.605,0,0.907,0,1.512c0,0.504,0.123,0.75,0.526,0.796
				c0.167,0.019,0.299,0.017,0.396,0.01c0.003,0.395,0.005,0.593,0.009,0.987c-0.175,0.049-0.492,0.054-0.87,0.009
				c-0.43-0.052-0.79-0.243-1.001-0.482c-0.246-0.278-0.369-0.693-0.369-1.28c0-0.681,0.001-1.021,0.001-1.702
				c-0.228-0.027-0.343-0.041-0.571-0.069c0-0.381,0-0.571,0-0.952c0.228,0.027,0.343,0.042,0.571,0.068c0-0.361,0-0.542,0-0.902
				C91.626,115.364,91.888,115.335,92.411,115.272z"/>
			<path d="M98.348,119.066c0,1.559-1.12,2.183-2.272,2.072c-1.258-0.121-2.225-1.036-2.225-2.393c0-1.356,0.914-2.131,2.296-2.019
				C97.467,116.835,98.348,117.787,98.348,119.066z M95.231,118.849c0,0.725,0.308,1.301,0.88,1.354
				c0.519,0.048,0.854-0.437,0.854-1.2c0-0.633-0.248-1.292-0.854-1.343C95.469,117.605,95.231,118.229,95.231,118.849z"/>
			<path d="M99.174,118.443c0-0.629-0.018-1.04-0.035-1.407c0.461,0.028,0.692,0.041,1.154,0.065
				c0.018,0.316,0.026,0.475,0.044,0.792c0.014,0.001,0.021,0.001,0.035,0.002c0.22-0.61,0.749-0.848,1.163-0.829
				c0.124,0.005,0.186,0.009,0.283,0.03c0,0.503,0,0.755,0,1.259c-0.097-0.021-0.213-0.046-0.362-0.054
				c-0.494-0.024-0.827,0.221-0.915,0.628c-0.018,0.086-0.028,0.191-0.028,0.297c0,0.87,0,1.303,0,2.173
				c-0.536-0.035-0.803-0.054-1.339-0.093C99.174,120.161,99.174,119.589,99.174,118.443z"/>
			<path d="M104.876,121.621c-0.032-0.175-0.047-0.263-0.079-0.438c-0.011,0-0.016-0.001-0.027-0.002
				c-0.282,0.337-0.723,0.506-1.234,0.483c-0.874-0.039-1.394-0.703-1.394-1.39c0-1.119,1.006-1.608,2.532-1.556
				c0-0.025,0-0.037,0-0.062c0-0.231-0.124-0.562-0.786-0.583c-0.441-0.014-0.909,0.119-1.191,0.284
				c-0.099-0.35-0.147-0.523-0.246-0.873c0.3-0.156,0.89-0.345,1.675-0.324c1.438,0.039,1.896,0.895,1.896,1.92
				c0,0.606,0,0.909,0,1.516c0,0.419,0.018,0.82,0.062,1.062C105.602,121.645,105.359,121.638,104.876,121.621z M104.718,119.563
				c-0.706-0.03-1.253,0.117-1.253,0.639c0,0.346,0.23,0.522,0.53,0.534c0.335,0.013,0.621-0.205,0.697-0.471
				c0.02-0.068,0.025-0.15,0.025-0.23C104.717,119.846,104.718,119.751,104.718,119.563z"/>
			<path d="M111.201,117.281c-0.018,0.281-0.035,0.653-0.035,1.314c0,0.989,0,1.483,0,2.472c0,0.852-0.167,1.563-0.652,1.995
				c-0.467,0.416-1.121,0.535-1.756,0.526c-0.565-0.008-1.166-0.139-1.554-0.373c0.106-0.409,0.159-0.614,0.265-1.024
				c0.274,0.167,0.751,0.347,1.254,0.353c0.636,0.008,1.12-0.342,1.12-1.154c0-0.115,0-0.173,0-0.288
				c-0.007,0-0.01-0.001-0.017-0.001c-0.256,0.37-0.671,0.575-1.166,0.57c-1.068-0.011-1.827-0.904-1.827-2.165
				c0-1.404,0.901-2.288,1.96-2.293c0.591-0.002,0.961,0.254,1.182,0.613c0.007,0,0.012,0,0.019,0
				c0.018-0.209,0.026-0.315,0.043-0.525C110.502,117.294,110.735,117.291,111.201,117.281z M109.825,119.098
				c0-0.091-0.008-0.181-0.026-0.252c-0.092-0.356-0.353-0.602-0.724-0.6c-0.485,0.001-0.882,0.45-0.882,1.248
				c0,0.655,0.317,1.17,0.882,1.173c0.344,0.001,0.609-0.248,0.706-0.558c0.03-0.097,0.044-0.245,0.044-0.362
				C109.825,119.487,109.825,119.357,109.825,119.098z"/>
			<path d="M113.274,119.895c0.044,0.573,0.591,0.833,1.217,0.813c0.459-0.015,0.828-0.092,1.19-0.226
				c0.07,0.375,0.106,0.563,0.176,0.938c-0.441,0.201-0.978,0.311-1.56,0.327c-1.464,0.041-2.303-0.826-2.303-2.214
				c0-1.125,0.68-2.38,2.18-2.442c1.394-0.057,1.923,1.04,1.923,2.151c0,0.239-0.027,0.452-0.045,0.553
				C114.941,119.844,114.386,119.865,113.274,119.895z M114.853,118.892c0-0.339-0.141-0.899-0.758-0.876
				c-0.564,0.021-0.794,0.557-0.83,0.932C113.9,118.929,114.217,118.917,114.853,118.892z"/>
			<path d="M122.734,118.102c0,1.883-0.712,3.243-2.174,3.346c-1.479,0.104-2.135-1.268-2.14-2.965
				c-0.004-1.735,0.706-3.165,2.185-3.296C122.138,115.05,122.734,116.434,122.734,118.102z M119.769,118.39
				c0,1.376,0.309,2.022,0.829,1.983s0.8-0.752,0.8-2.133c0-1.345-0.272-2.027-0.809-1.981
				C120.095,116.302,119.769,116.997,119.769,118.39z"/>
			<path d="M127.61,117.559c0,1.91-0.709,3.312-2.167,3.463c-1.476,0.153-2.132-1.216-2.137-2.938
				c-0.004-1.76,0.704-3.234,2.18-3.415C127.014,114.482,127.61,115.867,127.61,117.559z M124.65,117.945
				c0,1.396,0.308,2.043,0.826,1.987s0.799-0.789,0.799-2.189c0-1.364-0.272-2.049-0.808-1.985
				C124.976,115.816,124.65,116.533,124.65,117.945z"/>
			<path d="M128.266,120.596c0-0.35,0-0.524,0-0.875c0.295-0.327,0.442-0.492,0.737-0.821c1.245-1.378,1.856-2.185,1.865-2.909
				c0.006-0.503-0.28-0.867-0.937-0.768c-0.49,0.074-0.918,0.402-1.216,0.692c-0.151-0.395-0.227-0.592-0.378-0.986
				c0.43-0.413,1.096-0.795,1.867-0.915c1.287-0.2,1.994,0.503,1.994,1.64c0,1.05-0.689,2-1.512,2.924
				c-0.21,0.222-0.315,0.333-0.525,0.555c0,0.008,0,0.013,0,0.021c0.858-0.12,1.287-0.184,2.144-0.317c0,0.481,0,0.721,0,1.203
				C130.69,120.285,129.883,120.396,128.266,120.596z"/>
		</g>
	</g>
</g>
<g>
	<linearGradient id="SVGID_2_" gradientUnits="userSpaceOnUse" x1="358.2324" y1="54.1875" x2="414.6074" y2="54.1875">
		<stop  offset="0" style="stop-color:#FBB040"/>
		<stop  offset="1" style="stop-color:#F7941E"/>
	</linearGradient>
	<path fill="url(#SVGID_2_)" d="M358.232,42v23.875c0,0,4.5,4.875,26,4.875s30.375-5.125,30.375-5.125V41.667
		c0,0-6.875-4.042-28.25-4.042S363.232,39.375,358.232,42z"/>
	<ellipse fill="#F5B89E" cx="386.404" cy="41.75" rx="28.203" ry="5.375"/>
	<g>
		<g>
			<path d="M362.577,56.83c0.367,0.234,0.931,0.498,1.513,0.585c0.628,0.094,0.961-0.106,0.961-0.477c0-0.354-0.288-0.6-1.013-0.945
				c-0.998-0.476-1.657-1.095-1.657-1.915c0-0.964,0.857-1.573,2.283-1.388c0.682,0.088,1.184,0.286,1.543,0.482
				c-0.122,0.402-0.183,0.602-0.305,1.003c-0.241-0.14-0.673-0.354-1.264-0.433c-0.592-0.079-0.879,0.132-0.879,0.427
				c0,0.361,0.34,0.576,1.119,0.957c1.062,0.519,1.572,1.104,1.572,1.91c0,0.959-0.783,1.674-2.441,1.42
				c-0.69-0.106-1.369-0.384-1.709-0.616C362.411,57.436,362.467,57.235,362.577,56.83z"/>
			<path d="M368.811,53.647c0,0.479,0,0.718,0,1.197c0.392,0.042,0.588,0.062,0.98,0.101c0,0.384,0,0.577,0,0.961
				c-0.393-0.04-0.589-0.06-0.98-0.103c0,0.605,0,0.907,0,1.512c0,0.504,0.126,0.75,0.539,0.797
				c0.171,0.019,0.304,0.018,0.403,0.011c0.004,0.395,0.007,0.591,0.011,0.986c-0.18,0.049-0.504,0.055-0.891,0.009
				c-0.439-0.053-0.809-0.245-1.025-0.484c-0.251-0.278-0.377-0.696-0.377-1.283c0-0.681,0-1.021,0-1.701
				c-0.233-0.028-0.351-0.041-0.584-0.07c0-0.381,0-0.572,0-0.953c0.233,0.028,0.351,0.042,0.584,0.068c0-0.361,0-0.541,0-0.902
				C368.006,53.739,368.274,53.709,368.811,53.647z"/>
			<path d="M374.887,57.446c0,1.56-1.146,2.186-2.326,2.074c-1.287-0.121-2.276-1.038-2.276-2.396c0-1.357,0.936-2.131,2.349-2.019
				C373.983,55.214,374.887,56.165,374.887,57.446z M371.697,57.228c0,0.726,0.314,1.301,0.899,1.354
				c0.531,0.048,0.874-0.436,0.874-1.2c0-0.633-0.253-1.293-0.874-1.345C371.939,55.983,371.697,56.607,371.697,57.228z"/>
			<path d="M375.73,56.822c0-0.629-0.017-1.041-0.034-1.408c0.473,0.028,0.708,0.04,1.181,0.064
				c0.018,0.317,0.025,0.476,0.043,0.793c0.015,0.001,0.023,0,0.038,0.001c0.226-0.611,0.767-0.848,1.19-0.83
				c0.126,0.005,0.19,0.007,0.289,0.028c0,0.504,0,0.758,0,1.262c-0.099-0.021-0.219-0.046-0.372-0.054
				c-0.505-0.023-0.846,0.224-0.936,0.631c-0.019,0.086-0.027,0.191-0.027,0.297c0,0.871,0,1.305,0,2.175
				c-0.549-0.034-0.824-0.053-1.372-0.093C375.73,58.542,375.73,57.968,375.73,56.822z"/>
			<path d="M381.567,59.995c-0.032-0.176-0.047-0.265-0.079-0.44c-0.011,0-0.017,0-0.027,0c-0.289,0.338-0.741,0.508-1.264,0.486
				c-0.894-0.038-1.429-0.701-1.429-1.389c0-1.121,1.031-1.611,2.593-1.562c0-0.025,0-0.038,0-0.063
				c0-0.231-0.128-0.562-0.806-0.582c-0.451-0.013-0.93,0.122-1.219,0.287c-0.101-0.35-0.151-0.523-0.252-0.873
				c0.307-0.156,0.913-0.348,1.716-0.328c1.472,0.036,1.941,0.89,1.941,1.917c0,0.607-0.002,0.911-0.002,1.518
				c0,0.419,0.021,0.823,0.065,1.065C382.311,60.018,382.063,60.011,381.567,59.995z M381.406,57.936
				c-0.723-0.028-1.281,0.118-1.281,0.641c0,0.346,0.234,0.523,0.541,0.534c0.343,0.012,0.634-0.207,0.713-0.474
				c0.021-0.068,0.027-0.15,0.027-0.23C381.406,58.218,381.406,58.124,381.406,57.936z"/>
			<path d="M388.041,55.626c-0.018,0.282-0.037,0.655-0.037,1.317c0,0.991,0,1.485,0,2.476c0,0.854-0.172,1.566-0.668,2.001
				c-0.478,0.418-1.146,0.541-1.796,0.533c-0.578-0.006-1.191-0.136-1.589-0.369c0.108-0.41,0.164-0.615,0.272-1.026
				c0.28,0.166,0.765,0.344,1.28,0.349c0.65,0.005,1.146-0.346,1.146-1.16c0-0.116,0-0.174,0-0.29c-0.008,0-0.009,0-0.017,0
				c-0.262,0.372-0.688,0.579-1.194,0.576c-1.093-0.007-1.868-0.9-1.868-2.162c0-1.406,0.921-2.295,2.005-2.304
				c0.604-0.005,0.982,0.251,1.209,0.609c0.007,0,0.011,0,0.018,0c0.018-0.21,0.027-0.316,0.045-0.526
				C387.324,55.644,387.564,55.638,388.041,55.626z M386.632,57.453c0-0.091-0.006-0.182-0.025-0.254
				c-0.095-0.357-0.362-0.6-0.741-0.598c-0.497,0.003-0.902,0.454-0.902,1.253c0,0.656,0.324,1.172,0.902,1.172
				c0.352,0,0.625-0.253,0.724-0.563c0.031-0.097,0.043-0.245,0.043-0.363C386.632,57.842,386.632,57.713,386.632,57.453z"/>
			<path d="M390.16,58.235c0.045,0.574,0.606,0.832,1.247,0.809c0.47-0.017,0.849-0.097,1.219-0.233
				c0.072,0.376,0.106,0.564,0.179,0.94c-0.451,0.204-1.003,0.316-1.598,0.335c-1.498,0.048-2.354-0.815-2.354-2.207
				c0-1.127,0.695-2.39,2.229-2.459c1.425-0.065,1.967,1.032,1.967,2.146c0,0.24-0.026,0.453-0.045,0.555
				C391.867,58.177,391.298,58.2,390.16,58.235z M391.775,57.222c0-0.339-0.144-0.9-0.775-0.874
				c-0.577,0.024-0.812,0.562-0.848,0.937C390.802,57.264,391.126,57.251,391.775,57.222z"/>
			<path d="M399.842,56.377c0,1.888-0.729,3.256-2.225,3.37c-1.514,0.115-2.186-1.254-2.19-2.956
				c-0.005-1.739,0.722-3.177,2.235-3.32C399.229,53.322,399.842,54.705,399.842,56.377z M396.806,56.688
				c0,1.38,0.318,2.025,0.85,1.983s0.818-0.759,0.818-2.144c0-1.348-0.28-2.031-0.829-1.98
				C397.14,54.593,396.806,55.292,396.806,56.688z"/>
			<path d="M404.826,55.792c0,1.916-0.726,3.328-2.217,3.492c-1.51,0.167-2.18-1.204-2.185-2.93c-0.005-1.764,0.72-3.246,2.229-3.44
				C404.218,52.713,404.826,54.096,404.826,55.792z M401.801,56.205c0,1.4,0.314,2.044,0.845,1.984s0.816-0.796,0.816-2.201
				c0-1.368-0.277-2.052-0.825-1.983C402.133,54.069,401.801,54.789,401.801,56.205z"/>
			<path d="M407.237,53.651c-0.008,0.001-0.011,0.003-0.019,0.004c-0.444,0.296-0.667,0.443-1.111,0.734
				c-0.09-0.423-0.133-0.635-0.223-1.058c0.616-0.397,0.923-0.6,1.539-1.006c0.451-0.073,0.678-0.11,1.129-0.187
				c0,2.505,0,3.756,0,6.261c-0.526,0.08-0.789,0.119-1.315,0.194C407.237,56.616,407.237,55.628,407.237,53.651z"/>
		</g>
	</g>
</g>
<g>
	<linearGradient id="SVGID_3_" gradientUnits="userSpaceOnUse" x1="152.4072" y1="115.8286" x2="208.7822" y2="115.8286">
		<stop  offset="0" style="stop-color:#FBB040"/>
		<stop  offset="1" style="stop-color:#F7941E"/>
	</linearGradient>
	<path fill="url(#SVGID_3_)" d="M152.407,103.641v23.875c0,0,4.5,4.875,26,4.875s30.375-5.125,30.375-5.125v-23.958
		c0,0-6.875-4.042-28.25-4.042S157.407,101.016,152.407,103.641z"/>
	<ellipse fill="#F5B89E" cx="180.579" cy="103.391" rx="28.203" ry="5.375"/>
	<g>
		<g>
			<path d="M156.747,120.47c0.359,0.232,0.911,0.496,1.48,0.581c0.614,0.092,0.938-0.108,0.938-0.479c0-0.354-0.282-0.6-0.991-0.943
				c-0.976-0.472-1.621-1.09-1.621-1.91c0-0.964,0.839-1.575,2.234-1.394c0.667,0.086,1.158,0.283,1.509,0.478
				c-0.12,0.402-0.179,0.603-0.298,1.004c-0.237-0.139-0.657-0.353-1.236-0.43s-0.86,0.135-0.86,0.43
				c0,0.361,0.333,0.575,1.096,0.953c1.039,0.516,1.536,1.101,1.536,1.906c0,0.959-0.764,1.676-2.385,1.427
				c-0.675-0.104-1.341-0.38-1.673-0.611C156.584,121.077,156.639,120.875,156.747,120.47z"/>
			<path d="M162.844,117.273c0,0.479,0,0.719,0,1.197c0.383,0.041,0.575,0.061,0.958,0.099c0,0.384-0.001,0.576-0.001,0.96
				c-0.384-0.04-0.575-0.06-0.958-0.103c0,0.605,0.001,0.907,0.001,1.512c0,0.504,0.123,0.75,0.527,0.796
				c0.167,0.019,0.299,0.017,0.396,0.01c0.003,0.395,0.004,0.592,0.008,0.987c-0.176,0.049-0.492,0.054-0.87,0.009
				c-0.431-0.052-0.792-0.243-1.002-0.482c-0.246-0.278-0.369-0.694-0.369-1.281c0-0.681,0-1.021,0-1.701
				c-0.229-0.027-0.342-0.041-0.571-0.069c0-0.381,0-0.57,0-0.951c0.229,0.027,0.343,0.041,0.572,0.067c0-0.361,0-0.541,0-0.901
				C162.058,117.366,162.32,117.336,162.844,117.273z"/>
			<path d="M168.787,121.067c0,1.559-1.121,2.184-2.274,2.074c-1.259-0.121-2.227-1.037-2.227-2.394
				c0-1.356,0.915-2.129,2.298-2.017C167.905,118.837,168.787,119.787,168.787,121.067z M165.668,120.851
				c0,0.725,0.308,1.299,0.88,1.352c0.52,0.048,0.855-0.435,0.855-1.198c0-0.633-0.247-1.293-0.854-1.344
				C165.906,119.605,165.668,120.23,165.668,120.851z"/>
			<path d="M169.615,120.445c0-0.629-0.018-1.041-0.035-1.408c0.462,0.028,0.692,0.042,1.155,0.066
				c0.018,0.316,0.027,0.475,0.044,0.791c0.014,0.001,0.021,0.001,0.035,0.002c0.221-0.61,0.751-0.847,1.166-0.828
				c0.124,0.005,0.184,0.007,0.281,0.028c0,0.503,0,0.755,0,1.259c-0.097-0.021-0.212-0.045-0.362-0.053
				c-0.495-0.024-0.83,0.222-0.917,0.628c-0.018,0.086-0.027,0.191-0.027,0.296c0,0.87,0.001,1.304,0.001,2.174
				c-0.537-0.035-0.805-0.053-1.341-0.093C169.615,122.163,169.615,121.59,169.615,120.445z"/>
			<path d="M175.324,123.621c-0.032-0.175-0.047-0.263-0.079-0.438c-0.011,0-0.017,0-0.027,0c-0.283,0.337-0.725,0.504-1.236,0.481
				c-0.875-0.039-1.395-0.704-1.395-1.391c0-1.119,1.006-1.607,2.533-1.555c0-0.025,0-0.036,0-0.061
				c0-0.231-0.124-0.563-0.786-0.583c-0.441-0.014-0.909,0.121-1.192,0.285c-0.099-0.35-0.149-0.524-0.248-0.874
				c0.3-0.156,0.893-0.345,1.679-0.324c1.439,0.039,1.898,0.896,1.898,1.921c0,0.606,0,0.909,0,1.515
				c0,0.419,0.018,0.819,0.062,1.062C176.05,123.645,175.808,123.638,175.324,123.621z M175.165,121.563
				c-0.707-0.03-1.253,0.117-1.253,0.639c0,0.346,0.23,0.523,0.53,0.535c0.335,0.013,0.62-0.206,0.696-0.472
				c0.02-0.068,0.027-0.149,0.027-0.229C175.165,121.846,175.165,121.751,175.165,121.563z"/>
			<path d="M181.657,119.28c-0.018,0.281-0.037,0.652-0.037,1.313c0,0.989,0,1.484,0,2.473c0,0.852-0.168,1.562-0.653,1.994
				c-0.467,0.416-1.122,0.536-1.758,0.526c-0.565-0.008-1.167-0.139-1.556-0.373c0.106-0.409,0.16-0.614,0.266-1.023
				c0.274,0.167,0.751,0.346,1.255,0.352c0.636,0.008,1.122-0.343,1.122-1.155c0-0.116,0-0.172,0-0.288c-0.007,0-0.011,0-0.019,0
				c-0.256,0.37-0.671,0.573-1.166,0.568c-1.069-0.01-1.829-0.904-1.829-2.165c0-1.404,0.901-2.287,1.961-2.292
				c0.592-0.003,0.963,0.253,1.184,0.612c0.007,0,0.011-0.001,0.019-0.001c0.018-0.209,0.025-0.314,0.043-0.524
				C180.956,119.294,181.19,119.29,181.657,119.28z M180.278,121.098c0-0.091-0.009-0.183-0.027-0.254
				c-0.092-0.356-0.353-0.6-0.724-0.599c-0.486,0.002-0.884,0.45-0.884,1.248c0,0.655,0.318,1.172,0.883,1.174
				c0.345,0.001,0.61-0.249,0.707-0.559c0.03-0.097,0.044-0.244,0.044-0.361C180.277,121.488,180.278,121.357,180.278,121.098z"/>
			<path d="M183.731,121.894c0.044,0.573,0.591,0.833,1.218,0.813c0.459-0.015,0.831-0.094,1.193-0.229
				c0.071,0.375,0.105,0.563,0.176,0.939c-0.441,0.201-0.981,0.311-1.563,0.327c-1.466,0.041-2.304-0.824-2.304-2.213
				c0-1.125,0.68-2.381,2.181-2.443c1.395-0.058,1.925,1.038,1.925,2.15c0,0.239-0.028,0.452-0.045,0.554
				C185.398,121.843,184.844,121.864,183.731,121.894z M185.311,120.89c0-0.339-0.142-0.898-0.759-0.875
				c-0.565,0.021-0.795,0.556-0.831,0.931C184.357,120.927,184.675,120.915,185.311,120.89z"/>
			<path d="M193.201,120.097c0,1.884-0.711,3.243-2.175,3.347c-1.48,0.104-2.138-1.266-2.143-2.963
				c-0.004-1.735,0.706-3.166,2.187-3.298C192.604,117.045,193.201,118.429,193.201,120.097z M190.233,120.386
				c0,1.376,0.309,2.023,0.829,1.985s0.802-0.752,0.802-2.133c0-1.345-0.273-2.028-0.811-1.981
				C190.56,118.298,190.233,118.993,190.233,120.386z"/>
			<path d="M198.083,119.553c0,1.911-0.711,3.314-2.171,3.466c-1.477,0.154-2.133-1.216-2.137-2.938
				c-0.004-1.76,0.704-3.234,2.181-3.416C197.485,116.476,198.083,117.861,198.083,119.553z M195.121,119.94
				c0,1.396,0.307,2.042,0.826,1.986s0.8-0.788,0.8-2.189c0-1.364-0.272-2.048-0.809-1.984
				C195.446,117.812,195.121,118.528,195.121,119.94z"/>
			<path d="M198.976,121.141c0.237,0.103,0.781,0.28,1.324,0.205c0.693-0.096,1.043-0.512,1.043-0.982
				c0-0.614-0.561-0.808-1.148-0.725c-0.217,0.031-0.327,0.046-0.544,0.076c0-0.417,0-0.625,0-1.041
				c0.207-0.029,0.312-0.044,0.519-0.074c0.447-0.074,1.016-0.342,1.016-0.87c0-0.375-0.28-0.607-0.841-0.523
				c-0.465,0.07-0.956,0.359-1.193,0.544c-0.109-0.404-0.163-0.605-0.271-1.009c0.342-0.286,1.027-0.615,1.763-0.729
				c1.219-0.189,1.893,0.395,1.893,1.252c0,0.664-0.343,1.242-1.043,1.617c0,0.007,0,0.011,0,0.018
				c0.683,0.03,1.235,0.51,1.235,1.329c0,1.107-0.884,2.056-2.331,2.251c-0.737,0.1-1.359-0.032-1.692-0.22
				C198.813,121.813,198.867,121.589,198.976,121.141z"/>
		</g>
	</g>
</g>
<g>
	<linearGradient id="SVGID_4_" gradientUnits="userSpaceOnUse" x1="212.9419" y1="234.5215" x2="269.3169" y2="234.5215">
		<stop  offset="0" style="stop-color:#73C8EB"/>
		<stop  offset="1" style="stop-color:#A9DDF3"/>
	</linearGradient>
	<path fill="url(#SVGID_4_)" d="M212.942,222.334v23.875c0,0,4.5,4.875,26,4.875s30.375-5.125,30.375-5.125V222
		c0,0-6.875-4.041-28.25-4.041S217.942,219.709,212.942,222.334z"/>
	<linearGradient id="SVGID_5_" gradientUnits="userSpaceOnUse" x1="212.9106" y1="222.084" x2="269.3169" y2="222.084">
		<stop  offset="0" style="stop-color:#27AAE1"/>
		<stop  offset="1" style="stop-color:#73C8EB"/>
	</linearGradient>
	<ellipse fill="url(#SVGID_5_)" cx="241.114" cy="222.084" rx="28.203" ry="5.375"/>
	<g>
		<g>
			<path d="M217.289,239.163c0.367,0.234,0.931,0.501,1.513,0.588c0.627,0.094,0.958-0.106,0.958-0.479
				c0-0.354-0.289-0.601-1.013-0.945c-0.997-0.475-1.656-1.097-1.656-1.918c0-0.963,0.858-1.568,2.284-1.384
				c0.681,0.088,1.184,0.284,1.542,0.479c-0.122,0.402-0.183,0.603-0.305,1.004c-0.242-0.141-0.672-0.352-1.264-0.431
				s-0.877,0.132-0.877,0.426c0,0.361,0.339,0.573,1.119,0.954c1.062,0.519,1.569,1.106,1.569,1.911
				c0,0.959-0.781,1.675-2.439,1.421c-0.69-0.105-1.369-0.383-1.709-0.615C217.122,239.771,217.178,239.567,217.289,239.163z"/>
			<path d="M223.521,235.981c0,0.479,0,0.717,0,1.196c0.392,0.042,0.588,0.064,0.98,0.104c0,0.384-0.001,0.574-0.001,0.958
				c-0.392-0.04-0.587-0.062-0.979-0.104c0,0.605,0,0.91,0,1.516c0,0.505,0.125,0.75,0.539,0.797
				c0.171,0.02,0.306,0.018,0.405,0.012c0.003,0.395,0.006,0.591,0.009,0.985c-0.18,0.049-0.504,0.056-0.891,0.01
				c-0.44-0.053-0.808-0.247-1.024-0.486c-0.251-0.277-0.377-0.693-0.377-1.28c0-0.681,0-1.022,0-1.704
				c-0.233-0.027-0.351-0.041-0.584-0.069c0-0.381,0-0.573,0-0.954c0.233,0.028,0.351,0.042,0.584,0.069c0-0.361,0-0.541,0-0.902
				C222.717,236.071,222.985,236.043,223.521,235.981z"/>
			<path d="M229.595,239.779c0,1.561-1.144,2.188-2.324,2.077c-1.288-0.121-2.277-1.038-2.277-2.395s0.935-2.135,2.349-2.022
				C228.693,237.547,229.595,238.499,229.595,239.779z M226.407,239.563c0,0.727,0.315,1.301,0.901,1.354
				c0.531,0.048,0.873-0.436,0.873-1.2c0-0.633-0.251-1.291-0.873-1.343C226.651,238.318,226.407,238.943,226.407,239.563z"/>
			<path d="M230.443,239.158c0-0.629-0.02-1.042-0.038-1.409c0.472,0.028,0.709,0.041,1.182,0.065
				c0.018,0.316,0.027,0.475,0.045,0.791c0.015,0.001,0.021,0.003,0.036,0.004c0.226-0.612,0.767-0.851,1.191-0.833
				c0.126,0.005,0.189,0.008,0.289,0.029c0,0.504,0,0.756,0,1.26c-0.099-0.021-0.216-0.044-0.369-0.051
				c-0.505-0.023-0.85,0.22-0.939,0.628c-0.018,0.087-0.025,0.19-0.025,0.297c0,0.87,0,1.306,0,2.177
				c-0.548-0.034-0.823-0.05-1.371-0.09C230.442,240.88,230.443,240.305,230.443,239.158z"/>
			<path d="M236.278,242.33c-0.033-0.176-0.049-0.263-0.082-0.438c-0.011,0-0.017,0-0.027,0c-0.289,0.338-0.74,0.507-1.263,0.484
				c-0.894-0.037-1.426-0.702-1.426-1.392c0-1.119,1.028-1.611,2.589-1.563c0-0.024,0-0.034,0-0.059
				c0-0.231-0.125-0.563-0.802-0.583c-0.451-0.013-0.93,0.122-1.219,0.287c-0.101-0.351-0.152-0.525-0.253-0.875
				c0.307-0.155,0.911-0.349,1.714-0.329c1.471,0.035,1.941,0.894,1.941,1.92c0,0.606-0.001,0.911-0.001,1.518
				c0,0.42,0.02,0.821,0.064,1.064C237.02,242.354,236.772,242.347,236.278,242.33z M236.114,240.271
				c-0.722-0.029-1.281,0.119-1.281,0.642c0,0.346,0.235,0.522,0.542,0.533c0.343,0.013,0.635-0.207,0.713-0.474
				c0.02-0.067,0.028-0.147,0.028-0.229C236.116,240.555,236.114,240.459,236.114,240.271z"/>
			<path d="M242.75,237.963c-0.018,0.282-0.036,0.653-0.036,1.314c0,0.99,0,1.486,0,2.477c0,0.854-0.172,1.567-0.668,2.002
				c-0.478,0.418-1.146,0.537-1.796,0.529c-0.578-0.007-1.193-0.132-1.59-0.364c0.108-0.41,0.162-0.615,0.271-1.026
				c0.28,0.166,0.768,0.343,1.283,0.347c0.65,0.006,1.147-0.345,1.147-1.158c0-0.116,0-0.174,0-0.29
				c-0.007,0-0.012,0.001-0.019,0.001c-0.262,0.371-0.686,0.578-1.191,0.575c-1.093-0.007-1.87-0.9-1.87-2.162
				c0-1.405,0.922-2.297,2.006-2.306c0.605-0.005,0.983,0.255,1.209,0.612c0.007,0,0.012-0.002,0.019-0.002
				c0.018-0.21,0.027-0.313,0.045-0.523C242.036,237.98,242.273,237.975,242.75,237.963z M241.342,239.789
				c0-0.09-0.009-0.183-0.027-0.254c-0.094-0.356-0.361-0.601-0.74-0.598c-0.497,0.004-0.902,0.454-0.902,1.254
				c0,0.655,0.324,1.169,0.902,1.169c0.352,0,0.625-0.252,0.724-0.562c0.031-0.096,0.045-0.243,0.045-0.36
				C241.343,240.178,241.342,240.05,241.342,239.789z"/>
			<path d="M244.871,240.566c0.045,0.575,0.604,0.836,1.245,0.813c0.469-0.018,0.849-0.098,1.219-0.234
				c0.072,0.376,0.107,0.564,0.18,0.94c-0.451,0.203-1.001,0.315-1.597,0.335c-1.498,0.049-2.356-0.816-2.356-2.207
				c0-1.127,0.696-2.387,2.23-2.456c1.426-0.064,1.967,1.027,1.967,2.142c0,0.239-0.027,0.453-0.045,0.554
				C246.578,240.509,246.008,240.531,244.871,240.566z M246.487,239.557c0-0.34-0.145-0.9-0.776-0.874
				c-0.578,0.024-0.812,0.563-0.848,0.938C245.512,239.6,245.837,239.586,246.487,239.557z"/>
			<path d="M254.551,238.713c0,1.888-0.727,3.256-2.223,3.369c-1.513,0.115-2.186-1.257-2.19-2.958
				c-0.004-1.738,0.721-3.174,2.234-3.317C253.94,235.658,254.551,237.039,254.551,238.713z M251.517,239.022
				c0,1.38,0.315,2.026,0.847,1.984s0.82-0.76,0.82-2.145c0-1.349-0.28-2.033-0.829-1.983
				C251.85,236.925,251.517,237.627,251.517,239.022z"/>
			<path d="M259.536,238.124c0,1.915-0.726,3.329-2.218,3.493c-1.509,0.166-2.179-1.203-2.183-2.93
				c-0.004-1.764,0.719-3.245,2.228-3.44C258.927,235.045,259.536,236.427,259.536,238.124z M256.51,238.539
				c0,1.4,0.313,2.048,0.844,1.987s0.819-0.799,0.819-2.204c0-1.368-0.279-2.051-0.827-1.982
				C256.843,236.403,256.51,237.123,256.51,238.539z"/>
			<path d="M261.946,235.986c-0.007,0.001-0.01,0.002-0.018,0.003c-0.444,0.296-0.667,0.441-1.112,0.732
				c-0.09-0.424-0.134-0.632-0.224-1.055c0.617-0.397,0.925-0.601,1.541-1.007c0.452-0.073,0.677-0.108,1.128-0.185
				c0,2.505,0,3.755,0,6.26c-0.526,0.08-0.789,0.119-1.316,0.194C261.946,238.952,261.946,237.964,261.946,235.986z"/>
		</g>
	</g>
</g>
<g>
	<linearGradient id="SVGID_6_" gradientUnits="userSpaceOnUse" x1="8.8696" y1="115.8286" x2="65.2446" y2="115.8286">
		<stop  offset="0" style="stop-color:#FBB040"/>
		<stop  offset="1" style="stop-color:#F7941E"/>
	</linearGradient>
	<path fill="url(#SVGID_6_)" d="M8.87,103.641v23.875c0,0,4.5,4.875,26,4.875s30.375-5.125,30.375-5.125v-23.958
		c0,0-6.875-4.042-28.25-4.042S13.87,101.016,8.87,103.641z"/>
	<ellipse fill="#F5B89E" cx="37.042" cy="103.391" rx="28.203" ry="5.375"/>
	<g>
		<g>
			<path d="M13.214,120.472c0.367,0.233,0.932,0.498,1.514,0.585c0.627,0.094,0.96-0.105,0.96-0.477c0-0.354-0.289-0.6-1.013-0.945
				c-0.998-0.476-1.657-1.096-1.657-1.916c0-0.964,0.858-1.571,2.284-1.387c0.681,0.088,1.184,0.284,1.542,0.48
				c-0.122,0.402-0.183,0.602-0.305,1.003c-0.242-0.14-0.672-0.353-1.264-0.432s-0.878,0.131-0.878,0.426
				c0,0.361,0.341,0.575,1.12,0.956c1.062,0.519,1.569,1.105,1.569,1.911c0,0.959-0.782,1.674-2.439,1.42
				c-0.69-0.105-1.369-0.383-1.708-0.615C13.05,121.078,13.104,120.876,13.214,120.472z"/>
			<path d="M19.448,117.289c0,0.479,0,0.718,0,1.197c0.392,0.042,0.587,0.062,0.979,0.101c0,0.384,0.001,0.578,0.001,0.962
				c-0.392-0.04-0.588-0.062-0.98-0.104c0,0.605,0,0.909,0,1.514c0,0.504,0.125,0.75,0.539,0.797
				c0.171,0.02,0.306,0.018,0.405,0.011c0.003,0.395,0.006,0.592,0.009,0.987c-0.18,0.049-0.504,0.054-0.891,0.007
				c-0.44-0.053-0.808-0.244-1.023-0.483c-0.251-0.278-0.377-0.695-0.377-1.283c0-0.681,0-1.021,0-1.701
				c-0.233-0.028-0.351-0.042-0.584-0.071c0-0.381,0-0.572,0-0.953c0.233,0.028,0.351,0.043,0.584,0.07c0-0.361,0-0.542,0-0.902
				C18.645,117.38,18.913,117.35,19.448,117.289z"/>
			<path d="M25.523,121.088c0,1.56-1.144,2.185-2.324,2.074c-1.288-0.121-2.277-1.039-2.277-2.397c0-1.357,0.935-2.13,2.349-2.017
				C24.621,118.856,25.523,119.807,25.523,121.088z M22.335,120.868c0,0.726,0.314,1.301,0.899,1.354
				c0.531,0.048,0.874-0.435,0.874-1.199c0-0.633-0.252-1.293-0.873-1.345C22.578,119.624,22.335,120.248,22.335,120.868z"/>
			<path d="M26.37,120.464c0-0.629-0.02-1.042-0.038-1.41c0.472,0.028,0.709,0.041,1.182,0.065c0.018,0.317,0.027,0.476,0.045,0.792
				c0.015,0.001,0.021,0.001,0.036,0.002c0.226-0.611,0.767-0.85,1.191-0.832c0.126,0.005,0.19,0.008,0.289,0.029
				c0,0.504-0.001,0.757-0.001,1.261c-0.099-0.021-0.215-0.046-0.369-0.053c-0.505-0.023-0.85,0.223-0.939,0.63
				c-0.018,0.086-0.026,0.192-0.026,0.297c0,0.871,0,1.305,0,2.175c-0.548-0.034-0.823-0.052-1.371-0.092
				C26.37,122.184,26.37,121.611,26.37,120.464z"/>
			<path d="M32.206,123.635c-0.033-0.176-0.049-0.263-0.082-0.438c-0.011,0-0.017,0-0.027,0c-0.289,0.338-0.739,0.507-1.263,0.485
				c-0.894-0.038-1.426-0.702-1.426-1.39c0-1.121,1.027-1.61,2.589-1.561c0-0.025,0-0.038,0-0.063c0-0.231-0.125-0.562-0.803-0.581
				c-0.451-0.013-0.93,0.122-1.218,0.287c-0.101-0.35-0.152-0.525-0.253-0.875c0.307-0.156,0.911-0.347,1.714-0.328
				c1.471,0.036,1.942,0.891,1.942,1.917c0,0.607,0,0.911,0,1.518c0,0.419,0.019,0.821,0.063,1.063
				C32.948,123.658,32.701,123.651,32.206,123.635z M32.043,121.576c-0.722-0.028-1.281,0.119-1.281,0.642
				c0,0.346,0.234,0.523,0.541,0.534c0.343,0.012,0.635-0.207,0.713-0.474c0.02-0.068,0.027-0.151,0.027-0.231
				C32.043,121.859,32.043,121.764,32.043,121.576z"/>
			<path d="M38.679,119.268c-0.018,0.282-0.036,0.655-0.036,1.318c0,0.991,0,1.484,0,2.475c0,0.854-0.173,1.565-0.669,2
				c-0.478,0.418-1.146,0.541-1.796,0.533c-0.578-0.006-1.192-0.134-1.589-0.367c0.108-0.41,0.162-0.616,0.27-1.027
				c0.28,0.166,0.769,0.345,1.283,0.349c0.65,0.005,1.147-0.347,1.147-1.16c0-0.116,0-0.173,0-0.289c-0.007,0-0.011,0-0.018,0
				c-0.262,0.372-0.687,0.579-1.192,0.576c-1.093-0.007-1.87-0.9-1.87-2.163c0-1.406,0.921-2.294,2.005-2.303
				c0.605-0.005,0.984,0.25,1.209,0.609c0.007,0,0.012-0.001,0.019-0.001c0.018-0.21,0.026-0.315,0.044-0.525
				C37.963,119.284,38.202,119.28,38.679,119.268z M37.271,121.095c0-0.091-0.01-0.182-0.028-0.253
				c-0.094-0.356-0.361-0.602-0.74-0.6c-0.497,0.003-0.903,0.455-0.903,1.254c0,0.656,0.325,1.17,0.903,1.17
				c0.352,0,0.623-0.251,0.722-0.561c0.031-0.097,0.045-0.244,0.045-0.362C37.27,121.484,37.271,121.355,37.271,121.095z"/>
			<path d="M40.799,121.876c0.045,0.574,0.604,0.832,1.244,0.808c0.469-0.017,0.849-0.096,1.219-0.233
				c0.072,0.376,0.107,0.562,0.18,0.938c-0.451,0.204-1,0.317-1.596,0.337c-1.498,0.048-2.356-0.816-2.356-2.207
				c0-1.127,0.696-2.388,2.23-2.458c1.426-0.065,1.967,1.032,1.967,2.146c0,0.24-0.027,0.453-0.045,0.554
				C42.505,121.819,41.936,121.841,40.799,121.876z M42.415,120.863c0-0.339-0.145-0.899-0.776-0.873
				c-0.578,0.024-0.813,0.561-0.849,0.937C41.439,120.905,41.765,120.892,42.415,120.863z"/>
			<path d="M50.479,120.019c0,1.888-0.727,3.257-2.223,3.37c-1.513,0.115-2.187-1.257-2.191-2.958
				c-0.004-1.739,0.722-3.176,2.235-3.319C49.868,116.963,50.479,118.346,50.479,120.019z M47.444,120.328
				c0,1.379,0.316,2.026,0.848,1.984s0.818-0.758,0.818-2.143c0-1.348-0.278-2.033-0.828-1.982
				C47.778,118.233,47.444,118.932,47.444,120.328z"/>
			<path d="M55.465,119.432c0,1.916-0.727,3.328-2.219,3.492c-1.509,0.167-2.179-1.202-2.184-2.928
				c-0.004-1.764,0.719-3.247,2.229-3.441C54.855,116.354,55.465,117.735,55.465,119.432z M52.438,119.847
				c0,1.4,0.315,2.044,0.846,1.984s0.816-0.797,0.816-2.202c0-1.368-0.278-2.05-0.826-1.981
				C52.77,117.711,52.438,118.431,52.438,119.847z"/>
			<path d="M57.874,117.292c-0.007,0.001-0.01,0.001-0.017,0.002c-0.444,0.296-0.668,0.443-1.112,0.735
				c-0.09-0.423-0.133-0.634-0.223-1.057c0.617-0.397,0.924-0.601,1.541-1.007c0.452-0.073,0.677-0.109,1.128-0.186
				c0,2.505,0,3.757,0,6.262c-0.526,0.08-0.789,0.118-1.316,0.193C57.874,120.257,57.874,119.27,57.874,117.292z"/>
		</g>
	</g>
</g>
<g>
	<path d="M216.351,321.835h-1.629v-1.152h4.663v1.152h-1.656v4.915h-1.377V321.835z"/>
	<path d="M220.392,324.986c0.045,0.566,0.603,0.837,1.242,0.837c0.468,0,0.846-0.063,1.215-0.181l0.18,0.928
		c-0.45,0.18-0.999,0.27-1.593,0.27c-1.495,0-2.35-0.863-2.35-2.241c0-1.116,0.693-2.35,2.224-2.35c1.423,0,1.963,1.107,1.963,2.196
		c0,0.234-0.027,0.441-0.045,0.541H220.392z M222.003,324.05c0-0.333-0.144-0.892-0.774-0.892c-0.576,0-0.811,0.522-0.847,0.892
		H222.003z"/>
	<path d="M224.091,323.752c0-0.549-0.018-1.017-0.036-1.404h1.188l0.063,0.604h0.027c0.18-0.279,0.63-0.702,1.359-0.702
		c0.9,0,1.576,0.595,1.576,1.891v2.61h-1.369v-2.439c0-0.566-0.198-0.954-0.693-0.954c-0.378,0-0.604,0.261-0.693,0.513
		c-0.036,0.082-0.054,0.217-0.054,0.343v2.538h-1.368V323.752z"/>
	<path d="M231.867,326.75l-0.081-0.44h-0.027c-0.288,0.351-0.738,0.54-1.26,0.54c-0.891,0-1.422-0.648-1.422-1.351
		c0-1.144,1.026-1.692,2.583-1.684v-0.063c0-0.233-0.126-0.566-0.801-0.566c-0.45,0-0.927,0.152-1.215,0.333l-0.252-0.882
		c0.306-0.172,0.909-0.388,1.71-0.388c1.467,0,1.936,0.864,1.936,1.899v1.531c0,0.422,0.018,0.828,0.063,1.07H231.867z
		 M231.705,324.671c-0.72-0.009-1.278,0.162-1.278,0.693c0,0.351,0.234,0.522,0.541,0.522c0.342,0,0.621-0.226,0.711-0.504
		c0.018-0.072,0.027-0.154,0.027-0.234V324.671z"/>
	<path d="M234.117,323.752c0-0.549-0.018-1.017-0.036-1.404h1.188l0.063,0.604h0.027c0.18-0.279,0.63-0.702,1.359-0.702
		c0.9,0,1.576,0.595,1.576,1.891v2.61h-1.369v-2.439c0-0.566-0.198-0.954-0.693-0.954c-0.378,0-0.603,0.261-0.693,0.513
		c-0.036,0.082-0.054,0.217-0.054,0.343v2.538h-1.368V323.752z"/>
	<path d="M240.867,321.088v1.26h0.981v1.009h-0.981v1.593c0,0.531,0.126,0.775,0.54,0.775c0.171,0,0.306-0.019,0.405-0.037
		l0.009,1.036c-0.18,0.071-0.504,0.116-0.891,0.116c-0.441,0-0.81-0.152-1.026-0.377c-0.252-0.262-0.378-0.685-0.378-1.306v-1.801
		h-0.585v-1.009h0.585v-0.953L240.867,321.088z"/>
	<path d="M245.88,320.683v6.067h-1.377v-6.067H245.88z"/>
	<path d="M251.263,320.358v5.077c0,0.496,0.018,1.018,0.036,1.314h-1.215l-0.063-0.648h-0.018c-0.279,0.496-0.811,0.748-1.377,0.748
		c-1.044,0-1.882-0.891-1.882-2.26c-0.009-1.485,0.918-2.341,1.972-2.341c0.541,0,0.963,0.188,1.162,0.495h0.018v-2.386H251.263z
		 M249.895,324.212c0-0.072-0.009-0.171-0.018-0.243c-0.081-0.369-0.378-0.676-0.801-0.676c-0.621,0-0.945,0.559-0.945,1.252
		c0,0.747,0.369,1.215,0.936,1.215c0.396,0,0.711-0.27,0.792-0.656c0.027-0.1,0.036-0.199,0.036-0.315V324.212z"/>
	<path d="M255.221,322.348l0.432,0.73c0.126,0.225,0.243,0.449,0.36,0.656h0.018c0.117-0.234,0.225-0.459,0.342-0.675l0.387-0.712
		h1.485l-1.449,2.098l1.467,2.305h-1.548l-0.441-0.791c-0.126-0.217-0.234-0.441-0.342-0.667h-0.027
		c-0.108,0.233-0.225,0.45-0.333,0.667l-0.415,0.791h-1.503l1.495-2.241l-1.458-2.161H255.221z"/>
	<path d="M259.893,322.348l0.432,0.73c0.126,0.225,0.243,0.449,0.36,0.656h0.018c0.117-0.234,0.225-0.459,0.342-0.675l0.387-0.712
		h1.485l-1.449,2.098l1.467,2.305h-1.548l-0.441-0.791c-0.126-0.217-0.234-0.441-0.342-0.667h-0.027
		c-0.108,0.233-0.225,0.45-0.333,0.667l-0.414,0.791h-1.503l1.495-2.241l-1.458-2.161H259.893z"/>
	<path d="M264.563,322.348l0.432,0.73c0.126,0.225,0.243,0.449,0.36,0.656h0.018c0.117-0.234,0.225-0.459,0.342-0.675l0.387-0.712
		h1.485l-1.449,2.098l1.467,2.305h-1.548l-0.441-0.791c-0.126-0.217-0.234-0.441-0.342-0.667h-0.027
		c-0.108,0.233-0.225,0.45-0.333,0.667l-0.414,0.791h-1.503l1.495-2.241l-1.458-2.161H264.563z"/>
</g>
<linearGradient id="SVGID_7_" gradientUnits="userSpaceOnUse" x1="291.2422" y1="115.082" x2="343.4092" y2="115.082">
	<stop  offset="0" style="stop-color:#FBB040"/>
	<stop  offset="1" style="stop-color:#F7941E"/>
</linearGradient>
<polygon fill="url(#SVGID_7_)" stroke="#F19A69" stroke-miterlimit="10" points="291.242,95.415 291.242,134.749 343.409,134.749 
	343.409,102.415 336.409,95.415 "/>
<linearGradient id="SVGID_8_" gradientUnits="userSpaceOnUse" x1="352.415" y1="115.082" x2="404.5811" y2="115.082">
	<stop  offset="0" style="stop-color:#FBB040"/>
	<stop  offset="1" style="stop-color:#F7941E"/>
</linearGradient>
<polygon fill="url(#SVGID_8_)" stroke="#F19A69" stroke-miterlimit="10" points="352.415,95.415 352.415,134.749 404.581,134.749 
	404.581,102.415 397.581,95.415 "/>
<linearGradient id="SVGID_9_" gradientUnits="userSpaceOnUse" x1="415.5869" y1="115.082" x2="467.7529" y2="115.082">
	<stop  offset="0" style="stop-color:#FBB040"/>
	<stop  offset="1" style="stop-color:#F7941E"/>
</linearGradient>
<polygon fill="url(#SVGID_9_)" stroke="#F19A69" stroke-miterlimit="10" points="415.587,95.415 415.587,134.749 467.753,134.749 
	467.753,102.415 460.753,95.415 "/>
<g>
	<path d="M302.215,113.17c0.369,0.189,0.937,0.378,1.521,0.378c0.63,0,0.963-0.261,0.963-0.657c0-0.378-0.288-0.594-1.018-0.855
		c-1.008-0.351-1.666-0.909-1.666-1.792c0-1.035,0.864-1.828,2.296-1.828c0.684,0,1.188,0.144,1.548,0.306l-0.306,1.107
		c-0.243-0.117-0.675-0.288-1.269-0.288s-0.882,0.27-0.882,0.585c0,0.387,0.342,0.559,1.125,0.855
		c1.071,0.396,1.575,0.954,1.575,1.81c0,1.017-0.783,1.881-2.449,1.881c-0.693,0-1.377-0.18-1.719-0.369L302.215,113.17z"/>
	<path d="M310.352,114.476c-0.243,0.108-0.702,0.198-1.224,0.198c-1.422,0-2.332-0.864-2.332-2.25c0-1.288,0.882-2.341,2.521-2.341
		c0.36,0,0.756,0.063,1.044,0.171l-0.216,1.017c-0.162-0.072-0.405-0.135-0.765-0.135c-0.72,0-1.188,0.513-1.179,1.233
		c0,0.811,0.54,1.233,1.206,1.233c0.324,0,0.576-0.054,0.783-0.135L310.352,114.476z"/>
	<path d="M311.107,108.191h1.368v2.512h0.018c0.144-0.189,0.324-0.333,0.54-0.45c0.198-0.108,0.459-0.171,0.711-0.171
		c0.873,0,1.54,0.604,1.54,1.927v2.575h-1.369v-2.422c0-0.576-0.198-0.972-0.711-0.972c-0.36,0-0.585,0.234-0.685,0.477
		c-0.036,0.09-0.045,0.207-0.045,0.306v2.611h-1.368V108.191z"/>
	<path d="M317.434,112.819c0.045,0.567,0.603,0.837,1.242,0.837c0.468,0,0.846-0.063,1.215-0.18l0.18,0.927
		c-0.45,0.18-0.999,0.27-1.593,0.27c-1.495,0-2.35-0.864-2.35-2.242c0-1.116,0.693-2.35,2.224-2.35c1.423,0,1.963,1.107,1.963,2.197
		c0,0.234-0.027,0.441-0.045,0.54H317.434z M319.045,111.883c0-0.333-0.144-0.892-0.774-0.892c-0.576,0-0.811,0.522-0.847,0.892
		H319.045z"/>
	<path d="M321.133,111.585c0-0.549-0.018-1.017-0.036-1.404h1.152l0.063,0.594h0.027c0.189-0.279,0.576-0.693,1.333-0.693
		c0.567,0,1.018,0.288,1.207,0.748h0.018c0.162-0.225,0.36-0.405,0.567-0.531c0.243-0.144,0.513-0.216,0.837-0.216
		c0.846,0,1.485,0.594,1.485,1.909v2.593h-1.333v-2.395c0-0.639-0.207-1.008-0.648-1.008c-0.315,0-0.54,0.216-0.63,0.477
		c-0.036,0.099-0.054,0.243-0.054,0.351v2.575h-1.332v-2.467c0-0.558-0.198-0.936-0.63-0.936c-0.351,0-0.558,0.27-0.639,0.495
		c-0.045,0.108-0.054,0.234-0.054,0.342v2.566h-1.332V111.585z"/>
	<path d="M331.375,114.583l-0.081-0.441h-0.027c-0.288,0.351-0.738,0.54-1.26,0.54c-0.891,0-1.422-0.648-1.422-1.351
		c0-1.143,1.026-1.692,2.583-1.684v-0.063c0-0.234-0.126-0.567-0.801-0.567c-0.45,0-0.927,0.153-1.215,0.333l-0.252-0.882
		c0.306-0.171,0.909-0.387,1.71-0.387c1.467,0,1.936,0.864,1.936,1.9v1.53c0,0.423,0.018,0.828,0.063,1.071H331.375z
		 M331.213,112.504c-0.72-0.009-1.278,0.162-1.278,0.693c0,0.351,0.234,0.522,0.541,0.522c0.342,0,0.621-0.225,0.711-0.504
		c0.018-0.072,0.027-0.153,0.027-0.234V112.504z"/>
	<path d="M314.533,122.43c0,1.81-0.729,3.052-2.224,3.052c-1.512,0-2.179-1.359-2.188-3.016c0-1.692,0.72-3.034,2.232-3.034
		C313.921,119.433,314.533,120.828,314.533,122.43z M311.499,122.466c-0.009,1.341,0.315,1.98,0.846,1.98s0.819-0.666,0.819-1.999
		c0-1.296-0.279-1.98-0.828-1.98C311.832,120.468,311.49,121.107,311.499,122.466z"/>
	<path d="M319.528,122.43c0,1.81-0.729,3.052-2.224,3.052c-1.512,0-2.179-1.359-2.188-3.016c0-1.692,0.72-3.034,2.232-3.034
		C318.916,119.433,319.528,120.828,319.528,122.43z M316.494,122.466c-0.009,1.341,0.315,1.98,0.846,1.98s0.819-0.666,0.819-1.999
		c0-1.296-0.279-1.98-0.828-1.98C316.827,120.468,316.485,121.107,316.494,122.466z"/>
	<path d="M321.948,120.747h-0.018l-1.116,0.531l-0.225-1.026l1.548-0.72h1.135v5.852h-1.324V120.747z"/>
</g>
<g>
	<linearGradient id="SVGID_10_" gradientUnits="userSpaceOnUse" x1="205.0298" y1="287.082" x2="277.1973" y2="287.082">
		<stop  offset="0" style="stop-color:#73C8EB"/>
		<stop  offset="1" style="stop-color:#A9DDF3"/>
	</linearGradient>
	<polygon fill="url(#SVGID_10_)" stroke="#087D99" stroke-miterlimit="10" points="205.03,262.415 205.03,311.75 277.197,311.75 
		277.197,269.415 270.197,262.415 	"/>
	<g>
		<path d="M216.266,275.17c0.369,0.189,0.937,0.379,1.521,0.379c0.63,0,0.963-0.262,0.963-0.658c0-0.378-0.288-0.594-1.018-0.855
			c-1.008-0.351-1.666-0.908-1.666-1.791c0-1.035,0.864-1.828,2.296-1.828c0.684,0,1.188,0.145,1.548,0.307l-0.306,1.107
			c-0.243-0.117-0.675-0.288-1.269-0.288s-0.882,0.271-0.882,0.585c0,0.387,0.342,0.559,1.125,0.855
			c1.071,0.396,1.575,0.954,1.575,1.81c0,1.017-0.783,1.882-2.449,1.882c-0.693,0-1.377-0.18-1.719-0.369L216.266,275.17z"/>
		<path d="M224.403,276.476c-0.243,0.108-0.702,0.198-1.224,0.198c-1.422,0-2.332-0.865-2.332-2.251
			c0-1.288,0.882-2.341,2.521-2.341c0.36,0,0.756,0.063,1.044,0.172l-0.216,1.017c-0.162-0.071-0.405-0.136-0.765-0.136
			c-0.72,0-1.188,0.514-1.179,1.234c0,0.811,0.54,1.232,1.206,1.232c0.324,0,0.576-0.053,0.783-0.135L224.403,276.476z"/>
		<path d="M225.158,270.191h1.368v2.512h0.018c0.144-0.189,0.324-0.333,0.54-0.449c0.198-0.109,0.459-0.172,0.711-0.172
			c0.873,0,1.54,0.604,1.54,1.927v2.575h-1.369v-2.422c0-0.576-0.198-0.973-0.711-0.973c-0.36,0-0.585,0.234-0.685,0.477
			c-0.036,0.091-0.045,0.207-0.045,0.307v2.611h-1.368V270.191z"/>
		<path d="M231.485,274.818c0.045,0.568,0.603,0.838,1.242,0.838c0.468,0,0.846-0.063,1.215-0.18l0.18,0.927
			c-0.45,0.181-0.999,0.271-1.593,0.271c-1.495,0-2.35-0.865-2.35-2.242c0-1.116,0.693-2.35,2.224-2.35
			c1.423,0,1.963,1.107,1.963,2.197c0,0.233-0.027,0.44-0.045,0.539H231.485z M233.097,273.883c0-0.333-0.144-0.892-0.774-0.892
			c-0.576,0-0.811,0.522-0.847,0.892H233.097z"/>
		<path d="M235.184,273.586c0-0.549-0.018-1.018-0.036-1.404h1.152l0.063,0.594h0.027c0.189-0.279,0.576-0.693,1.333-0.693
			c0.567,0,1.018,0.288,1.207,0.748h0.018c0.162-0.226,0.36-0.406,0.567-0.531c0.243-0.145,0.513-0.217,0.837-0.217
			c0.846,0,1.485,0.594,1.485,1.908v2.594h-1.333v-2.395c0-0.64-0.207-1.009-0.648-1.009c-0.315,0-0.54,0.216-0.63,0.478
			c-0.036,0.099-0.054,0.242-0.054,0.351v2.575h-1.332v-2.467c0-0.559-0.198-0.937-0.63-0.937c-0.351,0-0.558,0.271-0.639,0.495
			c-0.045,0.107-0.054,0.234-0.054,0.342v2.566h-1.332V273.586z"/>
		<path d="M245.426,276.584l-0.081-0.441h-0.027c-0.288,0.352-0.738,0.54-1.26,0.54c-0.891,0-1.422-0.648-1.422-1.351
			c0-1.143,1.026-1.692,2.583-1.684v-0.063c0-0.234-0.126-0.567-0.801-0.567c-0.45,0-0.927,0.153-1.215,0.333l-0.252-0.883
			c0.306-0.17,0.909-0.387,1.71-0.387c1.467,0,1.936,0.864,1.936,1.9v1.529c0,0.424,0.018,0.828,0.063,1.072H245.426z
			 M245.264,274.504c-0.72-0.01-1.278,0.162-1.278,0.693c0,0.352,0.234,0.521,0.541,0.521c0.342,0,0.621-0.225,0.711-0.504
			c0.018-0.072,0.027-0.152,0.027-0.234V274.504z"/>
		<path d="M253.644,273.631c0,1.809-0.729,3.052-2.224,3.052c-1.512,0-2.179-1.359-2.188-3.017c0-1.691,0.72-3.033,2.232-3.033
			C253.032,270.633,253.644,272.028,253.644,273.631z M250.61,273.666c-0.009,1.342,0.315,1.98,0.846,1.98s0.819-0.666,0.819-1.998
			c0-1.297-0.279-1.98-0.828-1.98C250.943,271.668,250.601,272.307,250.61,273.666z"/>
		<path d="M258.639,273.631c0,1.809-0.729,3.052-2.224,3.052c-1.512,0-2.179-1.359-2.188-3.017c0-1.691,0.72-3.033,2.232-3.033
			C258.027,270.633,258.639,272.028,258.639,273.631z M255.605,273.666c-0.009,1.342,0.315,1.98,0.846,1.98s0.819-0.666,0.819-1.998
			c0-1.297-0.279-1.98-0.828-1.98C255.938,271.668,255.596,272.307,255.605,273.666z"/>
		<path d="M261.059,271.947h-0.018l-1.116,0.531l-0.225-1.026l1.548-0.72h1.135v5.852h-1.324V271.947z"/>
	</g>
	<g>
		<path d="M216.266,287.503c0.369,0.188,0.937,0.378,1.521,0.378c0.63,0,0.963-0.261,0.963-0.656c0-0.379-0.288-0.595-1.018-0.855
			c-1.008-0.352-1.666-0.91-1.666-1.792c0-1.035,0.864-1.827,2.296-1.827c0.684,0,1.188,0.144,1.548,0.306l-0.306,1.107
			c-0.243-0.117-0.675-0.288-1.269-0.288s-0.882,0.27-0.882,0.585c0,0.388,0.342,0.559,1.125,0.855
			c1.071,0.396,1.575,0.954,1.575,1.81c0,1.018-0.783,1.881-2.449,1.881c-0.693,0-1.377-0.18-1.719-0.369L216.266,287.503z"/>
		<path d="M224.403,288.809c-0.243,0.107-0.702,0.197-1.224,0.197c-1.422,0-2.332-0.863-2.332-2.25c0-1.287,0.882-2.341,2.521-2.341
			c0.36,0,0.756,0.063,1.044,0.171l-0.216,1.018c-0.162-0.072-0.405-0.135-0.765-0.135c-0.72,0-1.188,0.513-1.179,1.232
			c0,0.811,0.54,1.234,1.206,1.234c0.324,0,0.576-0.055,0.783-0.135L224.403,288.809z"/>
		<path d="M225.158,282.524h1.368v2.512h0.018c0.144-0.188,0.324-0.333,0.54-0.45c0.198-0.107,0.459-0.171,0.711-0.171
			c0.873,0,1.54,0.604,1.54,1.927v2.574h-1.369v-2.422c0-0.576-0.198-0.972-0.711-0.972c-0.36,0-0.585,0.233-0.685,0.478
			c-0.036,0.09-0.045,0.207-0.045,0.306v2.61h-1.368V282.524z"/>
		<path d="M231.485,287.152c0.045,0.566,0.603,0.837,1.242,0.837c0.468,0,0.846-0.063,1.215-0.181l0.18,0.928
			c-0.45,0.18-0.999,0.27-1.593,0.27c-1.495,0-2.35-0.863-2.35-2.241c0-1.116,0.693-2.35,2.224-2.35
			c1.423,0,1.963,1.107,1.963,2.196c0,0.234-0.027,0.441-0.045,0.541H231.485z M233.097,286.216c0-0.333-0.144-0.892-0.774-0.892
			c-0.576,0-0.811,0.522-0.847,0.892H233.097z"/>
		<path d="M235.184,285.918c0-0.549-0.018-1.017-0.036-1.404h1.152l0.063,0.595h0.027c0.189-0.279,0.576-0.693,1.333-0.693
			c0.567,0,1.018,0.288,1.207,0.747h0.018c0.162-0.225,0.36-0.404,0.567-0.531c0.243-0.144,0.513-0.216,0.837-0.216
			c0.846,0,1.485,0.595,1.485,1.909v2.592h-1.333v-2.395c0-0.639-0.207-1.008-0.648-1.008c-0.315,0-0.54,0.216-0.63,0.477
			c-0.036,0.1-0.054,0.244-0.054,0.352v2.574h-1.332v-2.467c0-0.558-0.198-0.936-0.63-0.936c-0.351,0-0.558,0.27-0.639,0.495
			c-0.045,0.108-0.054,0.233-0.054,0.342v2.565h-1.332V285.918z"/>
		<path d="M245.426,288.916l-0.081-0.44h-0.027c-0.288,0.351-0.738,0.54-1.26,0.54c-0.891,0-1.422-0.648-1.422-1.351
			c0-1.144,1.026-1.692,2.583-1.684v-0.063c0-0.233-0.126-0.566-0.801-0.566c-0.45,0-0.927,0.152-1.215,0.333l-0.252-0.882
			c0.306-0.172,0.909-0.388,1.71-0.388c1.467,0,1.936,0.864,1.936,1.899v1.531c0,0.422,0.018,0.828,0.063,1.07H245.426z
			 M245.264,286.837c-0.72-0.009-1.278,0.162-1.278,0.693c0,0.351,0.234,0.522,0.541,0.522c0.342,0,0.621-0.226,0.711-0.504
			c0.018-0.072,0.027-0.154,0.027-0.234V286.837z"/>
		<path d="M253.644,285.963c0,1.811-0.729,3.053-2.224,3.053c-1.512,0-2.179-1.359-2.188-3.016c0-1.693,0.72-3.034,2.232-3.034
			C253.032,282.966,253.644,284.361,253.644,285.963z M250.61,286c-0.009,1.341,0.315,1.98,0.846,1.98s0.819-0.666,0.819-1.999
			c0-1.296-0.279-1.98-0.828-1.98C250.943,284.001,250.601,284.641,250.61,286z"/>
		<path d="M258.639,285.963c0,1.811-0.729,3.053-2.224,3.053c-1.512,0-2.179-1.359-2.188-3.016c0-1.693,0.72-3.034,2.232-3.034
			C258.027,282.966,258.639,284.361,258.639,285.963z M255.605,286c-0.009,1.341,0.315,1.98,0.846,1.98s0.819-0.666,0.819-1.999
			c0-1.296-0.279-1.98-0.828-1.98C255.938,284.001,255.596,284.641,255.605,286z"/>
		<path d="M259.313,288.916v-0.828l0.756-0.684c1.278-1.144,1.899-1.801,1.917-2.484c0-0.478-0.288-0.855-0.963-0.855
			c-0.504,0-0.945,0.252-1.251,0.486l-0.387-0.982c0.441-0.332,1.125-0.603,1.917-0.603c1.323,0,2.053,0.774,2.053,1.837
			c0,0.98-0.711,1.764-1.558,2.521l-0.54,0.45v0.018h2.206v1.125H259.313z"/>
	</g>
	<g>
		<path d="M216.266,300.503c0.369,0.188,0.937,0.378,1.521,0.378c0.63,0,0.963-0.261,0.963-0.656c0-0.379-0.288-0.595-1.018-0.855
			c-1.008-0.352-1.666-0.91-1.666-1.792c0-1.035,0.864-1.827,2.296-1.827c0.684,0,1.188,0.144,1.548,0.306l-0.306,1.107
			c-0.243-0.117-0.675-0.288-1.269-0.288s-0.882,0.27-0.882,0.585c0,0.388,0.342,0.559,1.125,0.855
			c1.071,0.396,1.575,0.954,1.575,1.81c0,1.018-0.783,1.881-2.449,1.881c-0.693,0-1.377-0.18-1.719-0.369L216.266,300.503z"/>
		<path d="M224.403,301.809c-0.243,0.107-0.702,0.197-1.224,0.197c-1.422,0-2.332-0.863-2.332-2.25c0-1.287,0.882-2.341,2.521-2.341
			c0.36,0,0.756,0.063,1.044,0.171l-0.216,1.018c-0.162-0.072-0.405-0.135-0.765-0.135c-0.72,0-1.188,0.513-1.179,1.232
			c0,0.811,0.54,1.234,1.206,1.234c0.324,0,0.576-0.055,0.783-0.135L224.403,301.809z"/>
		<path d="M225.158,295.524h1.368v2.512h0.018c0.144-0.188,0.324-0.333,0.54-0.45c0.198-0.107,0.459-0.171,0.711-0.171
			c0.873,0,1.54,0.604,1.54,1.927v2.574h-1.369v-2.422c0-0.576-0.198-0.972-0.711-0.972c-0.36,0-0.585,0.233-0.685,0.478
			c-0.036,0.09-0.045,0.207-0.045,0.306v2.61h-1.368V295.524z"/>
		<path d="M231.485,300.152c0.045,0.566,0.603,0.837,1.242,0.837c0.468,0,0.846-0.063,1.215-0.181l0.18,0.928
			c-0.45,0.18-0.999,0.27-1.593,0.27c-1.495,0-2.35-0.863-2.35-2.241c0-1.116,0.693-2.35,2.224-2.35
			c1.423,0,1.963,1.107,1.963,2.196c0,0.234-0.027,0.441-0.045,0.541H231.485z M233.097,299.216c0-0.333-0.144-0.892-0.774-0.892
			c-0.576,0-0.811,0.522-0.847,0.892H233.097z"/>
		<path d="M235.184,298.918c0-0.549-0.018-1.017-0.036-1.404h1.152l0.063,0.595h0.027c0.189-0.279,0.576-0.693,1.333-0.693
			c0.567,0,1.018,0.288,1.207,0.747h0.018c0.162-0.225,0.36-0.404,0.567-0.531c0.243-0.144,0.513-0.216,0.837-0.216
			c0.846,0,1.485,0.595,1.485,1.909v2.592h-1.333v-2.395c0-0.639-0.207-1.008-0.648-1.008c-0.315,0-0.54,0.216-0.63,0.477
			c-0.036,0.1-0.054,0.244-0.054,0.352v2.574h-1.332v-2.467c0-0.558-0.198-0.936-0.63-0.936c-0.351,0-0.558,0.27-0.639,0.495
			c-0.045,0.108-0.054,0.233-0.054,0.342v2.565h-1.332V298.918z"/>
		<path d="M245.426,301.916l-0.081-0.44h-0.027c-0.288,0.351-0.738,0.54-1.26,0.54c-0.891,0-1.422-0.648-1.422-1.351
			c0-1.144,1.026-1.692,2.583-1.684v-0.063c0-0.233-0.126-0.566-0.801-0.566c-0.45,0-0.927,0.152-1.215,0.333l-0.252-0.882
			c0.306-0.172,0.909-0.388,1.71-0.388c1.467,0,1.936,0.864,1.936,1.899v1.531c0,0.422,0.018,0.828,0.063,1.07H245.426z
			 M245.264,299.837c-0.72-0.009-1.278,0.162-1.278,0.693c0,0.351,0.234,0.522,0.541,0.522c0.342,0,0.621-0.226,0.711-0.504
			c0.018-0.072,0.027-0.154,0.027-0.234V299.837z"/>
		<path d="M253.644,298.963c0,1.811-0.729,3.053-2.224,3.053c-1.512,0-2.179-1.359-2.188-3.016c0-1.693,0.72-3.034,2.232-3.034
			C253.032,295.966,253.644,297.361,253.644,298.963z M250.61,299c-0.009,1.341,0.315,1.98,0.846,1.98s0.819-0.666,0.819-1.999
			c0-1.296-0.279-1.98-0.828-1.98C250.943,297.001,250.601,297.641,250.61,299z"/>
		<path d="M258.639,298.963c0,1.811-0.729,3.053-2.224,3.053c-1.512,0-2.179-1.359-2.188-3.016c0-1.693,0.72-3.034,2.232-3.034
			C258.027,295.966,258.639,297.361,258.639,298.963z M255.605,299c-0.009,1.341,0.315,1.98,0.846,1.98s0.819-0.666,0.819-1.999
			c0-1.296-0.279-1.98-0.828-1.98C255.938,297.001,255.596,297.641,255.605,299z"/>
		<path d="M259.556,300.575c0.243,0.126,0.801,0.36,1.359,0.36c0.711,0,1.071-0.342,1.071-0.783c0-0.576-0.576-0.838-1.179-0.838
			h-0.558v-0.98h0.531c0.459-0.01,1.044-0.181,1.044-0.676c0-0.352-0.288-0.612-0.864-0.612c-0.477,0-0.981,0.207-1.224,0.351
			l-0.279-0.99c0.351-0.225,1.054-0.44,1.81-0.44c1.251,0,1.945,0.657,1.945,1.458c0,0.621-0.351,1.107-1.071,1.359v0.019
			c0.702,0.126,1.269,0.657,1.269,1.423c0,1.035-0.909,1.791-2.395,1.791c-0.756,0-1.396-0.198-1.737-0.414L259.556,300.575z"/>
	</g>
</g>
<g>
	<path d="M364.419,113.17c0.369,0.189,0.937,0.378,1.521,0.378c0.63,0,0.963-0.261,0.963-0.657c0-0.378-0.288-0.594-1.018-0.855
		c-1.008-0.351-1.665-0.909-1.665-1.792c0-1.035,0.864-1.828,2.296-1.828c0.684,0,1.188,0.144,1.548,0.306l-0.306,1.107
		c-0.243-0.117-0.675-0.288-1.27-0.288c-0.594,0-0.882,0.27-0.882,0.585c0,0.387,0.342,0.559,1.125,0.855
		c1.071,0.396,1.575,0.954,1.575,1.81c0,1.017-0.783,1.881-2.448,1.881c-0.693,0-1.378-0.18-1.72-0.369L364.419,113.17z"/>
	<path d="M372.556,114.476c-0.243,0.108-0.702,0.198-1.225,0.198c-1.422,0-2.332-0.864-2.332-2.25c0-1.288,0.883-2.341,2.521-2.341
		c0.359,0,0.756,0.063,1.044,0.171l-0.216,1.017c-0.162-0.072-0.405-0.135-0.766-0.135c-0.72,0-1.188,0.513-1.179,1.233
		c0,0.811,0.54,1.233,1.206,1.233c0.324,0,0.576-0.054,0.783-0.135L372.556,114.476z"/>
	<path d="M373.311,108.191h1.368v2.512h0.019c0.144-0.189,0.324-0.333,0.54-0.45c0.198-0.108,0.459-0.171,0.711-0.171
		c0.873,0,1.54,0.604,1.54,1.927v2.575h-1.369v-2.422c0-0.576-0.197-0.972-0.711-0.972c-0.36,0-0.585,0.234-0.685,0.477
		c-0.035,0.09-0.045,0.207-0.045,0.306v2.611h-1.368V108.191z"/>
	<path d="M379.638,112.819c0.045,0.567,0.604,0.837,1.242,0.837c0.469,0,0.847-0.063,1.216-0.18l0.18,0.927
		c-0.45,0.18-0.999,0.27-1.593,0.27c-1.495,0-2.351-0.864-2.351-2.242c0-1.116,0.693-2.35,2.224-2.35
		c1.423,0,1.963,1.107,1.963,2.197c0,0.234-0.026,0.441-0.045,0.54H379.638z M381.249,111.883c0-0.333-0.144-0.892-0.773-0.892
		c-0.576,0-0.811,0.522-0.847,0.892H381.249z"/>
	<path d="M383.337,111.585c0-0.549-0.019-1.017-0.036-1.404h1.152l0.063,0.594h0.027c0.188-0.279,0.576-0.693,1.332-0.693
		c0.567,0,1.018,0.288,1.207,0.748h0.018c0.162-0.225,0.36-0.405,0.567-0.531c0.243-0.144,0.513-0.216,0.837-0.216
		c0.847,0,1.485,0.594,1.485,1.909v2.593h-1.332v-2.395c0-0.639-0.207-1.008-0.648-1.008c-0.315,0-0.54,0.216-0.63,0.477
		c-0.036,0.099-0.055,0.243-0.055,0.351v2.575h-1.332v-2.467c0-0.558-0.198-0.936-0.63-0.936c-0.352,0-0.559,0.27-0.64,0.495
		c-0.045,0.108-0.054,0.234-0.054,0.342v2.566h-1.332V111.585z"/>
	<path d="M393.579,114.583l-0.081-0.441h-0.027c-0.288,0.351-0.738,0.54-1.26,0.54c-0.892,0-1.423-0.648-1.423-1.351
		c0-1.143,1.026-1.692,2.584-1.684v-0.063c0-0.234-0.126-0.567-0.802-0.567c-0.45,0-0.927,0.153-1.215,0.333l-0.252-0.882
		c0.306-0.171,0.909-0.387,1.71-0.387c1.468,0,1.936,0.864,1.936,1.9v1.53c0,0.423,0.019,0.828,0.063,1.071H393.579z
		 M393.417,112.504c-0.721-0.009-1.278,0.162-1.278,0.693c0,0.351,0.234,0.522,0.54,0.522c0.342,0,0.621-0.225,0.711-0.504
		c0.019-0.072,0.027-0.153,0.027-0.234V112.504z"/>
	<path d="M376.736,122.43c0,1.81-0.729,3.052-2.224,3.052c-1.512,0-2.179-1.359-2.188-3.016c0-1.692,0.721-3.034,2.232-3.034
		C376.125,119.433,376.736,120.828,376.736,122.43z M373.703,122.466c-0.01,1.341,0.314,1.98,0.846,1.98s0.819-0.666,0.819-1.999
		c0-1.296-0.279-1.98-0.828-1.98C374.036,120.468,373.693,121.107,373.703,122.466z"/>
	<path d="M381.731,122.43c0,1.81-0.729,3.052-2.224,3.052c-1.512,0-2.179-1.359-2.188-3.016c0-1.692,0.721-3.034,2.232-3.034
		C381.12,119.433,381.731,120.828,381.731,122.43z M378.698,122.466c-0.01,1.341,0.314,1.98,0.846,1.98s0.819-0.666,0.819-1.999
		c0-1.296-0.279-1.98-0.828-1.98C379.031,120.468,378.688,121.107,378.698,122.466z"/>
	<path d="M382.405,125.383v-0.828l0.756-0.685c1.278-1.143,1.899-1.8,1.918-2.484c0-0.477-0.288-0.855-0.964-0.855
		c-0.504,0-0.944,0.252-1.251,0.486l-0.387-0.981c0.44-0.333,1.125-0.603,1.917-0.603c1.323,0,2.053,0.774,2.053,1.836
		c0,0.981-0.711,1.765-1.558,2.521l-0.54,0.45v0.018h2.206v1.125H382.405z"/>
</g>
<g>
	<path d="M426.56,113.17c0.369,0.189,0.937,0.378,1.521,0.378c0.631,0,0.964-0.261,0.964-0.657c0-0.378-0.288-0.594-1.018-0.855
		c-1.009-0.351-1.666-0.909-1.666-1.792c0-1.035,0.864-1.828,2.296-1.828c0.685,0,1.188,0.144,1.549,0.306l-0.307,1.107
		c-0.242-0.117-0.675-0.288-1.269-0.288c-0.595,0-0.883,0.27-0.883,0.585c0,0.387,0.342,0.559,1.126,0.855
		c1.071,0.396,1.575,0.954,1.575,1.81c0,1.017-0.783,1.881-2.449,1.881c-0.693,0-1.377-0.18-1.719-0.369L426.56,113.17z"/>
	<path d="M434.696,114.476c-0.243,0.108-0.702,0.198-1.224,0.198c-1.423,0-2.332-0.864-2.332-2.25c0-1.288,0.882-2.341,2.521-2.341
		c0.36,0,0.757,0.063,1.045,0.171l-0.217,1.017c-0.162-0.072-0.404-0.135-0.765-0.135c-0.721,0-1.188,0.513-1.18,1.233
		c0,0.811,0.54,1.233,1.206,1.233c0.324,0,0.576-0.054,0.783-0.135L434.696,114.476z"/>
	<path d="M435.452,108.191h1.368v2.512h0.018c0.145-0.189,0.324-0.333,0.54-0.45c0.198-0.108,0.46-0.171,0.712-0.171
		c0.873,0,1.539,0.604,1.539,1.927v2.575h-1.368v-2.422c0-0.576-0.198-0.972-0.711-0.972c-0.36,0-0.586,0.234-0.685,0.477
		c-0.036,0.09-0.045,0.207-0.045,0.306v2.611h-1.368V108.191z"/>
	<path d="M441.779,112.819c0.045,0.567,0.603,0.837,1.242,0.837c0.468,0,0.846-0.063,1.215-0.18l0.181,0.927
		c-0.45,0.18-0.999,0.27-1.594,0.27c-1.494,0-2.35-0.864-2.35-2.242c0-1.116,0.693-2.35,2.224-2.35c1.423,0,1.963,1.107,1.963,2.197
		c0,0.234-0.027,0.441-0.045,0.54H441.779z M443.391,111.883c0-0.333-0.145-0.892-0.774-0.892c-0.576,0-0.811,0.522-0.847,0.892
		H443.391z"/>
	<path d="M445.478,111.585c0-0.549-0.018-1.017-0.036-1.404h1.152l0.063,0.594h0.026c0.189-0.279,0.576-0.693,1.333-0.693
		c0.567,0,1.018,0.288,1.206,0.748h0.019c0.161-0.225,0.359-0.405,0.566-0.531c0.243-0.144,0.514-0.216,0.838-0.216
		c0.846,0,1.485,0.594,1.485,1.909v2.593h-1.333v-2.395c0-0.639-0.207-1.008-0.647-1.008c-0.315,0-0.54,0.216-0.631,0.477
		c-0.036,0.099-0.054,0.243-0.054,0.351v2.575h-1.332v-2.467c0-0.558-0.198-0.936-0.631-0.936c-0.351,0-0.558,0.27-0.639,0.495
		c-0.045,0.108-0.055,0.234-0.055,0.342v2.566h-1.332V111.585z"/>
	<path d="M455.72,114.583l-0.081-0.441h-0.026c-0.288,0.351-0.738,0.54-1.261,0.54c-0.891,0-1.422-0.648-1.422-1.351
		c0-1.143,1.026-1.692,2.583-1.684v-0.063c0-0.234-0.126-0.567-0.801-0.567c-0.45,0-0.928,0.153-1.216,0.333l-0.252-0.882
		c0.307-0.171,0.909-0.387,1.711-0.387c1.467,0,1.936,0.864,1.936,1.9v1.53c0,0.423,0.018,0.828,0.063,1.071H455.72z
		 M455.558,112.504c-0.72-0.009-1.278,0.162-1.278,0.693c0,0.351,0.234,0.522,0.541,0.522c0.342,0,0.621-0.225,0.711-0.504
		c0.018-0.072,0.026-0.153,0.026-0.234V112.504z"/>
	<path d="M438.878,122.43c0,1.81-0.729,3.052-2.224,3.052c-1.513,0-2.179-1.359-2.188-3.016c0-1.692,0.72-3.034,2.232-3.034
		C438.266,119.433,438.878,120.828,438.878,122.43z M435.844,122.466c-0.009,1.341,0.315,1.98,0.847,1.98s0.819-0.666,0.819-1.999
		c0-1.296-0.279-1.98-0.828-1.98C436.177,120.468,435.835,121.107,435.844,122.466z"/>
	<path d="M443.873,122.43c0,1.81-0.729,3.052-2.224,3.052c-1.513,0-2.179-1.359-2.188-3.016c0-1.692,0.72-3.034,2.232-3.034
		C443.261,119.433,443.873,120.828,443.873,122.43z M440.839,122.466c-0.009,1.341,0.315,1.98,0.847,1.98s0.819-0.666,0.819-1.999
		c0-1.296-0.279-1.98-0.828-1.98C441.172,120.468,440.83,121.107,440.839,122.466z"/>
	<path d="M444.789,124.042c0.243,0.126,0.802,0.36,1.359,0.36c0.712,0,1.071-0.342,1.071-0.783c0-0.576-0.576-0.837-1.179-0.837
		h-0.559V121.8h0.531c0.459-0.009,1.044-0.18,1.044-0.675c0-0.351-0.288-0.612-0.864-0.612c-0.477,0-0.98,0.207-1.224,0.351
		l-0.279-0.99c0.351-0.225,1.054-0.441,1.81-0.441c1.251,0,1.944,0.657,1.944,1.458c0,0.621-0.351,1.107-1.071,1.359v0.018
		c0.702,0.126,1.27,0.657,1.27,1.422c0,1.035-0.909,1.792-2.395,1.792c-0.757,0-1.396-0.198-1.737-0.414L444.789,124.042z"/>
</g>
<g>
	<path d="M216.126,336.168h-1.629v-1.152h4.663v1.152h-1.656v4.916h-1.377V336.168z"/>
	<path d="M220.167,339.318c0.045,0.568,0.603,0.838,1.242,0.838c0.468,0,0.846-0.063,1.215-0.18l0.18,0.927
		c-0.45,0.181-0.999,0.271-1.593,0.271c-1.495,0-2.35-0.865-2.35-2.242c0-1.116,0.693-2.35,2.224-2.35
		c1.423,0,1.963,1.107,1.963,2.197c0,0.233-0.027,0.44-0.045,0.539H220.167z M221.778,338.383c0-0.333-0.144-0.892-0.774-0.892
		c-0.576,0-0.811,0.522-0.847,0.892H221.778z"/>
	<path d="M223.866,338.086c0-0.549-0.018-1.018-0.036-1.404h1.188l0.063,0.603h0.027c0.18-0.278,0.63-0.702,1.359-0.702
		c0.9,0,1.576,0.594,1.576,1.891v2.611h-1.369v-2.44c0-0.567-0.198-0.954-0.693-0.954c-0.378,0-0.604,0.262-0.693,0.514
		c-0.036,0.08-0.054,0.215-0.054,0.342v2.539h-1.368V338.086z"/>
	<path d="M231.642,341.084l-0.081-0.441h-0.027c-0.288,0.352-0.738,0.54-1.26,0.54c-0.891,0-1.422-0.648-1.422-1.351
		c0-1.143,1.026-1.692,2.583-1.684v-0.063c0-0.234-0.126-0.567-0.801-0.567c-0.45,0-0.927,0.153-1.215,0.333l-0.252-0.883
		c0.306-0.17,0.909-0.387,1.71-0.387c1.467,0,1.936,0.864,1.936,1.9v1.529c0,0.424,0.018,0.828,0.063,1.072H231.642z
		 M231.48,339.004c-0.72-0.01-1.278,0.162-1.278,0.693c0,0.352,0.234,0.521,0.541,0.521c0.342,0,0.621-0.225,0.711-0.504
		c0.018-0.072,0.027-0.152,0.027-0.234V339.004z"/>
	<path d="M233.892,338.086c0-0.549-0.018-1.018-0.036-1.404h1.188l0.063,0.603h0.027c0.18-0.278,0.63-0.702,1.359-0.702
		c0.9,0,1.576,0.594,1.576,1.891v2.611H236.7v-2.44c0-0.567-0.198-0.954-0.693-0.954c-0.378,0-0.603,0.262-0.693,0.514
		c-0.036,0.08-0.054,0.215-0.054,0.342v2.539h-1.368V338.086z"/>
	<path d="M240.642,335.421v1.261h0.981v1.008h-0.981v1.594c0,0.531,0.126,0.773,0.54,0.773c0.171,0,0.306-0.018,0.405-0.035
		l0.009,1.035c-0.18,0.072-0.504,0.117-0.891,0.117c-0.441,0-0.81-0.153-1.026-0.379c-0.252-0.261-0.378-0.684-0.378-1.305v-1.801
		h-0.585v-1.008h0.585v-0.955L240.642,335.421z"/>
	<path d="M245.655,335.016v6.068h-1.377v-6.068H245.655z"/>
	<path d="M251.038,334.691v5.078c0,0.494,0.018,1.018,0.036,1.314h-1.215l-0.063-0.648h-0.018c-0.279,0.495-0.811,0.747-1.377,0.747
		c-1.044,0-1.882-0.892-1.882-2.26c-0.009-1.485,0.918-2.341,1.972-2.341c0.541,0,0.963,0.189,1.162,0.495h0.018v-2.386H251.038z
		 M249.669,338.545c0-0.072-0.009-0.172-0.018-0.243c-0.081-0.369-0.378-0.675-0.801-0.675c-0.621,0-0.945,0.558-0.945,1.251
		c0,0.747,0.369,1.216,0.936,1.216c0.396,0,0.711-0.271,0.792-0.658c0.027-0.099,0.036-0.197,0.036-0.314V338.545z"/>
	<path d="M254.979,336.682l0.657,2.16c0.072,0.262,0.162,0.586,0.216,0.819h0.027c0.063-0.233,0.135-0.567,0.198-0.819l0.54-2.16
		h1.467l-1.026,2.898c-0.63,1.746-1.054,2.449-1.549,2.89c-0.477,0.415-0.981,0.558-1.323,0.604l-0.288-1.161
		c0.171-0.027,0.387-0.108,0.594-0.234c0.207-0.107,0.432-0.324,0.567-0.549c0.045-0.063,0.072-0.135,0.072-0.198
		c0-0.046-0.009-0.117-0.063-0.226l-1.611-4.023H254.979z"/>
	<path d="M259.856,336.682l0.657,2.16c0.072,0.262,0.162,0.586,0.216,0.819h0.027c0.063-0.233,0.135-0.567,0.198-0.819l0.54-2.16
		h1.467l-1.026,2.898c-0.63,1.746-1.054,2.449-1.549,2.89c-0.477,0.415-0.981,0.558-1.323,0.604l-0.288-1.161
		c0.171-0.027,0.387-0.108,0.594-0.234c0.207-0.107,0.432-0.324,0.567-0.549c0.045-0.063,0.072-0.135,0.072-0.198
		c0-0.046-0.009-0.117-0.063-0.226l-1.611-4.023H259.856z"/>
	<path d="M264.734,336.682l0.657,2.16c0.072,0.262,0.162,0.586,0.216,0.819h0.027c0.063-0.233,0.135-0.567,0.198-0.819l0.54-2.16
		h1.467l-1.026,2.898c-0.63,1.746-1.054,2.449-1.549,2.89c-0.477,0.415-0.981,0.558-1.323,0.604l-0.288-1.161
		c0.171-0.027,0.387-0.108,0.594-0.234c0.207-0.107,0.432-0.324,0.567-0.549c0.045-0.063,0.072-0.135,0.072-0.198
		c0-0.046-0.009-0.117-0.063-0.226l-1.611-4.023H264.734z"/>
</g>
<g>
	<path d="M217.026,350.502h-1.629v-1.152h4.663v1.152h-1.656v4.916h-1.377V350.502z"/>
	<path d="M221.067,353.652c0.045,0.568,0.603,0.838,1.242,0.838c0.468,0,0.846-0.063,1.215-0.18l0.18,0.927
		c-0.45,0.181-0.999,0.271-1.593,0.271c-1.495,0-2.35-0.865-2.35-2.242c0-1.116,0.693-2.35,2.224-2.35
		c1.423,0,1.963,1.107,1.963,2.197c0,0.233-0.027,0.44-0.045,0.539H221.067z M222.678,352.717c0-0.333-0.144-0.892-0.774-0.892
		c-0.576,0-0.811,0.522-0.847,0.892H222.678z"/>
	<path d="M224.766,352.42c0-0.549-0.018-1.018-0.036-1.404h1.188l0.063,0.603h0.027c0.18-0.278,0.63-0.702,1.359-0.702
		c0.9,0,1.576,0.594,1.576,1.891v2.611h-1.369v-2.44c0-0.567-0.198-0.954-0.693-0.954c-0.378,0-0.604,0.262-0.693,0.514
		c-0.036,0.08-0.054,0.215-0.054,0.342v2.539h-1.368V352.42z"/>
	<path d="M232.542,355.418l-0.081-0.441h-0.027c-0.288,0.352-0.738,0.54-1.26,0.54c-0.891,0-1.422-0.648-1.422-1.351
		c0-1.143,1.026-1.692,2.583-1.684v-0.063c0-0.234-0.126-0.567-0.801-0.567c-0.45,0-0.927,0.153-1.215,0.333l-0.252-0.883
		c0.306-0.17,0.909-0.387,1.71-0.387c1.467,0,1.936,0.864,1.936,1.9v1.529c0,0.424,0.018,0.828,0.063,1.072H232.542z
		 M232.38,353.338c-0.72-0.01-1.278,0.162-1.278,0.693c0,0.352,0.234,0.521,0.541,0.521c0.342,0,0.621-0.225,0.711-0.504
		c0.018-0.072,0.027-0.152,0.027-0.234V353.338z"/>
	<path d="M234.792,352.42c0-0.549-0.018-1.018-0.036-1.404h1.188l0.063,0.603h0.027c0.18-0.278,0.63-0.702,1.359-0.702
		c0.9,0,1.576,0.594,1.576,1.891v2.611H237.6v-2.44c0-0.567-0.198-0.954-0.693-0.954c-0.378,0-0.603,0.262-0.693,0.514
		c-0.036,0.08-0.054,0.215-0.054,0.342v2.539h-1.368V352.42z"/>
	<path d="M241.542,349.755v1.261h0.981v1.008h-0.981v1.594c0,0.531,0.126,0.773,0.54,0.773c0.171,0,0.306-0.018,0.405-0.035
		l0.009,1.035c-0.18,0.072-0.504,0.117-0.891,0.117c-0.441,0-0.81-0.153-1.026-0.379c-0.252-0.261-0.378-0.684-0.378-1.305v-1.801
		h-0.585v-1.008h0.585v-0.955L241.542,349.755z"/>
	<path d="M246.555,349.35v6.068h-1.377v-6.068H246.555z"/>
	<path d="M251.938,349.025v5.078c0,0.494,0.018,1.018,0.036,1.314h-1.215l-0.063-0.648h-0.018c-0.279,0.495-0.811,0.747-1.377,0.747
		c-1.044,0-1.882-0.892-1.882-2.26c-0.009-1.485,0.918-2.341,1.972-2.341c0.541,0,0.963,0.189,1.162,0.495h0.018v-2.386H251.938z
		 M250.569,352.879c0-0.072-0.009-0.172-0.018-0.243c-0.081-0.369-0.378-0.675-0.801-0.675c-0.621,0-0.945,0.558-0.945,1.251
		c0,0.747,0.369,1.216,0.936,1.216c0.396,0,0.711-0.271,0.792-0.658c0.027-0.099,0.036-0.197,0.036-0.314V352.879z"/>
	<path d="M254.501,354.635l1.386-1.738c0.252-0.297,0.45-0.513,0.702-0.783v-0.018h-1.936v-1.08h3.601v0.818l-1.323,1.666
		c-0.243,0.288-0.468,0.566-0.72,0.811v0.018h2.116v1.09h-3.826V354.635z"/>
	<path d="M258.722,354.635l1.386-1.738c0.252-0.297,0.45-0.513,0.702-0.783v-0.018h-1.936v-1.08h3.601v0.818l-1.323,1.666
		c-0.243,0.288-0.468,0.566-0.72,0.811v0.018h2.116v1.09h-3.826V354.635z"/>
	<path d="M262.943,354.635l1.386-1.738c0.252-0.297,0.45-0.513,0.702-0.783v-0.018h-1.936v-1.08h3.601v0.818l-1.323,1.666
		c-0.243,0.288-0.468,0.566-0.72,0.811v0.018h2.116v1.09h-3.826V354.635z"/>
</g>
<g>
	<path d="M292.563,143.167h-1.629v-1.152h4.663v1.152h-1.656v4.916h-1.377V143.167z"/>
	<path d="M296.604,146.318c0.045,0.567,0.603,0.837,1.242,0.837c0.468,0,0.846-0.063,1.215-0.18l0.18,0.927
		c-0.45,0.18-0.999,0.27-1.593,0.27c-1.495,0-2.35-0.864-2.35-2.242c0-1.116,0.693-2.35,2.224-2.35c1.423,0,1.963,1.107,1.963,2.197
		c0,0.234-0.027,0.441-0.045,0.54H296.604z M298.215,145.382c0-0.333-0.144-0.892-0.774-0.892c-0.576,0-0.811,0.522-0.847,0.892
		H298.215z"/>
	<path d="M300.303,145.085c0-0.549-0.018-1.017-0.036-1.404h1.188l0.063,0.603h0.027c0.18-0.279,0.63-0.702,1.359-0.702
		c0.9,0,1.576,0.594,1.576,1.891v2.611h-1.369v-2.44c0-0.567-0.198-0.954-0.693-0.954c-0.378,0-0.604,0.261-0.693,0.513
		c-0.036,0.081-0.054,0.216-0.054,0.342v2.539h-1.368V145.085z"/>
	<path d="M308.079,148.083l-0.081-0.441h-0.027c-0.288,0.351-0.738,0.54-1.26,0.54c-0.891,0-1.422-0.648-1.422-1.351
		c0-1.143,1.026-1.692,2.583-1.684v-0.063c0-0.234-0.126-0.567-0.801-0.567c-0.45,0-0.927,0.153-1.215,0.333l-0.252-0.882
		c0.306-0.171,0.909-0.387,1.71-0.387c1.467,0,1.936,0.864,1.936,1.9v1.53c0,0.423,0.018,0.828,0.063,1.071H308.079z
		 M307.917,146.003c-0.72-0.009-1.278,0.162-1.278,0.693c0,0.351,0.234,0.522,0.541,0.522c0.342,0,0.621-0.225,0.711-0.504
		c0.018-0.072,0.027-0.153,0.027-0.234V146.003z"/>
	<path d="M310.329,145.085c0-0.549-0.018-1.017-0.036-1.404h1.188l0.063,0.603h0.027c0.18-0.279,0.63-0.702,1.359-0.702
		c0.9,0,1.576,0.594,1.576,1.891v2.611h-1.369v-2.44c0-0.567-0.198-0.954-0.693-0.954c-0.378,0-0.603,0.261-0.693,0.513
		c-0.036,0.081-0.054,0.216-0.054,0.342v2.539h-1.368V145.085z"/>
	<path d="M317.079,142.42v1.26h0.981v1.008h-0.981v1.593c0,0.531,0.126,0.774,0.54,0.774c0.171,0,0.306-0.018,0.405-0.036
		l0.009,1.036c-0.18,0.072-0.504,0.117-0.891,0.117c-0.441,0-0.81-0.153-1.026-0.378c-0.252-0.261-0.378-0.684-0.378-1.305v-1.801
		h-0.585v-1.008h0.585v-0.954L317.079,142.42z"/>
	<path d="M322.092,142.015v6.068h-1.377v-6.068H322.092z"/>
	<path d="M327.475,141.691v5.078c0,0.495,0.018,1.018,0.036,1.314h-1.215l-0.063-0.648h-0.018c-0.279,0.496-0.811,0.748-1.377,0.748
		c-1.044,0-1.882-0.891-1.882-2.26c-0.009-1.485,0.918-2.341,1.972-2.341c0.541,0,0.963,0.189,1.162,0.495h0.018v-2.386H327.475z
		 M326.106,145.544c0-0.072-0.009-0.171-0.018-0.243c-0.081-0.369-0.378-0.675-0.801-0.675c-0.621,0-0.945,0.558-0.945,1.251
		c0,0.747,0.369,1.215,0.936,1.215c0.396,0,0.711-0.27,0.792-0.657c0.027-0.099,0.036-0.198,0.036-0.315V145.544z"/>
	<path d="M331.433,143.681l0.432,0.729c0.126,0.225,0.243,0.45,0.36,0.657h0.018c0.117-0.234,0.225-0.459,0.342-0.675l0.387-0.711
		h1.485l-1.449,2.098l1.467,2.305h-1.548l-0.441-0.792c-0.126-0.216-0.234-0.441-0.342-0.667h-0.027
		c-0.108,0.234-0.225,0.45-0.333,0.667l-0.415,0.792h-1.503l1.495-2.242l-1.458-2.161H331.433z"/>
	<path d="M336.104,143.681l0.432,0.729c0.126,0.225,0.243,0.45,0.36,0.657h0.018c0.117-0.234,0.225-0.459,0.342-0.675l0.387-0.711
		h1.486l-1.45,2.098l1.467,2.305h-1.548l-0.441-0.792c-0.126-0.216-0.234-0.441-0.342-0.667h-0.027
		c-0.108,0.234-0.225,0.45-0.333,0.667l-0.414,0.792h-1.503l1.495-2.242l-1.458-2.161H336.104z"/>
	<path d="M340.775,143.681l0.433,0.729c0.126,0.225,0.243,0.45,0.36,0.657h0.018c0.117-0.234,0.226-0.459,0.342-0.675l0.388-0.711
		h1.485l-1.449,2.098l1.467,2.305h-1.548l-0.441-0.792c-0.126-0.216-0.234-0.441-0.342-0.667h-0.027
		c-0.108,0.234-0.225,0.45-0.333,0.667l-0.414,0.792h-1.504l1.495-2.242l-1.459-2.161H340.775z"/>
</g>
<g>
	<path d="M354.542,143.167h-1.629v-1.152h4.663v1.152h-1.656v4.916h-1.378V143.167z"/>
	<path d="M358.583,146.318c0.045,0.567,0.604,0.837,1.242,0.837c0.469,0,0.847-0.063,1.216-0.18l0.18,0.927
		c-0.45,0.18-0.999,0.27-1.593,0.27c-1.495,0-2.351-0.864-2.351-2.242c0-1.116,0.693-2.35,2.224-2.35
		c1.423,0,1.963,1.107,1.963,2.197c0,0.234-0.026,0.441-0.045,0.54H358.583z M360.194,145.382c0-0.333-0.144-0.892-0.773-0.892
		c-0.576,0-0.811,0.522-0.847,0.892H360.194z"/>
	<path d="M362.282,145.085c0-0.549-0.019-1.017-0.036-1.404h1.188l0.063,0.603h0.027c0.18-0.279,0.63-0.702,1.359-0.702
		c0.9,0,1.575,0.594,1.575,1.891v2.611h-1.368v-2.44c0-0.567-0.198-0.954-0.693-0.954c-0.378,0-0.604,0.261-0.693,0.513
		c-0.036,0.081-0.054,0.216-0.054,0.342v2.539h-1.368V145.085z"/>
	<path d="M370.059,148.083l-0.081-0.441h-0.027c-0.288,0.351-0.738,0.54-1.26,0.54c-0.892,0-1.423-0.648-1.423-1.351
		c0-1.143,1.026-1.692,2.584-1.684v-0.063c0-0.234-0.126-0.567-0.802-0.567c-0.45,0-0.927,0.153-1.215,0.333l-0.252-0.882
		c0.306-0.171,0.909-0.387,1.71-0.387c1.468,0,1.936,0.864,1.936,1.9v1.53c0,0.423,0.019,0.828,0.063,1.071H370.059z
		 M369.896,146.003c-0.721-0.009-1.278,0.162-1.278,0.693c0,0.351,0.234,0.522,0.54,0.522c0.342,0,0.621-0.225,0.711-0.504
		c0.019-0.072,0.027-0.153,0.027-0.234V146.003z"/>
	<path d="M372.308,145.085c0-0.549-0.018-1.017-0.036-1.404h1.188l0.063,0.603h0.026c0.181-0.279,0.631-0.702,1.359-0.702
		c0.9,0,1.576,0.594,1.576,1.891v2.611h-1.369v-2.44c0-0.567-0.197-0.954-0.693-0.954c-0.378,0-0.603,0.261-0.692,0.513
		c-0.036,0.081-0.055,0.216-0.055,0.342v2.539h-1.368V145.085z"/>
	<path d="M379.059,142.42v1.26h0.981v1.008h-0.981v1.593c0,0.531,0.126,0.774,0.54,0.774c0.171,0,0.306-0.018,0.405-0.036
		l0.009,1.036c-0.18,0.072-0.504,0.117-0.892,0.117c-0.44,0-0.81-0.153-1.026-0.378c-0.252-0.261-0.378-0.684-0.378-1.305v-1.801
		h-0.585v-1.008h0.585v-0.954L379.059,142.42z"/>
	<path d="M384.071,142.015v6.068h-1.378v-6.068H384.071z"/>
	<path d="M389.454,141.691v5.078c0,0.495,0.018,1.018,0.036,1.314h-1.216l-0.063-0.648h-0.019c-0.279,0.496-0.811,0.748-1.377,0.748
		c-1.045,0-1.882-0.891-1.882-2.26c-0.009-1.485,0.918-2.341,1.972-2.341c0.54,0,0.963,0.189,1.161,0.495h0.019v-2.386H389.454z
		 M388.086,145.544c0-0.072-0.01-0.171-0.019-0.243c-0.081-0.369-0.378-0.675-0.801-0.675c-0.621,0-0.945,0.558-0.945,1.251
		c0,0.747,0.369,1.215,0.936,1.215c0.396,0,0.712-0.27,0.793-0.657c0.026-0.099,0.036-0.198,0.036-0.315V145.544z"/>
	<path d="M393.395,143.681l0.657,2.161c0.072,0.261,0.162,0.585,0.216,0.819h0.027c0.063-0.234,0.135-0.567,0.198-0.819l0.54-2.161
		h1.467l-1.025,2.899c-0.631,1.747-1.054,2.449-1.549,2.89c-0.478,0.415-0.981,0.558-1.323,0.604l-0.288-1.162
		c0.171-0.027,0.387-0.108,0.594-0.234c0.207-0.108,0.433-0.324,0.567-0.549c0.045-0.063,0.072-0.135,0.072-0.198
		c0-0.045-0.009-0.117-0.063-0.225l-1.611-4.024H393.395z"/>
	<path d="M398.272,143.681l0.657,2.161c0.072,0.261,0.162,0.585,0.216,0.819h0.027c0.063-0.234,0.135-0.567,0.198-0.819l0.54-2.161
		h1.467l-1.025,2.899c-0.631,1.747-1.054,2.449-1.549,2.89c-0.478,0.415-0.981,0.558-1.323,0.604l-0.288-1.162
		c0.171-0.027,0.387-0.108,0.594-0.234c0.207-0.108,0.433-0.324,0.567-0.549c0.045-0.063,0.072-0.135,0.072-0.198
		c0-0.045-0.009-0.117-0.063-0.225l-1.611-4.024H398.272z"/>
	<path d="M403.15,143.681l0.657,2.161c0.072,0.261,0.162,0.585,0.216,0.819h0.027c0.063-0.234,0.135-0.567,0.198-0.819l0.54-2.161
		h1.467l-1.025,2.899c-0.631,1.747-1.054,2.449-1.549,2.89c-0.478,0.415-0.981,0.558-1.323,0.604l-0.288-1.162
		c0.171-0.027,0.387-0.108,0.594-0.234c0.207-0.108,0.433-0.324,0.567-0.549c0.045-0.063,0.072-0.135,0.072-0.198
		c0-0.045-0.009-0.117-0.063-0.225l-1.611-4.024H403.15z"/>
</g>
<g>
	<path d="M417.583,143.167h-1.629v-1.152h4.663v1.152h-1.656v4.916h-1.378V143.167z"/>
	<path d="M421.624,146.318c0.045,0.567,0.604,0.837,1.242,0.837c0.469,0,0.847-0.063,1.216-0.18l0.18,0.927
		c-0.45,0.18-0.999,0.27-1.593,0.27c-1.495,0-2.351-0.864-2.351-2.242c0-1.116,0.693-2.35,2.224-2.35
		c1.423,0,1.963,1.107,1.963,2.197c0,0.234-0.026,0.441-0.045,0.54H421.624z M423.235,145.382c0-0.333-0.144-0.892-0.773-0.892
		c-0.576,0-0.811,0.522-0.847,0.892H423.235z"/>
	<path d="M425.323,145.085c0-0.549-0.019-1.017-0.036-1.404h1.188l0.063,0.603h0.027c0.18-0.279,0.63-0.702,1.359-0.702
		c0.9,0,1.575,0.594,1.575,1.891v2.611h-1.368v-2.44c0-0.567-0.198-0.954-0.693-0.954c-0.378,0-0.604,0.261-0.693,0.513
		c-0.036,0.081-0.054,0.216-0.054,0.342v2.539h-1.368V145.085z"/>
	<path d="M433.1,148.083l-0.081-0.441h-0.027c-0.288,0.351-0.738,0.54-1.26,0.54c-0.892,0-1.423-0.648-1.423-1.351
		c0-1.143,1.026-1.692,2.584-1.684v-0.063c0-0.234-0.126-0.567-0.802-0.567c-0.45,0-0.927,0.153-1.215,0.333l-0.252-0.882
		c0.306-0.171,0.909-0.387,1.71-0.387c1.468,0,1.936,0.864,1.936,1.9v1.53c0,0.423,0.019,0.828,0.063,1.071H433.1z M432.938,146.003
		c-0.721-0.009-1.278,0.162-1.278,0.693c0,0.351,0.234,0.522,0.54,0.522c0.342,0,0.621-0.225,0.711-0.504
		c0.019-0.072,0.027-0.153,0.027-0.234V146.003z"/>
	<path d="M435.349,145.085c0-0.549-0.018-1.017-0.036-1.404h1.188l0.063,0.603h0.026c0.181-0.279,0.631-0.702,1.359-0.702
		c0.9,0,1.576,0.594,1.576,1.891v2.611h-1.369v-2.44c0-0.567-0.197-0.954-0.693-0.954c-0.378,0-0.603,0.261-0.692,0.513
		c-0.036,0.081-0.055,0.216-0.055,0.342v2.539h-1.368V145.085z"/>
	<path d="M442.1,142.42v1.26h0.981v1.008H442.1v1.593c0,0.531,0.126,0.774,0.54,0.774c0.171,0,0.306-0.018,0.405-0.036l0.009,1.036
		c-0.18,0.072-0.504,0.117-0.892,0.117c-0.44,0-0.81-0.153-1.026-0.378c-0.252-0.261-0.378-0.684-0.378-1.305v-1.801h-0.585v-1.008
		h0.585v-0.954L442.1,142.42z"/>
	<path d="M447.112,142.015v6.068h-1.378v-6.068H447.112z"/>
	<path d="M452.495,141.691v5.078c0,0.495,0.018,1.018,0.036,1.314h-1.216l-0.063-0.648h-0.019c-0.279,0.496-0.811,0.748-1.377,0.748
		c-1.045,0-1.882-0.891-1.882-2.26c-0.009-1.485,0.918-2.341,1.972-2.341c0.54,0,0.963,0.189,1.161,0.495h0.019v-2.386H452.495z
		 M451.127,145.544c0-0.072-0.01-0.171-0.019-0.243c-0.081-0.369-0.378-0.675-0.801-0.675c-0.621,0-0.945,0.558-0.945,1.251
		c0,0.747,0.369,1.215,0.936,1.215c0.396,0,0.712-0.27,0.793-0.657c0.026-0.099,0.036-0.198,0.036-0.315V145.544z"/>
	<path d="M455.059,147.3l1.386-1.737c0.252-0.297,0.45-0.513,0.702-0.784v-0.018h-1.936v-1.081h3.602v0.819l-1.323,1.666
		c-0.243,0.288-0.469,0.567-0.721,0.81v0.018h2.116v1.089h-3.826V147.3z"/>
	<path d="M459.279,147.3l1.387-1.737c0.252-0.297,0.45-0.513,0.702-0.784v-0.018h-1.936v-1.081h3.601v0.819l-1.323,1.666
		c-0.243,0.288-0.468,0.567-0.72,0.81v0.018h2.115v1.089h-3.826V147.3z"/>
	<path d="M463.5,147.3l1.387-1.737c0.252-0.297,0.45-0.513,0.702-0.784v-0.018h-1.936v-1.081h3.601v0.819l-1.323,1.666
		c-0.243,0.288-0.468,0.567-0.72,0.81v0.018h2.115v1.089H463.5V147.3z"/>
</g>
<g>
	<path d="M11.063,140.167H9.433v-1.152h4.663v1.152H12.44v4.916h-1.377V140.167z"/>
	<path d="M15.104,143.318c0.045,0.567,0.603,0.837,1.242,0.837c0.468,0,0.846-0.063,1.215-0.18l0.18,0.927
		c-0.45,0.18-0.999,0.27-1.593,0.27c-1.495,0-2.35-0.864-2.35-2.242c0-1.116,0.693-2.35,2.224-2.35c1.423,0,1.963,1.107,1.963,2.197
		c0,0.234-0.027,0.441-0.045,0.54H15.104z M16.715,142.382c0-0.333-0.144-0.892-0.774-0.892c-0.576,0-0.811,0.522-0.847,0.892
		H16.715z"/>
	<path d="M18.802,142.085c0-0.549-0.018-1.017-0.036-1.404h1.188l0.063,0.603h0.027c0.18-0.279,0.63-0.702,1.359-0.702
		c0.9,0,1.576,0.594,1.576,1.891v2.611h-1.369v-2.44c0-0.567-0.198-0.954-0.693-0.954c-0.378,0-0.604,0.261-0.693,0.513
		c-0.036,0.081-0.054,0.216-0.054,0.342v2.539h-1.368V142.085z"/>
	<path d="M26.579,145.083l-0.081-0.441h-0.027c-0.288,0.351-0.738,0.54-1.26,0.54c-0.891,0-1.422-0.648-1.422-1.351
		c0-1.143,1.026-1.692,2.583-1.684v-0.063c0-0.234-0.126-0.567-0.801-0.567c-0.45,0-0.927,0.153-1.215,0.333l-0.252-0.882
		c0.306-0.171,0.909-0.387,1.71-0.387c1.467,0,1.936,0.864,1.936,1.9v1.53c0,0.423,0.018,0.828,0.063,1.071H26.579z M26.417,143.003
		c-0.72-0.009-1.278,0.162-1.278,0.693c0,0.351,0.234,0.522,0.541,0.522c0.342,0,0.621-0.225,0.711-0.504
		c0.018-0.072,0.027-0.153,0.027-0.234V143.003z"/>
	<path d="M28.828,142.085c0-0.549-0.018-1.017-0.036-1.404h1.188l0.063,0.603h0.027c0.18-0.279,0.63-0.702,1.359-0.702
		c0.9,0,1.576,0.594,1.576,1.891v2.611h-1.369v-2.44c0-0.567-0.198-0.954-0.693-0.954c-0.378,0-0.603,0.261-0.693,0.513
		c-0.036,0.081-0.054,0.216-0.054,0.342v2.539h-1.368V142.085z"/>
	<path d="M35.579,139.42v1.26h0.981v1.008h-0.981v1.593c0,0.531,0.126,0.774,0.54,0.774c0.171,0,0.306-0.018,0.405-0.036
		l0.009,1.036c-0.18,0.072-0.504,0.117-0.891,0.117c-0.441,0-0.81-0.153-1.026-0.378c-0.252-0.261-0.378-0.684-0.378-1.305v-1.801
		h-0.585v-1.008h0.585v-0.954L35.579,139.42z"/>
	<path d="M40.591,139.015v6.068h-1.377v-6.068H40.591z"/>
	<path d="M45.974,138.691v5.078c0,0.495,0.018,1.018,0.036,1.314h-1.215l-0.063-0.648h-0.018c-0.279,0.496-0.811,0.748-1.377,0.748
		c-1.044,0-1.882-0.891-1.882-2.26c-0.009-1.485,0.918-2.341,1.972-2.341c0.541,0,0.963,0.189,1.162,0.495h0.018v-2.386H45.974z
		 M44.606,142.544c0-0.072-0.009-0.171-0.018-0.243c-0.081-0.369-0.378-0.675-0.801-0.675c-0.621,0-0.945,0.558-0.945,1.251
		c0,0.747,0.369,1.215,0.936,1.215c0.396,0,0.711-0.27,0.792-0.657c0.027-0.099,0.036-0.198,0.036-0.315V142.544z"/>
	<path d="M49.933,140.681l0.432,0.729c0.126,0.225,0.243,0.45,0.36,0.657h0.018c0.117-0.234,0.225-0.459,0.342-0.675l0.387-0.711
		h1.485l-1.449,2.098l1.467,2.305h-1.548l-0.441-0.792c-0.126-0.216-0.234-0.441-0.342-0.667h-0.027
		c-0.108,0.234-0.225,0.45-0.333,0.667l-0.415,0.792h-1.503l1.495-2.242l-1.458-2.161H49.933z"/>
	<path d="M54.604,140.681l0.432,0.729c0.126,0.225,0.243,0.45,0.36,0.657h0.018c0.117-0.234,0.225-0.459,0.342-0.675l0.387-0.711
		h1.485l-1.449,2.098l1.467,2.305h-1.548l-0.441-0.792c-0.126-0.216-0.234-0.441-0.342-0.667h-0.027
		c-0.108,0.234-0.225,0.45-0.333,0.667l-0.414,0.792h-1.503l1.495-2.242l-1.458-2.161H54.604z"/>
	<path d="M59.275,140.681l0.432,0.729c0.126,0.225,0.243,0.45,0.36,0.657h0.018c0.117-0.234,0.225-0.459,0.342-0.675l0.387-0.711
		H62.3l-1.449,2.098l1.467,2.305H60.77l-0.441-0.792c-0.126-0.216-0.234-0.441-0.342-0.667h-0.027
		c-0.108,0.234-0.225,0.45-0.333,0.667l-0.414,0.792h-1.503l1.495-2.242l-1.458-2.161H59.275z"/>
</g>
<g>
	<path d="M83.042,140.167h-1.629v-1.152h4.663v1.152H84.42v4.916h-1.377V140.167z"/>
	<path d="M87.083,143.318c0.045,0.567,0.603,0.837,1.242,0.837c0.468,0,0.846-0.063,1.215-0.18l0.18,0.927
		c-0.45,0.18-0.999,0.27-1.593,0.27c-1.495,0-2.35-0.864-2.35-2.242c0-1.116,0.693-2.35,2.224-2.35c1.423,0,1.963,1.107,1.963,2.197
		c0,0.234-0.027,0.441-0.045,0.54H87.083z M88.695,142.382c0-0.333-0.144-0.892-0.774-0.892c-0.576,0-0.811,0.522-0.847,0.892
		H88.695z"/>
	<path d="M90.782,142.085c0-0.549-0.018-1.017-0.036-1.404h1.188l0.063,0.603h0.027c0.18-0.279,0.63-0.702,1.359-0.702
		c0.9,0,1.576,0.594,1.576,1.891v2.611h-1.369v-2.44c0-0.567-0.198-0.954-0.693-0.954c-0.378,0-0.604,0.261-0.693,0.513
		c-0.036,0.081-0.054,0.216-0.054,0.342v2.539h-1.368V142.085z"/>
	<path d="M98.559,145.083l-0.081-0.441h-0.027c-0.288,0.351-0.738,0.54-1.26,0.54c-0.891,0-1.422-0.648-1.422-1.351
		c0-1.143,1.026-1.692,2.583-1.684v-0.063c0-0.234-0.126-0.567-0.801-0.567c-0.45,0-0.927,0.153-1.215,0.333l-0.252-0.882
		c0.306-0.171,0.909-0.387,1.71-0.387c1.467,0,1.936,0.864,1.936,1.9v1.53c0,0.423,0.018,0.828,0.063,1.071H98.559z M98.396,143.003
		c-0.72-0.009-1.278,0.162-1.278,0.693c0,0.351,0.234,0.522,0.541,0.522c0.342,0,0.621-0.225,0.711-0.504
		c0.018-0.072,0.027-0.153,0.027-0.234V143.003z"/>
	<path d="M100.808,142.085c0-0.549-0.018-1.017-0.036-1.404h1.188l0.063,0.603h0.027c0.18-0.279,0.63-0.702,1.359-0.702
		c0.9,0,1.576,0.594,1.576,1.891v2.611h-1.369v-2.44c0-0.567-0.198-0.954-0.693-0.954c-0.378,0-0.603,0.261-0.693,0.513
		c-0.036,0.081-0.054,0.216-0.054,0.342v2.539h-1.368V142.085z"/>
	<path d="M107.559,139.42v1.26h0.981v1.008h-0.981v1.593c0,0.531,0.126,0.774,0.54,0.774c0.171,0,0.306-0.018,0.405-0.036
		l0.009,1.036c-0.18,0.072-0.504,0.117-0.891,0.117c-0.441,0-0.81-0.153-1.026-0.378c-0.252-0.261-0.378-0.684-0.378-1.305v-1.801
		h-0.585v-1.008h0.585v-0.954L107.559,139.42z"/>
	<path d="M112.571,139.015v6.068h-1.377v-6.068H112.571z"/>
	<path d="M117.954,138.691v5.078c0,0.495,0.018,1.018,0.036,1.314h-1.215l-0.063-0.648h-0.018c-0.279,0.496-0.811,0.748-1.377,0.748
		c-1.044,0-1.882-0.891-1.882-2.26c-0.009-1.485,0.918-2.341,1.972-2.341c0.541,0,0.963,0.189,1.162,0.495h0.018v-2.386H117.954z
		 M116.586,142.544c0-0.072-0.009-0.171-0.018-0.243c-0.081-0.369-0.378-0.675-0.801-0.675c-0.621,0-0.945,0.558-0.945,1.251
		c0,0.747,0.369,1.215,0.936,1.215c0.396,0,0.711-0.27,0.792-0.657c0.027-0.099,0.036-0.198,0.036-0.315V142.544z"/>
	<path d="M121.895,140.681l0.657,2.161c0.072,0.261,0.162,0.585,0.216,0.819h0.027c0.063-0.234,0.135-0.567,0.198-0.819l0.54-2.161
		H125l-1.026,2.899c-0.63,1.747-1.054,2.449-1.549,2.89c-0.477,0.415-0.981,0.558-1.323,0.604l-0.288-1.162
		c0.171-0.027,0.387-0.108,0.594-0.234c0.207-0.108,0.432-0.324,0.567-0.549c0.045-0.063,0.072-0.135,0.072-0.198
		c0-0.045-0.009-0.117-0.063-0.225l-1.611-4.024H121.895z"/>
	<path d="M126.773,140.681l0.657,2.161c0.072,0.261,0.162,0.585,0.216,0.819h0.027c0.063-0.234,0.135-0.567,0.198-0.819l0.54-2.161
		h1.467l-1.026,2.899c-0.63,1.747-1.054,2.449-1.549,2.89c-0.477,0.415-0.981,0.558-1.323,0.604l-0.288-1.162
		c0.171-0.027,0.387-0.108,0.594-0.234c0.207-0.108,0.432-0.324,0.567-0.549c0.045-0.063,0.072-0.135,0.072-0.198
		c0-0.045-0.009-0.117-0.063-0.225l-1.611-4.024H126.773z"/>
	<path d="M131.651,140.681l0.657,2.161c0.072,0.261,0.162,0.585,0.216,0.819h0.027c0.063-0.234,0.135-0.567,0.198-0.819l0.54-2.161
		h1.467l-1.026,2.899c-0.63,1.747-1.054,2.449-1.549,2.89c-0.477,0.415-0.981,0.558-1.323,0.604l-0.288-1.162
		c0.171-0.027,0.387-0.108,0.594-0.234c0.207-0.108,0.432-0.324,0.567-0.549c0.045-0.063,0.072-0.135,0.072-0.198
		c0-0.045-0.009-0.117-0.063-0.225l-1.611-4.024H131.651z"/>
</g>
<g>
	<path d="M156.084,140.167h-1.629v-1.152h4.663v1.152h-1.656v4.916h-1.377V140.167z"/>
	<path d="M160.125,143.318c0.045,0.567,0.603,0.837,1.242,0.837c0.468,0,0.846-0.063,1.215-0.18l0.18,0.927
		c-0.45,0.18-0.999,0.27-1.593,0.27c-1.495,0-2.35-0.864-2.35-2.242c0-1.116,0.693-2.35,2.224-2.35c1.423,0,1.963,1.107,1.963,2.197
		c0,0.234-0.027,0.441-0.045,0.54H160.125z M161.736,142.382c0-0.333-0.144-0.892-0.774-0.892c-0.576,0-0.811,0.522-0.847,0.892
		H161.736z"/>
	<path d="M163.824,142.085c0-0.549-0.018-1.017-0.036-1.404h1.188l0.063,0.603h0.027c0.18-0.279,0.63-0.702,1.359-0.702
		c0.9,0,1.576,0.594,1.576,1.891v2.611h-1.369v-2.44c0-0.567-0.198-0.954-0.693-0.954c-0.378,0-0.604,0.261-0.693,0.513
		c-0.036,0.081-0.054,0.216-0.054,0.342v2.539h-1.368V142.085z"/>
	<path d="M171.6,145.083l-0.081-0.441h-0.027c-0.288,0.351-0.738,0.54-1.26,0.54c-0.891,0-1.422-0.648-1.422-1.351
		c0-1.143,1.026-1.692,2.583-1.684v-0.063c0-0.234-0.126-0.567-0.801-0.567c-0.45,0-0.927,0.153-1.215,0.333l-0.252-0.882
		c0.306-0.171,0.909-0.387,1.71-0.387c1.467,0,1.936,0.864,1.936,1.9v1.53c0,0.423,0.018,0.828,0.063,1.071H171.6z M171.438,143.003
		c-0.72-0.009-1.278,0.162-1.278,0.693c0,0.351,0.234,0.522,0.541,0.522c0.342,0,0.621-0.225,0.711-0.504
		c0.018-0.072,0.027-0.153,0.027-0.234V143.003z"/>
	<path d="M173.85,142.085c0-0.549-0.018-1.017-0.036-1.404h1.188l0.063,0.603h0.027c0.18-0.279,0.63-0.702,1.359-0.702
		c0.9,0,1.576,0.594,1.576,1.891v2.611h-1.369v-2.44c0-0.567-0.198-0.954-0.693-0.954c-0.378,0-0.603,0.261-0.693,0.513
		c-0.036,0.081-0.054,0.216-0.054,0.342v2.539h-1.368V142.085z"/>
	<path d="M180.6,139.42v1.26h0.981v1.008H180.6v1.593c0,0.531,0.126,0.774,0.54,0.774c0.171,0,0.306-0.018,0.405-0.036l0.009,1.036
		c-0.18,0.072-0.504,0.117-0.891,0.117c-0.441,0-0.81-0.153-1.026-0.378c-0.252-0.261-0.378-0.684-0.378-1.305v-1.801h-0.585v-1.008
		h0.585v-0.954L180.6,139.42z"/>
	<path d="M185.613,139.015v6.068h-1.377v-6.068H185.613z"/>
	<path d="M190.996,138.691v5.078c0,0.495,0.018,1.018,0.036,1.314h-1.215l-0.063-0.648h-0.018c-0.279,0.496-0.811,0.748-1.377,0.748
		c-1.044,0-1.882-0.891-1.882-2.26c-0.009-1.485,0.918-2.341,1.972-2.341c0.541,0,0.963,0.189,1.162,0.495h0.018v-2.386H190.996z
		 M189.627,142.544c0-0.072-0.009-0.171-0.018-0.243c-0.081-0.369-0.378-0.675-0.801-0.675c-0.621,0-0.945,0.558-0.945,1.251
		c0,0.747,0.369,1.215,0.936,1.215c0.396,0,0.711-0.27,0.792-0.657c0.027-0.099,0.036-0.198,0.036-0.315V142.544z"/>
	<path d="M193.559,144.3l1.386-1.737c0.252-0.297,0.45-0.513,0.702-0.784v-0.018h-1.936v-1.081h3.601v0.819l-1.323,1.666
		c-0.243,0.288-0.468,0.567-0.72,0.81v0.018h2.116v1.089h-3.826V144.3z"/>
	<path d="M197.78,144.3l1.386-1.737c0.252-0.297,0.45-0.513,0.702-0.784v-0.018h-1.936v-1.081h3.601v0.819l-1.323,1.666
		c-0.243,0.288-0.468,0.567-0.72,0.81v0.018h2.116v1.089h-3.826V144.3z"/>
	<path d="M202.001,144.3l1.386-1.737c0.252-0.297,0.45-0.513,0.702-0.784v-0.018h-1.936v-1.081h3.601v0.819l-1.323,1.666
		c-0.243,0.288-0.468,0.567-0.72,0.81v0.018h2.116v1.089h-3.826V144.3z"/>
</g>
<path fill-rule="evenodd" clip-rule="evenodd" fill="#CACACA" d="M113.802,264.641c-0.394-2.747-0.83-5.322-1.116-7.916
	c-0.326-2.962,0.817-3.888,3.561-2.808c8.45,3.322,16.881,6.689,25.289,10.113c2.791,1.137,3.016,2.602,0.725,4.427
	c-7.101,5.654-14.232,11.272-21.39,16.854c-2.479,1.934-3.725,1.368-4.234-1.827c-0.429-2.692-0.782-5.396-1.192-8.258
	c-3.136-0.229-6.134-0.306-9.091-0.691c-24.001-3.134-43.054-22.594-45.262-46.154c-2.349-25.055,12.398-47.611,36.141-55.231
	c1.853-0.595,3.769-0.996,5.668-1.437c0.558-0.13,1.627-0.228,1.667-0.097c0.792,2.595,1.65,5.2,2.034,7.87
	c0.09,0.63-1.385,1.962-2.33,2.191c-11.342,2.751-20.447,8.721-26.627,18.679c-8.614,13.879-9.132,28.405-1.371,42.604
	c7.584,13.875,19.841,21.121,35.776,21.815C112.51,264.796,112.976,264.708,113.802,264.641z"/>
<path fill-rule="evenodd" clip-rule="evenodd" fill="#CACACA" d="M372.252,267.247c0-2.775,0.067-5.387-0.018-7.994
	c-0.097-2.979-1.359-3.733-3.923-2.275c-7.894,4.486-15.763,9.015-23.601,13.596c-2.602,1.521-2.617,3.003-0.09,4.484
	c7.83,4.591,15.686,9.142,23.563,13.653c2.729,1.563,3.881,0.826,3.932-2.409c0.044-2.726,0.01-5.452,0.01-8.343
	c3.072-0.672,6.029-1.172,8.901-1.973c23.314-6.504,39.417-28.468,38.265-52.104c-1.227-25.135-19.021-45.373-43.604-49.552
	c-1.919-0.326-3.872-0.452-5.814-0.619c-0.571-0.05-1.644,0.005-1.664,0.141c-0.417,2.682-0.897,5.382-0.897,8.079
	c0,0.637,1.648,1.746,2.617,1.839c11.617,1.116,21.477,5.735,29.006,14.717c10.493,12.518,13.064,26.824,7.395,41.979
	c-5.541,14.81-16.647,23.72-32.323,26.665C373.553,267.218,373.079,267.196,372.252,267.247z"/>
<path fill-rule="evenodd" clip-rule="evenodd" fill="#CACACA" d="M262.697,62.391c-2.775,0-5.387-0.067-7.994,0.018
	c-2.979,0.097-3.733,1.359-2.275,3.923c4.486,7.894,9.015,15.763,13.596,23.601c1.521,2.602,3.003,2.617,4.484,0.09
	c4.591-7.83,9.142-15.686,13.653-23.563c1.563-2.729,0.826-3.881-2.409-3.932c-2.726-0.044-5.452-0.01-8.343-0.01
	c-0.672-3.072-1.172-6.029-1.973-8.901c-6.504-23.314-28.468-39.417-52.104-38.265c-25.135,1.227-45.373,19.021-49.552,43.604
	c-0.326,1.919-0.452,3.872-0.619,5.814c-0.05,0.571,0.005,1.644,0.141,1.664c2.682,0.417,5.382,0.897,8.079,0.897
	c0.637,0,1.746-1.648,1.839-2.617c1.116-11.617,5.735-21.477,14.717-29.006c12.518-10.493,26.824-13.064,41.979-7.395
	c14.81,5.541,23.72,16.647,26.665,32.323C262.668,61.09,262.646,61.563,262.697,62.391z"/>
<g>
</g>
<g>
</g>
<g>
</g>
<g>
</g>
<g>
</g>
<g>
</g>
</svg>
