<?xml version="1.0" encoding="utf-8"?>
<!-- Generator: Adobe Illustrator 16.0.0, SVG Export Plug-In . SVG Version: 6.00 Build 0)  -->
<!DOCTYPE svg PUBLIC "-//W3C//DTD SVG 1.1 Tiny//EN" "http://www.w3.org/Graphics/SVG/1.1/DTD/svg11-tiny.dtd">
<svg version="1.1" baseProfile="tiny" id="Capa_1" xmlns="http://www.w3.org/2000/svg" xmlns:xlink="http://www.w3.org/1999/xlink"
	 x="0px" y="0px" width="612px" height="612px" viewBox="0 90 612 612" xml:space="preserve">
<g>
	<path fill="#3F3F3F" d="M569.783,248.276c-1.583,0-3.198-0.359-4.717-1.108l-126.621-63.311c-5.213-2.605-7.322-8.948-4.717-14.161
		s8.959-7.313,14.161-4.717l126.62,63.311c5.213,2.606,7.323,8.948,4.717,14.161C577.38,246.145,573.655,248.276,569.783,248.276z"
		/>
	<path fill="#3F3F3F" d="M495.941,385.448c-3.146,0-6.258-1.403-8.336-4.072l-73.862-94.965c-3.578-4.611-2.743-11.228,1.847-14.804
		c4.601-3.609,11.228-2.744,14.804,1.847l73.862,94.965c3.577,4.612,2.743,11.228-1.847,14.804
		C500.479,384.73,498.199,385.448,495.941,385.448z"/>
	<path fill="#3F3F3F" d="M339.85,565.83c-3.208,0-6.373-1.456-8.451-4.221c-3.493-4.653-2.554-11.27,2.11-14.762l58.942-44.202
		c4.664-3.492,11.28-2.553,14.772,2.111c3.493,4.653,2.554,11.27-2.11,14.762l-58.942,44.202
		C344.271,565.133,342.056,565.83,339.85,565.83z"/>
	<path fill="#3F3F3F" d="M137.173,607.035H63.311c-5.825,0-10.552-4.717-10.552-10.553c0-5.835,4.728-10.552,10.552-10.552h73.862
		c5.825,0,10.552,4.717,10.552,10.552C147.724,602.318,142.997,607.035,137.173,607.035z"/>
	<path fill="#3F3F3F" d="M280.95,397.741c-2.121,0-4.273-0.644-6.13-1.973l-91.03-65.051c-4.738-3.388-5.836-9.971-2.448-14.719
		c3.388-4.748,9.982-5.835,14.719-2.448l91.03,65.051c4.738,3.388,5.835,9.971,2.448,14.719
		C287.482,396.212,284.243,397.741,280.95,397.741z"/>
	<path fill="#3F3F3F" d="M180.129,268.641c-2.944,0-5.867-1.213-7.945-3.608c-3.84-4.39-3.388-11.058,1.003-14.889l83.675-73.123
		c4.378-3.84,11.047-3.397,14.889,1.003c3.841,4.389,3.388,11.058-1.002,14.889l-83.676,73.124
		C185.066,267.786,182.587,268.641,180.129,268.641z"/>
	<path fill="#3F3F3F" d="M105.518,237.724c-5.825,0-10.552-4.716-10.552-10.552v-73.861c0-5.835,4.728-10.552,10.552-10.552
		s10.552,4.717,10.552,10.552v73.862C116.068,233.007,111.342,237.724,105.518,237.724z"/>
	<path fill="#3F3F3F" d="M439.226,661.534c-1.551,0-3.123-0.339-4.611-1.066L322.48,605.969c-5.243-2.543-7.429-8.863-4.874-14.107
		c2.553-5.244,8.853-7.418,14.107-4.874l112.133,54.499c5.244,2.542,7.429,8.863,4.875,14.106
		C446.897,659.35,443.141,661.534,439.226,661.534z"/>
</g>
<path fill="#3E9FFF" d="M211.035,332.689c0-58.277-47.24-105.517-105.517-105.517C47.24,227.172,0,274.413,0,332.689
	c0,39.031,21.251,73.029,52.759,91.283v-27.815c0-11.744,9.918-21.262,22.148-21.262h61.221c12.229,0,22.148,9.517,22.148,21.262
	v27.794C189.794,405.729,211.035,371.721,211.035,332.689z"/>
<g>
	<circle fill="#3F3F3F" cx="580.345" cy="248.276" r="31.656"/>
	<circle fill="#3F3F3F" cx="31.655" cy="596.482" r="31.655"/>
	<circle fill="#3F3F3F" cx="464.276" cy="670.345" r="31.655"/>
	<circle fill="#3F3F3F" cx="306" cy="406.552" r="31.656"/>
</g>
<g>
	<circle fill="#FFFFFF" cx="105.518" cy="301.035" r="31.656"/>
	<path fill="#FFFFFF" d="M136.128,374.897H74.907c-12.229,0-22.148,9.517-22.148,21.262v27.814
		c15.532,9.001,33.512,14.234,52.759,14.234c19.247,0,37.227-5.233,52.758-14.234v-27.814
		C158.276,384.414,148.357,374.897,136.128,374.897z"/>
</g>
<path fill="#3E9FFF" d="M464.276,195.518C464.276,137.24,417.036,90,358.759,90s-105.518,47.24-105.518,105.518
	c0,39.03,21.251,73.029,52.759,91.282v-27.815c0-11.744,9.919-21.262,22.148-21.262h61.221c12.229,0,22.148,9.517,22.148,21.262
	v27.793C443.035,268.556,464.276,234.548,464.276,195.518z"/>
<g>
	<circle fill="#FFFFFF" cx="358.759" cy="163.862" r="31.656"/>
	<path fill="#FFFFFF" d="M389.369,237.724h-61.221c-12.229,0-22.148,9.518-22.148,21.263v27.814
		c15.532,9.001,33.512,14.234,52.759,14.234s37.227-5.233,52.759-14.234v-27.814C411.518,247.242,401.599,237.724,389.369,237.724z"
		/>
</g>
<path fill="#3E9FFF" d="M601.447,469.862c0-58.278-47.239-105.518-105.517-105.518s-105.518,47.239-105.518,105.518
	c0,39.03,21.251,73.028,52.759,91.282v-27.815c0-11.743,9.919-21.262,22.147-21.262h61.222c12.229,0,22.148,9.517,22.148,21.262
	v27.794C580.207,542.901,601.447,508.893,601.447,469.862z"/>
<g>
	<circle fill="#FFFFFF" cx="495.932" cy="438.207" r="31.656"/>
	<path fill="#FFFFFF" d="M526.541,512.068h-61.222c-12.229,0-22.147,9.518-22.147,21.263v27.814
		c15.531,9.001,33.512,14.233,52.759,14.233s37.227-5.232,52.759-14.233v-27.814C548.689,521.587,538.771,512.068,526.541,512.068z"
		/>
</g>
<path fill="#3E9FFF" d="M348.206,596.482c0-58.277-47.239-105.518-105.517-105.518c-58.277,0-105.517,47.24-105.517,105.518
	c0,39.03,21.251,73.029,52.758,91.282V659.95c0-11.744,9.919-21.263,22.148-21.263H273.3c12.229,0,22.148,9.518,22.148,21.263
	v27.793C326.966,669.522,348.206,635.513,348.206,596.482z"/>
<g>
	<circle fill="#FFFFFF" cx="242.689" cy="564.827" r="31.655"/>
	<path fill="#FFFFFF" d="M273.3,638.689h-61.222c-12.229,0-22.148,9.517-22.148,21.262v27.815c15.532,9,33.512,14.233,52.759,14.233
		c19.247,0,37.227-5.233,52.759-14.233v-27.815C295.448,648.207,285.529,638.689,273.3,638.689z"/>
</g>
<circle fill="#3F3F3F" cx="105.518" cy="121.656" r="31.656"/>
</svg>
