<svg id="Layer_3" enable-background="new 0 0 64 64" height="512" viewBox="0 0 64 64" width="512" xmlns="http://www.w3.org/2000/svg"><g><g><path d="m39.196 21.196-13.196-13.196-18 20v26h38v-26.697c-2.995-1.061-5.438-3.272-6.804-6.107z" fill="#e7e4dd"/></g><path d="m21 22h10v8h-10z" fill="#92d8f1"/><path d="m19 54v-11c0-3.866 3.134-7 7-7 3.866 0 7 3.134 7 7v11z" fill="#d19e6d"/><path d="m26 50 4.516-4.014c2.888-2.568 6.619-3.986 10.484-3.986 3.865 0 7.596 1.418 10.484 3.986l4.516 4.014z" fill="#92d8f1"/><path d="m22 58v-4c0-2.209 1.791-4 4-4h32c2.209 0 4 1.791 4 4v4z" fill="#94c049"/><circle cx="30" cy="58" fill="#4d4d4d" r="4"/><circle cx="52" cy="58" fill="#4d4d4d" r="4"/><circle cx="50" cy="16" fill="#f8cf6a" r="12"/><path d="m38 16c0-.629.063-1.241.156-1.844l-12.156-12.156-24 26h6l18-20 13.196 13.196c-.759-1.574-1.196-3.332-1.196-5.196z" fill="#9d7752"/><path d="m38 16c0 2.948 1.068 5.645 2.832 7.734.863.173 1.754.266 2.668.266 7.456 0 13.5-6.044 13.5-13.5 0-1.701-.328-3.323-.903-4.822-1.788-1.059-3.868-1.678-6.097-1.678-6.627 0-12 5.373-12 12z" fill="#fbe2a6"/><path d="m50 15c-1.103 0-2-.897-2-2s.897-2 2-2 2 .897 2 2h2c0-1.858-1.28-3.411-3-3.858v-2.142h-2v2.142c-1.72.447-3 2-3 3.858 0 2.206 1.794 4 4 4 1.103 0 2 .897 2 2s-.897 2-2 2-2-.897-2-2h-2c0 1.858 1.28 3.411 3 3.858v2.142h2v-2.142c1.72-.447 3-2 3-3.858 0-2.206-1.794-4-4-4z" fill="#fff"/><g><path d="m22 43h2v4h-2z" fill="#fff"/></g><path d="m41 42c-.335 0-.667.025-1 .046v7.954h2v-7.954c-.333-.021-.665-.046-1-.046z" fill="#94c049"/></g></svg>