<?xml version="1.0" encoding="utf-8"?>
<!-- Generator: Adobe Illustrator 16.0.0, SVG Export Plug-In . SVG Version: 6.00 Build 0)  -->
<!DOCTYPE svg PUBLIC "-//W3C//DTD SVG 1.1//EN" "http://www.w3.org/Graphics/SVG/1.1/DTD/svg11.dtd">
<svg version="1.1" id="Layer_1" xmlns="http://www.w3.org/2000/svg" xmlns:xlink="http://www.w3.org/1999/xlink" x="0px" y="0px"
	 width="504.548px" height="595.278px" viewBox="45.365 123.305 504.548 595.278"
	 enable-background="new 45.365 123.305 504.548 595.278" xml:space="preserve">
<path d="M289.866,210.028c-82.837,3.887-151.341,68.625-159.113,151.341c-3.887,50.406,14.211,100.934,51.742,135.793
	c23.319,21.982,36.194,49.189,36.194,78.949v107.371c0,7.773,5.224,12.996,12.996,12.996h53.078v9.109
	c0,7.773,5.224,12.996,12.997,12.996s12.996-5.223,12.996-12.996v-9.109h53.078c6.438,0,12.995-5.223,12.995-11.66V576.111
	c0-29.758,12.996-56.965,34.98-77.613c33.646-31.094,53.079-76.277,53.079-121.582C464.528,282.419,385.576,204.805,289.866,210.028
	z M245.898,594.208h104.82v24.656h-104.82V594.208L245.898,594.208z M245.898,670.609v-25.871h104.82v25.871H245.898z
	 M393.351,479.064c-25.507,24.293-40.812,55.508-42.511,89.273H245.533c-2.309-32.916-17.612-64.375-43.604-89.273
	c-32.309-29.758-47.854-71.178-43.969-115.146c6.438-69.839,63.401-124.253,133.242-128.141
	c80.163-3.887,147.453,60.852,147.453,141.016C438.656,415.662,421.895,451.978,393.351,479.064z"/>
<path fill="#40A3FF" d="M329.948,344.607l1.336-55.629c0-9.838-12.996-17.612-21.983-9.109L194.156,395.013
	c-9.96,9.959-3.521,21.984,9.109,21.984h60.853l-5.224,59.516c0,13.361,13.482,17.004,21.984,10.324L401.245,366.47
	c7.53-6.438,4.979-21.984-9.108-21.984h-62.188L329.948,344.607L329.948,344.607z M287.316,444.205l3.888-37.531
	c0.972-7.287-2.552-14.211-12.996-14.211h-43.97l69.841-69.84l-1.336,36.195c0,10.688,7.529,12.996,12.995,12.996h43.969
	L287.316,444.205z"/>
<rect x="284.644" y="123.305" fill="#40A3FF" width="25.871" height="54.293"/>
<path fill="#40A3FF" d="M128.531,188.24l38.391,38.39l-18.293,18.293l-38.393-38.39L128.531,188.24z"/>
<rect x="45.365" y="362.705" fill="#40A3FF" width="54.293" height="25.871"/>
<rect x="495.62" y="362.705" fill="#40A3FF" width="54.293" height="25.871"/>
<path fill="#40A3FF" d="M446.948,244.896l-18.293-18.293l38.391-38.39l18.294,18.293L446.948,244.896z"/>
</svg>
