<?xml version="1.0" encoding="utf-8"?>
<!-- Generator: Adobe Illustrator 16.0.0, SVG Export Plug-In . SVG Version: 6.00 Build 0)  -->
<!DOCTYPE svg PUBLIC "-//W3C//DTD SVG 1.1//EN" "http://www.w3.org/Graphics/SVG/1.1/DTD/svg11.dtd">
<svg version="1.1" id="Layer_1" xmlns="http://www.w3.org/2000/svg" xmlns:xlink="http://www.w3.org/1999/xlink" x="0px" y="0px"
	 width="504.549px" height="595.28px" viewBox="45.365 123.305 504.549 595.28"
	 enable-background="new 45.365 123.305 504.549 595.28" xml:space="preserve">
<path fill="#40A3FF" d="M289.866,210.028c-82.836,3.887-151.34,68.625-159.113,151.34c-3.887,50.406,14.211,100.934,51.742,135.793
	c23.32,21.984,36.195,49.191,36.195,78.949v107.372c0,7.773,5.223,12.996,12.996,12.996h53.078v9.109
	c0,7.773,5.224,12.996,12.997,12.996s12.996-5.223,12.996-12.996v-9.109h53.078c6.438,0,12.996-5.223,12.996-11.66V576.111
	c0-29.758,12.996-56.965,34.98-77.613c33.646-31.094,53.079-76.277,53.079-121.583C464.528,282.419,385.577,204.805,289.866,210.028
	z M245.898,594.209h104.82v24.656h-104.82V594.209z M245.898,670.608v-25.871h104.82v25.871H245.898z M393.351,479.064
	c-25.507,24.292-40.811,55.508-42.511,89.273H245.533c-2.308-32.916-17.612-64.374-43.604-89.273
	c-32.309-29.758-47.855-71.177-43.969-115.146c6.438-69.84,63.402-124.254,133.242-128.141
	c80.164-3.887,147.454,60.852,147.454,141.016C438.656,415.661,421.895,451.979,393.351,479.064z"/>
<path fill="#40A3FF" d="M329.948,344.607l1.336-55.629c0-9.838-12.996-17.612-21.984-9.109L194.156,395.013
	c-9.96,9.959-3.522,21.985,9.109,21.985h60.852l-5.223,59.516c0,13.36,13.482,17.004,21.984,10.324L401.246,366.47
	c7.53-6.438,4.979-21.984-9.109-21.984h-62.188V344.607L329.948,344.607z M287.316,444.205l3.887-37.531
	c0.972-7.288-2.551-14.211-12.996-14.211h-43.969l69.84-69.84l-1.336,36.195c0,10.688,7.53,12.996,12.996,12.996h43.969
	L287.316,444.205z"/>
<rect x="284.644" y="123.305" fill="#40A3FF" width="25.871" height="54.293"/>
<path fill="#40A3FF" d="M128.531,188.24l38.39,38.39l-18.293,18.293l-38.392-38.39L128.531,188.24z"/>
<rect x="45.365" y="362.705" fill="#40A3FF" width="54.293" height="25.871"/>
<rect x="495.621" y="362.705" fill="#40A3FF" width="54.293" height="25.871"/>
<path fill="#40A3FF" d="M446.949,244.896l-18.293-18.293l38.39-38.39l18.294,18.293L446.949,244.896z"/>
</svg>
