<?xml version="1.0" encoding="utf-8"?>
<!-- Generator: Adobe Illustrator 16.0.0, SVG Export Plug-In . SVG Version: 6.00 Build 0)  -->
<!DOCTYPE svg PUBLIC "-//W3C//DTD SVG 1.1//EN" "http://www.w3.org/Graphics/SVG/1.1/DTD/svg11.dtd">
<svg version="1.1" id="Capa_1" xmlns="http://www.w3.org/2000/svg" xmlns:xlink="http://www.w3.org/1999/xlink" x="0px" y="0px"
	 width="635px" height="615px" viewBox="-67.5 -95.5 635 615" enable-background="new -67.5 -95.5 635 615" xml:space="preserve">
<path d="M546.005,402h-45v-91.002c0-8.284-6.717-15-15-15H271V169.996h85c24.813,0,45-20.187,45-45v-100c0-8.284-6.717-15-15-15h-25
	v-45c0-8.284-6.717-15-15-15h-92.5l-25.5-34c-2.833-3.777-7.278-6-12-6h-90c-8.284,0-15,6.716-15,15v200c0,24.813,20.187,45,45,45
	h85v126.002H15.997c-8.284,0-15,6.716-15,15V402h-45c-8.284,0-15,6.716-15,15v80c0,8.284,6.716,15,15,15h120c8.284,0,15-6.716,15-15
	v-80c0-8.284-6.716-15-15-15h-45v-76.002H241V402h-45c-8.284,0-15,6.716-15,15v80c0,8.284,6.716,15,15,15h120
	c8.283,0,15-6.716,15-15v-80c0-8.284-6.717-15-15-15h-45v-76.002h200.005V402h-45c-8.284,0-15,6.716-15,15v80
	c0,8.284,6.716,15,15,15h120c8.283,0,15-6.716,15-15v-80C561.005,408.716,554.288,402,546.005,402z M60.997,432v50h-90v-50H60.997z
	 M301,432v50h-90v-50H301z M531.005,482h-90v-50h90V482z"/>
<path fill="#40A3FF" d="M171,24.996v100c0,8.271-6.729,15-15,15c-8.271,0-15-6.729-15-15v-185h67.5l25.5,34
	c2.833,3.777,7.277,6,12,6h85v30H186C177.716,9.996,171,16.711,171,24.996z"/>
<path fill="#40A3FF" d="M198.43,139.996c1.664-4.693,2.57-9.743,2.57-15v-85h170v85c0,8.271-6.729,15-15,15H198.43z"/>
</svg>
