<?xml version="1.0" encoding="utf-8"?>
<!-- Generator: Adobe Illustrator 16.0.0, SVG Export Plug-In . SVG Version: 6.00 Build 0)  -->
<!DOCTYPE svg PUBLIC "-//W3C//DTD SVG 1.1//EN" "http://www.w3.org/Graphics/SVG/1.1/DTD/svg11.dtd">
<svg version="1.1" id="Слой_1" xmlns="http://www.w3.org/2000/svg" xmlns:xlink="http://www.w3.org/1999/xlink" x="0px" y="0px"
	 width="2270.863px" height="1634.52px" viewBox="0 0 2270.863 1634.52" enable-background="new 0 0 2270.863 1634.52"
	 xml:space="preserve">
<g>
	<path fill="#EBF3FA" d="M793.541,395.832C793.429,395.854,793.434,395.85,793.541,395.832L793.541,395.832z"/>
	<path fill="#EBF3FA" d="M462.602,1633.781c-103.103,0-200.404-37.838-280.657-108.989
		C13.294,1375.281-57.874,1097.297,54.104,853.58c54.741-118.818,130.936-228.316,245.471-293.714
		c23.787-13.593,47.812-24.562,71.924-33.663c105.01-39.633,217.338-45.039,303.869-72.461
		c98.39-29.949,165.852-82.42,217.086-176.229C1178.427-246.363,2119.509,6.321,1954.566,743.097
		c-35.57,158.841,67.844,238.573,165.758,329.149c56.521,52.315,111.23,108.242,136.291,185.1
		c8.448,25.903,13.525,54.192,14.178,85.519c2.634,127.563-68.582,236.781-167.895,276.021
		c-46.106,18.222-76.8,15.502-125.227,15.48L462.602,1633.781z"/>
	<polygon fill="#071E42" points="1828.156,976.195 1828.156,1634.305 1818.259,1634.305 1690.791,1634.26 1645.518,1634.234 
		1581.916,1634.216 1570.732,1634.216 1559.566,1634.208 1507.429,1634.19 1504.072,1634.19 1380.119,1634.137 1350.402,1634.128 
		1323.144,1634.12 1308.223,1634.111 1290.809,1634.102 1246.639,1634.084 1233.631,1634.076 1202.998,1634.067 1110.348,1634.032 
		1044.251,1634.005 809.741,1633.917 777.67,1633.908 741.238,1633.89 737.299,1633.89 610.182,1633.846 605.749,1633.846 
		521.674,1633.811 497.632,1633.802 488.723,1633.793 488.723,976.195 	"/>
	<g>
		<path fill="#1C468A" d="M1044.251,1634.005l-303.013-0.115h-3.939l-127.117-0.044c-3.604-45.897-7.271-92.156-10.778-136.229
			c-9.615-120.824-18.075-225.257-20.983-261.081c-0.696-8.575-1.075-13.22-1.075-13.22l127.108-7.746l210.883-58.817
			c0,0,1.674,14.251,3.957,35.322c4.274,39.323,10.681,102.414,12.312,140.944c2.503,59.161,55.927,228.359,101.401,284.735
			C1036.831,1622.496,1040.576,1627.942,1044.251,1634.005z"/>
		<path fill="#FFB27D" d="M864.125,542.863c0,0-123.664,59.667-194.956,37.529c0,0,17.549-22.138,48.259-38.61
			c-2.467-14.311-4.386-26.729-5.484-37.259c-3.016-24.3-3.016-38.07-3.016-38.07l47.71-37.526l45.244-35.911
			C798.317,493.994,864.125,542.863,864.125,542.863z"/>
		<path fill="#ED985F" d="M802.704,431.627c0,0-31.257,56.968-90.759,72.896c-3.016-24.3-3.016-38.07-3.016-38.07l47.71-37.526
			L802.704,431.627z"/>
		<path fill="#FFB27D" d="M687.174,464.81c0,0,117.97,19.298,129.044-53.226c11.074-72.523,33.759-118.876-41.094-134.264
			c-74.853-15.387-93.747,10.115-103.423,33.437C662.025,334.078,656.772,457.92,687.174,464.81z"/>
		<path fill="#A9453D" d="M859.094,268.637c1.073-1.228,3.542-2.218,9.039-2.518c0,0-4.393-2.748-10.27-2.893
			c-1.149-7.645-5.216-21.174-18.372-24.462c0,0,7.07,3.769,7.994,11.896c-15.237-15.649-47.887-27.04-138.298-19.904
			c-119.152,9.405-79.883,85.694-64.457,94.788c15.426,9.094,54.254-15.838,82.994-13.557c28.74,2.281,33.256,45.898,43.956,49.509
			c6.057,2.044,10.701-1.695,23.893-7.658c13.192-5.963,9.661,13.214,5.851,27.427c-3.81,14.212,14.316,32.959,14.316,32.959
			s0,0,18.316-19.727s35.58-103.281,27.252-121.092C860.574,271.832,859.846,270.239,859.094,268.637z"/>
		<path fill="#1C468A" d="M1069.137,1024.411c-1.189-28.446-65.537-335.628-121.049-419.914
			c-35.787-54.337-110.088-91.476-110.088-91.476c-4.932-3.778-35.931,13.474-64.449,27.233
			c-26.051,12.683-41.743,12.399-66.424,7.545c0,0-26.74,16.76-35.022,23.224c-31.902,24.898-62.809,64.805-77.332,121.508
			c-12.057,48.051-19.201,134.994-23.037,225.166c-1.918,41.044-3.289,82.088-3.836,121.233v1.351
			c-0.274,4.052-0.274,8.104-0.274,12.136c-1.37,100.174,0,179.815,1.918,181.166c2.192,1.898,4.658,2.975,7.398,2.975
			c26.874-0.548,105.027,14.308,171.105,7.556c55.939-5.402,105.302-21.589,158.207-44.822c7.145-3.229,23.312-11.86,23.038-19.436
			c-0.274-8.632-1.096-20.786-2.192-36.444c-0.626-8.866-1.351-18.79-2.055-29.673c-2.868-43.861-5.78-103.212-4.072-170.656
			c23.803,34.573,41.551,59.293,43.337,63.125c6.183,13.265-3.575,219.604-3.575,219.604c12.597,24.65,61.437,27.867,61.437,27.867
			S1070.326,1052.857,1069.137,1024.411z"/>
		<path fill="#D2E4FF" d="M664.155,378.989c0,0,46.869,7.732,101.316-12.002l5.299,60.036c0,0-12.921,20.721-36.34,31.454
			c-26.313,12.06-56.788,17.465-66.63-12.545C662.633,430.175,664.155,378.989,664.155,378.989z"/>
		<g>
			<path fill="#D2E4FF" d="M764.809,431.25l-0.724-2.231c0.552-0.179,28.729-22.846,40.217-50.445
				c3.097-7.439,6.252-19.263,2.432-20.464c-18.426-5.791-47.165,17.19-43.936,13.55l0.493-3.416
				c1.545-0.831,26.316-17.404,45.69-11.313c4.447,1.397,0.777,15.529-2.596,23.631c-5.018,12.048-6.812,15.416-15.133,26.511
				C780.876,420.906,764.949,431.205,764.809,431.25z"/>
		</g>
		<path fill="#FFB27D" d="M778.643,375.124c1.998-21.113,22.594-28.144,29.342-21.596c3.637,3.529,4.394,12.802,4.525,16.572
			c0.921,26.392-23.694,26.292-23.694,26.292S777.955,382.401,778.643,375.124z"/>
	</g>
	<g>
		<g>
			<g>
				<path fill="#A9453D" d="M1556.152,142.366c7.104,0.506,14.24-0.226,21.04-2.34c18.48-5.747,52.637-21.095,105.65,8.761
					c48.947,27.565,101.105,196.387,122.431,212.817s50.114,23.846,46.916,57.458c-3.199,33.612-41.585,56.003-15.994,77.329
					c25.59,21.325-7.32,99.082-79.898,97.523S1500.42,510.85,1501.97,471.099c1.548-39.751,12.234-42.258,33.015-73.526
					c20.78-31.267-58.708-78.219-54.15-141.644C1484.96,198.503,1527.629,140.334,1556.152,142.366z"/>
				<path fill="#FFB27D" d="M1763.543,961.91c-37.321-83.697-55.175-107.364-55.798-133.698
					c-0.495-20.824,9.773-43.293,29.72-98.389c4.694-12.983,7.937-26.334,9.933-39.828c15.775-106.215-45.646-221.036-83.82-228.858
					c-10.622-2.807-28.628-41.171-28.406-102.988l-4.78,0.942l-80.384,15.917c0,0,1.829,25.298,1.883,49.128
					c0.055,19.861-1.145,38.684-5.643,41.054c-5.787,0.523-9.201,0.869-9.201,0.869s-67.024,93.082-72.662,179.653
					c-5.637,86.571,53.675,124.18-0.446,297.178C1408.683,1119.578,1784.161,1008.157,1763.543,961.91z"/>
				<path fill="#E8945B" d="M1550.007,375.007c0,0,1.828,25.298,1.883,49.128c44.981-1.268,68.758-42.301,78.501-65.045
					L1550.007,375.007z"/>
				<path fill="#FFB27D" d="M1534.985,397.573c0,0,106.426,1.756,106.499-64.538c0.073-66.293,13.858-110.714-54.088-114.638
					c-67.947-3.924-81.178,21.358-86.584,43.479C1495.406,283.999,1507.303,395.408,1534.985,397.573z"/>
				<path fill="#A9453D" d="M1635.479,230.751c0,0-64.369-52.889-99.323-17.916c-7.289-4.157-18.307-4.633-32.179,12.182
					c-24.672,29.904-2.718,82.768-2.718,82.768c-8.996-44.773,2.525-56.077,11.926-66.836c5.142-5.885,15.311-10.918,23.002-14.129
					c9.213,23.159,37.533,85.359,83.103,106.424c0,0-20.258-18.947-36.963-46.046c9.032,8.932,19.255,15.97,30.456,18.851
					c44.719,11.5,55.83-20.246,55.83-20.246S1642.597,278.317,1635.479,230.751z"/>
				<path fill="#071E42" d="M1787.4,1038.333c-4.266,13.402-18.895,19.513-54.263,15.855c-21.614-2.25-31.253-38.471-35.55-69.383
					c-12.987,44.219-31.167,69.041-54.668,74.244c-34.291,7.635-207.261,28.662-218.585-53.559
					c-12.454-90.44-8.72-395.903-8.176-418.732c1.45-61.502,14.03-100.111,85.812-115.661c8-1.733,19.235-2.954,35.08-5.043
					c0,0,9.347-1.101,9.197-0.866c-2.921,5.235-44.992,64.928-41.933,80.186c3.199,15.962,142.134,1.589,151.72-7.187
					c9.575-8.786,6.556-77.407,6.556-77.407s122.507,4.576,135.729,31.238c58.917,118.791-10.707,509.784-9.684,530.309
					C1788.988,1029.078,1788.625,1034.473,1787.4,1038.333z"/>
				<path fill="#D2E4FF" d="M1502.591,321.167c0,0,56.35,9.351,106.998-5.043l0.943,54.788c0,0-87.952,55.095-100.308,10.079
					C1506.235,366.451,1502.591,321.167,1502.591,321.167z"/>
				<g>
					<path fill="#D2E4FF" d="M1604.854,374.361l-0.512-2.07c0.512-0.127,27.522-18.87,39.717-43.161
						c3.287-6.548,6.909-17.067,3.522-18.402c-16.338-6.437-43.88,12.556-40.718,9.462l0.667-3.065
						c1.454-0.655,24.985-14.091,42.163-7.321c3.943,1.554-0.294,14.133-3.874,21.264c-5.325,10.603-7.169,13.542-15.429,23.068
						C1620.091,366.013,1604.984,374.329,1604.854,374.361z"/>
				</g>
				<path fill="#FFB27D" d="M1626.267,316.295c3.169-19.019,22.3-24.069,27.999-17.698c3.071,3.434,3.161,11.893,3.038,15.32
					c-0.862,23.994-23.179,22.32-23.179,22.32S1625.174,322.851,1626.267,316.295z"/>
			</g>
		</g>
	</g>
	<g>
		<path fill="#071E42" d="M1271.985,144.35c-6.228-12.226-52.843-95.986-141.316-53.184
			c-124.845,60.397-134.59,220.212-177.576,246.631c-76.512,47.022,3.617,183.664,79.02,186.878
			c75.403,3.215,153.43-112.931,153.43-112.931l46.651-142.329l36.582-2.571l7.332-23.635
			C1298.972,186.535,1286.75,159.034,1271.985,144.35z"/>
		<path fill="#FFB27D" d="M1324.029,890.62c-47.89-0.555-178.198-3.038-209.521-13.479c-38.582-12.877-47.431-50.638-47.431-54.665
			c0-0.868,3.159-18.591,8.175-46.033c10.007-21.027,14.998-33.686,15.312-47.069c0.169-6.535-0.796-13.239-2.821-21.147
			c-4.147-16.132-12.732-37.328-25.44-72.46c-4.485-12.346-7.547-25.054-9.452-37.882c-15.022-101.06,43.428-210.293,79.743-217.72
			c10.104-2.677,27.224-39.184,27.008-97.973l4.557,0.892l76.464,15.143c0,0-1.736,24.065-1.785,46.732
			c-0.048,18.881,1.085,36.797,5.378,39.063c5.497,0.482,8.753,0.82,8.753,0.82s0.072,0.096,0.217,0.289
			c14.564,0.94,53.219,4.389,58.331,14.83l-14.131,42.921l-4.1,12.491c10.827,23.245,20.906,50.156,25.898,77.332
			c1.397,7.692,2.387,15.384,2.894,23.053c0.434,6.535,0.457,12.756,0.168,18.784c-3.062,70.049-47.142,112.393,0.266,263.921
			C1329.309,860.189,1329.261,877.333,1324.029,890.62z"/>
		<path fill="#E8945B" d="M1240.626,298.22c0,0-1.739,24.066-1.791,46.737c-42.792-1.206-69.688-28.646-78.955-50.283
			L1240.626,298.22z"/>
		<path fill="#FFB27D" d="M1250.546,325.364c0,0-101.245,1.67-101.314-61.396c-0.069-63.066-13.184-105.325,51.455-109.058
			c64.64-3.733,77.227,20.318,82.369,41.363C1288.2,217.317,1276.881,323.304,1250.546,325.364z"/>
		<path fill="#A9453D" d="M1330.936,1179.586c0,0,91.541-221.354,86.719-382.11c-0.544-18.13,0.386-66.103-1.961-85.817
			c0.179-111.414-74.933-300.312-106.101-317.392c-16.207-8.881-65.671-10.475-65.38-10.246c0,0,12.099,22.559,23.433,49.005
			c8.471,19.765-2.438,42.463-23.132,48.305c-0.419,0.118-0.841,0.234-1.266,0.349c-10.439,2.818-22.165,1.594-33.901-1.849
			c-28.673-8.409-51.156-30.777-60.502-59.158c-9.873-29.98-12.9-42.435-12.9-42.435l-52.636,9.568c0,0-0.001,0.008-0.001,0.008
			c-0.004-0.006-0.007-0.013-0.011-0.019c0,0-37.204,7.902-54.802,34.397c-23.338,35.136-92.09,215.278-119.775,390.865
			C901.073,861.552,1330.936,1179.586,1330.936,1179.586z"/>
		<path fill="#B6D7FF" d="M1281.324,251.592c0,0-53.633,8.9-101.838-4.8l-0.897,52.145c0,0,83.71,52.438,95.47,9.593
			C1277.856,294.692,1281.324,251.592,1281.324,251.592z"/>
		<g>
			<path fill="#B6D7FF" d="M1183.993,302.22l0.487-1.97c-0.487-0.121-26.195-17.96-37.801-41.08
				c-3.129-6.231-7.97-25.092-4.746-26.363c15.55-6.126,43.156,20.798,40.146,17.854l-0.634-2.917
				c-1.385-0.623-23.163-21.38-39.513-14.937c-3.753,1.479-0.338,21.419,3.069,28.207c5.068,10.092,6.823,12.889,14.686,21.956
				C1169.491,294.275,1183.869,302.189,1183.993,302.22z"/>
		</g>
		<path fill="#FFB27D" d="M1163.613,246.955c-3.017-18.101-21.225-22.909-26.649-16.844c-2.923,3.269-3.008,11.319-2.891,14.582
			c0.82,22.836,22.061,21.244,22.061,21.244S1164.653,253.194,1163.613,246.955z"/>
		<path fill="#071E42" d="M1284.417,155.53c-16.809-20.373-29.21-14.064-35.49-7.822c1.802-4.189,2.746-6.707,2.746-6.707
			c-22.349-37.637-98.173,14.211-98.173,14.211c-7.238,48.363-42.115,76.069-42.115,76.069s19.723,12.183,65.191,0.491
			c18.493-4.756,34.365-20.658,46.689-37.854c-16.719,36.339-48.549,64.57-48.549,64.57c50.816-23.491,71.223-94.167,73.255-101.641
			c6.182,5.55,18.364,17.607,22.078,29.425c5.048,16.06,7.317,49.12,16.953,47.996
			C1287.002,234.269,1307.887,183.979,1284.417,155.53z"/>
	</g>
	<g>
		<path fill="#FFB27D" d="M1417.655,888.526c0,0-56.117,66.575-127.581,38.725c0,0-15.374-37.183-15.59-64.591
			c-0.025-3.374-0.068-6.642-0.12-9.751c-0.382-30.865-1.422-48.183-1.422-48.183s0.02-0.007,0.072-0.015
			c3.251-1.356,109.245-44.873,109.156-41.258C1380.353,846.929,1417.655,888.526,1417.655,888.526z"/>
		<path fill="#ED975D" d="M1371.529,783.358c-10.222,18.945-45.293,56.011-97.165,69.551c-0.382-30.865-1.422-48.183-1.422-48.183
			s0.02-0.007,0.072-0.015C1275.948,803.923,1374.57,777.773,1371.529,783.358z"/>
		<path fill="#FFB27D" d="M1250.744,801.518c0,0,119.2,28.024,135.509-46.477c16.31-74.5,42.679-121.058-32.738-142.101
			s-96.477,4.138-107.969,27.681C1234.053,664.164,1220.157,792.308,1250.744,801.518z"/>
		<path fill="#2A4E96" d="M1382.175,775.34c1.627,1.042,27.276,8.921,75.85-87.842c7.625-15.19,12.819-48.051-4.955-77.085
			c-17.773-29.034-80.797-51.864-133.158-61.798c-52.362-9.935-64.934,19.529-77.265,49.14
			c-12.944,31.085-50.327,56.676-50.327,56.676c45.154,25.223,99.538-10.853,118.379-4.92c18.841,5.933,25.496,35.626,26.909,45.145
			c1.414,9.519,5.804,20.952,33.989,7.242c22.636-11.01,4.002,35.259,0.208,43.306
			C1371.805,745.202,1368.585,766.633,1382.175,775.34z"/>
		<path fill="#2A4E96" d="M1186.455,1163.611c0.716,39.478,3.01,83.857,6.104,128.932c0.188,2.673,0.379,5.346,0.567,8.018
			c1.979,27.925,4.125,55.912,6.587,83.205c0.989,10.942,2.041,21.759,3.136,32.386l0.168,1.431
			c0.084,3.977,0.568,8.291,1.01,12.227c10.059,102.228,20.602,182.991,22.559,184.233c2.336,1.557,4.966,2.335,7.85,1.999
			c26.809-3.367,106.794,2.714,172.28-11.532c55.259-11.657,102.838-33.753,153.258-63.55c6.691-3.957,21.947-14.437,20.707-22.264
			c-1.221-8.607-30.969-445.992-43.048-489.51c-22.453-80.848-83.317-151.72-124.709-175.94
			c-5.408-3.03-34.511,15.488-61.236,32.638c-24.684,15.825-50.672,20.202-75.944,17.992l-22.243,24.6
			c-26.935,31.313-55.617,72.999-63.445,132.257c-0.589,4.377-1.094,9.027-1.515,13.973
			C1186.371,1098.84,1185.845,1129.395,1186.455,1163.611z"/>
		<path fill="#D2E4FF" d="M1232.203,718.371c0,0,53.972,9.795,109.415-6.94l2.016,60.236c0,0-14.032,19.985-38.001,29.425
			c-26.932,10.607-64.518,9.529-72.133-16.548C1228.852,768.625,1232.203,718.371,1232.203,718.371z"/>
		<g>
			<path fill="#D2E4FF" d="M1337.451,775.562l-0.601-2.268c0.562-0.149,29.932-21.245,42.908-48.176
				c3.498-7.259,7.294-18.893,3.544-20.301c-18.082-6.787-48.032,14.592-44.609,11.134l0.679-3.383
				c1.588-0.746,27.227-15.943,46.239-8.805c4.364,1.638-0.071,15.548-3.881,23.454c-5.667,11.756-7.643,15.021-16.557,25.646
				C1354.059,766.109,1337.593,775.524,1337.451,775.562z"/>
		</g>
		<path fill="#FFB27D" d="M1354.326,720.273c3.146-20.972,24.095-26.869,30.477-19.963c3.439,3.722,3.688,13.023,3.614,16.794
			c-0.519,26.403-25.092,24.961-25.092,24.961S1353.242,727.503,1354.326,720.273z"/>
	</g>
	<g>
		<path fill="#FFB27D" d="M346.07,781.716c0,0,56.117,66.576,127.581,38.725c0,0,15.374-37.183,15.59-64.591
			c0.025-3.374,0.067-6.642,0.119-9.751c0.382-30.865,1.422-48.183,1.422-48.183s-0.02-0.007-0.072-0.015
			c-3.251-1.356-109.245-44.873-109.157-41.258C383.373,740.12,346.07,781.716,346.07,781.716z"/>
		<path fill="#ED975D" d="M392.196,676.548c10.222,18.945,45.292,56.011,97.165,69.551c0.382-30.865,1.422-48.183,1.422-48.183
			s-0.02-0.007-0.072-0.015C487.777,697.114,389.155,670.964,392.196,676.548z"/>
		<path fill="#FFB27D" d="M512.982,694.709c0,0-119.2,28.023-135.51-46.477c-16.309-74.5-42.678-121.058,32.739-142.101
			c75.417-21.042,96.477,4.138,107.969,27.681S543.568,685.499,512.982,694.709z"/>
		<path fill="#071E42" d="M381.55,668.53c-1.627,1.042-27.277,8.922-75.85-87.842c-7.625-15.19-12.82-48.051,4.954-77.085
			c17.773-29.035,85.944-86.521,133.159-61.799c44.912,23.517,81.513,26.521,81.513,26.521
			c21.737,67.499-53.46,68.443-72.301,74.375c-18.841,5.933-25.496,35.625-26.909,45.144s-3.586,17.428-27.278,8.927
			c-23.692-8.501-10.713,33.574-6.919,41.62C391.92,638.392,395.14,659.824,381.55,668.53z"/>
		<g>
			<path fill="#2B478B" d="M538.392,1423.113c0,0-2.662,33.233-6.874,86.164c-2.732,34.414-6.116,77.174-9.844,124.534
				c-63.514-0.023-78.761,0.653-109.297-3.066c-38.301-4.653-74.813-14.577-109.139-29.013
				c-13.863-5.825-27.373-12.391-40.504-19.652c-2.688-47.378-4.997-88.816-6.697-119.635c-1.966-35.586-3.12-56.993-3.12-56.993
				l157.398,9.738L538.392,1423.113z"/>
			<path fill="#2B478B" d="M491.737,1438.253c0,0-10.505,26.342-28.157,69.41c-13.431,32.758-30.995,75.2-51.203,123.081
				c-80.763-9.813-160.646-44.094-230.431-105.948c1.613-29.03,5.129-67.419,8.434-100.37c3.86-38.425,7.447-69.428,7.447-69.428
				l212.487,60.191L491.737,1438.253z"/>
		</g>
		<path fill="#A9453D" d="M577.27,1056.802c-0.716,39.477-3.009,83.856-6.103,128.931c-0.189,2.673-0.379,5.346-0.568,8.018
			c-1.978,27.925-4.125,55.912-6.587,83.205c-0.989,10.942-2.041,21.759-3.135,32.386l-0.168,1.431
			c-0.084,3.978-0.568,8.291-1.01,12.227c-10.059,102.228-20.601,182.991-22.558,184.233c-2.335,1.557-4.966,2.336-7.849,1.999
			c-26.809-3.367-106.794,2.714-172.281-11.532c-55.259-11.657-102.838-33.753-153.258-63.55
			c-6.691-3.956-21.948-14.436-20.707-22.264c1.221-8.607,27.175-431.997,38.748-475.651
			c31.119-117.377,104.818-170.173,146.21-194.394c0,0,17.31,20.083,44.034,37.233c24.684,15.825,47.109,10.657,72.382,8.448
			l25.806,34.144c26.935,31.313,55.617,72.999,63.445,132.257c0.589,4.377,1.094,9.027,1.515,13.973
			C577.354,992.031,577.88,1022.585,577.27,1056.802z"/>
		<path fill="#D2E4FF" d="M531.005,611.013c0,0-54.622,9.635-110.065-7.101l-2.016,60.236c0,0,14.032,19.985,38.001,29.425
			c26.931,10.607,64.518,9.529,72.132-16.548C533.705,661.106,531.005,611.013,531.005,611.013z"/>
		<g>
			<path fill="#D2E4FF" d="M425.106,668.043l0.601-2.268c-0.562-0.149-29.932-21.245-42.908-48.176
				c-3.499-7.259-7.294-18.893-3.545-20.301c18.083-6.788,48.033,14.592,44.61,11.133l-0.678-3.383
				c-1.588-0.746-27.227-15.943-46.239-8.805c-4.365,1.638,0.071,15.548,3.881,23.454c5.667,11.756,7.642,15.021,16.556,25.646
				C408.499,658.591,424.964,668.005,425.106,668.043z"/>
		</g>
		<path fill="#FFB27D" d="M408.231,612.755c-3.146-20.972-24.095-26.869-30.476-19.963c-3.439,3.722-3.689,13.023-3.615,16.794
			c0.52,26.403,25.093,24.961,25.093,24.961S409.316,619.984,408.231,612.755z"/>
	</g>
	<g>
		<path fill="#071E42" d="M665.264,794.341c2.531-4.897,31.701-56.769,114.804-21.017c0,0-42.476-14.166-57.76,0.237
			c0,0,37.683-8.935,56.669,8.605c18.987,17.54,13.665,62.783,7.737,75.695c-5.927,12.911-37.846,48.495-53.66,45.345
			c-5.989-1.193-11.995-4.461-17.15-8.061c0.994,7.654,1.625,15.882,1.739,24.787c1.05,82.373-63.469,131.973-87.686,111.715
			c-15.53-12.993-34.798,14.877-34.798,14.877L488.726,826.012C488.726,826.012,613.633,724.995,665.264,794.341z"/>
		<path fill="#F99746" d="M462.602,1633.781c-85.737,0-164.875-26.139-232.203-71.456c35.521-107.216,126.06-374.04,153.668-393.056
			c19.044-13.124,63.14-17.789,102.043-19.197c37.945-1.37,70.947,0.354,70.947,0.354s28.289,0.048,64.424,4.129h0.009
			c0.402,0.048,0.805,0.096,1.207,0.144c0.067,0,0.125,0.01,0.182,0.02c40.733,4.675,90.988,14.455,122.017,34.927
			c27.35,18.039,124,383.783,139.835,444.298L462.602,1633.781z"/>
		<path fill="#FFB27D" d="M622.708,1154.578c-13.19-21.715-22.541-72.494-18.09-140.283l-8.411,14.202l-100.409,13.488
			c0,0,0.316,31.367-1.436,60.772c-1.373,22.986-4.127,36.736-9.073,49.521c-0.367,0.029-0.375,0.064-0.061,0.104
			c-1.532,2.604-34.091,58.926,9.125,69.253c117.364,28.047,127.898-62.497,128.337-66.878
			C623.067,1154.708,623.091,1154.649,622.708,1154.578z"/>
		<path fill="#ED975D" d="M495.788,1041.992c0,0,0.322,31.357-1.435,60.769c55.604,1.877,88.083-46.939,101.846-74.261
			L495.788,1041.992z"/>
		<path fill="#FFB27D" d="M467.25,1052.146c0,0,128.622,27.836,144.724-52.529c16.103-80.365,43.548-130.897-37.893-152.068
			c-81.441-21.171-103.59,6.288-115.489,31.806C446.693,904.872,434.208,1042.833,467.25,1052.146z"/>
		<path fill="#D2E4FF" d="M446.506,957.081c0,0,61.415,11.239,124.275-7.735l2.286,68.295c0,0-15.91,22.658-43.085,33.361
			c-30.534,12.025-73.148,10.804-81.782-18.763C442.93,1014.191,446.506,957.081,446.506,957.081z"/>
		<g>
			<path fill="#D2E4FF" d="M566.057,1022.056l-0.681-2.57c0.636-0.169,33.936-24.088,48.648-54.622
				c3.966-8.23,8.27-21.421,4.019-23.017c-20.501-7.695-54.458,16.545-50.578,12.623l0.769-3.836
				c1.801-0.846,30.869-18.076,52.425-9.982c4.948,1.857-0.081,17.628-4.4,26.592c-6.425,13.329-8.665,17.03-18.771,29.076
				C584.887,1011.339,566.219,1022.013,566.057,1022.056z"/>
		</g>
		<path fill="#071E42" d="M471.333,835.424c24.764-20.204,38.781-11.895,45.779-2.944c78.26-24.726,112.288,41.661,112.288,41.661
			c-2.859,59.396,32.151,100.723,32.151,100.723s-26.415,9.843-77.861-14.903c-15.715-7.56-28.158-22.277-37.883-39.059
			c14.616,41.154,39.205,73.606,39.205,73.606c-58.805-42.844-66.868-138.108-67.561-148.15
			c-9.288,5.505-27.877,17.779-35.612,31.898c-10.511,19.188-21.799,60.75-33.795,56.87
			C448.044,935.126,434.194,865.725,471.333,835.424z"/>
	</g>
	<g>
		<path fill="#FFB27D" d="M912.992,844.186c0,1,3.163,42.896,2.168,77.342c-0.172,6.09-0.478,11.883-0.961,17.015h127.941
			c-5.603-9.613-11.231-24.188-15.489-43.083c-2.036-9.024-3.763-19.026-5.015-29.946c-1.489-12.875-2.335-27.029-2.282-42.328
			L912.992,844.186z"/>
		<path fill="#071E42" d="M989.632,609.892L989.632,609.892c-12.661-3.038-27.406-3.763-44.567-1.304
			c0,0-49.101,0.708-80.939,39.501c-17.581,21.422,10.396,176.217-14.161,224.285c-2.188,4.282,12.312,6.067,18.255,6.067
			c0,0,8.688-3.314,10.402-8.115c0,0-1.714,7.544-3.943,9.944c0,0,47.784,4.524,71.643-13.512
			c12.975-9.809,27.179-32.817,36.345-56.269l36.13,2.539c0.39,15.544-5.18,33.323-22.555,51.895c0,0,44.579,4.373,59.667-7.972
			c0,0-2.972,6.018-5.715,8.724c0,0,49.837,1.792,70.412-13.753C1141.181,836.378,1127.96,581.383,989.632,609.892z"/>
		<path fill="#ED975D" d="M912.993,844.186c0,0,2.284,31.595,2.352,61.356c56.177-1.583,85.872-52.83,98.039-81.236L912.993,844.186
			z"/>
		<path fill="#FFB27D" d="M894.232,872.369c0,0,132.915,2.192,133.006-80.601c0.091-82.793,17.308-138.271-67.551-143.171
			c-84.859-4.9-101.382,26.674-108.134,54.302C844.801,730.525,859.66,869.665,894.232,872.369z"/>
		<path fill="#071E42" d="M908.171,654.454c0,0-27.177,21.686-33.804,42.769c-6.626,21.083-9.606,64.485-22.256,63.009
			c0,0-27.417-66.021,3.395-103.369C888.179,617.261,908.171,654.454,908.171,654.454z"/>
		<path fill="#031530" d="M1202.998,1634.067l-92.65-0.035l-66.097-0.026l-234.51-0.088l-32.07-0.01
			c3.049-29.566,7.72-57.927,14.771-80.999c21.442-70.221,34.211-112.61,39.111-128.932c0.652-2.168,1.164-3.878,1.542-5.13v-0.009
			c0.511-1.718,0.767-2.573,0.767-2.573s101.789,25.54,210.302,9.386c15.52-2.309,31.171-5.473,46.682-9.685h0.009
			c6.407-1.736,12.788-3.658,19.124-5.764c0.009-0.01,0.009-0.01,0.018-0.01c0,0,0.415,0.882,1.19,2.539
			c9.359,19.987,71.146,152.814,89.151,212.354C1201.2,1627.951,1202.089,1630.947,1202.998,1634.067z"/>
		<path fill="#D2E4FF" d="M1246.639,1634.084c-19.354-20.728-35.04-45.378-38.609-57.213
			c-7.244-24.068-55.936-193.505-65.867-240.848c-1.789-8.593-2.803-13.615-2.803-13.615s0,0.009-0.009,0.026
			c-0.018,0.026-0.035,0.079-0.07,0.158c-0.009,0.035-0.026,0.062-0.045,0.105c-0.044,0.115-0.105,0.256-0.185,0.441
			c-0.07,0.167-0.149,0.361-0.247,0.59c-0.07,0.168-0.141,0.353-0.229,0.556c-0.044,0.114-0.098,0.229-0.15,0.361
			c-4.984,11.89-22.236,53.664-25.751,64.21c-1.174,3.384-1.228,3.892-1.375,4.892c-0.751,5.809-1.092,12.414-1.305,16.119v0.035
			c-0.009,0.193-0.018,0.3-0.018,0.3s-147.228,74.31-276.116,6.063c0,0-0.396-3.19-1.102-9.006v-0.01
			c-0.749-6.178-1.851-15.325-3.199-26.773c-5.464-46.682-14.965-131.673-21.336-210.125c-0.009-0.018-0.009-0.026-0.009-0.044
			c-1.736-21.434-3.252-42.382-4.371-61.92c0-0.009,0-0.009,0-0.009c-0.009-0.009-0.009-0.018,0-0.026
			c-2.997-51.802-3.323-93.725,1.736-108.751c7.508-22.278,68.494-36.256,92.782-40.988c4.953-5.279,4.424-15.299,2.415-24.491
			c-1.701-7.932,5.429-14.894,13.272-12.866c0.361,0.097,0.731,0.185,1.11,0.272c15.37,3.64,42.055,2.768,70.6-6.609
			c16.763-5.537,31.416-12.877,43.844-21.424c4.142-2.829,9.765-0.221,10.391,4.741c2.229,18.058,7.685,51.026,17.643,51.026
			c13.713-0.079,107.315,11.413,114.18,22.993c2.388,4.036,26.721,59.09,57.442,132.034c0,0,0.026,0.053,0.053,0.194
			c0.572,1.357,1.154,2.731,1.745,4.115c58.244,137.525,173.499,375.852,173.499,419.555c0,22.948-25.778,72.389-54.155,105.975
			L1246.639,1634.084z"/>
		<path fill="#B6DBFF" d="M1139.361,1322.413c0,0-27.131,64.743-27.982,70.778c-0.384,2.716-0.713,6.447-0.959,9.738
			c-13.113,10.699-28.97,18.819-45.128,23.729c-45.896,13.909-65.84-74.069-63.097-117.963
			c2.744-43.893,67.651-169.181,89.268-171.787C1113.053,1134.331,1139.361,1322.413,1139.361,1322.413z"/>
		<path fill="#E58638" d="M1142.159,1336.02c-1.782-8.587-2.798-13.607-2.798-13.607
			C1140.788,1327.049,1141.72,1331.576,1142.159,1336.02z"/>
		<g>
			<path fill="#A9453D" d="M953.044,1449.131c-83.782,0-117.396-28.324-119.952-30.288l-5.419-39.457
				c0.803,0.595,113.221,68.097,287.197,3.449l-3.688,29.893C1044.276,1437.592,996.559,1449.131,953.044,1449.131z"/>
		</g>
		<path fill="#B6DBFF" d="M1404.557,1528.154c0,22.948-25.778,72.389-54.155,105.975l-27.258-0.009
			c5.375-145.853-91.337-521.423-93.831-529.636c0.572,1.357,1.154,2.731,1.745,4.115
			C1289.302,1246.125,1404.557,1484.451,1404.557,1528.154z"/>
		<path fill="#B6DBFF" d="M1057.637,949.265c0,0-70.092,44.388-123.12,33.881c0,0-12.729-8.038,4.828-16.131
			c16.487-7.572,54.839-29.984,46.417-52.096c14.567-4.746,29.601-11.715,43.838-21.426c4.143-2.825,9.767-0.22,10.397,4.746
			C1042.22,916.291,1047.679,949.265,1057.637,949.265z"/>
		<path fill="#EEF6FF" d="M855.339,787.602c0,0,68.542,4.784,127.552-18.219l7.366,65.499c0,0-99.048,75.986-118.967,23.487
			C864.856,841.413,855.339,787.602,855.339,787.602z"/>
		<g>
			<path fill="#EEF6FF" d="M983.851,839.659l-0.849-2.42c0.599-0.21,30.81-25.729,42.647-56.205
				c3.191-8.215,6.331-21.224,2.123-22.437c-20.296-5.849-51.115,20.03-47.68,15.965l0.449-3.747
				c1.667-0.949,28.316-19.718,49.656-13.566c4.899,1.412,1.256,16.958-2.219,25.904c-5.169,13.303-7.043,17.032-15.85,29.38
				C1001.146,827.929,984.002,839.606,983.851,839.659z"/>
		</g>
		<path fill="#FFB27D" d="M1002.882,767.69c1.631-23.135,23.964-31.361,31.514-24.38c4.069,3.762,5.139,13.881,5.381,18
			c1.699,28.83-25.215,29.366-25.215,29.366S1002.32,775.665,1002.882,767.69z"/>
		<path fill="#071E42" d="M903.123,657.735c0,0,25.928,101.716,96.398,134.292c0,0-70.47-62.493-76.454-129.639
			C917.083,595.243,903.123,657.735,903.123,657.735z"/>
		<path fill="#071E42" d="M899.151,646.568c0,0,36.392,97.133,92.242,111.495s80.076-0.603,80.076-0.603
			s-42.839-34.031-51.73-93.437C1019.739,664.023,926.603,600.337,899.151,646.568z"/>
	</g>
	<g>
		<path fill="#1C468A" d="M1717.316,619.51c0,0-104.822,6.085-107.698,123.076s129.356,401.081,129.356,401.081l252.162-28.146
			C1991.136,1115.52,1913.204,574.997,1717.316,619.51z"/>
		<path fill="#FFB27D" d="M1927.284,1634.349l-236.493-0.089l-45.272-0.026l-64.14-0.018c-4.785-16.576-3.992-37.27,3.983-62.765
			c14.744-47.123,22.649-90.06,26.068-129.523c0.44-5.032,0.802-9.993,1.093-14.911c8.046-133.577-33.991-226.588-28.457-308.187
			c4.804-70.838,70.45-125.39,86.825-137.947c2.353-1.808,3.684-2.741,3.684-2.741s6.583-1.322,13.81-1.975
			c4.397-2.317,6.178-18.304,6.715-37.04c0.15-5.199,0.203-10.61,0.186-15.995c-0.026-11.025-0.353-22.297-0.758-32.123
			c-0.035-0.67-0.062-1.331-0.088-1.983c-0.67-15.73-1.508-27.293-1.508-27.293l75.21-14.894l9.235-1.824
			c0.009,0,0.009,0,0.009-0.009l6.575-1.296l9.43-1.868l5.975-1.182v0.054c-0.097,28.289,2.864,52.647,7.297,72.327
			c6.53,28.933,16.251,47.766,24.191,54.129c1.093,0.881,2.15,1.524,3.164,1.921c0.291,0.114,0.564,0.211,0.846,0.282
			c31.523,6.46,75.729,71.287,96.413,152.823c10.62,41.879,15.035,88.156,8.346,133.198c-2.494,16.859-6.548,33.551-12.417,49.775
			c-2.776,7.676-5.402,14.841-7.879,21.556c-0.449,1.208-0.89,2.406-1.322,3.578c-14.268,38.627-23.239,61.857-26.526,80.665
			c-0.009,0.053-0.018,0.105-0.026,0.149c-0.6,3.438-1.014,6.733-1.216,9.949c-0.159,2.283-0.221,4.521-0.168,6.742v0.035
			c-0.009,0.098,0,0.194,0,0.291c0.776,32.907,23.09,62.483,69.736,167.083C1964.748,1606.306,1951.475,1620.389,1927.284,1634.349z
			"/>
		<path fill="#ED975D" d="M1692.929,861.732c0,0,2.286,31.616,2.354,61.399c56.217-1.584,85.932-52.867,98.107-81.292
			L1692.929,861.732z"/>
		<path fill="#FFB27D" d="M1674.156,889.934c0,0,133.007,2.194,133.099-80.657c0.091-82.851,17.32-138.366-67.598-143.271
			c-84.918-4.904-101.453,26.692-108.21,54.339C1624.69,747.992,1639.56,887.228,1674.156,889.934z"/>
		<path fill="#D9935C" d="M2102.898,1618.882c-18.975,7.5-38.979,12.435-59.689,14.453c-10.188-17.891-21.045-37.243-31.647-56.676
			c-29.638-54.322-57.222-109.174-62.403-133.771c-3.913-18.516-13.484-55.565-24.668-97.074c-1.691-6.274-3.41-12.655-5.164-19.089
			v-0.008c-1.437-5.306-2.891-10.638-4.354-15.987c-21.027-77.033-43.456-156.059-43.456-156.059v-0.018l-5.808-25.134l-4.02-17.432
			l-32.396-140.302l-1.138-4.908c0,0,0.953,0.097,2.697,0.291c0,0,0,0.009,0.009,0c1.331,0.158,3.129,0.37,5.306,0.643
			c18.384,2.318,64.271,9.007,93.742,21.327c12.436,5.191,21.918,11.387,25.231,18.657c11.008,24.2,22.006,63.127,32.484,108.107
			c15.784,67.745,30.378,149.22,42.011,214.85c10.787,60.861,19.01,108.107,23.311,118.118
			c5.64,13.158,16.753,54.253,30.211,101.975c1.321,4.732,2.679,9.535,4.063,14.383
			C2092.234,1582.864,2097.504,1601.081,2102.898,1618.882z"/>
		<path fill="#A9453D" d="M1977.676,1634.367c-22.685-68.397-87.609-206.23-87.609-206.23c-0.009,0-0.009,0-0.018,0
			c0,0-0.018,0.009-0.053,0.026c-6.293,2.098-12.646,4.01-19.01,5.72c-0.009,0.009-0.009,0.009-0.018,0.009
			c-0.009,0.009-0.009,0.009-0.018,0c-15.537,4.23-31.224,7.403-46.77,9.712c-108.584,16.163-210.435-9.395-210.435-9.395
			s-0.767,2.556-2.317,7.72c-4.899,16.331-17.679,58.756-39.138,129.021c-5.623,18.41-9.738,40.187-12.727,63.259L1977.676,1634.367
			z"/>
		<path fill="#F99746" d="M2009.471,1122.21c-0.028-0.138-0.056-0.192-0.056-0.192c-30.746-72.996-55.096-128.093-57.484-132.128
			c-6.863-11.585-100.531-23.088-114.258-23.006c-9.964,0-15.428-32.997-17.65-51.061c-0.632-4.969-6.26-7.577-10.405-4.749
			c-14.247,9.718-29.291,16.69-43.868,21.439c-29.265,9.608-56.58,10.295-71.761,6.342c-7.852-2.031-14.989,4.941-13.287,12.875
			c2.017,9.195,2.544,19.221-2.412,24.505c-24.304,4.734-85.335,18.726-92.847,41.023c-17.3,51.351-16.23,103.698-5.821,148.881
			c6.339,107.488,34.124,268.065,34.124,268.065c128.971,68.302,276.308-6.067,276.308-6.067s0.165-3.294,0.439-7.274
			c0.247-3.294,0.576-7.027,0.961-9.745c0.851-6.04,28.001-70.827,28.001-70.827s1.016,5.023,2.8,13.616
			c9.938,47.383,43.979,203.037,64.871,217.038c12.105,8.099,50.813,8.235,87.161-1.702c37.801-10.321,73.022-31.543,73.022-66.077
			C2147.309,1458.996,2067.175,1259.142,2009.471,1122.21z"/>
		<path fill="#E58033" d="M1919.455,1340.292c0,0-27.15,64.787-28.001,70.827c-0.384,2.718-0.714,6.451-0.961,9.745
			c-13.122,10.706-28.989,18.833-45.159,23.746c-45.928,13.919-65.886-74.121-63.141-118.045s67.698-169.298,89.33-171.906
			C1893.128,1152.079,1919.455,1340.292,1919.455,1340.292z"/>
		<path fill="#E58638" d="M1922.254,1353.908c-1.784-8.593-2.8-13.616-2.8-13.616
			C1920.882,1344.931,1921.816,1349.46,1922.254,1353.908z"/>
		<path fill="#E58033" d="M2147.309,1503.167c0,34.534-35.222,55.756-73.022,66.077c52.104-62.042-61.905-437.453-64.815-447.033
			C2067.175,1259.142,2147.309,1458.996,2147.309,1503.167z"/>
		<path fill="#E58033" d="M1837.673,966.884c0,0-70.14,44.418-123.205,33.904c0,0-12.738-8.044,4.832-16.143
			c16.498-7.576,54.877-30.005,46.449-52.132c14.577-4.749,29.621-11.722,43.868-21.44c4.146-2.827,9.773-0.219,10.405,4.75
			C1822.246,933.887,1827.709,966.884,1837.673,966.884z"/>
		<path fill="#1C468A" d="M1629.857,707.914c0,0,24.566-51.942,89.445,56.124c8.249,13.74,43.396,25.355,55.843,21.17
			c60.921-20.485,43.925,60.843,43.925,60.843s5.879-208.866-45.229-212.701C1722.732,629.516,1629.857,707.914,1629.857,707.914z"
			/>
		<path fill="#1C468A" d="M1692.929,667.639c0,0-28.517,18.434-69.891,81.701c0,0-2.557-58.155,21.728-72.853
			S1692.929,667.639,1692.929,667.639z"/>
		<path fill="#D2E4FF" d="M1633.824,792.885c0,0,69.512,23.527,127.499,0l8.168,64.609c0,0-99.012,66.803-119.405,15.207
			C1643.5,856.037,1633.824,792.885,1633.824,792.885z"/>
		<g>
			<path fill="#D2E4FF" d="M1763.226,862.3l-0.872-2.379c0.589-0.217,30.089-25.839,41.369-56.108
				c3.041-8.159,5.966-21.054,1.792-22.195c-20.132-5.502-50.227,20.484-46.889,16.421l0.393-3.708
				c1.635-0.96,27.707-19.865,48.874-14.078c4.858,1.328,1.472,16.736-1.841,25.622c-4.926,13.213-6.726,16.923-15.259,29.242
				C1780.154,850.477,1763.375,862.246,1763.226,862.3z"/>
		</g>
		<path fill="#FFB27D" d="M1775.157,795.008c1.297-22.878,23.249-31.309,30.803-24.514c4.071,3.662,5.266,13.644,5.562,17.71
			c2.07,28.459-24.512,29.355-24.512,29.355S1774.71,802.895,1775.157,795.008z"/>
	</g>
	<g>
		<path fill="#A9453D" d="M1580.75,1009.142c0,0-60.685-10.574-112.237,23.794s-59.021,203.55-85.029,220.742
			c-26.007,17.193-137.492,62.119-111.491,129.543c26,67.425-19.264,97.83-3.902,144.054
			c15.362,46.225,395.457,91.248,424.839,58.201c29.383-33.047,53.313-143.041,37.382-172.644s-86.032-55.666-60.52-85.612
			C1741.208,1243.39,1714.468,1000.789,1580.75,1009.142z"/>
		<path fill="#FFB27D" d="M1705.195,1494.656c-19.11,17.822-43.99,33.844-76.316,46.413
			c-121.174,47.15-184.59-51.845-213.185-121.965c15.678-12.264,31.453-16.754,40.584-19.21c1.842-0.493,3.706-0.974,5.574-1.439
			c16.378-4.083,29.482-16.459,34.324-32.63c6.896-23.032,11.386-57.757,8.063-101.136l6.128,0.727l102.732,12.712
			c0,0,0.029,32.066,2.117,62.075c0.905,12.865,2.201,25.356,4.041,34.812c1.763,9.063,9.291,15.872,18.489,16.679h0.001
			c0,0,0.011,0.032,0.063,0.086C1639.454,1393.76,1674.956,1436.747,1705.195,1494.656z"/>
		<path fill="#071E42" d="M1290.809,1634.102c10.005-37.502,47.742-172.005,75.262-198.687
			c26.563-25.742,88.243-35.225,90.165-35.516c0.026-0.009,0.044-0.009,0.044-0.009s1.005,3.296,2.723,8.654
			c5.517,17.379,18.454,56.561,28.669,75.421c2.45,4.547,4.759,7.904,6.759,9.5c5.314,4.203,38.548,7.597,75.905,8.689
			c2.988,0.088,6.011,0.158,9.043,0.211c50.735,0.961,105.445-2.423,106.855-13.713c2.521-20.058-46.585-94.068-48.427-96.871
			c-0.053-0.062-0.062-0.088-0.062-0.088c59.602,3.446,92.562,21.143,92.562,21.143c56.526,57.169,80.62,138.943,87.952,221.468
			L1290.809,1634.102z"/>
		<path fill="#ED985F" d="M1613.107,1278.145c0,0,0.008,32.042,2.118,62.074c-56.793,2.515-90.503-47.015-104.857-74.782
			L1613.107,1278.145z"/>
		<path fill="#FFB27D" d="M1634.097,1305.205c0,0-133.937,11.94-140.089-71.583c-6.151-83.523-27.582-138.233,57.673-149.389
			c85.256-11.155,104.236,19.491,113.07,46.87C1673.586,1158.482,1668.78,1299.946,1634.097,1305.205z"/>
		<path fill="#D2E4FF" d="M1667.328,1205.456c0,0-66.016,15.122-134.854-5.656l-2.504,74.788c0,0,12.334,15.573,42.094,27.295
			c33.438,13.169,71.598,12.658,83.954-18.727C1666.079,1257.598,1667.328,1205.456,1667.328,1205.456z"/>
		<g>
			<path fill="#D2E4FF" d="M1537.647,1279.424l0.746-2.815c-0.697-0.185-37.163-26.377-53.274-59.815
				c-4.344-9.013-9.056-23.457-4.401-25.205c22.451-8.428,59.637,18.118,55.388,13.823l-0.842-4.2
				c-1.972-0.927-33.805-19.795-57.411-10.933c-5.419,2.034,0.089,19.305,4.818,29.121c7.036,14.596,9.489,18.649,20.557,31.841
				C1517.027,1267.688,1537.47,1279.377,1537.647,1279.424z"/>
		</g>
		<path fill="#FFB27D" d="M1516.695,1210.779c-3.906-26.039-29.916-33.36-37.839-24.787c-4.271,4.621-4.58,16.169-4.488,20.853
			c0.646,32.781,31.154,30.991,31.154,30.991S1518.042,1219.754,1516.695,1210.779z"/>
		<path fill="#A9453D" d="M1657.395,1084.948c-22.551-23.621-37.815-16.971-46.044-8.78
			c-76.22-34.979-119.126,28.025-119.126,28.025c-4.622,60.585-45.352,98.055-45.352,98.055s25.537,13.324,80.832-5.254
			c16.892-5.675,31.371-19.022,43.356-34.807c-20.03,39.878-49.069,69.669-49.069,69.669
			c65.048-35.996,85.284-131.567,87.258-141.66c13.425-0.63,38.248,7.302,51.761,39.616c8.625,20.624,7.375,59.176,7.375,59.176
			S1691.215,1120.373,1657.395,1084.948z"/>
	</g>
</g>
<g>
</g>
<g>
</g>
<g>
</g>
<g>
</g>
<g>
</g>
<g>
</g>
</svg>
