<svg height="512" viewBox="0 0 512 512" width="512" xmlns="http://www.w3.org/2000/svg" xmlns:xlink="http://www.w3.org/1999/xlink"><linearGradient id="New_Gradient_Swatch_15" gradientUnits="userSpaceOnUse" x1="341.42" x2="391.464" y1="297.022" y2="246.978"><stop offset=".015" stop-color="#cacad5"/><stop offset="1" stop-color="#dcdce3"/></linearGradient><linearGradient id="New_Gradient_Swatch_11" gradientUnits="userSpaceOnUse" x1="273.586" x2="316.34" y1="164.914" y2="122.161"><stop offset=".011" stop-color="#60c6be"/><stop offset="1" stop-color="#80d1cb"/></linearGradient><linearGradient id="New_Gradient_Swatch_11-2" x1="215.66" x2="258.414" xlink:href="#New_Gradient_Swatch_11" y1="164.914" y2="122.161"/><linearGradient id="New_Gradient_Swatch_11-3" x1="332.225" x2="389.849" xlink:href="#New_Gradient_Swatch_11" y1="464.406" y2="406.782"/><linearGradient id="New_Gradient_Swatch_11-4" x1="254.151" x2="311.775" xlink:href="#New_Gradient_Swatch_11" y1="464.406" y2="406.782"/><linearGradient id="New_Gradient_Swatch_5" gradientUnits="userSpaceOnUse" x1="36.221" x2="235.779" y1="414.731" y2="215.173"><stop offset=".011" stop-color="#f8c73f"/><stop offset="1" stop-color="#fada7f"/></linearGradient><linearGradient id="New_Gradient_Swatch_22" gradientUnits="userSpaceOnUse" x1="73.804" x2="198.196" y1="367.6" y2="243.207"><stop offset=".011" stop-color="#dcdce3"/><stop offset="1" stop-color="#ededf1"/></linearGradient><linearGradient id="New_Gradient_Swatch_13" gradientUnits="userSpaceOnUse" x1="364.432" x2="485.568" y1="151.966" y2="30.83"><stop offset="0" stop-color="#d46669"/><stop offset="1" stop-color="#dd888a"/></linearGradient><linearGradient id="New_Gradient_Swatch_22-2" x1="396.729" x2="453.271" xlink:href="#New_Gradient_Swatch_22" y1="117.271" y2="60.729"/><g id="_05-destination" data-name="05-destination"><g id="gradient"><path d="m376 348a12 12 0 0 1 -12-12v-44a12 12 0 0 1 24 0v44a12 12 0 0 1 -12 12z" fill="#9595ac"/><path d="m338.884 292h55.116a6 6 0 0 0 6-6v-28a6 6 0 0 0 -6-6h-55.116a6 6 0 0 0 -4.685 2.252l-11.2 14a6 6 0 0 0 0 7.5l11.2 14a6 6 0 0 0 4.685 2.248z" fill="url(#New_Gradient_Swatch_15)"/><path d="m200 509a12 12 0 0 1 -.045-24l204.111-.779a64.111 64.111 0 0 0 -.176-128.221h-267.89a12 12 0 0 1 -12-12v-152a12 12 0 0 1 12-12h224a12 12 0 0 1 0 24h-212v128h255.89a88.111 88.111 0 0 1 .256 176.221l-204.1.779z" fill="#cacad5"/><path d="m267.7 147.741c0-15.055 14.8-41.741 27.259-41.741s27.259 26.686 27.259 41.741a27.259 27.259 0 1 1 -54.518 0z" fill="url(#New_Gradient_Swatch_11)"/><path d="m209.778 147.741c0-15.055 14.8-41.741 27.259-41.741s27.263 26.686 27.263 41.741a27.259 27.259 0 1 1 -54.518 0z" fill="url(#New_Gradient_Swatch_11-2)"/><path d="m324.3 441.259c0-20.291 19.943-56.259 36.741-56.259s36.741 35.968 36.741 56.259a36.741 36.741 0 0 1 -73.482 0z" fill="url(#New_Gradient_Swatch_11-3)"/><path d="m246.222 441.259c0-20.291 19.943-56.259 36.741-56.259s36.737 35.968 36.737 56.259a36.741 36.741 0 1 1 -73.482 0z" fill="url(#New_Gradient_Swatch_11-4)"/><path d="m136 170.984c-74.119 0-134.419 60.3-134.419 134.419 0 84.164 121.17 195.765 126.328 200.475a12 12 0 0 0 16.182 0c5.158-4.71 126.328-116.311 126.328-200.475 0-74.119-60.3-134.419-134.419-134.419z" fill="url(#New_Gradient_Swatch_5)"/><circle cx="136" cy="305.403" fill="url(#New_Gradient_Swatch_22)" r="88"/><path d="m425 5a84.1 84.1 0 0 0 -84 84c0 22.962 13.148 49.214 39.08 78.027a323.227 323.227 0 0 0 37.553 35.445 12 12 0 0 0 14.734 0 323.227 323.227 0 0 0 37.553-35.445c25.932-28.813 39.08-55.065 39.08-78.027a84.1 84.1 0 0 0 -84-84z" fill="url(#New_Gradient_Swatch_13)"/><circle cx="425" cy="89" fill="url(#New_Gradient_Swatch_22-2)" r="40"/></g></g></svg>