<?xml version="1.0" encoding="utf-8"?>
<!-- Generator: Adobe Illustrator 16.0.0, SVG Export Plug-In . SVG Version: 6.00 Build 0)  -->
<!DOCTYPE svg PUBLIC "-//W3C//DTD SVG 1.1//EN" "http://www.w3.org/Graphics/SVG/1.1/DTD/svg11.dtd">
<svg version="1.1" id="Layer_1" xmlns="http://www.w3.org/2000/svg" xmlns:xlink="http://www.w3.org/1999/xlink" x="0px" y="0px"
	 width="2603.997px" height="1520.146px" viewBox="0 0 2603.997 1520.146" enable-background="new 0 0 2603.997 1520.146"
	 xml:space="preserve">
<g>
	<g>
		<path fill="#EBF2F9" d="M335.101,667.808C731.061,736.153,498.9-19.647,1038.308,301.166
			c214.514,127.582,523.395-26.81,819.194,57.577c271.656,77.499,204.737,331.789,178.452,414.99
			c-53.096,168.065,211.342,101.035,364.619,173.245c240.432,113.267,215.104,570.927-12.032,572.829
			c-227.138,1.903-2031.443-4.799-2031.443-4.799s-99.128-64.145-151.76-196.352C97.444,1047.629-13.561,607.626,335.101,667.808z"
			/>
		<g>
			<g>
				<polygon fill="#D5E7F7" points="1971.508,528.007 1971.508,414.676 1937.105,414.676 1937.105,219.809 1752.645,219.809 
					1752.645,414.676 1580.19,414.676 1580.19,147.571 1389.885,75.542 1389.885,303.271 1346.489,303.271 1346.489,0 
					1156.184,63.069 1156.184,518.583 915.506,518.583 915.506,787.642 825.579,787.642 825.579,855.423 619.02,855.423 
					619.02,738.705 500.425,738.705 500.425,421.545 353.926,421.545 353.926,1007.017 353.926,1516.473 479.497,1516.473 
					500.425,1516.473 619.02,1516.473 686.056,1516.473 793.424,1516.473 825.579,1516.473 915.506,1516.473 999.983,1516.473 
					1156.184,1516.473 1204.021,1516.473 1299.194,1516.473 1346.489,1516.473 1389.885,1516.473 1489.5,1516.473 
					1557.312,1516.473 1580.19,1516.473 1752.645,1516.473 1934.024,1516.473 1937.105,1516.473 1971.508,1516.473 
					2118.485,1516.473 2118.485,528.007 				"/>
				<rect x="1184.623" y="86.131" fill="#C4D9ED" width="128.376" height="47.012"/>
				<rect x="1184.623" y="174.449" fill="#C4D9ED" width="128.376" height="47.012"/>
				<rect x="1184.623" y="253.906" fill="#C4D9ED" width="128.376" height="47.012"/>
				<g>
					<rect x="353.926" y="635.22" fill="#C4D9ED" width="149.212" height="72.567"/>
					<rect x="353.926" y="857.966" fill="#C4D9ED" width="147.787" height="72.566"/>
					<rect x="353.926" y="967.586" fill="#C4D9ED" width="147.787" height="72.567"/>
				</g>
				<rect x="351.518" y="1082.272" fill="#C4D9ED" width="147.787" height="72.567"/>
				<rect x="351.518" y="1194.587" fill="#C4D9ED" width="147.787" height="72.567"/>
				<rect x="351.518" y="1309.273" fill="#C4D9ED" width="147.787" height="72.568"/>
				<g>
					<rect x="1414.946" y="253.906" fill="#C4D9ED" width="135.023" height="47.012"/>
					<rect x="1414.946" y="175.167" fill="#C4D9ED" width="135.023" height="47.012"/>
					<rect x="1181.354" y="330.947" fill="#C4D9ED" width="368.615" height="47.013"/>
					<rect x="1181.354" y="401.636" fill="#C4D9ED" width="368.615" height="47.012"/>
					<rect x="1181.354" y="471.847" fill="#C4D9ED" width="368.615" height="45.212"/>
				</g>
				<rect x="353.926" y="748.346" fill="#C4D9ED" width="147.787" height="72.567"/>
				<g>
					<rect x="952.36" y="562.68" fill="#C4D9ED" width="32.261" height="45.472"/>
					<rect x="1012.688" y="562.68" fill="#C4D9ED" width="32.261" height="45.472"/>
					<rect x="1071.667" y="562.68" fill="#C4D9ED" width="32.261" height="45.472"/>
					<rect x="1127.586" y="562.68" fill="#C4D9ED" width="32.261" height="45.472"/>
					<rect x="1184.58" y="562.68" fill="#C4D9ED" width="32.261" height="45.472"/>
					<rect x="1242.226" y="562.68" fill="#C4D9ED" width="32.262" height="45.472"/>
					<rect x="1302.555" y="562.68" fill="#C4D9ED" width="32.26" height="45.472"/>
					<rect x="1361.532" y="562.68" fill="#C4D9ED" width="32.262" height="45.472"/>
					<rect x="1417.454" y="562.68" fill="#C4D9ED" width="32.26" height="45.472"/>
					<rect x="1474.446" y="562.68" fill="#C4D9ED" width="32.262" height="45.472"/>
					<rect x="1533.838" y="562.68" fill="#C4D9ED" width="32.262" height="45.472"/>
					<rect x="1594.167" y="562.68" fill="#C4D9ED" width="32.26" height="45.472"/>
					<rect x="1653.145" y="562.68" fill="#C4D9ED" width="32.261" height="45.472"/>
					<rect x="1709.065" y="562.68" fill="#C4D9ED" width="32.261" height="45.472"/>
					<rect x="1766.058" y="562.68" fill="#C4D9ED" width="32.261" height="45.472"/>
					<rect x="1823.705" y="562.68" fill="#C4D9ED" width="32.262" height="45.472"/>
					<rect x="1884.034" y="562.68" fill="#C4D9ED" width="32.261" height="45.472"/>
					<rect x="1943.012" y="562.68" fill="#C4D9ED" width="32.26" height="45.472"/>
					<rect x="1998.932" y="562.68" fill="#C4D9ED" width="32.261" height="45.472"/>
					<rect x="2055.925" y="562.68" fill="#C4D9ED" width="32.261" height="45.472"/>
					<rect x="952.36" y="642.922" fill="#C4D9ED" width="32.261" height="45.472"/>
					<rect x="1012.688" y="642.922" fill="#C4D9ED" width="32.261" height="45.472"/>
					<rect x="1071.667" y="642.922" fill="#C4D9ED" width="32.261" height="45.472"/>
					<rect x="1127.586" y="642.922" fill="#C4D9ED" width="32.261" height="45.472"/>
					<rect x="1184.58" y="642.922" fill="#C4D9ED" width="32.261" height="45.472"/>
					<rect x="1242.226" y="642.922" fill="#C4D9ED" width="32.262" height="45.472"/>
					<rect x="1302.555" y="642.922" fill="#C4D9ED" width="32.26" height="45.472"/>
					<rect x="1361.532" y="642.922" fill="#C4D9ED" width="32.262" height="45.472"/>
					<rect x="1417.454" y="642.922" fill="#C4D9ED" width="32.26" height="45.472"/>
					<rect x="1474.446" y="642.922" fill="#C4D9ED" width="32.262" height="45.472"/>
					<rect x="1533.838" y="642.922" fill="#C4D9ED" width="32.262" height="45.472"/>
					<rect x="1594.167" y="642.922" fill="#C4D9ED" width="32.26" height="45.472"/>
					<rect x="1653.145" y="642.922" fill="#C4D9ED" width="32.261" height="45.472"/>
					<rect x="1709.065" y="642.922" fill="#C4D9ED" width="32.261" height="45.472"/>
					<rect x="1766.058" y="642.922" fill="#C4D9ED" width="32.261" height="45.472"/>
					<rect x="1823.705" y="642.922" fill="#C4D9ED" width="32.262" height="45.472"/>
					<rect x="1884.034" y="642.922" fill="#C4D9ED" width="32.261" height="45.472"/>
					<rect x="1943.012" y="642.922" fill="#C4D9ED" width="32.26" height="45.472"/>
					<rect x="1998.932" y="642.922" fill="#C4D9ED" width="32.261" height="45.472"/>
					<rect x="2055.925" y="642.922" fill="#C4D9ED" width="32.261" height="45.472"/>
					<rect x="952.36" y="721.935" fill="#C4D9ED" width="32.261" height="45.472"/>
					<rect x="1012.688" y="721.935" fill="#C4D9ED" width="32.261" height="45.472"/>
					<rect x="1071.667" y="721.935" fill="#C4D9ED" width="32.261" height="45.472"/>
					<rect x="1127.586" y="721.935" fill="#C4D9ED" width="32.261" height="45.472"/>
					<rect x="1184.58" y="721.935" fill="#C4D9ED" width="32.261" height="45.472"/>
					<rect x="1242.226" y="721.935" fill="#C4D9ED" width="32.262" height="45.472"/>
					<rect x="1302.555" y="721.935" fill="#C4D9ED" width="32.26" height="45.472"/>
					<rect x="1361.532" y="721.935" fill="#C4D9ED" width="32.262" height="45.472"/>
					<rect x="1417.454" y="721.935" fill="#C4D9ED" width="32.26" height="45.472"/>
					<rect x="1474.446" y="721.935" fill="#C4D9ED" width="32.262" height="45.472"/>
					<rect x="1533.838" y="721.935" fill="#C4D9ED" width="32.262" height="45.472"/>
					<rect x="1594.167" y="721.935" fill="#C4D9ED" width="32.26" height="45.472"/>
					<rect x="1653.145" y="721.935" fill="#C4D9ED" width="32.261" height="45.472"/>
					<rect x="1709.065" y="721.935" fill="#C4D9ED" width="32.261" height="45.472"/>
					<rect x="1766.058" y="721.935" fill="#C4D9ED" width="32.261" height="45.472"/>
					<rect x="1823.705" y="721.935" fill="#C4D9ED" width="32.262" height="45.472"/>
					<rect x="1884.034" y="721.935" fill="#C4D9ED" width="32.261" height="45.472"/>
					<rect x="1943.012" y="721.935" fill="#C4D9ED" width="32.26" height="45.472"/>
					<rect x="1998.932" y="721.935" fill="#C4D9ED" width="32.261" height="45.472"/>
					<rect x="2055.925" y="721.935" fill="#C4D9ED" width="32.261" height="45.472"/>
					<rect x="952.36" y="805.882" fill="#C4D9ED" width="32.261" height="45.473"/>
					<rect x="1012.688" y="805.882" fill="#C4D9ED" width="32.261" height="45.473"/>
					<rect x="1071.667" y="805.882" fill="#C4D9ED" width="32.261" height="45.473"/>
					<rect x="1127.586" y="805.882" fill="#C4D9ED" width="32.261" height="45.473"/>
					<rect x="1184.58" y="805.882" fill="#C4D9ED" width="32.261" height="45.473"/>
					<rect x="1242.226" y="805.882" fill="#C4D9ED" width="32.262" height="45.473"/>
					<rect x="1302.555" y="805.882" fill="#C4D9ED" width="32.26" height="45.473"/>
					<rect x="1361.532" y="805.882" fill="#C4D9ED" width="32.262" height="45.473"/>
					<rect x="1417.454" y="805.882" fill="#C4D9ED" width="32.26" height="45.473"/>
					<rect x="1474.446" y="805.882" fill="#C4D9ED" width="32.262" height="45.473"/>
					<rect x="1533.838" y="805.882" fill="#C4D9ED" width="32.262" height="45.473"/>
					<rect x="1594.167" y="805.882" fill="#C4D9ED" width="32.26" height="45.473"/>
					<rect x="1653.145" y="805.882" fill="#C4D9ED" width="32.261" height="45.473"/>
					<rect x="1709.065" y="805.882" fill="#C4D9ED" width="32.261" height="45.473"/>
					<rect x="1766.058" y="805.882" fill="#C4D9ED" width="32.261" height="45.473"/>
					<rect x="1823.705" y="805.882" fill="#C4D9ED" width="32.262" height="45.473"/>
					<rect x="1884.034" y="805.882" fill="#C4D9ED" width="32.261" height="45.473"/>
					<rect x="1943.012" y="805.882" fill="#C4D9ED" width="32.26" height="45.473"/>
					<rect x="1998.932" y="805.882" fill="#C4D9ED" width="32.261" height="45.473"/>
					<rect x="2055.925" y="805.882" fill="#C4D9ED" width="32.261" height="45.473"/>
					<rect x="952.36" y="886.125" fill="#C4D9ED" width="32.261" height="45.472"/>
					<rect x="1012.688" y="886.125" fill="#C4D9ED" width="32.261" height="45.472"/>
					<rect x="1071.667" y="886.125" fill="#C4D9ED" width="32.261" height="45.472"/>
					<rect x="1127.586" y="886.125" fill="#C4D9ED" width="32.261" height="45.472"/>
					<rect x="1184.58" y="886.125" fill="#C4D9ED" width="32.261" height="45.472"/>
					<rect x="1242.226" y="886.125" fill="#C4D9ED" width="32.262" height="45.472"/>
					<rect x="1302.555" y="886.125" fill="#C4D9ED" width="32.26" height="45.472"/>
					<rect x="1361.532" y="886.125" fill="#C4D9ED" width="32.262" height="45.472"/>
					<rect x="1417.454" y="886.125" fill="#C4D9ED" width="32.26" height="45.472"/>
					<rect x="1474.446" y="886.125" fill="#C4D9ED" width="32.262" height="45.472"/>
					<rect x="1533.838" y="886.125" fill="#C4D9ED" width="32.262" height="45.472"/>
					<rect x="1594.167" y="886.125" fill="#C4D9ED" width="32.26" height="45.472"/>
					<rect x="1653.145" y="886.125" fill="#C4D9ED" width="32.261" height="45.472"/>
					<rect x="1709.065" y="886.125" fill="#C4D9ED" width="32.261" height="45.472"/>
					<rect x="1766.058" y="886.125" fill="#C4D9ED" width="32.261" height="45.472"/>
					<rect x="1823.705" y="886.125" fill="#C4D9ED" width="32.262" height="45.472"/>
					<rect x="1884.034" y="886.125" fill="#C4D9ED" width="32.261" height="45.472"/>
					<rect x="1998.932" y="886.125" fill="#C4D9ED" width="32.261" height="45.472"/>
					<rect x="1943.011" y="886.125" fill="#C4D9ED" width="32.262" height="45.472"/>
					<rect x="2055.925" y="886.125" fill="#C4D9ED" width="32.261" height="45.472"/>
					<rect x="952.36" y="965.137" fill="#C4D9ED" width="32.261" height="45.471"/>
					<rect x="1012.688" y="965.137" fill="#C4D9ED" width="32.261" height="45.471"/>
					<rect x="1071.667" y="965.137" fill="#C4D9ED" width="32.261" height="45.471"/>
					<rect x="1127.586" y="965.137" fill="#C4D9ED" width="32.261" height="45.471"/>
					<rect x="1184.58" y="965.137" fill="#C4D9ED" width="32.261" height="45.471"/>
					<rect x="1242.226" y="965.137" fill="#C4D9ED" width="32.262" height="45.471"/>
					<rect x="1302.555" y="965.137" fill="#C4D9ED" width="32.26" height="45.471"/>
					<rect x="1361.532" y="965.137" fill="#C4D9ED" width="32.262" height="45.471"/>
					<rect x="1417.454" y="965.137" fill="#C4D9ED" width="32.26" height="45.471"/>
					<rect x="1474.446" y="965.137" fill="#C4D9ED" width="32.262" height="45.471"/>
					<rect x="1533.838" y="965.137" fill="#C4D9ED" width="32.262" height="45.471"/>
					<rect x="1594.167" y="965.137" fill="#C4D9ED" width="32.26" height="45.471"/>
					<rect x="1653.145" y="965.137" fill="#C4D9ED" width="32.261" height="45.471"/>
					<rect x="1709.065" y="965.137" fill="#C4D9ED" width="32.261" height="45.471"/>
					<rect x="1766.058" y="965.137" fill="#C4D9ED" width="32.261" height="45.471"/>
					<rect x="1823.705" y="965.137" fill="#C4D9ED" width="32.262" height="45.471"/>
					<rect x="1884.034" y="965.137" fill="#C4D9ED" width="32.261" height="45.471"/>
					<rect x="1998.932" y="965.137" fill="#C4D9ED" width="32.261" height="45.471"/>
					<rect x="2055.925" y="965.137" fill="#C4D9ED" width="32.261" height="45.471"/>
				</g>
				<polygon fill="#C4D9ED" points="671.496,568.5 671.496,473.916 675.383,473.916 675.383,568.5 728.61,568.5 728.61,685.218 
					619,685.218 619,568.5 				"/>
				<polygon fill="#C4D9ED" points="353.926,494.246 353.926,421.679 384.765,421.679 384.765,390.098 388.651,390.098 
					388.651,421.679 501.086,421.679 503.138,421.679 524.406,421.679 524.406,390.098 528.293,390.098 528.293,421.679 
					555.576,421.679 555.576,738.806 501.086,738.806 501.086,602.166 353.926,602.166 353.926,529.6 501.086,529.6 
					501.086,494.246 				"/>
				<rect x="2323.419" y="798.171" fill="#D5E7F7" width="7.604" height="97.317"/>
			</g>
			<rect x="579.831" y="1082.272" fill="#C4D9ED" width="738.854" height="432.193"/>
			<rect x="1250.309" y="1126.576" fill="#D5E7F7" width="39.394" height="60.147"/>
			<rect x="1180.844" y="1126.576" fill="#D5E7F7" width="39.394" height="60.147"/>
			<rect x="1110.915" y="1126.576" fill="#D5E7F7" width="39.394" height="60.147"/>
			<rect x="1041.45" y="1126.576" fill="#D5E7F7" width="39.394" height="60.147"/>
			<rect x="969.906" y="1126.576" fill="#D5E7F7" width="39.394" height="60.147"/>
			<rect x="900.44" y="1126.576" fill="#D5E7F7" width="39.394" height="60.147"/>
			<rect x="830.512" y="1126.576" fill="#D5E7F7" width="39.394" height="60.147"/>
			<rect x="761.046" y="1126.576" fill="#D5E7F7" width="39.394" height="60.147"/>
			<rect x="688.192" y="1126.576" fill="#D5E7F7" width="39.394" height="60.147"/>
			<rect x="618.727" y="1126.576" fill="#D5E7F7" width="39.394" height="60.147"/>
			<rect x="1250.309" y="1215.526" fill="#D5E7F7" width="39.394" height="60.146"/>
			<rect x="1180.844" y="1215.526" fill="#D5E7F7" width="39.394" height="60.146"/>
			<rect x="1110.915" y="1215.526" fill="#D5E7F7" width="39.394" height="60.146"/>
			<rect x="1041.45" y="1215.526" fill="#D5E7F7" width="39.394" height="60.146"/>
			<rect x="969.906" y="1215.526" fill="#D5E7F7" width="39.394" height="60.146"/>
			<rect x="900.44" y="1215.526" fill="#D5E7F7" width="39.394" height="60.146"/>
			<rect x="830.512" y="1215.526" fill="#D5E7F7" width="39.394" height="60.146"/>
			<rect x="761.046" y="1215.526" fill="#D5E7F7" width="39.394" height="60.146"/>
			<rect x="688.192" y="1215.526" fill="#D5E7F7" width="39.394" height="60.146"/>
			<rect x="618.727" y="1215.526" fill="#D5E7F7" width="39.394" height="60.146"/>
			<rect x="1250.309" y="1311.076" fill="#D5E7F7" width="39.394" height="60.146"/>
			<rect x="1180.844" y="1311.076" fill="#D5E7F7" width="39.394" height="60.146"/>
			<rect x="1110.915" y="1311.076" fill="#D5E7F7" width="39.394" height="60.146"/>
			<rect x="1041.45" y="1311.076" fill="#D5E7F7" width="39.394" height="60.146"/>
			<rect x="969.906" y="1311.076" fill="#D5E7F7" width="39.394" height="60.146"/>
			<rect x="900.44" y="1311.076" fill="#D5E7F7" width="39.394" height="60.146"/>
			<rect x="830.512" y="1311.076" fill="#D5E7F7" width="39.394" height="60.146"/>
			<rect x="761.046" y="1311.076" fill="#D5E7F7" width="39.394" height="60.146"/>
			<rect x="688.192" y="1311.076" fill="#D5E7F7" width="39.394" height="60.146"/>
			<rect x="618.727" y="1311.076" fill="#D5E7F7" width="39.394" height="60.146"/>
			<rect x="1250.309" y="1400.025" fill="#D5E7F7" width="39.394" height="60.147"/>
			<rect x="1180.844" y="1400.025" fill="#D5E7F7" width="39.394" height="60.147"/>
			<rect x="1110.915" y="1400.025" fill="#D5E7F7" width="39.394" height="60.147"/>
			<rect x="1041.45" y="1400.025" fill="#D5E7F7" width="39.394" height="60.147"/>
			<rect x="969.906" y="1400.025" fill="#D5E7F7" width="39.394" height="60.147"/>
			<rect x="900.44" y="1400.025" fill="#D5E7F7" width="39.394" height="60.147"/>
			<rect x="830.512" y="1400.025" fill="#D5E7F7" width="39.394" height="60.147"/>
			<rect x="761.046" y="1400.025" fill="#D5E7F7" width="39.394" height="60.147"/>
			<rect x="688.192" y="1400.025" fill="#D5E7F7" width="39.394" height="60.147"/>
			<rect x="618.727" y="1400.025" fill="#D5E7F7" width="39.394" height="60.147"/>
			<polygon fill="#C4D9ED" points="834.365,1102.009 680.186,1102.009 680.186,967.586 834.365,1026.614 			"/>
			<polygon fill="#C4D9ED" points="1594.25,1514.465 1947.083,1514.465 1947.083,1130.656 1594.25,1252.8 			"/>
			<rect x="1603.568" y="1265.507" fill="#D5E7F7" width="334.197" height="11.859"/>
			<rect x="1603.568" y="1303.628" fill="#D5E7F7" width="334.197" height="11.859"/>
			<rect x="1603.568" y="1341.75" fill="#D5E7F7" width="334.197" height="11.86"/>
			<rect x="1603.568" y="1379.871" fill="#D5E7F7" width="334.197" height="11.86"/>
			<rect x="1603.568" y="1417.992" fill="#D5E7F7" width="334.197" height="11.86"/>
			<rect x="1603.568" y="1456.114" fill="#D5E7F7" width="334.197" height="11.859"/>
			<rect x="650.536" y="967.586" fill="#C4D9ED" width="29.65" height="114.686"/>
			<rect x="712.761" y="1025.13" fill="#D5E7F7" width="60.146" height="39.394"/>
			<g>
				<rect x="1895.081" y="235.809" fill="#C4D9ED" width="20.446" height="173.452"/>
				<rect x="1854.418" y="235.809" fill="#C4D9ED" width="20.446" height="173.452"/>
				<rect x="1814.307" y="235.809" fill="#C4D9ED" width="20.445" height="173.452"/>
				<rect x="1772.791" y="235.809" fill="#C4D9ED" width="20.446" height="173.452"/>
			</g>
		</g>
	</g>
	<rect x="631.833" y="1254.563" fill="#1C2948" width="1680.787" height="131.237"/>
	<g>
		<circle fill="#2D3A62" cx="2127.773" cy="1407" r="109.301"/>
		<path fill="#98BDF4" d="M2127.774,1339.28c-37.4,0-67.721,30.319-67.721,67.721c0,37.4,30.32,67.72,67.721,67.72
			s67.721-30.319,67.721-67.72C2195.495,1369.599,2165.174,1339.28,2127.774,1339.28z M2137.05,1346.702
			c14.748,2.25,27.747,9.792,37.03,20.614l-23.471,14.495c-3.826-3.471-8.449-6.072-13.56-7.52V1346.702z M2118.498,1346.702v27.59
			c-5.11,1.447-9.733,4.049-13.56,7.52l-23.471-14.495C2090.751,1356.494,2103.75,1348.952,2118.498,1346.702z M2071.532,1430.652
			c-3.063-7.273-4.758-15.265-4.758-23.651c0-8.498,1.742-16.588,4.881-23.938l23.46,14.488c-0.866,3.002-1.341,6.17-1.341,9.45
			c0,3.168,0.442,6.23,1.253,9.14L2071.532,1430.652z M2118.498,1467.299c-14.856-2.267-27.938-9.901-37.235-20.852l23.443-14.479
			c3.871,3.579,8.577,6.263,13.792,7.739V1467.299z M2112.399,1407c0-8.491,6.884-15.375,15.375-15.375s15.375,6.884,15.375,15.375
			s-6.884,15.375-15.375,15.375S2112.399,1415.492,2112.399,1407z M2137.05,1467.299v-27.591c5.216-1.477,9.921-4.16,13.792-7.739
			l23.443,14.479C2164.989,1457.398,2151.907,1465.033,2137.05,1467.299z M2160.521,1416.14c0.811-2.909,1.253-5.972,1.253-9.14
			c0-3.28-0.474-6.448-1.341-9.45l23.46-14.488c3.139,7.351,4.881,15.44,4.881,23.938c0,8.387-1.695,16.378-4.757,23.651
			L2160.521,1416.14z"/>
	</g>
	<g>
		<g>
			<g>
				<circle fill="#2D3A62" cx="767.774" cy="1407" r="109.301"/>
			</g>
		</g>
		<path fill="#98BDF4" d="M767.774,1339.28c-37.401,0-67.72,30.319-67.72,67.72c0,37.401,30.319,67.721,67.72,67.721
			s67.72-30.319,67.72-67.721C835.494,1369.599,805.175,1339.28,767.774,1339.28z M777.05,1346.701
			c14.748,2.25,27.747,9.793,37.03,20.615l-23.47,14.495c-3.826-3.471-8.45-6.073-13.56-7.52V1346.701z M758.498,1346.701v27.591
			c-5.11,1.446-9.734,4.049-13.56,7.52l-23.47-14.495C730.751,1356.494,743.75,1348.951,758.498,1346.701z M711.531,1430.652
			c-3.063-7.273-4.757-15.265-4.757-23.652c0-8.497,1.742-16.588,4.881-23.938l23.459,14.488c-0.867,3.002-1.341,6.17-1.341,9.449
			c0,3.169,0.442,6.231,1.253,9.141L711.531,1430.652z M758.498,1467.298c-14.856-2.266-27.938-9.9-37.235-20.852l23.442-14.479
			c3.872,3.58,8.577,6.264,13.792,7.74V1467.298z M752.399,1407c0-8.49,6.884-15.375,15.375-15.375s15.375,6.885,15.375,15.375
			c0,8.492-6.884,15.375-15.375,15.375S752.399,1415.492,752.399,1407z M777.05,1467.298v-27.59c5.215-1.477,9.921-4.16,13.792-7.74
			l23.442,14.479C804.989,1457.398,791.906,1465.033,777.05,1467.298z M800.521,1416.14c0.811-2.909,1.253-5.972,1.253-9.141
			c0-3.279-0.474-6.447-1.341-9.449l23.459-14.488c3.139,7.35,4.881,15.44,4.881,23.938c0,8.388-1.695,16.379-4.757,23.652
			L800.521,1416.14z"/>
	</g>
	<g>
		<g>
			<path fill="#A8D29F" d="M1340.445,714.513h-956v-29.461c0-13.284,10.769-24.052,24.052-24.052h881.942
				c7.846,0,15.198,3.826,19.699,10.252L1340.445,714.513z"/>
			<polygon fill="#82B378" points="384.445,697 384.445,714.513 1340.445,714.513 1328.176,697 			"/>
			<path fill="#A8D29F" d="M2337.745,714.513H325.105c-34.124,0-61.787,27.663-61.787,61.787v562.537
				c0,15.162,10.818,28.166,25.727,30.927l169.4,31.36h188.192c0-66.274,53.726-120.001,120-120.001
				c66.274,0,120,53.727,120,120.001h1120c0-66.274,53.727-120.001,120-120.001c66.274,0,120,53.727,120,120.001h122.275
				c16.91,0,30.619-13.709,30.619-30.619V776.3C2399.532,742.176,2371.869,714.513,2337.745,714.513z"/>
			<g>
				<path fill="#82B378" d="M2225.708,1333.403c13.201,19.275,20.929,42.594,20.929,67.721h122.275
					c16.91,0,30.619-13.709,30.619-30.619l0,0c0-20.491-16.611-37.102-37.102-37.102H2225.708z"/>
				<path fill="#82B378" d="M263.318,1333.403v5.434c0,15.162,10.818,28.166,25.727,30.927l169.4,31.36h188.192
					c0-25.127,7.728-48.445,20.929-67.721H263.318z"/>
				<path fill="#82B378" d="M865.708,1333.403c13.201,19.275,20.929,42.594,20.929,67.721h1120c0-25.127,7.729-48.445,20.929-67.721
					H865.708z"/>
			</g>
			<rect x="250.445" y="1168.333" fill="#B64C41" width="27.333" height="144.666"/>
			<rect x="250.445" y="1129.104" fill="#F1A34F" width="27.333" height="27.333"/>
			<rect x="2385.445" y="1161" fill="#B64C41" width="14.087" height="130.822"/>
			<path fill="#163560" d="M997.611,1099.062h579.331c11.045,0,20-8.955,20-20V817c0-11.045-8.955-20-20-20H997.611
				c-11.046,0-20,8.955-20,20v262.063C977.611,1090.107,986.565,1099.062,997.611,1099.062z"/>
			<path fill="#163560" d="M1961.155,1099.062h213.203c11.045,0,20-8.955,20-20V817c0-11.045-8.955-20-20-20h-213.203
				c-11.046,0-20,8.955-20,20v262.063C1941.155,1090.107,1950.109,1099.062,1961.155,1099.062z"/>
			<path fill="#163560" d="M2347.667,1099.062h51.865V817c0-11.045-8.954-20-20-20h-145.26c-11.047,0-20,8.955-20,20v148.667
				C2214.272,1039.338,2273.995,1099.062,2347.667,1099.062z"/>
			<path fill="#98BDF4" d="M997.611,1099.062h579.331c11.045,0,20-8.955,20-20V817c0-11.045-8.955-20-20-20H997.611
				c-11.046,0-20,8.955-20,20v262.063C977.611,1090.107,986.565,1099.062,997.611,1099.062z"/>
			<path fill="#98BDF4" d="M1961.155,1099.062h213.203c11.045,0,20-8.955,20-20V817c0-11.045-8.955-20-20-20h-213.203
				c-11.046,0-20,8.955-20,20v262.063C1941.155,1090.107,1950.109,1099.062,1961.155,1099.062z"/>
			<path fill="#98BDF4" d="M2347.667,1099.062h51.865V817c0-11.045-8.954-20-20-20h-145.26c-11.047,0-20,8.955-20,20v148.667
				C2214.272,1039.338,2273.995,1099.062,2347.667,1099.062z"/>
			<path fill="#163560" d="M336.006,1099.062h579.331c11.045,0,20-8.955,20-20V817c0-11.045-8.955-20-20-20H336.006
				c-11.046,0-20,8.955-20,20v262.063C316.006,1090.107,324.96,1099.062,336.006,1099.062z"/>
			<path fill="#98BDF4" d="M336.006,1099.062h579.331c11.045,0,20-8.955,20-20V817c0-11.045-8.955-20-20-20H336.006
				c-11.046,0-20,8.955-20,20v262.063C316.006,1090.107,324.96,1099.062,336.006,1099.062z"/>
			<path fill="#98BDF4" d="M1904.445,797h-149.646h-17.709h-100.646c-11.046,0-20,8.955-20,20v584.124h120.646h17.709h169.646V817
				C1924.445,805.955,1915.491,797,1904.445,797z"/>
			<g>
				<defs>
					<path id="SVGID_1_" d="M997.611,1099.062h579.331c11.045,0,20-8.955,20-20V817c0-11.045-8.955-20-20-20H997.611
						c-11.046,0-20,8.955-20,20v262.063C977.611,1090.107,986.565,1099.062,997.611,1099.062z"/>
				</defs>
				<clipPath id="SVGID_2_">
					<use xlink:href="#SVGID_1_"  overflow="visible"/>
				</clipPath>
				<polygon clip-path="url(#SVGID_2_)" fill="#D5E7F7" points="990.949,1264.519 905.454,1264.519 1281.935,601.164 
					1367.43,601.164 				"/>
				<polygon clip-path="url(#SVGID_2_)" fill="#D5E7F7" points="1130.398,1279.708 1044.902,1279.708 1421.383,616.353 
					1506.878,616.353 				"/>
				<polygon clip-path="url(#SVGID_2_)" fill="#D5E7F7" points="1381.898,1293.208 1296.402,1293.208 1672.883,629.853 
					1758.378,629.853 				"/>
				<polygon clip-path="url(#SVGID_2_)" fill="#D5E7F7" points="1183.445,1291.822 1160.902,1291.822 1537.383,628.466 
					1559.926,628.466 				"/>
			</g>
			<g>
				<defs>
					<path id="SVGID_3_" d="M1961.155,1099.062h213.203c11.045,0,20-8.955,20-20V817c0-11.045-8.955-20-20-20h-213.203
						c-11.046,0-20,8.955-20,20v262.063C1941.155,1090.107,1950.109,1099.062,1961.155,1099.062z"/>
				</defs>
				<clipPath id="SVGID_4_">
					<use xlink:href="#SVGID_3_"  overflow="visible"/>
				</clipPath>
				<polygon clip-path="url(#SVGID_4_)" fill="#D5E7F7" points="1970.003,1230.351 1884.507,1230.351 2260.989,566.996 
					2346.485,566.996 				"/>
				<polygon clip-path="url(#SVGID_4_)" fill="#D5E7F7" points="2023.05,1242.464 2000.507,1242.464 2376.989,579.109 
					2399.532,579.109 				"/>
			</g>
			<g>
				<defs>
					<path id="SVGID_5_" d="M2347.667,1099.062h51.865V817c0-11.045-8.954-20-20-20h-145.26c-11.047,0-20,8.955-20,20v148.667
						C2214.272,1039.338,2273.995,1099.062,2347.667,1099.062z"/>
				</defs>
				<clipPath id="SVGID_6_">
					<use xlink:href="#SVGID_5_"  overflow="visible"/>
				</clipPath>
				<polygon clip-path="url(#SVGID_6_)" fill="#D5E7F7" points="2174.468,1218.238 2131.72,1218.238 2508.202,554.882 
					2550.95,554.882 				"/>
				<polygon clip-path="url(#SVGID_6_)" fill="#D5E7F7" points="2227.515,1230.351 2204.973,1230.351 2581.454,566.996 
					2603.997,566.996 				"/>
			</g>
			<g>
				<defs>
					<path id="SVGID_7_" d="M336.006,1099.062h579.331c11.045,0,20-8.955,20-20V817c0-11.045-8.955-20-20-20H336.006
						c-11.046,0-20,8.955-20,20v262.063C316.006,1090.107,324.96,1099.062,336.006,1099.062z"/>
				</defs>
				<clipPath id="SVGID_8_">
					<use xlink:href="#SVGID_7_"  overflow="visible"/>
				</clipPath>
				<polygon clip-path="url(#SVGID_8_)" fill="#D5E7F7" points="319.949,1257.519 234.454,1257.519 610.935,594.164 
					696.431,594.164 				"/>
				<polygon clip-path="url(#SVGID_8_)" fill="#D5E7F7" points="614.949,1257.519 529.454,1257.519 905.935,594.164 
					991.431,594.164 				"/>
				<polygon clip-path="url(#SVGID_8_)" fill="#D5E7F7" points="368.963,1257.519 346.454,1257.519 722.935,594.164 
					745.445,594.164 				"/>
			</g>
			<g>
				<defs>
					<path id="SVGID_9_" d="M1904.445,797h-149.646h-17.709h-100.646c-11.046,0-20,8.955-20,20v584.124h120.646h17.709h169.646V817
						C1924.445,805.955,1915.491,797,1904.445,797z"/>
				</defs>
				<clipPath id="SVGID_10_">
					<use xlink:href="#SVGID_9_"  overflow="visible"/>
				</clipPath>
				<polygon clip-path="url(#SVGID_10_)" fill="#D5E7F7" points="1507.074,1419.763 1421.578,1419.763 1798.059,756.408 
					1883.555,756.408 				"/>
				<polygon clip-path="url(#SVGID_10_)" fill="#D5E7F7" points="1560.121,1431.876 1537.578,1431.876 1914.059,768.521 
					1936.602,768.521 				"/>
				<polygon clip-path="url(#SVGID_10_)" fill="#D5E7F7" points="1711.539,1407.65 1668.791,1407.65 2045.272,744.294 
					2088.02,744.294 				"/>
			</g>
			<rect x="1761.933" y="797" fill="#163560" width="16.499" height="604.124"/>
			<path fill="#163560" d="M915.336,1104.062h-579.33c-13.785,0-25-11.215-25-25V817c0-13.785,11.215-25,25-25h579.33
				c13.785,0,25,11.214,25,25v262.063C940.336,1092.847,929.121,1104.062,915.336,1104.062z M336.006,802c-8.271,0-15,6.729-15,15
				v262.063c0,8.271,6.729,15,15,15h579.33c8.271,0,15-6.729,15-15V817c0-8.271-6.729-15-15-15H336.006z"/>
			<path fill="#163560" d="M1576.941,1104.062h-579.33c-13.785,0-25-11.215-25-25V817c0-13.785,11.215-25,25-25h579.33
				c13.785,0,25,11.214,25,25v262.063C1601.941,1092.847,1590.726,1104.062,1576.941,1104.062z M997.611,802
				c-8.271,0-15,6.729-15,15v262.063c0,8.271,6.729,15,15,15h579.33c8.271,0,15-6.729,15-15V817c0-8.271-6.729-15-15-15H997.611z"/>
			<path fill="#163560" d="M1929.446,1406.123h-318.001V817c0-13.785,11.215-25,25-25h268.001c13.785,0,25,11.214,25,25V1406.123z
				 M1621.445,1396.123h298.001V817c0-8.271-6.729-15-15-15h-268.001c-8.271,0-15,6.729-15,15V1396.123z"/>
			<path fill="#163560" d="M2174.357,1104.062h-213.202c-13.785,0-25-11.215-25-25V817c0-13.785,11.215-25,25-25h213.202
				c13.785,0,25,11.214,25,25v262.063C2199.357,1092.847,2188.142,1104.062,2174.357,1104.062z M1961.155,802
				c-8.271,0-15,6.729-15,15v262.063c0,8.271,6.729,15,15,15h213.202c8.272,0,15-6.729,15-15V817c0-8.271-6.728-15-15-15H1961.155z"
				/>
			<path fill="#163560" d="M2393.791,1104.062h-46.124c-76.311,0-138.395-62.084-138.395-138.396V817c0-13.785,11.214-25,25-25
				h145.26c13.785,0,25,11.214,25,25v276.32C2404.532,1099.244,2399.713,1104.062,2393.791,1104.062z M2234.272,802
				c-8.271,0-15,6.729-15,15v148.666c0,70.799,57.598,128.396,128.395,128.396h46.124c0.409,0,0.741-0.334,0.741-0.742V817
				c0-8.271-6.729-15-15-15H2234.272z"/>
			<rect x="1581.445" y="1401.124" fill="#A8D29F" width="377.5" height="17.876"/>
			<rect x="1564.945" y="1419" fill="#82B378" width="410.5" height="17.877"/>
			<path fill="#A8D29F" d="M2447.112,985.667L2447.112,985.667c-11.782,0-21.334-9.551-21.334-21.333V789.667
				c0-11.782,9.552-21.333,21.334-21.333l0,0c11.781,0,21.333,9.551,21.333,21.333v174.667
				C2468.445,976.116,2458.893,985.667,2447.112,985.667z"/>
			<path fill="#82B378" d="M2438.028,782.25h-200.666c-7.687,0-13.917-6.231-13.917-13.917l0,0c0-7.686,6.23-13.917,13.917-13.917
				h200.666c7.687,0,13.917,6.231,13.917,13.917l0,0C2451.945,776.019,2445.714,782.25,2438.028,782.25z"/>
		</g>
		<g>
			<path fill="#D9935C" d="M1518.581,1081.651c1.035-3.192,1.817-5.512,2.211-6.659c0.178-0.534,0.275-0.815,0.275-0.815
				s0.317,0.303,0.836,0.955c3.213,4.027,14.251,21.347,5.957,61.438c-1.218,5.897-2.857,12.294-4.998,19.206
				c0,0,30.558-5.392,39.185-11.141c0.36-0.9,4.853-14.2,8.269-15.998c3.415-1.797,9.705-3.774,11.143-3.056
				c1.438,0.719,4.135,10.784,0,15.996c-4.133,5.214-14.736,10.246-14.736,10.246s-34.153,27.322-57.879,26.6
				C1489.016,1177.825,1510.865,1105.43,1518.581,1081.651z"/>
			<path fill="#FFFFFF" d="M1372.334,1258.722c1.183-3.274,1.685-8.088,1.685-8.088c17.254,7.549,36.127,4.313,36.127,4.313
				c1.618,6.649,0.202,15.906,0.202,15.906c-19.412,5.213-40.935-6.2-40.935-6.2S1371.458,1261.149,1372.334,1258.722z"/>
			<path fill="#466AA5" d="M1398.844,1207.183c0.776,1.889,4.158,3.567,9.025,4.773c0.455,0.11,0.919,0.22,1.391,0.329
				c11.032,2.403,28.483,2.538,41.346-2.227c14.389-5.331,24.831-81.391,29.268-120.384c0.067-0.599,0.135-1.181,0.194-1.763
				c1.425-12.617,2.175-20.926,2.175-20.926s-8.265-12.938-40.265-8.628c-31.992,4.318-35.223,15.098-38.098,34.514
				C1401.004,1112.28,1396.332,1201.068,1398.844,1207.183z"/>
			<path fill="#2B478B" d="M1409.26,1212.286c11.032,2.403,28.483,2.538,41.346-2.227c14.389-5.331,24.831-81.391,29.268-120.384
				c0.067-0.599,0.135-1.181,0.194-1.763c-3.265-11.302-5.728-18.521-5.728-18.521s-40.173-4.85-47.991,7.278
				C1419.517,1087.272,1411.243,1187.261,1409.26,1212.286z"/>
			<path fill="#D9935C" d="M1390.985,1249.917c2.367-1.496,4.655-6.048,5.5-7.864c7.304-18.146,15.729-53.443,18.514-59.937
				c1.013-2.362,2.954-13.508,5.499-27.866c4.567-25.765,11.064-61.881,17.573-76.191c0.782-1.715,3.02-3.176,5.953-4.399
				c7.779-3.254,20.405-4.843,23.367-5.182c3.146-2.521,7.49-13.352,7.431-29.849l1.409,0.278l23.7,4.693
				c0,0-0.538,7.459-0.556,14.484c-0.015,5.855,0.338,11.405,1.665,12.104c1.706,0.154,2.713,0.256,2.713,0.256
				s19.761,27.444,21.423,52.969s-15.824,36.612,0.132,87.62c16.291,52.094-94.414,19.243-88.335,5.607
				c11.003-24.677,16.267-31.655,16.451-39.419c0.13-5.455-2.248-11.299-6.904-23.927c-0.412,1.519-0.819,3.025-1.219,4.507
				c-2.636,9.792-4.896,18.533-5.817,22.9c-2.826,13.415-33.9,64.976-33.9,64.976l-0.009-0.003l0.007,0.003
				c0,0-0.941,0.628-2.04,3.767c-1.1,3.14-9.889,19.775-13.655,19.775s-4.552-5.649-5.337-9.259
				C1383.765,1256.352,1388.003,1251.8,1390.985,1249.917z"/>
			<path fill="#233862" d="M1444.034,972.588c5.258-3.218,13.655,0.628,13.655,0.628c-2.904-4.081-13.498-2.746-13.498-2.746
				c21.155-4.502,25.526,9.061,25.87,10.264c15.307-13.813,39.813,15.632,39.813,15.632l-35.166,46.614c0,0-3.207-7.416-7.445-5.101
				c-6.607,3.609-19.387-10.997-15.303-30.213c0.441-2.077,0.973-3.973,1.562-5.716c-1.373,0.601-2.93,1.086-4.387,1.086
				c-3.845,0-9.651-9.81-10.437-13.105S1438.776,975.805,1444.034,972.588z"/>
			<path fill="#CB7D45" d="M1499.931,1043.601c0,0-0.539,7.459-0.556,14.484c-13.262-0.374-20.271-12.472-23.145-19.178
				L1499.931,1043.601z"/>
			<path fill="#233862" d="M1473.784,1036.328c0,0-6.95-10.982-8.618-20.372c-1.191-6.703,2.224-31.554,27.194-27.975
				c0,0,7.253,0.715,14.07,5.319c5.421,3.662,13.246,11.566,4.497,33.251l-2.272,7.325L1473.784,1036.328z"/>
			<path fill="#D9935C" d="M1504.361,1050.254c0,0-31.378,0.517-31.4-19.028c-0.021-19.546-4.087-32.643,15.946-33.8
				c20.034-1.157,23.936,6.298,25.529,12.819C1516.03,1016.768,1512.522,1049.616,1504.361,1050.254z"/>
			<path fill="#AA413E" d="M1464.756,1453.437c7.895,31.404,19.778,55.479,19.778,55.479l10.348-0.718c0,0-5.074-24.14-4.783-56.757
				c0.205-22.804,3.025-49.753,12.035-75.484c30.962-88.425,25.958-152.78,25.958-152.78l-58.224,6.811l-2.713,0.318
				c-0.242,26.739-0.933,63.044-1.536,91.434c-0.534,25.531-1.004,44.657-1.004,44.657
				C1453.422,1390.505,1457.488,1424.536,1464.756,1453.437z"/>
			<path fill="#CB7D45" d="M1444.662,1148.214c5.881,16.244,8.909,22.869,8.763,29.009c18.744-29.023,52.602-33.402,52.602-33.402
				l-64.293-7.35C1442.321,1140.45,1443.277,1144.386,1444.662,1148.214z"/>
			<path fill="#B64C41" d="M1431.353,1448.422c3.349,35.729,18.089,58.831,18.089,58.831l4.942,3.596c0,0,4.679-25.172,7.988-55.121
				c3.155-28.464,7.479-58.585,12.37-67.778c19.417-36.461,25.262-174.106,25.262-174.106l-59.033-2.928
				c-5.936,9.98-8.524,26.352-9.139,44.965c-1.553,46.977,9.49,108.23,11.14,117.09c0,0.005,0,0.011,0.006,0.021
				c0.129,0.685-0.071,1.359-0.389,1.979C1430.845,1398.221,1429.147,1424.821,1431.353,1448.422z"/>
			<path fill="#233862" d="M1481.422,1023.269c-13.184,3.391-18.903-0.143-18.903-0.143s0.981-13.4,12.212-22.059
				c16.288-12.559,27.508-5.544,28.2-4.51c2.054-1.769,5.72-3.061,10.571,2.82c7.274,8.816,0.802,24.402,0.802,24.402
				c-2.985,0.349-3.69-9.898-5.254-14.875c-1.152-3.666-4.929-7.4-6.843-9.119c-0.615,2.264-6.932,24.21-22.703,31.5
				c0,0,7.262-6.443,12.599-15.388C1489.046,1019.371,1485.451,1022.233,1481.422,1023.269z"/>
			<path fill="#F1A34F" d="M1429.573,1234.458c-0.103,1.989,0.006,3.581,0.367,4.718c1.257,3.952,5.57,5.754,15.998,4.675
				c6.374-0.663,9.216-11.345,10.482-20.457c3.828,13.037,9.188,20.354,16.117,21.892c10.11,2.249,61.108,8.449,64.446-15.793
				c3.672-26.664-7.322-73.878-7.927-99.334c1.5-9.026,2.012-16.861,1.85-23.591c-0.426-18.134-5.748-28.298-9.84-32.391
				c-1.16-0.89-2.318-1.444-6.973-2.242c-2.378-0.404-5.672-0.873-10.341-1.488c0,0-1.906-0.215-1.862-0.145
				c0.862,1.542,12.413,19.032,11.513,23.529c-0.943,4.708-41.907,0.47-44.732-2.119c-2.826-2.588-7.296-22.42-7.296-22.42
				s-14.505,1.586-21.601,6.746c0,0,0.027,0.032,0.075,0.091c-0.857,0.615-1.498,1.268-1.865,1.963
				c-7.571,14.414-15.131,50.788-20.447,76.735c12.887,7.102,24.146,4.988,27.64,4.049
				C1440.611,1188.759,1430.252,1220.842,1429.573,1234.458z"/>
			<path fill="#466AA5" d="M1503.752,1070.446c0,0,0.021,0.037,0.064,0.107c1.392,2.2,23.153,36.984,25.24,59.604
				c1.5-9.026,2.012-16.861,1.85-23.591c-2.798-8.546-9.592-27.532-16.813-34.633
				C1513.189,1071.039,1503.752,1070.446,1503.752,1070.446z"/>
			<g>
				<path fill="#F1A34F" d="M1555.526,1146.691l9.134-27.433c0.16-0.477,0.676-0.735,1.152-0.576l14.388,4.79
					c0.477,0.159,0.734,0.675,0.576,1.152l-9.135,27.432c-0.158,0.478-0.675,0.736-1.152,0.577l-14.387-4.79
					C1555.625,1147.684,1555.368,1147.168,1555.526,1146.691z"/>
				<path fill="#D86713" d="M1558.819,1147.044l8.688-26.095c0.283-0.847,1.197-1.305,2.045-1.023l13.048,4.346
					c0.848,0.282,1.305,1.196,1.023,2.043l-8.688,26.095c-0.283,0.848-1.197,1.305-2.044,1.023l-13.05-4.346
					C1558.994,1148.806,1558.536,1147.89,1558.819,1147.044z"/>
			</g>
			<path fill="#D9935C" d="M1431.353,1448.422c3.349,35.729,18.089,58.831,18.089,58.831l5.032,4.584c0,0,4.589-26.16,7.898-56.109
				C1458.885,1455.982,1443.506,1456.542,1431.353,1448.422z"/>
			<path fill="#D9935C" d="M1464.756,1453.437c7.895,31.404,19.778,55.479,19.778,55.479l10.348-0.718c0,0-5.074-24.14-4.783-56.757
				C1486.589,1453.21,1479.342,1455.006,1464.756,1453.437z"/>
			<g>
				<path fill="#233862" d="M1478.576,1517.593h6.606c2.213-0.349,3.847-0.988,6.116-1.286c3.446-0.451,5.033,0.961,5.349,1.286
					c0.043,0.042,0.062,0.065,0.062,0.065h28.063c0.706-1.007,0.028-3.343-0.636-5.062c-0.448-1.168-1.422-2.053-2.627-2.4
					c-2.977-0.862-8.843-1.63-14.215-6.493c-3.023-2.731-14.598-10.044-14.598-10.044l-0.061-0.014
					c-0.254,0.005-1.465,0.376-6.728,4.821c-2.723,2.293-7.36-3.239-7.36-3.239s-0.87,0.72-1.521,2.063
					c-0.522,1.06-0.904,2.514-0.603,4.308c0.419,2.528-0.932,7.228-2.011,10.406c-0.654,1.926-1.205,3.291-1.205,3.291
					S1472.893,1516.882,1478.576,1517.593z"/>
				<path fill="#466AA5" d="M1477.027,1497.291c1.577,1.111,4.906,3.301,7.114,3.588c2.98,0.391,8.555-7.219,8.555-7.219
					l-0.061-0.014c-0.254,0.005-1.465,0.376-6.728,4.821c-2.723,2.293-7.36-3.239-7.36-3.239S1477.677,1495.948,1477.027,1497.291z"
					/>
				<path fill="#466AA5" d="M1478.576,1517.593h6.606c2.213-0.349,3.847-0.988,6.116-1.286c3.446-0.451,5.033,0.961,5.349,1.286
					c0.043,0.042,0.062,0.065,0.062,0.065h28.063c0.706-1.007,0.028-3.343-0.636-5.062c-0.852-0.758-1.093,3.292-1.563,3.937
					c-0.472,0.646-22.894,0.235-24.188-0.706c-1.295-0.942-5.179-2.589-10.594-1.295c-4.713,1.126-11.658-1.761-13.377-2.528
					c-0.654,1.926-1.205,3.291-1.205,3.291S1472.893,1516.882,1478.576,1517.593z"/>
			</g>
			<g>
				<path fill="#233862" d="M1443.324,1517.593h6.606c2.212-0.349,3.846-0.988,6.116-1.286c3.446-0.451,5.032,0.961,5.348,1.286
					c0.043,0.042,0.063,0.065,0.063,0.065h28.062c0.706-1.007,0.028-3.343-0.636-5.062c-0.447-1.168-1.422-2.053-2.627-2.4
					c-2.976-0.862-8.842-1.63-14.215-6.493c-3.022-2.731-14.597-10.044-14.597-10.044l-0.061-0.014
					c-0.255,0.005-1.465,0.376-6.729,4.821c-2.722,2.293-7.359-3.239-7.359-3.239s-0.871,0.72-1.521,2.063
					c-0.522,1.06-0.903,2.514-0.602,4.308c0.419,2.528-0.933,7.228-2.011,10.406c-0.654,1.926-1.205,3.291-1.205,3.291
					S1437.641,1516.882,1443.324,1517.593z"/>
				<path fill="#466AA5" d="M1441.774,1497.291c1.578,1.111,4.907,3.301,7.115,3.588c2.98,0.391,8.555-7.219,8.555-7.219
					l-0.061-0.014c-0.255,0.005-1.465,0.376-6.729,4.821c-2.722,2.293-7.359-3.239-7.359-3.239S1442.424,1495.948,1441.774,1497.291
					z"/>
				<path fill="#466AA5" d="M1443.324,1517.593h6.606c2.212-0.349,3.846-0.988,6.116-1.286c3.446-0.451,5.032,0.961,5.348,1.286
					c0.043,0.042,0.063,0.065,0.063,0.065h28.062c0.706-1.007,0.028-3.343-0.636-5.062c-0.852-0.758-1.092,3.292-1.563,3.937
					c-0.471,0.646-22.892,0.235-24.187-0.706c-1.296-0.942-5.18-2.589-10.595-1.295c-4.713,1.126-11.657-1.761-13.376-2.528
					c-0.654,1.926-1.205,3.291-1.205,3.291S1437.641,1516.882,1443.324,1517.593z"/>
			</g>
			<path opacity="0.4" fill="#D86713" d="M1429.573,1234.458c7.005-2.341,15.993-8.563,26.788-22.512
				c28.578-36.937,2.427-80.343-1.079-81.152c-3.504-0.809-10.104,28.082-10.104,28.082
				C1440.611,1188.759,1430.252,1220.842,1429.573,1234.458z"/>
			<path fill="#466AA5" d="M1445.577,1066.627c0,0,28.759,19.592,30.915,61.111c2.157,41.52-35.229,49.967-35.229,49.967
				l2.427-13.121c0,0,30.285-10.964,22.377-44.035c-7.908-33.072-31.634-51.046-31.634-51.046L1445.577,1066.627z"/>
			<path fill="#D9935C" d="M1582.266,1130.147c0,0-2.695-5.571-7.638-3.325c-4.942,2.247-2.786,10.695,0.09,13.661
				c2.876,2.965,3.685,4.313,3.685,4.313L1582.266,1130.147z"/>
		</g>
		<g>
			<path fill="#CB8757" d="M569.59,1187.941c0,0,4.756,5.428,1.977,8.808c-2.779,3.38-7.729,6.291-12.402,3.056
				c-4.672-3.235-5.931-15.277-3.235-15.277S569.59,1187.941,569.59,1187.941z"/>
			<path fill="#AA413E" d="M560.423,1136.716c0,0,13.661,44.575,10.785,51.046c-2.876,6.47-12.182,5.285-17.415-2.39
				C548.561,1177.696,560.423,1136.716,560.423,1136.716z"/>
			<path fill="#B64C41" d="M524.762,1037.239c0,0,21.059,3.812,28.87,11.622c7.81,7.81,26.238,30.85,14.645,107.668
				c0,0-0.931,23.151-26.964,25.383C515.278,1184.142,524.762,1037.239,524.762,1037.239z"/>
			<path fill="#D9935C" d="M536.439,1035.248c-0.404-4.022-0.254-7.565-0.059-9.835v-0.006c0.14-1.649,0.307-2.626,0.307-2.626
				l-0.307-0.098l-25.295-7.705l-0.625-0.188c-0.372,8.233-0.852,14.332-1.359,18.862c-0.572,5.138-1.181,8.249-1.698,10.126h30.756
				C537.232,1040.881,536.708,1037.955,536.439,1035.248z"/>
			<path fill="#2B478B" d="M546.271,982.544c0,0-2.905-41.429-56.704-25.742c-12.207,3.56-10.62,40.416,18.943,54.449
				L546.271,982.544z"/>
			<path fill="#D9935C" d="M476.364,1228.276c3.622,25.207,27.917,90.728,27.21,113.374c-0.56,17.846-0.266,59.072,2.09,86.459
				c0.648,7.45,1.414,13.84,2.385,18.494c2.091,10.1,4.771,21.732,6.214,29.064c3.21,16.462,1.531,26.062,4.152,34.896
				c2.886,9.658,36.015,7.892,26.032,2.031c-3.563-2.091-8.746-6.537-11.308-12.279c-9.305-20.85,3.74-110.754,7.627-145.414
				c0.501-4.329,0.854-7.774,1.001-10.131c1.296-21.408,15.993-164.032,15.993-164.032
				C522.07,1160.89,472.771,1203.068,476.364,1228.276z"/>
			<path fill="#CB8757" d="M476.364,1228.276c3.622,25.207,27.917,90.728,27.21,113.374c-0.56,17.846-0.266,59.072,2.09,86.459
				l35.102-73.207c0.501-4.329,0.854-7.774,1.001-10.131c1.296-21.408,16.361-164.086,16.361-164.086
				C522.437,1160.837,472.771,1203.068,476.364,1228.276z"/>
			<path fill="#D9935C" d="M553.793,1185.373c0,0-30.652,140.901-34.135,162.055c-3.482,21.154-31.396,120.765-25.313,145.725
				c3.589,14.725,9.847,19.081,9.847,19.081c1.472,2.699-22.772,8.061-24.731-2.271c-2.486-13.117-3.008-31.529-6.65-62.744
				c-6.271-53.745,6.166-84.33,9.182-106.791c3.015-22.46-10.123-93.858-2.832-118.257
				C491.922,1179.47,520.342,1161.963,553.793,1185.373z"/>
			<path fill="#B64C41" d="M471.993,1314.849c0,0,7.98,1.237,19.73,2.062l6.39-25.619l2.238,26.091
				c18.876,0.766,43.524-0.177,61.694-7.686l-3.917-129.012c0,0-26.316,6.941-57.973-5.22
				C500.155,1175.465,458.987,1207.61,471.993,1314.849z"/>
			<path fill="#AA413E" d="M467.59,1490.728c1.459,8.275,1.754,23.152,1.804,26.931h2.598l0.236-19.618
				c0.185,0.236,0.363,0.438,0.523,0.625c2.319,2.589,5.373,15.189,7.633,18.993h28.753c0.295-0.826,0.076-1.636-0.397-2.387v-0.009
				c-1.315-2.065-4.58-3.66-4.58-3.66s-9.202,1.426-18.353-0.877c-3.838-0.961-10.332-35.061-10.332-35.061
				s-9.05,5.507-10.054,8.021C464.934,1484.9,466.038,1487.768,467.59,1490.728z"/>
			<path fill="#AA413E" d="M507.231,1492.323c1.038,7.118,1.392,17.645,1.51,22.94v0.009c0.017,1.004,0.034,1.813,0.042,2.387h2.598
				l0.228-18.884c2.312,2.791,5.322,15.132,7.548,18.884h28.753c1.096-3.104-4.977-6.056-4.977-6.056s-9.202,1.426-18.353-0.877
				c-3.837-0.961-10.332-35.061-10.332-35.061s-9.05,5.507-10.054,8.021C503.621,1485.119,505.258,1488.847,507.231,1492.323z"/>
			<path fill="#E7F0FD" d="M497.937,1177.509c0,0,24.172,16.684,60.676,4.479c0,0,12.475-42.669,8.544-83.753
				c-2.64-27.563-18.275-49.267-29.897-57.803c-1.83,1.625-5.05,4.426-28.886-1.354c0,0-10.935,4.586-12.883,8.812
				C491.341,1056.916,505.275,1159.586,497.937,1177.509z"/>
			<path fill="#B64C41" d="M487.809,1190.997c10.778,2.209,19.082-5.392,31.833-9.043c4.241-1.208,7.981-2.709,10.808-4.447
				c11.396-7.009,16.933-58.896,14.959-78.537c-1.944-19.612-37.035-59.89-37.035-59.89c-8.098,6.008-9.61,19.988-14.469,38.333
				C482.214,1121.555,487.809,1190.997,487.809,1190.997z"/>
			<path fill="#AA413E" d="M487.809,1190.997c10.778,2.209,22.647-1.798,31.833-9.043c4.683-6.655,8.422-14.783,10.425-24.707
				c5.801-28.623-17.08-59.691-36.162-79.834C482.214,1121.555,487.809,1190.997,487.809,1190.997z"/>
			<path fill="#CB7D45" d="M511.085,1014.978c2.884,4.832,11.987,18.188,25.354,20.27c-0.404-4.022-0.254-7.565-0.059-9.835v-0.006
				c0.14-1.649,0.307-2.626,0.307-2.626l-0.307-0.098L511.085,1014.978z"/>
			<path fill="#D9935C" d="M543.536,1024.559c0,0-31.399,6.306-35.025-13.308c-3.625-19.615-10.12-32.011,9.774-36.866
				s25.184,1.907,27.986,8.159C549.075,988.797,551.61,1022.414,543.536,1024.559z"/>
			<path fill="#2B478B" d="M497.605,977.343c10.504-13.184,23.667-11.439,30.563-9.243c1.379-0.229,3.324-0.387,5.982-0.449
				c20.497-0.477,14.833,23.198,14.833,23.198c-0.739-14.936-13.677-16.524-13.677-16.524s-0.164-0.048-0.446-0.132
				c1.143,4.159,0.741,10.828-9.3,17.133c-16.196,10.169-14.954,30.507-10.649,36.228
				C514.911,1027.553,482.67,996.092,497.605,977.343z"/>
			<path fill="#233862" d="M557.105,1214.362c2.553-10.81,5.439-16.445,8.828-17.227c0.963-0.222,1.941-0.004,2.828,0.63
				c2.627,1.877,4.851,7.635,6.798,17.604c1.398,7.161,2.107,13.913,2.114,13.98l-2.146,0.223c-0.006-0.066-0.705-6.723-2.084-13.79
				c-2.374-12.156-4.737-15.406-5.934-16.261c-0.508-0.363-0.867-0.338-1.091-0.284c-4.57,1.056-8.533,19.401-9.957,30.718
				l-2.14-0.27C554.33,1229.61,555.292,1222.037,557.105,1214.362z"/>
			<g>
				<path fill="#233862" d="M531.969,1268.867l4.694-31.14c0.997-6.612,6.678-11.502,13.365-11.502h33.258
					c3.003,0,5.437,2.435,5.437,5.438v38.015c0,3.002-2.434,5.437-5.437,5.437h-45.94
					C534.02,1275.114,531.473,1272.155,531.969,1268.867z"/>
				<path fill="#2B478B" d="M554.632,1226.225h29.28c2.794,0,5.196,1.979,5.73,4.722l7.25,37.212
					c0.703,3.604-2.058,6.955-5.73,6.955h-31.332c-2.913,0-5.379-2.146-5.782-5.03l-5.199-37.212
					C548.36,1229.36,551.087,1226.225,554.632,1226.225z"/>
			</g>
			<path fill="#DA935B" d="M554.414,1193.764c0,0,13.579,3.556,14.375,6.364c0.795,2.809-3.855,10.788-11.536,8.93
				c-7.681-1.859-13.814-11.013-13.814-11.013L554.414,1193.764z"/>
			<path fill="#B64C41" d="M508.374,1039.08c0,0-20.01,2.599-29.582,22.477c-9.57,19.876,8.238,90.864,10.814,95.65
				c2.578,4.785,32.477,43.06,57.876,46.372c0,0,10.792-3.808,10.425-10.065c0,0-41.631-41.202-44.575-47.091
				c-2.946-5.891,1.166-70.511,0.798-78.978S508.374,1039.08,508.374,1039.08z"/>
		</g>
		<g>
			<path fill="#D9935C" d="M956.473,1228.104c0.404-10.38,14.424-15.503,14.424-15.503c6.828-4.132,6.43-52.55,8.936-81.064
				c0.609-6.959,1.317-12.673,2.104-16.211c4.004-18.021,5.22-81.773,17.234-91.786c12.014-10.012,39.919-14.238,39.919-14.238
				s-8.985,48.102-18.787,98.349c-10.648,54.617-36.577,106.816-38.824,108.861c-0.007,0.006-0.017,0.011-0.023,0.018
				c-2.31,4.943-8.474,11.803-11.772,14.002c-4.044,2.695-1.887,8.088-6.74,8.628
				C956.507,1239.874,956.262,1233.519,956.473,1228.104z"/>
			<path fill="#D9935C" d="M1038.691,1003.466l0.021,3.945c0,0-1.075,12.339,14.119,14.141c15.193,1.807,26.703-4.812,26.292-14.333
				c-1.368-7.372-2.871-12.435-2.972-18.534c-0.038-2.267,0.117-4.673,0.54-7.389l-29.44-0.588l-8.672,1.417L1038.691,1003.466z"/>
			<path fill="#CB7D45" d="M1038.579,982.125l0.113,21.341c3.127,1.455,6.655,2.342,10.611,2.342
				c13.531,0,22.277-9.922,26.848-17.123c-0.038-2.267,0.117-4.673,0.54-7.389l-29.44-0.588L1038.579,982.125z"/>
			<path fill="#D9935C" d="M1036.861,992.496c0,0,37.706,7.617,42.087-15.938c4.382-23.554,12.2-38.434-11.688-44.294
				c-23.89-5.858-30.252,2.257-33.627,9.763C1030.258,949.534,1027.166,989.907,1036.861,992.496z"/>
			<path fill="#739AF0" d="M1039.09,1009.301c0,0-5.18,27.722-11.961,63.058c-2.149,11.214-4.462,23.188-6.826,35.291
				c-9.603,18.822-17.844,31.621-20.389,29.213c-5.193-4.904-14.31-5.509-20.082-5.326c0.609-6.959,1.317-12.673,2.104-16.211
				c0.316-1.424,0.614-3.132,0.903-5.077c3.36-22.676,5.264-77.488,16.331-86.709
				C1011.185,1013.528,1039.09,1009.301,1039.09,1009.301z"/>
			<path fill="#4A75CB" d="M999.914,1136.863c-5.193-4.904-14.31-5.509-20.082-5.326c0.609-6.959,1.317-12.673,2.104-16.211
				c0.316-1.424,0.614-3.132,0.903-5.077l28.791-69.501C1011.631,1040.748,1002.459,1139.271,999.914,1136.863z"/>
			<path fill="#233862" d="M1064.509,1517.659c0,0,1.559-11.272,4.822-17.799s24.029-2.374,24.029-2.374s4.153,3.561,5.043,20.173
				H1064.509z"/>
			<path fill="#233862" d="M993.96,1517.659c4.879-2.978,2.052-24.59,2.052-24.59s-22.736-18.188-25.862-4.264
				c-3.125,13.927-21.6,20.18-32.116,21.885c-7.259,1.177-7.731,4.591-8.428,6.969H993.96z"/>
			<path fill="#2B478B" d="M1041.003,1356.669c-0.926,5.1-1.513,9.282-1.668,12.281c-2.114,41.227-34.705,135.492-40.534,137.689
				c-9.019,3.404-23.223-3.83-30.654-6.197c-3.079-0.984-5.157-4.09-4.472-7.24c16.139-74.196,22.071-181.035,24.229-244.289
				c1.09-31.861,6.559-53.869,6.559-53.869s79.487-21.208,79.958,5.62C1074.84,1224.404,1048.092,1317.507,1041.003,1356.669z"/>
			<path fill="#233862" d="M1041.003,1356.669l-53.099-107.756c1.09-31.861,6.559-53.869,6.559-53.869s79.487-21.208,79.958,5.62
				C1074.84,1224.404,1048.092,1317.507,1041.003,1356.669z"/>
			<path fill="#2B478B" d="M1023.318,1200.758l42.02,304.548c0,0,18.454,4.449,32.805,0.89c0,0,12.302-161.973,11.277-201.131
				c-1.025-39.158,8.83-104.78-2.249-112.018C1096.093,1185.811,1023.318,1200.758,1023.318,1200.758z"/>
			<path fill="#FFA412" d="M1113.21,1193.046c0.137,3.528-2.656,6.47-6.181,6.523l-66.217,1.01l-48.637,0.743
				c-2.278,0.04,4.921-18.182,5.069-136.991c0.036-26.512,41.081-55.039,41.836-55.039l0.009,0.009
				c0,3.817,6.016,10.866,15.285,11.471c11,0.721,24.496-4.752,24.496-11.089c0-0.07,1.278,1.313,3.333,4.303
				c5.492,8.002,16.553,27.509,23.616,61.47c5.575,26.819,3.43,62.675,7.444,108.94
				C1113.557,1187.738,1113.125,1190.706,1113.21,1193.046z"/>
			<path fill="#739AF0" d="M1110.767,1199.939c0,0-8.802,3.942-25.266,7.354c-12.241,2.541-28.715,4.793-48.952,4.918
				c-32.186,0.205-44.374-10.889-44.374-10.889c-2.278,0.04,4.921-18.182,5.069-136.991c0.036-26.512,41.081-55.039,41.836-55.039
				l0.009,0.009c0,0-1.055,35.304,9.625,45.686c0,0,14.978-11.569,34.41-44.498c5.492,8.001,15.632,31.006,22.695,64.967
				c1.432,6.91,2.358,14.417,3.008,22.548c1.873,23.433,1.455,52.044,4.436,86.393c0.293,3.342-0.138,6.31-0.053,8.65
				C1113.348,1196.575,1114.296,1199.885,1110.767,1199.939z"/>
			<path fill="#4A75CB" d="M1110.767,1199.939c0,0-8.802,3.942-25.266,7.354c-5.179-7.897-11.708-22.154-12.61-44.622
				c-1.531-37.992,34.56-86.919,34.56-86.919l1.376,22.251c1.873,23.433,1.455,52.044,4.436,86.393
				c0.293,3.342-0.138,6.31-0.053,8.65C1113.348,1196.575,1114.296,1199.885,1110.767,1199.939z"/>
			<path fill="#B64C41" d="M1015.078,1085.748l47.394-27.362c3.9-2.252,8.887-0.916,11.139,2.983l40.565,70.263
				c2.252,3.899,0.915,8.887-2.985,11.14l-47.394,27.362c-3.9,2.252-8.888,0.915-11.139-2.985l-40.566-70.262
				C1009.841,1092.987,1011.177,1088,1015.078,1085.748z"/>
			<path fill="#D9935C" d="M1023.122,1123.514c1.08-2.967,11.664-6.823,15.336-6.823c3.63,0,12.951,8.688,13.167,8.89
				c2.669-0.123,28.878-1.382,48.357-4.234c5.117-0.747,9.767-1.606,13.403-2.581c4.467-1.196-17.706-57.393-28.893-90.441
				c-2.67-7.885-4.712-14.453-5.621-18.641c0,0,1.954,0.316,5.024,0.921c8.708,1.719,26.405,5.759,33.938,11.454
				c10.19,7.703,35.625,94.576,20.024,128.154c0,0-12.598,1.229-34.135-0.983c-15.435-1.587-35.466-4.947-58.734-11.787
				c-0.583,0.055-1.118,0.055-1.563,0.015c-3.24-0.297-15.769-3.264-18.792-4.45
				C1021.609,1131.82,1022.042,1126.48,1023.122,1123.514z"/>
			<path fill="#739AF0" d="M1137.858,1150.212c0,0-12.598,1.229-34.135-0.983c1.188-5.852,2.292-17.279-3.742-27.882
				c5.117-0.748,9.767-1.607,13.403-2.582c4.467-1.196-17.706-57.393-28.893-90.441c-0.895-10.684-1.367-17.835-1.367-17.835
				l0.77,0.115c8.708,1.719,26.405,5.759,33.938,11.454C1128.024,1029.761,1153.458,1116.634,1137.858,1150.212z"/>
			<path fill="#4A75CB" d="M1048.713,1054.987c0,0,29.962-13.201,30.407-14.239c0.445-1.038-1.483-9.048-3.56-11.422
				c0,0,14.388,1.336,15.278-0.444c0.889-1.78,1.186-16.612,1.186-16.612s-5.637-5.934-13.053-6.527c0,0-6.493,16.103-8.9,20.915
				C1063.695,1039.413,1048.713,1054.987,1048.713,1054.987z"/>
			<path fill="#4A75CB" d="M1041.594,1028.881c0,0,1.928,15.426,7.119,26.105c0,0-15.648-10.902-16.983-14.462
				c-1.335-3.561,3.782-10.457,3.782-10.457s-9.345-0.223-9.567-3.337c-0.222-3.115,2.893-15.353,2.893-15.353
				s7.641-5.793,9.866-5.57L1041.594,1028.881z"/>
			<path fill="#233862" d="M1026.301,924.528c0,0,10.515-0.809,22.916-6.2c10.066-4.377,22.766,0.442,26.888,2.614
				c-0.11-0.664-0.375-1.571-1.005-2.48c0,0,1.851,1.313,2.124,3.147c0.191,0.14,0.276,0.237,0.227,0.27
				c0,0,2.098-0.384,3.446,0.223c0,0-0.943-0.135-1.28,0.473c-0.036,0.063-0.089,0.117-0.151,0.166
				c15.703,7.587,17.152,32.402,12.099,38.145c-6.079,6.908-13.368,22.465-13.368,22.465s-2.659-3.676-1.553-9.754
				c1.105-6.08-4.145-6.08-10.777-8.843c-6.632-2.764-1.105-10.5-6.908-15.198c-5.803-4.697-27.081-1.934-26.804-5.526
				C1024.255,941.151,1026.301,925.336,1026.301,924.528z"/>
			<circle fill="#ED6058" cx="1063.238" cy="1112.982" r="3.954"/>
			<g>
				<g>
					<circle fill="#D86713" cx="890.679" cy="1507.334" r="10.323"/>
					<circle fill="#F1A34F" cx="891.621" cy="1507.334" r="10.323"/>
				</g>
				<g>
					<circle fill="#D86713" cx="973.542" cy="1507.334" r="10.323"/>
					<circle fill="#F1A34F" cx="974.484" cy="1507.334" r="10.323"/>
				</g>
				<path fill="#D86713" d="M878.822,1501.944l14.679,5.271c1.484,0.534,3.053,0.798,4.63,0.782l83.293-0.853l9.093-15.075
					L878.822,1501.944z"/>
				<path fill="#D86713" d="M934.243,1245.06c0.216-1.963,3.033-21.98,26.979-22.635l17.403-1.835
					c1.136-0.224,8.486-1.455,14.129,2.846c3.807,2.902,5.9,7.552,6.221,13.818c0.415,8.088-9.754,60.415-14.402,83.804
					l31.148,6.227c0,0,13.108,5.332,10.508,28.3c-2.288,20.21-12.319,133.613-12.319,133.613s-2.093,23.598-52.495,16.754
					l9.356-187.653l9.442,1.888c6.075-30.513,14.667-75.851,14.317-82.704c-0.25-4.885-1.749-8.414-4.452-10.487
					c-4.337-3.328-10.577-2.042-10.633-2.029l-17.845,1.896l-0.177,0.012c-21.047,0.53-22.698,17.938-22.757,18.672l-0.009,0.117
					l-14.854,81.473l-4.378-0.799L934.243,1245.06z"/>
				<path fill="#F1A34F" d="M995.691,1349.494l-12.089,126.999c-0.491,5.138-2.313,9.856-5.114,13.818
					c-5.182,7.342-13.711,12.1-23.277,12.158l-41.688,0.259l-1.031,0.01l-26.109,0.161c-2.627,0.017-5.163-0.318-7.564-0.954
					c-0.564-0.148-1.118-0.313-1.666-0.493c-9.038-2.998-15.992-10.353-18.568-19.401c-1.096-3.851-1.402-8.006-0.739-12.263
					l18.932-121.515c2.022-12.957,12.571-22.899,25.626-24.148l7.364-0.704l1.756-0.165l0.003-0.002l1.476-0.14l24.614-2.354
					l3.021-0.287l23.753-2.269c3.728-0.354,7.333,0.015,10.69,0.981c0.22,0.064,0.44,0.129,0.659,0.202l1.373,0.469
					C988.831,1324.214,996.971,1336.041,995.691,1349.494z"/>
				<path opacity="0.4" fill="#D86713" d="M978.488,1490.311c-5.182,7.342-13.711,12.1-23.277,12.158l-41.688,0.259l-1.031,0.01
					l-26.109,0.161c-2.627,0.017-5.163-0.318-7.564-0.954c-0.564-0.148-1.118-0.313-1.666-0.493
					c-9.038-2.998-19.458-13.94-19.605-25.548c0,0,88.187-1.153,106.62,1.692C973.675,1479.065,976.521,1485.713,978.488,1490.311z"
					/>
				<g>
					<path fill="#D86713" d="M869.141,1481.038c0.718-5.12,17.647-125.336,20.275-136.05c2.305-9.388,15.936-18.745,20.354-21.567
						l1.756-0.165l0.003-0.002l1.476-0.14c-0.183,0.112-19.52,11.895-22.061,22.246C888.332,1356,870.874,1480,870.7,1481.251
						c-0.013,0.1-0.494,12.084,9.443,21.011l-1.324-0.317c-0.564-0.148-1.118-0.313-1.666-0.493
						C867.82,1492.185,869.076,1481.505,869.141,1481.038z"/>
					<path fill="#D86713" d="M923.42,1345.086c1.954-12.837,9.856-20.818,14.198-24.327l3.021-0.287
						c-2.785,1.88-13.399,9.951-15.666,24.849c-2.656,17.472-13.035,144.38-13.139,145.657l-0.007,0.093l-0.028,0.085
						c-0.02,0.063-1.501,6.914,2.77,11.565l-1.047,0.007l-1.031,0.01c-4.089-4.988-2.471-11.112-2.219-11.973
						C910.596,1486.841,920.785,1362.418,923.42,1345.086z"/>
					<path fill="#D86713" d="M959.482,1344.375c2.48-16.298,13.299-23.771,15.601-25.189c0.22,0.064,0.44,0.129,0.659,0.202
						l1.372,0.471c-0.082,0.048-4.098,2.317-7.559,6.244c-3.458,3.932-7.222,9.982-8.518,18.509
						c-2.656,17.464-10.885,143.948-10.969,145.221l-0.004,0.1l-0.03,0.091c-0.02,0.064-0.382,7.803,3.889,12.456l-2.627,0.016
						c-3.264-4.251-3.063-11.941-2.79-12.854C948.771,1485.597,956.846,1361.705,959.482,1344.375z"/>
				</g>
			</g>
		</g>
		<g>
			<g id="man_5_">
				<g>
					<path fill="#233862" d="M190.413,1485.988c2.007,6.766,11.285,11.285,12.534,19.56c0.978,6.419,4.208,10.568,7.717,12.111
						h24.89c0.59-1.576,1.342-5.507-5.001-6.898c-8.029-1.763-11.048-11.488-10.551-20.513c0.21-3.787,0.109-8.097-0.076-11.833
						c-0.252-5.171-0.674-9.228-0.674-9.228l-17.055-4.015l-1.789,2.303l-1.72,2.209
						C198.687,1469.684,188.405,1479.215,190.413,1485.988z"/>
					<path fill="#233862" d="M326.349,1517.659H384.9c-0.683-2.116-2.75-5.448-8.923-6.443c-8.992-1.45-24.569-6.688-28.044-18.176
						c-0.11-0.371-0.211-0.743-0.295-1.13c-2.758-12.289-22.815,3.761-22.815,3.761s-0.059,0.489-0.143,1.316
						C324.232,1501.288,323.126,1514.8,326.349,1517.659z"/>
					<path fill="#2B478B" d="M373.592,1189.328c0,0-3.047,38.014-6.628,83.708c-4.867,62.072-10.72,138.319-11.299,152.763
						c-1,25.082-5.018,65.203-5.018,65.203s-9.525,9.531-28.588,5.514c0,0-16.987-57.272-21.839-117.871
						c-0.075-0.992-0.151-1.993-0.226-2.993c-4.514-61.689-11.533-191.59-11.533-191.59L373.592,1189.328z"/>
					<path fill="#233862" d="M373.592,1189.328c0,0-3.047,38.014-6.628,83.708l-66.744,105.608
						c-0.075-0.992-0.151-1.993-0.226-2.993c-4.514-61.689-11.533-191.59-11.533-191.59L373.592,1189.328z"/>
					<path fill="#2B478B" d="M359.678,1193.842c0,0-54.918,137.671-91.028,202.369s-47.396,82.753-47.396,82.753
						s-20.688-8.275-22.569-13.918c0,0,13.809-124.902,37.992-155.35c13.665-17.205,29.716-68.836,30.468-86.892
						s4.89-53.789,4.89-53.789L359.678,1193.842z"/>
				</g>
				<path fill="#AB7041" d="M415.216,1155.834l3.138,6.257c0,0,15.963,2.231,11.569,18.871c0,0-2.368,6.847-6.769,4.68
					c-4.402-2.166-2.233-1.982-8.542-4.898c-6.309-2.914-9.959-8.516-8.549-13.654l-1.01-5.447L415.216,1155.834z"/>
				<path fill="#9C5F33" d="M331.511,981.333c2.441-14.417,2.517-22.963,2.517-22.963l-27.864-22.456
					c1.035,30.878-18.751,45.726-18.751,45.726s37.132,18.277,58.594,11.508C346.007,993.148,340.723,986.394,331.511,981.333z"/>
				<path fill="#AB7041" d="M340.591,957.861c0,0-35.447,5.89-38.774-16.242c-3.328-22.131-10.145-36.277,12.347-40.973
					c22.492-4.695,28.169,3.087,31.076,10.203C348.148,917.966,349.727,955.759,340.591,957.861z"/>
				<path fill="#233862" d="M302.05,943.145c0,0,0.715-29.645,33.014-34.403c22.123-3.26,8.726-21.745,6.196-24.673
					c0,0-16.912,3.228-34.221,7.026C270.71,899.069,298.21,938.737,302.05,943.145z"/>
				<path fill="#74ACBE" d="M411.496,1164.532c4.738-4.861,8.257-11.191,8.257-11.191s-40.275-50.04-43.549-55.229
					c-3.273-5.189-27.734-88.422-27.734-88.422l-61.855-12.53c0,0,51.63,106.52,60.184,119.504
					c14.135,21.458,56.419,53.396,56.419,53.396S407.774,1168.351,411.496,1164.532z"/>
				<path fill="#9ED9F0" d="M375.96,1192.494c-0.646,0.537-1.396,0.86-2.256,0.86c-8.059-0.11-31.559,4.367-51.444,2.324
					c-16.764-1.609-31.601-6.574-47.535-13.718c-2.115-0.948-6.986-3.547-6.876-5.913c0.071-2.589,0.329-6.345,0.651-11.075
					c1.127-16.445,3.094-44.733,1.177-77.369c-0.345-6.077-0.525-12.104-0.547-18.04c-0.164-44.229,8.523-83.747,26.146-96.914
					c1.505-1.079,10.83,4.052,19.321,8.24c7.846,3.87,15.691,4.298,23.104,2.797l7.413,6.554
					c9.027,8.382,18.915,19.775,23.212,37.075c3.657,14.722,5.804,41.269,6.986,68.779c0.537,12.466,0.969,25.042,1.079,36.972
					v0.427c0.104,1.183,0.104,2.475,0.104,3.657C376.929,1167.776,376.496,1192.061,375.96,1192.494z"/>
				<path fill="#74ACBE" d="M268.501,1164.972c1.127-16.445,3.094-44.733,1.177-77.369c-0.345-6.077-0.525-12.104-0.547-18.04
					c7.342-17.809,13.342-30.724,13.342-30.724h18.505C300.978,1038.839,314.544,1131.505,268.501,1164.972z"/>
				<g>
					<path fill="#D86713" d="M125,1250.029l14.367-46.228c4.315-13.882,19.204-21.71,33.086-17.396l106.669,33.153
						c13.883,4.314,21.711,19.203,17.396,33.086l-14.367,46.227c-4.314,13.884-19.203,21.711-33.086,17.396l-106.669-33.152
						C128.514,1278.8,120.686,1263.911,125,1250.029z"/>
					<path fill="#F1A34F" d="M110.784,1246.167l14.533-46.769c4.327-13.934,19.272-21.786,33.206-17.459l36.664,11.395l3.095-9.969
						c1.434-4.613,6.352-7.195,10.965-5.77l2.092,0.649l19.078,5.929l10.686,3.324c2.228,0.7,4.058,2.218,5.146,4.293
						c1.088,2.074,1.315,4.444,0.615,6.672l-3.095,9.969l21.238,6.604c0.818,0.253,1.61,0.54,2.378,0.869
						c0.008,0,0.017,0.009,0.025,0.009s0.008,0.008,0.017,0.008c0.033,0.018,0.076,0.034,0.11,0.051
						c12.331,5.246,18.994,19.205,14.929,32.271l-14.533,46.768c-3.745,12.053-15.444,19.559-27.547,18.556
						c-0.008,0-0.008,0-0.016,0c-1.881-0.152-3.771-0.515-5.643-1.096l-0.05-0.018l-106.433-33.079
						C114.309,1275.045,106.449,1260.1,110.784,1246.167z M238.53,1206.803l3.095-9.97c0.541-1.721-0.43-3.559-2.15-4.09
						l-10.382-3.23l-17.746-5.517l-3.728-1.155c-0.321-0.102-0.649-0.151-0.97-0.151c-1.392,0-2.69,0.901-3.121,2.302l-3.104,9.97
						L238.53,1206.803z"/>
				</g>
				<path fill="#AB7041" d="M232.5,1170.734l-3.513,6.055c0,0,6.883,14.573-9.444,20.018c0,0-7.024,1.773-7.625-3.097
					c-0.6-4.869,0.435-2.954-0.584-9.829c-1.02-6.875,1.666-12.998,6.736-14.635l4.002-3.83L232.5,1170.734z"/>
				<path fill="#9ED9F0" d="M223.186,1172.389c6.664,1.299,13.887,0.772,13.887,0.772s19.783-61.112,22.329-66.695
					c2.547-5.582,58.761-71.656,58.761-71.656l-23.418-58.605c0,0-60.802,101.563-66.976,115.833
					c-10.202,23.583-13.744,76.455-13.744,76.455S217.953,1171.369,223.186,1172.389z"/>
			</g>
		</g>
		<g>
			<path fill="#D86713" d="M724.772,1511.13c0.262,2.902,0.844,5.415,1.965,6.528h55.388c-0.32-1.669-1.821-5.912-8.789-6.891
				c-8.738-1.231-24.147-6.089-26.972-17.568c-2.834-11.479-21.348,3.973-21.348,3.973S724.208,1505.007,724.772,1511.13z"/>
			<path fill="#D86713" d="M675.871,1517.659h57.463c-0.987-1.847-3.433-5.22-8.562-6.528c-0.573-0.151-1.18-0.27-1.821-0.362
				c-8.748-1.231-24.148-6.089-26.982-17.568c-2.834-11.479-21.348,3.973-21.348,3.973S672.953,1513.222,675.871,1517.659z"/>
			<path fill="#2B478B" d="M700.828,1207.354c0,0,0.044,2.073,0.125,5.803c0.519,24.046,2.574,117.016,4.522,168.848
				c0.082,1.886,0.15,3.711,0.219,5.485c0.037,0.936,0.075,1.88,0.112,2.811c1.168,25.058,4.567,49.597,8.002,69.218
				c4.379,25.026,8.827,42.068,8.827,42.068c16.695,3.382,27.515-2.967,27.515-2.967s4.501-38.839,6.214-62.347
				c0.562-7.628,3.31-33.654,6.759-65.313c2.674-24.483,5.767-52.339,8.603-77.671c0.15-1.35,0.294-2.698,0.45-4.029
				c4.58-40.955,8.371-74.315,8.371-74.315l-29.517-2.812L700.828,1207.354z"/>
			<path fill="#233862" d="M713.81,1459.518l49.314-88.559c2.674-24.483,5.767-52.339,8.603-77.671
				c0.15-1.35,0.294-2.698,0.45-4.029c4.58-40.955,8.371-74.315,8.371-74.315l-29.517-2.812l-50.077,1.024L713.81,1459.518z"/>
			<path fill="#2B478B" d="M775.093,1215.165c0,0-27.592,136.395-50.075,202.224c-22.483,65.83-22.764,84.117-22.764,84.117
				s-20.63,4.473-29.719-0.722c0,0-5.194-124.791,8.411-157.936c8.998-21.921,15.881-68.576,13.542-85.38
				c-2.339-16.804-4.523-50.507-4.523-50.507L775.093,1215.165z"/>
			<path fill="#D9935C" d="M741.592,1032.057l-30.682-8.653c0,0,5.208-12.747,7.017-26.038c1.001-7.378,0.96-14.917-1.605-20.541
				c-0.153-0.352-0.326-0.696-0.503-1.031c-1.169-2.186-0.458-3.187,1.103-3.431c2.784-0.446,8.267,1.51,10.583,3.44
				c3.521,2.937,20.48,11.548,21.364,12.001c0.026,0.01,0.037,0.015,0.037,0.015s0.025,0.127,0.061,0.365l0.005,0.021
				c0.097,0.595,0.284,1.85,0.467,3.598C750.295,999.987,751.027,1019.014,741.592,1032.057z"/>
			<path fill="#F1A34F" d="M697.305,1222.458c6.521,4.617,16.798,6.285,28.118,6.11c13.219-0.213,27.849-2.942,39.544-6.441
				c6.291-1.88,11.726-3.979,15.649-6.021c17.474-9.114,14.994-21.241,14.575-66.638c-0.425-46.336-28.94-106.229-34.075-116.255
				c-9.14-17.849-50.143-11.262-50.143-11.262c-8.996,4.311-12.195,18.686-13.069,37.464c-0.975,20.858,0.918,47.159,0.918,71.142
				c0,19.829-3.743,37.358-6.466,51.896C688.827,1201.332,687.009,1215.163,697.305,1222.458z"/>
			<path opacity="0.4" fill="#D86713" d="M692.357,1182.453c7.89,16.63,23.426,35.34,33.066,46.116
				c13.219-0.213,27.849-2.942,39.544-6.441c4.922-11.781,7.078-31.447,2.53-63.914c-3.467-24.751-28.736-124.317-28.736-124.317
				c-20.403-2.661-33.091,8.453-40.856,25.52c-0.975,20.858,0.918,47.159,0.918,71.142
				C698.823,1150.386,695.081,1167.916,692.357,1182.453z"/>
			<path fill="#D6716B" d="M700.571,1261.58h18.524v-5.758c0-9.558,7.774-17.332,17.332-17.332h15.331
				c9.557,0,17.332,7.774,17.332,17.332v5.758h18.525c5.56,0,10.108,4.549,10.108,10.108v47.172c0,5.56-4.548,10.108-10.108,10.108
				h-87.043c-5.56,0-10.108-4.549-10.108-10.108v-47.172C690.463,1266.128,695.011,1261.58,700.571,1261.58z M762.218,1255.822
				c0-5.769-4.692-10.461-10.46-10.461h-15.331c-5.768,0-10.46,4.692-10.46,10.461v5.758h36.252V1255.822z"/>
			<path fill="#DA935B" d="M749.398,1226.888c0,0,10.671,20.58,5.335,28.584c-5.335,8.004-24.391-2.287-25.916-6.86
				c-1.524-4.573,0-26.678,0-26.678L749.398,1226.888z"/>
			<path fill="#F1A34F" d="M703.753,1065.914c0,0,3.971,56.633,3.919,80.063c-0.05,23.429,18.594,85.746,18.594,85.746
				s12.338,0.988,17.18,0.363c5.578-0.72,8.902-3.279,8.902-3.279s-4.095-73.627,3.718-101.847
				c7.812-28.219,8.223-84.898,8.223-84.898s-4.34-12.234-30.318-8.373C703.152,1038.269,703.753,1065.914,703.753,1065.914z"/>
			<path fill="#F1A34F" d="M716.585,995.896c0,0-6.992,22.104-5.612,26.056c0,0,37.927,5.105,53.316,20.109
				c0,0-5.001-21.544-11.156-26.93S716.585,995.896,716.585,995.896z"/>
			<path fill="#CB8757" d="M749.904,991.802c0,0-0.162,0-0.468,0c-3.44-0.026-24.875,0.046-30.896,5.137
				c-0.218,0.183-0.422,0.324-0.615,0.427c1.001-7.378,0.96-14.917-1.605-20.541c0.218-1.723,0.426-3.262,0.599-4.462
				c2.784-0.446,8.267,1.51,10.583,3.44c3.521,2.937,20.48,11.548,21.364,12.001l0.097,0.38l0.005,0.021L749.904,991.802z"/>
			<path fill="#D9935C" d="M763.245,990.441c0,0-35.456,6.787-39.343-15.358c-3.887-22.146-11.081-36.184,11.393-41.454
				c22.474-5.27,28.367,2.407,31.462,9.483S772.368,988.104,763.245,990.441z"/>
			<path fill="#233862" d="M717.517,984.705c0,0,1.844-1.405-5.334-12.284c-7.179-10.88-10.583-7.896-10.672-19.488
				c-0.088-11.594-4.401-18.556,9.052-26.102c13.455-7.547,11.312-14.54,19.384-16.213c8.072-1.673,19.813,4.979,26.739,3.579
				c6.927-1.401,28.628,26.843,14.728,33.527c0,0-6.457,0.321-10.992-2.475c-4.534-2.796-21.175-5.624-23.121-0.564
				C735.356,949.744,724.816,980.796,717.517,984.705z"/>
		</g>
		<g>
			<path fill="#233862" d="M1257.213,1222.465c0,0-25.189-11.466-44.248-1.435c-19.058,10.03-7.407,92.819,19.846,100.845l0,0
				C1232.811,1321.875,1291.316,1392.987,1257.213,1222.465z"/>
			<path fill="#A05F32" d="M1301.816,1232.056c1.241-9.686-1.173-27.243-1.173-27.243s8.557-0.44,13.348,10.837
				c9.931,23.373,5.617,73.826,5.016,81.048c0,0,3.41,14.344-1.657,39.151c0.747,1.764,1.758,4.045,2.359,4.961
				c0.09,0.101,0.173,0.209,0.247,0.32l0,0c0.615,0.931,0.673,2.176,0.042,3.176l-3.281,5.199c-0.311,0.491-0.746,0.856-1.239,1.085
				l0,0c-0.164,0.076-0.334,0.136-0.509,0.18l-4.063,0.961l-0.4-13.846c0.005-0.008,0.031,0.003,0.048,0.005
				C1309.159,1324.326,1300.675,1240.95,1301.816,1232.056z M1312.312,1338.894l0.086-0.112l-0.169,0.101
				C1312.267,1338.895,1312.301,1338.906,1312.312,1338.894z"/>
			<path fill="#AA413E" d="M1229.279,1505.974l3.237,11.685h27.351C1259.866,1517.659,1268.009,1502.72,1229.279,1505.974z"/>
			<path fill="#AA413E" d="M1287.929,1505.974l3.237,11.685h27.352C1318.517,1517.659,1326.66,1502.72,1287.929,1505.974z"/>
			<path fill="#2B478B" d="M1238.571,1134.858c3.411-5.283,8.201-5.512,12.806-9.985c4.335-4.213,12.415-6.982,18.846-6.982
				c20.58,0,38.401,12.6,34.339,33.965c-1.291,6.789-0.2,12.138-5.702,20.072c-6.869,9.905-15.22,17.854-28.637,17.854
				c-7.118,0-13.356-1.643-18.846-6.832c-2.99-2.825-7.276-3.173-9.908-6.25c-5.316-6.214-4.92-14.4-6.872-22.864
				C1232.811,1146.087,1235.015,1140.366,1238.571,1134.858z"/>
			<path fill="#A05F32" d="M1284.5,1179.139c0,0-4.514,17.452,4.614,24.875l-25.651,13.11l-3.379-16.969
				c0,0,4.845-13.256,3.516-31.718L1284.5,1179.139z"/>
			<path fill="#AF7041" d="M1285.16,1187.927c0,0-26.255,3.199-26.815-15.298c-0.561-18.496,10.383-30.479,17.687-30.341
				c14.566,0.272,16.968,6.158,18.657,12.287C1296.377,1160.704,1297.248,1186.624,1285.16,1187.927z"/>
			<path fill="#233862" d="M1310.21,1327.725l-51.886,4.288c0,0-6.094,91.002,27.999,175.362c0,0,4.3,1.623,15.546,1.623
				c7.871,0,13.525-2.176,13.525-2.176L1310.21,1327.725z"/>
			<path fill="#2B478B" d="M1229.693,1332.953c0,0-15.964,62.018-3.019,175.2c0,0,6.736,2.188,16.998,2.111
				c11.111-0.085,18.219-2.104,18.219-2.104l16.892-146.942c0.644-4.353,9.146-27.203,9.146-27.203L1229.693,1332.953z"/>
			<path fill="#FFFFFF" d="M1228.515,1240.98l-3.395-27.866c0.515-0.721,0.927-1.337,1.441-1.955
				c5.963-7.301,28.895-10.488,33.522-11.003c0.206,0.205,10.797,8.947,18.407,7.918c6.479-0.822,7.592-4.26,7.388-7.961
				c13.573,2.262,21.235,6.576,21.235,6.576c13.829,5.184,16.606,51.126,16.606,51.126c-1.836-0.547-11.014,1.06-15.271,1.854
				l1.714,68.102c-33.009,14.396-80.518,5.142-80.518,5.142l0.103-0.411l3.188-54.501l-2.982-24.886L1228.515,1240.98z"/>
			<path fill="#FFFFFF" d="M1278.138,1177.266c0,0,0.572,2.307,6.322,1.882c0,0,4.828-0.355,4.65-2.896
				C1289.11,1176.251,1284.404,1174.499,1278.138,1177.266z"/>
			<path fill="#9ED9F0" d="M1249.674,1330.703c-2.246,2.811-13.338,4.284-19.981,2.25l3.269-54.911l-4.454-37.02l4.303-1.999
				c0,0,18.892,15.155,16.683,27.234C1247.285,1278.342,1252.563,1327.091,1249.674,1330.703z"/>
			<path fill="#FFFFFF" d="M1209.08,1243.757c0,0,15.922,5.049,21.588,9.791c1.107,0.927,0.732,0.537,1.372,1.015l20.435-39.188
				l3.805-7.507l3.497-7.096l0.308-0.617c0,0-0.308,0-0.822,0.104c-1.954,0.205-6.788,0.822-12.34,2.056
				c-3.497,0.823-7.302,1.749-10.694,3.086h-0.103c-4.114,1.542-7.61,3.496-9.563,5.758c-0.515,0.618-0.927,1.234-1.441,1.955
				C1218.438,1222.676,1209.08,1243.757,1209.08,1243.757z"/>
			<path fill="#2B478B" d="M1230.571,1317.488c0,0,71.058-75.993,25.708-109.619c-2.674-2.057-5.759-3.908-9.357-5.554
				c-3.497,0.823-7.302,1.749-10.694,3.086c3.701,1.027,10.694,3.702,16.247,9.975c11.002,12.237,16.144,38.253-21.286,92.446
				L1230.571,1317.488z"/>
			<path fill="#2B478B" d="M1282.531,1142.459c0,0-22.438-0.014-17.282,15.39c3.25,9.71-7.556,11.22-7.556,11.22
				s-4.685-11.493-5.2-15.562c-0.394-3.113,0.729-10.265,3.257-12.124C1261.149,1137.415,1282.531,1142.459,1282.531,1142.459z"/>
			<path fill="#A05F32" d="M1209.464,1243.902c6.934,2.141,18.016,6.514,21.204,9.646c-3.526,8.107-5.851,13.76-5.851,13.76
				c2.652-1.179,16.36-2.291,23.464-2.8c0,0,0,0,0.001,0c0.805-0.059,7.305-2.19,7.305-2.19s0.053-11.096,12.745-11.974
				c0,0,5.287,0.032,4.202,3.641c-1.084,3.609-1.198,2.042-2.613,7.169s-5.102,9.026-9.028,9.26
				c-18.844,15.844-44.79,15.973-52.61,15.608c-1.395-0.065-2.59-1.039-2.903-2.398
				C1202.413,1270.749,1204.176,1257.394,1209.464,1243.902z"/>
		</g>
	</g>
	<path fill="#283250" d="M2575.969,1519.806H2.067c-1.137,0-2.067-0.931-2.067-2.067v-0.16c0-1.137,0.931-2.067,2.067-2.067
		h2573.902c1.137,0,2.066,0.931,2.066,2.067v0.16C2578.036,1518.875,2577.106,1519.806,2575.969,1519.806z"/>
</g>
<g>
</g>
<g>
</g>
<g>
</g>
<g>
</g>
<g>
</g>
<g>
</g>
</svg>
