<?xml version="1.0" encoding="utf-8"?>
<!-- Generator: Adobe Illustrator 16.0.0, SVG Export Plug-In . SVG Version: 6.00 Build 0)  -->
<!DOCTYPE svg PUBLIC "-//W3C//DTD SVG 1.1//EN" "http://www.w3.org/Graphics/SVG/1.1/DTD/svg11.dtd">
<svg version="1.1" id="Layer_1" xmlns="http://www.w3.org/2000/svg" xmlns:xlink="http://www.w3.org/1999/xlink" x="0px" y="0px"
	 width="512px" height="512px" viewBox="0 0 512 512" enable-background="new 0 0 512 512" xml:space="preserve">
<g id="XMLID_1220_">
	<path id="XMLID_1219_" fill="#3E9FFF" d="M394.563,322.802l77.278,133.851l-62.087-16.843L393.298,502l-71.427-123.716
		L394.563,322.802z"/>
	<path id="XMLID_1218_" fill="#3E9FFF" d="M117.438,322.802L40.159,456.652l62.087-16.843L118.702,502l71.427-123.716
		L117.438,322.802z"/>
	<circle id="XMLID_1063_" fill="#FFFFFF" cx="256" cy="203.266" r="129.996"/>
	<g id="XMLID_1061_">
		<path id="XMLID_1062_" fill="#3F3F3F" d="M256,234.535l-47.577,34.352l17.969-55.863l-47.373-34.806h58.682L256,122.461
			l18.299,55.756h58.682l-47.373,34.806l17.969,55.863L256,234.535z"/>
	</g>
	<g id="XMLID_339_">
		<path id="XMLID_349_" fill="#3E9FFF" d="M480.501,451.653l-75.199-130.249c2.7-3.147,6.371-5.475,10.655-6.485
			c11.846-2.79,21.668-10.681,26.948-21.646s5.323-23.563,0.121-34.563c-3.983-8.42-1.707-18.393,5.534-24.25
			c9.462-7.655,14.889-19.024,14.889-31.194c0-12.169-5.427-23.54-14.889-31.194c-7.241-5.858-9.518-15.831-5.534-24.25
			c5.204-11.001,5.159-23.6-0.121-34.565c-5.28-10.964-15.103-18.854-26.949-21.645c-9.065-2.136-15.443-10.133-15.509-19.448
			c-0.084-12.169-5.591-23.501-15.105-31.089s-21.789-10.435-33.671-7.809c-9.097,2.008-18.312-2.429-22.411-10.793
			c-5.356-10.928-15.233-18.749-27.1-21.456c-11.866-2.709-24.158,0.053-33.726,7.574c-7.321,5.757-17.55,5.757-24.873,0
			c-9.568-7.521-21.859-10.281-33.725-7.574c-11.866,2.708-21.742,10.528-27.099,21.456c-4.1,8.364-13.318,12.804-22.41,10.793
			c-11.884-2.624-24.157,0.221-33.671,7.809c-9.515,7.588-15.021,18.919-15.105,31.089c-0.065,9.314-6.443,17.312-15.51,19.448
			c-11.846,2.791-21.668,10.681-26.948,21.645c-5.281,10.965-5.324,23.563-0.121,34.564c3.983,8.42,1.707,18.393-5.535,24.25
			c-9.461,7.655-14.889,19.024-14.889,31.194s5.427,23.54,14.889,31.194c7.242,5.858,9.518,15.831,5.535,24.25
			c-5.204,11.002-5.16,23.6,0.121,34.564c5.28,10.965,15.103,18.855,26.949,21.646c4.284,1.009,7.955,3.338,10.656,6.485
			L31.499,451.653c-2.025,3.508-1.734,7.891,0.736,11.1c2.471,3.209,6.633,4.609,10.542,3.551l52.375-14.21l13.883,52.464
			c1.036,3.915,4.332,6.818,8.347,7.354c0.443,0.059,0.885,0.088,1.324,0.088c3.537,0,6.855-1.88,8.657-5l64.166-111.138
			c5.082,4.704,11.349,8.064,18.311,9.653c11.864,2.706,24.157-0.054,33.726-7.574c7.322-5.757,17.551-5.757,24.873,0
			c7.16,5.628,15.844,8.591,24.734,8.591c2.99,0,6.005-0.335,8.99-1.017c6.962-1.589,13.23-4.949,18.311-9.653l64.166,111.138
			c1.803,3.121,5.12,5,8.657,5c0.438,0,0.881-0.029,1.324-0.088c4.015-0.535,7.311-3.439,8.347-7.354l13.882-52.464l52.376,14.21
			c3.908,1.062,8.071-0.343,10.541-3.551C482.236,459.544,482.527,455.161,480.501,451.653L480.501,451.653z M122.166,476
			l-10.253-38.749c-0.682-2.573-2.361-4.771-4.667-6.102c-2.307-1.332-5.048-1.688-7.618-0.991l-38.685,10.495l53.252-92.235
			c2.52,6.604,6.766,12.494,12.463,17.039c9.515,7.588,21.789,10.434,33.671,7.809c6.71-1.482,13.481,0.554,18.22,5.078L122.166,476
			z M297.712,386.018c-5.954,1.356-12.116-0.027-16.915-3.799c-7.301-5.739-16.047-8.608-24.797-8.608
			c-8.748,0-17.499,2.87-24.797,8.608c-4.798,3.771-10.96,5.157-16.915,3.799c-5.951-1.358-10.904-5.281-13.591-10.762
			c-8.174-16.676-26.55-25.525-44.683-21.52c-5.961,1.317-12.116-0.11-16.888-3.916c-4.771-3.807-7.534-9.488-7.577-15.593
			c-0.129-18.57-12.845-34.515-30.921-38.774c-5.942-1.399-10.868-5.355-13.517-10.855c-2.648-5.5-2.67-11.818-0.06-17.337
			c7.94-16.788,3.402-36.67-11.037-48.35c-4.746-3.839-7.467-9.542-7.467-15.646c0-6.104,2.722-11.807,7.468-15.646
			c14.438-11.68,18.977-31.562,11.036-48.351c-2.61-5.518-2.588-11.836,0.061-17.335c2.648-5.5,7.575-9.457,13.516-10.856
			c18.076-4.259,30.792-20.204,30.921-38.774c0.043-6.104,2.804-11.788,7.577-15.592c4.772-3.806,10.926-5.235,16.889-3.917
			c18.13,4.003,36.508-4.843,44.682-21.519c2.687-5.48,7.641-9.404,13.591-10.761c5.953-1.357,12.117,0.026,16.915,3.798
			c14.601,11.479,34.995,11.479,49.594,0c4.799-3.772,10.962-5.155,16.915-3.798c5.95,1.357,10.904,5.281,13.592,10.761
			c8.173,16.676,26.549,25.521,44.683,21.519c5.958-1.319,12.115,0.111,16.887,3.917c4.772,3.806,7.534,9.489,7.577,15.592
			c0.129,18.57,12.845,34.515,30.921,38.774c5.941,1.4,10.868,5.357,13.517,10.856c2.647,5.5,2.67,11.818,0.06,17.336
			c-7.939,16.788-3.401,36.67,11.037,48.35c4.746,3.839,7.467,9.542,7.467,15.646c0,6.104-2.722,11.807-7.468,15.646
			c-14.438,11.68-18.977,31.562-11.036,48.351c2.61,5.518,2.588,11.836-0.061,17.336s-7.575,9.456-13.516,10.855
			c-18.076,4.26-30.792,20.204-30.921,38.774c-0.043,6.104-2.804,11.788-7.577,15.593c-4.771,3.806-10.927,5.232-16.889,3.916
			c-18.132-4.006-36.508,4.844-44.681,21.52C308.616,380.736,303.662,384.658,297.712,386.018z M412.372,430.158
			c-2.571-0.696-5.312-0.34-7.618,0.991c-2.306,1.332-3.985,3.528-4.666,6.102L389.834,476l-56.383-97.656
			c4.74-4.525,11.511-6.563,18.22-5.078c11.885,2.625,24.156-0.221,33.671-7.809c5.697-4.543,9.942-10.436,12.463-17.039
			l53.252,92.235L412.372,430.158z"/>
		<path id="XMLID_357_" fill="#3F3F3F" d="M303.576,278.887c2.063,0,4.126-0.638,5.878-1.91c3.496-2.54,4.965-7.039,3.643-11.152
			l-15.763-49.006l41.567-30.542c3.483-2.559,4.928-7.067,3.582-11.174c-1.347-4.107-5.18-6.884-9.502-6.884h-51.438l-16.04-48.874
			c-1.349-4.106-5.181-6.882-9.501-6.882c-4.321,0-8.154,2.776-9.5,6.882l-16.041,48.874h-51.438c-4.322,0-8.156,2.777-9.502,6.884
			c-1.347,4.107,0.098,8.615,3.582,11.174l41.568,30.542l-15.763,49.006c-1.323,4.114,0.146,8.612,3.642,11.152
			c3.497,2.539,8.229,2.546,11.731,0.017l41.723-30.125l41.723,30.125C299.471,278.256,301.522,278.887,303.576,278.887
			L303.576,278.887z M261.854,226.428c-1.748-1.262-3.801-1.893-5.854-1.893s-4.106,0.631-5.854,1.893l-22.873,16.516l8.639-26.858
			c1.317-4.095-0.132-8.574-3.599-11.121l-22.794-16.749h28.183c4.321,0,8.154-2.776,9.5-6.882L256,154.528l8.798,26.806
			c1.348,4.106,5.18,6.882,9.501,6.882h28.183l-22.794,16.749c-3.467,2.547-4.916,7.024-3.6,11.121l8.639,26.858L261.854,226.428z"
			/>
		<path id="XMLID_358_" fill="#3E9FFF" d="M395.996,203.266c0-77.193-62.803-139.996-139.996-139.996
			s-139.996,62.802-139.996,139.996c0,58.725,37.076,111.629,92.259,131.643c5.19,1.883,10.926-0.799,12.811-5.99
			c1.883-5.191-0.799-10.927-5.991-12.811c-47.3-17.154-79.079-62.502-79.079-112.842c0-66.166,53.83-119.996,119.996-119.996
			s119.996,53.83,119.996,119.996c0,50.342-31.782,95.691-79.085,112.845c-5.191,1.883-7.874,7.618-5.991,12.81
			c1.476,4.065,5.312,6.594,9.401,6.594c1.131,0,2.282-0.194,3.408-0.602C358.917,314.899,395.996,261.994,395.996,203.266z"/>
		<path id="XMLID_676_" fill="#3E9FFF" d="M256,323.26c-2.63,0-5.21,1.07-7.07,2.93c-1.86,1.86-2.93,4.44-2.93,7.07
			s1.07,5.209,2.93,7.07c1.86,1.859,4.44,2.93,7.07,2.93s5.21-1.07,7.07-2.93c1.859-1.861,2.93-4.44,2.93-7.07s-1.07-5.21-2.93-7.07
			C261.21,324.33,258.63,323.26,256,323.26z"/>
	</g>
</g>
</svg>
