<?xml version="1.0" encoding="utf-8"?>
<!-- Generator: Adobe Illustrator 16.0.0, SVG Export Plug-In . SVG Version: 6.00 Build 0)  -->
<!DOCTYPE svg PUBLIC "-//W3C//DTD SVG 1.1//EN" "http://www.w3.org/Graphics/SVG/1.1/DTD/svg11.dtd">
<svg version="1.1" id="Layer_1" xmlns="http://www.w3.org/2000/svg" xmlns:xlink="http://www.w3.org/1999/xlink" x="0px" y="0px"
	 width="512px" height="512px" viewBox="0 0 512 512" enable-background="new 0 0 512 512" xml:space="preserve">
<g id="XMLID_1031_">
	<g id="XMLID_971_">
		<g id="XMLID_977_">
			<path id="XMLID_1030_" fill="#2196F3" d="M457.37,97.937h15.819c5.519,0,9.994-4.475,9.994-9.993s-4.476-9.994-9.994-9.994
				h-37.975c-5.519,0-9.993,4.475-9.993,9.994v37.975c0,5.518,4.475,9.993,9.993,9.993s9.993-4.475,9.993-9.993v-10.996
				c30.322,40.594,46.805,89.849,46.805,141.077c0,130.139-105.875,236.013-236.013,236.013
				C125.862,492.013,19.987,386.139,19.987,256S125.862,19.987,256,19.987c9.624,0,19.312,0.584,28.793,1.737
				c5.472,0.662,10.461-3.235,11.127-8.714c0.666-5.478-3.235-10.461-8.715-11.126C276.926,0.634,266.428,0,256,0
				c-68.381,0-132.668,26.628-181.02,74.981C26.628,123.332,0,187.62,0,256s26.628,132.668,74.98,181.02
				C123.332,485.371,187.619,512,256,512c68.38,0,132.667-26.629,181.019-74.98C485.371,388.668,512,324.38,512,256
				C512,198.297,492.722,142.901,457.37,97.937z"/>
			<path id="XMLID_1029_" fill="#2196F3" d="M108.401,150.914c-4.664-2.952-10.837-1.563-13.79,3.098
				c-22.813,36.033-32.913,79.366-28.438,122.02c4.543,43.285,24.024,84.104,54.858,114.939
				c37.211,37.21,86.09,55.816,134.97,55.816s97.758-18.605,134.969-55.816c74.423-74.422,74.423-195.517,0-269.938
				c-30.786-30.786-71.539-50.261-114.752-54.838c-42.574-4.512-85.861,5.509-121.878,28.211c-4.67,2.943-6.068,9.114-3.126,13.783
				c2.942,4.67,9.113,6.068,13.782,3.126c67.894-42.792,155.003-32.985,211.84,23.851c66.63,66.629,66.63,175.042,0,241.672
				c-66.628,66.63-175.043,66.63-241.671,0c-56.051-56.052-66.005-145.266-23.666-212.132
				C114.449,160.041,113.064,153.867,108.401,150.914z"/>
			<path id="XMLID_1028_" d="M385.915,266.155h12.324c5.519,0,9.993-4.476,9.993-9.993c0-5.519-4.475-9.994-9.993-9.994h-12.324
				c-5.519,0-9.993,4.475-9.993,9.994C375.922,261.68,380.396,266.155,385.915,266.155z"/>
			<path id="XMLID_1004_" d="M103.767,255.838c0,5.519,4.476,9.994,9.993,9.994h12.324c5.519,0,9.993-4.476,9.993-9.994
				c0-5.518-4.475-9.993-9.993-9.993H113.76C108.242,245.845,103.767,250.319,103.767,255.838z"/>
			<path id="XMLID_1001_" d="M266.156,126.084V113.76c0-5.518-4.476-9.993-9.994-9.993c-5.518,0-9.993,4.475-9.993,9.993v12.324
				c0,5.519,4.476,9.994,9.993,9.994C261.68,136.078,266.156,131.603,266.156,126.084z"/>
			<path id="XMLID_1415_" d="M245.845,385.916v12.323c0,5.519,4.475,9.994,9.993,9.994s9.993-4.476,9.993-9.994v-12.323
				c0-5.519-4.475-9.994-9.993-9.994S245.845,380.396,245.845,385.916z"/>
			<path id="XMLID_996_" d="M205.908,191.775c-3.903-3.902-10.229-3.902-14.134,0c-3.902,3.902-3.902,10.23,0,14.133l33.869,33.869
				c-2.595,4.836-4.071,10.36-4.071,16.222c0,18.983,15.444,34.428,34.428,34.428s34.427-15.444,34.427-34.428
				c0-5.862-1.477-11.386-4.071-16.222l68.338-68.338c3.902-3.902,3.902-10.23,0-14.134c-3.903-3.901-10.229-3.901-14.134,0
				l-68.338,68.338c-4.836-2.595-10.359-4.071-16.222-4.071s-11.386,1.477-16.223,4.071L205.908,191.775z M270.441,256
				c0,7.963-6.478,14.44-14.44,14.44s-14.44-6.478-14.44-14.44s6.478-14.44,14.44-14.44S270.441,248.037,270.441,256z"/>
			<path id="XMLID_980_" fill="#2196F3" d="M135.159,135.159c1.868-1.858,2.937-4.437,2.937-7.065c0-2.628-1.068-5.196-2.937-7.065
				c-1.859-1.857-4.429-2.928-7.065-2.928c-2.628,0-5.207,1.069-7.065,2.928c-1.857,1.859-2.928,4.438-2.928,7.065
				c0,2.639,1.069,5.207,2.928,7.065c1.858,1.858,4.438,2.928,7.065,2.928C130.731,138.087,133.3,137.017,135.159,135.159z"/>
			<path id="XMLID_979_" fill="#2196F3" d="M325.224,29.858c2.64,0,5.218-1.061,7.076-2.928c1.858-1.859,2.929-4.428,2.929-7.065
				c0-2.628-1.069-5.207-2.929-7.065c-1.858-1.858-4.437-2.928-7.076-2.928c-2.628,0-5.206,1.069-7.063,2.928
				c-1.859,1.858-2.93,4.437-2.93,7.065c0,2.638,1.069,5.206,2.93,7.065C320.018,28.798,322.596,29.858,325.224,29.858z"/>
		</g>
	</g>
</g>
</svg>
