<?xml version="1.0" encoding="utf-8"?>
<!-- Generator: Adobe Illustrator 16.0.0, SVG Export Plug-In . SVG Version: 6.00 Build 0)  -->
<!DOCTYPE svg PUBLIC "-//W3C//DTD SVG 1.1//EN" "http://www.w3.org/Graphics/SVG/1.1/DTD/svg11.dtd">
<svg version="1.1" id="Слой_1" xmlns="http://www.w3.org/2000/svg" xmlns:xlink="http://www.w3.org/1999/xlink" x="0px" y="0px"
	 width="618.61px" height="500px" viewBox="0 0 618.61 500" enable-background="new 0 0 618.61 500" xml:space="preserve">
<g>
	<g>
		<rect x="336.98" y="222.926" fill="#FFB15B" width="113.223" height="6.337"/>
		<rect x="336.98" y="199.148" fill="#FFB15B" width="113.223" height="6.337"/>
		<g>
			<linearGradient id="SVGID_1_" gradientUnits="userSpaceOnUse" x1="400.2705" y1="299.1787" x2="145.2373" y2="299.1787">
				<stop  offset="0" style="stop-color:#FF9F55"/>
				<stop  offset="1" style="stop-color:#FFD255"/>
			</linearGradient>
			<path fill="url(#SVGID_1_)" d="M173.016,427.401H352.08c6.438,0,11.656-5.219,11.656-11.656V182.611
				c0-6.437-5.219-11.656-11.656-11.656H173.016c-6.438,0-11.657,5.219-11.657,11.656v233.134
				C161.358,422.183,166.578,427.401,173.016,427.401z"/>
		</g>
		<rect x="173.001" y="155.049" fill="#E8E8E8" width="179.093" height="247.286"/>
		<path fill="#FFB15B" d="M352.094,128.934v40.947H334.19c-9.735,11.535-17.902,0-17.902,0h-17.903c-9.759,11.535-17.925,0-17.925,0
			h-17.903c-9.759,11.535-17.903,0-17.903,0h-17.925c-9.737,11.535-17.903,0-17.903,0h-17.902c-9.76,11.535-17.926,0-17.926,0
			v-40.947H352.094z"/>
		<g>
			<path fill="#FF5358" d="M190.915,169.887c0,0,8.164,11.536,17.91,0v-40.946h-17.91V169.887z"/>
			<path fill="#FF5358" d="M226.735,169.887c0,0,8.162,11.536,17.91,0v-40.946h-17.91V169.887z"/>
			<path fill="#FF5358" d="M262.554,169.887c0,0,8.163,11.536,17.911,0v-40.946h-17.911V169.887z"/>
			<path fill="#FF5358" d="M298.375,169.887c0,0,8.163,11.536,17.91,0v-40.946h-17.91V169.887z"/>
			<path fill="#FF5358" d="M352.094,128.934v40.947c-9.736,11.535-17.903,0-17.903,0v-40.947H352.094z"/>
		</g>
		<path fill="#FF5358" d="M474.424,235.881h-90.69c-6.223,0-11.266-5.043-11.266-11.266v-20.419c0-6.222,5.043-11.266,11.266-11.266
			h90.69c6.223,0,11.266,5.044,11.266,11.266v20.419C485.689,230.837,480.646,235.881,474.424,235.881z"/>
		<g>
			<path fill="#FFFFFF" d="M401.084,223.357c-1.463,0-2.791-0.286-3.982-0.858s-2.215-1.332-3.068-2.28
				c-0.854-0.947-1.516-2.031-1.984-3.251c-0.47-1.22-0.705-2.467-0.705-3.744c0-1.332,0.25-2.609,0.746-3.829
				c0.498-1.22,1.184-2.298,2.055-3.237c0.873-0.938,1.91-1.684,3.111-2.238c1.201-0.553,2.506-0.83,3.913-0.83
				c1.445,0,2.763,0.295,3.955,0.887c1.19,0.591,2.21,1.365,3.054,2.322c0.844,0.957,1.501,2.045,1.971,3.265
				c0.469,1.22,0.704,2.459,0.704,3.716c0,1.332-0.244,2.603-0.731,3.814c-0.49,1.21-1.165,2.28-2.027,3.208
				c-0.863,0.93-1.896,1.671-3.097,2.225C403.796,223.081,402.492,223.357,401.084,223.357z M395.285,213.224
				c0,0.863,0.131,1.698,0.395,2.505c0.263,0.807,0.643,1.52,1.14,2.139s1.108,1.117,1.83,1.492
				c0.722,0.375,1.544,0.563,2.463,0.563c0.938,0,1.769-0.192,2.491-0.577c0.723-0.385,1.333-0.896,1.83-1.535
				c0.497-0.637,0.873-1.355,1.126-2.153c0.253-0.797,0.38-1.609,0.38-2.435c0-0.863-0.137-1.699-0.408-2.506
				c-0.271-0.806-0.657-1.52-1.154-2.139s-1.107-1.112-1.829-1.478c-0.723-0.365-1.535-0.549-2.436-0.549
				c-0.938,0-1.772,0.192-2.505,0.578c-0.731,0.385-1.342,0.892-1.83,1.52c-0.488,0.629-0.858,1.342-1.111,2.14
				C395.412,211.587,395.285,212.398,395.285,213.224z"/>
			<path fill="#FFFFFF" d="M413.836,223.217V203.23h8.473c0.92,0,1.769,0.193,2.548,0.578c0.778,0.385,1.449,0.891,2.013,1.521
				c0.563,0.629,1.004,1.341,1.322,2.139c0.319,0.798,0.479,1.6,0.479,2.407c0,0.844-0.15,1.666-0.45,2.463
				c-0.3,0.798-0.722,1.506-1.267,2.125c-0.545,0.62-1.201,1.117-1.971,1.492c-0.77,0.375-1.613,0.563-2.533,0.563h-4.729v6.7
				H413.836z M417.721,213.111h4.504c0.712,0,1.309-0.292,1.787-0.873s0.719-1.37,0.719-2.364c0-0.507-0.076-0.962-0.227-1.365
				s-0.348-0.746-0.59-1.027c-0.244-0.282-0.531-0.493-0.859-0.634c-0.328-0.14-0.662-0.211-0.999-0.211h-4.335V213.111z"/>
			<path fill="#FFFFFF" d="M445.25,219.811v3.406h-13.877V203.23h13.623v3.406h-9.74v4.813h8.418v3.153h-8.418v5.208H445.25z"/>
			<path fill="#FFFFFF" d="M452.175,210.409v12.808h-3.885V203.23h3.012l10.415,13.118v-13.089h3.886v19.958h-3.153L452.175,210.409
				z"/>
		</g>
		<rect x="199.372" y="227.174" opacity="0.72" fill="#FFFFFF" width="126.351" height="126.351"/>
		<rect x="115.072" y="202.317" opacity="0.72" fill="#FFFFFF" width="76.375" height="76.375"/>
		<rect x="115.072" y="290.35" opacity="0.72" fill="#FFFFFF" width="76.375" height="76.374"/>
		<g>
			<g>
				<g>
					<path fill="#252E3B" d="M564.447,366.632c-5.48,0-9.939-5.189-9.939-11.567c0-6.379,4.459-11.568,9.939-11.568
						s9.939,5.189,9.939,11.568C574.387,361.442,569.928,366.632,564.447,366.632z M564.447,344.416
						c-4.973,0-9.02,4.776-9.02,10.648c0,5.87,4.047,10.646,9.02,10.646s9.02-4.776,9.02-10.646
						C573.467,349.192,569.42,344.416,564.447,344.416z"/>
				</g>
			</g>
			<g>
				<rect x="539.516" y="355.064" fill="#6B7ADB" width="49.863" height="72.337"/>
			</g>
			<g>
				<g>
					<path fill="#252E3B" d="M515.121,354.122c-6.609,0-11.984-6.257-11.984-13.948s5.375-13.948,11.984-13.948
						s11.985,6.257,11.985,13.948S521.73,354.122,515.121,354.122z M515.121,327.335c-5.996,0-10.876,5.76-10.876,12.839
						s4.88,12.839,10.876,12.839c5.997,0,10.875-5.76,10.875-12.839S521.118,327.335,515.121,327.335z"/>
				</g>
			</g>
			<g>
				<g>
					<path fill="#252E3B" d="M449.852,374.394c-8.234,0-14.934-7.809-14.934-17.404c0-9.597,6.699-17.404,14.934-17.404
						s14.934,7.808,14.934,17.404C464.785,366.585,458.086,374.394,449.852,374.394z M449.852,340.695
						c-7.623,0-13.824,7.309-13.824,16.294c0,8.984,6.201,16.295,13.824,16.295s13.824-7.311,13.824-16.295
						C463.676,348.004,457.475,340.695,449.852,340.695z"/>
				</g>
			</g>
			<g>
				<rect x="414.645" y="356.989" fill="#FF5358" width="70.412" height="70.412"/>
			</g>
			<g>
				<linearGradient id="SVGID_2_" gradientUnits="userSpaceOnUse" x1="496.8838" y1="383.7871" x2="612.8531" y2="383.7871">
					<stop  offset="0" style="stop-color:#5BB1F7"/>
					<stop  offset="1" style="stop-color:#30CFC2"/>
				</linearGradient>
				<rect x="485.057" y="340.174" fill="url(#SVGID_2_)" width="60.128" height="87.228"/>
			</g>
		</g>
		<g>
			<g>
				<path fill="#6B7ADB" d="M234.478,250.424c4.158-1.941,9.64-2.969,14.677-3.494c0.799-0.081,1.576-0.148,2.341-0.218
					c1.143-0.091,2.25-0.159,3.29-0.205c0.48,3.861,3.769,6.842,7.767,6.842c3.997,0,7.297-2.98,7.778-6.842
					c1.027,0.046,2.135,0.114,3.278,0.205c0.753,0.069,1.542,0.137,2.331,0.218c7.754,0.811,16.572,2.799,20,7.492
					c6.669,9.138,7.995,32.553,7.047,77.475h-1.432v2.296h-9.292v-2.296h-1.84v-11.422h-3.57v4.699h-48.599v-4.699h-3.581v11.422
					h-1.652v2.296h-9.292v-2.296h-1.62c-0.948-44.922,0.389-68.337,7.047-77.475c1.131-1.542,2.855-2.799,4.922-3.803
					L234.478,250.424z"/>
			</g>
			<g>
				<path fill="#4855B0" d="M273.609,246.713c-0.114,6.02-5.025,10.851-11.056,10.851c-6.042,0-10.943-4.831-11.057-10.851
					c1.143-0.092,2.25-0.16,3.29-0.206c0.48,3.86,3.769,6.842,7.767,6.842c3.997,0,7.298-2.981,7.778-6.842
					C271.358,246.553,272.467,246.621,273.609,246.713z"/>
			</g>
		</g>
		<g>
			<linearGradient id="SVGID_3_" gradientUnits="userSpaceOnUse" x1="71.3081" y1="413.2051" x2="139.5874" y2="413.2051">
				<stop  offset="0" style="stop-color:#FF9340"/>
				<stop  offset="1" style="stop-color:#FFCE45"/>
			</linearGradient>
			<rect x="71.308" y="409.06" fill="url(#SVGID_3_)" width="68.279" height="8.29"/>
			<linearGradient id="SVGID_4_" gradientUnits="userSpaceOnUse" x1="73.7983" y1="404.915" x2="142.0776" y2="404.915">
				<stop  offset="0" style="stop-color:#F58631"/>
				<stop  offset="1" style="stop-color:#F2C23F"/>
			</linearGradient>
			<rect x="73.798" y="400.771" fill="url(#SVGID_4_)" width="68.279" height="8.289"/>
			<linearGradient id="SVGID_5_" gradientUnits="userSpaceOnUse" x1="72.4063" y1="396.626" x2="140.686" y2="396.626">
				<stop  offset="0" style="stop-color:#FF9340"/>
				<stop  offset="1" style="stop-color:#FFCE45"/>
			</linearGradient>
			<rect x="72.406" y="392.481" fill="url(#SVGID_5_)" width="68.28" height="8.289"/>
			<linearGradient id="SVGID_6_" gradientUnits="userSpaceOnUse" x1="73.7983" y1="388.3369" x2="142.0776" y2="388.3369">
				<stop  offset="0" style="stop-color:#F58631"/>
				<stop  offset="1" style="stop-color:#F2C23F"/>
			</linearGradient>
			<rect x="73.798" y="384.192" fill="url(#SVGID_6_)" width="68.279" height="8.289"/>
			<linearGradient id="SVGID_7_" gradientUnits="userSpaceOnUse" x1="74.9653" y1="380.0469" x2="143.2451" y2="380.0469">
				<stop  offset="0" style="stop-color:#FF9340"/>
				<stop  offset="1" style="stop-color:#FFCE45"/>
			</linearGradient>
			<rect x="74.965" y="375.902" fill="url(#SVGID_7_)" width="68.28" height="8.29"/>
			<linearGradient id="SVGID_8_" gradientUnits="userSpaceOnUse" x1="72.8252" y1="371.7578" x2="141.106" y2="371.7578">
				<stop  offset="0" style="stop-color:#F58631"/>
				<stop  offset="1" style="stop-color:#F2C23F"/>
			</linearGradient>
			<rect x="72.825" y="367.612" fill="url(#SVGID_8_)" width="68.281" height="8.29"/>
			<linearGradient id="SVGID_9_" gradientUnits="userSpaceOnUse" x1="71.3081" y1="363.4688" x2="139.5874" y2="363.4688">
				<stop  offset="0" style="stop-color:#FF9340"/>
				<stop  offset="1" style="stop-color:#FFCE45"/>
			</linearGradient>
			<rect x="71.308" y="359.324" fill="url(#SVGID_9_)" width="68.279" height="8.288"/>
			<linearGradient id="SVGID_10_" gradientUnits="userSpaceOnUse" x1="74.0957" y1="355.1797" x2="142.375" y2="355.1797">
				<stop  offset="0" style="stop-color:#F58631"/>
				<stop  offset="1" style="stop-color:#F2C23F"/>
			</linearGradient>
			<rect x="74.096" y="351.034" fill="url(#SVGID_10_)" width="68.279" height="8.29"/>
			<linearGradient id="SVGID_11_" gradientUnits="userSpaceOnUse" x1="76.7153" y1="421.1523" x2="144.9951" y2="421.1523">
				<stop  offset="0" style="stop-color:#F58631"/>
				<stop  offset="1" style="stop-color:#F2C23F"/>
			</linearGradient>
			<rect x="76.715" y="417.007" fill="url(#SVGID_11_)" width="68.28" height="8.29"/>
			
				<linearGradient id="SVGID_12_" gradientUnits="userSpaceOnUse" x1="849.6445" y1="-1104.9937" x2="918.2207" y2="-1104.9937" gradientTransform="matrix(0.9754 0.2204 -0.2204 0.9754 -991.2427 1230.2307)">
				<stop  offset="0" style="stop-color:#FF9340"/>
				<stop  offset="1" style="stop-color:#FFCE45"/>
			</linearGradient>
			<polygon fill="url(#SVGID_12_)" points="148.517,352.199 80.257,350.565 80.454,342.279 148.715,343.912 			"/>
		</g>
		<g>
			<path fill="#FFAD55" d="M176.143,230.371l-7.431,5.565v26.76h-30.904v-26.76l-7.431-5.565c0,0,2.103-8.052,7.431-10.183
				c2.198-0.881,5.21-1.473,7.99-1.875c0.455,1.625,3.624,2.884,7.459,2.884c3.842,0,7.01-1.26,7.464-2.884
				c2.78,0.402,5.797,0.994,7.99,1.875C174.041,222.319,176.143,230.371,176.143,230.371z"/>
		</g>
		<g>
			<path fill="#E665A9" d="M160.132,309.352L160.132,309.352c0.835-2.261,1.473-4.523,1.937-6.421l0,0l5.724-0.338l-0.921-5.434
				c-4.096-0.384-8.709-0.473-11.376-0.488c-0.158,2.156-2.236,3.237-2.236,3.237s-2.079-1.081-2.236-3.237
				c-2.667,0.016-7.281,0.104-11.377,0.488l-0.921,5.434l5.726,0.338l0,0c0.462,1.897,1.1,4.16,1.937,6.421h-0.001
				c0,0-11.271,18.918-11.271,40.264h18.144h18.142C171.402,328.27,160.132,309.352,160.132,309.352z"/>
		</g>
		<g>
			<path fill="#202338" d="M137.722,449.22c0,0-1.36,2.537-2.247,3.544c-0.889,1.006-4.29,2.806-4.308,5.795
				c-0.02,3.242,5.733,2.342,7.983,2.224c2.25-0.118,2.42-1.851,3.368-3.687c0.947-1.835,1.901-1.524,2.08-3.005
				c0.177-1.48-0.917-4.871-0.917-4.871H137.722z"/>
			<g>
				<path fill="#81807E" d="M143.602,448.241c0,0,0.264,1.385,0.212,1.417c-0.051,0.033-6.376,1.163-6.341,0.015
					c0.029-0.913,0.583-1.977,0.583-1.977L143.602,448.241z"/>
			</g>
			<g>
				<polygon fill="#51578C" points="163.144,304.164 153.933,295.905 159.221,291.487 167.523,300.182 				"/>
			</g>
			<g>
				<polygon fill="#3E3B42" points="162.89,303.306 154.919,296.158 159.496,292.334 166.682,299.859 				"/>
			</g>
			<g>
				<path fill="#E3A080" d="M168.392,304.323c0,0-1.392-0.322-0.974-1.894c0.418-1.57-0.222-1.936-0.222-1.936l-4.874,4.412
					c0,0,2.347,2.153,3.062,2.242S169.107,305.184,168.392,304.323z"/>
			</g>
			<g>
				<path fill="#E3A080" d="M162.323,304.906c0,0-2.944-1.796-3.221-2.063s-1.593-1.464-2.13-2.171
					c-0.538-0.708,1.765-0.757,2.387-0.023c0.622,0.735,1.29,0.871,1.722,1.035c0.432,0.164,2.791,0.629,3.305,1.354
					C164.901,303.763,162.323,304.906,162.323,304.906z"/>
			</g>
			<g>
				<path fill="#E3A080" d="M166.288,299.536c0,0-0.355,0.435-0.634-0.072c-0.28-0.507-0.252-1.669,0.464-1.386
					C166.835,298.361,166.288,299.536,166.288,299.536z"/>
			</g>
			<g>
				<path fill="#E3A080" d="M165.385,297.992c0,0-0.126,0.859-0.57,0.471c-0.444-0.39-0.883-1.832-0.108-1.792
					C165.482,296.711,165.385,297.992,165.385,297.992z"/>
			</g>
			<g>
				<path fill="#E3A080" d="M164.123,296.732c0,0-0.002,1.037-0.517,0.736c-0.388-0.228-0.937-2.097-0.162-2.057
					C164.219,295.452,164.123,296.732,164.123,296.732z"/>
			</g>
			<g>
				<path fill="#323657" d="M164.109,306.883l4.503-4.041l18.103,15.001c2.74,1.884-3.172,7.38-5.412,6.783
					c-6.14-1.637-16.607-2.017-22.126-5.07c-8.374-4.631-2.975-12.719-0.314-11.916c2.662,0.803,12.456,6.03,12.456,6.03
					L164.109,306.883z"/>
			</g>
			<g>
				<path fill="#202338" d="M171.855,448.74c0,0,2.773,3.096,5.587,3.744s4.784,1.476,4.804,3.252
					c0.021,1.776-8.101,2.947-11.321,1.156c-4.808-2.673-5.295-1.867-5.829-3.203s0.64-4.908,0.605-5.333
					C165.66,447.831,171.855,448.74,171.855,448.74z"/>
			</g>
			<g>
				<path fill="#81807E" d="M171.543,447.26c0,0,0.366,1.449,0.312,1.48c-0.055,0.031-6.343,0.78-6.153-0.384
					c0.154-0.943,0.375-1.97,0.375-1.97L171.543,447.26z"/>
			</g>
			<g>
				<path fill="#292C47" d="M165.826,360.449c0,0,2.287,22.209,3.476,29.813c1.391,8.89,1.862,16.234,2.25,20.836
					c0.488,5.787,0.582,34.255,0.923,35.947c0.341,1.692-7.576,0.467-7.576,0.467s-3.894-37.196-5.348-43.359
					c-1.353-5.738-6.373-30.446-7.607-28.88c-1.234,1.567-2.765,28.834-3.679,33.36s-3.696,39.96-3.696,39.96
					s-6.3,1.255-7.976-0.163c0,0-0.763-30.538-0.18-39.024c0.221-3.233-3.79-38.774,1.354-53.083
					C140.487,348.762,165.826,360.449,165.826,360.449z"/>
			</g>
			<g>
				<path fill="#E8734D" d="M126.628,363.603c0,0,3.857,1.171,5.471,0.875c1.617-0.297,0.799-20.112,0.863-24.235
					c0.048-3.344,1.878-12.174,1.878-12.174s0,0.005,0.002,0.016c0.003,0.002,0.003,0.007,0.003,0.009
					c0,0.005,0.002,0.011,0.002,0.016c0.181,0.661,2.651,9.823,2.737,14.227c0.09,4.568-0.596,22.047-0.596,22.047l6.137,2.891
					l21.221,0.61l3.091,0.046c0,0-0.487-10.361-0.668-13.91c-0.113-2.257-0.552-6.297-0.438-10.231c0,0-0.071-4.147,0.341-5.934
					c0.043-7.884,0.521-15.692,0.521-15.692c0.264-3.574,0.449-6.915,0.554-10.034c-0.862-0.455-1.898-0.989-2.729-1.384
					c-2.567-1.223-6.145-2.869-8.44-3.923c-1.345-0.617-2.66-1.067-2.66-1.067s-9.175-0.881-9.92-0.834
					c-0.235,0.016-1.381,0.415-2.885,0.988c-3.254,1.234-9.525,3.748-10.525,4.466c-1.466,1.049-4.563,25.969-4.702,27.713
					C125.634,341.229,126.628,363.603,126.628,363.603z"/>
			</g>
			<g>
				<path fill="#EEA886" d="M144.046,304.899c0.673,6.184,7.541,6.184,7.541,6.184s2.841-2.486,2.751-4.327
					c-0.003-0.039-0.005-0.081-0.01-0.119c-0.042-0.339-0.426-0.76-0.465-1.438c-0.006-0.093-0.008-0.188-0.01-0.281
					c-0.002-0.092-0.002-0.185-0.002-0.276c0.002-0.469,0.029-0.934,0.057-1.256c0.01-0.113,0.018-0.211,0.026-0.286
					c0.012-0.114,0.02-0.179,0.02-0.179s-1.107-1.166-2.514-2.556c-2.457-2.431-5.838-5.544-5.843-4.307
					c0,0.065,0.009,0.145,0.029,0.234C146.219,299.081,144.046,304.899,144.046,304.899z"/>
			</g>
			<g>
				<path fill="#6EA2E8" d="M125.41,376.382c0,0,0.36-4.914,1.674-5.658c1.314-0.743,0.538,0.767,0.538,0.767
					s-0.785,3.559-0.969,5.003C126.644,376.563,125.41,376.382,125.41,376.382z"/>
			</g>
			<g>
				<g>
					<polygon fill="#6EA2E8" points="138.395,379.853 121.076,374.655 120.804,396.078 137.958,406.713 					"/>
				</g>
			</g>
			<g>
				<polygon fill="#6EA2E8" points="137.958,406.713 135.772,407.082 119.094,396.357 119.628,374.732 121.076,374.655 				"/>
			</g>
			<path fill="#A09EA6" d="M148.728,308.539l2.859,2.544c0,0-3.299-0.22-3.916-0.769L148.728,308.539z"/>
			<path fill="#292C47" d="M166.85,364.598c0,0-13.426,1.144-25.187,0v3.858c0,0,17.661,2.551,25.775-0.735L166.85,364.598z"/>
			<g>
				<path fill="#323657" d="M155.399,306.313c0,0,2.184,5.132,3.822,16.601c0.63,4.404,1.797,11.819,2.645,19.388v0.002
					c0.669,5.966,2.196,12.087,2.681,16.654c0.502,4.73,2.016,18.669,2.016,18.669l3.673-2.315c0.524-0.484,1.259-1.115,1.046-1.796
					c-1.009-3.261-2.942-14.04-4.083-23.436c0-0.008-0.003-0.013-0.003-0.02c-0.054-0.454-0.107-0.902-0.159-1.348
					c-0.003-0.022-0.005-0.048-0.007-0.071c-0.216-1.88-0.395-3.68-0.522-5.329c-0.098-1.264-0.01-2.498,0.164-3.706
					c0.512-8.434,0.766-17.324,0.766-17.324c0.27-3.642,0.424-7.042,0.527-10.212c-0.882-0.373-1.945-1.175-2.866-1.613
					c-1.738-0.825-3.816-1.757-5.769-2.659c-0.931-0.432-2.007-0.636-2.75-0.977L155.399,306.313z"/>
			</g>
			<g>
				<path fill="#323657" d="M133.242,340.43c-0.285,3.827,1.334,25-0.281,25.297c-1.615,0.297-7.552-1.008-7.552-1.008
					s-0.745-22.832-0.507-25.227c0.174-1.741,2.947-27.873,4.412-28.922c0.845-0.607,7.112-2.829,10.188-4.04
					c0.562-0.223,2.342-0.97,2.845-1.16c0.653,0.726,6.335,14.06,6.875,24.46c0.164,3.167-0.577,9.851-1.142,15.312
					c-0.602,5.827-1.269,10.374-1.758,15.246c-0.962,9.6-1.637,17.238-1.637,17.238l-9.554-4.254
					c-1.545-0.774-3.687-3.946-3.105-5.575c2.208-6.186,4.99-16.755,4.993-22.183c0,0-1.065-13.293-1.911-16.214
					C135.11,329.4,133.604,335.564,133.242,340.43z"/>
			</g>
			<g>
				<path fill="#EEA886" d="M131.462,365.477c0,0,0.472,2.134,1.107,4.271c0.636,2.136,1.242,2.822,0.956,4.037
					c-0.216,0.916-1.267,1.59-1.526,1.292c-0.257-0.3-0.331-3.876-1.813-3.882s0.376,4.435-0.5,4.097s-4.243-2.247-4.002-4.047
					c0.241-1.798,1.618-3.08,1.571-5.772c-0.042-2.442,0.734-3.452,0.734-3.452L131.462,365.477z"/>
			</g>
			<g>
				<g>
					<path fill="#6EA2E8" d="M130.336,371.047c0,0,1.964,0.533,1.747,7.204l-2.228-0.407c0,0,0.096-3.688-0.541-5.706
						C129.315,372.138,129.449,370.834,130.336,371.047z"/>
				</g>
			</g>
			<g>
				<path fill="#323657" d="M133.493,351.133l-0.098,16.827c0,0-3.358-0.149-7.986-1.858l-0.321-23.729L133.493,351.133z"/>
			</g>
			<path fill="#CAC7D1" d="M154.709,308.989c0,0,0.245,3.511-2.725,3.593c-2.971,0.081-5.329-2.771-5.329-2.771l4.931,1.271l3-2.544
				L154.709,308.989z"/>
			<path fill="#EAE6F2" d="M144.442,303.743c0,0,2.815,3.612,4.285,4.796l-2.409,4.043l-4.156-7.141L144.442,303.743z"/>
			<path fill="#A09EA6" d="M154.128,309.203l-2.542,1.88c0,0,2.232-4.072,2.277-5.885L154.128,309.203z"/>
			<polygon fill="#EAE6F2" points="153.863,305.198 155.494,306.352 157.313,311.775 154.128,309.203 			"/>
			<g>
				<path fill="#EEA886" d="M161.948,287.097c0,0,1.793,4.362,0.622,4.889c-0.967,0.435,0.587,4.693,0.776,5.383
					c0.189,0.688-1.771,0.969-2.223,1.353c-0.451,0.383-2.205,5.498-3.795,5.491c-1.59-0.008-8.422-3.22-10.142-5.43
					c-1.72-2.211-2.351-11.445-0.66-15.135C148.218,279.958,158.777,279.472,161.948,287.097z"/>
			</g>
			<g>
				<path fill="#754836" d="M162.298,288.039c0,0,2.742-4.22-1.039-7.962c-3.781-3.741-12.004,1.263-12.885,1.394
					c-0.881,0.132-6.142,1.257-4.329,9.094c1.644,7.111,1.676,7.182,1.676,7.182s2.051-3.7,3.012-4.254
					c1.501-0.865,4.531-0.302,4.531-0.302s-1.05-4.02,1.284-4.327C156.882,288.555,160.086,286.941,162.298,288.039z"/>
			</g>
			<g>
				<path fill="#EEA886" d="M151.074,290.723c-0.146-0.552-0.555-2.9-2.652-1.767c-2.097,1.132,0.627,5.763,0.961,5.854
					C149.719,294.901,152.293,295.363,151.074,290.723z"/>
			</g>
			<path fill="#A77860" d="M147.458,299.097c0.047,0.118,1.608,3.908,6.395,5.821c-0.002-0.092-0.002-0.185-0.002-0.276
				c0.002-0.469,0.029-0.934,0.057-1.256c0.01-0.113,0.018-0.211,0.026-0.286C153.933,303.1,148.791,300.683,147.458,299.097z"/>
		</g>
		<g>
			<path fill="#78C2FF" d="M393.699,118.595c-1.514,0.268-2.965,0.256-4.354-0.033c-1.391-0.29-2.641-0.793-3.748-1.511
				c-1.108-0.719-2.049-1.623-2.821-2.713c-0.772-1.089-1.282-2.326-1.526-3.711c-0.236-1.339-0.183-2.665,0.166-3.977
				c0.348-1.309,0.921-2.482,1.72-3.516c0.799-1.033,1.802-1.924,3.007-2.672c1.205-0.75,2.565-1.257,4.08-1.525
				c1.469-0.26,2.91-0.248,4.322,0.038c1.411,0.287,2.668,0.777,3.773,1.474c1.104,0.697,2.045,1.601,2.822,2.712
				c0.774,1.113,1.283,2.338,1.52,3.679c0.245,1.385,0.191,2.721-0.16,4.01c-0.352,1.29-0.926,2.461-1.721,3.517
				c-0.795,1.055-1.805,1.958-3.032,2.71C396.52,117.829,395.17,118.335,393.699,118.595z M392.931,114.248
				c0.649-0.115,1.217-0.371,1.704-0.77c0.487-0.397,0.902-0.884,1.247-1.458c0.345-0.572,0.576-1.216,0.696-1.929
				c0.119-0.712,0.113-1.436-0.016-2.172c-0.268-1.513-0.95-2.72-2.046-3.62c-1.097-0.898-2.271-1.237-3.525-1.015
				c-0.648,0.114-1.217,0.372-1.704,0.769c-0.488,0.399-0.903,0.885-1.248,1.459c-0.344,0.574-0.578,1.207-0.7,1.897
				c-0.124,0.692-0.12,1.404,0.011,2.139c0.268,1.515,0.951,2.732,2.05,3.652C390.5,114.121,391.676,114.469,392.931,114.248z
				 M390.875,143.852l14.52-24.582l12.943-25.173l4.578,2.804l-14.005,24.089l-13.46,25.665L390.875,143.852z M423.645,141.868
				c-1.516,0.269-2.965,0.257-4.355-0.033c-1.39-0.289-2.637-0.781-3.74-1.478c-1.105-0.697-2.045-1.589-2.816-2.681
				c-0.773-1.089-1.281-2.326-1.527-3.711c-0.244-1.383-0.191-2.72,0.161-4.009c0.353-1.288,0.925-2.46,1.72-3.517
				c0.795-1.053,1.795-1.956,3.001-2.704c1.206-0.75,2.565-1.257,4.079-1.525c1.514-0.269,2.967-0.257,4.355,0.032
				c1.389,0.289,2.648,0.792,3.779,1.506c1.131,0.715,2.07,1.619,2.822,2.712c0.75,1.095,1.248,2.334,1.493,3.717
				c0.245,1.385,0.202,2.719-0.128,4.003c-0.331,1.287-0.904,2.447-1.727,3.483c-0.818,1.039-1.832,1.93-3.039,2.679
				C426.518,141.093,425.158,141.601,423.645,141.868z M422.875,137.522c0.649-0.115,1.217-0.372,1.705-0.77
				c0.486-0.397,0.901-0.884,1.246-1.458c0.345-0.574,0.578-1.207,0.702-1.897c0.122-0.69,0.119-1.403-0.011-2.139
				c-0.138-0.778-0.396-1.479-0.773-2.105c-0.378-0.624-0.818-1.149-1.316-1.573c-0.498-0.424-1.055-0.728-1.666-0.91
				c-0.613-0.181-1.221-0.219-1.826-0.112c-0.648,0.114-1.217,0.373-1.703,0.77c-0.488,0.399-0.904,0.885-1.248,1.459
				c-0.346,0.574-0.576,1.218-0.696,1.93c-0.119,0.712-0.113,1.436,0.017,2.171c0.268,1.514,0.949,2.721,2.045,3.619
				C420.445,137.406,421.62,137.744,422.875,137.522z"/>
		</g>
		<path fill="#78C2FF" d="M188.866,35.73l1.893,9.54l-50.413,22.457l0.876,1.966l22.256,30.446l0.438,0.983l4.108-1.83l2.987,3.896
			l1.502-0.669c-1.175,1.146-1.582,2.945-0.875,4.529c0.905,2.032,3.294,2.948,5.325,2.043c2.032-0.905,2.948-3.294,2.043-5.325
			c-0.706-1.585-2.315-2.486-3.953-2.379l20.717-9.229c-1.176,1.146-1.581,2.945-0.876,4.529c0.906,2.032,3.294,2.948,5.326,2.043
			c2.031-0.905,2.948-3.294,2.043-5.325c-0.706-1.585-2.316-2.487-3.954-2.379l1.638-0.73l-0.693-1.553l-27.709,12.344l-1.923-2.508
			l31.275-13.932l-0.438-0.983l-6.342-30.21l-3.318-16.723l21.14-9.417l-0.692-1.555L188.866,35.73z M177.452,104.458
			c0.523,1.174-0.007,2.556-1.182,3.079c-1.174,0.523-2.555-0.006-3.078-1.181c-0.524-1.175,0.006-2.556,1.181-3.079
			C175.548,102.755,176.929,103.285,177.452,104.458z M200.709,94.099c0.523,1.174-0.007,2.556-1.182,3.079
			c-1.175,0.523-2.555-0.007-3.079-1.181c-0.523-1.174,0.007-2.556,1.182-3.079C198.805,92.394,200.186,92.924,200.709,94.099z
			 M165.521,72.716l13.184-5.874l3.582,9.894l-11.807,5.26L165.521,72.716z M168.749,82.767l-11.789,5.252l-6.336-8.668
			l13.167-5.864L168.749,82.767z M177.971,64.813l-13.466,5.999l-4.959-9.28l14.842-6.612L177.971,64.813z M176.119,54.148
			l14.825-6.604l2.206,10.507l-13.449,5.991L176.119,54.148z M183.022,78.766l3.582,9.894l-10.148,4.52l-4.958-9.28L183.022,78.766z
			 M184.754,77.994l11.506-5.125l2.206,10.506l-10.13,4.513L184.754,77.994z M195.807,70.713l-11.788,5.251l-3.582-9.894
			l13.166-5.864l2.162,10.297L195.807,70.713z M157.814,62.302l4.959,9.281l-13.448,5.99l-6.336-8.667L157.814,62.302z
			 M158.259,89.797l11.508-5.126l4.958,9.28l-10.13,4.513L158.259,89.797z"/>
		<g>
			<path fill="#78C2FF" d="M277.336,103.278c-8.635-6.982-9.978-19.688-2.995-28.322c6.982-8.634,19.688-9.978,28.322-2.996
				c8.633,6.984,9.977,19.688,2.995,28.323C298.676,108.917,285.97,110.26,277.336,103.278z M300.213,74.992
				c-6.963-5.632-17.209-4.549-22.84,2.415c-5.632,6.963-4.548,17.208,2.415,22.84c6.963,5.631,17.208,4.548,22.84-2.415
				C308.259,90.869,307.176,80.623,300.213,74.992z"/>
		</g>
		<g>
			<polygon fill="#78C2FF" points="284.017,92.975 282.656,80.107 286.532,79.697 287.483,88.688 300.087,87.356 300.497,91.231 			
				"/>
		</g>
		<path opacity="0.72" fill="#FFFFFF" d="M255.091,378.411h-51.93c-2.092,0-3.789-1.695-3.789-3.787v-9.003
			c0-2.092,1.697-3.788,3.789-3.788h51.93c2.092,0,3.789,1.696,3.789,3.788v9.003C258.879,376.716,257.183,378.411,255.091,378.411z
			"/>
		<path opacity="0.72" fill="#FFFFFF" d="M321.935,378.411h-43.233c-2.091,0-3.788-1.695-3.788-3.787v-9.003
			c0-2.092,1.697-3.788,3.788-3.788h43.233c2.092,0,3.788,1.696,3.788,3.788v9.003C325.723,376.716,324.026,378.411,321.935,378.411
			z"/>
		<g>
			<linearGradient id="SVGID_13_" gradientUnits="userSpaceOnUse" x1="249.8481" y1="445.2246" x2="324.8457" y2="445.2246">
				<stop  offset="0" style="stop-color:#FF9340"/>
				<stop  offset="1" style="stop-color:#FFD255"/>
			</linearGradient>
			<rect x="249.848" y="440.672" fill="url(#SVGID_13_)" width="74.998" height="9.105"/>
			<linearGradient id="SVGID_14_" gradientUnits="userSpaceOnUse" x1="255.7881" y1="453.9531" x2="330.7852" y2="453.9531">
				<stop  offset="0" style="stop-color:#F58631"/>
				<stop  offset="1" style="stop-color:#F2C23F"/>
			</linearGradient>
			<rect x="255.788" y="449.4" fill="url(#SVGID_14_)" width="74.997" height="9.104"/>
			<linearGradient id="SVGID_15_" gradientUnits="userSpaceOnUse" x1="210.5723" y1="436.293" x2="285.894" y2="436.293">
				<stop  offset="0" style="stop-color:#FF9F55"/>
				<stop  offset="1" style="stop-color:#FFD255"/>
			</linearGradient>
			<polygon fill="url(#SVGID_15_)" points="285.894,433.368 212.365,448.144 210.572,439.216 284.1,424.441 			"/>
			<g>
				<path fill="#EEA987" d="M382.648,280.509c0,0-1.679,1.804-2.32,0.993c-0.643-0.811-1.371-1.959-1.371-1.959L382.648,280.509z"/>
				<path fill="#EEA987" d="M386.131,263.128l-2.251,9.887c0.666-0.799,1.833-2.075,2.202-1.688
					c0.525,0.554-1.285,3.237-1.604,4.397c-0.293,1.063-0.68,2.725-1.152,3.706l-0.824,1.612l-3.545-1.5
					c0,0,0.252-7.064,0.404-8.653c0.25-2.585,5.294-8.13,5.777-8.182C386.011,262.613,386.131,263.128,386.131,263.128z"/>
			</g>
			<path fill="#4A529C" d="M313.741,435.474c0,0-1.031,2.404-1.888,3.353c-0.857,0.948-4.115,2.622-4.166,5.467
				c-0.057,3.085,5.43,2.295,7.572,2.207c2.143-0.086,2.325-1.733,3.248-3.469c0.922-1.736,1.827-1.43,2.014-2.837
				c0.186-1.406-0.636-4.572-0.636-4.572L313.741,435.474z"/>
			<g>
				<path fill="#4A529C" d="M361.371,451.018c0,0,2.944,3.168,5.965,3.861c3.021,0.691,5.13,1.554,5.131,3.353
					c0.001,1.797-8.751,2.877-12.195,1.023c-5.139-2.767-5.675-1.957-6.232-3.316c-0.557-1.358,0.749-4.958,0.717-5.389
					C354.716,450.018,361.371,451.018,361.371,451.018z"/>
			</g>
			<g>
				<path fill="#EDDAD3" d="M354.498,360.469c0,0,2.86,22.797,4.049,30.506c1.389,9.014,1.807,16.453,2.168,21.114
					c0.454,5.863,1.093,36.668,1.439,38.384c0.347,1.717-8.209,0.761-8.209,0.761s-5.733-40.004-7.222-46.26
					c-1.386-5.825-5.103-29.814-6.45-28.244c-1.347,1.569-17.26,18.873-18.299,23.441c-1.037,4.568-1.754,35.35-1.754,35.35
					s-6.096,2.906-7.881,1.449c0,0-3.702-27.022-2.973-35.603c0.278-3.27,9.955-30.73,15.662-45.143
					C328.046,348.606,354.498,360.469,354.498,360.469z"/>
			</g>
			<path fill="#3F4685" d="M345.959,305.775c0,0,8.271,1.813,9.244,2.697c1.057,0.939,2.832,10.043,2.914,12.574
				c0.081,2.53-1.157,13.083-2.271,17.006c-1.115,3.922-1.119,24.461-0.68,27.698c0,0-16.668,3.054-33.057,0.722
				c0,0,3.051-17.803,2.459-23.202c-0.76-6.918-2.594-22.856-2.594-22.856s2.321-10.688,3.797-11.909
				c1.478-1.219,11.66-3.108,11.66-3.108L345.959,305.775z"/>
			<path fill="#EEA886" d="M342.838,280.098c0,0,10.018-3.571,9.236,9.676c-0.782,13.245-3.135,14.563-9.675,12.635
				c-6.538-1.93-6.987-10.302-7.794-14.336C333.799,284.039,339.57,280.637,342.838,280.098z"/>
			<path fill="#EEA886" d="M347.576,307.894c0,0-5.232,4.14-10.145-2.497c0,0,0.285-5.332-1.182-10.334
				c-1.468-5.002,10.362,6.77,10.362,6.77c-0.126,0.087-0.156,0.584-0.093,1.28c0.054,0.59,0.174,1.32,0.359,2.063
				C347.296,306.847,347.198,306.551,347.576,307.894z"/>
			<path fill="#163342" d="M335.914,294.663c0,0,0.014-3.54,1.489-3.85c1.476-0.308,2.21,1.748,2.21,1.748l1.186-0.049
				c0,0-1.016-3.602,0.398-4.407c1.412-0.805,9.801,0.018,10.868-1.178c1.069-1.195-0.373-8.388-2.655-9.119
				s-8.523-2.234-12.54,1.257c0,0-3.56-0.02-3.603,4.247C333.238,286.131,334.738,292.729,335.914,294.663z"/>
			<path fill="#A77860" d="M346.879,305.176c-7.715-1.392-8.818-5.802-8.834-5.87c2.959,3.91,8.475,3.807,8.475,3.807
				C346.573,303.702,346.693,304.433,346.879,305.176z"/>
			<path fill="#EEA886" d="M339.088,289.33c-0.427-1.172-2.916-1.055-2.684,0.799c0.232,1.855,2.255,4.731,3.086,4.207
				C340.322,293.811,339.676,290.949,339.088,289.33z"/>
			<path fill="#EEA886" d="M334.736,305.932c0,0,4.563,9.508,11.455,8.825c6.892-0.683,2.98-7.325,2.336-8.386
				C348.527,306.371,344.43,303.671,334.736,305.932z"/>
			<g>
				<path fill="#3F4685" d="M378.263,298.821c1.989-3.759,6.437-18.32,6.437-18.32l-6.033-1.337c0,0-3.307,7.314-4.898,12.384
					c-0.777,2.472-1.807,4.894-2.034,5.283c-0.228,0.389-10.626,8.069-11.755,8.629c-1.131,0.561-5.463,2.004-7.551,4.075
					c-2.088,2.068-1.118,4.95-1.118,4.95c4.308,5.68,12.477-1.54,12.477-1.54S375.475,304.092,378.263,298.821z"/>
			</g>
			<path fill="#3F4685" d="M368.045,309.521c0,0-9.673,10.312-10.047,14.171c-0.27,2.756-1.856-8.314-1.856-8.314L368.045,309.521z"
				/>
			<g>
				<circle fill="#F8BB66" cx="335.28" cy="371.454" r="41.991"/>
				<path fill="#F8BB66" d="M355.295,408.367l-35.494-75.946c20.502-8.154,44.057,1.006,53.521,21.254
					C382.783,373.922,374.701,397.87,355.295,408.367z"/>
				<path fill="#F8BB66" d="M297.24,389.231c-8.323-17.808-3.074-38.477,11.513-50.34l34.491,73.8
					C324.785,416.271,305.562,407.039,297.24,389.231z"/>
				<circle fill="#F89829" cx="335.28" cy="371.454" r="31.914"/>
				<g>
					<path fill="#F8C681" d="M331.564,384.972c0.385,0.163,0.9,0.291,1.543,0.385c0.645,0.093,1.359,0.137,2.146,0.13
						c0.785-0.007,1.615-0.086,2.487-0.236c0.873-0.15,1.73-0.39,2.573-0.714l-4.085-8.74l-0.881,0.205
						c-1.691,0.345-3.255,0.578-4.689,0.699c-1.436,0.123-2.727,0.057-3.874-0.195c-1.147-0.253-2.173-0.743-3.078-1.469
						s-1.674-1.765-2.306-3.115c-0.697-1.493-1.024-2.892-0.983-4.197s0.37-2.531,0.983-3.675c0.614-1.146,1.466-2.187,2.554-3.123
						c1.088-0.938,2.344-1.755,3.767-2.455l-2.072-4.434l2.195-1.026l2.111,4.518c2.094-0.806,4.209-1.306,6.348-1.499
						c2.139-0.195,4.246-0.055,6.317,0.418l-0.259,5.059c-0.467-0.192-1.088-0.349-1.863-0.466
						c-0.776-0.118-1.644-0.176-2.603-0.173c-0.958,0.002-1.977,0.082-3.052,0.243c-1.073,0.158-2.145,0.419-3.211,0.78l4.086,8.74
						c0.195-0.022,0.395-0.056,0.597-0.099c0.204-0.043,0.401-0.077,0.597-0.099c1.678-0.304,3.173-0.497,4.488-0.58
						c1.316-0.084,2.484,0.014,3.506,0.291c1.021,0.276,1.916,0.742,2.686,1.396c0.768,0.651,1.428,1.569,1.98,2.753
						c0.645,1.378,0.978,2.714,0.999,4.008c0.022,1.294-0.224,2.531-0.735,3.715c-0.51,1.181-1.247,2.264-2.212,3.245
						c-0.964,0.982-2.124,1.859-3.479,2.63l1.993,4.266l-2.196,1.026l-1.992-4.267c-1.882,0.742-3.743,1.167-5.58,1.271
						c-1.838,0.104-3.552-0.004-5.143-0.323L331.564,384.972z M344.986,377.361c-0.553-1.182-1.382-1.875-2.488-2.078
						c-1.107-0.203-2.611-0.135-4.51,0.204l3.888,8.319c1.679-0.888,2.757-1.881,3.237-2.98
						C345.596,379.727,345.553,378.572,344.986,377.361z M326.23,369.046c0.579,1.238,1.51,1.944,2.791,2.117
						c1.282,0.172,2.927,0.098,4.938-0.225l-3.908-8.36c-1.787,0.869-3.017,1.854-3.685,2.957
						C325.697,366.637,325.651,367.807,326.23,369.046z"/>
				</g>
				<path fill="#F8F8F8" d="M361.091,404.585c15.13-11.764,20.687-32.814,12.23-50.91c-8.458-18.096-28.171-27.335-46.901-23.275
					L361.091,404.585z"/>
				<path fill="#F8F8F8" d="M343.244,412.691l-34.491-73.8c2.622-2.134,5.548-3.983,8.749-5.479
					c0.762-0.356,1.527-0.688,2.299-0.992l35.494,75.946c-0.729,0.395-1.475,0.771-2.236,1.127
					C349.857,410.991,346.563,412.048,343.244,412.691z"/>
			</g>
			<path fill="#EFAA88" d="M315.529,373.438c0,0-0.328-0.831-0.296-1.265c0,0,0.122-0.783,0.175-1.346
				c0.016-0.179,0.025-0.334,0.021-0.436c-0.017-0.424-0.18-1.348,0.066-2.377c0.243-1.026,1.477-4.57,1.477-4.57l3.205,0.516
				l2.795-0.345c0,0,2.007,6.096,1.889,7.079c-0.012,0.098-0.027,0.191-0.048,0.278c-0.181,0.825-0.661,1.361-0.805,1.782
				c-0.054,0.154-0.69,1.654-1.158,1.793c-0.647,0.193-1.175,0.064-1.528-0.233c0,0-1.285,0.323-2.092-0.057
				c0,0-1.176,0.335-2.045-0.423C317.186,373.836,315.955,374.042,315.529,373.438z"/>
			<path fill="#3F4685" d="M330.34,308.331c1.082,0.435,2.203,3.079,1.284,8.228c-0.985,5.523-2.841,7.866-3.591,9.151
				c-0.75,1.284-5.394,9.854-5.393,11.129c0.005,3.322-0.178,12.091-0.082,12.764c0.166,1.148,0.749,14.37,0.749,14.37l-7.035,1.614
				c0,0-1.203-14.916-1.774-19.427c-0.229-1.81-0.713-6.773-0.027-11.706c0.659-4.758,4.237-15.248,4.71-16.081
				C319.654,317.541,323.186,305.462,330.34,308.331z"/>
		</g>
		<path fill="#FCCCA2" d="M461.877,287.493c0,0,10.891-6.683,22.996,6.438c6.433,6.974,21.396,5.732,22.785,3.757
			c0.797-1.134-1.291,4.93-6.416,8.765c-4.514,3.375-10.709,7.121-23.315,2.738c-12.606-4.382-16.05-0.611-16.05-0.611V287.493z"/>
		<g>
			<g>
				<path fill="#DB9B7B" d="M447.816,408.099c1.076,2.306,16.295,23.161,17.218,25.519c0.923,2.356,7.208,12.297,7.208,12.297
					l3.859-2.715c0,0-4.838-13.666-8.845-23.329h-0.001c-0.387-0.938-0.77-1.839-1.137-2.685c-1.428-3.283-2.658-5.755-3.392-6.475
					c-2.869-2.817-7.071-6.712-4.765-9.889c2.305-3.178,11.888-20.497,12.246-22.289c0.358-1.794,13.927-26.156-14.871-16.165
					c0,0-4.959,15.191-5.677,26.412C448.945,400.002,446.74,405.793,447.816,408.099z"/>
			</g>
		</g>
		<g>
			<g>
				<path fill="#DE9673" d="M472.241,445.913c0,0,0.255,2.217-0.288,3.51s-1.633,6.958-3.236,7.733s-4.879,1.268-4.879,1.53
					c0.004,1.189,0.939,1.872,4.322,1.919c3.383,0.046,6.641-4.293,8.916-7.346c2.275-3.055,5.236-4.509,3.375-6.577
					s-4.545-4.353-4.858-4.771C475.279,441.495,472.241,445.913,472.241,445.913z"/>
			</g>
		</g>
		<g>
			<g>
				<path fill="#EEA886" d="M483.648,360.226c0,0,4.908,10.366,1.478,17.11c-3.367,6.619-16.1,21.489-17.306,23.859
					c-1.206,2.369-3.756,5.566-1.74,6.254c2.709,0.924,6.053,1.605,11.078,4.938c3.316,2.2,8.811,3.206,12.42,4.865
					c1.43,0.656,1.85,4.061,0.246,4.865c-1.187,0.596-29.835-5.698-34.056-8.461c-1.837-1.202-1.846-4.008,0.416-11.701
					c1.019-3.468,5.53-14.801,6.915-19.05c1.338-4.109,3.916-10.227,3.916-10.227S464.784,347.656,483.648,360.226z"/>
			</g>
		</g>
		<g>
			<g>
				<path fill="#EEA886" d="M489.565,422.153c0,0,2.757-0.073,4.034,0.129c1.275,0.203,6.316,0.413,7.716,0.757
					c1.399,0.343,2.316,2.024,3.098,1.612s-0.644-2.394-2.227-3.573s-6.183-4.374-8.438-6.536c-2.256-2.161-3.5-2.523-4.692-0.627
					c-1.192,1.897-2.267,4.869-2.807,5.67C485.71,420.387,489.565,422.153,489.565,422.153z"/>
			</g>
		</g>
		<path fill="#DB9C7C" d="M435.072,271.313c-0.223-0.685-1.207-1.555-1.281-0.734c-0.073,0.82,0.475,3.359,0.405,3.97
			S435.072,271.313,435.072,271.313z"/>
		<path fill="#EEA987" d="M434.262,262.82c0,0,3.406,7.434,3.318,9.661c-0.088,2.229,0.055,7.722-1.529,7.882
			c-1.584,0.162-2.566-0.21-2.733-2.631c-0.169-2.422,1.791-6.555,1.591-8.028C434.708,268.229,432.445,261.721,434.262,262.82z"/>
		<path fill="#EEA987" d="M437.355,277.386c0,0,1.099,6.745,2.863,9.397c1.765,2.651-4.503,2.004-4.503,2.004l-1.352-9.274
			L437.355,277.386z"/>
		<g>
			<path fill="#6B7ADB" d="M463.303,325.246c0,0,1.007-3.707-0.563-6.488c-1.571-2.78-4.904-4.975-5.921-5.893
				c-1.015-0.92-9.829-11.262-9.95-11.735c-0.122-0.475-2.248-7.442-4.267-11.561s-4.134-9.505-4.134-9.505l-4.781,2.677
				c0,0,3.646,16.712,6.307,20.435c2.842,3.977,17.098,22.511,17.098,22.511S459.889,330.242,463.303,325.246z"/>
		</g>
		<path fill="#363636" d="M447.947,397.623c0,0-2.801,3.052,21.287,3.052c0,0,24.243-22.915,16.646-37.296
			c-4.021-7.607-29.676-2.909-29.676-2.909S452.674,365.128,447.947,397.623z"/>
		<g>
			<path fill="#EDDAD3" d="M465.404,314.354c0,0-3.736,1.765-5.033,2.023c-1.297,0.26-6.329,6.796-7.211,9.183
				c-0.881,2.386,0,5.965,1.816,10.167c1.815,4.202,0.104,5.604,0.934,9.806s1.556,13.099,1.4,15.434s20.983,2.775,25.807-1.479
				c0,0-4.848-7.262-5.471-8.3c-0.623-1.037-0.104-6.692,0.467-8.145s4.49-13.044,4.49-13.044s2.986-10.248,0.179-12.428
				c-2.438-1.895-9.083-2.568-10.276-2.984C471.313,314.172,467.842,313.991,465.404,314.354z"/>
		</g>
		<g>
			<path fill="#EEA886" d="M470.117,287.845c-2.219-0.781-10.375-2.697-12.295,7.73s3.838,17.846,9.131,15.874
				c5.291-1.971,8.56-9.182,8.87-14.682C476.135,291.269,472.918,288.831,470.117,287.845z"/>
		</g>
		<g>
			<path fill="#FCCCA2" d="M457.822,295.575c0,0-0.399-8.923,8.473-9.235c8.869-0.311,11.257,6.993,10.53,12.316
				c-0.726,5.322-4.399,8.131-4.399,8.131s0.32-4.307-1.401-5.425s-8.621-3.349-11.63-8.537
				C459.395,292.825,457.999,294.462,457.822,295.575z"/>
		</g>
		<g>
			<path fill="#EEA886" d="M463.621,310.044c0,0,0.745,6.854,0.59,9.084c0,0,3.881,3.889,8.295-4.541c0,0-1.857-3.474-0.459-8.208
				C473.444,301.645,463.621,310.044,463.621,310.044z"/>
		</g>
		<g>
			<path fill="#6B7ADB" d="M463.286,364.077c1.761,8.419,24.33-1.174,24.33-1.174s-11.983-9-8.702-20.082
				c0.37-1.254,2.422-6.819,2.754-7.974c0.268-0.914,0.52-1.795,0.76-2.641c2.139-7.509,4.293-10.359,4.293-10.359
				s-2.281-4.937-6.766-5.937c-3.504-0.781-6.775-1.156-6.775-1.156s-12.069,16.108-12.32,19.609
				C460.609,337.867,461.524,355.656,463.286,364.077z"/>
		</g>
		<g>
			<path fill="#EEA886" d="M470.133,299.477c0.322-0.818,1.4-1.048,2.023-0.582c0.622,0.468,0.985,1.868,0,3.684
				C471.17,304.394,467.694,305.66,470.133,299.477z"/>
		</g>
		<g>
			<path fill="#A77860" d="M463.774,311.553l0.137,1.35c0,0,3.077,0.602,7.113-4.322C471.024,308.58,468.162,312.07,463.774,311.553
				z"/>
		</g>
		<path fill="#EDDAD3" d="M471.905,312.926c0,0-3.907,1.66-7.946,0.651l-0.338,2.005v8.056c0,0,7.152-5.677,7.138-5.949
			c-0.015-0.271,2.005-3.027,2.005-3.027L471.905,312.926z"/>
		<path fill="#363636" d="M463.838,458.687c0,0-0.186-1.457,4.457-1.509c2.66-0.03,7.785-6.026,8.295-6.73
			c0.509-0.704,1.816-4.907,2.649-5.036s3.376,2.805,0.755,5.466s-6.573,9.744-11.834,9.729
			C464.026,460.593,463.725,459.451,463.838,458.687z"/>
		<path fill="#363636" d="M488.454,414.972c0,0,0.987-4.267,4.159-1.646c3.172,2.621,5.923,5.253,9.377,7.512
			c3.453,2.26,3.186,3.65,2.17,4.201c-1.016,0.552-3.273-1.462-4.619-2.249C498.196,422,495.832,418.367,488.454,414.972z"/>
		<path fill="#6B7ADB" d="M462.852,315.491c0,0-4.256,11.205-2.002,18.612l2.437,29.843c0.001,0.041-0.002,0.083-0.007,0.123
			l0.007,0.008c0,0-0.571,2.704-4.499,1.938c-0.002,0-0.006-0.002-0.009-0.002c-0.005-0.001-0.011-0.002-0.015-0.003
			c-0.049-0.007-0.098-0.018-0.146-0.031c-3.777-0.8-4.488-3.123-4.488-3.123s1.966-8.565,2.069-11.522
			c0.104-2.957-0.496-14.147-0.496-14.147c-3.684-7.396-2.738-10.742-2.738-10.742c1.739-5.952,6.697-10.048,6.697-10.048
			L462.852,315.491z"/>
		<path fill="#4D589E" d="M477.927,327.747l3.741,7.101c0.268-0.914,0.52-1.795,0.76-2.641
			C482.428,332.207,478.977,328.069,477.927,327.747z"/>
		<path fill="#A77860" d="M466.119,417.186c0,0-7.693-2.253-9.576-3.098c1.773,0.937,9.919,5.239,10.713,5.782
			C466.869,418.933,466.486,418.031,466.119,417.186z"/>
		<g>
			<g>
				<path fill="#252E3B" d="M505.18,383.641c-3.065,0.173-5.723-2.592-5.924-6.164c-0.201-3.571,2.129-6.617,5.193-6.79
					s5.721,2.592,5.922,6.164C510.573,380.422,508.244,383.468,505.18,383.641z M504.472,371.1c-2.837,0.16-4.991,3.011-4.804,6.354
					c0.189,3.343,2.651,5.934,5.487,5.773c2.837-0.159,4.991-3.01,4.804-6.354C509.77,373.529,507.309,370.939,504.472,371.1z"/>
			</g>
		</g>
		<g>
			<linearGradient id="SVGID_16_" gradientUnits="userSpaceOnUse" x1="491.7109" y1="390.2666" x2="519.3926" y2="390.2666">
				<stop  offset="0" style="stop-color:#FF9F55"/>
				<stop  offset="1" style="stop-color:#FFD255"/>
			</linearGradient>
			<polygon fill="url(#SVGID_16_)" points="519.393,402.63 493.188,404.107 491.711,377.902 517.916,376.426 			"/>
		</g>
		<g>
			<g>
				<g>
					<g>
						<g>
							<path fill="#EEA886" d="M507.625,374.68c0,0,0.131-0.662,0.047-0.979c0,0-0.198-0.566-0.313-0.977
								c-0.036-0.131-0.065-0.245-0.076-0.321c-0.046-0.315-0.052-1.025-0.375-1.755c-0.322-0.729-2.524-3.518-2.524-3.518
								l-1.844,0.763l-1.83,0.468c0,0-0.61,4.847-0.389,5.562c0.022,0.069,0.047,0.137,0.074,0.2
								c0.247,0.586,0.678,0.919,0.842,1.212c0.061,0.107,0.74,1.133,1.105,1.172c0.508,0.056,0.881-0.112,1.104-0.382
								c0,0,0.998,0.063,1.545-0.329c0,0,0.918,0.087,1.459-0.595C506.449,375.201,507.393,375.187,507.625,374.68z"/>
						</g>
					</g>
				</g>
			</g>
		</g>
		<rect x="198.466" y="202.317" opacity="0.72" fill="#FFFFFF" width="84.19" height="7.557"/>
		<rect x="198.466" y="214.534" opacity="0.72" fill="#FFFFFF" width="95.927" height="7.557"/>
		<g>
			<path fill="#6B7ADB" d="M473.56,316.493c0,0-2.057,3.073-0.324,6.177c1.731,3.104,5.429,5.564,6.554,6.595
				c1.126,1.028,10.875,12.591,11.01,13.118c0.133,0.528,3.582,9.478,5.225,14.311c1.612,4.742,3.613,12.287,3.613,12.287
				l5.518-1.85c0,0-4.422-23.013-7.643-26.958c-3.22-3.945-10.791-18.325-10.791-18.325S480.979,312.987,473.56,316.493z"/>
		</g>
		<g>
			<path fill="#FF5358" d="M14.739,195.245h-2.742v12.419c0,1.635-0.36,2.839-1.081,3.612c-0.721,0.773-1.661,1.16-2.821,1.16
				c-1.249,0-2.215-0.405-2.9-1.213s-1.028-1.995-1.028-3.56v-29.742c0-1.688,0.378-2.909,1.134-3.665
				c0.755-0.755,1.978-1.134,3.665-1.134H21.7c1.757,0,3.26,0.075,4.509,0.224c1.248,0.149,2.373,0.453,3.375,0.91
				c1.213,0.51,2.285,1.239,3.217,2.188c0.932,0.949,1.639,2.053,2.123,3.309c0.483,1.257,0.725,2.588,0.725,3.995
				c0,2.883-0.813,5.186-2.439,6.908c-1.626,1.723-4.091,2.944-7.396,3.665c1.388,0.738,2.716,1.829,3.981,3.27
				c1.266,1.441,2.395,2.976,3.388,4.601c0.993,1.626,1.767,3.094,2.32,4.403c0.554,1.31,0.831,2.211,0.831,2.703
				c0,0.51-0.163,1.015-0.488,1.516c-0.326,0.501-0.769,0.896-1.332,1.187c-0.563,0.29-1.213,0.435-1.951,0.435
				c-0.879,0-1.618-0.207-2.215-0.62c-0.598-0.413-1.112-0.936-1.542-1.569c-0.431-0.633-1.015-1.564-1.753-2.795l-3.138-5.221
				c-1.125-1.916-2.132-3.375-3.019-4.377c-0.888-1.002-1.789-1.688-2.703-2.057C17.279,195.43,16.127,195.245,14.739,195.245z
				 M19.222,179.003h-7.225v10.626h7.014c1.881,0,3.463-0.162,4.746-0.488c1.283-0.325,2.263-0.879,2.94-1.661
				c0.676-0.782,1.015-1.859,1.015-3.23c0-1.072-0.273-2.017-0.817-2.834c-0.545-0.817-1.301-1.428-2.268-1.833
				C23.713,179.197,21.911,179.003,19.222,179.003z"/>
			<path fill="#FF5358" d="M61.304,199.569h-14.08c0.017,1.635,0.347,3.076,0.989,4.324c0.642,1.249,1.494,2.188,2.558,2.821
				c1.063,0.633,2.237,0.949,3.52,0.949c0.861,0,1.648-0.101,2.36-0.303c0.712-0.202,1.401-0.518,2.07-0.949
				c0.668-0.431,1.283-0.892,1.846-1.384c0.563-0.492,1.292-1.16,2.188-2.004c0.369-0.316,0.896-0.475,1.582-0.475
				c0.738,0,1.335,0.202,1.793,0.606c0.457,0.405,0.686,0.976,0.686,1.714c0,0.65-0.255,1.411-0.765,2.281
				c-0.51,0.87-1.279,1.705-2.307,2.505c-1.028,0.8-2.32,1.463-3.876,1.991s-3.345,0.791-5.366,0.791
				c-4.624,0-8.218-1.318-10.784-3.955c-2.567-2.637-3.85-6.213-3.85-10.731c0-2.126,0.316-4.1,0.949-5.919s1.556-3.379,2.769-4.68
				c1.213-1.301,2.707-2.298,4.482-2.993c1.775-0.694,3.744-1.042,5.906-1.042c2.812,0,5.225,0.593,7.238,1.78
				c2.013,1.187,3.52,2.72,4.522,4.601c1.002,1.881,1.503,3.797,1.503,5.748c0,1.811-0.519,2.984-1.556,3.52
				C64.643,199.302,63.185,199.569,61.304,199.569z M47.224,195.482h13.052c-0.176-2.461-0.84-4.302-1.991-5.524
				c-1.151-1.222-2.667-1.833-4.548-1.833c-1.793,0-3.266,0.62-4.417,1.859C48.168,191.224,47.47,193.057,47.224,195.482z"/>
			<path fill="#FF5358" d="M73.696,183.802h0.791v-4.324c0-1.16,0.03-2.07,0.092-2.729c0.062-0.659,0.233-1.226,0.514-1.701
				c0.281-0.492,0.686-0.892,1.213-1.2c0.527-0.307,1.116-0.461,1.767-0.461c0.914,0,1.74,0.343,2.479,1.028
				c0.492,0.458,0.804,1.015,0.936,1.674s0.198,1.595,0.198,2.808v4.904h2.637c1.019,0,1.797,0.242,2.333,0.725
				c0.536,0.484,0.804,1.104,0.804,1.859c0,0.967-0.382,1.644-1.147,2.03c-0.765,0.387-1.859,0.58-3.283,0.58h-1.345v13.236
				c0,1.125,0.04,1.991,0.119,2.597s0.29,1.099,0.633,1.477c0.343,0.378,0.9,0.567,1.674,0.567c0.422,0,0.993-0.075,1.714-0.224
				c0.721-0.149,1.283-0.224,1.688-0.224c0.58,0,1.103,0.233,1.569,0.699c0.465,0.466,0.699,1.042,0.699,1.727
				c0,1.16-0.633,2.048-1.898,2.663s-3.085,0.923-5.458,0.923c-2.25,0-3.955-0.378-5.115-1.134s-1.921-1.802-2.281-3.138
				c-0.36-1.335-0.541-3.12-0.541-5.353v-13.816h-0.949c-1.038,0-1.829-0.246-2.373-0.738c-0.545-0.492-0.817-1.116-0.817-1.872
				c0-0.755,0.286-1.375,0.857-1.859C71.775,184.043,72.606,183.802,73.696,183.802z"/>
			<path fill="#FF5358" d="M110.61,208.376c-1.74,1.354-3.424,2.369-5.049,3.045c-1.626,0.676-3.45,1.015-5.471,1.015
				c-1.846,0-3.467-0.365-4.865-1.094s-2.475-1.718-3.23-2.966c-0.756-1.248-1.134-2.601-1.134-4.061
				c0-1.968,0.624-3.647,1.872-5.036c1.248-1.388,2.962-2.32,5.142-2.795c0.457-0.105,1.591-0.343,3.401-0.712
				c1.81-0.369,3.362-0.708,4.654-1.015c1.292-0.307,2.693-0.681,4.206-1.121c-0.088-1.898-0.471-3.292-1.147-4.179
				c-0.677-0.887-2.079-1.332-4.206-1.332c-1.829,0-3.204,0.255-4.126,0.765c-0.923,0.51-1.714,1.275-2.373,2.294
				c-0.659,1.02-1.125,1.692-1.397,2.017c-0.273,0.326-0.857,0.488-1.753,0.488c-0.809,0-1.507-0.259-2.096-0.778
				c-0.589-0.518-0.883-1.182-0.883-1.991c0-1.266,0.448-2.496,1.345-3.691c0.896-1.195,2.294-2.179,4.192-2.953
				c1.898-0.773,4.262-1.16,7.093-1.16c3.164,0,5.651,0.374,7.462,1.121c1.81,0.748,3.089,1.929,3.836,3.546
				c0.747,1.618,1.121,3.762,1.121,6.434c0,1.688-0.004,3.121-0.013,4.298c-0.009,1.178-0.022,2.488-0.04,3.929
				c0,1.354,0.224,2.765,0.672,4.232c0.448,1.468,0.672,2.413,0.672,2.834c0,0.738-0.347,1.411-1.042,2.017
				c-0.695,0.606-1.481,0.91-2.36,0.91c-0.738,0-1.468-0.347-2.188-1.042C112.183,210.701,111.418,209.694,110.61,208.376z
				 M110.136,197.961c-1.055,0.387-2.588,0.795-4.601,1.226c-2.013,0.431-3.406,0.748-4.179,0.949
				c-0.774,0.202-1.512,0.598-2.215,1.187c-0.703,0.589-1.055,1.411-1.055,2.465c0,1.09,0.413,2.017,1.239,2.782
				c0.826,0.765,1.907,1.147,3.243,1.147c1.424,0,2.738-0.312,3.942-0.936c1.204-0.624,2.087-1.428,2.65-2.413
				c0.65-1.09,0.976-2.883,0.976-5.379V197.961z"/>
			<path fill="#FF5358" d="M128.145,179.82c-1.002,0-1.859-0.307-2.571-0.923c-0.712-0.615-1.068-1.485-1.068-2.61
				c0-1.019,0.365-1.859,1.094-2.518c0.729-0.659,1.578-0.989,2.544-0.989c0.932,0,1.757,0.299,2.479,0.896
				c0.721,0.598,1.081,1.468,1.081,2.61c0,1.107-0.352,1.974-1.055,2.597C129.946,179.508,129.111,179.82,128.145,179.82z
				 M131.704,187.256v20.804c0,1.441-0.343,2.531-1.028,3.27s-1.556,1.107-2.61,1.107s-1.912-0.378-2.571-1.134
				s-0.989-1.836-0.989-3.243v-20.593c0-1.424,0.33-2.496,0.989-3.217c0.659-0.721,1.516-1.081,2.571-1.081s1.925,0.36,2.61,1.081
				C131.361,184.971,131.704,185.973,131.704,187.256z"/>
			<path fill="#FF5358" d="M139.14,208.06v-31.219c0-1.441,0.32-2.531,0.962-3.27c0.642-0.738,1.507-1.107,2.597-1.107
				c1.09,0,1.968,0.365,2.637,1.094c0.668,0.729,1.002,1.824,1.002,3.283v31.219c0,1.459-0.339,2.554-1.015,3.283
				c-0.677,0.729-1.552,1.094-2.624,1.094c-1.055,0-1.912-0.378-2.571-1.134S139.14,209.466,139.14,208.06z"/>
		</g>
	</g>
</g>
<g>
</g>
<g>
</g>
<g>
</g>
<g>
</g>
<g>
</g>
<g>
</g>
<g>
</g>
<g>
</g>
<g>
</g>
<g>
</g>
<g>
</g>
<g>
</g>
<g>
</g>
<g>
</g>
<g>
</g>
</svg>
