<?xml version="1.0" encoding="utf-8"?>
<!-- Generator: Adobe Illustrator 16.0.0, SVG Export Plug-In . SVG Version: 6.00 Build 0)  -->
<!DOCTYPE svg PUBLIC "-//W3C//DTD SVG 1.1//EN" "http://www.w3.org/Graphics/SVG/1.1/DTD/svg11.dtd">
<svg version="1.1" id="Layer_1" xmlns="http://www.w3.org/2000/svg" xmlns:xlink="http://www.w3.org/1999/xlink" x="0px" y="0px"
	 width="1011.809px" height="506.136px" viewBox="0 0 1011.809 506.136" enable-background="new 0 0 1011.809 506.136"
	 xml:space="preserve">
<g>
	<g>
		<path fill="none" stroke="#3377FF" stroke-width="7" stroke-miterlimit="10" d="M53.945,98.708c0,0,1.008,1.922,3.103,5.129"/>
		<path fill="none" stroke="#3377FF" stroke-width="7" stroke-miterlimit="10" stroke-dasharray="11.9506,11.9506" d="M64.068,113.5
			c16.401,20.542,53.604,55.208,117.877,55.208c91.333,0,114.667-32.33,148,19.002c33.04,50.881-15.706,212.639,151.333,158.333
			c128.667-41.832-86.2-202.716,165.333-186c95.333,6.335-26,169.668,135.333,191.668
			c158.678,21.638-12.189-224.041,217.466-195.979"/>
		<path fill="none" stroke="#3377FF" stroke-width="7" stroke-miterlimit="10" d="M1005.339,156.505
			c1.952,0.27,3.931,0.559,5.938,0.868"/>
	</g>
</g>
<ellipse fill="#3377FF" cx="347.95" cy="334.042" rx="84.028" ry="83.979"/>
<ellipse fill="#3377FF" cx="176.952" cy="166.375" rx="84.027" ry="83.98"/>
<ellipse fill="#3377FF" cx="533.281" cy="167.376" rx="84.029" ry="83.98"/>
<ellipse fill="#3377FF" cx="721.282" cy="334.042" rx="84.028" ry="83.979"/>
<ellipse fill="#3377FF" cx="885.948" cy="168.042" rx="84.028" ry="83.98"/>
<g>
	<path fill="#FFE5CF" d="M230.833,219.736c-1.851-1.773-3.013-4.258-3.013-7.024v-3.571c-1.095,0.729-2.235,1.396-3.471,1.926
		c-2.452,1.051-5.229,1.051-7.681,0c-1.236-0.529-2.379-1.196-3.471-1.926v3.571c0,2.766-1.163,5.25-3.014,7.024l10.323,5.164
		L230.833,219.736z"/>
	<path fill="#5AA2FF" d="M105.945,166.399h70.688V95.711C137.593,95.711,105.945,127.36,105.945,166.399z"/>
	<path fill="#FFE5CF" d="M186.356,200.632c0.443-2.911-1.38-7.481-2.684-10.03c-0.399-0.78-0.843-1.536-1.351-2.265
		c-0.666-0.958-1.438-1.87-2.354-2.728c-1.396-1.31-2.491-2.796-2.812-4.397l-0.523-2.625v0.253c0,6.665-5.401,12.066-12.066,12.066
		c-4.936,0.053-8.66,6.609-6.941,10.985c1.175,2.996,3.917,5.519,6.819,7.337v-0.088v0.088c1.163,0.729,2.346,1.355,3.475,1.838
		c2.452,1.051,5.228,1.051,7.68,0c1.034-0.444,2.243-1.09,3.471-1.867v-0.059v0.059C182.39,207.096,185.849,203.946,186.356,200.632
		L186.356,200.632z"/>
	<path fill="#633F0E" d="M164.445,209.229c-2.904-1.818-5.645-4.341-6.819-7.337c-1.72-4.376,2.006-10.933,6.94-10.985
		c6.665,0,12.066-5.401,12.066-12.066v-0.253l0.523,2.622c0.319,1.602,1.414,3.091,2.812,4.397c0.917,0.858,1.688,1.77,2.354,2.728
		c0.508,0.729,0.951,1.484,1.351,2.265c1.304,2.547,3.127,7.12,2.684,10.03c-0.507,3.315-3.966,6.465-7.286,8.567v3.516
		c0,0.834,0.138,1.631,0.334,2.403l12.05-0.107c2.374,0,4.68-1.783,4.68-4.158c0-0.383-0.051-0.764-0.151-1.131
		c0,0-6.974-24.402-7.162-26.257c-0.748-7.374-7.054-14.625-14.625-14.625h-4.875c-8.077,0-13.553,6.62-14.625,14.625
		c-0.901,6.744-7.16,26.257-7.16,26.257c-0.101,0.367-0.151,0.748-0.151,1.131c0,2.375,1.925,4.3,4.3,4.3h12.419
		c0.203-0.783,0.344-1.592,0.344-2.438L164.445,209.229L164.445,209.229z"/>
	<path fill="#38649E" d="M176.632,95.711v70.688l49.983-49.983C213.824,103.624,196.152,95.711,176.632,95.711z"/>
	<path fill="#254269" d="M176.632,166.399l62.33-33.355c-3.293-6.14-7.459-11.741-12.346-16.628L176.632,166.399z"/>
	<path fill="#633F0E" d="M225.382,178.706v-0.119l0.523,2.622c1.119,5.592,5.963,9.663,11.664,9.804v-7.551
		c0-8.078-6.547-14.625-14.625-14.625h-4.875c-8.077,0-14.625,6.547-14.625,14.625v7.554l9.872-0.107
		C220,190.833,225.382,185.393,225.382,178.706z"/>
	<path fill="#FFE5CF" d="M224.349,211.066c1.235-0.529,2.379-1.196,3.471-1.926c6-3.995,9.75-10.744,9.75-18.125
		c-5.701-0.142-10.545-4.213-11.664-9.804l-0.523-2.625v0.119c0,6.687-5.382,12.127-12.065,12.2l-9.872,0.109
		c0,7.381,3.749,14.13,9.75,18.125c1.096,0.729,2.235,1.396,3.472,1.926C219.121,212.117,221.895,212.117,224.349,211.066z"/>
	<path fill="#FFE5CF" d="M182.083,219.736c-1.851-1.773-3.014-4.258-3.014-7.024v-3.571c-1.094,0.729-2.234,1.396-3.471,1.926
		c-2.452,1.051-5.229,1.051-7.68,0c-1.236-0.529-2.379-1.196-3.471-1.926v3.571c0,2.766-1.163,5.25-3.014,7.024l10.323,5.164
		L182.083,219.736z"/>
	<path fill="#D64528" d="M161.432,219.736c-1.753,1.68-4.119,2.727-6.737,2.727c-2.93,0-5.525,1.318-7.313,3.363
		c-1.499,1.713-2.438,3.932-2.438,6.387v4.875h26.813V224.9L161.432,219.736z"/>
	<path fill="#D64528" d="M182.083,219.736c1.752,1.68,4.12,2.727,6.736,2.727c2.931,0,5.526,1.318,7.313,3.363
		c1.499,1.713,2.438,3.932,2.438,6.387v4.875h-26.813V224.9L182.083,219.736z"/>
	<path fill="#6B440F" d="M149.971,214.593c0,0,6.257-19.512,7.161-26.256c1.072-8.005,6.547-14.625,14.625-14.625h4.875
		c4.641,0,8.797,2.728,11.498,6.535c-1.952-6.131-7.477-11.41-13.936-11.41h-4.875c-8.077,0-13.553,6.62-14.625,14.625
		c-0.901,6.744-7.16,26.257-7.16,26.257c-0.101,0.367-0.151,0.748-0.151,1.131c0,1.755,1.056,3.261,2.563,3.927
		C149.961,214.718,149.954,214.654,149.971,214.593z"/>
	<path fill="#6B440F" d="M222.945,168.837h-4.875c-8.077,0-14.625,6.547-14.625,14.625v4.633c0-8.077,6.548-14.624,14.625-14.624
		h4.875c8.078,0,14.625,6.547,14.625,14.624v-4.633C237.57,175.384,231.023,168.837,222.945,168.837z"/>
	<path fill="#E8D0BC" d="M225.034,222.634l5.799-2.9c-1.851-1.771-3.013-4.256-3.013-7.022v-3.571
		c-1.095,0.729-2.235,1.396-3.471,1.926c-2.452,1.051-5.229,1.051-7.681,0c-1.236-0.529-2.379-1.196-3.471-1.926v2.84
		L225.034,222.634z"/>
	<path fill="#E8D0BC" d="M178.438,221.56l3.646-1.824c-1.854-1.773-3.016-4.258-3.016-7.024v-3.571
		c-1.094,0.729-2.234,1.396-3.471,1.926c-2.452,1.051-5.229,1.051-7.68,0c-1.236-0.529-2.379-1.196-3.472-1.926v2.242
		L178.438,221.56z"/>
	<g>
		<path fill="#FFD45A" d="M210.182,219.736c-1.752,1.68-4.119,2.727-6.737,2.727c-2.93,0-5.525,1.318-7.313,3.363
			c-1.499,1.713-2.438,3.932-2.438,6.387v4.875h26.813V224.9L210.182,219.736z"/>
		<path fill="#FFD45A" d="M230.833,219.736c1.753,1.68,4.12,2.727,6.737,2.727c2.93,0,5.525,1.318,7.313,3.363
			c1.499,1.713,2.438,3.932,2.438,6.387v4.875h-26.813V224.9L230.833,219.736z"/>
	</g>
</g>
<g>
	<path fill="#EAB875" d="M318.617,264.343c-9.44,5.021-13.022,16.746-8,26.188l34.51,64.879c5.021,9.439,16.745,13.021,26.188,8
		c9.44-5.021,13.023-16.746,8.001-26.188l-34.509-64.877C339.783,262.903,328.059,259.322,318.617,264.343z"/>
	<path fill="#C68D4E" d="M379.316,337.221l-34.509-64.876c-5.023-9.442-16.748-13.023-26.189-8.002
		c-0.51,0.271-0.999,0.564-1.474,0.873c7.722-3.125,17.358,1.15,22.108,10.082l34.511,64.877c4.751,8.932,2.91,19.312-3.997,23.968
		c0.521-0.222,1.039-0.463,1.549-0.733C380.755,358.387,384.337,346.664,379.316,337.221z"/>
	<path fill="#FFF7AF" d="M343.238,314.794c-1.547-2.908-8.652-2.153-15.87,1.686c-0.786,0.417-1.537,0.855-2.254,1.307l5.516,10.366
		c0.774-0.344,1.557-0.723,2.342-1.139C340.188,323.173,344.784,317.705,343.238,314.794z"/>
	<path fill="#FFF7AF" d="M354.215,335.432c-1.547-2.909-8.653-2.154-15.87,1.687c-0.784,0.416-1.535,0.854-2.254,1.303l5.515,10.369
		c0.775-0.344,1.557-0.723,2.342-1.14C351.165,343.811,355.762,338.341,354.215,335.432z"/>
	<path fill="#FFF7AF" d="M316.391,295.843c-0.786,0.416-1.537,0.854-2.254,1.306l5.515,10.367c0.775-0.345,1.558-0.724,2.341-1.14
		c7.218-3.84,11.815-9.31,10.269-12.219C330.714,291.25,323.608,292.003,316.391,295.843z"/>
	<path fill="#ED5176" d="M383.082,261.923v13.1c0,0.389,0.314,0.702,0.702,0.702h19.257c0.388,0,0.701-0.313,0.701-0.702v-13.1
		c0-3.234-2.623-5.858-5.857-5.858h-8.944C385.705,256.065,383.082,258.689,383.082,261.923z"/>
	<path fill="#BA365F" d="M397.885,256.065h-5.144c2.646,0,4.788,2.624,4.788,5.858v13.1c0,0.389-0.257,0.702-0.574,0.702h6.084
		c0.389,0,0.701-0.313,0.701-0.702v-13.1C403.742,258.689,401.119,256.065,397.885,256.065z"/>
	<path fill="#804C68" d="M402.039,284.003v-8.278h-17.254v8.278c0,2.074-1.047,4.012-2.791,5.138
		c-2.996,1.935-7.494,5.11-8.751,7.472c-5.646,10.615-2.808,48.096-2.808,48.096h45.953c0,0,2.84-37.479-2.809-48.096
		c-1.257-2.361-5.756-5.537-8.751-7.472C403.087,288.015,402.039,286.078,402.039,284.003z"/>
	<path fill="#60364E" d="M413.581,296.613c-1.256-2.359-5.756-5.537-8.751-7.472c-1.742-1.125-2.79-3.063-2.79-5.138v-8.278h-5.901
		v8.278c0,2.074,0.856,4.012,2.281,5.138c2.447,1.935,6.126,5.11,7.152,7.472c4.616,10.615,2.294,48.096,2.294,48.096h8.523
		C416.39,344.708,419.229,307.228,413.581,296.613z"/>
	<path fill="#E9E9EA" d="M428.085,310.397h-28.77l-8.642,10.86v50.965h46.052v-50.965L428.085,310.397z"/>
	<path fill="#C5C4CC" d="M428.085,310.397h-5.738l7.315,10.86v50.965h7.063v-50.965L428.085,310.397z"/>
	<path fill="#C8E7F7" d="M402.093,298.216h23.214c1.534,0,2.778,1.242,2.778,2.777v9.402h-28.77v-9.402
		C399.316,299.458,400.559,298.216,402.093,298.216z"/>
	<path fill="#8CBCD6" d="M425.307,298.216h-5.516c1.412,0,2.556,1.145,2.556,2.557v9.624h5.738v-9.403
		C428.085,299.46,426.841,298.216,425.307,298.216z"/>
	<path fill="#7FAB38" d="M369.961,319.856c0.006-0.005,0.011-0.008,0.017-0.013c4.168-3.357,4.186-3.373,14.044-11.314
		c0.362-0.289,0.699-0.617,1.002-0.99c2.316-2.84,1.894-7.017-0.946-9.332c-2.839-2.315-7.017-1.893-9.333,0.945
		c-0.304,0.372-0.56,0.77-0.769,1.182c-5.801,11.252-5.813,11.272-8.265,16.029c-0.004,0.006-0.008,0.012-0.01,0.018
		c-0.001,0.002-0.001,0.004-0.002,0.004c-0.596,1.154-0.326,2.607,0.722,3.463c1.047,0.855,2.523,0.828,3.535,0.011
		C369.957,319.857,369.96,319.857,369.961,319.856z"/>
	<path fill="#7FAB38" d="M360.817,319.856c-0.006-0.005-0.011-0.008-0.017-0.013c-4.168-3.357-4.188-3.373-14.045-11.314
		c-0.361-0.289-0.698-0.617-1.002-0.99c-2.315-2.84-1.892-7.017,0.947-9.332c2.837-2.315,7.017-1.893,9.331,0.945
		c0.306,0.372,0.56,0.77,0.771,1.182c5.801,11.252,5.813,11.272,8.265,16.029c0.003,0.006,0.006,0.012,0.009,0.018
		c0.001,0.002,0.001,0.004,0.001,0.004c0.598,1.154,0.327,2.607-0.72,3.463s-2.525,0.828-3.537,0.011
		C360.818,319.857,360.817,319.857,360.817,319.856z"/>
	<path fill="#AED559" d="M369.615,317.828c0.002-0.012,0.005-0.021,0.007-0.031c1.702-8.055,1.71-8.092,5.737-27.141
		c0.15-0.695,0.229-1.416,0.229-2.156c0-5.635-4.567-10.201-10.201-10.201s-10.201,4.566-10.201,10.201
		c0,0.74,0.081,1.461,0.229,2.156c4.026,19.049,4.034,19.086,5.737,27.141c0.002,0.01,0.003,0.021,0.006,0.031
		c0.001,0,0.001,0.004,0.001,0.004h0.001c0.412,1.957,2.146,3.428,4.226,3.428c2.08,0,3.814-1.471,4.227-3.428
		C369.615,317.832,369.615,317.828,369.615,317.828z"/>
	<path fill="#FFCD34" d="M382.457,334.562c0.257-1.191,0.396-2.428,0.396-3.695c0-9.646-7.819-17.465-17.465-17.465
		s-17.465,7.819-17.465,17.465c0,1.27,0.14,2.504,0.396,3.695c7.184,33.611,7.2,33.689,10.109,47.307
		c0.648,3.25,3.517,5.699,6.959,5.699c3.441,0,6.312-2.449,6.96-5.699C375.257,368.251,375.275,368.173,382.457,334.562z"/>
	<path fill="#E69012" d="M365.388,313.402c-0.707,0-1.401,0.049-2.086,0.128c6.813,1.032,12.097,8.397,12.097,17.337
		c0,1.27-0.109,2.504-0.312,3.695c-5.65,33.611-5.663,33.689-7.952,47.305c-0.402,2.564-1.895,4.625-3.833,5.385
		c0.659,0.201,1.358,0.316,2.085,0.316c3.441,0,6.312-2.449,6.96-5.701c2.909-13.613,2.927-13.693,10.108-47.305
		c0.258-1.191,0.396-2.428,0.396-3.695C382.853,321.221,375.033,313.402,365.388,313.402z"/>
	<path fill="#AED559" d="M323.607,348.875l1.299,11.119l0.974,8.305l4.268,36.482c0.485,4.152,4.004,7.285,8.185,7.285h91.044
		c4.181,0,7.699-3.133,8.185-7.285l6.54-55.906H323.607z"/>
	<path fill="#7FAB38" d="M443.271,355.972l0.83-7.098H323.607l0.83,7.098H443.271z"/>
	<path fill="#7FAB38" d="M436.253,348.875l-6.54,55.906c-0.486,4.152-4.004,7.285-8.186,7.285h7.848
		c4.181,0,7.699-3.133,8.185-7.285l6.54-55.906H436.253z"/>
	<path fill="#90B6E1" d="M315.071,336.837v7.685c0,2.403,1.95,4.354,4.354,4.354h128.857c2.404,0,4.354-1.951,4.354-4.354v-7.685
		c0-2.405-1.95-4.354-4.354-4.354H319.424C317.021,332.483,315.071,334.432,315.071,336.837z"/>
	<path fill="#5692D8" d="M448.282,332.483h-7.973c2.404,0,4.354,1.949,4.354,4.354v7.685c0,2.403-1.948,4.354-4.354,4.354h7.973
		c2.404,0,4.354-1.951,4.354-4.354v-7.685C452.636,334.432,450.687,332.483,448.282,332.483z"/>
	<path fill="#575B7A" d="M455.916,398.976c-1.711,0.242-3.479-0.535-4.426-2.109l-31.242-52.063
		c-1.261-2.101-0.579-4.825,1.521-6.085c2.102-1.262,4.825-0.58,6.087,1.521l31.242,52.063c1.261,2.1,0.58,4.824-1.521,6.086
		C457.052,398.703,456.488,398.894,455.916,398.976z"/>
	<path fill="#575B7A" d="M311.789,398.976c1.712,0.242,3.48-0.535,4.427-2.109l31.241-52.063c1.262-2.101,0.58-4.825-1.52-6.085
		c-2.101-1.262-4.825-0.58-6.085,1.521l-31.244,52.063c-1.261,2.102-0.58,4.824,1.521,6.086
		C310.655,398.703,311.219,398.894,311.789,398.976z"/>
	<g>
		<path fill="#7FAB38" d="M357.186,371.785c0,2.172-1.76,3.934-3.934,3.934c-2.173,0-3.933-1.762-3.933-3.934v-7.789
			c0-2.172,1.76-3.934,3.933-3.934c2.172,0,3.934,1.762,3.934,3.934V371.785z"/>
		<path fill="#7FAB38" d="M372.487,397.234c0,2.172-1.762,3.934-3.934,3.934s-3.935-1.762-3.935-3.934v-7.79
			c0-2.172,1.762-3.935,3.935-3.935c2.172,0,3.934,1.763,3.934,3.935V397.234z"/>
		<path fill="#7FAB38" d="M387.786,371.785c0,2.172-1.76,3.934-3.933,3.934c-2.172,0-3.934-1.762-3.934-3.934v-7.789
			c0-2.172,1.762-3.934,3.934-3.934s3.933,1.762,3.933,3.934V371.785z"/>
		<path fill="#7FAB38" d="M403.087,397.234c0,2.172-1.762,3.934-3.935,3.934c-2.172,0-3.934-1.762-3.934-3.934v-7.79
			c0-2.172,1.762-3.935,3.934-3.935s3.935,1.763,3.935,3.935V397.234z"/>
		<path fill="#7FAB38" d="M418.387,371.785c0,2.172-1.76,3.934-3.934,3.934c-2.172,0-3.933-1.762-3.933-3.934v-7.789
			c0-2.172,1.76-3.934,3.933-3.934c2.172,0,3.934,1.762,3.934,3.934V371.785z"/>
	</g>
	<path fill="#C5C4CC" d="M432.813,323.542h-11.635c-1.264,0-2.285-1.022-2.285-2.285c0-1.262,1.021-2.284,2.285-2.284h11.635
		c1.263,0,2.285,1.022,2.285,2.284C435.099,322.52,434.076,323.542,432.813,323.542z"/>
</g>
<g>
	<path fill="#82D8D4" d="M610.422,172.65h-15.5l-4.875,14.25l-4.875-14.25h-29.25l-4.875,14.25l-4.875-14.25h-29.25l-4.875,14.25
		l-4.875-14.25h-15.501c-7.594,0-13.749-6.156-13.749-13.75v-50.876c0-7.593,6.155-13.749,13.749-13.749l0,0h118.751
		c7.594,0,13.749,6.156,13.749,13.749V158.9C624.171,166.494,618.016,172.65,610.422,172.65z"/>
	<path fill="#B3F2ED" d="M496.546,99.15h109.001c7.594,0,13.75,6.156,13.75,13.749v40.751c0,7.594-6.156,13.75-13.75,13.75H496.546
		c-7.594,0-13.749-6.156-13.749-13.75v-40.751C482.797,105.306,488.952,99.15,496.546,99.15z"/>
	<circle fill="#E9CD4B" cx="594.922" cy="133.275" r="17.063"/>
	<path fill="#816892" d="M495.822,214.27c4.364-3.155,5.344-9.25,2.189-13.613c-3.155-4.364-9.25-5.345-13.614-2.189
		c-4.364,3.156-5.344,9.25-2.189,13.613c0.608,0.842,1.348,1.581,2.189,2.189c-3.864,1.312-6.467,4.935-6.475,9.016v17.241h24.375
		v-17.241C502.287,219.204,499.686,215.581,495.822,214.27z"/>
	<path fill="#6B567A" d="M480.359,206.4c0.004,3.119,1.506,6.047,4.038,7.869c-3.864,1.312-6.467,4.935-6.475,9.016v17.241h12.188
		V196.65C484.725,196.65,480.359,201.016,480.359,206.4z"/>
	<path fill="#E9C51E" d="M537.259,214.27c4.362-3.155,5.344-9.25,2.188-13.613c-3.153-4.364-9.249-5.345-13.612-2.189
		c-4.364,3.155-5.345,9.25-2.189,13.613c0.607,0.842,1.347,1.581,2.189,2.189c-3.864,1.312-6.467,4.935-6.476,9.016v17.241h24.375
		v-17.241C543.725,219.204,541.123,215.581,537.259,214.27z"/>
	<path fill="#D4B31B" d="M521.797,206.4c0.004,3.119,1.506,6.047,4.038,7.869c-3.864,1.312-6.467,4.935-6.476,9.016v17.241h12.188
		V196.65C526.161,196.65,521.797,201.016,521.797,206.4z"/>
	<path fill="#DE2F55" d="M576.259,214.27c4.363-3.155,5.344-9.25,2.188-13.613c-3.154-4.364-9.25-5.345-13.613-2.189
		c-4.363,3.155-5.345,9.25-2.188,13.613c0.607,0.842,1.347,1.581,2.188,2.189c-3.864,1.312-6.468,4.935-6.476,9.016v17.241h24.375
		v-17.241C582.725,219.204,580.123,215.581,576.259,214.27z"/>
	<path fill="#C43755" d="M560.797,206.4c0.004,3.119,1.506,6.047,4.037,7.869c-3.864,1.312-6.468,4.935-6.476,9.016v17.241h12.188
		V196.65C565.161,196.65,560.797,201.016,560.797,206.4z"/>
	<path fill="#F79694" d="M617.697,214.27c4.364-3.155,5.345-9.25,2.189-13.613c-3.155-4.364-9.25-5.345-13.614-2.189
		c-4.363,3.155-5.344,9.25-2.189,13.613c0.608,0.842,1.349,1.581,2.189,2.189c-3.864,1.312-6.467,4.935-6.475,9.016v17.241h24.375
		v-17.241C624.163,219.204,621.561,215.581,617.697,214.27z"/>
	<path fill="#D9918F" d="M602.235,206.4c0.004,3.119,1.506,6.047,4.037,7.869c-3.864,1.312-6.467,4.935-6.475,9.016v17.241h12.188
		V196.65C606.599,196.65,602.235,201.016,602.235,206.4z"/>
	<g>
		<path fill="#816892" d="M494.27,127.687l-3.447-3.447l3.153-3.154l-1.429-1.43c-1.904-1.905-1.903-4.992,0.002-6.896l0,0
			l3.149-3.147l3.444,3.449l-3.15,3.147l1.43,1.429c1.898,1.905,1.899,4.987,0.001,6.892L494.27,127.687z"/>
		<path fill="#816892" d="M504.02,127.687l-3.447-3.447l3.153-3.154l-1.429-1.43c-1.904-1.905-1.903-4.992,0.002-6.896l0,0
			l3.149-3.147l3.444,3.449l-3.15,3.147l1.43,1.429c1.898,1.905,1.899,4.987,0.001,6.892L504.02,127.687z"/>
		<path fill="#816892" d="M513.77,127.687l-3.447-3.447l3.153-3.154l-1.429-1.43c-1.904-1.905-1.902-4.992,0.002-6.896l0,0
			l3.149-3.147l3.444,3.449l-3.15,3.147l1.43,1.429c1.898,1.905,1.899,4.987,0.001,6.892L513.77,127.687z"/>
	</g>
	<path fill="#59BC19" d="M565.672,124.013v-12.675h-7.313v6.825l-7.313-6.825l-21.938,19.5h7.313v24.375h29.25v-24.375h7.313
		L565.672,124.013z"/>
	<path fill="#F2872F" d="M595.644,130.943c-2.747-0.855-3.159-1.188-3.159-2.543c0-1.347,1.091-2.438,2.438-2.438
		c1.346,0,2.438,1.091,2.438,2.438h4.875c-0.01-3.089-1.962-5.837-4.875-6.864v-5.324h-4.875v5.324
		c-2.914,1.026-4.866,3.775-4.875,6.864c0,5.145,4.121,6.429,6.584,7.197c2.751,0.857,3.166,1.192,3.166,2.553
		c0,1.346-1.092,2.438-2.438,2.438c-1.348,0-2.438-1.092-2.438-2.438h-4.875c0.009,3.088,1.961,5.837,4.875,6.863v5.324h4.875
		v-5.324c2.913-1.026,4.865-3.775,4.875-6.863C602.235,132.998,598.109,131.712,595.644,130.943L595.644,130.943z"/>
	<path fill="#F79694" d="M492.547,145.463l2.158-5.398c1.642-4.101,5.612-6.789,10.029-6.789s8.388,2.688,10.028,6.789l2.159,5.398"
		/>
	<path fill="#DE2F55" d="M490.11,145.463h29.25l-4.875,9.625h-19.5L490.11,145.463z"/>
</g>
<g>
	<path fill="#EAB14D" d="M727.365,315.462h-46.728v-57.592c0-0.963,0.781-1.744,1.744-1.744h43.237c0.963,0,1.744,0.781,1.744,1.744
		L727.365,315.462L727.365,315.462z"/>
	<path fill="#E49542" d="M721.96,256.126v59.336h5.402v-57.592c0-0.963-0.78-1.744-1.744-1.744H721.96L721.96,256.126z"/>
	<path fill="#DF6B57" d="M706.955,269.572h-5.908c-0.776,0-1.405-0.631-1.405-1.406v-12.037h8.719v12.037
		C708.36,268.941,707.731,269.572,706.955,269.572L706.955,269.572z"/>
	<path fill="#F1CB86" d="M781.011,366.875h-71.607v-70.66c0-1.504,1.219-2.723,2.724-2.723h67.141c0.963,0,1.744,0.78,1.744,1.744
		L781.011,366.875L781.011,366.875z"/>
	<path fill="#ECBE6B" d="M775.608,293.492v73.383h5.403v-71.639c0-0.964-0.781-1.744-1.744-1.744H775.608z"/>
	<path fill="#365E7D" d="M748.161,306.934h-5.907c-0.776,0-1.405-0.629-1.405-1.405v-12.037h8.719v12.037
		C749.567,306.305,748.938,306.934,748.161,306.934z"/>
	<path fill="#EAB14D" d="M735.397,412.005h-82.162c-1.231,0-2.229-0.998-2.229-2.229v-53.714c0-0.964,0.779-1.745,1.743-1.745
		h80.793c1.024,0,1.855,0.831,1.855,1.855V412.005z"/>
	<path fill="#E49542" d="M729.993,354.318v57.688h5.403v-55.832c0-1.024-0.831-1.855-1.854-1.855H729.993L729.993,354.318z"/>
	<path fill="#365E7D" d="M696.155,367.761h-5.909c-0.774,0-1.403-0.629-1.403-1.404v-12.039h8.719v12.039
		C697.56,367.132,696.93,367.761,696.155,367.761L696.155,367.761z"/>
	<path fill="#EAB14D" d="M804.773,412.005h-69.376v-45.133h69.862c0.964,0,1.745,0.781,1.745,1.746v41.156
		C807.004,411.007,806.005,412.005,804.773,412.005z"/>
	<path fill="#E49542" d="M801.601,366.875v45.133h3.172c1.232,0,2.231-0.998,2.231-2.23v-41.156c0-0.965-0.781-1.746-1.745-1.746
		H801.601L801.601,366.875z"/>
	<path fill="#DF6B57" d="M774.155,380.317h-5.908c-0.775,0-1.404-0.629-1.404-1.405v-12.037h8.719v12.037
		C775.56,379.688,774.931,380.317,774.155,380.317z"/>
	<path fill="#F1CB86" d="M709.404,354.318h-46.727v-37.109c0-0.965,0.78-1.746,1.744-1.746h44.981L709.404,354.318L709.404,354.318z
		"/>
	<path fill="#ECBE6B" d="M704,315.462h5.402v38.854H704V315.462z"/>
	<path fill="#DF6B57" d="M688.994,328.906h-5.907c-0.776,0-1.405-0.629-1.405-1.404v-12.039h8.719v12.039
		C690.4,328.277,689.771,328.906,688.994,328.906z"/>
</g>
<g>
	<g>
		<path fill="#B3DAFE" d="M844.705,140.181l-33.797,11.469v34.162l33.797,11.469c1.126,0.383,2.295-0.455,2.295-1.646v-53.811
			C847,140.636,845.831,139.798,844.705,140.181z"/>
		<path fill="#0593FC" d="M790.072,185.811c-0.104,0-0.207-0.006-0.311-0.008v26.483c0,3.411,2.763,6.178,6.174,6.183
			c0.06,0,0.119,0,0.179,0c3.417,0.005,6.19-2.765,6.19-6.183v-26.475H790.072z"/>
		<path fill="#60B7FF" d="M851.671,158.701H847v20.069h4.671c2.354,0,4.265-1.91,4.265-4.265v-11.54
			C855.936,160.611,854.027,158.701,851.671,158.701z"/>
		<path fill="#FE646F" d="M790.072,151.649c-9.434,0-17.081,7.647-17.081,17.08c0,9.434,7.647,17.081,17.081,17.081h20.837v-34.161
			C810.013,151.649,790.905,151.649,790.072,151.649z"/>
		<path fill="#8AC9FE" d="M844.705,140.181l-4.813,1.633v45.292c0,1.189-1.169,2.027-2.295,1.645l-26.688-9.057v6.118l33.798,11.469
			c1.125,0.383,2.295-0.455,2.295-1.646v-53.811C847,140.636,845.831,139.798,844.705,140.181z"/>
		<path fill="#FD4755" d="M773.269,165.674c-0.18,0.992-0.278,2.013-0.278,3.056c0,9.434,7.647,17.081,17.081,17.081h20.838v-6.112
			h-20.838C781.682,179.698,774.71,173.647,773.269,165.674z"/>
		<g>
			<path fill="#0182FC" d="M790.072,185.811c-0.104,0-0.207-0.006-0.311-0.008v0.008H790.072z"/>
			<path fill="#0182FC" d="M802.303,185.811h-6.397v26.476c0,2.28-1.234,4.271-3.071,5.343c0.91,0.531,1.971,0.838,3.102,0.839
				c0.06,0,0.119,0,0.179,0.001c3.417,0.005,6.19-2.765,6.19-6.183L802.303,185.811z"/>
		</g>
	</g>
	<path fill="#01998D" d="M904.26,141.335c-11.489,0-21.146,7.834-23.925,18.451l-8.778,4.602c-1.354,0.709-1.354,2.647,0,3.356
		l8.778,4.602c2.778,10.617,12.436,18.451,23.925,18.451c13.658,0,24.729-11.072,24.729-24.731
		C928.99,152.407,917.918,141.335,904.26,141.335L904.26,141.335z"/>
	<path fill="#FD4755" d="M897.346,95.935c-9.658-9.658-25.317-9.658-34.977,0c-8.123,8.124-9.412,20.492-3.869,29.964l-2.954,9.461
		c-0.455,1.459,0.915,2.829,2.374,2.374l9.461-2.954c9.473,5.542,21.841,4.254,29.965-3.87
		C907.004,121.252,907.004,105.593,897.346,95.935L897.346,95.935z"/>
	<g>
		<path fill="#C6F2E7" d="M869.258,126.34c-0.605,0-1.212-0.231-1.676-0.694c-0.925-0.925-0.925-2.425,0-3.351l20.995-20.996
			c0.927-0.925,2.427-0.925,3.353,0c0.925,0.925,0.925,2.425,0,3.351l-20.996,20.995C870.471,126.108,869.865,126.34,869.258,126.34
			L869.258,126.34z"/>
	</g>
	<g>
		<path fill="#C6F2E7" d="M871.715,111.395c-3.657,0-6.633-2.976-6.633-6.633c0-3.658,2.976-6.634,6.633-6.634
			c3.658,0,6.634,2.976,6.634,6.634C878.349,108.419,875.373,111.395,871.715,111.395z M871.715,102.867
			c-1.045,0-1.896,0.85-1.896,1.895c0,1.045,0.851,1.896,1.896,1.896s1.896-0.85,1.896-1.896
			C873.611,103.717,872.761,102.867,871.715,102.867z"/>
	</g>
	<g>
		<path fill="#C6F2E7" d="M888.021,128.594c-3.657,0-6.634-2.976-6.634-6.634c0-3.657,2.977-6.633,6.634-6.633
			s6.634,2.976,6.634,6.633C894.655,125.618,891.678,128.594,888.021,128.594z M888.021,120.065c-1.045,0-1.896,0.85-1.896,1.895
			s0.851,1.896,1.896,1.896s1.896-0.851,1.896-1.896S889.066,120.065,888.021,120.065z"/>
	</g>
	<path fill="#FFC344" d="M898.24,201.222c-8.123-8.123-20.49-9.412-29.964-3.869l-9.461-2.954c-1.459-0.456-2.83,0.914-2.374,2.373
		l2.954,9.461c-5.542,9.473-4.254,21.841,3.87,29.965c9.658,9.658,25.316,9.658,34.975,0
		C907.899,226.538,907.899,210.88,898.24,201.222L898.24,201.222z"/>
	<g>
		<path fill="#C6F2E7" d="M907.862,164.04c-0.385-0.142-0.765-0.284-1.14-0.428v-7.406c1.951,0.569,3.308,1.652,3.354,1.691
			c1.002,0.834,2.49,0.702,3.329-0.297c0.842-1.001,0.713-2.496-0.289-3.337c-0.153-0.13-2.714-2.241-6.396-2.927v-2.334
			c0-1.309-1.061-2.368-2.368-2.368s-2.369,1.061-2.369,2.368v2.386c-0.3,0.065-0.602,0.139-0.907,0.23
			c-3.18,0.958-5.428,3.452-5.865,6.509c-0.409,2.851,0.823,5.591,3.221,7.153c0.104,0.068,0.215,0.129,0.329,0.18
			c0.087,0.039,1.37,0.609,3.224,1.37v9.019c-1.615-0.479-3.066-1.353-4.134-2.53c-0.878-0.97-2.377-1.043-3.347-0.164
			c-0.97,0.878-1.043,2.377-0.164,3.346c1.94,2.143,4.676,3.627,7.645,4.219v2.409c0,1.309,1.062,2.369,2.369,2.369
			s2.368-1.061,2.368-2.369v-2.282c4.025-0.692,7.3-3.575,7.955-7.242C915.248,170.407,913.757,166.216,907.862,164.04
			L907.862,164.04z M900.887,161.22c-1.594-1.182-1.372-3.86,1.098-4.896v5.372C901.482,161.479,901.099,161.313,900.887,161.22z
			 M910.013,172.771c-0.234,1.312-1.463,2.654-3.291,3.219v-7.307C909.107,169.687,910.3,171.159,910.013,172.771z"/>
		<path fill="#C6F2E7" d="M894.187,216.611c-0.656-0.749-1.604-1.178-2.601-1.178h-1.955v-3.021c0-4.876-3.969-8.844-8.845-8.844
			s-8.844,3.968-8.844,8.844v3.021h-2.021c-0.997,0-1.945,0.429-2.603,1.178c-0.656,0.75-0.959,1.746-0.828,2.734v-0.001
			l1.528,11.568c0.227,1.713,1.701,3.006,3.43,3.006h18.608c1.729,0,3.202-1.293,3.429-3.006l1.528-11.567
			C895.146,218.357,894.844,217.361,894.187,216.611L894.187,216.611z M876.682,212.413c0-2.264,1.842-4.104,4.104-4.104
			c2.264,0,4.105,1.841,4.105,4.104v3.021h-8.211L876.682,212.413L876.682,212.413z M871.189,218.725L871.189,218.725
			C871.189,218.725,871.189,218.726,871.189,218.725L871.189,218.725z M888.936,229.18h-16.365l-1.189-9.009h18.746L888.936,229.18z
			"/>
	</g>
</g>
<g>
	<path d="M18.238,17.828c-0.065,1.435-0.452,2.702-1.16,3.802c-0.708,1.1-1.702,1.952-2.98,2.556
		c-1.279,0.604-2.74,0.906-4.383,0.906c-2.709,0-4.843-0.883-6.4-2.648c-1.557-1.765-2.336-4.257-2.336-7.477v-1.02
		c0-2.021,0.353-3.788,1.056-5.303C2.735,7.13,3.748,5.959,5.069,5.133C6.391,4.307,7.92,3.894,9.657,3.894
		c2.501,0,4.512,0.659,6.031,1.975c1.521,1.317,2.385,3.132,2.591,5.445h-4.955c-0.038-1.255-0.354-2.157-0.949-2.705
		c-0.596-0.548-1.501-0.821-2.72-0.821c-1.236,0-2.143,0.462-2.719,1.388c-0.576,0.926-0.878,2.402-0.906,4.432v1.458
		c0,2.2,0.276,3.771,0.828,4.715c0.554,0.944,1.503,1.416,2.854,1.416c1.142,0,2.016-0.27,2.62-0.807
		c0.604-0.538,0.925-1.393,0.963-2.563L18.238,17.828L18.238,17.828z"/>
	<path d="M29.496,23.152c-1.011,1.293-2.374,1.94-4.093,1.94c-1.68,0-2.951-0.488-3.815-1.466c-0.863-0.977-1.295-2.381-1.295-4.212
		V9.487h4.771v9.955c0,1.312,0.638,1.968,1.912,1.968c1.095,0,1.874-0.392,2.336-1.175V9.487h4.8v15.321h-4.475L29.496,23.152z"/>
	<path d="M44.746,20.504c0-0.406-0.212-0.731-0.638-0.977c-0.425-0.246-1.231-0.5-2.421-0.765c-1.188-0.265-2.171-0.611-2.944-1.041
		c-0.774-0.43-1.364-0.951-1.771-1.565c-0.406-0.614-0.609-1.317-0.609-2.11c0-1.407,0.581-2.565,1.742-3.477
		c1.161-0.911,2.682-1.366,4.561-1.366c2.02,0,3.644,0.458,4.871,1.374c1.227,0.916,1.841,2.119,1.841,3.611H44.59
		c0-1.227-0.646-1.841-1.94-1.841c-0.5,0-0.92,0.139-1.26,0.418c-0.34,0.278-0.51,0.625-0.51,1.041c0,0.425,0.208,0.77,0.623,1.034
		c0.415,0.264,1.079,0.481,1.989,0.651c0.91,0.17,1.711,0.373,2.399,0.609c2.303,0.793,3.455,2.214,3.455,4.262
		c0,1.397-0.621,2.535-1.862,3.413c-1.24,0.878-2.848,1.317-4.82,1.317c-1.313,0-2.483-0.236-3.513-0.708
		c-1.028-0.472-1.832-1.114-2.406-1.926c-0.575-0.812-0.864-1.666-0.864-2.563h4.46c0.019,0.708,0.255,1.225,0.708,1.55
		c0.453,0.326,1.034,0.489,1.742,0.489c0.65,0,1.14-0.132,1.465-0.396C44.583,21.273,44.746,20.929,44.746,20.504z"/>
	<path d="M57.136,5.678v3.809h2.521V12.8h-2.521v7.009c0,0.576,0.104,0.977,0.313,1.204c0.207,0.227,0.617,0.34,1.231,0.34
		c0.472,0,0.869-0.028,1.189-0.085v3.413c-0.859,0.274-1.757,0.411-2.69,0.411c-1.643,0-2.854-0.387-3.639-1.161
		s-1.175-1.949-1.175-3.526v-7.604H50.41V9.487h1.953V5.678H57.136z"/>
	<path d="M60.506,17.006c0-1.529,0.297-2.891,0.892-4.085c0.596-1.194,1.449-2.112,2.563-2.754s2.421-0.963,3.922-0.963
		c2.294,0,4.102,0.71,5.423,2.131c1.322,1.421,1.982,3.354,1.982,5.799v0.17c0,2.388-0.663,4.283-1.989,5.686
		c-1.327,1.401-3.123,2.103-5.388,2.103c-2.182,0-3.933-0.654-5.253-1.961c-1.322-1.308-2.034-3.08-2.139-5.317L60.506,17.006z
		 M65.278,17.304c0,1.416,0.223,2.455,0.666,3.115c0.444,0.66,1.101,0.991,1.969,0.991c1.698,0,2.567-1.308,2.604-3.922v-0.481
		c0-2.747-0.878-4.121-2.634-4.121c-1.595,0-2.459,1.185-2.591,3.554L65.278,17.304z"/>
	<path d="M81.902,9.487l0.156,1.798c1.085-1.388,2.544-2.082,4.375-2.082c1.936,0,3.243,0.77,3.922,2.308
		c1.039-1.539,2.54-2.308,4.503-2.308c3.106,0,4.701,1.878,4.786,5.636v9.969h-4.786v-9.671c0-0.784-0.132-1.354-0.396-1.713
		c-0.265-0.359-0.746-0.538-1.444-0.538c-0.943,0-1.646,0.42-2.109,1.26l0.014,0.198v10.464h-4.786v-9.643
		c0-0.802-0.127-1.383-0.382-1.742c-0.255-0.359-0.741-0.538-1.458-0.538c-0.916,0-1.614,0.42-2.096,1.26v10.663h-4.772V9.487
		H81.902z"/>
	<path d="M109.784,25.092c-2.352,0-4.254-0.701-5.707-2.103c-1.454-1.402-2.182-3.227-2.182-5.473V17.12
		c0-1.567,0.291-2.95,0.871-4.149c0.581-1.199,1.428-2.126,2.542-2.782s2.437-0.984,3.965-0.984c2.152,0,3.853,0.668,5.099,2.004
		c1.246,1.335,1.869,3.198,1.869,5.586v1.855h-9.487c0.17,0.859,0.543,1.534,1.119,2.025c0.576,0.491,1.321,0.736,2.236,0.736
		c1.511,0,2.69-0.529,3.54-1.586l2.182,2.577c-0.596,0.821-1.438,1.475-2.528,1.961C112.212,24.849,111.039,25.092,109.784,25.092z
		 M109.246,12.886c-1.397,0-2.229,0.925-2.492,2.775h4.813v-0.368c0.02-0.765-0.175-1.357-0.581-1.777
		C110.582,13.096,110.001,12.886,109.246,12.886z"/>
	<path d="M127.427,13.806l-1.572-0.113c-1.501,0-2.464,0.472-2.889,1.416v9.7h-4.772V9.487h4.476l0.156,1.968
		c0.802-1.501,1.921-2.251,3.355-2.251c0.51,0,0.954,0.057,1.331,0.17L127.427,13.806z"/>
	<path d="M147.223,19.329c0-0.727-0.257-1.293-0.771-1.699c-0.515-0.406-1.418-0.826-2.711-1.26
		c-1.294-0.434-2.352-0.854-3.173-1.26c-2.671-1.312-4.007-3.115-4.007-5.409c0-1.142,0.333-2.15,0.998-3.023
		c0.666-0.874,1.607-1.553,2.825-2.039c1.218-0.486,2.586-0.729,4.106-0.729c1.481,0,2.811,0.264,3.985,0.793
		c1.175,0.529,2.088,1.281,2.74,2.259c0.651,0.977,0.977,2.093,0.977,3.349h-4.956c0-0.84-0.257-1.492-0.771-1.954
		c-0.515-0.462-1.211-0.694-2.089-0.694c-0.887,0-1.588,0.196-2.104,0.587c-0.515,0.392-0.771,0.89-0.771,1.494
		c0,0.529,0.283,1.008,0.85,1.438c0.566,0.429,1.563,0.873,2.988,1.331s2.596,0.951,3.512,1.479c2.229,1.284,3.342,3.054,3.342,5.31
		c0,1.803-0.68,3.219-2.039,4.248c-1.358,1.029-3.224,1.543-5.593,1.543c-1.671,0-3.184-0.3-4.539-0.899
		c-1.354-0.599-2.374-1.42-3.059-2.464c-0.685-1.043-1.026-2.244-1.026-3.604h4.984c0,1.104,0.286,1.919,0.855,2.442
		c0.571,0.524,1.499,0.786,2.783,0.786c0.821,0,1.471-0.177,1.947-0.531C146.985,20.469,147.223,19.971,147.223,19.329z"/>
	<path d="M161.936,25.092c-2.351,0-4.253-0.701-5.707-2.103c-1.454-1.402-2.181-3.227-2.181-5.473V17.12
		c0-1.567,0.291-2.95,0.871-4.149c0.581-1.199,1.428-2.126,2.542-2.782s2.436-0.984,3.965-0.984c2.152,0,3.852,0.668,5.098,2.004
		c1.246,1.335,1.869,3.198,1.869,5.586v1.855h-9.486c0.17,0.859,0.543,1.534,1.118,2.025c0.576,0.491,1.322,0.736,2.237,0.736
		c1.51,0,2.69-0.529,3.54-1.586l2.181,2.577c-0.595,0.821-1.437,1.475-2.527,1.961C164.364,24.849,163.191,25.092,161.936,25.092z
		 M161.397,12.886c-1.396,0-2.228,0.925-2.492,2.775h4.814v-0.368c0.019-0.765-0.175-1.357-0.581-1.777
		C162.733,13.096,162.153,12.886,161.397,12.886z"/>
	<path d="M169.752,17.035c0-1.548,0.255-2.917,0.765-4.106s1.241-2.107,2.195-2.754c0.954-0.646,2.063-0.97,3.328-0.97
		c1.595,0,2.841,0.538,3.737,1.614l0.171-1.331h4.332v14.741c0,1.35-0.313,2.523-0.941,3.519c-0.627,0.996-1.536,1.76-2.727,2.294
		c-1.188,0.533-2.567,0.8-4.135,0.8c-1.124,0-2.211-0.212-3.264-0.637s-1.857-0.977-2.415-1.657l1.997-2.804
		c0.887,1.048,2.058,1.572,3.512,1.572c2.115,0,3.172-1.085,3.172-3.257v-0.481c-0.916,1.01-2.071,1.515-3.469,1.515
		c-1.869,0-3.379-0.715-4.531-2.146c-1.151-1.43-1.728-3.344-1.728-5.742V17.035L169.752,17.035z M174.538,17.332
		c0,1.255,0.235,2.249,0.708,2.98c0.472,0.732,1.133,1.098,1.981,1.098c1.029,0,1.779-0.345,2.251-1.034v-6.443
		c-0.462-0.699-1.204-1.048-2.223-1.048c-0.851,0-1.515,0.38-1.997,1.14C174.779,14.786,174.538,15.888,174.538,17.332z"/>
	<path d="M191.502,9.487l0.156,1.798c1.085-1.388,2.544-2.082,4.375-2.082c1.935,0,3.242,0.77,3.922,2.308
		c1.039-1.539,2.54-2.308,4.503-2.308c3.105,0,4.701,1.878,4.786,5.636v9.969h-4.786v-9.671c0-0.784-0.132-1.354-0.396-1.713
		c-0.264-0.359-0.746-0.538-1.443-0.538c-0.944,0-1.647,0.42-2.11,1.26l0.014,0.198v10.464h-4.786v-9.643
		c0-0.802-0.127-1.383-0.382-1.742c-0.255-0.359-0.741-0.538-1.458-0.538c-0.916,0-1.613,0.42-2.096,1.26v10.663h-4.772V9.487
		H191.502z"/>
	<path d="M219.383,25.092c-2.351,0-4.253-0.701-5.707-2.103c-1.454-1.402-2.181-3.227-2.181-5.473V17.12
		c0-1.567,0.291-2.95,0.871-4.149c0.58-1.199,1.428-2.126,2.542-2.782c1.113-0.656,2.436-0.984,3.965-0.984
		c2.151,0,3.852,0.668,5.098,2.004c1.246,1.335,1.869,3.198,1.869,5.586v1.855h-9.487c0.17,0.859,0.543,1.534,1.119,2.025
		c0.576,0.491,1.322,0.736,2.237,0.736c1.51,0,2.689-0.529,3.54-1.586l2.181,2.577c-0.595,0.821-1.437,1.475-2.528,1.961
		C221.812,24.849,220.639,25.092,219.383,25.092z M218.845,12.886c-1.397,0-2.228,0.925-2.492,2.775h4.814v-0.368
		c0.019-0.765-0.175-1.357-0.581-1.777C220.181,13.096,219.601,12.886,218.845,12.886z"/>
	<path d="M232.142,9.487l0.156,1.798c1.057-1.388,2.516-2.082,4.375-2.082c1.595,0,2.787,0.477,3.575,1.43
		c0.789,0.954,1.196,2.388,1.225,4.305v9.87h-4.786v-9.671c0-0.774-0.156-1.343-0.467-1.707c-0.312-0.363-0.878-0.545-1.699-0.545
		c-0.935,0-1.628,0.368-2.082,1.104v10.818h-4.771V9.487H232.142z"/>
	<path d="M249.672,5.678v3.809h2.521V12.8h-2.521v7.009c0,0.576,0.104,0.977,0.312,1.204s0.618,0.34,1.232,0.34
		c0.472,0,0.869-0.028,1.188-0.085v3.413c-0.858,0.274-1.756,0.411-2.689,0.411c-1.644,0-2.855-0.387-3.639-1.161
		c-0.784-0.774-1.176-1.949-1.176-3.526v-7.604h-1.954V9.487h1.954V5.678H249.672z"/>
	<path d="M262.699,24.809c-0.171-0.312-0.321-0.77-0.453-1.374c-0.878,1.104-2.105,1.657-3.683,1.657
		c-1.443,0-2.671-0.437-3.682-1.31c-1.01-0.874-1.515-1.971-1.515-3.292c0-1.662,0.613-2.917,1.841-3.767
		c1.227-0.85,3.011-1.274,5.353-1.274h1.474v-0.811c0-1.414-0.609-2.12-1.827-2.12c-1.133,0-1.699,0.56-1.699,1.679h-4.772
		c0-1.48,0.631-2.683,1.891-3.606c1.261-0.924,2.868-1.386,4.821-1.386c1.954,0,3.498,0.477,4.631,1.43
		c1.132,0.953,1.713,2.261,1.741,3.922v6.783c0.02,1.407,0.236,2.483,0.651,3.229v0.241L262.699,24.809L262.699,24.809z
		 M259.711,21.693c0.595,0,1.088-0.127,1.479-0.382c0.393-0.255,0.672-0.543,0.843-0.864v-2.45h-1.389
		c-1.662,0-2.492,0.746-2.492,2.237c0,0.434,0.146,0.786,0.439,1.055C258.885,21.559,259.258,21.693,259.711,21.693z"/>
	<path d="M275.019,5.678v3.809h2.521V12.8h-2.521v7.009c0,0.576,0.104,0.977,0.313,1.204s0.618,0.34,1.231,0.34
		c0.473,0,0.869-0.028,1.189-0.085v3.413c-0.859,0.274-1.756,0.411-2.69,0.411c-1.643,0-2.854-0.387-3.639-1.161
		s-1.175-1.949-1.175-3.526v-7.604h-1.954V9.487h1.954V5.678H275.019z"/>
	<path d="M279.38,5.537c0-0.68,0.246-1.237,0.736-1.671c0.489-0.434,1.128-0.651,1.911-0.651c0.784,0,1.421,0.217,1.912,0.651
		c0.491,0.434,0.736,0.991,0.736,1.671c0,0.68-0.246,1.237-0.736,1.671c-0.489,0.434-1.128,0.651-1.912,0.651
		c-0.783,0-1.421-0.217-1.911-0.651C279.625,6.774,279.38,6.216,279.38,5.537z M284.449,24.809h-4.786V9.487h4.786V24.809z"/>
	<path d="M286.786,17.006c0-1.529,0.297-2.891,0.892-4.085c0.595-1.194,1.449-2.112,2.563-2.754
		c1.113-0.642,2.421-0.963,3.922-0.963c2.294,0,4.102,0.71,5.423,2.131c1.322,1.421,1.981,3.354,1.981,5.799v0.17
		c0,2.388-0.663,4.283-1.988,5.686c-1.327,1.401-3.123,2.103-5.389,2.103c-2.181,0-3.932-0.654-5.253-1.961
		c-1.321-1.308-2.034-3.08-2.138-5.317L286.786,17.006z M291.558,17.304c0,1.416,0.222,2.455,0.666,3.115s1.101,0.991,1.968,0.991
		c1.699,0,2.568-1.308,2.605-3.922v-0.481c0-2.747-0.878-4.121-2.634-4.121c-1.596,0-2.459,1.185-2.592,3.554L291.558,17.304z"/>
	<path d="M308.054,9.487l0.156,1.798c1.057-1.388,2.516-2.082,4.375-2.082c1.595,0,2.786,0.477,3.574,1.43
		c0.789,0.954,1.197,2.388,1.226,4.305v9.87H312.6v-9.671c0-0.774-0.156-1.343-0.467-1.707c-0.313-0.363-0.878-0.545-1.699-0.545
		c-0.936,0-1.628,0.368-2.082,1.104v10.818h-4.771V9.487H308.054z"/>
	<path d="M330.314,13.948c-0.557-0.793-0.994-1.548-1.31-2.266c-0.316-0.717-0.475-1.458-0.475-2.223
		c0-1.662,0.538-3.004,1.614-4.028s2.483-1.537,4.22-1.537c1.559,0,2.847,0.474,3.866,1.423c1.021,0.948,1.529,2.126,1.529,3.533
		c0,1.756-0.968,3.313-2.903,4.673l-1.076,0.75l3.172,3.639c0.52-1.039,0.779-2.176,0.779-3.413h4.007
		c0,2.785-0.642,5.018-1.926,6.698l3.144,3.611h-5.323l-0.963-1.09c-0.794,0.472-1.604,0.821-2.429,1.048
		c-0.826,0.227-1.758,0.34-2.797,0.34c-2.039,0-3.672-0.536-4.898-1.607c-1.228-1.072-1.842-2.48-1.842-4.227
		c0-0.954,0.243-1.817,0.729-2.591s1.432-1.676,2.839-2.705L330.314,13.948z M333.755,21.424c0.831,0,1.624-0.193,2.379-0.581
		l-3.71-4.22l-0.127,0.085c-0.538,0.661-0.808,1.407-0.808,2.237c0,0.689,0.217,1.274,0.651,1.756
		C332.574,21.183,333.113,21.424,333.755,21.424z M332.65,9.402c0,0.661,0.359,1.463,1.076,2.407l0.949-0.595
		c0.434-0.283,0.75-0.576,0.948-0.878c0.199-0.302,0.298-0.685,0.298-1.147c0-0.434-0.151-0.812-0.453-1.133
		c-0.303-0.321-0.675-0.481-1.119-0.481c-0.529,0-0.944,0.167-1.246,0.502C332.801,8.414,332.65,8.855,332.65,9.402z"/>
	<path d="M134.047,52.528c0,2.209-0.529,3.991-1.586,5.346c-1.058,1.354-2.517,2.032-4.375,2.032c-0.944,0-1.772-0.158-2.485-0.474
		c-0.712-0.316-1.318-0.791-1.818-1.423V65.5h-2.79V44.287h2.138l0.438,1.982c0.5-0.736,1.124-1.298,1.869-1.685
		c0.745-0.387,1.614-0.581,2.605-0.581c1.896,0,3.373,0.753,4.425,2.259c1.052,1.505,1.579,3.495,1.579,5.968V52.528z
		 M131.258,52.224c0-1.735-0.342-3.161-1.026-4.278c-0.685-1.117-1.691-1.676-3.022-1.676c-0.802,0-1.487,0.182-2.054,0.544
		c-0.565,0.363-1.023,0.86-1.373,1.492v7.396c0.349,0.632,0.807,1.125,1.373,1.478c0.567,0.353,1.261,0.53,2.082,0.53
		c1.322,0,2.322-0.483,3.002-1.45c0.681-0.967,1.021-2.213,1.021-3.741v-0.295H131.258z"/>
	<path d="M144.724,46.751l-1.43-0.085c-0.736,0-1.357,0.175-1.862,0.524s-0.894,0.84-1.168,1.473v10.946h-2.79V44.287h2.492
		l0.269,2.237c0.435-0.793,0.971-1.411,1.607-1.855s1.371-0.666,2.202-0.666c0.208,0,0.406,0.017,0.595,0.05
		c0.189,0.033,0.345,0.068,0.467,0.106L144.724,46.751z"/>
	<path d="M146.48,51.806c0-2.266,0.614-4.132,1.841-5.6c1.228-1.468,2.895-2.202,4.999-2.202c2.124,0,3.803,0.731,5.034,2.195
		c1.231,1.463,1.849,3.333,1.849,5.607v0.312c0,2.285-0.614,4.154-1.842,5.607c-1.227,1.453-2.897,2.181-5.013,2.181
		s-3.788-0.729-5.02-2.188c-1.232-1.458-1.849-3.325-1.849-5.6V51.806L146.48,51.806z M149.27,52.11
		c0,1.622,0.342,2.961,1.026,4.017s1.702,1.584,3.052,1.584c1.331,0,2.341-0.528,3.03-1.584c0.688-1.056,1.034-2.395,1.034-4.017
		v-0.311c0-1.603-0.348-2.937-1.041-4.002c-0.694-1.065-1.711-1.598-3.053-1.598c-1.331,0-2.339,0.533-3.022,1.598
		c-0.685,1.065-1.026,2.4-1.026,4.002V52.11z"/>
	<path d="M164.775,59.608V46.354h-2.393v-2.067h2.393v-1.94c0-1.633,0.428-2.896,1.282-3.788c0.854-0.893,2.046-1.338,3.575-1.338
		c0.321,0,0.645,0.026,0.97,0.078c0.326,0.052,0.688,0.125,1.083,0.22l-0.34,2.124c-0.17-0.038-0.375-0.071-0.616-0.099
		c-0.241-0.028-0.494-0.042-0.758-0.042c-0.812,0-1.416,0.243-1.813,0.729s-0.596,1.191-0.596,2.117v1.94h3.187v2.067h-3.187v13.254
		L164.775,59.608L164.775,59.608z"/>
	<path d="M176.641,40.365h-2.79v-2.846h2.79V40.365z M176.641,59.608h-2.79V44.287h2.79V59.608z"/>
	<path d="M183.948,59.608h-2.789v-22.09h2.789V59.608z"/>
	<path d="M191.254,40.365h-2.79v-2.846h2.79V40.365z M191.254,59.608h-2.79V44.287h2.79V59.608z"/>
	<path d="M198.037,44.287l0.197,2.28c0.511-0.812,1.149-1.442,1.918-1.89c0.771-0.449,1.646-0.673,2.627-0.673
		c1.652,0,2.932,0.484,3.838,1.451c0.905,0.968,1.358,2.462,1.358,4.482v9.671h-2.79v-9.615c0-1.35-0.267-2.308-0.8-2.875
		c-0.534-0.566-1.348-0.85-2.443-0.85c-0.802,0-1.513,0.193-2.131,0.581c-0.618,0.387-1.11,0.916-1.479,1.586v11.172h-2.79v-15.32
		H198.037z"/>
	<path d="M211.418,52.231c0-2.464,0.538-4.451,1.614-5.961c1.075-1.51,2.563-2.266,4.46-2.266c0.972,0,1.826,0.196,2.563,0.588
		c0.736,0.392,1.35,0.956,1.841,1.692l0.34-1.997h2.224v15.406c0,1.963-0.571,3.472-1.713,4.524
		c-1.143,1.052-2.79,1.579-4.942,1.579c-0.736,0-1.532-0.102-2.386-0.304c-0.854-0.203-1.607-0.479-2.258-0.829l0.708-2.167
		c0.5,0.283,1.104,0.512,1.813,0.687c0.708,0.175,1.407,0.262,2.096,0.262c1.359,0,2.349-0.309,2.967-0.927
		c0.618-0.619,0.928-1.56,0.928-2.825v-1.728c-0.5,0.642-1.101,1.126-1.798,1.451c-0.699,0.326-1.501,0.489-2.407,0.489
		c-1.878,0-3.356-0.68-4.432-2.039c-1.076-1.359-1.614-3.139-1.614-5.338v-0.297H211.418z M214.208,52.528
		c0,1.539,0.326,2.775,0.977,3.71c0.651,0.935,1.644,1.402,2.975,1.402c0.84,0,1.543-0.191,2.109-0.574
		c0.566-0.382,1.034-0.922,1.402-1.621v-7.052c-0.359-0.651-0.826-1.168-1.402-1.551c-0.576-0.382-1.27-0.573-2.082-0.573
		c-1.331,0-2.327,0.557-2.987,1.671c-0.661,1.114-0.991,2.544-0.991,4.291V52.528z"/>
</g>
<g>
	<path d="M266.413,442.861l4.602,14.344l4.588-14.344h6.542v20.617h-4.983v-4.814l0.48-9.855l-4.984,14.67h-3.284l-4.999-14.684
		l0.48,9.869v4.814h-4.97v-20.617H266.413z"/>
	<path d="M293.714,463.478c-0.17-0.313-0.321-0.77-0.453-1.375c-0.878,1.105-2.105,1.658-3.682,1.658
		c-1.444,0-2.671-0.438-3.683-1.311c-1.01-0.873-1.515-1.971-1.515-3.293c0-1.66,0.614-2.916,1.841-3.768
		c1.227-0.85,3.011-1.273,5.354-1.273h1.473v-0.811c0-1.414-0.609-2.121-1.827-2.121c-1.133,0-1.699,0.561-1.699,1.68h-4.771
		c0-1.48,0.63-2.684,1.89-3.605c1.261-0.924,2.868-1.387,4.822-1.387s3.498,0.477,4.63,1.43c1.133,0.955,1.713,2.262,1.742,3.924
		v6.781c0.019,1.408,0.235,2.484,0.65,3.23v0.24H293.714L293.714,463.478z M290.726,460.363c0.595,0,1.088-0.127,1.48-0.383
		c0.392-0.256,0.672-0.543,0.842-0.863v-2.449h-1.388c-1.662,0-2.492,0.746-2.492,2.236c0,0.436,0.146,0.787,0.438,1.057
		C289.9,460.228,290.273,460.363,290.726,460.363z"/>
	<path d="M309.742,452.474l-1.571-0.111c-1.501,0-2.464,0.473-2.889,1.416v9.699h-4.772v-15.32h4.475l0.156,1.967
		c0.802-1.5,1.921-2.25,3.355-2.25c0.511,0,0.954,0.057,1.331,0.17L309.742,452.474z"/>
	<path d="M317.615,457.771l-1.345,1.346v4.361h-4.772v-21.766h4.772v11.555l0.481-0.637l3.597-4.475h5.721l-5.367,6.301l5.722,9.021
		h-5.467L317.615,457.771z"/>
	<path d="M334.736,463.761c-2.351,0-4.253-0.701-5.707-2.104s-2.181-3.227-2.181-5.475v-0.395c0-1.566,0.291-2.951,0.871-4.148
		c0.581-1.199,1.428-2.127,2.542-2.781c1.114-0.656,2.436-0.984,3.965-0.984c2.152,0,3.852,0.668,5.098,2.004
		c1.246,1.334,1.869,3.197,1.869,5.586v1.854h-9.487c0.17,0.859,0.543,1.533,1.119,2.025c0.576,0.49,1.322,0.736,2.237,0.736
		c1.51,0,2.69-0.529,3.54-1.586l2.181,2.576c-0.595,0.82-1.437,1.475-2.527,1.961S335.99,463.761,334.736,463.761z M334.198,451.554
		c-1.396,0-2.228,0.926-2.492,2.775h4.814v-0.367c0.019-0.766-0.175-1.357-0.581-1.777S334.952,451.554,334.198,451.554z"/>
	<path d="M348.669,444.347v3.811h2.521v3.313h-2.521v7.008c0,0.576,0.104,0.979,0.312,1.205s0.618,0.34,1.232,0.34
		c0.472,0,0.868-0.027,1.188-0.086v3.412c-0.858,0.275-1.756,0.412-2.689,0.412c-1.644,0-2.855-0.389-3.64-1.162
		s-1.175-1.947-1.175-3.525v-7.604h-1.954v-3.313h1.954v-3.811H348.669z"/>
	<path d="M374.512,455.945c0,2.512-0.52,4.441-1.559,5.791c-1.039,1.352-2.501,2.025-4.39,2.025c-1.558,0-2.813-0.619-3.767-1.855
		l-0.198,1.572h-4.276v-21.75h4.772v7.66c0.887-1.01,2.034-1.516,3.44-1.516c1.907,0,3.379,0.686,4.418,2.053
		c1.039,1.369,1.559,3.295,1.559,5.777V455.945z M369.726,455.64c0-1.471-0.196-2.52-0.587-3.146
		c-0.393-0.625-0.994-0.939-1.807-0.939c-1.075,0-1.821,0.41-2.236,1.23v6.078c0.406,0.811,1.161,1.217,2.266,1.217
		c1.124,0,1.836-0.547,2.139-1.641C369.65,457.902,369.726,456.968,369.726,455.64z"/>
	<path d="M385.244,463.478c-0.17-0.313-0.32-0.77-0.453-1.375c-0.878,1.105-2.104,1.658-3.682,1.658
		c-1.444,0-2.671-0.438-3.682-1.311c-1.01-0.873-1.516-1.971-1.516-3.293c0-1.66,0.614-2.916,1.842-3.768
		c1.227-0.85,3.011-1.273,5.353-1.273h1.473v-0.811c0-1.414-0.608-2.121-1.826-2.121c-1.134,0-1.699,0.561-1.699,1.68h-4.772
		c0-1.48,0.63-2.684,1.891-3.605c1.261-0.924,2.867-1.387,4.821-1.387s3.498,0.477,4.63,1.43c1.134,0.955,1.714,2.262,1.742,3.924
		v6.781c0.02,1.408,0.236,2.484,0.651,3.23v0.24H385.244L385.244,463.478z M382.257,460.363c0.595,0,1.088-0.127,1.479-0.383
		c0.393-0.256,0.672-0.543,0.842-0.863v-2.449h-1.388c-1.662,0-2.492,0.746-2.492,2.236c0,0.436,0.146,0.787,0.439,1.057
		C381.431,460.228,381.804,460.363,382.257,460.363z"/>
	<path d="M400.028,459.173c0-0.406-0.212-0.73-0.637-0.979c-0.425-0.244-1.232-0.5-2.421-0.766
		c-1.189-0.264-2.171-0.609-2.945-1.039c-0.773-0.43-1.364-0.951-1.77-1.564c-0.406-0.613-0.609-1.316-0.609-2.109
		c0-1.408,0.581-2.564,1.742-3.477s2.681-1.367,4.56-1.367c2.021,0,3.645,0.459,4.871,1.373c1.228,0.916,1.841,2.119,1.841,3.611
		h-4.786c0-1.229-0.646-1.842-1.939-1.842c-0.5,0-0.92,0.141-1.26,0.418c-0.34,0.279-0.511,0.625-0.511,1.041
		c0,0.426,0.208,0.77,0.623,1.033c0.416,0.264,1.079,0.482,1.989,0.652c0.911,0.17,1.711,0.373,2.4,0.607
		c2.303,0.793,3.455,2.213,3.455,4.264c0,1.395-0.621,2.533-1.862,3.412c-1.241,0.877-2.848,1.316-4.821,1.316
		c-1.312,0-2.482-0.236-3.512-0.709s-1.832-1.113-2.407-1.926c-0.576-0.813-0.864-1.666-0.864-2.563h4.46
		c0.02,0.707,0.256,1.227,0.708,1.551c0.453,0.326,1.034,0.488,1.742,0.488c0.651,0,1.141-0.133,1.465-0.396
		C399.865,459.943,400.028,459.597,400.028,459.173z"/>
	<path d="M413.013,457.771l-1.345,1.346v4.361h-4.772v-21.766h4.772v11.555l0.48-0.637l3.597-4.475h5.722l-5.367,6.301l5.721,9.021
		h-5.466L413.013,457.771z"/>
	<path d="M430.133,463.761c-2.352,0-4.253-0.701-5.707-2.104s-2.182-3.227-2.182-5.475v-0.395c0-1.566,0.291-2.951,0.871-4.148
		c0.581-1.199,1.429-2.127,2.542-2.781c1.114-0.656,2.437-0.984,3.965-0.984c2.152,0,3.853,0.668,5.099,2.004
		c1.246,1.334,1.869,3.197,1.869,5.586v1.854h-9.487c0.17,0.859,0.543,1.533,1.119,2.025c0.576,0.49,1.321,0.736,2.236,0.736
		c1.511,0,2.69-0.529,3.54-1.586l2.182,2.576c-0.596,0.82-1.438,1.475-2.528,1.961C432.562,463.517,431.388,463.761,430.133,463.761
		z M429.595,451.554c-1.397,0-2.229,0.926-2.492,2.775h4.813v-0.367c0.02-0.766-0.175-1.357-0.58-1.777
		C430.93,451.765,430.35,451.554,429.595,451.554z"/>
	<path d="M444.066,444.347v3.811h2.521v3.313h-2.521v7.008c0,0.576,0.104,0.979,0.313,1.205s0.617,0.34,1.231,0.34
		c0.472,0,0.869-0.027,1.189-0.086v3.412c-0.859,0.275-1.756,0.412-2.69,0.412c-1.643,0-2.854-0.389-3.639-1.162
		s-1.175-1.947-1.175-3.525v-7.604h-1.954v-3.313h1.954v-3.811H444.066z"/>
	<path d="M310.217,498.279c-0.095-0.463-0.167-0.871-0.221-1.227c-0.052-0.354-0.083-0.711-0.092-1.068
		c-0.519,0.736-1.195,1.354-2.032,1.848c-0.835,0.496-1.733,0.744-2.696,0.744c-1.595,0-2.812-0.408-3.646-1.227
		c-0.835-0.814-1.253-1.941-1.253-3.377c0-1.463,0.593-2.607,1.777-3.434s2.792-1.238,4.821-1.238h3.029v-1.516
		c0-0.896-0.273-1.607-0.82-2.131c-0.548-0.523-1.322-0.787-2.322-0.787c-0.896,0-1.626,0.229-2.188,0.688
		c-0.563,0.457-0.844,1.008-0.844,1.65h-2.662l-0.027-0.086c-0.058-1.113,0.47-2.133,1.579-3.059
		c1.108-0.926,2.542-1.389,4.297-1.389c1.736,0,3.134,0.441,4.19,1.324c1.058,0.883,1.586,2.154,1.586,3.814v7.379
		c0,0.547,0.028,1.076,0.085,1.586c0.058,0.51,0.161,1.01,0.313,1.502h-2.874V498.279z M305.587,496.224
		c1.01,0,1.921-0.26,2.732-0.775c0.813-0.518,1.34-1.111,1.586-1.779v-2.486h-3.129c-1.124,0-2.021,0.283-2.697,0.85
		c-0.676,0.563-1.013,1.229-1.013,1.99c0,0.678,0.212,1.215,0.638,1.609C304.129,496.027,304.756,496.224,305.587,496.224z"/>
	<path d="M319.237,482.957l0.198,2.279c0.51-0.813,1.149-1.441,1.918-1.891c0.77-0.449,1.645-0.672,2.627-0.672
		c1.652,0,2.931,0.482,3.837,1.451c0.906,0.967,1.359,2.461,1.359,4.48v9.672h-2.79v-9.615c0-1.35-0.268-2.309-0.8-2.873
		c-0.534-0.566-1.349-0.852-2.443-0.852c-0.802,0-1.513,0.193-2.131,0.58c-0.618,0.389-1.111,0.916-1.479,1.586v11.174h-2.79v-15.32
		H319.237L319.237,482.957z"/>
	<path d="M342.644,498.279c-0.094-0.463-0.167-0.871-0.22-1.227c-0.053-0.354-0.083-0.711-0.093-1.068
		c-0.519,0.736-1.195,1.354-2.031,1.848c-0.835,0.496-1.734,0.744-2.697,0.744c-1.595,0-2.812-0.408-3.646-1.227
		c-0.835-0.814-1.253-1.941-1.253-3.377c0-1.463,0.593-2.607,1.777-3.434c1.186-0.826,2.792-1.238,4.821-1.238h3.03v-1.516
		c0-0.896-0.274-1.607-0.821-2.131s-1.322-0.787-2.322-0.787c-0.896,0-1.626,0.229-2.188,0.688c-0.563,0.457-0.844,1.008-0.844,1.65
		h-2.662l-0.027-0.086c-0.058-1.113,0.47-2.133,1.579-3.059c1.108-0.926,2.542-1.389,4.297-1.389c1.736,0,3.134,0.441,4.19,1.324
		c1.058,0.883,1.586,2.154,1.586,3.814v7.379c0,0.547,0.028,1.076,0.085,1.586c0.058,0.51,0.161,1.01,0.313,1.502h-2.874V498.279z
		 M338.014,496.224c1.01,0,1.921-0.26,2.732-0.775c0.813-0.518,1.341-1.111,1.586-1.779v-2.486h-3.129
		c-1.124,0-2.021,0.283-2.697,0.85c-0.676,0.563-1.013,1.229-1.013,1.99c0,0.678,0.212,1.215,0.638,1.609
		C336.556,496.027,337.183,496.224,338.014,496.224z"/>
	<path d="M352.188,498.279h-2.79v-22.09h2.79V498.279z"/>
	<path d="M361.165,492.599l0.496,1.926h0.085l3.768-11.568h3.101l-6.442,17.672c-0.388,1.029-0.942,1.926-1.664,2.691
		c-0.724,0.764-1.697,1.145-2.924,1.145c-0.228,0-0.516-0.023-0.864-0.076c-0.35-0.053-0.618-0.102-0.808-0.148l0.283-2.195
		c-0.057-0.01,0.111,0,0.502,0.029c0.393,0.027,0.641,0.041,0.744,0.041c0.595,0,1.081-0.264,1.458-0.793
		c0.377-0.527,0.694-1.113,0.949-1.756l0.666-1.6l-5.692-15.01h3.115L361.165,492.599z"/>
	<path d="M379.97,494.201c0-0.615-0.233-1.119-0.701-1.518c-0.467-0.395-1.352-0.74-2.655-1.031
		c-1.859-0.406-3.259-0.955-4.199-1.648c-0.938-0.691-1.408-1.637-1.408-2.834c0-1.244,0.528-2.305,1.586-3.182
		c1.057-0.875,2.436-1.314,4.135-1.314c1.784,0,3.203,0.459,4.255,1.373c1.052,0.916,1.555,2.031,1.508,3.342l-0.027,0.086H379.8
		c0-0.67-0.281-1.271-0.844-1.805c-0.562-0.535-1.305-0.801-2.229-0.801c-0.991,0-1.729,0.217-2.209,0.65
		c-0.481,0.436-0.722,0.957-0.722,1.572c0,0.604,0.212,1.08,0.637,1.43s1.289,0.66,2.591,0.936c1.936,0.416,3.375,0.979,4.319,1.691
		c0.943,0.713,1.416,1.67,1.416,2.867c0,1.359-0.55,2.459-1.65,3.301c-1.1,0.84-2.537,1.26-4.312,1.26
		c-1.954,0-3.493-0.496-4.616-1.486c-1.123-0.992-1.657-2.146-1.601-3.471l0.028-0.084h2.662c0.047,0.984,0.416,1.707,1.104,2.162
		c0.689,0.457,1.496,0.684,2.422,0.684c0.99,0,1.768-0.201,2.328-0.602C379.689,495.376,379.97,494.851,379.97,494.201z"/>
	<path d="M389.244,479.035h-2.79v-2.848h2.79V479.035z M389.244,498.279h-2.79v-15.322h2.79V498.279z"/>
	<path d="M402.442,494.201c0-0.615-0.232-1.119-0.701-1.518c-0.467-0.395-1.352-0.74-2.654-1.031
		c-1.86-0.406-3.26-0.955-4.199-1.648c-0.939-0.691-1.409-1.637-1.409-2.834c0-1.244,0.529-2.305,1.586-3.182
		c1.057-0.875,2.437-1.314,4.135-1.314c1.784,0,3.203,0.459,4.255,1.373c1.053,0.916,1.556,2.031,1.509,3.342l-0.028,0.086h-2.662
		c0-0.67-0.281-1.271-0.843-1.805c-0.563-0.535-1.306-0.801-2.23-0.801c-0.991,0-1.728,0.217-2.209,0.65
		c-0.48,0.436-0.722,0.957-0.722,1.572c0,0.604,0.212,1.08,0.637,1.43s1.289,0.66,2.591,0.936c1.936,0.416,3.375,0.979,4.319,1.691
		s1.416,1.67,1.416,2.867c0,1.359-0.55,2.459-1.65,3.301c-1.1,0.84-2.536,1.26-4.312,1.26c-1.954,0-3.493-0.496-4.616-1.486
		c-1.123-0.992-1.657-2.146-1.6-3.471l0.027-0.084h2.662c0.047,0.984,0.416,1.707,1.104,2.162c0.688,0.457,1.496,0.684,2.421,0.684
		c0.991,0,1.768-0.201,2.329-0.602C402.161,495.376,402.442,494.851,402.442,494.201z"/>
</g>
<g>
	<path d="M655.767,457.998c0-0.727-0.257-1.293-0.771-1.699c-0.515-0.404-1.418-0.826-2.712-1.26
		c-1.293-0.436-2.351-0.854-3.172-1.26c-2.671-1.313-4.007-3.115-4.007-5.41c0-1.143,0.333-2.148,0.998-3.021
		c0.666-0.875,1.607-1.555,2.825-2.039c1.218-0.486,2.586-0.729,4.105-0.729c1.481,0,2.812,0.264,3.986,0.793
		c1.175,0.527,2.088,1.281,2.739,2.258c0.65,0.979,0.978,2.094,0.978,3.35h-4.956c0-0.842-0.258-1.492-0.771-1.953
		c-0.516-0.465-1.211-0.695-2.089-0.695c-0.889,0-1.589,0.197-2.104,0.588c-0.515,0.393-0.771,0.891-0.771,1.494
		c0,0.529,0.283,1.008,0.85,1.438s1.563,0.873,2.988,1.332c1.425,0.457,2.596,0.949,3.512,1.479
		c2.229,1.283,3.342,3.055,3.342,5.311c0,1.805-0.68,3.221-2.039,4.248c-1.358,1.029-3.224,1.543-5.594,1.543
		c-1.671,0-3.184-0.299-4.538-0.898c-1.354-0.6-2.374-1.42-3.059-2.463c-0.686-1.043-1.026-2.244-1.026-3.605h4.984
		c0,1.105,0.285,1.92,0.855,2.443c0.571,0.523,1.499,0.785,2.782,0.785c0.821,0,1.471-0.178,1.947-0.531
		C655.529,459.138,655.767,458.64,655.767,457.998z"/>
	<path d="M671.698,463.478c-0.17-0.313-0.32-0.77-0.453-1.375c-0.878,1.105-2.104,1.658-3.682,1.658
		c-1.444,0-2.672-0.438-3.682-1.311c-1.012-0.873-1.517-1.971-1.517-3.293c0-1.66,0.614-2.916,1.841-3.768
		c1.229-0.85,3.013-1.273,5.354-1.273h1.473v-0.811c0-1.414-0.607-2.121-1.826-2.121c-1.133,0-1.698,0.561-1.698,1.68h-4.772
		c0-1.48,0.631-2.684,1.892-3.605c1.261-0.924,2.866-1.387,4.82-1.387s3.498,0.477,4.631,1.43c1.134,0.955,1.714,2.262,1.741,3.924
		v6.781c0.021,1.408,0.236,2.484,0.651,3.23v0.24H671.698L671.698,463.478z M668.709,460.363c0.595,0,1.088-0.127,1.479-0.383
		s0.672-0.543,0.842-0.863v-2.449h-1.388c-1.661,0-2.492,0.746-2.492,2.236c0,0.436,0.146,0.787,0.439,1.057
		C667.883,460.228,668.256,460.363,668.709,460.363z"/>
	<path d="M679.514,463.478V451.47h-2.225v-3.313h2.225v-1.219c0-1.746,0.515-3.102,1.543-4.064c1.029-0.963,2.474-1.443,4.333-1.443
		c0.68,0,1.426,0.1,2.237,0.299l0.015,3.512c-0.293-0.086-0.685-0.129-1.176-0.129c-1.444,0-2.166,0.623-2.166,1.869v1.176h2.986
		v3.313H684.3v12.008H679.514L679.514,463.478z"/>
	<path d="M696.378,463.761c-2.352,0-4.253-0.701-5.706-2.104c-1.454-1.402-2.182-3.227-2.182-5.475v-0.395
		c0-1.566,0.29-2.951,0.87-4.148c0.581-1.199,1.429-2.127,2.542-2.781c1.114-0.656,2.437-0.984,3.965-0.984
		c2.152,0,3.853,0.668,5.099,2.004c1.246,1.334,1.869,3.197,1.869,5.586v1.854h-9.487c0.17,0.859,0.543,1.533,1.119,2.025
		c0.575,0.49,1.32,0.736,2.236,0.736c1.511,0,2.69-0.529,3.54-1.586l2.182,2.576c-0.595,0.82-1.438,1.475-2.528,1.961
		S697.634,463.761,696.378,463.761z M695.84,451.554c-1.396,0-2.229,0.926-2.492,2.775h4.813v-0.367
		c0.021-0.766-0.175-1.357-0.579-1.777C697.176,451.765,696.596,451.554,695.84,451.554z"/>
	<path d="M710.312,444.347v3.811h2.521v3.313h-2.521v7.008c0,0.576,0.104,0.979,0.312,1.205c0.209,0.227,0.618,0.34,1.232,0.34
		c0.472,0,0.868-0.027,1.189-0.086v3.412c-0.859,0.275-1.756,0.412-2.69,0.412c-1.643,0-2.854-0.389-3.64-1.162
		c-0.783-0.773-1.176-1.947-1.176-3.525v-7.604h-1.953v-3.313h1.953v-3.811H710.312z"/>
	<path d="M720.832,456.794l2.55-8.639h5.11l-6.244,17.885l-0.27,0.65c-0.887,1.982-2.454,2.975-4.701,2.975
		c-0.623,0-1.279-0.094-1.968-0.283v-3.398h0.623c0.67,0,1.182-0.098,1.536-0.289c0.354-0.195,0.616-0.541,0.786-1.043l0.382-1.021
		l-5.324-15.475h5.098L720.832,456.794z"/>
	<path d="M744.976,459.173c0-0.406-0.212-0.73-0.637-0.979c-0.426-0.244-1.232-0.5-2.423-0.766
		c-1.188-0.264-2.171-0.609-2.944-1.039s-1.364-0.951-1.771-1.564c-0.405-0.613-0.608-1.316-0.608-2.109
		c0-1.408,0.581-2.564,1.741-3.477c1.161-0.912,2.682-1.367,4.561-1.367c2.02,0,3.644,0.459,4.871,1.373
		c1.227,0.916,1.841,2.119,1.841,3.611h-4.786c0-1.229-0.646-1.842-1.939-1.842c-0.5,0-0.92,0.141-1.261,0.418
		c-0.34,0.279-0.51,0.625-0.51,1.041c0,0.426,0.207,0.77,0.623,1.033c0.415,0.264,1.078,0.482,1.989,0.652s1.711,0.373,2.399,0.607
		c2.304,0.793,3.455,2.213,3.455,4.264c0,1.395-0.621,2.533-1.861,3.412c-1.241,0.877-2.85,1.316-4.821,1.316
		c-1.313,0-2.483-0.236-3.512-0.709c-1.029-0.473-1.832-1.113-2.407-1.926c-0.576-0.813-0.864-1.666-0.864-2.563h4.461
		c0.02,0.707,0.255,1.227,0.708,1.551c0.453,0.326,1.033,0.488,1.741,0.488c0.651,0,1.141-0.133,1.466-0.396
		C744.814,459.943,744.976,459.597,744.976,459.173z"/>
	<path d="M757.366,444.347v3.811h2.521v3.313h-2.521v7.008c0,0.576,0.104,0.979,0.313,1.205c0.207,0.227,0.618,0.34,1.23,0.34
		c0.474,0,0.869-0.027,1.189-0.086v3.412c-0.858,0.275-1.756,0.412-2.69,0.412c-1.643,0-2.854-0.389-3.639-1.162
		s-1.176-1.947-1.176-3.525v-7.604h-1.954v-3.313h1.954v-3.811H757.366z"/>
	<path d="M760.737,455.675c0-1.529,0.297-2.891,0.893-4.086c0.595-1.193,1.448-2.111,2.563-2.754
		c1.113-0.643,2.421-0.963,3.922-0.963c2.294,0,4.103,0.711,5.424,2.131c1.321,1.422,1.982,3.355,1.982,5.799v0.17
		c0,2.389-0.663,4.283-1.989,5.688c-1.327,1.4-3.123,2.102-5.389,2.102c-2.181,0-3.932-0.652-5.253-1.961
		c-1.322-1.307-2.034-3.08-2.139-5.316L760.737,455.675z M765.508,455.972c0,1.416,0.222,2.455,0.666,3.115
		c0.442,0.66,1.1,0.992,1.968,0.992c1.699,0,2.568-1.309,2.604-3.924v-0.48c0-2.748-0.878-4.121-2.634-4.121
		c-1.595,0-2.459,1.186-2.591,3.555L765.508,455.972z"/>
	<path d="M784.101,460.08c0.67,0,1.188-0.182,1.558-0.545c0.368-0.363,0.547-0.871,0.538-1.521h4.476
		c0,1.68-0.603,3.059-1.807,4.135c-1.203,1.076-2.754,1.613-4.65,1.613c-2.229,0-3.984-0.699-5.269-2.096s-1.926-3.332-1.926-5.805
		v-0.199c0-1.549,0.285-2.914,0.856-4.1c0.57-1.186,1.395-2.096,2.471-2.732s2.351-0.955,3.823-0.955
		c1.991,0,3.572,0.551,4.743,1.656c1.17,1.104,1.757,2.6,1.757,4.488h-4.476c0-0.793-0.192-1.402-0.581-1.826
		c-0.387-0.426-0.905-0.639-1.558-0.639c-1.236,0-1.959,0.789-2.166,2.365c-0.066,0.5-0.1,1.189-0.1,2.066
		c0,1.539,0.185,2.605,0.553,3.199C782.712,459.781,783.298,460.08,784.101,460.08z"/>
	<path d="M798.841,457.771l-1.346,1.346v4.361h-4.771v-21.766h4.771v11.555l0.481-0.637l3.597-4.475h5.722l-5.367,6.301l5.721,9.021
		h-5.466L798.841,457.771z"/>
	<path d="M644.878,490.474c0-2.266,0.612-4.131,1.841-5.6c1.227-1.469,2.894-2.201,4.998-2.201c2.124,0,3.802,0.73,5.033,2.193
		c1.231,1.465,1.849,3.334,1.849,5.607v0.313c0,2.285-0.613,4.154-1.841,5.605c-1.228,1.455-2.897,2.182-5.014,2.182
		c-2.113,0-3.788-0.729-5.02-2.188c-1.232-1.459-1.848-3.326-1.848-5.602L644.878,490.474L644.878,490.474z M647.666,490.781
		c0,1.621,0.344,2.961,1.026,4.016c0.686,1.057,1.702,1.584,3.052,1.584c1.331,0,2.343-0.527,3.03-1.584
		c0.689-1.055,1.034-2.395,1.034-4.016v-0.313c0-1.604-0.348-2.938-1.041-4.002c-0.694-1.064-1.711-1.6-3.052-1.6
		c-1.331,0-2.339,0.533-3.023,1.6c-0.684,1.064-1.026,2.398-1.026,4.002V490.781z"/>
	<path d="M675.068,491.199c0,2.209-0.529,3.988-1.586,5.346c-1.058,1.354-2.516,2.031-4.376,2.031c-0.943,0-1.771-0.158-2.485-0.475
		c-0.712-0.316-1.317-0.791-1.818-1.424v7.49h-2.789v-21.211h2.138l0.439,1.98c0.5-0.734,1.123-1.297,1.869-1.686
		c0.744-0.387,1.613-0.58,2.604-0.58c1.897,0,3.372,0.754,4.425,2.26c1.054,1.504,1.579,3.494,1.579,5.969V491.199L675.068,491.199z
		 M672.278,490.892c0-1.734-0.342-3.16-1.025-4.277c-0.685-1.117-1.692-1.676-3.023-1.676c-0.802,0-1.486,0.182-2.053,0.545
		c-0.566,0.361-1.024,0.859-1.374,1.49v7.396c0.35,0.633,0.808,1.125,1.374,1.479c0.565,0.355,1.26,0.531,2.081,0.531
		c1.321,0,2.321-0.482,3.002-1.451c0.68-0.965,1.02-2.213,1.02-3.738L672.278,490.892L672.278,490.892z"/>
	<path d="M682.176,479.259v3.697h2.901v2.066h-2.901v9.303c0,0.719,0.147,1.223,0.444,1.516c0.299,0.293,0.692,0.439,1.184,0.439
		c0.161,0,0.338-0.02,0.531-0.059c0.192-0.037,0.365-0.084,0.517-0.141l0.368,1.912c-0.207,0.17-0.513,0.309-0.913,0.418
		c-0.401,0.107-0.805,0.162-1.211,0.162c-1.133,0-2.034-0.344-2.704-1.027c-0.671-0.684-1.006-1.758-1.006-3.221v-9.305h-2.437
		v-2.066h2.437v-3.695H682.176L682.176,479.259z"/>
	<path d="M691.535,479.035h-2.789v-2.848h2.789V479.035z M691.535,498.279h-2.789v-15.322h2.789V498.279z"/>
	<path d="M698.319,482.957l0.198,2.012c0.5-0.729,1.135-1.291,1.904-1.691c0.769-0.402,1.663-0.604,2.684-0.604
		s1.896,0.236,2.626,0.709c0.732,0.471,1.282,1.18,1.65,2.123c0.48-0.869,1.117-1.557,1.91-2.066c0.794-0.51,1.72-0.766,2.775-0.766
		c1.559,0,2.79,0.535,3.696,1.607c0.906,1.07,1.358,2.684,1.358,4.836v9.162h-2.789v-9.191c0-1.51-0.261-2.578-0.778-3.207
		c-0.521-0.627-1.294-0.939-2.322-0.939c-0.954,0-1.726,0.328-2.315,0.99c-0.59,0.66-0.937,1.496-1.041,2.506v0.113v9.729h-2.804
		v-9.189c0-1.436-0.267-2.484-0.8-3.15c-0.533-0.664-1.301-0.998-2.301-0.998c-0.851,0-1.549,0.176-2.097,0.523
		c-0.548,0.35-0.968,0.84-1.261,1.473v11.344h-2.789v-15.322h2.494V482.957z"/>
	<path d="M724.189,479.035H721.4v-2.848h2.789V479.035z M724.189,498.279H721.4v-15.322h2.789V498.279z"/>
	<path d="M731.114,496.083h8.851v2.195h-12.179v-1.971l8.284-11.156h-8.185v-2.195h11.597v1.883L731.114,496.083z"/>
	<path d="M752.481,498.279c-0.094-0.463-0.167-0.871-0.22-1.227c-0.052-0.354-0.082-0.711-0.092-1.068
		c-0.52,0.736-1.196,1.354-2.032,1.848c-0.835,0.496-1.734,0.744-2.697,0.744c-1.595,0-2.811-0.408-3.646-1.227
		c-0.835-0.814-1.253-1.941-1.253-3.377c0-1.463,0.593-2.607,1.776-3.434c1.186-0.826,2.792-1.238,4.821-1.238h3.03v-1.516
		c0-0.896-0.273-1.607-0.821-2.131c-0.547-0.523-1.321-0.787-2.322-0.787c-0.896,0-1.626,0.229-2.188,0.688
		c-0.563,0.457-0.844,1.008-0.844,1.65h-2.661l-0.028-0.086c-0.057-1.113,0.47-2.133,1.579-3.059
		c1.108-0.926,2.542-1.389,4.298-1.389c1.736,0,3.134,0.441,4.19,1.324c1.058,0.883,1.587,2.154,1.587,3.814v7.379
		c0,0.547,0.027,1.076,0.085,1.586c0.057,0.51,0.159,1.01,0.312,1.502h-2.875V498.279z M747.851,496.224
		c1.01,0,1.921-0.26,2.731-0.775c0.813-0.52,1.342-1.111,1.587-1.779v-2.486h-3.13c-1.124,0-2.021,0.283-2.697,0.85
		c-0.676,0.563-1.013,1.229-1.013,1.99c0,0.678,0.212,1.215,0.638,1.609C746.392,496.027,747.02,496.224,747.851,496.224z"/>
	<path d="M762.691,479.259v3.697h2.902v2.066h-2.902v9.303c0,0.719,0.148,1.223,0.445,1.516c0.298,0.293,0.691,0.439,1.183,0.439
		c0.161,0,0.338-0.02,0.531-0.059c0.193-0.037,0.366-0.084,0.517-0.141l0.368,1.912c-0.207,0.17-0.512,0.309-0.913,0.418
		c-0.4,0.107-0.805,0.162-1.211,0.162c-1.133,0-2.034-0.344-2.704-1.027c-0.671-0.684-1.006-1.758-1.006-3.221v-9.305h-2.436v-2.066
		h2.436v-3.695H762.691L762.691,479.259z"/>
	<path d="M772.05,479.035h-2.789v-2.848h2.789V479.035z M772.05,498.279h-2.789v-15.322h2.789V498.279z"/>
	<path d="M775.69,490.474c0-2.266,0.613-4.131,1.841-5.6s2.895-2.201,4.998-2.201c2.124,0,3.802,0.73,5.034,2.193
		c1.231,1.465,1.848,3.334,1.848,5.607v0.313c0,2.285-0.612,4.154-1.841,5.605c-1.227,1.455-2.896,2.182-5.013,2.182
		c-2.114,0-3.788-0.729-5.021-2.188c-1.231-1.459-1.848-3.326-1.848-5.602L775.69,490.474L775.69,490.474z M778.479,490.781
		c0,1.621,0.343,2.961,1.026,4.016c0.685,1.057,1.702,1.584,3.052,1.584c1.331,0,2.342-0.527,3.03-1.584
		c0.688-1.055,1.033-2.395,1.033-4.016v-0.313c0-1.604-0.348-2.938-1.041-4.002s-1.711-1.6-3.052-1.6
		c-1.331,0-2.339,0.533-3.022,1.6c-0.685,1.064-1.026,2.398-1.026,4.002V490.781z"/>
	<path d="M795.316,482.957l0.198,2.279c0.51-0.813,1.148-1.441,1.918-1.891s1.646-0.672,2.627-0.672
		c1.652,0,2.932,0.482,3.838,1.451c0.906,0.967,1.359,2.461,1.359,4.48v9.672h-2.79v-9.615c0-1.35-0.268-2.309-0.8-2.873
		c-0.533-0.566-1.349-0.852-2.442-0.852c-0.803,0-1.513,0.193-2.132,0.58c-0.618,0.389-1.111,0.916-1.479,1.586v11.174h-2.789
		v-15.32H795.316L795.316,482.957z"/>
</g>
<g>
	<path d="M458.511,19.329c0-0.727-0.257-1.293-0.772-1.699c-0.514-0.406-1.418-0.826-2.711-1.26s-2.351-0.854-3.172-1.26
		c-2.671-1.312-4.007-3.115-4.007-5.409c0-1.142,0.333-2.15,0.998-3.023c0.666-0.874,1.606-1.553,2.825-2.039
		c1.218-0.486,2.586-0.729,4.105-0.729c1.482,0,2.812,0.264,3.986,0.793c1.175,0.529,2.088,1.281,2.74,2.259
		c0.65,0.977,0.977,2.093,0.977,3.349h-4.956c0-0.84-0.257-1.492-0.771-1.954c-0.516-0.462-1.211-0.694-2.09-0.694
		c-0.887,0-1.588,0.196-2.103,0.587c-0.515,0.392-0.772,0.89-0.772,1.494c0,0.529,0.283,1.008,0.851,1.438
		c0.565,0.429,1.563,0.873,2.988,1.331c1.425,0.458,2.596,0.951,3.512,1.479c2.228,1.284,3.342,3.054,3.342,5.31
		c0,1.803-0.68,3.219-2.039,4.248c-1.358,1.029-3.224,1.543-5.593,1.543c-1.671,0-3.184-0.3-4.539-0.899
		c-1.354-0.599-2.374-1.42-3.059-2.464c-0.685-1.043-1.026-2.244-1.026-3.604h4.984c0,1.104,0.285,1.919,0.855,2.442
		c0.571,0.524,1.499,0.786,2.783,0.786c0.821,0,1.47-0.177,1.947-0.531C458.273,20.469,458.511,19.971,458.511,19.329z"/>
	<path d="M474.441,24.809c-0.17-0.312-0.321-0.77-0.453-1.374c-0.878,1.104-2.104,1.657-3.682,1.657
		c-1.444,0-2.671-0.437-3.683-1.31c-1.01-0.874-1.515-1.971-1.515-3.292c0-1.662,0.614-2.917,1.841-3.767
		c1.228-0.85,3.012-1.274,5.354-1.274h1.473v-0.811c0-1.414-0.609-2.12-1.827-2.12c-1.133,0-1.699,0.56-1.699,1.679h-4.771
		c0-1.48,0.63-2.683,1.89-3.606c1.262-0.924,2.868-1.386,4.822-1.386s3.498,0.477,4.63,1.43c1.132,0.953,1.713,2.261,1.742,3.922
		v6.783c0.019,1.407,0.236,2.483,0.651,3.229v0.241L474.441,24.809L474.441,24.809z M471.453,21.693c0.596,0,1.089-0.127,1.48-0.382
		s0.672-0.543,0.842-0.864v-2.45h-1.388c-1.662,0-2.492,0.746-2.492,2.237c0,0.434,0.146,0.786,0.439,1.055
		C470.627,21.559,471,21.693,471.453,21.693z"/>
	<path d="M486.237,24.809h-4.786V3.059h4.786V24.809z"/>
	<path d="M496.588,25.092c-2.352,0-4.253-0.701-5.707-2.103c-1.454-1.402-2.182-3.227-2.182-5.473V17.12
		c0-1.567,0.291-2.95,0.871-4.149c0.581-1.199,1.428-2.126,2.542-2.782s2.437-0.984,3.965-0.984c2.152,0,3.853,0.668,5.099,2.004
		c1.246,1.335,1.869,3.198,1.869,5.586v1.855h-9.487c0.17,0.859,0.543,1.534,1.119,2.025c0.576,0.491,1.321,0.736,2.236,0.736
		c1.511,0,2.69-0.529,3.54-1.586l2.182,2.577c-0.596,0.821-1.438,1.475-2.528,1.961C499.017,24.849,497.843,25.092,496.588,25.092z
		 M496.05,12.886c-1.397,0-2.229,0.925-2.492,2.775h4.813v-0.368c0.02-0.765-0.175-1.357-0.581-1.777
		C497.386,13.096,496.805,12.886,496.05,12.886z"/>
	<path d="M512.985,20.504c0-0.406-0.212-0.731-0.637-0.977c-0.425-0.246-1.232-0.5-2.421-0.765
		c-1.189-0.265-2.171-0.611-2.945-1.041c-0.774-0.43-1.364-0.951-1.77-1.565c-0.406-0.614-0.609-1.317-0.609-2.11
		c0-1.407,0.581-2.565,1.742-3.477c1.161-0.911,2.681-1.366,4.56-1.366c2.021,0,3.645,0.458,4.871,1.374s1.841,2.119,1.841,3.611
		h-4.786c0-1.227-0.646-1.841-1.939-1.841c-0.5,0-0.92,0.139-1.26,0.418c-0.341,0.278-0.511,0.625-0.511,1.041
		c0,0.425,0.208,0.77,0.623,1.034c0.415,0.264,1.079,0.481,1.989,0.651c0.911,0.17,1.711,0.373,2.4,0.609
		c2.303,0.793,3.455,2.214,3.455,4.262c0,1.397-0.621,2.535-1.862,3.413s-2.849,1.317-4.821,1.317c-1.312,0-2.482-0.236-3.512-0.708
		c-1.029-0.472-1.832-1.114-2.407-1.926s-0.864-1.666-0.864-2.563h4.46c0.02,0.708,0.255,1.225,0.708,1.55
		c0.453,0.326,1.034,0.489,1.742,0.489c0.651,0,1.141-0.132,1.465-0.396C512.823,21.273,512.985,20.929,512.985,20.504z"/>
	<path d="M521.452,26.579h-3.384l7.038-22.387h3.398L521.452,26.579z"/>
	<path d="M529.397,17.035c0-2.426,0.524-4.338,1.572-5.735c1.048-1.397,2.511-2.096,4.39-2.096c1.369,0,2.521,0.538,3.455,1.614
		v-7.76h4.786v21.75h-4.291l-0.241-1.643c-0.981,1.284-2.228,1.926-3.738,1.926c-1.821,0-3.266-0.699-4.333-2.096
		C529.93,21.598,529.397,19.612,529.397,17.035z M534.169,17.332c0,2.719,0.793,4.078,2.379,4.078c1.057,0,1.813-0.444,2.266-1.331
		v-5.834c-0.434-0.906-1.18-1.359-2.237-1.359c-1.473,0-2.271,1.189-2.393,3.568L534.169,17.332z"/>
	<path d="M553.724,25.092c-2.352,0-4.253-0.701-5.707-2.103c-1.454-1.402-2.181-3.227-2.181-5.473V17.12
		c0-1.567,0.291-2.95,0.87-4.149c0.581-1.199,1.429-2.126,2.542-2.782c1.114-0.656,2.437-0.984,3.966-0.984
		c2.151,0,3.852,0.668,5.098,2.004c1.246,1.335,1.869,3.198,1.869,5.586v1.855h-9.487c0.17,0.859,0.543,1.534,1.119,2.025
		c0.576,0.491,1.322,0.736,2.237,0.736c1.51,0,2.689-0.529,3.54-1.586l2.181,2.577c-0.595,0.821-1.437,1.475-2.528,1.961
		C556.153,24.849,554.979,25.092,553.724,25.092z M553.186,12.886c-1.397,0-2.229,0.925-2.492,2.775h4.814v-0.368
		c0.019-0.765-0.176-1.357-0.581-1.777S553.941,12.886,553.186,12.886z"/>
	<path d="M566.61,9.487l0.156,1.798c1.085-1.388,2.544-2.082,4.375-2.082c1.935,0,3.243,0.77,3.922,2.308
		c1.039-1.539,2.54-2.308,4.503-2.308c3.106,0,4.701,1.878,4.786,5.636v9.969h-4.786v-9.671c0-0.784-0.132-1.354-0.396-1.713
		c-0.265-0.359-0.746-0.538-1.444-0.538c-0.944,0-1.647,0.42-2.11,1.26l0.015,0.198v10.464h-4.786v-9.643
		c0-0.802-0.127-1.383-0.382-1.742c-0.256-0.359-0.741-0.538-1.458-0.538c-0.916,0-1.614,0.42-2.097,1.26v10.663h-4.771V9.487
		H566.61z"/>
	<path d="M595.709,24.809c-0.171-0.312-0.321-0.77-0.453-1.374c-0.878,1.104-2.105,1.657-3.683,1.657
		c-1.443,0-2.671-0.437-3.682-1.31c-1.01-0.874-1.515-1.971-1.515-3.292c0-1.662,0.613-2.917,1.841-3.767
		c1.227-0.85,3.011-1.274,5.353-1.274h1.474v-0.811c0-1.414-0.609-2.12-1.827-2.12c-1.133,0-1.699,0.56-1.699,1.679h-4.772
		c0-1.48,0.631-2.683,1.891-3.606c1.261-0.924,2.868-1.386,4.822-1.386s3.497,0.477,4.63,1.43c1.132,0.953,1.713,2.261,1.742,3.922
		v6.783c0.019,1.407,0.235,2.483,0.65,3.229v0.241L595.709,24.809L595.709,24.809z M592.721,21.693c0.595,0,1.088-0.127,1.479-0.382
		c0.393-0.255,0.672-0.543,0.843-0.864v-2.45h-1.389c-1.662,0-2.492,0.746-2.492,2.237c0,0.434,0.146,0.786,0.439,1.055
		C591.895,21.559,592.268,21.693,592.721,21.693z"/>
	<path d="M606.853,9.487l0.156,1.798c1.057-1.388,2.516-2.082,4.375-2.082c1.596,0,2.787,0.477,3.575,1.43
		c0.787,0.953,1.195,2.388,1.226,4.305v9.87h-4.787v-9.671c0-0.774-0.155-1.343-0.467-1.707c-0.313-0.363-0.878-0.545-1.699-0.545
		c-0.935,0-1.629,0.368-2.082,1.104v10.818h-4.771V9.487H606.853z"/>
	<path d="M618.224,17.035c0-2.426,0.522-4.338,1.571-5.735c1.048-1.397,2.511-2.096,4.39-2.096c1.369,0,2.521,0.538,3.455,1.614
		v-7.76h4.786v21.75h-4.29l-0.241-1.643c-0.981,1.284-2.229,1.926-3.738,1.926c-1.82,0-3.267-0.699-4.333-2.096
		C618.758,21.598,618.224,19.612,618.224,17.035z M622.995,17.332c0,2.719,0.793,4.078,2.38,4.078c1.057,0,1.813-0.444,2.266-1.331
		v-5.834c-0.435-0.906-1.18-1.359-2.237-1.359c-1.473,0-2.271,1.189-2.394,3.568L622.995,17.332z"/>
	<path d="M469.096,59.608V46.354h-2.394v-2.067h2.394v-1.94c0-1.633,0.427-2.896,1.282-3.788c0.854-0.893,2.046-1.338,3.574-1.338
		c0.321,0,0.646,0.026,0.971,0.078c0.325,0.052,0.687,0.125,1.083,0.22l-0.34,2.124c-0.171-0.038-0.375-0.071-0.616-0.099
		c-0.241-0.028-0.494-0.042-0.758-0.042c-0.813,0-1.416,0.243-1.813,0.729c-0.396,0.486-0.595,1.191-0.595,2.117v1.94h3.186v2.067
		h-3.186v13.254L469.096,59.608L469.096,59.608z"/>
	<path d="M477.295,51.806c0-2.266,0.613-4.132,1.841-5.6c1.227-1.468,2.894-2.202,4.999-2.202c2.124,0,3.802,0.731,5.034,2.195
		c1.23,1.463,1.848,3.333,1.848,5.607v0.312c0,2.285-0.614,4.154-1.841,5.607c-1.228,1.453-2.898,2.181-5.014,2.181
		c-2.114,0-3.787-0.729-5.02-2.188c-1.232-1.458-1.848-3.325-1.848-5.6V51.806z M480.084,52.11c0,1.622,0.342,2.961,1.025,4.017
		c0.686,1.056,1.702,1.584,3.052,1.584c1.331,0,2.342-0.528,3.03-1.584c0.689-1.056,1.034-2.395,1.034-4.017v-0.311
		c0-1.603-0.347-2.937-1.041-4.002s-1.711-1.598-3.052-1.598c-1.331,0-2.339,0.533-3.023,1.598c-0.684,1.065-1.025,2.4-1.025,4.002
		V52.11z"/>
	<path d="M501.679,46.751l-1.431-0.085c-0.735,0-1.356,0.175-1.861,0.524s-0.895,0.84-1.168,1.473v10.946h-2.79V44.287h2.492
		l0.269,2.237c0.434-0.793,0.97-1.411,1.607-1.855c0.637-0.444,1.371-0.666,2.201-0.666c0.208,0,0.406,0.017,0.596,0.05
		c0.188,0.033,0.345,0.068,0.467,0.106L501.679,46.751z"/>
	<path d="M510.457,59.906c-2.133,0-3.829-0.71-5.091-2.131c-1.26-1.42-1.89-3.264-1.89-5.529v-0.623
		c0-2.181,0.648-3.996,1.947-5.444c1.298-1.449,2.834-2.174,4.608-2.174c2.067,0,3.63,0.623,4.688,1.869
		c1.057,1.246,1.586,2.908,1.586,4.984V52.6h-9.94l-0.042,0.071c0.028,1.468,0.401,2.676,1.119,3.622
		c0.717,0.946,1.723,1.419,3.016,1.419c0.944,0,1.772-0.135,2.485-0.403c0.712-0.27,1.329-0.64,1.848-1.112l1.091,1.813
		c-0.547,0.542-1.271,0.993-2.167,1.354C512.818,59.725,511.732,59.906,510.457,59.906z M510.032,46.199
		c-0.935,0-1.731,0.393-2.393,1.178c-0.661,0.786-1.067,1.771-1.218,2.957l0.027,0.071h7.066v-0.367
		c0-1.092-0.292-2.004-0.878-2.738C512.053,46.566,511.185,46.199,510.032,46.199z"/>
	<path d="M525.666,57.711c0.925,0,1.738-0.286,2.442-0.856c0.703-0.571,1.055-1.272,1.055-2.103h2.507l0.027,0.085
		c0.047,1.322-0.541,2.497-1.763,3.526c-1.222,1.029-2.646,1.543-4.269,1.543c-2.229,0-3.933-0.727-5.112-2.181
		c-1.181-1.454-1.771-3.28-1.771-5.48V51.65c0-2.181,0.592-4,1.777-5.459c1.185-1.458,2.887-2.188,5.104-2.188
		c1.794,0,3.26,0.529,4.397,1.586c1.137,1.057,1.687,2.355,1.648,3.894l-0.027,0.085h-2.521c0-0.935-0.331-1.73-0.99-2.386
		c-0.661-0.656-1.496-0.984-2.507-0.984c-1.463,0-2.509,0.526-3.136,1.577c-0.628,1.052-0.941,2.341-0.941,3.868v0.594
		c0,1.565,0.312,2.869,0.935,3.911S524.193,57.711,525.666,57.711z"/>
	<path d="M544.243,59.608c-0.094-0.462-0.167-0.871-0.22-1.225c-0.052-0.354-0.083-0.71-0.092-1.069
		c-0.52,0.736-1.196,1.353-2.032,1.848c-0.835,0.496-1.733,0.744-2.697,0.744c-1.595,0-2.811-0.408-3.646-1.225
		c-0.835-0.816-1.253-1.942-1.253-3.377c0-1.463,0.592-2.608,1.776-3.434c1.186-0.826,2.793-1.239,4.821-1.239h3.03v-1.515
		c0-0.897-0.274-1.607-0.821-2.131c-0.547-0.523-1.321-0.786-2.321-0.786c-0.897,0-1.627,0.229-2.188,0.687
		s-0.843,1.007-0.843,1.649h-2.662l-0.028-0.085c-0.057-1.114,0.47-2.133,1.579-3.059c1.109-0.925,2.542-1.388,4.297-1.388
		c1.737,0,3.134,0.441,4.191,1.324c1.057,0.882,1.586,2.154,1.586,3.816v7.377c0,0.547,0.027,1.076,0.085,1.586
		c0.057,0.51,0.161,1.01,0.312,1.501L544.243,59.608L544.243,59.608z M539.614,57.555c1.01,0,1.921-0.259,2.733-0.776
		c0.812-0.518,1.34-1.111,1.586-1.78v-2.485h-3.129c-1.124,0-2.022,0.283-2.698,0.847c-0.675,0.565-1.012,1.229-1.012,1.991
		c0,0.678,0.212,1.214,0.637,1.61C538.155,57.357,538.782,57.555,539.614,57.555z"/>
	<path d="M559.679,55.53c0-0.614-0.233-1.119-0.701-1.515c-0.467-0.396-1.352-0.741-2.655-1.034
		c-1.859-0.405-3.259-0.954-4.199-1.647c-0.938-0.693-1.408-1.638-1.408-2.834c0-1.244,0.528-2.305,1.586-3.181
		c1.057-0.876,2.436-1.315,4.135-1.315c1.784,0,3.203,0.458,4.255,1.374s1.555,2.03,1.508,3.342l-0.027,0.085h-2.662
		c0-0.67-0.281-1.272-0.843-1.805c-0.563-0.534-1.306-0.8-2.23-0.8c-0.991,0-1.729,0.217-2.209,0.651s-0.722,0.958-0.722,1.572
		c0,0.604,0.212,1.081,0.637,1.43s1.289,0.661,2.591,0.935c1.936,0.416,3.375,0.979,4.319,1.692
		c0.943,0.713,1.416,1.669,1.416,2.868c0,1.359-0.55,2.459-1.65,3.299c-1.1,0.84-2.537,1.26-4.312,1.26
		c-1.954,0-3.493-0.496-4.616-1.487c-1.123-0.991-1.657-2.147-1.601-3.469l0.028-0.085h2.662c0.047,0.986,0.416,1.708,1.104,2.163
		c0.688,0.455,1.495,0.683,2.421,0.683c0.991,0,1.768-0.201,2.329-0.602C559.398,56.708,559.679,56.182,559.679,55.53z"/>
	<path d="M569.618,40.591v3.696h2.903v2.067h-2.903v9.303c0,0.717,0.149,1.223,0.446,1.515c0.298,0.292,0.692,0.439,1.183,0.439
		c0.161,0,0.337-0.019,0.531-0.057c0.193-0.038,0.366-0.085,0.518-0.142l0.367,1.912c-0.208,0.17-0.512,0.309-0.913,0.418
		c-0.4,0.108-0.805,0.163-1.211,0.163c-1.133,0-2.033-0.342-2.705-1.027c-0.67-0.684-1.005-1.758-1.005-3.221v-9.303h-2.436v-2.067
		h2.436v-3.696H569.618z"/>
	<path d="M578.979,40.365h-2.79v-2.846h2.79V40.365z M578.979,59.608h-2.79V44.287h2.79V59.608z"/>
	<path d="M585.762,44.287l0.198,2.28c0.51-0.812,1.148-1.442,1.918-1.89c0.77-0.449,1.645-0.673,2.627-0.673
		c1.651,0,2.931,0.484,3.837,1.451c0.906,0.968,1.358,2.462,1.358,4.482v9.671h-2.79v-9.615c0-1.35-0.267-2.308-0.8-2.875
		c-0.534-0.566-1.348-0.85-2.442-0.85c-0.803,0-1.514,0.193-2.131,0.581c-0.618,0.387-1.111,0.916-1.479,1.586v11.172h-2.79v-15.32
		H585.762z"/>
	<path d="M599.143,52.231c0-2.464,0.538-4.451,1.614-5.961c1.075-1.51,2.563-2.266,4.46-2.266c0.972,0,1.827,0.196,2.563,0.588
		c0.736,0.392,1.351,0.956,1.841,1.692l0.341-1.997h2.224v15.406c0,1.963-0.572,3.472-1.714,4.524
		c-1.143,1.052-2.79,1.579-4.942,1.579c-0.735,0-1.532-0.102-2.386-0.304c-0.854-0.203-1.607-0.479-2.258-0.829l0.708-2.167
		c0.5,0.283,1.104,0.512,1.813,0.687c0.708,0.175,1.407,0.262,2.097,0.262c1.359,0,2.348-0.309,2.966-0.927
		c0.618-0.619,0.928-1.56,0.928-2.825v-1.728c-0.501,0.642-1.1,1.126-1.798,1.451c-0.699,0.326-1.502,0.489-2.408,0.489
		c-1.878,0-3.355-0.68-4.432-2.039c-1.076-1.359-1.614-3.139-1.614-5.338L599.143,52.231L599.143,52.231z M601.933,52.528
		c0,1.539,0.326,2.775,0.977,3.71c0.651,0.935,1.644,1.402,2.975,1.402c0.841,0,1.544-0.191,2.109-0.574
		c0.566-0.382,1.033-0.922,1.401-1.621v-7.052c-0.358-0.651-0.826-1.168-1.401-1.551c-0.575-0.382-1.27-0.573-2.082-0.573
		c-1.331,0-2.327,0.557-2.987,1.671c-0.661,1.114-0.991,2.544-0.991,4.291V52.528z"/>
</g>
<g>
	<path d="M768.064,17.813v6.995h-4.97V4.191h8.228c1.576,0,2.972,0.29,4.185,0.871c1.213,0.58,2.151,1.406,2.817,2.478
		c0.665,1.072,0.998,2.287,0.998,3.646c0,2.011-0.72,3.618-2.159,4.821c-1.439,1.204-3.414,1.806-5.927,1.806H768.064z
		 M768.064,13.976h3.258c0.963,0,1.696-0.241,2.201-0.722c0.506-0.481,0.758-1.161,0.758-2.039c0-0.963-0.26-1.732-0.778-2.308
		c-0.52-0.576-1.228-0.869-2.123-0.878h-3.314L768.064,13.976L768.064,13.976z"/>
	<path d="M791.018,13.806l-1.571-0.113c-1.502,0-2.465,0.472-2.889,1.416v9.7h-4.772V9.487h4.476l0.155,1.968
		c0.803-1.501,1.922-2.251,3.355-2.251c0.51,0,0.954,0.057,1.331,0.17L791.018,13.806z"/>
	<path d="M791.625,17.006c0-1.529,0.299-2.891,0.894-4.085c0.595-1.194,1.449-2.112,2.563-2.754
		c1.114-0.642,2.423-0.963,3.924-0.963c2.294,0,4.102,0.71,5.423,2.131s1.981,3.354,1.981,5.799v0.17
		c0,2.388-0.662,4.283-1.987,5.686c-1.327,1.401-3.123,2.103-5.39,2.103c-2.181,0-3.932-0.654-5.254-1.961
		c-1.321-1.308-2.033-3.08-2.138-5.317L791.625,17.006z M796.399,17.304c0,1.416,0.222,2.455,0.665,3.115
		c0.444,0.661,1.1,0.991,1.969,0.991c1.699,0,2.568-1.308,2.605-3.922v-0.481c0-2.747-0.878-4.121-2.634-4.121
		c-1.596,0-2.459,1.185-2.592,3.554L796.399,17.304z"/>
	<path d="M813.023,9.487l0.156,1.798c1.085-1.388,2.543-2.082,4.375-2.082c1.936,0,3.242,0.77,3.922,2.308
		c1.039-1.539,2.54-2.308,4.504-2.308c3.105,0,4.701,1.878,4.785,5.636v9.969h-4.785v-9.671c0-0.784-0.133-1.354-0.396-1.713
		c-0.266-0.359-0.746-0.538-1.445-0.538c-0.943,0-1.646,0.42-2.109,1.26l0.015,0.198v10.464h-4.785v-9.643
		c0-0.802-0.128-1.383-0.383-1.742c-0.256-0.359-0.741-0.538-1.459-0.538c-0.915,0-1.613,0.42-2.097,1.26v10.663h-4.771V9.487
		H813.023z"/>
	<path d="M832.89,17.006c0-1.529,0.297-2.891,0.892-4.085c0.596-1.194,1.449-2.112,2.563-2.754c1.112-0.642,2.421-0.963,3.922-0.963
		c2.294,0,4.102,0.71,5.424,2.131c1.321,1.421,1.982,3.354,1.982,5.799v0.17c0,2.388-0.664,4.283-1.99,5.686
		c-1.326,1.401-3.122,2.103-5.388,2.103c-2.182,0-3.933-0.654-5.253-1.961c-1.322-1.308-2.035-3.08-2.14-5.317L832.89,17.006z
		 M837.661,17.304c0,1.416,0.223,2.455,0.666,3.115c0.443,0.661,1.101,0.991,1.969,0.991c1.698,0,2.566-1.308,2.604-3.922v-0.481
		c0-2.747-0.878-4.121-2.634-4.121c-1.596,0-2.459,1.185-2.592,3.554L837.661,17.304z"/>
	<path d="M855.332,5.678v3.809h2.521V12.8h-2.521v7.009c0,0.576,0.104,0.977,0.313,1.204s0.618,0.34,1.231,0.34
		c0.473,0,0.868-0.028,1.188-0.085v3.413c-0.857,0.274-1.756,0.411-2.688,0.411c-1.644,0-2.855-0.387-3.641-1.161
		s-1.175-1.949-1.175-3.526v-7.604h-1.955V9.487h1.955V5.678H855.332z"/>
	<path d="M859.695,5.537c0-0.68,0.246-1.237,0.736-1.671c0.49-0.434,1.128-0.651,1.912-0.651c0.783,0,1.42,0.217,1.911,0.651
		c0.49,0.434,0.735,0.991,0.735,1.671c0,0.68-0.245,1.237-0.735,1.671c-0.491,0.434-1.128,0.651-1.911,0.651
		c-0.784,0-1.422-0.217-1.912-0.651S859.695,6.216,859.695,5.537z M864.764,24.809h-4.786V9.487h4.786V24.809z"/>
	<path d="M867.101,17.006c0-1.529,0.297-2.891,0.892-4.085c0.596-1.194,1.449-2.112,2.563-2.754
		c1.113-0.642,2.421-0.963,3.922-0.963c2.294,0,4.102,0.71,5.424,2.131c1.321,1.421,1.982,3.354,1.982,5.799v0.17
		c0,2.388-0.664,4.283-1.99,5.686c-1.326,1.401-3.122,2.103-5.388,2.103c-2.182,0-3.933-0.654-5.253-1.961
		c-1.322-1.308-2.035-3.08-2.14-5.317L867.101,17.006z M871.872,17.304c0,1.416,0.223,2.455,0.666,3.115
		c0.443,0.661,1.101,0.991,1.969,0.991c1.698,0,2.566-1.308,2.604-3.922v-0.481c0-2.747-0.878-4.121-2.634-4.121
		c-1.596,0-2.459,1.185-2.592,3.554L871.872,17.304z"/>
	<path d="M888.368,9.487l0.156,1.798c1.058-1.388,2.517-2.082,4.375-2.082c1.596,0,2.787,0.477,3.576,1.43
		c0.788,0.954,1.196,2.388,1.225,4.305v9.87h-4.786v-9.671c0-0.774-0.154-1.343-0.468-1.707c-0.311-0.363-0.877-0.545-1.699-0.545
		c-0.934,0-1.628,0.368-2.081,1.104v10.818h-4.771V9.487H888.368z"/>
	<path d="M907.528,5.537c0-0.68,0.245-1.237,0.736-1.671c0.491-0.434,1.128-0.651,1.911-0.651c0.784,0,1.422,0.217,1.912,0.651
		c0.489,0.434,0.735,0.991,0.735,1.671c0,0.68-0.246,1.237-0.735,1.671c-0.49,0.434-1.128,0.651-1.912,0.651
		c-0.783,0-1.42-0.217-1.911-0.651S907.528,6.216,907.528,5.537z M912.597,24.809h-4.786V9.487h4.786V24.809z"/>
	<path d="M920.045,9.487l0.154,1.798c1.086-1.388,2.545-2.082,4.376-2.082c1.936,0,3.243,0.77,3.923,2.308
		c1.038-1.539,2.539-2.308,4.502-2.308c3.106,0,4.701,1.878,4.787,5.636v9.969H933v-9.671c0-0.784-0.132-1.354-0.396-1.713
		c-0.264-0.359-0.745-0.538-1.443-0.538c-0.943,0-1.647,0.42-2.109,1.26l0.015,0.198v10.464h-4.787v-9.643
		c0-0.802-0.127-1.383-0.382-1.742c-0.255-0.359-0.741-0.538-1.458-0.538c-0.916,0-1.615,0.42-2.096,1.26v10.663h-4.772V9.487
		H920.045z"/>
	<path d="M954.738,17.261c0,2.379-0.535,4.279-1.606,5.7c-1.071,1.42-2.519,2.131-4.341,2.131c-1.405,0-2.563-0.515-3.469-1.543
		V30.7h-4.771V9.487h4.46l0.143,1.416c0.915-1.133,2.119-1.699,3.61-1.699c1.888,0,3.355,0.696,4.403,2.089
		c1.049,1.392,1.571,3.306,1.571,5.742V17.261L954.738,17.261z M949.966,16.964c0-2.719-0.793-4.078-2.379-4.078
		c-1.134,0-1.89,0.406-2.267,1.218v6.032c0.415,0.85,1.18,1.274,2.293,1.274c1.521,0,2.305-1.312,2.353-3.937V16.964z"/>
	<path d="M965.471,24.809c-0.17-0.312-0.321-0.77-0.453-1.374c-0.878,1.104-2.104,1.657-3.682,1.657
		c-1.444,0-2.672-0.437-3.683-1.31c-1.011-0.874-1.515-1.971-1.515-3.292c0-1.662,0.613-2.917,1.84-3.767
		c1.229-0.85,3.012-1.274,5.354-1.274h1.474v-0.811c0-1.414-0.609-2.12-1.827-2.12c-1.133,0-1.699,0.56-1.699,1.679h-4.771
		c0-1.48,0.631-2.683,1.891-3.606c1.261-0.924,2.867-1.386,4.822-1.386c1.953,0,3.497,0.477,4.63,1.43
		c1.133,0.953,1.714,2.261,1.741,3.922v6.783c0.02,1.407,0.236,2.483,0.651,3.229v0.241L965.471,24.809L965.471,24.809z
		 M962.484,21.693c0.594,0,1.088-0.127,1.479-0.382c0.391-0.255,0.673-0.543,0.843-0.864v-2.45h-1.389
		c-1.661,0-2.492,0.746-2.492,2.237c0,0.434,0.146,0.786,0.438,1.055C961.657,21.559,962.031,21.693,962.484,21.693z"/>
	<path d="M978.71,21.41c0.671,0,1.188-0.182,1.559-0.545c0.367-0.364,0.547-0.871,0.537-1.522h4.475c0,1.68-0.602,3.059-1.805,4.135
		s-2.754,1.614-4.652,1.614c-2.228,0-3.982-0.699-5.268-2.096c-1.283-1.397-1.926-3.333-1.926-5.806v-0.198
		c0-1.548,0.286-2.915,0.856-4.1s1.396-2.096,2.471-2.732c1.076-0.638,2.352-0.956,3.823-0.956c1.991,0,3.573,0.552,4.743,1.657
		c1.171,1.104,1.756,2.601,1.756,4.489h-4.475c0-0.793-0.193-1.402-0.58-1.827c-0.387-0.425-0.906-0.637-1.559-0.637
		c-1.236,0-1.959,0.788-2.166,2.365c-0.065,0.5-0.1,1.189-0.1,2.067c0,1.539,0.186,2.605,0.552,3.2
		C977.323,21.113,977.908,21.41,978.71,21.41z"/>
	<path d="M992.857,5.678v3.809h2.521V12.8h-2.521v7.009c0,0.576,0.104,0.977,0.313,1.204s0.617,0.34,1.23,0.34
		c0.474,0,0.869-0.028,1.189-0.085v3.413c-0.858,0.274-1.756,0.411-2.689,0.411c-1.643,0-2.854-0.387-3.64-1.161
		s-1.175-1.949-1.175-3.526v-7.604h-1.955V9.487h1.955V5.678H992.857z"/>
	<path d="M825.554,51.806c0-2.266,0.614-4.132,1.842-5.6c1.227-1.468,2.893-2.202,4.998-2.202c2.124,0,3.802,0.731,5.034,2.195
		c1.23,1.463,1.848,3.333,1.848,5.607v0.312c0,2.285-0.614,4.154-1.841,5.607c-1.228,1.453-2.898,2.181-5.013,2.181
		c-2.115,0-3.788-0.729-5.021-2.188c-1.231-1.458-1.849-3.325-1.849-5.6L825.554,51.806L825.554,51.806z M828.344,52.11
		c0,1.622,0.343,2.961,1.025,4.017c0.686,1.056,1.701,1.584,3.053,1.584c1.331,0,2.341-0.528,3.029-1.584
		c0.689-1.056,1.033-2.395,1.033-4.017v-0.311c0-1.603-0.347-2.937-1.04-4.002s-1.712-1.598-3.052-1.598
		c-1.331,0-2.339,0.533-3.023,1.598c-0.684,1.065-1.025,2.4-1.025,4.002V52.11L828.344,52.11z"/>
	<path d="M845.181,44.287l0.197,2.28c0.51-0.812,1.149-1.442,1.919-1.89c0.77-0.449,1.646-0.673,2.627-0.673
		c1.65,0,2.931,0.484,3.837,1.451c0.906,0.968,1.358,2.462,1.358,4.482v9.671h-2.789v-9.615c0-1.35-0.267-2.308-0.8-2.875
		c-0.534-0.566-1.348-0.85-2.441-0.85c-0.804,0-1.515,0.193-2.132,0.581c-0.618,0.388-1.111,0.916-1.479,1.586v11.172h-2.789v-15.32
		H845.181z"/>
	<path d="M875.284,55.53c0-0.614-0.231-1.119-0.7-1.515c-0.468-0.396-1.353-0.741-2.654-1.034c-1.859-0.405-3.26-0.954-4.199-1.647
		c-0.938-0.693-1.408-1.638-1.408-2.834c0-1.244,0.529-2.305,1.586-3.181c1.058-0.876,2.437-1.315,4.136-1.315
		c1.783,0,3.202,0.458,4.256,1.374c1.052,0.916,1.555,2.03,1.508,3.342l-0.029,0.085h-2.662c0-0.67-0.279-1.272-0.842-1.805
		c-0.563-0.534-1.305-0.8-2.229-0.8c-0.991,0-1.729,0.217-2.209,0.651c-0.481,0.434-0.724,0.958-0.724,1.572
		c0,0.604,0.213,1.081,0.639,1.43c0.425,0.349,1.288,0.661,2.591,0.935c1.936,0.416,3.375,0.979,4.318,1.692
		c0.944,0.713,1.416,1.669,1.416,2.868c0,1.359-0.55,2.459-1.648,3.299c-1.1,0.84-2.537,1.26-4.313,1.26
		c-1.953,0-3.491-0.496-4.614-1.487c-1.124-0.991-1.657-2.147-1.602-3.469l0.028-0.085h2.662c0.047,0.986,0.416,1.708,1.104,2.163
		c0.688,0.455,1.496,0.683,2.421,0.683c0.992,0,1.769-0.201,2.33-0.602C875.004,56.708,875.284,56.182,875.284,55.53z"/>
	<path d="M890.96,59.608c-0.095-0.462-0.169-0.871-0.221-1.225s-0.083-0.71-0.092-1.069c-0.519,0.736-1.196,1.353-2.032,1.848
		c-0.835,0.496-1.733,0.744-2.696,0.744c-1.597,0-2.812-0.408-3.646-1.225c-0.835-0.816-1.253-1.942-1.253-3.377
		c0-1.463,0.593-2.608,1.777-3.434c1.185-0.826,2.792-1.239,4.82-1.239h3.03v-1.515c0-0.897-0.273-1.607-0.821-2.131
		c-0.547-0.523-1.321-0.786-2.321-0.786c-0.896,0-1.626,0.229-2.188,0.687s-0.843,1.007-0.843,1.649h-2.662l-0.028-0.085
		c-0.057-1.114,0.471-2.133,1.579-3.059c1.108-0.925,2.542-1.388,4.298-1.388c1.736,0,3.135,0.441,4.191,1.324
		c1.057,0.882,1.586,2.154,1.586,3.816v7.377c0,0.547,0.027,1.076,0.084,1.586c0.057,0.51,0.161,1.01,0.313,1.501L890.96,59.608
		L890.96,59.608z M886.329,57.555c1.012,0,1.923-0.259,2.733-0.776c0.813-0.518,1.341-1.111,1.586-1.78v-2.485h-3.13
		c-1.123,0-2.021,0.283-2.697,0.847c-0.675,0.565-1.012,1.229-1.012,1.991c0,0.678,0.212,1.214,0.637,1.61
		C884.871,57.357,885.5,57.555,886.329,57.555z"/>
	<path d="M900.504,59.608h-2.79v-22.09h2.79V59.608z"/>
	<path d="M911.153,59.906c-2.134,0-3.83-0.71-5.091-2.131c-1.26-1.42-1.891-3.264-1.891-5.529v-0.623
		c0-2.181,0.648-3.996,1.946-5.444c1.3-1.449,2.834-2.174,4.609-2.174c2.067,0,3.63,0.623,4.688,1.869s1.587,2.908,1.587,4.984V52.6
		h-9.941l-0.042,0.071c0.028,1.468,0.401,2.676,1.118,3.622c0.718,0.946,1.723,1.419,3.017,1.419c0.944,0,1.772-0.135,2.485-0.403
		c0.713-0.27,1.328-0.64,1.848-1.112l1.09,1.813c-0.547,0.542-1.27,0.993-2.166,1.354C913.513,59.725,912.427,59.906,911.153,59.906
		z M910.728,46.199c-0.935,0-1.732,0.393-2.393,1.178c-0.661,0.786-1.067,1.771-1.22,2.957l0.029,0.071h7.065v-0.367
		c0-1.092-0.292-2.004-0.878-2.738C912.747,46.566,911.88,46.199,910.728,46.199z"/>
	<path d="M929.036,55.53c0-0.614-0.231-1.119-0.7-1.515c-0.468-0.396-1.353-0.741-2.654-1.034c-1.859-0.405-3.26-0.954-4.199-1.647
		c-0.938-0.693-1.408-1.638-1.408-2.834c0-1.244,0.529-2.305,1.586-3.181c1.058-0.876,2.437-1.315,4.136-1.315
		c1.783,0,3.202,0.458,4.256,1.374c1.052,0.916,1.555,2.03,1.508,3.342l-0.029,0.085h-2.662c0-0.67-0.279-1.272-0.842-1.805
		c-0.563-0.534-1.305-0.8-2.229-0.8c-0.991,0-1.729,0.217-2.209,0.651c-0.481,0.434-0.724,0.958-0.724,1.572
		c0,0.604,0.213,1.081,0.639,1.43c0.425,0.349,1.288,0.661,2.591,0.935c1.936,0.416,3.375,0.979,4.318,1.692
		c0.944,0.713,1.416,1.669,1.416,2.868c0,1.359-0.55,2.459-1.648,3.299c-1.1,0.84-2.537,1.26-4.313,1.26
		c-1.952,0-3.491-0.496-4.614-1.487c-1.124-0.991-1.657-2.147-1.602-3.469l0.028-0.085h2.662c0.047,0.986,0.416,1.708,1.104,2.163
		c0.688,0.455,1.496,0.683,2.421,0.683c0.992,0,1.769-0.201,2.33-0.602C928.756,56.708,929.036,56.182,929.036,55.53z"/>
</g>
</svg>
