<?xml version="1.0" encoding="utf-8"?>
<!-- Generator: Adobe Illustrator 16.0.0, SVG Export Plug-In . SVG Version: 6.00 Build 0)  -->
<!DOCTYPE svg PUBLIC "-//W3C//DTD SVG 1.1//EN" "http://www.w3.org/Graphics/SVG/1.1/DTD/svg11.dtd">
<svg version="1.1" id="Layer_1" xmlns="http://www.w3.org/2000/svg" xmlns:xlink="http://www.w3.org/1999/xlink" x="0px" y="0px"
	 width="512px" height="512px" viewBox="0 0 512 512" enable-background="new 0 0 512 512" xml:space="preserve">
<path d="M478.914,312.195c-4.145,0-7.5,3.359-7.5,7.5v119.57H316.821V297.324c0-9.652-7.852-17.504-17.5-17.504H212.68
	c-9.648,0-17.5,7.855-17.5,17.504v141.941H40.586v-119.57c0-4.141-3.355-7.5-7.5-7.5s-7.5,3.359-7.5,7.5v123.07
	c0,6.34,5.16,11.5,11.5,11.5h437.828c6.34,0,11.5-5.16,11.5-11.5v-123.07C486.414,315.555,483.059,312.195,478.914,312.195z
	 M210.18,439.266V297.324c0-1.379,1.121-2.504,2.5-2.504h86.641c1.379,0,2.5,1.125,2.5,2.504v141.941H210.18z"/>
<path d="M443.285,409.633c8.805,0,15.969-7.164,15.969-15.969V311.82c0-8.805-7.164-15.965-15.969-15.965h-92.816
	c-8.805,0-15.969,7.16-15.969,15.965v81.844c0,8.805,7.164,15.969,15.969,15.969H443.285z M349.5,393.664V311.82
	c0-0.531,0.434-0.965,0.969-0.965h92.816c0.535,0,0.969,0.434,0.969,0.965v81.844c0,0.535-0.434,0.969-0.969,0.969h-92.816
	C349.934,394.633,349.5,394.199,349.5,393.664z"/>
<path d="M161.531,409.633c8.805,0,15.969-7.164,15.969-15.969V311.82c0-8.805-7.164-15.965-15.969-15.965H68.715
	c-8.805,0-15.969,7.16-15.969,15.965v81.844c0,8.805,7.164,15.969,15.969,15.969H161.531z M67.746,393.664V311.82
	c0-0.531,0.434-0.965,0.969-0.965h92.816c0.535,0,0.969,0.434,0.969,0.965v81.844c0,0.535-0.434,0.969-0.969,0.969H68.715
	C68.18,394.633,67.746,394.199,67.746,393.664z"/>
<path d="M489.961,110.57c0-8.012,6.52-14.527,14.539-14.527c4.145,0,7.5-3.359,7.5-7.5V70.191c0-4.141-3.355-7.5-7.5-7.5H380.692
	c-4.145,0-7.5,3.359-7.5,7.5c0,4.145,3.355,7.5,7.5,7.5H497v4.316c-10.27,2.695-18.375,10.797-21.074,21.063H357.938V36.492
	C357.938,16.371,341.567,0,321.446,0H190.559c-20.125,0-36.492,16.371-36.492,36.492v26.199H7.5c-4.145,0-7.5,3.359-7.5,7.5v18.352
	c0,4.141,3.355,7.5,7.5,7.5c8.02,0,14.539,6.516,14.539,14.527c0,2.707,1.434,5.078,3.582,6.398v51.227H12.125
	c-6.344,0-11.504,5.16-11.504,11.5v40.84c0,6.34,5.16,11.5,11.504,11.5h13.496v57.715c0,4.141,3.355,7.5,7.5,7.5s7.5-3.359,7.5-7.5
	v-57.715H472v57.727c0,4.141,3.355,7.5,7.5,7.5c4.141,0,7.5-3.359,7.5-7.5v-57.727h13.496c6.344,0,11.504-5.16,11.504-11.5v-40.84
	c0-6.34-5.16-11.5-11.504-11.5H487v-51.652C488.797,115.172,489.961,113.008,489.961,110.57z M497,217.035H15.621v-33.84H497
	V217.035z M40.621,168.195V118.07h90.949c4.145,0,7.5-3.355,7.5-7.5c0-4.141-3.355-7.5-7.5-7.5H36.074
	C33.375,92.805,25.27,84.703,15,82.008v-4.316h139.063v40.637c0,20.121,16.371,36.492,36.492,36.492h130.887
	c20.125,0,36.492-16.371,36.492-36.492v-0.254h114.063v50.121H40.621z"/>
<path d="M227,359.543h-6c-4.145,0-7.5,3.359-7.5,7.5s3.355,7.5,7.5,7.5h6c4.145,0,7.5-3.359,7.5-7.5S231.145,359.543,227,359.543z"
	/>
<path fill="#40A3FF" d="M169.063,36.492c0-11.852,9.645-21.492,21.492-21.492h130.887c11.852,0,21.492,9.641,21.492,21.492v81.832
	c0,11.852-9.641,21.492-21.492,21.492H190.559c-11.852,0-21.492-9.641-21.492-21.492V36.492H169.063z"/>
<path d="M202.278,44.934h9.191l9.43,45.078c1.828,8.734,9.633,15.078,18.559,15.078h44.535c7.84,0,14.969-4.93,17.738-12.262
	l14.707-38.934c1.398-3.707,0.891-7.863-1.359-11.117c-2.25-3.258-5.961-5.203-9.918-5.203h-62.988c-4.141,0-7.5,3.355-7.5,7.5
	c0,4.141,3.359,7.5,7.5,7.5h58.73l-13.203,34.953c-0.578,1.531-2.066,2.563-3.703,2.563h-44.539c-1.863,0-3.492-1.328-3.875-3.148
	l-9.469-45.254c-1.426-6.813-7.508-11.754-14.469-11.754h-9.363c-4.145,0-7.5,3.355-7.5,7.5
	C194.781,41.574,198.137,44.934,202.278,44.934z"/>
<path d="M240.75,111.383h-2c-4.145,0-7.5,3.355-7.5,7.5c0,4.141,3.355,7.5,7.5,7.5h2c4.145,0,7.5-3.359,7.5-7.5
	C248.25,114.738,244.895,111.383,240.75,111.383z"/>
<path d="M273.25,111.383h-2c-4.145,0-7.5,3.355-7.5,7.5c0,4.141,3.355,7.5,7.5,7.5h2c4.145,0,7.5-3.359,7.5-7.5
	C280.75,114.738,277.395,111.383,273.25,111.383z"/>
</svg>
