<?xml version="1.0" encoding="utf-8"?>
<!-- Generator: Adobe Illustrator 16.0.0, SVG Export Plug-In . SVG Version: 6.00 Build 0)  -->
<!DOCTYPE svg PUBLIC "-//W3C//DTD SVG 1.1//EN" "http://www.w3.org/Graphics/SVG/1.1/DTD/svg11.dtd">
<svg version="1.1" id="Layer_1" xmlns="http://www.w3.org/2000/svg" xmlns:xlink="http://www.w3.org/1999/xlink" x="0px" y="0px"
	 width="512px" height="512px" viewBox="0 0 512 512" enable-background="new 0 0 512 512" xml:space="preserve">
<path fill="#3E9FFF" d="M423.886,224c-48.52,0.05-87.96,39.8-87.91,88.62c0.021,26.67,13.311,57.069,39.5,90.37
	c18.69,23.77,37.21,40.29,37.99,40.979c6.077,5.396,15.225,5.358,21.26-0.02c0.78-0.69,19.271-17.25,37.921-41.05
	c20.008-25.543,39.329-58.127,39.329-90.45C511.934,263.725,472.792,224,423.886,224L423.886,224z"/>
<path fill="#3E9FFF" d="M77.396,219.96c6.063,5.382,15.188,5.391,21.26,0c0.78-0.69,19.29-17.23,37.96-41.01
	c26.15-33.33,39.41-63.74,39.41-90.42c0-48.81-39.48-88.53-88-88.53s-88,39.72-88,88.53c0,26.68,13.26,57.09,39.41,90.42
	C58.106,202.73,76.616,219.27,77.396,219.96z"/>
<g>
	<path fill="#3F3F3F" d="M448.136,487.98c0.018,21.871-27.164,32.43-41.87,16.02H72.026c-39.7,0-72-32.3-72-72s32.3-72,72-72h160.5
		c21.78,0,39.5-17.721,39.5-39.5s-17.719-39.5-39.5-39.5h-126.61c-14.83,16.366-41.873,5.928-41.89-15.98
		c-0.034-21.935,26.977-32.38,41.89-16.02h126.61c39.43,0,71.5,32.07,71.5,71.5s-32.069,71.5-71.5,71.5h-160.5
		c-22.06,0-40,17.94-40,40s17.94,40,40,40h334.23C421.141,455.574,448.104,466.19,448.136,487.98L448.136,487.98z"/>
</g>
<path fill="#3F3F3F" d="M423.976,288c-21.18,0-32.148,25.801-16.96,40.99c12.045,12.018,32.577,8.033,39.15-7.82
	C452.674,305.473,441.071,288,423.976,288z"/>
<circle fill="#3F3F3F" cx="88.026" cy="88" r="24"/>
</svg>
