<?xml version="1.0" encoding="utf-8"?>
<!-- Generator: Adobe Illustrator 16.0.0, SVG Export Plug-In . SVG Version: 6.00 Build 0)  -->
<!DOCTYPE svg PUBLIC "-//W3C//DTD SVG 1.1//EN" "http://www.w3.org/Graphics/SVG/1.1/DTD/svg11.dtd">
<svg version="1.1" id="Layer_2" xmlns="http://www.w3.org/2000/svg" xmlns:xlink="http://www.w3.org/1999/xlink" x="0px" y="0px"
	 width="752.881px" height="330.74px" viewBox="0 0 752.881 330.74" enable-background="new 0 0 752.881 330.74"
	 xml:space="preserve">
<g>
	<g>
		<path fill="#7DE314" d="M133.199,88.741l-30.506,52.824c-1.068,1.861-3.049,3.001-5.198,3.001H36.506
			c-2.149,0-4.13-1.14-5.199-3.001L0.801,88.741c-1.068-1.861-1.068-4.142,0-6.003l30.506-52.824
			c1.069-1.861,3.05-3.001,5.199-3.001h60.988c2.149,0,4.13,1.14,5.198,3.001l28.273,48.958l2.233,3.866
			C134.267,84.599,134.267,86.88,133.199,88.741z"/>
		<path fill="#7DE314" d="M133.199,88.741l-30.506,52.824c-1.068,1.861-3.049,3.001-5.198,3.001H54.539L41.5,131.529
			c0.708,0.288,1.477,0.444,2.269,0.444h46.462c2.137,0,4.118-1.14,5.198-3.001l23.219-40.23c1.08-1.861,1.08-4.142,0-6.003
			L96.557,44.465l34.408,34.408l2.233,3.866C134.267,84.599,134.267,86.88,133.199,88.741z"/>
	</g>
	<g>
		<path fill="#FFFFFF" d="M118.648,88.741l-23.219,40.23c-1.081,1.861-3.062,3.001-5.198,3.001H43.769
			c-0.792,0-1.561-0.156-2.269-0.444c-0.012-0.012-0.024-0.012-0.024-0.012c-1.201-0.504-2.233-1.38-2.905-2.545l-0.504-0.876
			l-11.562-20.013L15.352,88.741c-1.08-1.861-1.08-4.142,0-6.003l23.219-40.23c1.081-1.861,3.062-3.001,5.198-3.001h46.462
			c2.137,0,4.118,1.14,5.198,3.001l1.128,1.957l22.091,38.273C119.728,84.599,119.728,86.88,118.648,88.741z"/>
		<g>
			<path fill="#7DE314" d="M66.902,85.413c0,2.162-0.319,4.152-0.958,5.971c-0.639,1.819-1.523,3.391-2.653,4.717
				c-1.13,1.327-2.474,2.359-4.029,3.096c-1.557,0.738-3.235,1.104-5.037,1.104c-1.835,0-3.521-0.367-5.061-1.104
				c-1.541-0.736-2.875-1.77-4.005-3.096c-1.131-1.326-2.015-2.898-2.653-4.717c-0.64-1.818-0.959-3.809-0.959-5.971
				s0.319-4.152,0.959-5.97c0.639-1.818,1.522-3.391,2.653-4.718c1.13-1.326,2.464-2.366,4.005-3.12
				c1.539-0.753,3.226-1.13,5.061-1.13c1.802,0,3.48,0.377,5.037,1.13c1.556,0.754,2.899,1.794,4.029,3.12
				c1.13,1.327,2.015,2.899,2.653,4.718C66.583,81.261,66.902,83.251,66.902,85.413z M60.268,85.413c0-1.31-0.147-2.514-0.441-3.611
				c-0.295-1.098-0.713-2.039-1.254-2.826c-0.54-0.785-1.179-1.391-1.916-1.817c-0.737-0.425-1.548-0.639-2.433-0.639
				c-0.917,0-1.744,0.214-2.481,0.639c-0.736,0.427-1.376,1.032-1.916,1.817c-0.541,0.787-0.958,1.729-1.253,2.826
				c-0.295,1.097-0.442,2.302-0.442,3.611c0,1.311,0.147,2.506,0.442,3.588c0.295,1.08,0.712,2.014,1.253,2.801
				c0.54,0.786,1.18,1.393,1.916,1.818c0.737,0.426,1.564,0.639,2.481,0.639c0.885,0,1.695-0.213,2.433-0.639
				c0.738-0.426,1.376-1.032,1.916-1.818c0.541-0.787,0.959-1.721,1.254-2.801C60.121,87.919,60.268,86.724,60.268,85.413z"/>
			<path fill="#7DE314" d="M91.663,93.865v5.946h-19.95v-5.946h6.978v-14.89c-0.295,0.395-0.762,0.795-1.4,1.205
				c-0.638,0.41-1.335,0.795-2.088,1.154c-0.754,0.361-1.532,0.656-2.334,0.885c-0.804,0.229-1.516,0.344-2.138,0.344V76.42
				c0.59,0,1.31-0.188,2.162-0.564c0.852-0.377,1.687-0.827,2.506-1.352c0.818-0.523,1.531-1.039,2.138-1.548
				c0.605-0.508,0.99-0.909,1.154-1.204h6.732v22.112L91.663,93.865L91.663,93.865z"/>
		</g>
	</g>
</g>
<g>
	<g>
		<path fill="#01CC9B" d="M286.31,244.853l-30.506,52.824c-1.068,1.861-3.049,3.002-5.198,3.002h-60.988
			c-2.149,0-4.13-1.141-5.198-3.002l-30.506-52.824c-1.068-1.86-1.068-4.142,0-6.002l30.506-52.824
			c1.068-1.861,3.049-3.002,5.198-3.002h60.988c2.149,0,4.13,1.141,5.198,3.002l28.273,48.959l2.233,3.865
			C287.378,240.711,287.378,242.991,286.31,244.853z"/>
		<path fill="#01CC9B" d="M286.31,244.853l-30.506,52.824c-1.068,1.861-3.049,3.002-5.198,3.002H207.65l-13.038-13.037
			c0.708,0.287,1.477,0.442,2.269,0.442h46.461c2.137,0,4.118-1.142,5.199-3.001l23.219-40.23c1.08-1.86,1.08-4.142,0-6.002
			l-22.091-38.273l34.408,34.408l2.233,3.865C287.378,240.711,287.378,242.991,286.31,244.853z"/>
	</g>
	<g>
		<path fill="#FFFFFF" d="M271.759,244.853l-23.219,40.23c-1.081,1.859-3.062,3.001-5.199,3.001H196.88
			c-0.792,0-1.561-0.155-2.269-0.442c-0.012-0.014-0.024-0.014-0.024-0.014c-1.201-0.504-2.233-1.38-2.905-2.545l-0.504-0.876
			l-11.562-20.015l-11.153-19.34c-1.081-1.861-1.081-4.143,0-6.004l23.219-40.229c1.08-1.861,3.061-3.002,5.198-3.002h46.461
			c2.137,0,4.118,1.141,5.199,3.002l1.128,1.957l22.091,38.272C272.839,240.711,272.839,242.991,271.759,244.853z"/>
		<g>
			<path fill="#01CC9B" d="M220.013,241.524c0,2.162-0.319,4.151-0.958,5.971c-0.64,1.818-1.523,3.391-2.654,4.717
				c-1.13,1.327-2.474,2.359-4.029,3.096c-1.556,0.737-3.235,1.105-5.036,1.105c-1.835,0-3.522-0.368-5.062-1.105
				c-1.54-0.735-2.875-1.769-4.005-3.096c-1.13-1.326-2.015-2.898-2.653-4.717c-0.638-1.819-0.958-3.809-0.958-5.971
				s0.319-4.152,0.958-5.971c0.639-1.818,1.523-3.391,2.653-4.718s2.465-2.366,4.005-3.12c1.539-0.753,3.227-1.13,5.062-1.13
				c1.801,0,3.48,0.377,5.036,1.13c1.556,0.754,2.899,1.793,4.029,3.12c1.131,1.327,2.015,2.899,2.654,4.718
				C219.694,237.372,220.013,239.362,220.013,241.524z M213.379,241.524c0-1.311-0.147-2.515-0.442-3.611
				c-0.295-1.098-0.713-2.039-1.253-2.826c-0.541-0.786-1.18-1.393-1.916-1.816c-0.737-0.427-1.548-0.64-2.433-0.64
				c-0.918,0-1.744,0.213-2.481,0.64c-0.737,0.426-1.376,1.03-1.917,1.816c-0.54,0.787-0.958,1.729-1.253,2.826
				c-0.295,1.097-0.442,2.302-0.442,3.611c0,1.311,0.147,2.506,0.442,3.586c0.295,1.082,0.713,2.016,1.253,2.802
				c0.541,0.787,1.18,1.394,1.917,1.817c0.737,0.428,1.563,0.64,2.481,0.64c0.885,0,1.695-0.212,2.433-0.64
				c0.736-0.424,1.375-1.03,1.916-1.817c0.54-0.786,0.958-1.72,1.253-2.802C213.232,244.03,213.379,242.835,213.379,241.524z"/>
			<path fill="#01CC9B" d="M222.957,255.922c0-1.474,0.114-2.81,0.344-4.005c0.229-1.195,0.631-2.301,1.204-3.316
				c0.572-1.015,1.358-1.966,2.358-2.851c0.999-0.884,2.269-1.752,3.809-2.604c1.343-0.721,2.53-1.352,3.563-1.893
				c1.031-0.54,1.892-1.039,2.579-1.498c0.688-0.459,1.212-0.926,1.573-1.4c0.359-0.475,0.54-1.022,0.54-1.646
				c0-0.981-0.393-1.826-1.18-2.53c-0.786-0.703-1.916-1.057-3.39-1.057c-0.787,0-1.508,0.105-2.162,0.318
				c-0.656,0.213-1.271,0.5-1.843,0.859c-0.574,0.361-1.099,0.762-1.573,1.204c-0.474,0.442-0.908,0.909-1.302,1.399l-4.226-4.863
				c0.425-0.459,1.031-0.958,1.817-1.499c0.787-0.54,1.712-1.048,2.776-1.522c1.064-0.476,2.244-0.867,3.538-1.18
				s2.679-0.467,4.152-0.467c1.671,0,3.161,0.205,4.472,0.613c1.31,0.41,2.416,0.982,3.317,1.721c0.9,0.736,1.588,1.621,2.063,2.652
				c0.475,1.033,0.713,2.154,0.713,3.367c0,1.146-0.214,2.161-0.64,3.045c-0.426,0.886-0.966,1.672-1.621,2.359
				c-0.656,0.688-1.368,1.285-2.138,1.793c-0.77,0.51-1.516,0.958-2.235,1.352c-0.59,0.328-1.262,0.705-2.015,1.131
				c-0.754,0.427-1.499,0.894-2.236,1.4c-0.737,0.508-1.417,1.031-2.039,1.571c-0.623,0.541-1.098,1.074-1.425,1.599h14.889v5.944
				h-23.682V255.922z"/>
		</g>
	</g>
</g>
<g>
	<g>
		<path fill="#14A0C0" d="M441.116,90.047l-30.507,52.824c-1.068,1.861-3.051,3.002-5.198,3.002h-60.988
			c-2.147,0-4.13-1.141-5.198-3.002l-30.506-52.824c-1.068-1.861-1.068-4.142,0-6.003l30.506-52.824
			c1.068-1.861,3.051-3.002,5.198-3.002h60.988c2.147,0,4.13,1.141,5.198,3.002l28.272,48.958l2.233,3.866
			C442.184,85.905,442.184,88.186,441.116,90.047z"/>
		<path fill="#14A0C0" d="M441.116,90.047l-30.507,52.824c-1.068,1.861-3.051,3.002-5.198,3.002h-42.956l-13.038-13.039
			c0.708,0.288,1.477,0.444,2.269,0.444h46.462c2.138,0,4.117-1.141,5.198-3.001l23.22-40.23c1.079-1.861,1.079-4.142,0-6.003
			l-22.092-38.273l34.408,34.408l2.233,3.866C442.184,85.905,442.184,88.186,441.116,90.047z"/>
	</g>
	<g>
		<path fill="#FFFFFF" d="M426.565,90.047l-23.22,40.23c-1.081,1.861-3.062,3.001-5.198,3.001h-46.462
			c-0.792,0-1.561-0.156-2.269-0.444c-0.012-0.012-0.024-0.012-0.024-0.012c-1.2-0.504-2.232-1.38-2.904-2.545l-0.504-0.876
			l-11.563-20.013l-11.153-19.341c-1.081-1.861-1.081-4.142,0-6.003l23.22-40.23c1.081-1.861,3.062-3.001,5.197-3.001h46.461
			c2.139,0,4.118,1.14,5.199,3.001l1.128,1.957l22.092,38.273C427.645,85.905,427.645,88.186,426.565,90.047z"/>
		<g>
			<path fill="#14A0C0" d="M374.819,86.719c0,2.162-0.319,4.152-0.958,5.971c-0.641,1.818-1.523,3.391-2.654,4.717
				c-1.13,1.327-2.474,2.359-4.029,3.096c-1.556,0.737-3.234,1.105-5.036,1.105c-1.835,0-3.521-0.368-5.062-1.105
				c-1.54-0.736-2.875-1.769-4.005-3.096c-1.13-1.326-2.016-2.898-2.653-4.717s-0.958-3.809-0.958-5.971
				c0-2.162,0.319-4.152,0.958-5.97s1.523-3.391,2.653-4.718c1.13-1.327,2.465-2.366,4.005-3.12c1.539-0.753,3.227-1.13,5.062-1.13
				c1.802,0,3.48,0.377,5.036,1.13c1.557,0.754,2.899,1.793,4.029,3.12c1.131,1.327,2.015,2.899,2.654,4.718
				C374.5,82.566,374.819,84.557,374.819,86.719z M368.185,86.719c0-1.31-0.146-2.514-0.441-3.611s-0.713-2.039-1.253-2.826
				c-0.541-0.786-1.181-1.392-1.916-1.817c-0.737-0.426-1.548-0.639-2.434-0.639c-0.918,0-1.743,0.213-2.48,0.639
				c-0.737,0.426-1.376,1.031-1.917,1.817c-0.54,0.787-0.958,1.729-1.253,2.826s-0.442,2.302-0.442,3.611
				c0,1.312,0.147,2.506,0.442,3.587s0.713,2.015,1.253,2.801c0.541,0.787,1.18,1.394,1.917,1.818
				c0.737,0.427,1.563,0.639,2.48,0.639c0.886,0,1.695-0.212,2.434-0.639c0.735-0.425,1.375-1.031,1.916-1.818
				c0.54-0.786,0.958-1.72,1.253-2.801S368.185,88.029,368.185,86.719z"/>
			<path fill="#14A0C0" d="M393.81,89.52c2.031,0.361,3.679,1.335,4.938,2.924c1.261,1.59,1.893,3.53,1.893,5.823
				c0,1.54-0.304,2.932-0.908,4.177c-0.606,1.244-1.458,2.301-2.557,3.169c-1.098,0.868-2.433,1.54-4.005,2.015
				s-3.341,0.713-5.307,0.713c-2.49,0-4.692-0.401-6.609-1.204c-1.916-0.803-3.514-1.974-4.791-3.514l3.734-4.668
				c0.852,1.081,1.867,1.917,3.047,2.506c1.18,0.59,2.653,0.885,4.423,0.885c1.997,0,3.521-0.393,4.569-1.179
				c1.048-0.787,1.571-1.998,1.571-3.637c0-1.703-0.605-3.014-1.816-3.931c-1.213-0.917-3.047-1.376-5.504-1.376h-1.376v-4.914
				h1.522c2.03,0,3.604-0.45,4.717-1.352c1.113-0.9,1.672-2.056,1.672-3.464c0-1.343-0.459-2.342-1.376-2.998
				c-0.917-0.654-2.112-0.982-3.588-0.982c-1.507,0-2.857,0.344-4.054,1.032s-2.171,1.654-2.924,2.898l-4.128-4.618
				c0.492-0.754,1.146-1.433,1.966-2.04c0.818-0.605,1.744-1.13,2.776-1.572c1.032-0.442,2.152-0.786,3.366-1.031
				c1.211-0.246,2.456-0.369,3.733-0.369c1.671,0,3.194,0.214,4.569,0.639c1.376,0.427,2.563,1.016,3.563,1.77
				c0.998,0.754,1.77,1.663,2.31,2.727c0.541,1.065,0.812,2.253,0.812,3.563c0,0.983-0.146,1.917-0.441,2.802
				c-0.295,0.884-0.722,1.688-1.277,2.407c-0.558,0.721-1.221,1.327-1.99,1.818C395.571,89.028,394.727,89.356,393.81,89.52z"/>
		</g>
	</g>
</g>
<g>
	<g>
		<path fill="#5059AB" d="M597.386,247.317l-30.506,52.824c-1.067,1.86-3.05,3.002-5.198,3.002h-60.987
			c-2.149,0-4.132-1.142-5.198-3.002l-30.507-52.824c-1.068-1.86-1.068-4.143,0-6.004l30.507-52.823
			c1.066-1.86,3.049-3.001,5.198-3.001h60.987c2.148,0,4.131,1.141,5.198,3.001l28.272,48.959l2.232,3.864
			C598.455,243.176,598.455,245.457,597.386,247.317z"/>
		<path fill="#5059AB" d="M597.386,247.317l-30.506,52.824c-1.067,1.86-3.05,3.002-5.198,3.002h-42.956l-13.037-13.039
			c0.708,0.289,1.477,0.444,2.269,0.444h46.462c2.137,0,4.118-1.141,5.198-3.001l23.219-40.23c1.08-1.86,1.08-4.143,0-6.004
			l-22.09-38.272l34.407,34.408l2.232,3.864C598.455,243.176,598.455,245.457,597.386,247.317z"/>
	</g>
	<g>
		<path fill="#FFFFFF" d="M582.835,247.317l-23.219,40.23c-1.08,1.86-3.063,3.001-5.198,3.001h-46.462
			c-0.792,0-1.562-0.155-2.269-0.444c-0.013-0.012-0.024-0.012-0.024-0.012c-1.2-0.505-2.233-1.381-2.905-2.545l-0.504-0.877
			l-11.562-20.014l-11.153-19.342c-1.08-1.859-1.08-4.142,0-6.002l23.219-40.23c1.08-1.859,3.063-3.001,5.198-3.001h46.462
			c2.137,0,4.118,1.142,5.198,3.001l1.129,1.957l22.09,38.273C583.916,243.176,583.916,245.457,582.835,247.317z"/>
		<g>
			<path fill="#5059AB" d="M531.089,243.99c0,2.161-0.319,4.151-0.958,5.97s-1.522,3.391-2.653,4.718
				c-1.13,1.326-2.474,2.358-4.028,3.097c-1.558,0.736-3.235,1.104-5.037,1.104c-1.835,0-3.521-0.368-5.062-1.104
				c-1.541-0.737-2.875-1.771-4.005-3.096c-1.131-1.328-2.015-2.899-2.652-4.719c-0.641-1.818-0.959-3.809-0.959-5.97
				c0-2.162,0.318-4.152,0.959-5.972c0.639-1.817,1.521-3.391,2.652-4.718c1.13-1.325,2.464-2.366,4.005-3.12
				c1.539-0.752,3.227-1.13,5.062-1.13c1.802,0,3.479,0.378,5.037,1.13c1.556,0.754,2.898,1.795,4.028,3.12
				c1.131,1.327,2.016,2.899,2.653,4.718C530.769,239.838,531.089,241.828,531.089,243.99z M524.456,243.99
				c0-1.312-0.147-2.515-0.441-3.612c-0.295-1.097-0.713-2.039-1.254-2.825c-0.54-0.786-1.179-1.392-1.916-1.817
				c-0.736-0.426-1.548-0.639-2.433-0.639c-0.917,0-1.744,0.213-2.481,0.639c-0.735,0.427-1.376,1.031-1.916,1.817
				c-0.541,0.786-0.958,1.729-1.253,2.825c-0.295,1.1-0.441,2.303-0.441,3.612s0.146,2.506,0.441,3.587s0.712,2.015,1.253,2.801
				c0.54,0.786,1.181,1.393,1.916,1.818c0.737,0.426,1.564,0.639,2.481,0.639c0.885,0,1.695-0.213,2.433-0.639
				c0.738-0.426,1.376-1.032,1.916-1.818c0.541-0.786,0.959-1.72,1.254-2.801C524.308,246.496,524.456,245.301,524.456,243.99z"/>
			<path fill="#5059AB" d="M547.526,264.628v-7.32h-14.349v-5.849l16.461-21.13h4.473v21.081h4.323v5.896h-4.323v7.321
				L547.526,264.628L547.526,264.628z M539.762,251.41h8.501v-11.104L539.762,251.41z"/>
		</g>
	</g>
</g>
<g>
	<path fill="#4F7BAC" d="M220.217,178.742c-0.53,0-1.03-0.21-1.41-0.591c-0.38-0.379-0.59-0.879-0.59-1.409
		c0-0.13,0.02-0.261,0.04-0.392c0.029-0.129,0.069-0.26,0.119-0.379c0.051-0.121,0.11-0.229,0.181-0.341
		c0.069-0.108,0.16-0.21,0.25-0.31c0.75-0.74,2.09-0.74,2.83,0c0.09,0.1,0.17,0.199,0.25,0.31c0.069,0.11,0.13,0.22,0.18,0.341
		c0.05,0.119,0.09,0.25,0.12,0.379c0.02,0.131,0.04,0.262,0.04,0.392c0,0.53-0.21,1.03-0.59,1.409
		c-0.101,0.101-0.2,0.181-0.311,0.25c-0.109,0.07-0.22,0.141-0.34,0.189c-0.12,0.049-0.24,0.08-0.37,0.11
		C220.487,178.722,220.357,178.742,220.217,178.742z"/>
	<path fill="#4F7BAC" d="M218.227,167.772c0-1.11,0.89-2,2-2l0,0c1.1,0,2,0.89,2,2l0,0c0,1.1-0.9,2-2,2l0,0
		C219.117,169.772,218.227,168.872,218.227,167.772z"/>
	<path fill="#4F7BAC" d="M218.227,158.802c0-1.109,0.89-2,2-2l0,0c1.1,0,2,0.891,2,2l0,0c0,1.101-0.9,2-2,2l0,0
		C219.117,160.802,218.227,159.902,218.227,158.802z M218.227,149.832c0-1.11,0.89-2,2-2l0,0c1.1,0,2,0.89,2,2l0,0c0,1.1-0.9,2-2,2
		l0,0C219.117,151.832,218.227,150.932,218.227,149.832z M218.227,140.862c0-1.11,0.89-2,2-2l0,0c1.1,0,2,0.89,2,2l0,0
		c0,1.1-0.9,2-2,2l0,0C219.117,142.862,218.227,141.962,218.227,140.862z M218.227,131.892c0-1.1,0.89-2,2-2l0,0c1.1,0,2,0.9,2,2
		l0,0c0,1.101-0.9,2-2,2l0,0C219.117,133.892,218.227,132.992,218.227,131.892z M218.227,122.922c0-1.109,0.89-2,2-2l0,0
		c1.1,0,2,0.891,2,2l0,0c0,1.11-0.9,2-2,2l0,0C219.117,124.922,218.227,124.032,218.227,122.922z M218.227,113.952
		c0-1.101,0.89-2,2-2l0,0c1.1,0,2,0.899,2,2l0,0c0,1.1-0.9,2-2,2l0,0C219.117,115.952,218.227,115.052,218.227,113.952z
		 M218.227,104.982c0-1.101,0.89-2,2-2l0,0c1.1,0,2,0.899,2,2l0,0c0,1.109-0.9,2-2,2l0,0
		C219.117,106.982,218.227,106.092,218.227,104.982z M218.227,96.012c0-1.1,0.89-2,2-2l0,0c1.1,0,2,0.9,2,2l0,0c0,1.11-0.9,2-2,2
		l0,0C219.117,98.012,218.227,97.122,218.227,96.012z"/>
	<path fill="#4F7BAC" d="M220.217,89.042c-0.261,0-0.521-0.05-0.761-0.15c-0.239-0.1-0.46-0.25-0.649-0.43
		c-0.38-0.38-0.59-0.88-0.59-1.42c0-0.52,0.22-1.04,0.59-1.41c0.75-0.75,2.09-0.75,2.83,0c0.37,0.37,0.59,0.891,0.59,1.41
		c0,0.54-0.21,1.04-0.59,1.42C221.257,88.832,220.757,89.042,220.217,89.042z"/>
	<path fill="#4F7BAC" d="M227.167,87.042c0-1.1,0.891-2,2-2l0,0c1.101,0,2,0.9,2,2l0,0c0,1.11-0.899,2-2,2l0,0
		C228.057,89.042,227.167,88.152,227.167,87.042z"/>
	<path fill="#4F7BAC" d="M280.817,87.042c0-1.1,0.89-2,2-2l0,0c1.11,0,2,0.9,2,2l0,0c0,1.11-0.89,2-2,2l0,0
		C281.707,89.042,280.817,88.152,280.817,87.042z M271.876,87.042c0-1.1,0.891-2,2-2l0,0c1.101,0,2,0.9,2,2l0,0c0,1.11-0.899,2-2,2
		l0,0C272.767,89.042,271.876,88.152,271.876,87.042z M262.937,87.042c0-1.1,0.89-2,2-2l0,0c1.1,0,2,0.9,2,2l0,0c0,1.11-0.9,2-2,2
		l0,0C263.827,89.042,262.937,88.152,262.937,87.042z M253.987,87.042c0-1.1,0.9-2,2-2l0,0c1.11,0,2,0.9,2,2l0,0c0,1.11-0.89,2-2,2
		l0,0C254.887,89.042,253.987,88.152,253.987,87.042z M245.047,87.042c0-1.1,0.899-2,2-2l0,0c1.109,0,2,0.9,2,2l0,0
		c0,1.11-0.891,2-2,2l0,0C245.947,89.042,245.047,88.152,245.047,87.042z M236.107,87.042c0-1.1,0.89-2,2-2l0,0c1.1,0,2,0.9,2,2l0,0
		c0,1.11-0.9,2-2,2l0,0C236.997,89.042,236.107,88.152,236.107,87.042z"/>
	<path fill="#4F7BAC" d="M291.757,89.042c-0.53,0-1.03-0.21-1.41-0.58c-0.101-0.1-0.181-0.2-0.25-0.31
		c-0.07-0.101-0.141-0.221-0.19-0.34c-0.05-0.12-0.08-0.25-0.109-0.37c-0.021-0.13-0.04-0.261-0.04-0.4c0-0.53,0.22-1.04,0.59-1.41
		c0.09-0.09,0.189-0.18,0.3-0.25c0.11-0.069,0.229-0.13,0.35-0.18c0.121-0.05,0.24-0.09,0.37-0.12c0.26-0.05,0.53-0.05,0.78,0
		c0.13,0.03,0.26,0.07,0.38,0.12c0.12,0.05,0.23,0.11,0.34,0.18c0.11,0.07,0.21,0.16,0.311,0.25c0.37,0.37,0.58,0.88,0.58,1.41
		c0,0.14-0.011,0.271-0.04,0.4c-0.021,0.12-0.061,0.25-0.11,0.37c-0.05,0.119-0.11,0.239-0.18,0.34c-0.07,0.109-0.16,0.21-0.25,0.31
		c-0.101,0.09-0.2,0.17-0.311,0.25c-0.109,0.07-0.22,0.13-0.34,0.18c-0.12,0.051-0.25,0.091-0.37,0.11
		C292.027,89.032,291.887,89.042,291.757,89.042z"/>
	<g>
		<polygon fill="#4F7BAC" points="289.834,93.627 301.232,87.046 289.834,80.464 		"/>
	</g>
</g>
<g>
	<g>
		<path fill="#09909F" d="M752.081,90.047l-30.506,52.824c-1.068,1.861-3.05,3.002-5.198,3.002h-60.988
			c-2.148,0-4.13-1.141-5.197-3.002l-30.508-52.824c-1.066-1.861-1.066-4.142,0-6.003L650.19,31.22
			c1.067-1.861,3.049-3.002,5.197-3.002h60.988c2.148,0,4.13,1.141,5.198,3.002l28.272,48.958l2.232,3.866
			C753.149,85.905,753.149,88.186,752.081,90.047z"/>
		<path fill="#09909F" d="M752.081,90.047l-30.506,52.824c-1.068,1.861-3.05,3.002-5.198,3.002H673.42l-13.038-13.039
			c0.708,0.288,1.479,0.444,2.27,0.444h46.462c2.137,0,4.117-1.141,5.197-3.001l23.22-40.23c1.08-1.861,1.08-4.142,0-6.003
			l-22.091-38.273l34.408,34.408l2.232,3.866C753.149,85.905,753.149,88.186,752.081,90.047z"/>
	</g>
	<g>
		<path fill="#FFFFFF" d="M737.53,90.047l-23.22,40.23c-1.079,1.861-3.062,3.001-5.197,3.001h-46.462
			c-0.791,0-1.562-0.156-2.27-0.444c-0.012-0.012-0.023-0.012-0.023-0.012c-1.2-0.504-2.232-1.38-2.904-2.545l-0.505-0.876
			l-11.563-20.013l-11.151-19.341c-1.081-1.861-1.081-4.142,0-6.003l23.219-40.23c1.08-1.861,3.061-3.001,5.197-3.001h46.462
			c2.137,0,4.118,1.14,5.198,3.001l1.129,1.957l22.09,38.273C738.61,85.905,738.61,88.186,737.53,90.047z"/>
		<g>
			<path fill="#14A0C0" d="M685.784,86.719c0,2.162-0.319,4.152-0.958,5.971c-0.64,1.819-1.523,3.391-2.653,4.717
				c-1.13,1.327-2.474,2.359-4.029,3.096c-1.557,0.737-3.234,1.105-5.036,1.105c-1.836,0-3.521-0.368-5.062-1.105
				c-1.541-0.736-2.875-1.769-4.005-3.096c-1.131-1.326-2.015-2.898-2.653-4.717c-0.64-1.818-0.959-3.809-0.959-5.971
				c0-2.162,0.319-4.152,0.959-5.97s1.522-3.391,2.653-4.718c1.13-1.327,2.464-2.366,4.005-3.12c1.539-0.753,3.227-1.13,5.062-1.13
				c1.802,0,3.479,0.377,5.036,1.13c1.557,0.754,2.899,1.793,4.029,3.12c1.13,1.327,2.015,2.899,2.653,4.718
				C685.464,82.566,685.784,84.557,685.784,86.719z M679.15,86.719c0-1.31-0.147-2.514-0.441-3.611
				c-0.295-1.098-0.713-2.039-1.254-2.826c-0.54-0.786-1.179-1.392-1.916-1.817c-0.737-0.425-1.548-0.639-2.433-0.639
				c-0.917,0-1.744,0.213-2.481,0.639c-0.736,0.426-1.376,1.031-1.916,1.817c-0.541,0.787-0.958,1.729-1.253,2.826
				s-0.442,2.302-0.442,3.611c0,1.312,0.147,2.506,0.442,3.587s0.712,2.015,1.253,2.801c0.54,0.787,1.18,1.394,1.916,1.818
				c0.737,0.427,1.564,0.639,2.481,0.639c0.885,0,1.694-0.212,2.433-0.639c0.737-0.425,1.376-1.031,1.916-1.818
				c0.541-0.786,0.959-1.72,1.254-2.801C679.002,89.225,679.15,88.029,679.15,86.719z"/>
			<path fill="#14A0C0" d="M701.508,85.441c1.639,0,3.161,0.271,4.569,0.811c1.408,0.541,2.621,1.303,3.637,2.285
				c1.015,0.982,1.811,2.162,2.383,3.538c0.573,1.376,0.86,2.899,0.86,4.569c0,1.77-0.319,3.375-0.958,4.815
				c-0.639,1.441-1.532,2.679-2.679,3.71c-1.146,1.032-2.506,1.835-4.078,2.408c-1.572,0.573-3.276,0.86-5.11,0.86
				c-2.556,0-4.84-0.541-6.854-1.622c-2.015-1.081-3.548-2.555-4.596-4.422l3.783-3.932c0.917,1.277,2.064,2.294,3.44,3.047
				s2.801,1.13,4.273,1.13c1.771,0,3.22-0.533,4.35-1.597c1.131-1.064,1.694-2.481,1.694-4.251c0-1.703-0.531-3.078-1.597-4.127
				c-1.064-1.049-2.416-1.573-4.054-1.573c-1.081,0-2.089,0.246-3.022,0.737c-0.933,0.491-1.679,1.163-2.234,2.015h-5.749
				c0-0.098,0.064-0.467,0.195-1.105c0.131-0.638,0.295-1.457,0.491-2.457c0.196-0.999,0.409-2.113,0.639-3.341
				c0.229-1.229,0.476-2.481,0.737-3.76c0.59-3.014,1.244-6.388,1.966-10.122h17.198v5.995h-12.432l-1.427,7.813
				c0.395-0.425,0.976-0.771,1.745-1.032C699.452,85.572,700.394,85.441,701.508,85.441z"/>
		</g>
	</g>
</g>
<g>
	<path fill="#4F7BAC" d="M531.188,178.742c-0.261,0-0.521-0.05-0.771-0.15c-0.239-0.1-0.46-0.25-0.64-0.438
		c-0.101-0.09-0.181-0.19-0.261-0.301c-0.069-0.109-0.13-0.229-0.18-0.351c-0.051-0.12-0.091-0.239-0.11-0.37
		c-0.029-0.13-0.04-0.26-0.04-0.39s0.011-0.261,0.04-0.392c0.03-0.129,0.061-0.26,0.11-0.379c0.05-0.121,0.119-0.229,0.189-0.341
		c0.069-0.108,0.149-0.21,0.25-0.3c0.09-0.1,0.189-0.18,0.3-0.25c0.109-0.08,0.221-0.141,0.351-0.189
		c0.12-0.051,0.239-0.091,0.37-0.109c0.649-0.141,1.34,0.08,1.8,0.55c0.101,0.09,0.181,0.19,0.25,0.3
		c0.069,0.11,0.141,0.221,0.189,0.34c0.051,0.12,0.09,0.25,0.109,0.381c0.03,0.131,0.04,0.261,0.04,0.391s-0.01,0.26-0.04,0.39
		c-0.021,0.13-0.06,0.25-0.109,0.37s-0.109,0.24-0.18,0.35c-0.08,0.11-0.16,0.211-0.261,0.302c-0.181,0.188-0.399,0.34-0.641,0.438
		C531.707,178.692,531.457,178.742,531.188,178.742z"/>
	<path fill="#4F7BAC" d="M529.188,167.772c0-1.11,0.89-2,2-2l0,0c1.1,0,2,0.89,2,2l0,0c0,1.1-0.9,2-2,2l0,0
		C530.077,169.772,529.188,168.872,529.188,167.772z"/>
	<path fill="#4F7BAC" d="M529.188,158.802c0-1.109,0.89-2,2-2l0,0c1.1,0,2,0.891,2,2l0,0c0,1.101-0.9,2-2,2l0,0
		C530.077,160.802,529.188,159.902,529.188,158.802z M529.188,149.832c0-1.11,0.89-2,2-2l0,0c1.1,0,2,0.89,2,2l0,0c0,1.1-0.9,2-2,2
		l0,0C530.077,151.832,529.188,150.932,529.188,149.832z M529.188,140.862c0-1.11,0.89-2,2-2l0,0c1.1,0,2,0.89,2,2l0,0
		c0,1.1-0.9,2-2,2l0,0C530.077,142.862,529.188,141.962,529.188,140.862z M529.188,131.892c0-1.109,0.89-2,2-2l0,0
		c1.1,0,2,0.891,2,2l0,0c0,1.101-0.9,2-2,2l0,0C530.077,133.892,529.188,132.992,529.188,131.892z M529.188,122.922
		c0-1.1,0.89-2,2-2l0,0c1.1,0,2,0.9,2,2l0,0c0,1.11-0.9,2-2,2l0,0C530.077,124.922,529.188,124.032,529.188,122.922z
		 M529.188,113.952c0-1.101,0.89-2,2-2l0,0c1.1,0,2,0.899,2,2l0,0c0,1.11-0.9,2-2,2l0,0
		C530.077,115.952,529.188,115.063,529.188,113.952z M529.188,104.982c0-1.101,0.89-2,2-2l0,0c1.1,0,2,0.899,2,2l0,0
		c0,1.109-0.9,2-2,2l0,0C530.077,106.982,529.188,106.092,529.188,104.982z M529.188,96.012c0-1.1,0.89-2,2-2l0,0c1.1,0,2,0.9,2,2
		l0,0c0,1.11-0.9,2-2,2l0,0C530.077,98.012,529.188,97.122,529.188,96.012z"/>
	<path fill="#4F7BAC" d="M531.188,89.042c-0.261,0-0.521-0.05-0.771-0.15c-0.239-0.1-0.46-0.25-0.64-0.43
		c-0.101-0.1-0.181-0.2-0.261-0.31c-0.069-0.11-0.13-0.221-0.18-0.34c-0.051-0.12-0.091-0.25-0.11-0.37
		c-0.029-0.13-0.04-0.261-0.04-0.4c0-0.52,0.211-1.04,0.591-1.41c0.09-0.09,0.189-0.18,0.3-0.25c0.109-0.069,0.221-0.13,0.351-0.18
		c0.12-0.05,0.239-0.09,0.37-0.12c0.649-0.13,1.34,0.08,1.8,0.55c0.38,0.37,0.591,0.891,0.591,1.41c0,0.14-0.011,0.271-0.04,0.4
		c-0.021,0.12-0.061,0.25-0.11,0.37c-0.05,0.119-0.109,0.229-0.18,0.34c-0.08,0.109-0.16,0.21-0.261,0.31
		c-0.181,0.18-0.399,0.33-0.641,0.43C531.707,88.992,531.457,89.042,531.188,89.042z"/>
	<path fill="#4F7BAC" d="M538.126,87.042c0-1.1,0.9-2,2-2l0,0c1.11,0,2,0.9,2,2l0,0c0,1.11-0.89,2-2,2l0,0
		C539.027,89.042,538.126,88.152,538.126,87.042z"/>
	<path fill="#4F7BAC" d="M591.787,87.042c0-1.1,0.891-2,2-2l0,0c1.101,0,2,0.9,2,2l0,0c0,1.11-0.899,2-2,2l0,0
		C592.677,89.042,591.787,88.152,591.787,87.042z M582.837,87.042c0-1.1,0.899-2,2-2l0,0c1.109,0,2,0.9,2,2l0,0c0,1.11-0.891,2-2,2
		l0,0C583.737,89.042,582.837,88.152,582.837,87.042z M573.896,87.042c0-1.1,0.9-2,2-2l0,0c1.11,0,2,0.9,2,2l0,0c0,1.11-0.89,2-2,2
		l0,0C574.797,89.042,573.896,88.152,573.896,87.042z M564.957,87.042c0-1.1,0.891-2,2-2l0,0c1.101,0,2,0.9,2,2l0,0
		c0,1.11-0.899,2-2,2l0,0C565.847,89.042,564.957,88.152,564.957,87.042z M556.017,87.042c0-1.1,0.891-2,2-2l0,0c1.101,0,2,0.9,2,2
		l0,0c0,1.11-0.899,2-2,2l0,0C556.907,89.042,556.017,88.152,556.017,87.042z M547.077,87.042c0-1.1,0.891-2,2-2l0,0
		c1.101,0,2,0.9,2,2l0,0c0,1.11-0.899,2-2,2l0,0C547.967,89.042,547.077,88.152,547.077,87.042z"/>
	<path fill="#4F7BAC" d="M602.727,89.042c-0.271,0-0.521-0.05-0.771-0.15c-0.239-0.1-0.46-0.25-0.649-0.43
		c-0.369-0.38-0.58-0.88-0.58-1.42c0-0.13,0.011-0.26,0.04-0.39c0.021-0.13,0.061-0.25,0.109-0.37c0.051-0.12,0.11-0.24,0.19-0.351
		c0.069-0.109,0.149-0.21,0.239-0.3c0.74-0.75,2.091-0.75,2.83,0c0.101,0.09,0.181,0.19,0.25,0.3c0.069,0.11,0.141,0.23,0.189,0.351
		c0.04,0.12,0.08,0.24,0.109,0.37c0.021,0.13,0.04,0.26,0.04,0.39c0,0.271-0.05,0.53-0.149,0.771
		c-0.101,0.239-0.25,0.46-0.439,0.649C603.757,88.842,603.257,89.042,602.727,89.042z"/>
	<g>
		<polygon fill="#4F7BAC" points="600.799,93.627 612.198,87.046 600.799,80.464 		"/>
	</g>
</g>
<g>
	<path fill="#4F7BAC" d="M377.237,155.872c-0.54,0-1.04-0.21-1.42-0.59c-0.19-0.181-0.33-0.4-0.431-0.641
		c-0.101-0.25-0.149-0.5-0.149-0.77c0-0.53,0.21-1.04,0.58-1.41c0.09-0.1,0.199-0.18,0.31-0.25c0.101-0.07,0.221-0.14,0.341-0.189
		c0.12-0.051,0.25-0.08,0.37-0.11c0.659-0.13,1.35,0.08,1.811,0.55c0.369,0.37,0.59,0.88,0.59,1.41c0,0.27-0.061,0.52-0.16,0.77
		c-0.101,0.24-0.239,0.46-0.43,0.641c-0.19,0.189-0.41,0.34-0.65,0.439C377.757,155.822,377.497,155.872,377.237,155.872z"/>
	<path fill="#4F7BAC" d="M375.237,162.962c0-1.11,0.89-2,2-2l0,0c1.101,0,2,0.89,2,2l0,0c0,1.101-0.899,2-2,2l0,0
		C376.126,164.962,375.237,164.063,375.237,162.962z"/>
	<path fill="#4F7BAC" d="M375.237,235.651c0-1.101,0.89-2,2-2l0,0c1.101,0,2,0.899,2,2l0,0c0,1.109-0.899,2-2,2l0,0
		C376.126,237.651,375.237,236.762,375.237,235.651z M375.237,226.563c0-1.102,0.89-2,2-2l0,0c1.101,0,2,0.898,2,2l0,0
		c0,1.108-0.899,2-2,2l0,0C376.126,228.563,375.237,227.672,375.237,226.563z M375.237,217.481c0-1.109,0.89-2,2-2l0,0
		c1.101,0,2,0.891,2,2l0,0c0,1.101-0.899,2-2,2l0,0C376.126,219.481,375.237,218.582,375.237,217.481z M375.237,208.392
		c0-1.1,0.89-2,2-2l0,0c1.101,0,2,0.9,2,2l0,0c0,1.11-0.899,2-2,2l0,0C376.126,210.392,375.237,209.502,375.237,208.392z
		 M375.237,199.302c0-1.1,0.89-1.988,2-1.988l0,0c1.101,0,2,0.89,2,1.988l0,0c0,1.11-0.899,2-2,2l0,0
		C376.126,201.302,375.237,200.412,375.237,199.302z M375.237,190.222c0-1.108,0.89-2,2-2l0,0c1.101,0,2,0.892,2,2l0,0
		c0,1.102-0.899,2-2,2l0,0C376.126,192.222,375.237,191.322,375.237,190.222z M375.237,181.132c0-1.1,0.89-2,2-2l0,0
		c1.101,0,2,0.9,2,2l0,0c0,1.11-0.899,2-2,2l0,0C376.126,183.132,375.237,182.242,375.237,181.132z M375.237,172.042
		c0-1.1,0.89-2,2-2l0,0c1.101,0,2,0.9,2,2l0,0c0,1.109-0.899,2.01-2,2.01l0,0C376.126,174.052,375.237,173.151,375.237,172.042z"/>
	<path fill="#4F7BAC" d="M377.237,246.742c-0.54,0-1.04-0.21-1.42-0.591c-0.19-0.189-0.33-0.399-0.431-0.649
		c-0.101-0.239-0.149-0.5-0.149-0.76c0-0.13,0.01-0.261,0.029-0.392c0.03-0.129,0.07-0.26,0.12-0.379
		c0.05-0.121,0.109-0.229,0.181-0.341c0.079-0.108,0.159-0.21,0.25-0.31c0.75-0.74,2.079-0.74,2.829,0
		c0.091,0.1,0.181,0.199,0.25,0.31c0.07,0.11,0.131,0.22,0.181,0.341c0.05,0.119,0.09,0.25,0.12,0.379
		c0.021,0.131,0.04,0.262,0.04,0.392c0,0.53-0.21,1.03-0.591,1.409C378.267,246.532,377.767,246.742,377.237,246.742z"/>
	<path fill="#4F7BAC" d="M384.167,244.742c0-1.11,0.9-2,2-2l0,0c1.101,0,2,0.89,2,2l0,0c0,1.1-0.899,2-2,2l0,0
		C385.067,246.742,384.167,245.842,384.167,244.742z"/>
	<path fill="#4F7BAC" d="M437.777,244.742c0-1.11,0.899-2,2-2l0,0c1.109,0,2,0.89,2,2l0,0c0,1.1-0.891,2-2,2l0,0
		C438.677,246.742,437.777,245.842,437.777,244.742z M428.847,244.742c0-1.11,0.891-2,2-2l0,0c1.101,0,2,0.89,2,2l0,0
		c0,1.1-0.899,2-2,2l0,0C429.737,246.742,428.847,245.842,428.847,244.742z M419.907,244.742c0-1.11,0.899-2,2-2l0,0
		c1.109,0,2,0.89,2,2l0,0c0,1.1-0.891,2-2,2l0,0C420.807,246.742,419.907,245.842,419.907,244.742z M410.977,244.742
		c0-1.11,0.891-2,2-2l0,0c1.101,0,2,0.89,2,2l0,0c0,1.1-0.899,2-2,2l0,0C411.867,246.742,410.977,245.842,410.977,244.742z
		 M402.037,244.742c0-1.11,0.899-2,2-2l0,0c1.101,0,2,0.89,2,2l0,0c0,1.1-0.899,2-2,2l0,0
		C402.938,246.742,402.037,245.842,402.037,244.742z M393.097,244.742c0-1.11,0.899-2,2-2l0,0c1.109,0,2,0.89,2,2l0,0
		c0,1.1-0.891,2-2,2l0,0C393.997,246.742,393.097,245.842,393.097,244.742z"/>
	<path fill="#4F7BAC" d="M448.717,246.742c-0.54,0-1.04-0.21-1.42-0.591c-0.091-0.09-0.171-0.189-0.25-0.301
		c-0.07-0.108-0.131-0.229-0.181-0.35s-0.09-0.24-0.109-0.37c-0.03-0.13-0.04-0.26-0.04-0.39c0-0.131,0.01-0.26,0.04-0.391
		c0.021-0.131,0.061-0.261,0.109-0.381c0.049-0.119,0.109-0.229,0.181-0.34c0.079-0.109,0.159-0.21,0.25-0.311
		c0.101-0.09,0.199-0.17,0.311-0.239c0.109-0.08,0.22-0.14,0.34-0.19c0.12-0.05,0.25-0.09,0.38-0.108
		c0.641-0.13,1.34,0.079,1.8,0.54c0.091,0.1,0.181,0.199,0.25,0.31c0.07,0.11,0.131,0.22,0.181,0.341
		c0.051,0.119,0.091,0.25,0.12,0.379c0.021,0.131,0.04,0.262,0.04,0.392c0,0.53-0.21,1.04-0.591,1.409
		C449.747,246.532,449.247,246.742,448.717,246.742z"/>
	<g>
		<polygon fill="#4F7BAC" points="446.79,251.321 458.188,244.74 446.79,238.158 		"/>
	</g>
</g>
<g>
	<path fill="#4F7BAC" d="M68.847,165.112c-0.05-0.12-0.11-0.24-0.181-0.351c-0.079-0.109-0.159-0.21-0.25-0.3
		c-0.75-0.75-2.09-0.75-2.829,0c-0.091,0.09-0.181,0.19-0.25,0.3c-0.07,0.11-0.131,0.23-0.181,0.351
		c-0.05,0.121-0.09,0.239-0.12,0.37c-0.02,0.13-0.04,0.26-0.04,0.39c0,0.54,0.21,1.04,0.591,1.42c0.189,0.18,0.409,0.33,0.649,0.43
		c0.24,0.102,0.5,0.15,0.76,0.15c0.54,0,1.04-0.21,1.42-0.58c0.091-0.1,0.171-0.2,0.25-0.311c0.07-0.109,0.131-0.221,0.181-0.34
		c0.05-0.119,0.09-0.25,0.12-0.369c0.02-0.131,0.029-0.262,0.029-0.4c0-0.13-0.01-0.26-0.04-0.39
		C68.937,165.352,68.897,165.232,68.847,165.112z"/>
	<path fill="#4F7BAC" d="M66.997,173.302c-1.1,0-2,0.9-2,2c0,1.11,0.9,2,2,2c1.11,0,2-0.89,2-2
		C68.997,174.202,68.107,173.302,66.997,173.302z"/>
	<path fill="#4F7BAC" d="M66.997,201.592c-1.1,0-2,0.9-2,2c0,1.11,0.9,2,2,2c1.11,0,2-0.89,2-2
		C68.997,202.492,68.107,201.592,66.997,201.592z"/>
	<path fill="#4F7BAC" d="M66.997,192.162c-1.1,0-2,0.899-2,2s0.9,2,2,2c1.11,0,2-0.899,2-2S68.107,192.162,66.997,192.162z"/>
	<path fill="#4F7BAC" d="M66.997,182.731c-1.1,0-2,0.899-2,2c0,1.109,0.9,2,2,2c1.11,0,2-0.891,2-2
		C68.997,183.632,68.107,182.731,66.997,182.731z"/>
	<path fill="#4F7BAC" d="M66.997,211.022c-1.1,0-2,0.898-2,2c0,1.108,0.9,2,2,2c1.11,0,2-0.892,2-2
		C68.997,211.922,68.107,211.022,66.997,211.022z"/>
	<path fill="#4F7BAC" d="M66.997,229.882c-1.1,0-2,0.9-2,2c0,1.11,0.9,2,2,2c1.11,0,2-0.89,2-2
		C68.997,230.782,68.107,229.882,66.997,229.882z"/>
	<path fill="#4F7BAC" d="M66.997,220.452c-1.1,0-2,0.898-2,2c0,1.109,0.9,2,2,2c1.11,0,2-0.891,2-2
		C68.997,221.353,68.107,220.452,66.997,220.452z"/>
	<path fill="#4F7BAC" d="M68.847,240.552c-0.05-0.119-0.11-0.238-0.181-0.35c-0.079-0.11-0.159-0.21-0.25-0.301
		c-0.75-0.75-2.09-0.75-2.829,0c-0.091,0.091-0.181,0.189-0.25,0.301c-0.07,0.109-0.131,0.229-0.181,0.35
		c-0.05,0.121-0.09,0.25-0.12,0.37c-0.02,0.13-0.04,0.261-0.04,0.4c0,0.528,0.21,1.028,0.591,1.409
		c0.189,0.189,0.409,0.33,0.649,0.431c0.24,0.1,0.5,0.149,0.76,0.149c0.54,0,1.04-0.199,1.42-0.58
		c0.091-0.09,0.171-0.199,0.25-0.311c0.07-0.1,0.131-0.22,0.181-0.34c0.05-0.12,0.09-0.24,0.12-0.37
		c0.02-0.13,0.029-0.26,0.029-0.39c0-0.141-0.01-0.271-0.04-0.4C68.937,240.802,68.897,240.672,68.847,240.552z"/>
	<path fill="#4F7BAC" d="M75.757,239.313c-1.101,0-2,0.898-2,2c0,1.108,0.899,2,2,2c1.109,0,2.01-0.892,2.01-2
		C77.767,240.212,76.867,239.313,75.757,239.313z"/>
	<path fill="#4F7BAC" d="M119.567,239.313c-1.1,0-2,0.898-2,2c0,1.108,0.9,2,2,2c1.11,0,2-0.892,2-2
		C121.567,240.212,120.677,239.313,119.567,239.313z"/>
	<path fill="#4F7BAC" d="M110.807,239.313c-1.101,0-2,0.898-2,2c0,1.108,0.899,2,2,2c1.109,0,2-0.892,2-2
		C112.807,240.212,111.917,239.313,110.807,239.313z"/>
	<path fill="#4F7BAC" d="M102.047,239.313c-1.11,0-2,0.898-2,2c0,1.108,0.89,2,2,2c1.1,0,2-0.892,2-2
		C104.047,240.212,103.147,239.313,102.047,239.313z"/>
	<path fill="#4F7BAC" d="M128.337,239.313c-1.11,0-2,0.898-2,2c0,1.108,0.89,2,2,2c1.1,0,2-0.892,2-2
		C130.337,240.212,129.437,239.313,128.337,239.313z"/>
	<path fill="#4F7BAC" d="M93.287,239.313c-1.109,0-2,0.898-2,2c0,1.108,0.891,2,2,2c1.101,0,2-0.892,2-2
		C95.287,240.212,94.387,239.313,93.287,239.313z"/>
	<path fill="#4F7BAC" d="M84.527,239.313c-1.11,0-2,0.898-2,2c0,1.108,0.89,2,2,2c1.1,0,2-0.892,2-2
		C86.527,240.212,85.626,239.313,84.527,239.313z"/>
	<path fill="#4F7BAC" d="M146.565,241.315l-11.397-6.582v6.084c-0.008,0.035-0.025,0.07-0.031,0.104c-0.03,0.13-0.04,0.261-0.04,0.4
		c0,0.173,0.029,0.34,0.071,0.503v6.072L146.565,241.315z"/>
	<circle fill="#4F7BAC" cx="67" cy="153.873" r="5.232"/>
</g>
<g>
	<path fill="#79AF3C" d="M18.665,9.761c0.741-0.126,1.78-0.221,3.245-0.221c1.48,0,2.536,0.284,3.245,0.852
		c0.677,0.535,1.134,1.417,1.134,2.457s-0.347,1.92-0.976,2.52c-0.82,0.771-2.032,1.118-3.449,1.118
		c-0.315,0-0.598-0.016-0.82-0.047v3.796h-2.378V9.761z M21.044,14.58c0.205,0.047,0.457,0.063,0.804,0.063
		c1.275,0,2.063-0.646,2.063-1.732c0-0.977-0.677-1.559-1.875-1.559c-0.488,0-0.818,0.047-0.991,0.095v3.133H21.044z"/>
	<path fill="#79AF3C" d="M27.814,9.761c0.771-0.126,1.92-0.221,3.197-0.221c1.574,0,2.677,0.236,3.433,0.835
		c0.63,0.504,0.977,1.244,0.977,2.22c0,1.354-0.96,2.284-1.874,2.614v0.047c0.74,0.299,1.149,1.008,1.417,1.985
		c0.331,1.197,0.661,2.583,0.866,2.993h-2.457c-0.173-0.3-0.425-1.165-0.74-2.473c-0.283-1.323-0.74-1.686-1.716-1.701h-0.725v4.173
		h-2.378V9.761z M30.192,14.328h0.945c1.198,0,1.906-0.598,1.906-1.527c0-0.977-0.661-1.465-1.764-1.48
		c-0.583,0-0.913,0.047-1.086,0.079V14.328z"/>
	<path fill="#79AF3C" d="M46.805,14.815c0,3.481-2.111,5.592-5.213,5.592c-3.15,0-4.992-2.378-4.992-5.402
		c0-3.182,2.032-5.56,5.166-5.56C45.025,9.445,46.805,11.887,46.805,14.815z M39.135,14.958c0,2.08,0.976,3.543,2.583,3.543
		c1.622,0,2.551-1.543,2.551-3.606c0-1.906-0.913-3.543-2.567-3.543C40.08,11.351,39.135,12.894,39.135,14.958z"/>
	<path fill="#79AF3C" d="M48.456,17.761c0.646,0.331,1.639,0.662,2.662,0.662c1.102,0,1.685-0.458,1.685-1.15
		c0-0.661-0.504-1.039-1.779-1.495c-1.764-0.614-2.914-1.591-2.914-3.135c0-1.811,1.512-3.197,4.017-3.197
		c1.197,0,2.078,0.251,2.708,0.535l-0.536,1.937c-0.425-0.205-1.181-0.504-2.22-0.504c-1.04,0-1.543,0.473-1.543,1.023
		c0,0.677,0.598,0.978,1.968,1.496c1.874,0.693,2.755,1.67,2.755,3.166c0,1.781-1.37,3.292-4.284,3.292
		c-1.213,0-2.41-0.315-3.008-0.646L48.456,17.761z"/>
	<path fill="#79AF3C" d="M56.88,9.761c0.74-0.126,1.78-0.221,3.245-0.221c1.48,0,2.536,0.284,3.245,0.852
		c0.677,0.535,1.133,1.417,1.133,2.457s-0.346,1.92-0.976,2.52c-0.819,0.771-2.032,1.118-3.449,1.118
		c-0.314,0-0.598-0.016-0.82-0.047v3.796h-2.378L56.88,9.761L56.88,9.761z M59.257,14.58c0.205,0.047,0.457,0.063,0.804,0.063
		c1.275,0,2.063-0.646,2.063-1.732c0-0.977-0.677-1.559-1.875-1.559c-0.488,0-0.819,0.047-0.992,0.095L59.257,14.58L59.257,14.58z"
		/>
	<path fill="#79AF3C" d="M72.343,15.745h-3.905v2.52H72.8v1.968h-6.772V9.618h6.552v1.968h-4.142v2.205h3.905V15.745z"/>
	<path fill="#79AF3C" d="M82.231,19.934c-0.441,0.221-1.432,0.457-2.724,0.457c-3.669,0-5.56-2.284-5.56-5.308
		c0-3.623,2.583-5.639,5.795-5.639c1.245,0,2.189,0.252,2.615,0.472l-0.488,1.906c-0.488-0.205-1.166-0.394-2.016-0.394
		c-1.905,0-3.386,1.149-3.386,3.512c0,2.126,1.259,3.465,3.402,3.465c0.725,0,1.527-0.157,2-0.346L82.231,19.934z"/>
	<path fill="#79AF3C" d="M86.071,11.634h-2.85V9.618h8.158v2.016h-2.898v8.599h-2.41V11.634z"/>
	<path fill="#79AF3C" d="M95.063,9.618v10.615h-2.41V9.618H95.063z"/>
	<path fill="#79AF3C" d="M97.14,20.233V9.618h2.803l2.205,3.89c0.63,1.118,1.26,2.441,1.733,3.638h0.047
		c-0.158-1.401-0.205-2.835-0.205-4.425V9.618h2.206v10.615h-2.521l-2.267-4.095c-0.629-1.133-1.323-2.504-1.842-3.748l-0.048,0.016
		c0.063,1.402,0.095,2.898,0.095,4.63v3.197H97.14z"/>
	<path fill="#79AF3C" d="M116.872,19.745c-0.74,0.252-2.142,0.598-3.543,0.598c-1.937,0-3.339-0.488-4.315-1.433
		c-0.977-0.914-1.512-2.3-1.496-3.858c0.016-3.528,2.583-5.544,6.063-5.544c1.37,0,2.426,0.268,2.945,0.52l-0.504,1.921
		c-0.583-0.252-1.307-0.456-2.473-0.456c-2,0-3.512,1.134-3.512,3.433c0,2.189,1.37,3.48,3.339,3.48
		c0.552,0,0.992-0.063,1.181-0.157v-2.221h-1.639v-1.874h3.953V19.745L116.872,19.745z"/>
</g>
<g>
	<path fill="#01CC9B" d="M175.012,312.342c0.882-0.142,2.032-0.222,3.244-0.222c2.017,0,3.324,0.363,4.347,1.135
		c1.102,0.818,1.795,2.126,1.795,4c0,2.032-0.74,3.433-1.764,4.299c-1.118,0.931-2.819,1.37-4.897,1.37
		c-1.245,0-2.126-0.078-2.725-0.156V312.342z M177.422,321.002c0.205,0.048,0.535,0.048,0.835,0.048
		c2.173,0.017,3.591-1.181,3.591-3.717c0.016-2.205-1.275-3.37-3.338-3.37c-0.536,0-0.882,0.048-1.087,0.095L177.422,321.002
		L177.422,321.002z"/>
	<path fill="#01CC9B" d="M192.287,318.326h-3.906v2.52h4.362v1.968h-6.772V312.2h6.552v1.968h-4.142v2.205h3.906V318.326z"/>
	<path fill="#01CC9B" d="M196.994,322.813l-3.402-10.613h2.63l1.291,4.487c0.362,1.26,0.693,2.474,0.945,3.795h0.047
		c0.268-1.275,0.598-2.536,0.96-3.748l1.354-4.535h2.552l-3.575,10.614H196.994L196.994,322.813z"/>
	<path fill="#01CC9B" d="M210.819,318.326h-3.906v2.52h4.363v1.968h-6.772V312.2h6.552v1.968h-4.142v2.205h3.906L210.819,318.326
		L210.819,318.326z"/>
	<path fill="#01CC9B" d="M212.911,312.2h2.41v8.599h4.221v2.016h-6.63V312.2z"/>
	<path fill="#01CC9B" d="M230.076,317.396c0,3.479-2.111,5.592-5.213,5.592c-3.15,0-4.992-2.379-4.992-5.403
		c0-3.18,2.032-5.56,5.166-5.56C228.296,312.025,230.076,314.469,230.076,317.396z M222.406,317.538c0,2.08,0.977,3.542,2.583,3.542
		c1.622,0,2.551-1.543,2.551-3.604c0-1.906-0.914-3.544-2.567-3.544C223.352,313.932,222.406,315.475,222.406,317.538z"/>
	<path fill="#01CC9B" d="M231.648,312.342c0.74-0.126,1.779-0.222,3.244-0.222c1.481,0,2.536,0.284,3.244,0.852
		c0.677,0.536,1.134,1.418,1.134,2.456c0,1.039-0.347,1.921-0.977,2.52c-0.819,0.772-2.032,1.119-3.449,1.119
		c-0.315,0-0.598-0.017-0.819-0.047v3.794h-2.378L231.648,312.342L231.648,312.342z M234.027,317.161
		c0.205,0.048,0.457,0.063,0.804,0.063c1.275,0,2.063-0.646,2.063-1.733c0-0.976-0.677-1.559-1.875-1.559
		c-0.488,0-0.819,0.047-0.992,0.096L234.027,317.161L234.027,317.161z"/>
	<path fill="#01CC9B" d="M243.206,312.2v10.613h-2.41V312.2H243.206z"/>
	<path fill="#01CC9B" d="M245.284,322.813V312.2h2.804l2.205,3.889c0.63,1.119,1.261,2.441,1.733,3.638h0.047
		c-0.158-1.4-0.205-2.835-0.205-4.425V312.2h2.205v10.613h-2.519l-2.269-4.094c-0.63-1.135-1.322-2.504-1.842-3.748l-0.047,0.016
		c0.063,1.4,0.094,2.897,0.094,4.631v3.196L245.284,322.813L245.284,322.813z"/>
	<path fill="#01CC9B" d="M265.015,322.325c-0.74,0.251-2.141,0.599-3.543,0.599c-1.937,0-3.339-0.488-4.315-1.432
		c-0.977-0.915-1.511-2.301-1.496-3.859c0.015-3.527,2.583-5.544,6.063-5.544c1.37,0,2.426,0.268,2.946,0.521l-0.504,1.92
		c-0.583-0.251-1.308-0.456-2.473-0.456c-2,0-3.512,1.134-3.512,3.434c0,2.188,1.37,3.48,3.339,3.48
		c0.551,0,0.992-0.063,1.181-0.157v-2.222h-1.638v-1.874h3.953V322.325z"/>
</g>
<g>
	<path fill="#5059AB" d="M488.666,322.059c-0.442,0.221-1.433,0.456-2.725,0.456c-3.67,0-5.56-2.283-5.56-5.307
		c0-3.623,2.582-5.639,5.794-5.639c1.245,0,2.189,0.252,2.615,0.474l-0.489,1.906c-0.486-0.206-1.165-0.395-2.016-0.395
		c-1.905,0-3.387,1.149-3.387,3.512c0,2.126,1.262,3.465,3.402,3.465c0.725,0,1.527-0.157,2-0.347L488.666,322.059z"/>
	<path fill="#5059AB" d="M490.238,311.744h2.41v8.599h4.221v2.016h-6.631V311.744z"/>
	<path fill="#5059AB" d="M507.402,316.94c0,3.479-2.11,5.592-5.214,5.592c-3.148,0-4.992-2.379-4.992-5.403
		c0-3.18,2.033-5.56,5.167-5.56C505.623,311.569,507.402,314.013,507.402,316.94z M499.732,317.082c0,2.08,0.976,3.542,2.583,3.542
		c1.622,0,2.552-1.543,2.552-3.604c0-1.906-0.914-3.544-2.567-3.544C500.677,313.476,499.732,315.019,499.732,317.082z"/>
	<path fill="#5059AB" d="M509.054,319.886c0.646,0.331,1.638,0.661,2.661,0.661c1.103,0,1.686-0.456,1.686-1.15
		c0-0.661-0.504-1.038-1.778-1.494c-1.765-0.614-2.915-1.592-2.915-3.136c0-1.81,1.512-3.196,4.016-3.196
		c1.198,0,2.08,0.252,2.709,0.535l-0.535,1.938c-0.425-0.205-1.181-0.504-2.221-0.504c-1.039,0-1.543,0.474-1.543,1.023
		c0,0.678,0.598,0.977,1.969,1.497c1.874,0.693,2.756,1.669,2.756,3.165c0,1.779-1.37,3.29-4.283,3.29
		c-1.213,0-2.41-0.314-3.007-0.645L509.054,319.886z"/>
	<path fill="#5059AB" d="M523.794,317.87h-3.905v2.52h4.362v1.968h-6.773v-10.613h6.552v1.968h-4.142v2.205h3.905L523.794,317.87
		L523.794,317.87z"/>
	<path fill="#5059AB" d="M525.887,311.886c0.88-0.142,2.03-0.222,3.243-0.222c2.016,0,3.323,0.363,4.347,1.135
		c1.102,0.818,1.795,2.126,1.795,4c0,2.032-0.739,3.433-1.764,4.299c-1.118,0.931-2.819,1.37-4.897,1.37
		c-1.244,0-2.127-0.078-2.725-0.156L525.887,311.886L525.887,311.886z M528.296,320.546c0.204,0.048,0.535,0.048,0.834,0.048
		c2.174,0.017,3.592-1.181,3.592-3.717c0.016-2.205-1.275-3.37-3.339-3.37c-0.535,0-0.882,0.048-1.086,0.095L528.296,320.546
		L528.296,320.546z"/>
	<path fill="#5059AB" d="M536.058,322.988l3.369-11.419h1.592l-3.371,11.419H536.058z"/>
	<path fill="#5059AB" d="M543.774,322.357l-2.521-10.613h2.566l0.804,4.378c0.235,1.26,0.457,2.63,0.63,3.701h0.031
		c0.173-1.15,0.425-2.425,0.692-3.733l0.897-4.346h2.552l0.852,4.472c0.235,1.245,0.409,2.379,0.566,3.56h0.031
		c0.157-1.181,0.394-2.425,0.614-3.686l0.866-4.346h2.441l-2.739,10.613h-2.6l-0.898-4.567c-0.203-1.07-0.377-2.063-0.503-3.274
		h-0.031c-0.189,1.196-0.362,2.204-0.614,3.274l-1.009,4.567H543.774z"/>
	<path fill="#5059AB" d="M565.63,316.94c0,3.479-2.111,5.592-5.214,5.592c-3.149,0-4.992-2.379-4.992-5.403
		c0-3.18,2.031-5.56,5.165-5.56C563.85,311.569,565.63,314.013,565.63,316.94z M557.96,317.082c0,2.08,0.976,3.542,2.582,3.542
		c1.622,0,2.552-1.543,2.552-3.604c0-1.906-0.914-3.544-2.568-3.544C558.903,313.476,557.96,315.019,557.96,317.082z"/>
	<path fill="#5059AB" d="M567.201,322.357v-10.613h2.803l2.206,3.889c0.63,1.119,1.26,2.441,1.732,3.638h0.047
		c-0.157-1.4-0.204-2.835-0.204-4.425v-3.102h2.205v10.613h-2.521l-2.267-4.094c-0.631-1.135-1.323-2.504-1.844-3.748l-0.047,0.016
		c0.063,1.4,0.093,2.897,0.093,4.631v3.196L567.201,322.357L567.201,322.357z"/>
</g>
<g>
	<path fill="#09909F" d="M646.034,19.934c-0.441,0.22-1.434,0.457-2.725,0.457c-3.67,0-5.561-2.283-5.561-5.308
		c0-3.623,2.583-5.638,5.796-5.638c1.244,0,2.188,0.252,2.614,0.474l-0.488,1.905c-0.488-0.205-1.165-0.394-2.018-0.394
		c-1.904,0-3.385,1.15-3.385,3.512c0,2.126,1.261,3.465,3.402,3.465c0.725,0,1.525-0.158,1.999-0.347L646.034,19.934z"/>
	<path fill="#09909F" d="M647.607,9.618h2.409v8.6h4.222v2.016h-6.631V9.618z"/>
	<path fill="#09909F" d="M664.771,14.815c0,3.481-2.11,5.591-5.213,5.591c-3.149,0-4.992-2.378-4.992-5.402
		c0-3.181,2.031-5.56,5.166-5.56C662.991,9.444,664.771,11.886,664.771,14.815z M657.101,14.956c0,2.079,0.977,3.545,2.582,3.545
		c1.623,0,2.553-1.544,2.553-3.607c0-1.906-0.913-3.543-2.567-3.543C658.046,11.351,657.101,12.895,657.101,14.956z"/>
	<path fill="#09909F" d="M666.421,17.76c0.646,0.331,1.64,0.663,2.662,0.663c1.102,0,1.686-0.458,1.686-1.15
		c0-0.662-0.504-1.04-1.779-1.497c-1.764-0.614-2.913-1.591-2.913-3.133c0-1.812,1.512-3.198,4.016-3.198
		c1.198,0,2.08,0.252,2.709,0.537l-0.536,1.937c-0.425-0.204-1.182-0.503-2.22-0.503c-1.039,0-1.544,0.472-1.544,1.023
		c0,0.677,0.599,0.978,1.969,1.496c1.873,0.693,2.757,1.669,2.757,3.166c0,1.781-1.37,3.292-4.284,3.292
		c-1.213,0-2.409-0.314-3.007-0.645L666.421,17.76z"/>
	<path fill="#09909F" d="M681.162,15.744h-3.906v2.52h4.362v1.969h-6.771V9.618h6.551v1.969h-4.143v2.205h3.906L681.162,15.744
		L681.162,15.744z"/>
	<path fill="#09909F" d="M683.255,9.76c0.881-0.142,2.03-0.22,3.242-0.22c2.018,0,3.325,0.362,4.348,1.133
		c1.103,0.818,1.795,2.126,1.795,4c0,2.031-0.739,3.433-1.764,4.298c-1.117,0.93-2.819,1.371-4.896,1.371
		c-1.245,0-2.127-0.079-2.726-0.157L683.255,9.76L683.255,9.76z M685.665,18.423c0.204,0.047,0.534,0.047,0.833,0.047
		c2.175,0.016,3.593-1.181,3.593-3.718c0.016-2.205-1.276-3.369-3.34-3.369c-0.536,0-0.882,0.046-1.086,0.094V18.423L685.665,18.423
		z"/>
	<path fill="#09909F" d="M693.426,20.862l3.37-11.417h1.591l-3.37,11.417H693.426z"/>
	<path fill="#09909F" d="M699.424,9.618h2.41v8.6h4.222v2.016h-6.632V9.618z"/>
	<path fill="#09909F" d="M716.59,14.815c0,3.481-2.111,5.591-5.213,5.591c-3.15,0-4.992-2.378-4.992-5.402
		c0-3.181,2.03-5.56,5.165-5.56C714.81,9.444,716.59,11.886,716.59,14.815z M708.92,14.956c0,2.079,0.977,3.545,2.583,3.545
		c1.623,0,2.551-1.544,2.551-3.607c0-1.906-0.912-3.543-2.567-3.543C709.864,11.351,708.92,12.895,708.92,14.956z"/>
	<path fill="#09909F" d="M718.24,17.76c0.646,0.331,1.638,0.663,2.662,0.663c1.102,0,1.686-0.458,1.686-1.15
		c0-0.662-0.505-1.04-1.78-1.497c-1.765-0.614-2.913-1.591-2.913-3.133c0-1.812,1.512-3.198,4.016-3.198
		c1.197,0,2.079,0.252,2.708,0.537l-0.535,1.937c-0.426-0.204-1.181-0.503-2.22-0.503s-1.544,0.472-1.544,1.023
		c0,0.677,0.599,0.978,1.968,1.496c1.875,0.693,2.757,1.669,2.757,3.166c0,1.781-1.369,3.292-4.283,3.292
		c-1.213,0-2.41-0.314-3.008-0.645L718.24,17.76z"/>
	<path fill="#09909F" d="M728.712,11.634h-2.851V9.618h8.156v2.016h-2.896v8.599h-2.41L728.712,11.634L728.712,11.634z"/>
</g>
<g>
	<path fill="#14A0C0" d="M296.943,20.232V9.617h2.803l2.206,3.89c0.629,1.118,1.26,2.441,1.732,3.638h0.047
		c-0.157-1.401-0.205-2.835-0.205-4.425V9.617h2.204v10.615h-2.519l-2.268-4.095c-0.63-1.133-1.323-2.504-1.842-3.748l-0.047,0.016
		c0.063,1.402,0.095,2.898,0.095,4.63v3.197H296.943z"/>
	<path fill="#14A0C0" d="M314.123,15.744h-3.906v2.52h4.362v1.968h-6.772V9.617h6.551v1.968h-4.141v2.205h3.906V15.744z"/>
	<path fill="#14A0C0" d="M325.082,19.744c-0.74,0.252-2.141,0.598-3.543,0.598c-1.937,0-3.339-0.488-4.315-1.433
		c-0.977-0.914-1.512-2.3-1.496-3.858c0.016-3.528,2.583-5.544,6.063-5.544c1.37,0,2.425,0.268,2.945,0.52l-0.504,1.921
		c-0.582-0.252-1.306-0.456-2.473-0.456c-2,0-3.512,1.134-3.512,3.433c0,2.189,1.37,3.48,3.339,3.48
		c0.552,0,0.992-0.063,1.181-0.157v-2.221h-1.639v-1.874h3.953V19.744z"/>
	<path fill="#14A0C0" d="M336.671,14.814c0,3.481-2.11,5.592-5.213,5.592c-3.15,0-4.992-2.378-4.992-5.402
		c0-3.182,2.032-5.56,5.167-5.56C334.891,9.444,336.671,11.886,336.671,14.814z M329.001,14.957c0,2.08,0.976,3.543,2.583,3.543
		c1.624,0,2.552-1.543,2.552-3.606c0-1.906-0.915-3.543-2.567-3.543C329.946,11.35,329.001,12.893,329.001,14.957z"/>
	<path fill="#14A0C0" d="M339.849,11.633h-2.851V9.617h8.158v2.016h-2.897v8.599h-2.41L339.849,11.633L339.849,11.633z"/>
	<path fill="#14A0C0" d="M348.84,9.617v10.615h-2.409V9.617H348.84z"/>
	<path fill="#14A0C0" d="M353.391,17.507l-0.755,2.725h-2.489l3.244-10.615h3.15l3.292,10.615h-2.583l-0.818-2.725H353.391z
		 M356.084,15.712l-0.661-2.252c-0.189-0.63-0.378-1.417-0.535-2.047h-0.032c-0.158,0.63-0.315,1.433-0.488,2.047l-0.629,2.252
		H356.084z"/>
	<path fill="#14A0C0" d="M361.987,11.633h-2.851V9.617h8.158v2.016h-2.897v8.599h-2.411L361.987,11.633L361.987,11.633z"/>
	<path fill="#14A0C0" d="M370.978,9.617v10.615h-2.41V9.617H370.978z"/>
	<path fill="#14A0C0" d="M382.773,14.814c0,3.481-2.11,5.592-5.214,5.592c-3.149,0-4.991-2.378-4.991-5.402
		c0-3.182,2.032-5.56,5.165-5.56C380.994,9.444,382.773,11.886,382.773,14.814z M375.104,14.957c0,2.08,0.977,3.543,2.583,3.543
		c1.623,0,2.552-1.543,2.552-3.606c0-1.906-0.913-3.543-2.567-3.543C376.048,11.35,375.104,12.893,375.104,14.957z"/>
	<path fill="#14A0C0" d="M384.347,20.232V9.617h2.803l2.205,3.89c0.63,1.118,1.261,2.441,1.731,3.638h0.049
		c-0.157-1.401-0.205-2.835-0.205-4.425V9.617h2.205v10.615h-2.52l-2.268-4.095c-0.632-1.133-1.324-2.504-1.843-3.748l-0.048,0.016
		c0.063,1.402,0.095,2.898,0.095,4.63v3.197H384.347z"/>
	<path fill="#14A0C0" d="M394.423,20.862l3.37-11.417h1.59l-3.37,11.417H394.423z"/>
	<path fill="#14A0C0" d="M400.422,9.76c0.771-0.126,1.921-0.221,3.197-0.221c1.574,0,2.677,0.236,3.433,0.835
		c0.63,0.504,0.976,1.244,0.976,2.22c0,1.354-0.961,2.284-1.873,2.614v0.047c0.74,0.299,1.149,1.008,1.417,1.985
		c0.331,1.197,0.661,2.583,0.867,2.993h-2.457c-0.174-0.3-0.426-1.165-0.74-2.473c-0.283-1.323-0.739-1.686-1.717-1.701H402.8v4.173
		h-2.378V9.76L400.422,9.76z M402.799,14.327h0.945c1.196,0,1.906-0.598,1.906-1.527c0-0.977-0.662-1.465-1.765-1.48
		c-0.582,0-0.913,0.047-1.087,0.079V14.327z"/>
	<path fill="#14A0C0" d="M416.073,15.744h-3.905v2.52h4.362v1.968h-6.772V9.617h6.551v1.968h-4.141v2.205h3.904L416.073,15.744
		L416.073,15.744z"/>
	<path fill="#14A0C0" d="M420.78,20.232l-3.401-10.615h2.63l1.291,4.488c0.363,1.261,0.693,2.473,0.945,3.795h0.049
		c0.267-1.275,0.598-2.535,0.96-3.748l1.354-4.536h2.552l-3.575,10.615H420.78z"/>
	<path fill="#14A0C0" d="M430.7,9.617v10.615h-2.41V9.617H430.7z"/>
	<path fill="#14A0C0" d="M439.094,15.744h-3.906v2.52h4.363v1.968h-6.773V9.617h6.552v1.968h-4.143v2.205h3.906L439.094,15.744
		L439.094,15.744z"/>
	<path fill="#14A0C0" d="M443.012,20.232l-2.52-10.615h2.567l0.804,4.378c0.235,1.26,0.456,2.63,0.631,3.701h0.03
		c0.174-1.149,0.426-2.426,0.693-3.733l0.898-4.346h2.552l0.85,4.473c0.236,1.245,0.409,2.378,0.567,3.559h0.031
		c0.156-1.181,0.394-2.426,0.613-3.686l0.867-4.346h2.44l-2.74,10.615h-2.601l-0.897-4.567c-0.204-1.071-0.376-2.063-0.503-3.276
		h-0.032c-0.189,1.197-0.361,2.205-0.613,3.276l-1.01,4.567H443.012z"/>
</g>
</svg>
