<?xml version="1.0" encoding="utf-8"?>
<!-- Generator: Adobe Illustrator 16.0.0, SVG Export Plug-In . SVG Version: 6.00 Build 0)  -->
<!DOCTYPE svg PUBLIC "-//W3C//DTD SVG 1.1//EN" "http://www.w3.org/Graphics/SVG/1.1/DTD/svg11.dtd">
<svg version="1.1" xmlns="http://www.w3.org/2000/svg" xmlns:xlink="http://www.w3.org/1999/xlink" x="0px" y="0px"
	 width="625.694px" height="431.475px" viewBox="0 0 625.694 431.475" enable-background="new 0 0 625.694 431.475"
	 xml:space="preserve">
<g id="Background">
	<g id="XMLID_2289_">
		<g id="XMLID_2683_">
			<linearGradient id="XMLID_2_" gradientUnits="userSpaceOnUse" x1="199.6572" y1="213.1484" x2="-7.6573" y2="213.1484">
				<stop  offset="0.0608" style="stop-color:#FFFFFF;stop-opacity:0"/>
				<stop  offset="0.1203" style="stop-color:#DFE1E3;stop-opacity:0.1278"/>
				<stop  offset="0.2121" style="stop-color:#B3B8BD;stop-opacity:0.3251"/>
				<stop  offset="0.301" style="stop-color:#9198A0;stop-opacity:0.5164"/>
				<stop  offset="0.385" style="stop-color:#79818A;stop-opacity:0.697"/>
				<stop  offset="0.4622" style="stop-color:#6A737D;stop-opacity:0.8628"/>
				<stop  offset="0.526" style="stop-color:#656E79"/>
			</linearGradient>
			<polygon id="XMLID_1019_" opacity="0.5" fill="url(#XMLID_2_)" points="88.712,239.115 174.86,239.115 90.106,187.182 			"/>
			<path id="XMLID_2210_" fill="#CBDFEF" d="M93.434,234.258l-81.891-47.106c-2.269-1.31-4.108-4.824-4.108-7.849V3.598
				c0-3.024,1.839-4.415,4.108-3.105l81.891,47.346c2.269,1.31,4.107,4.824,4.107,7.848v175.705
				C97.542,234.417,95.703,235.568,93.434,234.258z"/>
			<path id="XMLID_2098_" fill="#A8CDE5" d="M96.316,51.08l-7.604,4.119v167.759v8.813v7.344l7.791-4.69
				c1.039-0.516,1.039-1.637,1.039-3.032V55.688C97.542,54.161,97.072,52.51,96.316,51.08z"/>
			<polygon id="XMLID_2211_" fill="#CBDFEF" points="9.185,0.128 1.28,4.792 18.168,14.661 			"/>
			<path id="XMLID_2162_" fill="#F8FBFF" d="M85.999,238.919L4.107,191.573C1.839,190.263,0,186.75,0,183.724V8.02
				c0-3.025,1.839-4.415,4.107-3.105L85.999,52.26c2.269,1.31,4.107,4.824,4.107,7.849v175.705
				C90.106,238.838,88.268,240.229,85.999,238.919z"/>
			<path id="XMLID_2218_" fill="#7DC9C6" d="M8.707,175.271c-0.154-0.252-0.314-0.656-0.331-0.869l0.001-157.35l73.022,42.225
				c0.155,0.252,0.314,0.657,0.332,0.87l-0.001,157.35L8.707,175.271z"/>
			<path id="XMLID_2579_" fill="#69B7B1" d="M10.055,174.562c-0.154-0.253-0.314-0.657-0.331-0.869l0-155.861l-1.348-0.78
				l-0.001,157.35c0.017,0.213,0.177,0.617,0.331,0.869l73.022,42.226v-1.489L10.055,174.562z"/>
			<path id="XMLID_2097_" fill="#A8CDE5" d="M44.776,205.066c0,2.873-2.017,4.038-4.505,2.602s-4.505-4.931-4.505-7.804
				s2.017-4.037,4.505-2.601S44.776,202.193,44.776,205.066z"/>
			<g id="XMLID_1894_">
				<polygon id="XMLID_2115_" fill="#5BB56A" points="67.817,80.923 67.817,188.838 21.735,162.233 21.735,54.317 				"/>
				<g id="XMLID_2109_">
					<path id="XMLID_2111_" fill="#318C3A" d="M65.054,82.879v100.813l-40.179-23.198V59.682L65.054,82.879z M63.547,181.082V83.75
						L26.382,62.292v97.332L63.547,181.082z"/>
				</g>
				<g id="XMLID_1896_">
					<path id="XMLID_2108_" fill="#318C3A" d="M43.443,119.787c-0.981,2.098-1.578,2.523-2.662,1.897
						c-0.909-0.525-1.972-1.878-1.972-3.963c0-1.806,0.573-2.631,0.848-3.028l0.117-0.168l-2.029-2.059l-0.085,0.124
						c-0.534,0.78-0.826,1.801-0.891,3.117l-2.432-1.404v2.28l2.53,1.46c0.441,2.889,2.069,5.52,4.188,6.743
						c2.519,1.455,3.667-0.24,4.531-2.286c0.776-1.763,1.583-2.199,2.785-1.505c1.323,0.764,2.247,2.613,2.247,4.497
						c0,1.956-0.728,3.025-1.041,3.395l-0.14,0.166l2.056,2.037l0.088-0.091c0.635-0.66,1.07-2.07,1.13-3.633l2.503,1.445v-2.28
						l-2.628-1.517c-0.437-2.986-2.192-5.822-4.415-7.105C45.999,116.652,44.584,117.215,43.443,119.787z"/>
					<g id="XMLID_1898_">
						<path id="XMLID_1899_" fill="#318C3A" d="M59.932,130.328c0,9.649-6.799,13.574-15.155,8.75
							c-8.356-4.825-15.155-16.601-15.155-26.25c0-9.65,6.799-13.575,15.155-8.751C53.132,108.902,59.932,120.678,59.932,130.328z
							 M31.128,113.699c0,8.689,6.123,19.294,13.648,23.639c7.525,4.344,13.648,0.81,13.648-7.88c0-8.69-6.123-19.295-13.648-23.64
							C37.251,101.474,31.128,105.008,31.128,113.699z"/>
					</g>
				</g>
			</g>
			
				<linearGradient id="XMLID_3_" gradientUnits="userSpaceOnUse" x1="-124.6948" y1="134.833" x2="-5.3238" y2="18.9523" gradientTransform="matrix(1 0 0 1 151.6606 0)">
				<stop  offset="0" style="stop-color:#FFFFFF;stop-opacity:0"/>
				<stop  offset="1" style="stop-color:#F8FBFF"/>
			</linearGradient>
			<path id="XMLID_2096_" fill="url(#XMLID_3_)" d="M8.707,175.271c-0.154-0.252-0.314-0.656-0.331-0.869l0.001-157.35
				l73.022,42.225c0.155,0.252,0.314,0.657,0.332,0.87l-0.001,157.35L8.707,175.271z"/>
			<g id="XMLID_2091_" opacity="0.6">
				
					<linearGradient id="XMLID_4_" gradientUnits="userSpaceOnUse" x1="2.2104" y1="831.0796" x2="-192.9094" y2="1053.0767" gradientTransform="matrix(0.4667 0.8844 -0.615 0.9773 629.8937 -697.9719)">
					<stop  offset="0" style="stop-color:#FFFFFF;stop-opacity:0"/>
					<stop  offset="1" style="stop-color:#F8FBFF"/>
				</linearGradient>
				<polygon id="XMLID_2095_" fill="url(#XMLID_4_)" points="81.729,217.497 81.729,186.319 8.376,44.063 8.376,89.28 
					71.415,211.532 				"/>
				
					<linearGradient id="XMLID_5_" gradientUnits="userSpaceOnUse" x1="15.7749" y1="843.0063" x2="-179.3379" y2="1064.9954" gradientTransform="matrix(0.4667 0.8844 -0.615 0.9773 629.8937 -697.9719)">
					<stop  offset="0" style="stop-color:#FFFFFF;stop-opacity:0"/>
					<stop  offset="1" style="stop-color:#F8FBFF"/>
				</linearGradient>
				<polygon id="XMLID_2094_" fill="url(#XMLID_5_)" points="58.762,204.215 8.376,108.736 8.376,127.613 44.425,195.925 				"/>
				
					<linearGradient id="XMLID_6_" gradientUnits="userSpaceOnUse" x1="-26.1572" y1="806.1528" x2="-221.2727" y2="1028.1449" gradientTransform="matrix(0.4667 0.8844 -0.615 0.9773 629.8937 -697.9719)">
					<stop  offset="0" style="stop-color:#FFFFFF;stop-opacity:0"/>
					<stop  offset="1" style="stop-color:#F8FBFF"/>
				</linearGradient>
				<polygon id="XMLID_2093_" fill="url(#XMLID_6_)" points="81.73,113.843 40.437,35.59 26.1,27.3 81.73,132.72 				"/>
			</g>
		</g>
		<g id="XMLID_1854_">
			<linearGradient id="XMLID_7_" gradientUnits="userSpaceOnUse" x1="503.1377" y1="203.6563" x2="100.0245" y2="674.4919">
				<stop  offset="0.0608" style="stop-color:#FFFFFF;stop-opacity:0"/>
				<stop  offset="0.1203" style="stop-color:#DFE1E3;stop-opacity:0.1278"/>
				<stop  offset="0.2121" style="stop-color:#B3B8BD;stop-opacity:0.3251"/>
				<stop  offset="0.301" style="stop-color:#9198A0;stop-opacity:0.5164"/>
				<stop  offset="0.385" style="stop-color:#79818A;stop-opacity:0.697"/>
				<stop  offset="0.4622" style="stop-color:#6A737D;stop-opacity:0.8628"/>
				<stop  offset="0.526" style="stop-color:#656E79"/>
			</linearGradient>
			<path id="XMLID_2197_" opacity="0.5" fill="url(#XMLID_7_)" d="M245.999,300.845l67.243-38.663l96.375,5.64l136.632,80.313
				c3.224,1.895,3.168,6.574-0.1,8.393l-110.829,61.32c-2.354,1.311-5.227,1.272-7.546-0.1l-21.368-12.627v0.07l-9.113-5.456
				l-25.431-15.028h-60.696l20.457-24.287l-85.697-51.305C242.785,307.235,242.825,302.669,245.999,300.845z"/>
			<g id="XMLID_1857_">
				<path id="XMLID_2196_" fill="#CBDFEF" d="M256.762,359.502l37.422,21.605c9.109,5.259,24.159,4.675,31.968-1.24l45.65-36.967
					l-50.115-28.934l-62.777,27.078C248.665,345.553,247.653,354.243,256.762,359.502z"/>
				<path id="XMLID_2192_" fill="#F8FBFF" d="M256.762,355.235l37.422,21.606c9.109,5.259,24.159,4.675,31.968-1.24l42.674-34.525
					l-50.115-28.935l-59.8,24.638C248.665,341.287,247.653,349.976,256.762,355.235z"/>
				<linearGradient id="XMLID_8_" gradientUnits="userSpaceOnUse" x1="297.0664" y1="355.3823" x2="327.9125" y2="323.1951">
					<stop  offset="0" style="stop-color:#FFFFFF;stop-opacity:0"/>
					<stop  offset="0.5387" style="stop-color:#EEEEEE;stop-opacity:0.5387"/>
					<stop  offset="1" style="stop-color:#E5E5E5"/>
				</linearGradient>
				<path id="XMLID_2182_" fill="url(#XMLID_8_)" d="M256.762,355.235l37.422,21.606c9.109,5.259,24.159,4.675,31.968-1.24
					l42.674-34.525l-50.115-28.935l-59.8,24.638C248.665,341.287,247.653,349.976,256.762,355.235z"/>
				<g id="XMLID_1860_">
					<polygon id="XMLID_1893_" fill="#A8CDE5" points="423.075,367.521 432.83,362.142 432.83,379.304 423.075,384.683 					"/>
					<polygon id="XMLID_1892_" fill="#F8FBFF" points="423.075,367.521 423.075,384.683 192.602,251.62 192.602,234.458 					"/>
					<polygon id="XMLID_1891_" fill="#121C23" points="423.602,182.173 433.355,176.794 432.83,362.142 423.075,367.521 					"/>
					<polygon id="XMLID_1890_" fill="#1F2D38" points="193.128,49.11 202.883,43.73 433.355,176.794 423.602,182.173 					"/>
					<polygon id="XMLID_1889_" fill="#3D4B5C" points="423.602,182.173 423.075,367.521 192.602,234.458 193.128,49.11 					"/>
					<g id="XMLID_1861_">
						<polygon id="XMLID_1888_" fill="#7DC9C6" points="415.954,186.298 415.496,355.87 200.249,230.333 200.707,60.761 						"/>
						<linearGradient id="XMLID_10_" gradientUnits="userSpaceOnUse" x1="248.2529" y1="267.0796" x2="485.4736" y2="34.1588">
							<stop  offset="0" style="stop-color:#FFFFFF;stop-opacity:0"/>
							<stop  offset="1" style="stop-color:#F8FBFF"/>
						</linearGradient>
						<polygon id="XMLID_2223_" fill="url(#XMLID_10_)" points="415.954,186.298 415.496,355.87 200.249,230.333 200.707,60.761 
													"/>
						<g id="XMLID_2344_">
							<g id="XMLID_2333_">
								<path d="M249.623,143.407c0.825,0.318,1.906,0.806,3.281,1.6c1.69,0.976,2.928,2.145,3.714,3.415
									c0.727,1.146,1.159,2.507,1.159,3.868c0,1.384-0.354,2.27-1.021,2.678c-0.904,0.59-2.377,0.307-4.048-0.658
									c-0.511-0.295-0.982-0.59-1.376-0.931v6.126l-1.709-0.987V143.407z M251.332,151.769c0.374,0.329,0.845,0.646,1.415,0.976
									c2.063,1.191,3.321,0.76,3.321-1.35c0-2.02-1.238-3.71-3.125-4.8c-0.746-0.431-1.316-0.691-1.611-0.771V151.769z"/>
								<path d="M260.078,149.467c0.864,0.295,2.103,0.896,3.282,1.577c1.828,1.055,3.006,2.122,3.832,3.46
									c0.668,1.066,1.041,2.325,1.041,3.505c0,2.019-1.101,2.723-2.496,2.461v0.068c1.021,0.998,1.631,2.439,1.946,4.209
									c0.432,2.382,0.746,4.039,1.021,4.788l-1.768-1.021c-0.217-0.556-0.511-2.042-0.885-4.164
									c-0.394-2.337-1.101-3.54-2.653-4.504l-1.611-0.93v6.625l-1.709-0.986V149.467z M261.788,157.419l1.749,1.01
									c1.828,1.056,2.987,0.568,2.987-1.18c0-1.974-1.238-3.551-3.046-4.617c-0.824-0.477-1.415-0.727-1.689-0.794V157.419z"/>
								<path d="M282.029,169.423c0,5.264-2.771,6.456-6.151,4.503c-3.497-2.019-5.954-6.568-5.954-11.197
									c0-4.855,2.614-6.522,6.151-4.48C279.691,160.336,282.029,164.886,282.029,169.423z M271.752,163.739
									c0,3.268,1.533,7.08,4.225,8.634c2.711,1.565,4.244-0.431,4.244-3.903c0-3.041-1.375-7.011-4.225-8.656
									C273.167,158.181,271.752,160.381,271.752,163.739z"/>
								<path d="M293.507,183.356c-0.628,0-1.886-0.363-3.498-1.293c-3.733-2.155-6.543-6.5-6.543-11.515
									c0-4.788,2.811-6.41,6.917-4.039c1.651,0.953,2.692,1.963,3.144,2.496l-0.412,1.373c-0.648-0.738-1.572-1.543-2.672-2.179
									c-3.105-1.792-5.168-0.692-5.168,3.324c0,3.744,1.867,7.227,5.09,9.087c1.041,0.601,2.103,0.964,2.79,0.976L293.507,183.356
									z"/>
								<path d="M302.509,181.883l-5.149-2.973v5.514l5.738,3.313v1.656l-7.447-4.3V169.8l7.152,4.13v1.656l-5.443-3.143v4.833
									l5.149,2.973V181.883z"/>
								<path d="M305.084,188.134c0.766,0.987,1.886,2.087,3.066,2.768c1.748,1.01,2.77,0.533,2.77-1.01
									c0-1.429-0.707-2.655-2.495-4.481c-2.162-2.133-3.498-4.197-3.498-6.353c0-2.382,1.71-3.165,4.284-1.679
									c1.355,0.783,2.338,1.713,2.928,2.439l-0.472,1.339c-0.433-0.522-1.317-1.486-2.515-2.178
									c-1.809-1.044-2.496-0.193-2.496,0.851c0,1.429,0.805,2.598,2.633,4.47c2.24,2.292,3.379,4.197,3.379,6.443
									c0,2.36-1.513,3.528-4.637,1.725c-1.277-0.737-2.672-1.974-3.379-2.927L305.084,188.134z"/>
								<path d="M314.773,193.729c0.766,0.987,1.887,2.088,3.066,2.769c1.748,1.009,2.77,0.533,2.77-1.01
									c0-1.43-0.707-2.655-2.495-4.481c-2.161-2.133-3.498-4.198-3.498-6.354c0-2.382,1.71-3.165,4.284-1.679
									c1.355,0.782,2.338,1.713,2.928,2.439l-0.472,1.339c-0.433-0.522-1.316-1.486-2.515-2.178
									c-1.809-1.044-2.496-0.193-2.496,0.851c0,1.43,0.805,2.598,2.633,4.47c2.24,2.292,3.379,4.198,3.379,6.444
									c0,2.36-1.512,3.528-4.637,1.725c-1.277-0.737-2.672-1.974-3.379-2.927L314.773,193.729z"/>
								<path d="M326.408,187.558v15.293l-1.709-0.986v-15.293L326.408,187.558z"/>
								<path d="M329.396,204.576v-15.293l1.866,1.077l4.245,10.188c0.981,2.359,1.748,4.413,2.377,6.341l0.039,0
									c-0.156-2.133-0.196-4.017-0.196-6.399v-6.399l1.611,0.931v15.293l-1.729-0.998l-4.205-10.188
									c-0.923-2.235-1.808-4.493-2.476-6.535l-0.06-0.012c0.1,1.986,0.139,3.846,0.139,6.388v6.534L329.396,204.576z"/>
								<path d="M352.408,217.181c-0.767-0.125-2.279-0.476-4.067-1.508c-2.005-1.157-3.655-2.701-4.952-4.879
									c-1.14-1.928-1.848-4.379-1.848-6.761c0.02-4.549,2.731-6.319,7.172-3.755c1.533,0.885,2.732,1.962,3.302,2.609
									l-0.413,1.373c-0.707-0.771-1.592-1.577-2.927-2.348c-3.224-1.861-5.325-0.761-5.325,3.074c0,3.88,2.023,7.34,5.108,9.121
									c1.12,0.646,1.886,0.907,2.279,0.907v-4.561l-2.692-1.554v-1.589l4.363,2.519V217.181z"/>
							</g>
							<polygon id="XMLID_2274_" fill="#F8FBFF" points="390.144,278.264 226.06,183.53 226.06,167.875 390.144,262.609 							"/>
							<polygon id="XMLID_2279_" fill="#D85555" points="335.283,233.322 228.127,171.456 228.127,182.336 335.283,244.204 							
								"/>
						</g>
						<linearGradient id="XMLID_12_" gradientUnits="userSpaceOnUse" x1="254.0273" y1="276.2026" x2="428.9351" y2="101.2949">
							<stop  offset="0" style="stop-color:#FFFFFF"/>
							<stop  offset="0.2348" style="stop-color:#C6CACE;stop-opacity:0.7652"/>
							<stop  offset="0.4939" style="stop-color:#8F959D;stop-opacity:0.5061"/>
							<stop  offset="0.7172" style="stop-color:#666F7A;stop-opacity:0.2828"/>
							<stop  offset="0.8932" style="stop-color:#4D5864;stop-opacity:0.1068"/>
							<stop  offset="1" style="stop-color:#444F5C;stop-opacity:0"/>
						</linearGradient>
						<polygon id="XMLID_1887_" fill="url(#XMLID_12_)" points="302.611,290.061 360.293,323.702 333.099,137.975 273.341,103.123 
													"/>
						<linearGradient id="XMLID_13_" gradientUnits="userSpaceOnUse" x1="218.6128" y1="240.7881" x2="393.5208" y2="65.8801">
							<stop  offset="0" style="stop-color:#FFFFFF"/>
							<stop  offset="0.2348" style="stop-color:#C6CACE;stop-opacity:0.7652"/>
							<stop  offset="0.4939" style="stop-color:#8F959D;stop-opacity:0.5061"/>
							<stop  offset="0.7172" style="stop-color:#666F7A;stop-opacity:0.2828"/>
							<stop  offset="0.8932" style="stop-color:#4D5864;stop-opacity:0.1068"/>
							<stop  offset="1" style="stop-color:#444F5C;stop-opacity:0"/>
						</linearGradient>
						<polygon id="XMLID_1885_" fill="url(#XMLID_13_)" points="280.148,276.959 291.571,283.622 264.047,97.703 252.587,91.019 
													"/>
					</g>
				</g>
			</g>
		</g>
		<g id="XMLID_2314_">
			<path id="XMLID_2319_" fill="#AD3B3B" d="M278.875,344.294l-76.12-43.947c-2.075-1.198-3.354-3.412-3.354-5.809v-61.467
				c0-1.892,2.047-3.073,3.685-2.128l77.073,44.498c2.036,1.176,3.29,3.348,3.29,5.698v60.514
				C283.449,344.001,280.908,345.468,278.875,344.294z"/>
			<path id="XMLID_2318_" fill="#D85555" d="M277.475,345.294l-76.12-43.947c-2.075-1.198-3.354-3.412-3.354-5.809v-61.468
				c0-1.891,2.047-3.072,3.685-2.127l77.073,44.498c2.036,1.176,3.29,3.348,3.29,5.697v60.515
				C282.049,345.001,279.508,346.468,277.475,345.294z"/>
			<g id="XMLID_966_">
				<g id="XMLID_929_">
					
						<line id="XMLID_1003_" fill="none" stroke="#F8FBFF" stroke-linecap="round" stroke-miterlimit="10" x1="251.604" y1="293.558" x2="270.747" y2="304.611"/>
					
						<line id="XMLID_1895_" fill="none" stroke="#F8FBFF" stroke-linecap="round" stroke-miterlimit="10" x1="209.029" y1="268.978" x2="239.888" y2="286.794"/>
					
						<line id="XMLID_963_" fill="none" stroke="#F8FBFF" stroke-linecap="round" stroke-miterlimit="10" x1="254.873" y1="312.1" x2="270.747" y2="321.264"/>
					
						<line id="XMLID_999_" fill="none" stroke="#F8FBFF" stroke-linecap="round" stroke-miterlimit="10" x1="209.029" y1="253.434" x2="226.885" y2="263.743"/>
				</g>
				<polygon id="XMLID_2315_" fill="#F2C724" points="271.538,293.121 260.742,286.887 260.742,277.722 271.538,283.956 				"/>
				<polygon id="XMLID_945_" fill="#A8CDE5" points="221.309,300.767 210.513,294.535 210.513,285.37 221.309,291.603 				"/>
				<polygon id="XMLID_1004_" fill="#F2C724" points="225.221,298.913 214.425,292.679 214.425,283.515 225.221,289.748 				"/>
			</g>
		</g>
		<g id="XMLID_1097_">
			<linearGradient id="XMLID_14_" gradientUnits="userSpaceOnUse" x1="242.1953" y1="311.5806" x2="33.4028" y2="476.9606">
				<stop  offset="0.0608" style="stop-color:#FFFFFF;stop-opacity:0"/>
				<stop  offset="0.1203" style="stop-color:#DFE1E3;stop-opacity:0.1278"/>
				<stop  offset="0.2121" style="stop-color:#B3B8BD;stop-opacity:0.3251"/>
				<stop  offset="0.301" style="stop-color:#9198A0;stop-opacity:0.5164"/>
				<stop  offset="0.385" style="stop-color:#79818A;stop-opacity:0.697"/>
				<stop  offset="0.4622" style="stop-color:#6A737D;stop-opacity:0.8628"/>
				<stop  offset="0.526" style="stop-color:#656E79"/>
			</linearGradient>
			<polygon id="XMLID_1341_" opacity="0.5" fill="url(#XMLID_14_)" points="183.771,431.475 190.966,431.475 261.735,390.467 
				128.915,313.338 99.875,329.943 			"/>
			<g id="XMLID_1092_">
				<polygon id="XMLID_1090_" fill="#CBDFEF" points="183.771,431.475 48.381,353.307 48.381,346.353 183.771,424.521 				"/>
				<g id="XMLID_1083_">
					<polygon id="XMLID_2407_" fill="#FFFFFF" points="183.771,424.521 48.381,346.353 115.14,307.81 250.53,385.978 					"/>
					<polygon id="XMLID_1022_" fill="#ADDBD5" points="123.774,312.795 115.14,307.81 48.381,346.353 57.016,351.338 					"/>
					
						<line id="XMLID_2477_" fill="none" stroke="#3D4B5C" stroke-linecap="round" stroke-miterlimit="10" x1="116.84" y1="326.687" x2="154.564" y2="348.458"/>
					
						<line id="XMLID_2481_" fill="none" stroke="#3D4B5C" stroke-linecap="round" stroke-miterlimit="10" x1="146.668" y1="390.467" x2="183.544" y2="411.758"/>
					<polygon id="XMLID_2397_" fill="none" stroke="#3D4B5C" stroke-linecap="round" stroke-miterlimit="10" points="
						206.351,396.45 150.413,364.154 159.329,359.006 215.267,391.302 					"/>
					<polygon id="XMLID_2482_" fill="#A8CDE5" points="111.349,341.367 101.58,335.763 107.071,332.592 116.84,338.196 					"/>
					<polygon id="XMLID_1082_" fill="#A8CDE5" points="100.689,347.682 90.92,342.079 96.412,338.909 106.181,344.511 					"/>
					
						<line id="XMLID_2478_" fill="none" stroke="#3D4B5C" stroke-linecap="round" stroke-miterlimit="10" x1="101.977" y1="336.096" x2="145.302" y2="361.098"/>
					
						<line id="XMLID_2479_" fill="none" stroke="#3D4B5C" stroke-linecap="round" stroke-miterlimit="10" x1="91.265" y1="342.369" x2="197.841" y2="403.872"/>
					<g id="XMLID_1045_">
						<path d="M80.065,350.365l-0.014-0.008l-1.168-0.201l0.335-0.326l1.464,0.257l0.504,0.29l-4.363,2.52l-0.571-0.329
							L80.065,350.365z"/>
						<path d="M78.411,353.813l0.363-0.21l0.913,0.008c2.175,0.031,3.242-0.004,3.907-0.379c0.443-0.256,0.638-0.617-0.014-0.992
							c-0.396-0.229-0.926-0.303-1.296-0.322l0.229-0.349c0.557,0.026,1.174,0.166,1.678,0.457c0.939,0.543,0.692,1.144,0.067,1.504
							c-0.806,0.465-2.041,0.504-3.847,0.484l-0.672-0.016l-0.014,0.008l1.961,1.132l-0.49,0.283L78.411,353.813z"/>
						<path d="M82.672,355.49c0.06,0.158,0.281,0.48,0.69,0.717c0.759,0.438,1.478,0.295,1.833,0.082
							c0.604-0.357,0.315-0.826-0.255-1.156l-0.329-0.189l0.443-0.256l0.329,0.189c0.43,0.248,1.195,0.435,1.712,0.137
							c0.349-0.202,0.436-0.508-0.108-0.822c-0.349-0.201-0.839-0.306-1.162-0.337l0.276-0.337c0.396,0.035,1.006,0.193,1.476,0.465
							c0.859,0.496,0.739,1.016,0.209,1.322c-0.45,0.259-1.101,0.324-1.833,0.127l-0.014,0.008c0.43,0.372,0.463,0.856-0.148,1.209
							c-0.698,0.403-1.852,0.442-2.899-0.162c-0.49-0.283-0.766-0.621-0.84-0.826L82.672,355.49z"/>
						<path d="M87.119,358.84l1.188-0.687l-2.027-1.17l0.39-0.225l4.732-0.484l0.638,0.367l-2.712,1.566l0.611,0.353l-0.463,0.268
							l-0.611-0.353l-1.188,0.686L87.119,358.84z M88.77,357.886l1.457-0.841c0.229-0.132,0.463-0.26,0.706-0.384l-0.021-0.012
							c-0.39,0.07-0.686,0.116-1.007,0.163l-2.551,0.24l-0.013,0.008L88.77,357.886z"/>
						<path d="M96.627,359.865l-1.665-0.961l-1.289,0.55c0.114,0.051,0.222,0.097,0.383,0.19c0.336,0.193,0.597,0.43,0.705,0.678
							c0.148,0.311,0.054,0.69-0.497,1.008c-0.853,0.492-2.168,0.469-3.114-0.077c-0.477-0.275-0.746-0.586-0.819-0.783l0.597-0.174
							c0.074,0.166,0.295,0.449,0.692,0.678c0.557,0.321,1.396,0.388,1.98,0.051c0.558-0.329,0.583-0.779-0.289-1.283
							c-0.248-0.144-0.469-0.24-0.651-0.321l2.376-1.047l2.088,1.205L96.627,359.865z"/>
						<path d="M100.034,361.739c-0.115-0.073-0.274-0.159-0.47-0.24c-1.08-0.445-2.249-0.337-3.067,0.02l0.02,0.012
							c0.483-0.039,1.075,0.038,1.557,0.317c0.772,0.445,0.759,1.081-0.093,1.574c-0.799,0.461-2.081,0.573-2.986,0.05
							c-0.934-0.539-0.82-1.31,0.314-1.965c0.859-0.496,1.846-0.709,2.705-0.709c0.719,0.004,1.423,0.154,2.041,0.434
							c0.202,0.085,0.356,0.167,0.463,0.229L100.034,361.739z M97.35,363.095c0.624-0.36,0.644-0.783,0.1-1.097
							c-0.355-0.206-0.906-0.268-1.383-0.179c-0.107,0.016-0.222,0.051-0.329,0.112c-0.705,0.423-0.906,0.919-0.288,1.275
							C95.959,363.502,96.725,363.456,97.35,363.095z"/>
						<path d="M104.234,363.683l-0.389,0.225l-5.874,1.198l-0.612-0.354l5.754-1.135l0.014-0.008l-2.136-1.233l0.49-0.283
							L104.234,363.683z"/>
					</g>
				</g>
				<polygon id="XMLID_1088_" fill="#A8CDE5" points="183.771,431.475 183.771,424.521 250.53,385.978 250.53,392.932 				"/>
				<polygon id="XMLID_1091_" fill="#8BC6BC" points="48.381,346.353 48.381,353.307 56.519,358.005 56.519,351.338 				"/>
			</g>
		</g>
		<g id="XMLID_2926_">
			<path id="XMLID_3089_" fill="#F8FBFF" d="M150.267,77.478c-0.388-0.224-0.761-0.677-0.961-1.211
				c-3.954-10.595-11.507-20.121-19.714-24.859c-8.205-4.737-15.757-3.935-19.711,2.094c-0.291,0.443-0.955,0.282-1.487-0.359
				c-0.529-0.641-0.723-1.522-0.432-1.966c4.338-6.616,12.626-7.496,21.63-2.298c9.005,5.199,17.294,15.652,21.633,27.279
				c0.291,0.78,0.097,1.437-0.432,1.467C150.625,77.634,150.445,77.581,150.267,77.478z"/>
			<path id="XMLID_3084_" fill="#F8FBFF" d="M144.348,77.805c-0.388-0.224-0.761-0.677-0.961-1.211
				c-2.767-7.416-8.054-14.083-13.795-17.397c-5.741-3.315-11.028-2.753-13.794,1.467c-0.291,0.445-0.951,0.289-1.487-0.359
				c-0.529-0.641-0.723-1.522-0.432-1.965c3.15-4.808,9.171-5.448,15.713-1.671c6.542,3.777,12.563,11.37,15.715,19.818
				c0.291,0.779,0.097,1.436-0.432,1.467C144.706,77.961,144.526,77.908,144.348,77.805z"/>
			<path id="XMLID_2931_" fill="#F8FBFF" d="M138.43,78.133c-0.388-0.224-0.761-0.677-0.961-1.211
				c-1.58-4.234-4.598-8.042-7.877-9.935c-3.278-1.893-6.296-1.572-7.877,0.837c-0.292,0.443-0.96,0.282-1.487-0.36
				c-0.53-0.643-0.723-1.522-0.432-1.966c1.966-2.995,5.72-3.393,9.796-1.04c4.078,2.354,7.832,7.088,9.796,12.354
				c0.291,0.78,0.097,1.437-0.432,1.467C138.788,78.289,138.608,78.236,138.43,78.133z"/>
			<path id="XMLID_2930_" fill="#F8FBFF" d="M132.92,79.279c0,2.123-1.49,2.983-3.329,1.921c-1.838-1.061-3.328-3.642-3.328-5.765
				c0-2.123,1.49-2.983,3.328-1.921C131.43,74.575,132.92,77.156,132.92,79.279z"/>
		</g>
	</g>
	<g>
		<path d="M316.606,73.98c-1.294-1.294-1.953-2.832-1.953-4.614v-0.854h1.66v0.854c0,1.367,0.488,2.539,1.465,3.491
			s2.148,1.44,3.54,1.44s2.563-0.488,3.54-1.44s1.465-2.124,1.465-3.491v-5.347c0-1.367-0.488-2.539-1.465-3.516l-8.203-8.252
			c-1.294-1.294-1.953-2.856-1.953-4.688s0.659-3.394,1.953-4.688s2.856-1.929,4.663-1.929s3.369,0.635,4.663,1.929
			s1.953,2.856,1.953,4.688v0.854h-1.636v-0.854c0-1.367-0.488-2.539-1.465-3.516s-2.148-1.465-3.54-1.465s-2.563,0.488-3.54,1.465
			s-1.465,2.148-1.465,3.516s0.488,2.539,1.44,3.54l8.203,8.252c1.294,1.27,1.953,2.832,1.953,4.663v5.347
			c0,1.807-0.659,3.345-1.953,4.639s-2.856,1.929-4.663,1.929S317.9,75.274,316.606,73.98z"/>
		<path d="M334.502,75.933h-1.66v-35.01h1.66v0.806c0,1.367,0.488,2.539,1.465,3.516s2.148,1.465,3.54,1.465s2.563-0.488,3.54-1.465
			s1.465-2.148,1.465-3.516v-0.806h1.636v35.01h-1.636V46.075c-1.343,1.538-3.003,2.295-5.005,2.295s-3.662-0.757-4.956-2.295
			L334.502,75.933z"/>
		<path d="M357.817,40.948c1.807,0,3.369,0.635,4.663,1.929s1.953,2.856,1.953,4.688v28.394h-1.636v-0.806
			c0-1.392-0.488-2.588-1.465-3.564s-2.148-1.465-3.54-1.465s-2.563,0.488-3.54,1.465s-1.465,2.148-1.465,3.54v0.806h-1.66V47.54
			c0-1.831,0.659-3.394,1.953-4.688s2.856-1.929,4.663-1.929L357.817,40.948z M362.847,47.564c0-1.367-0.488-2.539-1.465-3.516
			s-2.148-1.465-3.54-1.465s-2.563,0.488-3.54,1.465s-1.465,2.148-1.465,3.516v23.193c1.294-1.489,2.954-2.246,4.956-2.246
			s3.662,0.757,5.005,2.246L362.847,47.564z"/>
		<path d="M380.669,42.852c1.294,1.294,1.953,2.856,1.953,4.688v15.991c0,1.245-0.317,2.368-0.952,3.394s-1.465,1.831-2.49,2.441
			c1.025,0.562,1.855,1.367,2.49,2.393s0.952,2.148,0.952,3.394v0.806h-1.636v-0.806c0-1.392-0.488-2.588-1.465-3.564
			s-2.148-1.465-3.54-1.465h-4.956v5.811h-1.66v-35.01h6.616C377.813,40.923,379.375,41.558,380.669,42.852z M380.962,47.588
			c0-1.367-0.488-2.539-1.465-3.516s-2.148-1.465-3.54-1.465h-4.956v25.903h4.956c1.392,0,2.588-0.488,3.564-1.465
			s1.465-2.148,1.465-3.516L380.962,47.588z"/>
		<path d="M386.357,40.923h13.257v1.66h-5.786v33.35h-1.66v-33.35h-5.811V40.923z"/>
		<path d="M415.483,73.98c-1.294-1.294-1.953-2.832-1.953-4.614V47.564c0-1.831,0.659-3.394,1.953-4.688s2.856-1.929,4.663-1.929
			s3.369,0.635,4.663,1.929s1.953,2.856,1.953,4.688v0.854h-1.636v-0.854c0-1.367-0.488-2.539-1.465-3.516s-2.148-1.465-3.54-1.465
			s-2.563,0.488-3.54,1.465s-1.465,2.148-1.465,3.516v21.802c0,1.367,0.488,2.539,1.465,3.491s2.148,1.44,3.54,1.44
			s2.563-0.488,3.54-1.44s1.465-2.124,1.465-3.491v-0.854h1.636v0.854c0,1.807-0.659,3.345-1.953,4.639s-2.856,1.929-4.663,1.929
			S416.777,75.274,415.483,73.98z"/>
		<path d="M433.428,75.933h-1.66v-35.01h1.66v27.563h9.961V40.923h1.636v35.01h-1.636v-5.811h-9.961V75.933z"/>
		<path d="M450.005,40.923h13.257v1.66h-11.597v25.903h5.811v1.636h-5.811v4.15h11.597v1.66h-13.257V40.923z"/>
		<path d="M473.345,75.958c-1.782-0.073-3.271-0.757-4.492-2.051s-1.831-2.808-1.831-4.565V47.54c0-1.831,0.659-3.394,1.953-4.688
			s2.856-1.929,4.663-1.929s3.369,0.635,4.663,1.929s1.953,2.856,1.953,4.688v21.802c0,2.002-0.757,3.638-2.295,4.932h2.295v1.66
			h-6.909V75.958z M468.657,69.366c0,1.367,0.488,2.539,1.465,3.491s2.148,1.44,3.54,1.44s2.563-0.488,3.54-1.44
			s1.465-2.124,1.465-3.491V47.564c0-1.367-0.488-2.539-1.465-3.516s-2.148-1.465-3.54-1.465s-2.563,0.488-3.54,1.465
			s-1.465,2.148-1.465,3.516V69.366z"/>
		<path d="M486.821,40.923v28.418c0,1.367,0.488,2.539,1.465,3.491s2.148,1.44,3.54,1.44s2.563-0.488,3.54-1.44
			s1.465-2.124,1.465-3.491V40.923h1.636v28.418c0,1.807-0.659,3.345-1.953,4.639s-2.856,1.929-4.663,1.929
			s-3.369-0.659-4.663-1.953s-1.953-2.832-1.953-4.614V40.923H486.821z"/>
		<path d="M503.472,40.923h13.257v1.66h-11.597v25.903h5.811v1.636h-5.811v4.15h11.597v1.66h-13.257V40.923z"/>
		<path d="M460.313,135.958h-1.66v-35.01h6.616c1.831,0,3.394,0.635,4.688,1.929s1.953,2.856,1.953,4.688v15.991
			c0,1.807-0.659,3.345-1.953,4.639s-2.856,1.929-4.688,1.929h-4.956V135.958z M460.289,128.56h4.956
			c1.392,0,2.588-0.488,3.564-1.465s1.465-2.148,1.465-3.516v-15.991c0-1.367-0.488-2.539-1.465-3.516s-2.148-1.465-3.54-1.465
			h-4.956L460.289,128.56z"/>
		<path d="M488.194,102.852c1.294,1.294,1.953,2.856,1.953,4.688v15.991c0,1.245-0.317,2.368-0.952,3.394s-1.465,1.831-2.49,2.441
			c1.025,0.562,1.855,1.367,2.49,2.393s0.952,2.148,0.952,3.394v0.806h-1.636v-0.806c0-1.392-0.488-2.588-1.465-3.564
			s-2.148-1.465-3.54-1.465h-4.956v5.811h-1.66v-35.01h6.616C485.338,100.923,486.9,101.558,488.194,102.852z M488.487,107.588
			c0-1.367-0.488-2.539-1.465-3.516s-2.148-1.465-3.54-1.465h-4.956v25.903h4.956c1.392,0,2.588-0.488,3.564-1.465
			s1.465-2.148,1.465-3.516L488.487,107.588z"/>
		<path d="M506.407,102.852c1.294,1.294,1.953,2.856,1.953,4.688v21.802c0,1.807-0.659,3.345-1.953,4.639s-2.856,1.929-4.663,1.929
			s-3.369-0.659-4.663-1.953s-1.953-2.832-1.953-4.614V107.54c0-1.831,0.659-3.394,1.953-4.688s2.856-1.929,4.663-1.929
			S505.113,101.558,506.407,102.852z M506.725,107.54c0-1.367-0.488-2.539-1.465-3.516s-2.148-1.465-3.54-1.465
			s-2.563,0.488-3.54,1.465s-1.465,2.148-1.465,3.516v21.802c0,1.367,0.488,2.539,1.465,3.491s2.148,1.44,3.54,1.44
			s2.563-0.488,3.54-1.44s1.465-2.124,1.465-3.491V107.54z"/>
		<path d="M515.318,133.98c-1.294-1.294-1.953-2.832-1.953-4.614v-21.802c0-1.831,0.659-3.394,1.953-4.688s2.856-1.929,4.663-1.929
			s3.369,0.635,4.663,1.929s1.953,2.856,1.953,4.688v0.854h-1.636v-0.854c0-1.367-0.488-2.539-1.465-3.516s-2.148-1.465-3.54-1.465
			s-2.563,0.488-3.54,1.465s-1.465,2.148-1.465,3.516v21.802c0,1.367,0.488,2.539,1.465,3.491s2.148,1.44,3.54,1.44
			s2.563-0.488,3.54-1.44s1.465-2.124,1.465-3.491v-0.854h1.636v0.854c0,1.807-0.659,3.345-1.953,4.639s-2.856,1.929-4.663,1.929
			S516.612,135.274,515.318,133.98z"/>
		<path d="M531.603,100.923h13.257v1.66h-11.597v25.903h5.811v1.636h-5.811v4.15h11.597v1.66h-13.257V100.923z"/>
		<path d="M550.548,133.98c-1.294-1.294-1.953-2.832-1.953-4.614v-0.854h1.66v0.854c0,1.367,0.488,2.539,1.465,3.491
			s2.148,1.44,3.54,1.44s2.563-0.488,3.54-1.44s1.465-2.124,1.465-3.491v-5.347c0-1.367-0.488-2.539-1.465-3.516l-8.203-8.252
			c-1.294-1.294-1.953-2.856-1.953-4.688s0.659-3.394,1.953-4.688s2.856-1.929,4.663-1.929s3.369,0.635,4.663,1.929
			s1.953,2.856,1.953,4.688v0.854h-1.636v-0.854c0-1.367-0.488-2.539-1.465-3.516s-2.148-1.465-3.54-1.465s-2.563,0.488-3.54,1.465
			s-1.465,2.148-1.465,3.516s0.488,2.539,1.44,3.54l8.203,8.252c1.294,1.27,1.953,2.832,1.953,4.663v5.347
			c0,1.807-0.659,3.345-1.953,4.639s-2.856,1.929-4.663,1.929S551.842,135.274,550.548,133.98z"/>
		<path d="M568.785,133.98c-1.294-1.294-1.953-2.832-1.953-4.614v-0.854h1.66v0.854c0,1.367,0.488,2.539,1.465,3.491
			s2.148,1.44,3.54,1.44s2.563-0.488,3.54-1.44s1.465-2.124,1.465-3.491v-5.347c0-1.367-0.488-2.539-1.465-3.516l-8.203-8.252
			c-1.294-1.294-1.953-2.856-1.953-4.688s0.659-3.394,1.953-4.688s2.856-1.929,4.663-1.929s3.369,0.635,4.663,1.929
			s1.953,2.856,1.953,4.688v0.854h-1.636v-0.854c0-1.367-0.488-2.539-1.465-3.516s-2.148-1.465-3.54-1.465s-2.563,0.488-3.54,1.465
			s-1.465,2.148-1.465,3.516s0.488,2.539,1.44,3.54l8.203,8.252c1.294,1.27,1.953,2.832,1.953,4.663v5.347
			c0,1.807-0.659,3.345-1.953,4.639s-2.856,1.929-4.663,1.929S570.079,135.274,568.785,133.98z"/>
		<path d="M585.069,135.933v-35.01h1.66v35.01H585.069z"/>
		<path d="M593.346,135.933h-1.66v-35.01h1.27c3.345,0,6.177,1.172,8.496,3.516c0.708,0.732,1.318,1.538,1.855,2.393v-5.908h1.636
			v35.01h-1.636v-23.047c0-2.759-0.977-5.151-2.905-7.153s-4.272-3.052-7.031-3.149L593.346,135.933z"/>
		<path d="M616.588,135.909c-1.807,0-3.369-0.659-4.663-1.953s-1.953-2.832-1.953-4.614V107.54c0-1.807,0.659-3.369,1.953-4.663
			s2.856-1.953,4.663-1.953s3.369,0.659,4.663,1.953s1.953,2.856,1.953,4.663v0.854h-1.636v-0.854c0-1.367-0.488-2.539-1.465-3.516
			s-2.148-1.465-3.54-1.465s-2.563,0.488-3.54,1.465s-1.465,2.148-1.465,3.516v21.802c0,1.367,0.488,2.539,1.465,3.491
			s2.148,1.44,3.54,1.44s2.563-0.488,3.54-1.44s1.465-2.124,1.465-3.491v-15.82h-5.811v-1.636h7.446v24.048h-1.636v-2.246
			c-1.343,1.489-3.003,2.246-5.005,2.246L616.588,135.909z"/>
	</g>
</g>
<g id="Objects">
</g>
<g id="Designed_by_Freepik">
	<g>
	</g>
	<g>
	</g>
	<g>
	</g>
	<g>
	</g>
	<g>
	</g>
	<g>
	</g>
</g>
</svg>
