<?xml version="1.0" encoding="utf-8"?>
<!-- Generator: Adobe Illustrator 16.0.0, SVG Export Plug-In . SVG Version: 6.00 Build 0)  -->
<!DOCTYPE svg PUBLIC "-//W3C//DTD SVG 1.1//EN" "http://www.w3.org/Graphics/SVG/1.1/DTD/svg11.dtd">
<svg version="1.1" id="Layer_1" xmlns="http://www.w3.org/2000/svg" xmlns:xlink="http://www.w3.org/1999/xlink" x="0px" y="0px"
	 width="510.5px" height="487.93px" viewBox="-7 0.07 510.5 487.93" enable-background="new -7 0.07 510.5 487.93"
	 xml:space="preserve">
<path d="M213.914,53.063h68.061c4.417,0,7.999-3.581,7.999-7.999s-3.582-7.999-7.999-7.999h-68.061
	c-4.417,0-7.999,3.582-7.999,7.999S209.497,53.063,213.914,53.063z"/>
<path d="M247.945,403.574c-15.982,0-28.941,12.955-28.941,28.938c0,15.986,12.959,28.941,28.941,28.941s28.941-12.955,28.941-28.941
	C276.866,416.537,263.919,403.59,247.945,403.574z M247.945,445.455c-7.147,0-12.943-5.792-12.943-12.943
	c0-7.147,5.796-12.939,12.943-12.939s12.943,5.792,12.943,12.939C260.88,439.659,255.088,445.447,247.945,445.455z"/>
<path fill="#40A3FF" d="M247.945,340.029c58.538,0,105.992-47.454,105.992-105.993c-0.004-58.539-47.458-105.993-105.992-105.993
	c-58.538,0-105.992,47.454-105.992,105.993C142.019,292.548,189.434,339.963,247.945,340.029z"/>
<path d="M206.431,276.003c2.641,0,4.68-0.784,5.28-3.065l4.559-15.9h27.477l4.558,15.9c0.598,2.281,2.641,3.093,5.28,3.093
	c4.199,0,9.839-2.772,9.839-6.495c-0.035-0.41-0.117-0.813-0.242-1.207l-23.157-75.469c-1.078-3.597-5.519-5.28-10.076-5.28
	c-4.438,0-8.878,1.679-9.96,5.28l-23.152,75.465c-0.117,0.391-0.195,0.793-0.242,1.199
	C196.593,273.363,202.233,276.003,206.431,276.003z M229.948,208.204l10.436,36.831h-20.876L229.948,208.204z"/>
<path d="M291.439,276.003c3.839,0,7.499-1.683,7.499-4.921v-77.989c0-3.359-3.66-4.8-7.499-4.8c-3.961,0-7.499,1.441-7.499,4.8
	v77.989C283.94,274.32,287.478,276.003,291.439,276.003z"/>
<path d="M433.73,252.034c1.41,5.433,4.246,10.389,8.214,14.353c10.136,10.159,25.828,12.229,38.248,5.047
	c12.421-7.183,18.459-21.817,14.709-35.667c-3.749-13.846-16.341-23.442-30.69-23.379c-14.346,0.063-26.855,9.768-30.48,23.649
	h-41.806V209.04h18.552c4.417,0,8.444-3.375,8.444-7.792v-40.202h9.506c1.617,5.421,4.531,10.366,8.491,14.404v0.027
	c12.389,12.092,32.226,11.889,44.364-0.453c12.144-12.342,12.022-32.175-0.27-44.368c-12.291-12.19-32.128-12.151-44.368,0.09
	c-3.917,3.983-6.749,8.909-8.218,14.298h-17.95c-4.418,0-7.554,3.683-7.554,8.101v39.896h-10.998V48.435
	c0-26.465-21.388-48.364-47.849-48.364H151.814c-26.461,0-47.849,21.899-47.849,48.364v144.608H92.967V153.15
	c0-4.417-3.137-8.101-7.554-8.101h-17.95c-1.469-5.39-4.297-10.315-8.214-14.298c-9.011-9.194-22.681-12.045-34.616-7.218
	c-11.936,4.831-19.774,16.384-19.853,29.257c-0.082,12.877,7.616,24.528,19.489,29.503c11.877,4.976,25.578,2.293,34.702-6.792
	v-0.051c3.96-4.038,6.874-8.983,8.491-14.404h9.506v40.202c0,4.417,4.027,7.792,8.444,7.792h18.552v26.996H62.159
	c-3.633-13.85-16.123-23.524-30.441-23.579c-14.314-0.059-26.879,9.522-30.62,23.34c-3.742,13.818,2.276,28.426,14.669,35.601
	c12.39,7.171,28.055,5.116,38.175-5.012c3.972-3.964,6.808-8.92,8.218-14.353h41.806v26.996H85.413
	c-4.417,0-8.444,3.374-8.444,7.792v40.201h-9.506c-1.617-5.422-4.531-10.362-8.491-14.404v-0.023
	c-12.389-12.092-32.226-11.893-44.364,0.449c-12.144,12.342-12.022,32.175,0.27,44.368c12.291,12.194,32.124,12.151,44.368-0.09
	c3.917-3.983,6.749-8.909,8.218-14.298h17.95c4.417,0,7.554-3.684,7.554-8.098v-39.9h10.998V439.64
	c0,26.465,21.388,48.36,47.849,48.36h192.262c26.461,0,47.849-21.896,47.849-48.36V295.027h10.998v39.896
	c0,4.418,3.136,8.098,7.554,8.098h17.95c1.469,5.389,4.297,10.314,8.214,14.298c9.011,9.198,22.681,12.046,34.616,7.218
	c11.932-4.831,19.774-16.385,19.853-29.258c0.082-12.873-7.616-24.523-19.489-29.499c-11.877-4.976-25.578-2.297-34.702,6.788v0.051
	c-3.96,4.042-6.874,8.982-8.491,14.404h-9.506v-40.201c0-4.418-4.027-7.792-8.444-7.792h-18.552v-26.996H433.73z M447.95,142.108
	c6.097-6.097,15.982-6.097,22.079,0c6.101,6.097,6.101,15.982,0,22.079c-6.097,6.101-15.982,6.097-22.079,0
	c-6.085-6.101-6.085-15.975,0-22.075V142.108z M47.939,164.191c-6.097,6.097-15.986,6.097-22.083,0
	c-6.097-6.097-6.097-15.982,0-22.083c6.097-6.097,15.986-6.097,22.083,0.004c2.952,2.914,4.612,6.89,4.612,11.038
	C52.551,157.302,50.891,161.277,47.939,164.191z M42.63,255.076c-6.097,6.098-15.981,6.098-22.078,0
	c-6.097-6.097-6.097-15.981,0-22.079c6.097-6.097,15.981-6.097,22.078,0c2.953,2.914,4.617,6.89,4.617,11.038
	C47.247,248.187,45.583,252.159,42.63,255.076z M47.939,345.966c-6.097,6.097-15.982,6.097-22.079,0
	c-6.101-6.101-6.101-15.985,0-22.083c6.097-6.097,15.982-6.097,22.079,0c2.952,2.918,4.612,6.89,4.612,11.037
	c0,4.152-1.66,8.125-4.612,11.042V345.966z M447.95,323.887c6.097-6.101,15.986-6.101,22.083-0.004
	c6.097,6.098,6.097,15.986,0,22.083s-15.986,6.097-22.083,0c-2.952-2.917-4.612-6.894-4.612-11.042
	C443.338,330.776,444.998,326.801,447.95,323.887z M151.814,16.068h192.262c17.638,0,31.851,14.725,31.851,32.367v30.625H119.963
	V48.435C119.963,30.792,134.172,16.068,151.814,16.068z M375.926,95.057v281.959H119.963V95.057H375.926z M344.075,472.002H151.814
	c-17.642,0-31.851-14.721-31.851-32.362v-46.626h255.963v46.626C375.926,457.281,361.713,472.002,344.075,472.002z"/>
<path fill="#40A3FF" d="M436.32,128.975c12.739-12.746,33.391-12.746,46.128,0c12.737,12.738,12.737,33.39,0,46.127
	c-12.737,12.739-33.389,12.739-46.128,0C423.607,162.348,423.607,141.721,436.32,128.975z"/>
<path fill="#40A3FF" d="M436.32,312.309c12.739-12.746,33.391-12.746,46.128,0c12.737,12.738,12.737,33.39,0,46.127
	c-12.737,12.739-33.389,12.739-46.128,0C423.607,345.682,423.607,325.055,436.32,312.309z"/>
<path fill="#40A3FF" d="M441.32,220.976c12.739-12.746,33.391-12.746,46.128,0c12.737,12.738,12.737,33.39,0,46.127
	c-12.737,12.739-33.389,12.739-46.128,0C428.607,254.349,428.607,233.722,441.32,220.976z"/>
<path fill="#40A3FF" d="M13.32,128.975c12.739-12.746,33.391-12.746,46.128,0c12.737,12.738,12.737,33.39,0,46.127
	c-12.737,12.739-33.389,12.739-46.128,0C0.607,162.348,0.607,141.721,13.32,128.975z"/>
<path fill="#40A3FF" d="M13.32,312.309c12.739-12.746,33.391-12.746,46.128,0c12.737,12.738,12.737,33.39,0,46.127
	c-12.737,12.739-33.389,12.739-46.128,0C0.607,345.682,0.607,325.055,13.32,312.309z"/>
<path fill="#40A3FF" d="M7.535,220.976c12.739-12.746,33.391-12.746,46.128,0c12.737,12.738,12.737,33.39,0,46.127
	c-12.737,12.739-33.389,12.739-46.128,0C-5.178,254.349-5.178,233.722,7.535,220.976z"/>
</svg>
