<?xml version="1.0" encoding="utf-8"?>
<!-- Generator: Adobe Illustrator 16.0.0, SVG Export Plug-In . SVG Version: 6.00 Build 0)  -->
<!DOCTYPE svg PUBLIC "-//W3C//DTD SVG 1.1//EN" "http://www.w3.org/Graphics/SVG/1.1/DTD/svg11.dtd">
<svg version="1.1" id="Ñëîé_1" xmlns="http://www.w3.org/2000/svg" xmlns:xlink="http://www.w3.org/1999/xlink" x="0px" y="0px"
	 width="303.118px" height="313.45px" viewBox="0 0 303.118 313.45" enable-background="new 0 0 303.118 313.45"
	 xml:space="preserve">
<g>
	<g>
		<polygon fill="#D4ECFF" points="111.231,139.285 125.838,130.853 111.231,122.419 96.625,130.853 96.625,130.853 82.019,139.285 
			96.625,147.719 96.625,147.719 111.231,156.151 125.838,147.719 111.231,139.285 		"/>
		<polygon fill="#173D7A" points="111.231,118.279 111.231,56.438 125.838,48.004 125.838,109.847 		"/>
		<polygon fill="#396CAA" points="111.231,56.438 96.625,48.004 96.625,109.847 111.231,118.279 		"/>
		<polygon fill="#D4ECFF" points="125.838,48.004 111.231,39.571 96.625,48.004 111.231,56.438 		"/>
	</g>
	<g>
		<polygon fill="#95D359" points="125.838,121.09 111.231,112.657 111.231,118.279 125.838,126.712 		"/>
	</g>
	<g>
		<polygon fill="#C13D1A" points="96.625,126.712 96.625,81.736 111.231,73.304 111.231,118.279 		"/>
		<polygon fill="#DB5126" points="96.625,81.736 82.019,73.304 82.019,118.279 96.625,126.712 		"/>
		<polygon fill="#EF602E" points="111.231,73.304 96.625,64.87 82.019,73.304 96.625,81.736 		"/>
		<polygon fill="#396CAA" points="96.625,126.712 96.625,81.736 111.231,73.304 111.231,118.279 		"/>
		<polygon fill="#5793CE" points="96.625,81.736 82.019,73.304 82.019,118.279 96.625,126.712 		"/>
		<polygon fill="#D4ECFF" points="111.231,73.304 96.625,64.87 82.019,73.304 96.625,81.736 		"/>
	</g>
	<g>
		<polygon fill="#173D7A" points="111.231,135.146 111.231,109.847 125.838,101.413 125.838,126.712 		"/>
		<polygon fill="#396CAA" points="111.231,109.847 96.625,101.413 96.625,126.712 111.231,135.146 		"/>
		<polygon fill="#D4ECFF" points="125.838,101.413 111.231,92.98 96.625,101.413 111.231,109.847 		"/>
	</g>
</g>
<g>
	
		<rect x="299.318" y="165.243" transform="matrix(0.2478 0.9688 -0.9688 0.2478 388.3624 -164.6216)" fill="#5793CE" width="1.75" height="5.083"/>
	
		<rect x="296.807" y="167.693" transform="matrix(0.2483 0.9687 -0.9687 0.2483 388.6682 -160.3944)" fill="#5793CE" width="1.75" height="5.084"/>
	
		<rect x="294.294" y="170.144" transform="matrix(0.2483 0.9687 -0.9687 0.2483 389.1537 -156.1187)" fill="#5793CE" width="1.75" height="5.083"/>
	
		<rect x="291.783" y="172.594" transform="matrix(0.2483 0.9687 -0.9687 0.2483 389.6391 -151.8439)" fill="#5793CE" width="1.75" height="5.083"/>
</g>
<g>
	<g>
		<path fill="#D4ECFF" d="M172.584,292.587L62.273,228.899c-3.12-1.802-2.729-4.949,0.874-7.029l75.113-43.352
			c3.604-2.081,9.055-2.307,12.175-0.505l110.311,63.688c3.12,1.802,2.729,4.948-0.874,7.029l-75.113,43.352
			C181.155,294.163,175.705,294.389,172.584,292.587z"/>
		<g>
			<path fill="#173D7A" d="M264.826,116.421l-112.13-64.685c-1.444-0.833-2.771-0.961-3.839-0.516l0.004-0.013l-0.184,0.085
				c-0.015,0.007-0.03,0.014-0.045,0.021l-3.65,1.718l3.963,1.973c-0.001,0.074-0.008,0.144-0.008,0.22l0.034,92.097
				c0.002,4.609,2.854,9.99,6.371,12.019l109.141,62.96l0.62,5.137l3.985-1.901c1.313-0.771,2.144-2.514,2.144-4.997l-0.035-92.098
				C271.196,123.831,268.344,118.45,264.826,116.421z"/>
			<path fill="#396CAA" d="M264.826,116.421l-112.13-64.685c-1.444-0.833-2.771-0.961-3.839-0.516l0.004-0.013l-0.184,0.085
				c-0.015,0.007-0.03,0.014-0.045,0.021l-3.65,1.718l3.963,1.973c-0.001,0.074-0.008,0.144-0.008,0.22l0.022,60.697l51.03,40.32
				l69.288-34.87C268.13,119.236,266.56,117.421,264.826,116.421z"/>
			<path fill="#274F89" d="M266.699,117.87l-10.988,4.622l8.297,6.393l6.928-2.949C270.334,122.907,268.735,119.864,266.699,117.87z
				"/>
			<path fill="#D4ECFF" d="M261.176,226.948l-112.131-64.685c-3.517-2.029-6.369-7.41-6.371-12.019l-0.034-92.098
				c-0.002-4.609,2.848-6.701,6.365-4.672l112.13,64.685c3.518,2.028,6.37,7.409,6.372,12.019l0.034,92.097
				C267.543,226.885,264.692,228.977,261.176,226.948z"/>
			<path fill="#FFFFFF" d="M257.445,220.098l-104.724-60.383c-3.219-1.856-5.829-6.781-5.831-10.999l-0.031-84.276
				c-0.001-4.218,2.606-6.132,5.825-4.275l104.724,60.383c3.219,1.856,5.829,6.781,5.83,10.998l0.031,84.277
				C263.271,220.04,260.664,221.954,257.445,220.098z"/>
			<path fill="#FFFFFF" d="M257.445,220.098l-104.724-60.383c-3.219-1.856-5.829-6.781-5.831-10.999l-0.031-84.276
				c-0.001-4.218,2.606-6.132,5.825-4.275l104.724,60.383c3.219,1.856,5.829,6.781,5.83,10.998l0.031,84.277
				C263.271,220.04,260.664,221.954,257.445,220.098z"/>
		</g>
		<path fill="#173D7A" d="M262.85,229.809l-15.078-1.991l-97.336-56.197c-3.12-1.802-8.571-1.575-12.175,0.505l-68.972,39.807
			l-9.117-1.204v5.173l0.009,0.001c-0.06,1.196,0.621,2.346,2.093,3.196l110.311,63.688c3.121,1.802,8.571,1.576,12.175-0.505
			l75.113-43.352c2.026-1.17,3.037-2.679,2.978-4.095l0,0V229.809z"/>
		<path fill="#396CAA" d="M189.715,194.299l-6.915-3.993h-76.029l-37.481,21.626l-9.117-1.204v5.173l0.009,0.001
			c-0.06,1.196,0.621,2.346,2.093,3.196l110.311,63.688c1.649,0.952,3.949,1.332,6.283,1.178L189.715,194.299z"/>
		<path fill="#5793CE" d="M64.218,211.262l-4.046-0.534v5.173l0.009,0.001c-0.06,1.196,0.621,2.346,2.093,3.196l1.944,1.122V211.262
			z"/>
		<path fill="#274F89" d="M173.695,283.301c2.957,1.122,7.187,0.878,10.344-0.642V271.12h-10.344V283.301z"/>
		<path fill="#D4ECFF" d="M172.584,277.618L62.273,213.931c-3.12-1.802-2.729-4.949,0.874-7.029l75.113-43.352
			c3.604-2.081,9.055-2.307,12.175-0.505l110.311,63.688c3.12,1.802,2.729,4.948-0.874,7.029l-75.113,43.352
			C181.155,279.193,175.705,279.42,172.584,277.618z"/>
		<path fill="#FFFFFF" d="M259.872,231.871l-75.113,43.353c-3.604,2.08-9.054,2.307-12.175,0.505L62.273,212.041
			c-1.022-0.591-1.661-1.327-1.939-2.122c-0.488,1.476,0.134,2.969,1.939,4.012l110.311,63.688
			c3.121,1.802,8.571,1.575,12.175-0.505l75.113-43.352c2.422-1.398,3.385-3.278,2.813-4.907
			C262.33,229.93,261.39,230.995,259.872,231.871z"/>
		<g>
			<path fill="#173D7A" d="M109.19,192.846l-4.991-2.882c-0.4-0.231-0.351-0.635,0.112-0.902l5.892-3.401
				c0.462-0.268,1.162-0.296,1.563-0.064l4.991,2.882c0.401,0.23,0.351,0.635-0.112,0.902l-5.891,3.401
				C110.291,193.049,109.591,193.077,109.19,192.846z"/>
			<path fill="#173D7A" d="M116.898,197.296l-4.991-2.882c-0.401-0.231-0.351-0.636,0.112-0.902l5.891-3.401
				c0.463-0.267,1.163-0.296,1.563-0.064l4.991,2.881c0.4,0.231,0.351,0.636-0.112,0.903l-5.891,3.401
				C117.999,197.498,117.299,197.527,116.898,197.296z"/>
			<path fill="#173D7A" d="M124.605,201.746l-4.991-2.882c-0.4-0.231-0.35-0.636,0.112-0.902l5.892-3.401
				c0.463-0.268,1.163-0.296,1.563-0.065l4.991,2.882c0.4,0.231,0.351,0.636-0.112,0.903l-5.892,3.401
				C125.706,201.948,125.007,201.978,124.605,201.746z"/>
			<path fill="#173D7A" d="M135.266,198.071l-4.99-2.882c-0.401-0.231-0.351-0.636,0.111-0.902l4.945-2.855
				c0.463-0.268,1.163-0.296,1.564-0.065l4.99,2.882c0.401,0.231,0.351,0.636-0.112,0.903l-4.945,2.855
				C136.367,198.273,135.667,198.303,135.266,198.071z"/>
			<path fill="#173D7A" d="M142.974,202.521l-4.991-2.881c-0.4-0.231-0.351-0.636,0.112-0.903l4.945-2.854
				c0.463-0.268,1.163-0.297,1.563-0.065l4.991,2.882c0.401,0.231,0.351,0.636-0.112,0.902l-4.945,2.855
				C144.074,202.724,143.375,202.752,142.974,202.521z"/>
			<path fill="#173D7A" d="M150.682,206.971l-4.991-2.881c-0.4-0.231-0.351-0.636,0.112-0.903l4.945-2.854
				c0.463-0.268,1.163-0.297,1.563-0.065l4.991,2.882c0.4,0.231,0.351,0.636-0.112,0.902l-4.945,2.855
				C151.782,207.174,151.082,207.202,150.682,206.971z"/>
			<path fill="#173D7A" d="M158.39,211.421l-4.991-2.881c-0.401-0.231-0.351-0.636,0.112-0.903l4.945-2.855
				c0.463-0.267,1.162-0.296,1.563-0.064l4.991,2.882c0.4,0.231,0.35,0.636-0.112,0.902l-4.945,2.855
				C159.49,211.624,158.79,211.652,158.39,211.421z"/>
			<path fill="#173D7A" d="M166.097,215.871l-4.99-2.882c-0.401-0.231-0.351-0.635,0.111-0.902l4.946-2.855
				c0.462-0.267,1.162-0.296,1.563-0.064l4.991,2.882c0.401,0.231,0.351,0.635-0.112,0.902l-4.945,2.855
				C167.198,216.073,166.498,216.103,166.097,215.871z"/>
			<path fill="#173D7A" d="M173.805,220.321l-4.991-2.882c-0.4-0.231-0.351-0.635,0.112-0.902l4.945-2.855
				c0.463-0.267,1.163-0.296,1.563-0.064l4.991,2.882c0.4,0.23,0.351,0.636-0.112,0.902l-4.945,2.855
				C174.905,220.523,174.205,220.553,173.805,220.321z"/>
			<path fill="#173D7A" d="M181.513,224.771l-4.991-2.882c-0.4-0.231-0.351-0.636,0.112-0.902l4.945-2.855
				c0.463-0.267,1.163-0.296,1.563-0.064l4.991,2.882c0.4,0.23,0.351,0.635-0.112,0.902l-4.945,2.855
				C182.613,224.974,181.913,225.003,181.513,224.771z"/>
			<path fill="#173D7A" d="M189.221,229.222l-4.991-2.882c-0.401-0.231-0.351-0.636,0.112-0.902l4.945-2.855
				c0.463-0.268,1.162-0.296,1.563-0.065l4.991,2.882c0.4,0.232,0.35,0.636-0.112,0.903l-4.945,2.854
				C190.321,229.424,189.621,229.453,189.221,229.222z"/>
			<path fill="#173D7A" d="M196.928,233.672l-4.99-2.882c-0.401-0.231-0.351-0.636,0.111-0.902l4.945-2.855
				c0.463-0.268,1.163-0.296,1.563-0.065l4.991,2.882c0.401,0.231,0.351,0.636-0.112,0.903l-4.945,2.854
				C198.029,233.874,197.329,233.903,196.928,233.672z"/>
			<path fill="#173D7A" d="M204.636,238.122l-4.991-2.882c-0.4-0.231-0.351-0.636,0.112-0.903l4.945-2.854
				c0.463-0.268,1.163-0.297,1.563-0.065l4.991,2.882c0.4,0.231,0.351,0.636-0.112,0.902l-4.945,2.855
				C205.736,238.324,205.037,238.353,204.636,238.122z"/>
			<path fill="#396CAA" d="M146.623,195.964l-4.991-2.882c-0.4-0.23-0.351-0.635,0.112-0.902l4.945-2.855
				c0.463-0.267,1.163-0.296,1.563-0.064l4.991,2.882c0.4,0.231,0.351,0.636-0.112,0.902l-4.945,2.855
				C147.724,196.166,147.023,196.195,146.623,195.964z"/>
			<path fill="#396CAA" d="M138.8,191.447l-4.991-2.881c-0.4-0.231-0.35-0.636,0.112-0.903l4.945-2.854
				c0.463-0.268,1.163-0.297,1.563-0.065l4.991,2.882c0.401,0.231,0.351,0.636-0.112,0.902l-4.945,2.855
				C139.9,191.65,139.201,191.679,138.8,191.447z"/>
			<path fill="#173D7A" d="M130.965,186.924l-10.75-6.206c-0.4-0.231-0.351-0.636,0.112-0.903l4.945-2.854
				c0.463-0.268,1.163-0.297,1.563-0.065l10.75,6.206c0.4,0.231,0.351,0.636-0.112,0.903l-4.945,2.855
				C132.065,187.126,131.365,187.155,130.965,186.924z"/>
			<path fill="#173D7A" d="M136.441,181.423l-8.724-5.037c-0.4-0.231-0.351-0.636,0.112-0.902l4.945-2.855
				c0.463-0.268,1.163-0.296,1.563-0.065l8.724,5.037c0.401,0.231,0.351,0.636-0.112,0.902l-4.945,2.855
				C137.542,181.624,136.842,181.653,136.441,181.423z"/>
			<path fill="#396CAA" d="M154.331,200.414l-4.991-2.882c-0.401-0.23-0.351-0.635,0.112-0.902l4.945-2.855
				c0.463-0.267,1.162-0.296,1.563-0.064l4.991,2.882c0.4,0.231,0.35,0.635-0.112,0.902l-4.945,2.855
				C155.432,200.616,154.731,200.646,154.331,200.414z"/>
			<path fill="#173D7A" d="M162.038,204.864l-4.991-2.882c-0.4-0.231-0.35-0.636,0.112-0.902l4.945-2.855
				c0.463-0.267,1.163-0.296,1.563-0.064l4.991,2.882c0.401,0.231,0.351,0.635-0.112,0.902l-4.945,2.855
				C163.14,205.066,162.439,205.096,162.038,204.864z"/>
			<path fill="#173D7A" d="M169.746,209.314l-4.991-2.882c-0.4-0.231-0.351-0.636,0.112-0.902l4.945-2.855
				c0.463-0.268,1.163-0.296,1.563-0.064l4.991,2.881c0.4,0.231,0.351,0.636-0.112,0.903l-4.945,2.855
				C170.847,209.517,170.146,209.546,169.746,209.314z"/>
			<path fill="#173D7A" d="M177.454,213.765l-4.991-2.882c-0.4-0.231-0.351-0.636,0.112-0.902l4.945-2.855
				c0.463-0.268,1.163-0.296,1.563-0.064l4.991,2.881c0.4,0.231,0.351,0.636-0.112,0.903l-4.945,2.854
				C178.555,213.967,177.854,213.996,177.454,213.765z"/>
			<path fill="#173D7A" d="M185.162,218.215l-4.991-2.882c-0.401-0.231-0.351-0.636,0.112-0.902l4.945-2.855
				c0.462-0.268,1.162-0.296,1.563-0.064l4.991,2.881c0.4,0.231,0.35,0.636-0.112,0.903l-4.945,2.854
				C186.263,218.417,185.563,218.446,185.162,218.215z"/>
			<path fill="#173D7A" d="M192.869,222.665l-4.991-2.882c-0.4-0.231-0.35-0.636,0.112-0.903l4.945-2.854
				c0.463-0.268,1.163-0.297,1.563-0.065l4.991,2.882c0.401,0.231,0.351,0.636-0.112,0.902l-4.945,2.855
				C193.97,222.867,193.271,222.896,192.869,222.665z"/>
			<path fill="#173D7A" d="M200.577,227.114l-4.991-2.881c-0.4-0.231-0.351-0.636,0.112-0.903l4.945-2.854
				c0.463-0.268,1.163-0.297,1.563-0.065l4.991,2.882c0.4,0.231,0.351,0.636-0.112,0.902l-4.945,2.855
				C201.678,227.317,200.978,227.346,200.577,227.114z"/>
			<path fill="#173D7A" d="M208.285,231.564l-4.991-2.882c-0.4-0.23-0.351-0.635,0.112-0.902l4.945-2.855
				c0.463-0.267,1.163-0.296,1.563-0.064l4.991,2.882c0.4,0.231,0.351,0.636-0.112,0.902l-4.945,2.855
				C209.386,231.767,208.686,231.796,208.285,231.564z"/>
			<path fill="#173D7A" d="M215.992,236.015l-4.99-2.881c-0.401-0.232-0.351-0.636,0.112-0.903l4.945-2.855
				c0.462-0.267,1.162-0.296,1.563-0.064l4.99,2.882c0.401,0.231,0.351,0.636-0.111,0.902l-4.945,2.855
				C217.094,236.217,216.394,236.246,215.992,236.015z"/>
			<path fill="#173D7A" d="M229.695,243.926l-10.89-6.287c-0.401-0.231-0.351-0.636,0.112-0.902l4.945-2.855
				c0.462-0.268,1.162-0.296,1.563-0.064l10.891,6.287c0.4,0.231,0.351,0.636-0.112,0.902l-4.945,2.855
				C230.796,244.128,230.096,244.157,229.695,243.926z"/>
			<path fill="#173D7A" d="M244.701,235.263l-9.191-5.308c-0.4-0.231-0.351-0.635,0.112-0.902l4.945-2.855
				c0.463-0.267,1.163-0.296,1.563-0.064l9.191,5.307c0.401,0.231,0.351,0.636-0.112,0.902l-4.945,2.855
				C245.802,235.465,245.103,235.494,244.701,235.263z"/>
			<path fill="#173D7A" d="M167.829,199.544l-4.991-2.882c-0.401-0.231-0.351-0.636,0.112-0.902l4.945-2.855
				c0.462-0.268,1.162-0.297,1.563-0.064l4.99,2.881c0.401,0.231,0.351,0.636-0.111,0.902l-4.945,2.855
				C168.93,199.746,168.229,199.774,167.829,199.544z"/>
			<path fill="#173D7A" d="M159.929,194.982l-4.991-2.882c-0.4-0.23-0.35-0.635,0.113-0.902l4.945-2.855
				c0.462-0.267,1.162-0.296,1.563-0.064l4.99,2.882c0.401,0.231,0.351,0.636-0.112,0.902l-4.945,2.855
				C161.029,195.185,160.33,195.214,159.929,194.982z"/>
			<path fill="#396CAA" d="M152.029,190.422l-4.991-2.882c-0.4-0.231-0.351-0.635,0.112-0.902l4.945-2.855
				c0.463-0.267,1.163-0.296,1.563-0.064l4.991,2.882c0.401,0.231,0.351,0.635-0.112,0.902l-4.945,2.855
				C153.131,190.624,152.431,190.653,152.029,190.422z"/>
			<path fill="#173D7A" d="M144.13,185.861l-4.991-2.882c-0.4-0.231-0.35-0.636,0.112-0.902l4.945-2.855
				c0.463-0.268,1.163-0.296,1.563-0.064l4.991,2.881c0.401,0.231,0.351,0.636-0.112,0.903l-4.945,2.854
				C145.23,186.063,144.531,186.093,144.13,185.861z"/>
			<path fill="#173D7A" d="M175.536,203.993l-4.991-2.881c-0.4-0.231-0.351-0.636,0.112-0.903l4.945-2.854
				c0.463-0.268,1.163-0.297,1.563-0.065l4.991,2.882c0.401,0.231,0.351,0.636-0.112,0.902l-4.945,2.855
				C176.637,204.196,175.938,204.225,175.536,203.993z"/>
			<path fill="#173D7A" d="M183.244,208.443l-4.991-2.881c-0.4-0.231-0.351-0.636,0.112-0.903l4.945-2.854
				c0.463-0.268,1.163-0.297,1.563-0.065l4.991,2.882c0.4,0.231,0.351,0.636-0.112,0.902l-4.945,2.855
				C184.345,208.646,183.645,208.675,183.244,208.443z"/>
			<path fill="#173D7A" d="M190.952,212.894l-4.991-2.882c-0.4-0.231-0.351-0.635,0.112-0.902l4.945-2.855
				c0.463-0.267,1.162-0.296,1.563-0.064l4.991,2.882c0.4,0.231,0.351,0.636-0.112,0.902l-4.945,2.855
				C192.053,213.096,191.353,213.125,190.952,212.894z"/>
			<path fill="#173D7A" d="M198.659,217.344l-4.99-2.882c-0.401-0.231-0.351-0.636,0.112-0.902l4.945-2.855
				c0.462-0.267,1.162-0.296,1.563-0.064l4.99,2.882c0.401,0.231,0.351,0.635-0.111,0.902l-4.946,2.855
				C199.761,217.546,199.061,217.575,198.659,217.344z"/>
			<path fill="#173D7A" d="M206.367,221.794l-4.991-2.882c-0.4-0.231-0.351-0.636,0.112-0.902l4.945-2.855
				c0.463-0.267,1.163-0.296,1.563-0.064l4.991,2.882c0.401,0.23,0.351,0.635-0.112,0.902l-4.945,2.855
				C207.468,221.996,206.768,222.025,206.367,221.794z"/>
			<path fill="#173D7A" d="M214.075,226.244l-4.991-2.882c-0.4-0.231-0.351-0.636,0.112-0.902l4.945-2.855
				c0.463-0.268,1.163-0.296,1.563-0.064l4.991,2.881c0.4,0.231,0.351,0.636-0.112,0.903l-4.945,2.855
				C215.176,226.446,214.476,226.476,214.075,226.244z"/>
			<path fill="#173D7A" d="M221.783,230.694l-4.991-2.882c-0.401-0.231-0.351-0.636,0.112-0.902l4.945-2.855
				c0.463-0.268,1.162-0.296,1.563-0.064l4.991,2.881c0.4,0.231,0.351,0.636-0.112,0.903l-4.945,2.854
				C222.884,230.896,222.184,230.926,221.783,230.694z"/>
			<path fill="#173D7A" d="M229.49,235.145l-4.99-2.882c-0.401-0.231-0.351-0.636,0.111-0.903l4.946-2.854
				c0.462-0.268,1.162-0.297,1.563-0.065l4.99,2.882c0.401,0.231,0.351,0.636-0.111,0.902l-4.946,2.855
				C230.592,235.347,229.892,235.375,229.49,235.145z"/>
			<path fill="#173D7A" d="M237.198,239.595l-4.991-2.882c-0.4-0.231-0.351-0.636,0.112-0.903l4.945-2.854
				c0.463-0.268,1.163-0.297,1.563-0.065l4.991,2.882c0.401,0.231,0.351,0.636-0.112,0.903l-4.945,2.854
				C238.299,239.797,237.6,239.825,237.198,239.595z"/>
			<path fill="#173D7A" d="M163.77,188.536l-4.99-2.881c-0.401-0.231-0.351-0.636,0.112-0.903l4.945-2.854
				c0.462-0.268,1.162-0.297,1.563-0.065l4.99,2.882c0.401,0.231,0.351,0.636-0.111,0.902l-4.945,2.855
				C164.871,188.739,164.171,188.768,163.77,188.536z"/>
			<path fill="#173D7A" d="M156.101,184.108l-4.991-2.882c-0.4-0.231-0.351-0.635,0.112-0.902l4.945-2.855
				c0.463-0.267,1.163-0.296,1.563-0.064l4.991,2.882c0.4,0.231,0.351,0.635-0.112,0.902l-4.945,2.855
				C157.201,184.311,156.501,184.34,156.101,184.108z"/>
			<path fill="#173D7A" d="M148.432,179.681l-4.991-2.882c-0.401-0.231-0.351-0.636,0.112-0.902l4.945-2.855
				c0.462-0.267,1.162-0.296,1.563-0.064l4.99,2.882c0.401,0.231,0.351,0.635-0.111,0.902l-4.946,2.855
				C149.532,179.883,148.832,179.912,148.432,179.681z"/>
			<path fill="#173D7A" d="M140.762,175.253l-4.991-2.882c-0.4-0.231-0.351-0.636,0.112-0.902l4.945-2.855
				c0.463-0.268,1.163-0.296,1.563-0.064l4.991,2.881c0.4,0.231,0.351,0.636-0.112,0.903l-4.945,2.854
				C141.862,175.455,141.162,175.484,140.762,175.253z"/>
			<path fill="#173D7A" d="M148.648,170.699l-4.991-2.882c-0.4-0.23-0.351-0.635,0.112-0.902l1.635-0.943
				c0.463-0.268,1.162-0.297,1.563-0.065l4.991,2.882c0.4,0.231,0.351,0.636-0.112,0.902l-1.635,0.944
				C149.749,170.901,149.049,170.931,148.648,170.699z"/>
			<path fill="#173D7A" d="M158.657,176.478l-4.991-2.881c-0.401-0.231-0.351-0.636,0.112-0.903l1.635-0.943
				c0.462-0.268,1.162-0.297,1.563-0.065l4.991,2.882c0.4,0.231,0.35,0.636-0.112,0.903l-1.635,0.943
				C159.758,176.681,159.058,176.709,158.657,176.478z"/>
			<path fill="#173D7A" d="M166.294,180.888l-4.991-2.882c-0.4-0.231-0.35-0.636,0.112-0.902l1.636-0.944
				c0.462-0.268,1.162-0.296,1.563-0.064l4.991,2.881c0.401,0.231,0.351,0.636-0.112,0.903l-1.635,0.943
				C167.395,181.09,166.695,181.119,166.294,180.888z"/>
			<path fill="#173D7A" d="M173.932,185.297l-4.991-2.882c-0.4-0.231-0.351-0.636,0.112-0.902l1.635-0.944
				c0.463-0.267,1.163-0.296,1.563-0.064l4.991,2.882c0.4,0.231,0.351,0.636-0.112,0.902l-1.635,0.944
				C175.032,185.499,174.332,185.528,173.932,185.297z"/>
			<path fill="#173D7A" d="M181.569,189.706l-4.991-2.881c-0.4-0.231-0.351-0.636,0.112-0.903l1.635-0.943
				c0.463-0.268,1.163-0.297,1.563-0.065l4.991,2.882c0.4,0.231,0.351,0.636-0.112,0.902l-1.635,0.944
				C182.67,189.908,181.97,189.938,181.569,189.706z"/>
			<path fill="#173D7A" d="M224.208,214.324l-4.991-2.882c-0.4-0.231-0.351-0.636,0.112-0.902l1.635-0.944
				c0.463-0.268,1.163-0.296,1.563-0.064l4.991,2.881c0.4,0.231,0.351,0.636-0.112,0.903l-1.635,0.943
				C225.309,214.526,224.608,214.556,224.208,214.324z"/>
			<path fill="#173D7A" d="M231.846,218.733l-4.991-2.882c-0.401-0.231-0.351-0.635,0.112-0.902l1.635-0.943
				c0.463-0.268,1.162-0.297,1.563-0.065l4.991,2.882c0.4,0.231,0.351,0.635-0.112,0.902l-1.635,0.944
				C232.946,218.936,232.246,218.965,231.846,218.733z"/>
			<path fill="#173D7A" d="M239.482,223.143l-4.99-2.881c-0.401-0.231-0.351-0.636,0.111-0.903l1.635-0.943
				c0.463-0.268,1.163-0.297,1.564-0.065l4.99,2.882c0.401,0.231,0.351,0.636-0.112,0.903l-1.635,0.943
				C240.584,223.346,239.884,223.374,239.482,223.143z"/>
			<path fill="#173D7A" d="M247.12,227.553l-4.991-2.882c-0.4-0.231-0.351-0.636,0.112-0.903l1.635-0.943
				c0.463-0.268,1.163-0.296,1.563-0.064l4.991,2.881c0.401,0.231,0.351,0.636-0.112,0.903l-1.635,0.943
				C248.221,227.755,247.521,227.783,247.12,227.553z"/>
			<path fill="#173D7A" d="M171.478,192.986l-4.991-2.882c-0.4-0.23-0.351-0.635,0.112-0.902l4.945-2.855
				c0.463-0.267,1.163-0.296,1.563-0.064l4.991,2.882c0.401,0.231,0.351,0.636-0.112,0.902l-4.945,2.855
				C172.578,193.188,171.879,193.218,171.478,192.986z"/>
			<path fill="#173D7A" d="M179.186,197.437l-4.991-2.882c-0.4-0.231-0.351-0.635,0.112-0.902l4.945-2.855
				c0.463-0.267,1.163-0.296,1.563-0.064l4.991,2.882c0.4,0.231,0.351,0.635-0.112,0.902l-4.945,2.855
				C180.286,197.639,179.586,197.668,179.186,197.437z"/>
			<path fill="#173D7A" d="M186.894,201.887l-4.991-2.882c-0.401-0.231-0.351-0.636,0.112-0.902l4.945-2.855
				c0.463-0.267,1.162-0.296,1.563-0.064l4.991,2.882c0.4,0.231,0.351,0.635-0.112,0.902l-4.945,2.855
				C187.994,202.089,187.294,202.118,186.894,201.887z"/>
			<path fill="#173D7A" d="M194.601,206.337l-4.99-2.882c-0.401-0.231-0.351-0.636,0.112-0.902l4.945-2.855
				c0.462-0.267,1.162-0.296,1.563-0.064l4.99,2.882c0.401,0.23,0.351,0.635-0.112,0.902l-4.945,2.854
				C195.702,206.539,195.002,206.568,194.601,206.337z"/>
			<path fill="#173D7A" d="M202.309,210.787l-4.991-2.882c-0.4-0.231-0.351-0.636,0.112-0.902l4.945-2.855
				c0.463-0.268,1.163-0.296,1.563-0.064l4.991,2.882c0.401,0.23,0.351,0.635-0.112,0.902l-4.945,2.854
				C203.409,210.989,202.71,211.019,202.309,210.787z"/>
			<path fill="#173D7A" d="M210.017,215.237l-4.991-2.882c-0.4-0.231-0.351-0.636,0.112-0.902l4.945-2.855
				c0.463-0.268,1.163-0.297,1.563-0.065l4.991,2.882c0.4,0.231,0.351,0.636-0.112,0.903l-4.945,2.855
				C211.117,215.439,210.417,215.469,210.017,215.237z"/>
			<path fill="#173D7A" d="M217.725,219.688l-4.991-2.882c-0.401-0.231-0.351-0.636,0.112-0.903l4.945-2.854
				c0.463-0.268,1.162-0.297,1.563-0.065l4.991,2.882c0.4,0.231,0.351,0.636-0.112,0.902l-4.945,2.855
				C218.825,219.89,218.125,219.918,217.725,219.688z"/>
			<path fill="#173D7A" d="M225.432,224.137l-4.99-2.881c-0.401-0.231-0.351-0.636,0.111-0.903l4.946-2.854
				c0.462-0.268,1.162-0.297,1.563-0.065l4.99,2.882c0.401,0.231,0.351,0.636-0.111,0.902l-4.946,2.855
				C226.533,224.34,225.833,224.368,225.432,224.137z"/>
			<path fill="#173D7A" d="M233.14,228.587l-4.991-2.882c-0.4-0.23-0.351-0.635,0.112-0.902l4.945-2.855
				c0.463-0.267,1.163-0.296,1.563-0.064l4.991,2.882c0.401,0.231,0.351,0.636-0.112,0.902l-4.945,2.855
				C234.24,228.79,233.541,228.818,233.14,228.587z"/>
			<path fill="#173D7A" d="M127.411,193.536l-14.699-8.486c-0.4-0.231-0.351-0.636,0.112-0.903l4.945-2.855
				c0.463-0.267,1.163-0.296,1.563-0.064l14.699,8.486c0.401,0.231,0.351,0.636-0.112,0.903l-4.945,2.855
				C128.512,193.738,127.813,193.768,127.411,193.536z"/>
			<path fill="#173D7A" d="M222.103,248.206l-14.699-8.486c-0.4-0.231-0.351-0.636,0.112-0.902l4.945-2.855
				c0.463-0.268,1.163-0.296,1.563-0.065l14.699,8.487c0.401,0.231,0.351,0.636-0.112,0.902l-4.945,2.855
				C223.203,248.408,222.504,248.438,222.103,248.206z"/>
			<path fill="#173D7A" d="M191.278,240.239l-4.991-2.882c-0.4-0.23-0.351-0.635,0.112-0.902l5.892-3.401
				c0.463-0.267,1.163-0.296,1.563-0.064l4.991,2.882c0.4,0.231,0.351,0.635-0.112,0.902l-5.892,3.401
				C192.379,240.441,191.68,240.471,191.278,240.239z"/>
			<path fill="#173D7A" d="M135.305,207.923l-7.982-4.608c-0.4-0.231-0.351-0.636,0.112-0.902l5.892-3.401
				c0.463-0.268,1.162-0.297,1.563-0.065l7.981,4.609c0.401,0.23,0.351,0.635-0.111,0.902l-5.892,3.401
				C136.405,208.125,135.705,208.154,135.305,207.923z"/>
			<path fill="#173D7A" d="M183.852,235.952l-7.981-4.609c-0.401-0.23-0.351-0.635,0.112-0.902l5.891-3.401
				c0.463-0.267,1.163-0.296,1.563-0.064l7.982,4.608c0.4,0.231,0.351,0.636-0.112,0.902l-5.892,3.401
				C184.953,236.154,184.253,236.184,183.852,235.952z"/>
			<path fill="#173D7A" d="M146.426,214.344l-7.982-4.608c-0.401-0.231-0.351-0.636,0.112-0.903l5.891-3.401
				c0.463-0.267,1.163-0.296,1.563-0.064l7.982,4.608c0.4,0.231,0.351,0.636-0.112,0.902l-5.892,3.401
				C147.526,214.546,146.826,214.575,146.426,214.344z"/>
			<path fill="#173D7A" d="M146.064,205.397l34.704,20.036c0.431,0.249,0.431,0.652,0,0.9l-6.008,3.469
				c-0.431,0.248-1.129,0.248-1.56,0l-34.704-20.036L146.064,205.397z"/>
			<path fill="#173D7A" d="M212.82,248.308l5.56,3.21c0.329,0.189,0.287,0.521-0.092,0.74l-2.41,1.392
				c-0.379,0.219-0.953,0.242-1.281,0.053l-5.56-3.21c-0.328-0.189-0.287-0.521,0.092-0.739l2.41-1.392
				C211.918,248.143,212.492,248.118,212.82,248.308z"/>
			<path fill="#173D7A" d="M205.049,243.821l5.56,3.21c0.328,0.189,0.287,0.521-0.092,0.739l-2.41,1.392
				c-0.379,0.219-0.953,0.243-1.281,0.054l-5.56-3.211c-0.329-0.189-0.288-0.521,0.092-0.739l2.41-1.392
				C204.146,243.655,204.721,243.632,205.049,243.821z"/>
			<path fill="#173D7A" d="M197.341,239.371l5.56,3.21c0.329,0.189,0.287,0.521-0.092,0.739l-2.41,1.392
				c-0.379,0.219-0.953,0.243-1.281,0.054l-5.56-3.21c-0.328-0.19-0.287-0.521,0.092-0.74l2.41-1.392
				C196.438,239.205,197.013,239.182,197.341,239.371z"/>
			<path fill="#173D7A" d="M209.305,241.363l5.561,3.21c0.328,0.189,0.287,0.521-0.093,0.74l-2.409,1.392
				c-0.38,0.219-0.953,0.242-1.282,0.053l-5.56-3.21c-0.328-0.189-0.287-0.521,0.092-0.74l2.41-1.391
				C208.403,241.197,208.977,241.174,209.305,241.363z"/>
		</g>
	</g>
	<g>
		<g>
			<path fill="#D4ECFF" d="M217.58,131.786l-4.774-2.757c-0.442-0.255-0.81-0.944-0.819-1.539l0,0
				c-0.01-0.595,0.342-0.87,0.785-0.614l4.773,2.756c0.442,0.256,0.81,0.945,0.819,1.54l0,0
				C218.374,131.767,218.022,132.041,217.58,131.786z"/>
			<path fill="#D4ECFF" d="M228.95,138.351l-7.038-4.063c-0.443-0.256-0.811-0.945-0.82-1.54l0,0
				c-0.009-0.595,0.342-0.869,0.785-0.614l7.039,4.064c0.442,0.256,0.81,0.945,0.819,1.54l0,0
				C229.744,138.332,229.394,138.606,228.95,138.351z"/>
			<path fill="#D4ECFF" d="M215.215,157.242l-4.774-2.757c-0.442-0.256-0.81-0.944-0.819-1.539l0,0
				c-0.01-0.595,0.342-0.87,0.785-0.614l4.773,2.756c0.442,0.256,0.81,0.945,0.819,1.54l0,0
				C216.009,157.223,215.657,157.497,215.215,157.242z"/>
			<path fill="#D4ECFF" d="M225.351,163.094l-7.039-4.063c-0.442-0.256-0.81-0.945-0.819-1.54l0,0
				c-0.01-0.595,0.342-0.869,0.785-0.614l7.038,4.064c0.443,0.256,0.81,0.945,0.819,1.54l0,0
				C226.145,163.075,225.794,163.35,225.351,163.094z"/>
			<path fill="#D4ECFF" d="M204.49,128.699l-2.982-1.722c-0.442-0.256-0.81-0.945-0.819-1.54l0,0
				c-0.009-0.595,0.342-0.87,0.785-0.614l2.981,1.722c0.443,0.256,0.81,0.945,0.819,1.54l0,0
				C205.284,128.68,204.934,128.954,204.49,128.699z"/>
			<path fill="#D4ECFF" d="M214.674,139.049l-9.111-5.261c-0.443-0.256-0.81-0.945-0.819-1.54l0,0
				c-0.01-0.595,0.341-0.869,0.784-0.613l9.111,5.26c0.443,0.256,0.81,0.945,0.819,1.54l0,0
				C215.468,139.029,215.116,139.305,214.674,139.049z"/>
			<path fill="#D4ECFF" d="M208.69,144.535l-2.981-1.723c-0.443-0.255-0.811-0.944-0.819-1.539l0,0
				c-0.01-0.595,0.341-0.87,0.784-0.614l2.982,1.722c0.442,0.256,0.81,0.945,0.818,1.54l0,0
				C209.484,144.516,209.134,144.79,208.69,144.535z"/>
			<path fill="#D4ECFF" d="M228.87,174.066l-7.965-4.599c-0.442-0.256-0.81-0.944-0.819-1.539l0,0
				c-0.01-0.596,0.342-0.87,0.784-0.614l7.965,4.599c0.443,0.256,0.81,0.945,0.819,1.54l0,0
				C229.664,174.048,229.313,174.322,228.87,174.066z"/>
			<path fill="#D4ECFF" d="M207.769,152.943l-1.914-1.105c-0.442-0.256-0.81-0.945-0.819-1.539l0,0
				c-0.01-0.596,0.342-0.87,0.785-0.614l1.914,1.104c0.442,0.256,0.81,0.945,0.819,1.54l0,0
				C208.563,152.924,208.212,153.199,207.769,152.943z"/>
			<path fill="#D4ECFF" d="M208.378,162.235l-2.377-1.372c-0.442-0.256-0.81-0.945-0.819-1.54l0,0
				c-0.01-0.595,0.342-0.87,0.784-0.614l2.378,1.373c0.442,0.256,0.81,0.945,0.819,1.539l0,0
				C209.172,162.216,208.821,162.491,208.378,162.235z"/>
			<path fill="#D4ECFF" d="M217.626,167.574l-6.268-3.618c-0.442-0.256-0.81-0.945-0.819-1.54l0,0
				c-0.01-0.595,0.342-0.869,0.785-0.613l6.267,3.618c0.443,0.256,0.81,0.945,0.819,1.54l0,0
				C218.42,167.556,218.068,167.83,217.626,167.574z"/>
			<path fill="#D4ECFF" d="M210.58,167.978l-4.506-2.603c-0.442-0.255-0.81-0.944-0.819-1.539l0,0
				c-0.01-0.595,0.342-0.87,0.784-0.614l4.506,2.602c0.443,0.256,0.811,0.945,0.82,1.54l0,0
				C211.374,167.958,211.023,168.232,210.58,167.978z"/>
			<path fill="#D4ECFF" d="M235.709,178.034l-2.895-1.671c-0.442-0.256-0.81-0.945-0.819-1.54l0,0
				c-0.01-0.595,0.342-0.869,0.784-0.613l2.895,1.671c0.442,0.256,0.81,0.944,0.819,1.539l0,0
				C236.503,178.015,236.151,178.29,235.709,178.034z"/>
			<path fill="#D4ECFF" d="M219.783,150.939l-7.965-4.599c-0.442-0.256-0.81-0.945-0.819-1.54l0,0
				c-0.01-0.595,0.342-0.869,0.784-0.614l7.965,4.599c0.443,0.256,0.811,0.945,0.819,1.54l0,0
				C220.577,150.92,220.227,151.195,219.783,150.939z"/>
			<path fill="#D4ECFF" d="M219.518,146.315l-13.882-8.015c-0.443-0.256-0.81-0.945-0.819-1.54l0,0
				c-0.01-0.595,0.342-0.87,0.784-0.614l13.882,8.016c0.442,0.255,0.81,0.944,0.819,1.539l0,0
				C220.312,146.296,219.96,146.571,219.518,146.315z"/>
			<path fill="#D4ECFF" d="M213.747,151.924l-7.966-4.599c-0.442-0.256-0.81-0.945-0.819-1.539l0,0
				c-0.009-0.595,0.342-0.87,0.785-0.614l7.965,4.599c0.442,0.256,0.81,0.945,0.819,1.54l0,0
				C214.541,151.905,214.189,152.18,213.747,151.924z"/>
			<path fill="#D4ECFF" d="M225.824,154.427l-2.894-1.671c-0.443-0.255-0.81-0.944-0.819-1.539l0,0
				c-0.01-0.595,0.342-0.87,0.784-0.614l2.894,1.671c0.443,0.256,0.811,0.945,0.82,1.54l0,0
				C226.618,154.408,226.268,154.683,225.824,154.427z"/>
			<path fill="#D4ECFF" d="M250.42,150.746l-17.138-9.894c-0.442-0.256-0.81-0.945-0.819-1.54l0,0
				c-0.01-0.595,0.342-0.87,0.785-0.614l17.137,9.895c0.443,0.256,0.81,0.945,0.819,1.54l0,0
				C251.214,150.728,250.862,151.002,250.42,150.746z"/>
			<path fill="#D4ECFF" d="M215.502,161.878l-9.574-5.527c-0.442-0.256-0.81-0.945-0.819-1.54l0,0
				c-0.01-0.595,0.342-0.869,0.784-0.614l9.575,5.528c0.442,0.256,0.81,0.945,0.819,1.54l0,0
				C216.297,161.859,215.945,162.134,215.502,161.878z"/>
			<path fill="#D4ECFF" d="M208.474,126.528l-7.038-4.063c-0.443-0.256-0.811-0.945-0.82-1.54l0,0
				c-0.009-0.595,0.342-0.869,0.785-0.614l7.039,4.064c0.442,0.256,0.81,0.945,0.819,1.54l0,0
				C209.268,126.51,208.917,126.784,208.474,126.528z"/>
			<path fill="#D4ECFF" d="M210.318,172.296l-8.152-4.706c-0.442-0.256-0.81-0.945-0.819-1.54l0,0
				c-0.009-0.595,0.342-0.87,0.785-0.614l8.152,4.707c0.442,0.256,0.81,0.945,0.819,1.54l0,0
				C211.113,172.277,210.762,172.552,210.318,172.296z"/>
		</g>
	</g>
</g>
<g>
	<g>
		<path fill="#D4ECFF" d="M1.878,179.384l41.99-24.448c8.318-4.804,16.163-5.563,22.09-2.144c5.924,3.421,9.188,10.596,9.188,20.2
			v3.076c-0.297,0.201-0.607,0.397-0.926,0.592v-3.668c0-9.26-3.099-16.148-8.726-19.397c-5.628-3.248-13.144-2.488-21.164,2.142
			l-41.99,24.449c-0.219,0.13-0.504,0.053-0.632-0.169C1.581,179.795,1.657,179.512,1.878,179.384z"/>
		<path fill="#D4ECFF" d="M132.826,150.26V55.633c0-18.941,13.346-42.057,29.75-51.526c8.033-4.639,15.611-5.374,21.337-2.069
			c5.724,3.305,8.876,10.233,8.876,19.511v6.599c-0.309,0.309-0.617,0.617-0.926,0.926v-7.524c0-8.932-2.988-15.576-8.414-18.708
			c-5.426-3.131-12.674-2.398-20.41,2.067c-16.148,9.323-29.286,32.078-29.286,50.726v94.627c0,15.699-9.238,34.28-21.766,45.462
			c0-0.414,0-0.828,0-1.242C124.02,183.423,132.826,165.467,132.826,150.26z"/>
		<path fill="#173D7A" d="M192.789,31.042L192.789,31.042c1.521-1.444,8.61-7.698,18.956-9.28
			c11.718-1.791,16.56,11.911,16.56,11.911s1.355,7.117,1.307,11.329c-0.048,4.213-0.35,19.511-0.35,19.511l-37.144-21.396V43.11
			c-0.149-0.077-0.255-0.228-0.255-0.408V31.843C192.172,31.534,192.48,31.351,192.789,31.042z"/>
	</g>
	<g>
		<g>
			<path fill="#D4ECFF" d="M219.119,22.333L183.912,2.037l0.138,0.506c-5.426-3.505-13.626-3.883-24.596,4.161
				c-21.788,15.978-24.405,38.222-25.516,42.39c-1.111,4.168-0.654,30.576-0.654,30.576s-0.072,63.693-0.145,71.101
				c-0.073,7.408-2.229,15.72-6.392,24.693s-14.852,19.863-14.852,19.863v12.964c1.706,14.017,7.661,17.285,16.522,18.084
				c7.15,0.645,14.77-4.518,20.857-10.146c-0.225,0.234-0.369,0.383-0.369,0.383v12.964c1.707,14.018,7.662,17.285,16.522,18.084
				s18.443-7.316,24.936-14.187c6.492-6.869,11.968-17.359,15.01-26.823c3.041-9.464,2.033-21.691,2.033-21.691
				s0.072-69.624,0.146-83.351c0.072-13.727,0.508-11.33,5.011-25.129s16.439-23.458,16.439-23.458l28.641-8.53L219.119,22.333z"/>
			<path fill="#173D7A" d="M157.83,246.495c-0.482-0.657-6.756-4.862-8.354-12.271c-0.889-4.121-0.799-10.386-0.799-10.386
				s0.025-3.484,0.109-6.651c0.07-0.062,0.143-0.118,0.212-0.181c0-0.413,0-0.828,0-1.242c-0.058,0.053-0.117,0.101-0.174,0.152
				c0.023-0.715,0.051-1.387,0.082-1.955c0.182-3.293-2.251-10.313-2.251-10.313s-3.45-9.404-13.727-9.769
				c-9.124-0.321-18.729,6.242-20.771,7.721v-4.247c-0.136,0.092-0.281,0.181-0.422,0.271c0.011-0.569,0.024-1.15,0.039-1.722
				c0.07-0.062,0.143-0.118,0.212-0.181c0-0.414,0-0.828,0-1.242c-0.057,0.053-0.116,0.101-0.174,0.152
				c0.024-0.715,0.051-1.386,0.083-1.955c0.181-3.293-2.252-10.313-2.252-10.313s-3.45-9.405-13.727-9.768
				c-9.124-0.323-18.729,6.241-20.771,7.72v-4.247c-0.297,0.201-0.607,0.397-0.926,0.592v7.436c0,9.008,3.001,15.777,8.451,19.141
				l0.022,0.024l0.19,0.109c0.051,0.031,0.099,0.066,0.15,0.096c0.032,0.02,0.068,0.031,0.102,0.05l37.682,21.694
				c-0.009-0.013-0.034-0.035-0.048-0.051L157.83,246.495z"/>
			<g>
				<path fill="#D4ECFF" d="M102.97,174.077c0,0-0.282-0.146-0.779-0.348c-0.153-0.073-0.301-0.16-0.456-0.229l-35.775-20.708
					c0,0-6.574-3.455-14.524-0.545c-7.951,2.911-49.609,27.902-49.609,27.902l37.217,21.441l0.006-0.004
					c0.031,0.017,0.066,0.018,0.1,0.027l36.905,21.262c0,0,20.88-12.935,35.325-21.28l0.926-0.534
					c5.906-3.396,10.596-5.932,12.067-6.321c8.906-2.36,15.103,0.516,16.716,1.4L102.97,174.077z"/>
				<path fill="#D4ECFF" d="M141.088,196.141l0.431,0.25C141.519,196.391,141.361,196.291,141.088,196.141z"/>
			</g>
		</g>
		<path fill="#173D7A" d="M229.801,52.327L229.801,52.327c1.521-1.443,8.61-7.698,18.956-9.28
			c11.718-1.791,16.56,11.911,16.56,11.911s1.355,7.117,1.307,11.33c-0.049,4.212-0.351,19.51-0.351,19.51L229.13,64.401v-0.006
			c-0.149-0.076-0.255-0.229-0.255-0.407v-10.86C229.184,52.819,229.492,52.636,229.801,52.327z"/>
		<g>
			<path fill="#396CAA" d="M165.068,248.179c4.096,0,8.629-1.367,13.319-4.076c16.285-9.401,29.534-32.351,29.534-51.153V98.322
				c0-18.646,13.138-41.402,29.287-50.727c7.736-4.464,14.983-5.199,20.41-2.067c5.425,3.133,8.414,9.777,8.414,18.709v21.155
				c0,0.255,0.207,0.463,0.463,0.463s0.463-0.208,0.463-0.463V64.237c0-9.276-3.152-16.206-8.877-19.51
				c-5.726-3.307-13.303-2.57-21.336,2.067c-16.404,9.471-29.75,32.586-29.75,51.527v94.627c0,18.509-13.041,41.097-29.071,50.353
				c-7.677,4.432-14.871,5.162-20.258,2.052c-5.385-3.108-8.351-9.704-8.351-18.568v-11.104c0-9.604-3.264-16.778-9.189-20.2
				c-5.925-3.419-13.77-2.66-22.089,2.144l-41.989,24.449c-0.222,0.127-0.298,0.41-0.169,0.632c0.127,0.223,0.414,0.295,0.632,0.169
				l41.989-24.448c8.02-4.63,15.536-5.392,21.163-2.143s8.726,10.139,8.726,19.397v11.104c0,9.21,3.131,16.089,8.814,19.37
				C159.546,247.507,162.2,248.179,165.068,248.179z"/>
		</g>
	</g>
	<path fill="#5793CE" d="M167.967,121.515l-6.207-3.584c-0.576-0.333-1.054-1.229-1.066-2.002l0,0
		c-0.012-0.773,0.444-1.131,1.021-0.799l6.208,3.584c0.575,0.332,1.053,1.229,1.064,2.002l0,0
		C168.999,121.489,168.543,121.847,167.967,121.515z"/>
	<path fill="#5793CE" d="M181.147,129.124l-9.153-5.284c-0.575-0.332-1.053-1.229-1.065-2.002l0,0
		c-0.013-0.773,0.444-1.131,1.021-0.799l9.153,5.285c0.575,0.332,1.053,1.229,1.065,2.002l0,0
		C182.18,129.1,181.724,129.457,181.147,129.124z"/>
	<path fill="#5793CE" d="M167.264,97.856l-11.848-6.84c-0.576-0.333-1.054-1.229-1.066-2.003l0,0
		c-0.012-0.773,0.444-1.131,1.021-0.798l11.848,6.841c0.576,0.332,1.054,1.229,1.065,2.002l0,0
		C168.296,97.832,167.84,98.189,167.264,97.856z"/>
	<path fill="#5793CE" d="M159.483,104.991l-3.878-2.239c-0.575-0.333-1.053-1.229-1.065-2.003l0,0
		c-0.013-0.772,0.444-1.13,1.021-0.798l3.878,2.239c0.575,0.332,1.053,1.229,1.065,2.002l0,0
		C160.517,104.966,160.06,105.323,159.483,104.991z"/>
	<path fill="#5793CE" d="M158.285,115.925l-2.489-1.438c-0.576-0.332-1.053-1.229-1.065-2.002l0,0
		c-0.013-0.773,0.444-1.131,1.021-0.799l2.488,1.438c0.576,0.333,1.054,1.229,1.065,2.002l0,0
		C159.317,115.899,158.861,116.257,158.285,115.925z"/>
	<path fill="#5793CE" d="M173.908,113.319l-10.357-5.98c-0.576-0.332-1.053-1.229-1.065-2.002l0,0
		c-0.013-0.773,0.444-1.131,1.021-0.799l10.356,5.98c0.576,0.332,1.054,1.229,1.065,2.002l0,0
		C174.94,113.294,174.484,113.651,173.908,113.319z"/>
	<path fill="#5793CE" d="M173.563,107.306l-18.052-10.422c-0.576-0.332-1.053-1.229-1.065-2.002l0,0
		c-0.013-0.773,0.444-1.131,1.02-0.799l18.052,10.423c0.576,0.332,1.053,1.229,1.065,2.002l0,0
		C174.595,107.281,174.138,107.639,173.563,107.306z"/>
	<path fill="#5793CE" d="M166.058,114.6l-10.356-5.979c-0.576-0.333-1.053-1.229-1.065-2.003l0,0
		c-0.013-0.773,0.444-1.131,1.02-0.798l10.357,5.979c0.576,0.333,1.053,1.229,1.065,2.002l0,0
		C167.091,114.574,166.634,114.932,166.058,114.6z"/>
	<path fill="#5793CE" d="M181.764,117.854L178,115.682c-0.575-0.332-1.053-1.229-1.065-2.002l0,0
		c-0.012-0.773,0.444-1.131,1.021-0.799l3.763,2.173c0.576,0.333,1.054,1.229,1.065,2.002l0,0
		C182.796,117.829,182.34,118.187,181.764,117.854z"/>
	<g>
		<path fill="#5793CE" d="M171.042,88.412l-6.207-3.583c-0.576-0.333-1.053-1.229-1.065-2.003l0,0
			c-0.013-0.773,0.444-1.131,1.02-0.798l6.208,3.584c0.576,0.332,1.053,1.229,1.065,2.002l0,0
			C172.075,88.388,171.618,88.745,171.042,88.412z"/>
		<path fill="#5793CE" d="M185.829,96.949l-9.153-5.284c-0.576-0.333-1.053-1.229-1.065-2.003l0,0
			c-0.013-0.772,0.444-1.13,1.02-0.798l9.153,5.285c0.576,0.332,1.053,1.229,1.065,2.002l0,0
			C186.861,96.925,186.404,97.282,185.829,96.949z"/>
		<path fill="#5793CE" d="M167.967,121.515l-6.207-3.584c-0.576-0.333-1.054-1.229-1.066-2.002l0,0
			c-0.012-0.773,0.444-1.131,1.021-0.799l6.208,3.584c0.575,0.332,1.053,1.229,1.064,2.002l0,0
			C168.999,121.489,168.543,121.847,167.967,121.515z"/>
		<path fill="#5793CE" d="M181.147,129.124l-9.153-5.284c-0.575-0.332-1.053-1.229-1.065-2.002l0,0
			c-0.013-0.773,0.444-1.131,1.021-0.799l9.153,5.285c0.575,0.332,1.053,1.229,1.065,2.002l0,0
			C182.18,129.1,181.724,129.457,181.147,129.124z"/>
		<path fill="#5793CE" d="M154.021,84.398l-3.878-2.239c-0.575-0.332-1.053-1.229-1.065-2.002l0,0
			c-0.013-0.773,0.444-1.131,1.021-0.798l3.878,2.238c0.575,0.333,1.053,1.229,1.065,2.003l0,0
			C155.055,84.373,154.598,84.73,154.021,84.398z"/>
		<path fill="#5793CE" d="M167.264,97.856l-11.848-6.84c-0.576-0.333-1.054-1.229-1.066-2.003l0,0
			c-0.012-0.773,0.444-1.131,1.021-0.798l11.848,6.841c0.576,0.332,1.054,1.229,1.065,2.002l0,0
			C168.296,97.832,167.84,98.189,167.264,97.856z"/>
		<path fill="#5793CE" d="M159.483,104.991l-3.878-2.239c-0.575-0.333-1.053-1.229-1.065-2.003l0,0
			c-0.013-0.772,0.444-1.13,1.021-0.798l3.878,2.239c0.575,0.332,1.053,1.229,1.065,2.002l0,0
			C160.517,104.966,160.06,105.323,159.483,104.991z"/>
		<path fill="#5793CE" d="M185.724,143.393l-10.356-5.979c-0.576-0.333-1.053-1.229-1.065-2.003l0,0
			c-0.013-0.772,0.444-1.13,1.02-0.798l10.357,5.98c0.576,0.332,1.053,1.229,1.065,2.002l0,0
			C186.757,143.368,186.3,143.726,185.724,143.393z"/>
		<path fill="#5793CE" d="M158.285,115.925l-2.489-1.438c-0.576-0.332-1.053-1.229-1.065-2.002l0,0
			c-0.013-0.773,0.444-1.131,1.021-0.799l2.488,1.438c0.576,0.333,1.054,1.229,1.065,2.002l0,0
			C159.317,115.899,158.861,116.257,158.285,115.925z"/>
		<path fill="#5793CE" d="M159.077,128.008l-3.091-1.784c-0.576-0.333-1.053-1.229-1.065-2.003l0,0
			c-0.013-0.773,0.444-1.13,1.02-0.798l3.092,1.784c0.575,0.333,1.053,1.229,1.065,2.003l0,0
			C160.11,127.983,159.653,128.341,159.077,128.008z"/>
		<path fill="#5793CE" d="M171.103,134.951l-8.149-4.706c-0.576-0.332-1.053-1.229-1.065-2.002l0,0
			c-0.013-0.773,0.444-1.131,1.02-0.798l8.149,4.705c0.576,0.332,1.054,1.229,1.066,2.002l0,0
			C172.135,134.926,171.679,135.283,171.103,134.951z"/>
		<path fill="#5793CE" d="M161.94,135.475l-5.859-3.384c-0.575-0.332-1.053-1.229-1.065-2.002l0,0
			c-0.013-0.773,0.444-1.131,1.021-0.799l5.859,3.384c0.576,0.332,1.053,1.229,1.065,2.002l0,0
			C162.974,135.449,162.517,135.807,161.94,135.475z"/>
		<path fill="#5793CE" d="M173.908,113.319l-10.357-5.98c-0.576-0.332-1.053-1.229-1.065-2.002l0,0
			c-0.013-0.773,0.444-1.131,1.021-0.799l10.356,5.98c0.576,0.332,1.054,1.229,1.065,2.002l0,0
			C174.94,113.294,174.484,113.651,173.908,113.319z"/>
		<path fill="#5793CE" d="M173.563,107.306l-18.052-10.422c-0.576-0.332-1.053-1.229-1.065-2.002l0,0
			c-0.013-0.773,0.444-1.131,1.02-0.799l18.052,10.423c0.576,0.332,1.053,1.229,1.065,2.002l0,0
			C174.595,107.281,174.138,107.639,173.563,107.306z"/>
		<path fill="#5793CE" d="M166.058,114.6l-10.356-5.979c-0.576-0.333-1.053-1.229-1.065-2.003l0,0
			c-0.013-0.773,0.444-1.131,1.02-0.798l10.357,5.979c0.576,0.333,1.053,1.229,1.065,2.002l0,0
			C167.091,114.574,166.634,114.932,166.058,114.6z"/>
		<path fill="#5793CE" d="M181.764,117.854L178,115.682c-0.575-0.332-1.053-1.229-1.065-2.002l0,0
			c-0.012-0.773,0.444-1.131,1.021-0.799l3.763,2.173c0.576,0.333,1.054,1.229,1.065,2.002l0,0
			C182.796,117.829,182.34,118.187,181.764,117.854z"/>
		<path fill="#5793CE" d="M168.341,127.544l-12.45-7.188c-0.575-0.333-1.053-1.229-1.065-2.002l0,0
			c-0.012-0.773,0.444-1.131,1.021-0.799l12.45,7.188c0.576,0.332,1.053,1.229,1.065,2.002l0,0
			C169.374,127.519,168.917,127.876,168.341,127.544z"/>
		<path fill="#5793CE" d="M159.202,81.576l-9.153-5.284c-0.576-0.333-1.053-1.229-1.065-2.003l0,0
			c-0.013-0.773,0.444-1.131,1.02-0.798l9.153,5.284c0.576,0.333,1.053,1.229,1.065,2.003l0,0
			C160.234,81.552,159.777,81.909,159.202,81.576z"/>
		<path fill="#5793CE" d="M161.601,141.091L151,134.97c-0.576-0.332-1.053-1.229-1.065-2.002l0,0
			c-0.013-0.773,0.443-1.131,1.02-0.798l10.602,6.12c0.575,0.332,1.053,1.229,1.065,2.002l0,0
			C162.633,141.065,162.177,141.423,161.601,141.091z"/>
	</g>
	<path fill="#5793CE" d="M166.508,177.199l-6.208-3.584c-0.575-0.333-1.053-1.229-1.065-2.003l0,0
		c-0.012-0.773,0.444-1.131,1.021-0.798l6.207,3.584c0.576,0.332,1.053,1.229,1.065,2.002l0,0
		C167.54,177.174,167.084,177.531,166.508,177.199z"/>
	<path fill="#5793CE" d="M179.688,184.809l-9.153-5.284c-0.576-0.333-1.053-1.229-1.065-2.003l0,0
		c-0.013-0.772,0.444-1.13,1.021-0.798l9.152,5.284c0.576,0.333,1.053,1.229,1.065,2.003l0,0
		C180.721,184.784,180.265,185.142,179.688,184.809z"/>
	<path fill="#5793CE" d="M165.805,153.541l-11.849-6.841c-0.575-0.332-1.053-1.229-1.065-2.002l0,0
		c-0.013-0.773,0.444-1.131,1.021-0.798l11.848,6.84c0.576,0.333,1.054,1.229,1.065,2.003l0,0
		C166.837,153.517,166.38,153.874,165.805,153.541z"/>
	<path fill="#5793CE" d="M158.024,160.676l-3.878-2.239c-0.576-0.333-1.053-1.229-1.065-2.003l0,0
		c-0.013-0.773,0.444-1.13,1.021-0.798l3.877,2.239c0.576,0.332,1.054,1.229,1.066,2.002l0,0
		C159.057,160.65,158.601,161.008,158.024,160.676z"/>
	<path fill="#5793CE" d="M156.826,171.609l-2.489-1.438c-0.576-0.332-1.053-1.229-1.065-2.002l0,0
		c-0.013-0.773,0.444-1.131,1.02-0.799l2.489,1.438c0.576,0.332,1.053,1.229,1.065,2.002l0,0
		C157.858,171.584,157.401,171.941,156.826,171.609z"/>
	<path fill="#5793CE" d="M172.449,169.003l-10.357-5.979c-0.576-0.332-1.053-1.229-1.065-2.002l0,0
		c-0.013-0.773,0.444-1.131,1.02-0.799l10.357,5.98c0.576,0.332,1.053,1.229,1.065,2.002l0,0
		C173.481,168.979,173.024,169.336,172.449,169.003z"/>
	<path fill="#5793CE" d="M172.103,162.99l-18.051-10.422c-0.576-0.332-1.053-1.229-1.065-2.002l0,0
		c-0.013-0.773,0.444-1.131,1.02-0.799l18.052,10.423c0.575,0.332,1.053,1.229,1.065,2.002l0,0
		C173.136,162.966,172.679,163.323,172.103,162.99z"/>
	<path fill="#5793CE" d="M164.599,170.284l-10.356-5.98c-0.576-0.332-1.054-1.229-1.065-2.002l0,0
		c-0.013-0.773,0.443-1.131,1.02-0.798l10.357,5.979c0.575,0.332,1.053,1.229,1.065,2.002l0,0
		C165.632,170.259,165.175,170.616,164.599,170.284z"/>
	<path fill="#5793CE" d="M180.305,173.539l-3.764-2.173c-0.575-0.333-1.053-1.229-1.065-2.003l0,0
		c-0.013-0.772,0.444-1.13,1.021-0.798l3.763,2.173c0.576,0.332,1.053,1.229,1.065,2.002l0,0
		C181.337,173.514,180.88,173.871,180.305,173.539z"/>
</g>
<g>
	<polygon fill="#D4ECFF" points="211.886,306.813 223.383,300.175 234.88,306.813 223.383,313.45 	"/>
	<polygon fill="#D4ECFF" points="236.29,292.534 247.787,285.896 259.283,292.534 247.787,299.172 	"/>
	<polygon fill="#D4ECFF" points="260.62,278.597 272.116,271.959 283.613,278.597 272.116,285.234 	"/>
	<g>
		<g>
			<g>
				<polygon fill="#C13D1A" points="247.787,292.534 247.787,257.134 236.29,250.496 236.29,285.896 				"/>
				<polygon fill="#D3008D" points="247.787,257.134 259.283,250.496 259.283,285.896 247.787,292.534 				"/>
				<polygon fill="#D3008D" points="247.787,292.534 247.787,257.134 236.29,250.496 236.29,285.896 				"/>
			</g>
			<g>
				<polygon fill="#D3008D" points="223.383,306.813 223.383,286.899 211.886,280.262 211.886,300.175 				"/>
				<polygon fill="#D3008D" points="223.383,286.899 234.88,280.262 234.88,300.175 223.383,306.813 				"/>
				<polygon fill="#FF2C9C" points="211.886,280.262 223.383,273.624 234.88,280.262 223.383,286.899 				"/>
			</g>
			<g>
				<polygon fill="#D3008D" points="272.116,278.597 272.116,229.921 260.62,223.283 260.62,271.959 				"/>
				<polygon fill="#D3008D" points="272.116,229.921 283.613,223.283 283.613,271.959 272.116,278.597 				"/>
				<polygon fill="#FF2C9C" points="260.62,223.283 272.116,216.646 283.613,223.283 272.116,229.921 				"/>
			</g>
		</g>
		<polygon fill="#FF2C9C" points="236.29,250.496 247.787,243.858 259.283,250.496 247.787,257.134 		"/>
	</g>
</g>
<g>
	<g>
		<g>
			<path fill="#5793CE" d="M48.325,240.4c0,0-3.549-1.79-5.728,0.875c-2.18,2.665-5.295,8.956-5.392,13.206
				c-0.096,4.251,3.364,3.964,5.421,2.958c2.057-1.006,8.066-9.723,8.43-11.431c0.364-1.708-0.429-4.018-1.007-4.469
				C49.471,241.088,48.325,240.4,48.325,240.4z"/>
			<path fill="#D4ECFF" d="M49.099,239.545l0.164,3.677c0.035,0.781-0.358,1.526-1.039,1.913c-0.62,0.352-1.521,0.621-2.738,0.425
				c-2.673-0.43-2.912-1.193-3.103-4.869C42.193,237.015,49.099,239.545,49.099,239.545z"/>
			<g>
				<path fill="#5793CE" d="M35.334,233.33c0,0-3.549-1.789-5.729,0.876c-2.179,2.664-5.295,8.955-5.391,13.206
					c-0.097,4.251,3.364,3.964,5.421,2.958c2.057-1.006,8.066-9.723,8.43-11.431s-0.429-4.017-1.007-4.469
					S35.334,233.33,35.334,233.33z"/>
				<path fill="#D4ECFF" d="M36.109,232.476l0.164,3.677c0.035,0.781-0.358,1.526-1.039,1.912c-0.62,0.352-1.52,0.622-2.737,0.426
					c-2.673-0.43-2.912-1.193-3.103-4.869S36.109,232.476,36.109,232.476z"/>
				<path fill="#173D7A" d="M67.775,164.974c-1.051-17.09-18.509,2.515-18.509,2.515l-11.949,11.711l-10.759,11.82
					c-2.102,2.309-3.079,5.425-2.673,8.52l4.353,33.143c0.215,1.637,1.615,2.844,3.266,2.831c0.466-0.003,1-0.046,1.612-0.142
					c3.883-0.604,3.596-4.296,3.596-4.296l-0.796-30.998l22.596-13.621C58.514,186.456,68.825,182.063,67.775,164.974z"/>
			</g>
			<path fill="#173D7A" d="M80.766,171.485C79.715,154.395,62.257,174,62.257,174l-11.948,11.711l-10.76,11.82
				c-2.101,2.308-3.079,5.425-2.672,8.52l4.353,33.143c0.215,1.637,1.615,2.844,3.266,2.831c0.466-0.004,1-0.046,1.612-0.142
				c3.883-0.604,3.597-4.296,3.597-4.296l-0.796-30.998l22.596-13.621C71.504,192.968,81.815,188.575,80.766,171.485z"/>
			<path fill="#5793CE" d="M70.438,116.625c13.235,5.487,12.97,13.312,12.97,13.312s-2.592,28.683-1.707,47.839
				c0.369,8.008-42.547,8.619-36.146-12.745c7.546-25.19,4.718-45.583,8.25-48.659C57.337,113.296,67.014,115.205,70.438,116.625z"
				/>
			
				<ellipse transform="matrix(0.9684 0.2495 -0.2495 0.9684 32.5543 -13.1325)" fill="#FFC2B0" cx="68.084" cy="121.859" rx="6.827" ry="5.025"/>
			<path fill="#FFFFFF" d="M69.065,127.646c-0.776,0-1.582-0.1-2.393-0.309c-1.896-0.487-3.543-1.497-4.64-2.842
				c-1.143-1.4-1.559-2.997-1.172-4.497c0.777-3.021,4.65-4.646,8.635-3.617c1.896,0.487,3.543,1.497,4.64,2.842
				c1.143,1.4,1.559,2.998,1.172,4.497l0,0C74.688,126.127,72.104,127.646,69.065,127.646z M67.072,117.335
				c-2.458,0-4.513,1.144-4.986,2.98c-0.283,1.1,0.047,2.301,0.928,3.381c0.928,1.137,2.339,1.995,3.976,2.417
				c3.304,0.851,6.489-0.364,7.094-2.709l0,0c0.283-1.1-0.047-2.3-0.928-3.381c-0.928-1.137-2.339-1.995-3.976-2.417
				C68.464,117.422,67.752,117.335,67.072,117.335z"/>
			<path fill="#FFC2B0" d="M65.131,116.028c0,0,0.114,0.53-0.115,4.725c-0.072,1.318,4.545,2.551,5.738,1.357
				s0.716-2.435,1.003-6.923C72.043,110.7,65.131,116.028,65.131,116.028z"/>
			<path fill="#EA9C92" d="M71.757,115.188c0,0-1.138,4.161-6.742,5.757l0.085-3.781L71.757,115.188z"/>
			<circle fill="#FFC2B0" cx="65.443" cy="107.167" r="10.188"/>
			<path fill="#EA9C92" d="M67.783,107.541c0,0-5.609,2.402-9.493,2.431c-3.884,0.027-3.028-3.226-3.028-3.226l11.529-1.666
				L67.783,107.541z"/>
			<path fill="#FF2C9C" d="M57.132,108.174c0,0,4.887-2.074,9.173-1.209c1.008,0.203,1.942,0.742,2.591,1.539
				c0.212,0.261,0.479,0.498,0.784,0.567c0.76,0.172,2.004-2.981,3.481-3.054c1.478-0.071,2.464,0.975,1.252,2.914
				c-1.211,1.939-0.802,4.109-0.244,4.421s6.47-4.217,1.255-14.548c-5.216-10.331-18.463-4.767-20.523-2.673
				c0,0-2.171,1.892-3.936,0.208C50.965,96.34,48.986,111.162,57.132,108.174z"/>
			<path fill="#FFC2B0" d="M75.982,150.892v7.751c0,0.888-0.374,1.735-1.029,2.333l-15.922,14.516l1.809,2.767l21.026-15.249
				c0.981-0.712,1.614-1.807,1.741-3.013l1.421-13.517L75.982,150.892z"/>
			<path fill="#5793CE" d="M82.287,126.061c0,0,4.83,7.265,6.63,26.386c0,0-8.251,2.668-12.935,1.153
				C71.3,152.085,82.287,126.061,82.287,126.061z"/>
			<path fill="#396CAA" d="M75.101,135.245c0,0-1.891,10.121-1.998,14.877c-0.029,1.308,0.769,2.488,1.998,2.933l0,0V135.245z"/>
		</g>
		<g>
			<path fill="#5793CE" d="M70.97,185.569l-3.519-0.464L44.735,171.99c-0.728-0.421-2-0.368-2.841,0.117l-16.096,9.29l-2.128-0.281
				v2.119h0.002c-0.014,0.279,0.145,0.547,0.489,0.746l25.744,14.863c0.729,0.42,2,0.367,2.841-0.118l17.53-10.117
				c0.473-0.273,0.708-0.625,0.694-0.956l0,0V185.569z"/>
			<path fill="#396CAA" d="M53.902,177.282l-1.614-0.932H34.544l-8.747,5.047l-2.128-0.281v2.119h0.002
				c-0.014,0.279,0.145,0.547,0.489,0.746l25.744,14.863c0.385,0.222,0.922,0.311,1.466,0.274L53.902,177.282z"/>
			<path fill="#5793CE" d="M24.614,181.241l-0.944-0.125v2.119h0.002c-0.014,0.279,0.145,0.547,0.489,0.746l0.454,0.262V181.241z"/>
			<path fill="#FFFFFF" d="M50.163,198.965c0.69,0.262,1.678,0.205,2.414-0.15v-3.604h-2.414V198.965z"/>
			<path fill="#FFFFFF" d="M49.904,196.728L24.16,181.864c-0.729-0.421-0.637-1.155,0.204-1.641l17.529-10.117
				c0.841-0.485,2.113-0.538,2.841-0.118l25.744,14.863c0.729,0.421,0.638,1.155-0.203,1.641l-17.53,10.117
				C51.904,197.095,50.632,197.147,49.904,196.728z"/>
			<path fill="#D4ECFF" d="M49.469,194.475l-21.406-12.358c-0.605-0.35-0.529-0.961,0.17-1.364l9.394-5.282
				c0.699-0.404,1.757-0.448,2.362-0.099l21.406,12.359c0.605,0.35,0.529,0.96-0.17,1.364l-9.394,5.282
				C51.132,194.78,50.074,194.824,49.469,194.475z"/>
		</g>
		<path fill="#FFC2B0" d="M42.889,169.618l-0.266,1.776c-0.227,1.514-0.188,3.055,0.116,4.555l0.317,1.565
			c0.179,0.883,0.877,1.567,1.764,1.729l0,0c0.692,0.126,1.346-0.361,1.424-1.06l0.425-3.798c0,0,0.972,1.273,1.44,1.273
			c0.469,0-0.525-3.803-1.585-5.955C45.462,167.553,42.889,169.618,42.889,169.618z"/>
		<path fill="#FFC2B0" d="M51.615,141.388l-2.762,5.467c-0.653,1.293-1.038,2.704-1.131,4.149l-1.199,18.701l-3.634-0.087
			l-1.649-21.001c-0.051-0.647-0.02-1.301,0.094-1.94l1.884-10.649L51.615,141.388z"/>
		<g>
			<path fill="#173D7A" d="M49.032,198.155l-2.158-2.818l-22.7-13.143c-0.728-0.421-1.317-1.55-1.315-2.521l0.02-18.585
				l-1.305-1.703l1.227-0.711l0.001,0.002c0.235-0.151,0.546-0.147,0.89,0.052l25.726,14.895c0.728,0.421,1.317,1.55,1.315,2.521
				l-0.021,20.24c-0.001,0.546-0.188,0.926-0.481,1.079l0,0L49.032,198.155z"/>
			<path fill="#396CAA" d="M33.334,187.498l-1.613-0.934l-8.853-15.377l0.009-10.1l-1.305-1.703l1.227-0.711l0.001,0.002
				c0.235-0.151,0.546-0.147,0.89,0.052l25.726,14.895c0.384,0.223,0.729,0.644,0.97,1.134L33.334,187.498z"/>
			<path fill="#5793CE" d="M22.151,160.141l-0.579-0.756l1.227-0.711l0.001,0.002c0.235-0.151,0.546-0.147,0.89,0.052l0.453,0.262
				L22.151,160.141z"/>
			<path fill="#274F89" d="M49.65,173.786c0.571,0.468,1.014,1.352,1.074,2.167l-2.514,1.452l-1.205-2.093L49.65,173.786z"/>
			<path fill="#5793CE" d="M48.191,174.331l-25.726-14.895c-0.728-0.421-1.318,0.024-1.32,0.995l-0.021,20.24
				c-0.001,0.971,0.588,2.1,1.315,2.521l25.726,14.895c0.728,0.421,1.319-0.024,1.32-0.996l0.022-20.239
				C49.507,175.882,48.918,174.753,48.191,174.331z"/>
		</g>
		<path fill="#FFC2B0" d="M60.84,178.258l-0.412,0.854c-0.475,0.983-1.221,1.811-2.15,2.384l-2.556,1.575
			c-0.795,0.489-1.802,0.529-2.608,0.061c-0.029-0.018-0.058-0.035-0.087-0.053c-0.813-0.509-0.886-1.676-0.217-2.362l2.67-2.745
			c0,0-1.5,1.149-1.921,0.687c-0.308-0.34,1.455-1.995,2.809-2.049c1.354-0.055,2.664-1.118,2.664-1.118L60.84,178.258z"/>
		<path fill="#5793CE" d="M54.069,116.331c0,0-9.79,10.651-13.739,20.423c0,0,3.348,6.031,11.542,8.397
			C60.066,147.519,54.069,116.331,54.069,116.331z"/>
		<path fill="#396CAA" d="M50.029,144.52l1.586-15.327l-3.738,14.36C48.543,143.9,49.264,144.224,50.029,144.52z"/>
		<path fill="#FFFFFF" d="M61.401,114.182l-2.631-0.723c0,0,1.256,1.976,3.089,2.479c1.834,0.504,2.119-1.049,2.119-1.049
			L61.401,114.182z"/>
	</g>
	<circle fill="#FFFFFF" cx="73.986" cy="109.972" r="1.465"/>
</g>
<path fill="#FF2C9C" d="M294.145,115.571l-4.412-8.975l8.974-4.412l4.412,8.975L294.145,115.571z M292.41,107.509l2.646,5.385
	l5.384-2.646l-2.646-5.385L292.41,107.509z"/>
<g>
	<path fill="#D4ECFF" d="M104.858,286.553c-9.801-5.658-25.689-5.658-35.489,0c-9.799,5.657-9.799,14.831,0.001,20.488
		c9.8,5.658,25.688,5.658,35.488,0.001C114.658,301.384,114.658,292.211,104.858,286.553z M95.271,301.506
		c-4.505,2.602-11.808,2.602-16.313,0c-4.505-2.601-4.505-6.817-0.001-9.418c4.505-2.601,11.809-2.601,16.313,0
		S99.775,298.905,95.271,301.506z"/>
	<g>
		<g>
			<path fill="#B70083" d="M65.668,283.2l8.951,0.14c0.663-0.862,1.604-1.671,2.827-2.377c4.923-2.843,12.663-3.062,18.025-0.663
				l5.319-5.003l8.19,0.128c-0.404-0.265-0.82-0.526-1.259-0.779c-11.382-6.571-29.836-6.571-41.218,0
				c-2.093,1.208-3.798,2.556-5.121,3.99L65.668,283.2z"/>
			<polygon fill="#D3008D" points="108.981,262.426 108.981,275.425 100.791,275.297 100.791,262.298 			"/>
			<polygon fill="#B70083" points="95.472,267.301 95.472,280.3 100.791,275.297 100.791,262.298 			"/>
			<path fill="#B70083" d="M74.619,270.341v12.999l11.775-9.596l9.077,6.556v-12.999l-8.357-4.055c0,0-11.507,3.522-12.104,3.672
				S74.619,270.341,74.619,270.341z"/>
			<polygon fill="#B70083" points="65.668,270.201 65.668,283.2 74.619,283.34 74.619,270.341 			"/>
			<polygon fill="#D3008D" points="61.384,265.637 61.384,278.636 65.668,283.2 65.668,270.201 			"/>
			<path fill="#FF2C9C" d="M65.668,270.201l8.951,0.14c0.663-0.862,1.604-1.671,2.827-2.377c4.923-2.843,12.663-3.062,18.025-0.663
				l5.319-5.003l8.19,0.128c-0.404-0.265-0.82-0.526-1.259-0.779c-11.382-6.571-29.836-6.571-41.218,0
				c-2.093,1.208-3.798,2.556-5.121,3.99L65.668,270.201z"/>
		</g>
		<g>
			<path fill="#5793CE" d="M98.168,268.899v11.949l7.749-1.855c0,0-0.455-6.993-0.62-7.18S98.168,268.899,98.168,268.899z"/>
			<g>
				<path fill="#173D7A" d="M92.305,280.849v12.999l0.837,0.893l5.463-3.149c0,0-0.848-9.923-0.947-10.122
					C97.558,281.269,92.305,280.849,92.305,280.849z"/>
				<path fill="#396CAA" d="M102.853,277.493l-4.685,4.405c3.902,3.088,3.441,7.44-1.387,10.228
					c-1.322,0.763-2.848,1.337-4.477,1.722l4.842,5.159l-4.29,4.034c5.447-0.629,10.645-2.16,14.867-4.599
					c9.784-5.648,11.149-14.313,4.11-20.809L102.853,277.493z"/>
				<polygon fill="#396CAA" points="92.856,290.042 92.856,303.041 103.479,298.939 116.255,286.75 116.207,272.947 102.69,283.661 
									"/>
				<path fill="#D4ECFF" d="M102.853,264.494l-4.685,4.405c3.902,3.088,3.441,7.44-1.387,10.228
					c-1.322,0.763-2.848,1.337-4.477,1.722l4.842,5.159l-4.29,4.034c5.447-0.629,10.645-2.16,14.867-4.599
					c9.784-5.648,11.149-14.313,4.11-20.809L102.853,264.494z"/>
			</g>
		</g>
		<g>
			<path fill="#396CAA" d="M92.821,298.938l-4.267-4.546c-3.963,0.241-8.071-0.514-11.107-2.268
				c-3.137-1.811-4.428-4.281-3.88-6.638l-10.162-0.158l-3.908-4.163c-3.418,5.865-1.086,12.604,7.009,17.276
				c5.947,3.434,13.826,5.069,21.618,4.915L92.821,298.938z"/>
			<polygon fill="#396CAA" points="88.124,290.358 88.124,303.357 57.976,286.65 57.976,273.646 62.378,275.425 			"/>
			<polygon fill="#173D7A" points="92.821,285.94 92.821,298.938 88.124,303.357 88.124,290.358 			"/>
			<path fill="#5793CE" d="M92.821,285.94l-4.267-4.547c-3.963,0.241-8.071-0.514-11.107-2.268c-3.137-1.811-4.428-4.281-3.88-6.638
				l-10.162-0.158l-3.908-4.163c-3.418,5.866-1.086,12.604,7.009,17.276c5.947,3.434,13.826,5.07,21.618,4.915L92.821,285.94z"/>
		</g>
	</g>
</g>
<path fill="#5793CE" d="M25.226,76.301c-3.584,0-6.5-2.916-6.5-6.5s2.916-6.5,6.5-6.5s6.5,2.916,6.5,6.5S28.81,76.301,25.226,76.301
	z M25.226,65.301c-2.481,0-4.5,2.019-4.5,4.5s2.019,4.5,4.5,4.5c2.482,0,4.5-2.019,4.5-4.5S27.708,65.301,25.226,65.301z"/>
<circle fill="#D4ECFF" cx="4.718" cy="279.332" r="4.718"/>
<circle fill="#D4ECFF" cx="245.021" cy="9.353" r="5.623"/>
<g>
	<g>
		<path fill="#D3008D" d="M220.241,67.511l-26.738-15.438c-0.529-0.306-1.008-0.316-1.383-0.11c0-0.003,0.002-0.018,0.002-0.018
			l-2.594,1.498c0,0,1.148,0.419,1.823,0.666v19.473c0,1.584,0.963,3.425,2.151,4.11l25.557,14.755v2.285l2.62-1.509l-0.014-0.006
			c0.442-0.27,0.727-0.862,0.727-1.715V71.621C222.393,70.037,221.43,68.197,220.241,67.511z"/>
		<path fill="#FF2C9C" d="M217.6,94.652l-26.738-15.438c-1.188-0.687-2.151-2.526-2.151-4.111V55.223
			c0-1.585,0.963-2.313,2.151-1.627L217.6,69.033c1.188,0.687,2.151,2.526,2.151,4.11v19.882
			C219.751,94.609,218.788,95.338,217.6,94.652z"/>
	</g>
	<g>
		<path fill="#FFFFFF" d="M199.854,72.363c0,1.15-0.808,1.617-1.805,1.041c-0.996-0.575-1.804-1.974-1.804-3.124
			s0.808-1.617,1.804-1.042C199.046,69.813,199.854,71.213,199.854,72.363z"/>
		<path fill="#FFFFFF" d="M205.318,75.519c0,1.15-0.808,1.617-1.804,1.042s-1.805-1.975-1.805-3.125s0.809-1.617,1.805-1.042
			C204.511,72.97,205.318,74.368,205.318,75.519z"/>
		<path fill="#FFFFFF" d="M210.784,78.675c0,1.149-0.808,1.616-1.805,1.041c-0.996-0.575-1.804-1.975-1.804-3.125
			s0.808-1.616,1.804-1.041C209.977,76.125,210.784,77.523,210.784,78.675z"/>
	</g>
</g>
<g>
	<g>
		<path fill="#5793CE" d="M90.229,37.141L63.997,21.996c-0.52-0.3-0.988-0.312-1.355-0.108c0-0.002,0.001-0.018,0.001-0.018
			l-2.544,1.471c0,0,1.126,0.41,1.788,0.653v19.103c0,1.554,0.944,3.359,2.11,4.032l25.072,14.476v2.241l2.57-1.48l-0.014-0.005
			c0.435-0.265,0.713-0.846,0.713-1.682V41.174C92.339,39.619,91.395,37.813,90.229,37.141z"/>
		<path fill="#D4ECFF" d="M87.638,63.767L61.406,48.622c-1.166-0.673-2.11-2.478-2.11-4.032V25.085c0-1.554,0.944-2.269,2.11-1.596
			l26.231,15.145c1.165,0.674,2.11,2.479,2.11,4.033v19.505C89.748,63.726,88.803,64.44,87.638,63.767z"/>
	</g>
	<g>
		<path fill="#FFFFFF" d="M70.228,41.901c0,1.128-0.793,1.586-1.771,1.021c-0.977-0.564-1.77-1.937-1.77-3.065
			s0.793-1.586,1.77-1.021C69.435,39.4,70.228,40.772,70.228,41.901z"/>
		<path fill="#FFFFFF" d="M75.589,44.997c0,1.128-0.792,1.586-1.77,1.021s-1.77-1.937-1.77-3.065s0.792-1.586,1.77-1.021
			C74.797,42.495,75.589,43.868,75.589,44.997z"/>
		<path fill="#FFFFFF" d="M80.951,48.092c0,1.129-0.793,1.587-1.771,1.022s-1.77-1.937-1.77-3.065s0.792-1.586,1.77-1.022
			C80.158,45.592,80.951,46.964,80.951,48.092z"/>
	</g>
</g>
</svg>
