<?xml version="1.0" encoding="utf-8"?>
<!-- Generator: Adobe Illustrator 16.0.0, SVG Export Plug-In . SVG Version: 6.00 Build 0)  -->
<!DOCTYPE svg PUBLIC "-//W3C//DTD SVG 1.1//EN" "http://www.w3.org/Graphics/SVG/1.1/DTD/svg11.dtd">
<svg version="1.1" id="Capa_1" xmlns="http://www.w3.org/2000/svg" xmlns:xlink="http://www.w3.org/1999/xlink" x="0px" y="0px"
	 width="523.195px" height="595.28px" viewBox="36.042 123.305 523.195 595.28"
	 enable-background="new 36.042 123.305 523.195 595.28" xml:space="preserve">
<path fill="#3F3F3F" d="M402.279,683.705H332.52c-9.64,0-17.44-7.8-17.44-17.439s7.801-17.439,17.44-17.439h69.759
	c28.851,0,52.32-23.47,52.32-52.32v-69.759c0-9.64,7.8-17.44,17.439-17.44s17.44,7.801,17.44,17.44v69.759
	C489.479,644.586,450.359,683.705,402.279,683.705z"/>
<path fill="#3F3F3F" d="M559.238,384.903v69.759l-34.88,41.622V384.903c0-124.871-101.848-226.718-226.718-226.718
	S70.922,260.032,70.922,384.903v116.963l-34.88-47.204v-69.759c0-144.402,117.196-261.598,261.598-261.598
	C442.042,123.305,559.238,240.501,559.238,384.903z"/>
<path fill="#3F3F3F" d="M559.238,384.903v69.759l-34.88,41.622V384.903c0-124.871-101.848-226.718-226.718-226.718v-34.88
	C442.042,123.305,559.238,240.501,559.238,384.903z"/>
<path fill="#3E9FFF" d="M123.241,579.066h-34.88c-28.85,0-52.319-23.47-52.319-52.319v-72.085c0-28.851,23.47-52.319,52.319-52.319
	h34.88c9.64,0,17.44,7.8,17.44,17.439v141.845C140.682,571.266,132.881,579.066,123.241,579.066z"/>
<path fill="#3E9FFF" d="M506.918,579.066h-34.88c-9.64,0-17.439-7.801-17.439-17.439V419.782c0-9.64,7.8-17.439,17.439-17.439h34.88
	c28.85,0,52.319,23.469,52.319,52.319v72.085C559.238,555.597,535.768,579.066,506.918,579.066z"/>
<path fill="#787780" d="M297.64,613.946c-28.951,0-52.319,23.368-52.319,52.319c0,28.949,23.368,52.319,52.319,52.319
	s52.319-23.37,52.319-52.319C349.959,637.314,326.591,613.946,297.64,613.946z"/>
<g>
	<path fill="#3F3F3F" d="M349.959,666.266c0,28.949-23.368,52.319-52.319,52.319V613.946
		C326.591,613.946,349.959,637.314,349.959,666.266z"/>
	<path fill="#3F3F3F" d="M158.121,613.946c-28.851,0-52.319-23.47-52.319-52.319V419.782c0-28.85,23.469-52.319,52.319-52.319
		s52.319,23.469,52.319,52.319v141.845C210.441,590.477,186.972,613.946,158.121,613.946z"/>
</g>
<path fill="#3F3F3F" d="M437.158,613.946c-28.85,0-52.319-23.47-52.319-52.319V419.782c0-28.85,23.47-52.319,52.319-52.319
	c28.851,0,52.32,23.469,52.32,52.319v141.845C489.479,590.477,466.009,613.946,437.158,613.946z"/>
</svg>
