<?xml version="1.0" encoding="utf-8"?>
<!-- Generator: Adobe Illustrator 16.0.0, SVG Export Plug-In . SVG Version: 6.00 Build 0)  -->
<!DOCTYPE svg PUBLIC "-//W3C//DTD SVG 1.1//EN" "http://www.w3.org/Graphics/SVG/1.1/DTD/svg11.dtd">
<svg version="1.1" id="Layer_1" xmlns="http://www.w3.org/2000/svg" xmlns:xlink="http://www.w3.org/1999/xlink" x="0px" y="0px"
	 width="512px" height="512px" viewBox="0 0 512 512" enable-background="new 0 0 512 512" xml:space="preserve">
<path d="M91.125,322.441c14.824-14.824,14.824-38.949,0-53.773c-7.184-7.18-16.73-11.137-26.887-11.137
	c-5.871,0-11.535,1.328-16.656,3.832c-18.059-25.836-27.57-56.07-27.57-87.871c0-81.387,63.578-148.809,144.738-153.496
	c5.52-0.32,9.73-5.051,9.414-10.566c-0.32-5.52-5.051-9.719-10.566-9.414C71.86,5.316,0,81.516,0,173.492
	c0,36.695,11.215,71.551,32.477,101.156c-9.715,14.75-8.09,34.828,4.875,47.793c7.184,7.18,16.73,11.137,26.887,11.137
	S83.942,329.621,91.125,322.441z"/>
<path d="M328.043,346.668c-6.324,0-12.27,1.648-17.43,4.539c-4.574-14.504-18.152-25.051-34.148-25.051
	c-10.121,0-19.273,4.223-25.789,10.996c-1.809-1.875-3.82-3.551-5.996-5c23.063-10.324,43.816-25.66,60.609-45.086
	c27.242-31.523,42.246-71.859,42.246-113.574c0-36.676-11.215-71.551-32.473-101.16c9.715-14.75,8.09-34.824-4.879-47.793
	c-14.824-14.824-38.945-14.824-53.773,0c-14.824,14.824-14.824,38.949,0,53.773c7.414,7.414,17.148,11.121,26.887,11.121
	c5.707,0,11.406-1.285,16.645-3.832c18.066,25.844,27.582,56.102,27.582,87.891c0,72.383-49.137,133.566-118.422,149.684v-53.859
	c39.68-14.648,66.789-53.004,66.789-95.824c0-56.309-45.813-102.121-102.125-102.121c-56.309,0-102.121,45.809-102.121,102.121
	c0,22.223,7.02,43.355,20.293,61.105c11.578,15.48,27.598,27.504,45.57,34.363v147.184l-12.57-20.621
	c-10.563-17.34-32.613-22.965-50.195-12.816c-16.723,9.656-23.246,30.844-14.805,48.32l37.324,75.402
	c1.746,3.527,5.293,5.57,8.977,5.57c1.492,0,3.004-0.332,4.43-1.039c4.953-2.453,6.98-8.457,4.531-13.406l-37.285-75.316
	c-3.863-8.004-0.863-17.754,6.836-22.199c7.957-4.594,18.32-1.949,23.102,5.898l31.117,51.059c2.336,3.828,6.934,5.637,11.25,4.426
	s7.301-5.148,7.301-9.637V222.207c0-8.703,7.082-15.781,15.785-15.781s15.785,7.078,15.785,15.781v39.578
	c-0.004,0.07,0,0.141,0,0.215v150.242c0,5.527,4.477,10.004,10.004,10.004s10.008-4.477,10.008-10.004v-50.289
	c0-8.703,7.078-15.785,15.781-15.785s15.785,7.082,15.785,15.785v53.93c0,5.527,4.48,10.008,10.004,10.008
	c5.527,0,10.008-4.48,10.008-10.008v-53.93c0-8.703,7.082-15.785,15.785-15.785s15.781,7.082,15.781,15.785v54.605
	c0,5.527,4.48,10.008,10.008,10.008s10.004-4.48,10.004-10.008v-34.094c0-8.703,7.082-15.785,15.785-15.785
	s15.785,7.082,15.785,15.785v119.523c0,5.527,4.477,10.008,10.004,10.008s10.008-4.48,10.008-10.008V382.465
	C363.84,362.727,347.781,346.668,328.043,346.668z M91.656,173.492c0-45.277,36.836-82.113,82.113-82.113
	c45.273,0,82.109,36.836,82.109,82.113c0,31.883-18.684,60.691-46.777,74.133v-25.418c0-5.617-1.305-10.938-3.625-15.676
	c8.875-8.555,14.121-20.48,14.121-33.039c0-25.273-20.559-45.832-45.828-45.832c-25.273,0-45.832,20.559-45.832,45.832
	c0,12.191,4.965,23.906,13.5,32.445c-2.504,4.883-3.93,10.414-3.93,16.27v24.996C109.645,233.586,91.656,205.348,91.656,173.492z"/>
<path d="M209.199,23.578c2.633,0,5.215-1.07,7.074-2.934c1.863-1.859,2.934-4.441,2.934-7.074c0-2.629-1.07-5.211-2.934-7.074
	c-1.859-1.859-4.441-2.93-7.074-2.93c-2.629,0-5.211,1.07-7.07,2.93c-1.863,1.863-2.934,4.445-2.934,7.074
	c0,2.633,1.07,5.215,2.934,7.074C203.989,22.508,206.571,23.578,209.199,23.578z"/>
<path fill="#40A3FF" d="M270.563,64.164c-7.023-7.023-7.023-18.449,0-25.473c3.512-3.512,8.121-5.266,12.734-5.266
	s9.227,1.754,12.738,5.266c7.02,7.023,7.02,18.449,0,25.473C289.012,71.184,277.582,71.184,270.563,64.164z"/>
<path fill="#40A3FF" d="M155.149,191.375c-4.613-4.773-7.199-11.098-7.199-17.883c0-14.238,11.582-25.82,25.816-25.82
	c14.238,0,25.82,11.582,25.82,25.82c0,6.883-2.797,13.438-7.555,18.227c-5.453-3.363-11.867-5.305-18.727-5.305
	C166.68,186.414,160.477,188.227,155.149,191.375z"/>
<path fill="#40A3FF" d="M51.5,282.82c3.512-3.512,8.125-5.27,12.738-5.27c4.609,0,9.223,1.758,12.734,5.27
	c7.023,7.02,7.023,18.449,0,25.469c-7.023,7.023-18.449,7.023-25.473,0C44.481,301.27,44.481,289.844,51.5,282.82z"/>
</svg>
