<?xml version="1.0" encoding="utf-8"?>
<!-- Generator: Adobe Illustrator 16.0.0, SVG Export Plug-In . SVG Version: 6.00 Build 0)  -->
<!DOCTYPE svg PUBLIC "-//W3C//DTD SVG 1.1//EN" "http://www.w3.org/Graphics/SVG/1.1/DTD/svg11.dtd">
<svg version="1.1" id="Layer_3" xmlns="http://www.w3.org/2000/svg" xmlns:xlink="http://www.w3.org/1999/xlink" x="0px" y="0px"
	 width="512px" height="512px" viewBox="0 0 512 512" enable-background="new 0 0 512 512" xml:space="preserve">
<path fill="#3F3F3F" d="M280,296v-32h-17.848c-1.8-7.896-4.927-15.43-9.249-22.28l12.632-12.632l-22.624-22.624l-12.632,12.632
	c-6.85-4.322-14.383-7.449-22.28-9.248V192h-32v17.848c-7.896,1.799-15.43,4.926-22.28,9.248l-12.632-12.632l-22.624,22.624
	l12.632,12.632c-4.322,6.85-7.449,14.384-9.248,22.28H104v32h17.848c1.799,7.896,4.926,15.43,9.248,22.279l-12.632,12.633
	l22.624,22.624l12.632-12.632c6.85,4.321,14.383,7.448,22.28,9.248V368h32v-17.848c7.896-1.8,15.43-4.927,22.28-9.248l12.632,12.632
	l22.624-22.624l-12.632-12.632c4.322-6.851,7.449-14.384,9.249-22.28H280z M192,320c-22.091,0-40-17.908-40-40s17.909-40,40-40
	s40,17.908,40,40S214.091,320,192,320z"/>
<path fill="#3F3F3F" d="M104,304h11.728c1.403,4.47,3.206,8.805,5.384,12.952l-8.312,8.304c-3.123,3.124-3.123,8.188,0,11.313
	l22.632,22.632c3.124,3.123,8.188,3.123,11.312,0l8.304-8.304c4.148,2.176,8.483,3.975,12.952,5.375V368c0,4.418,3.582,8,8,8h32
	c4.418,0,8-3.582,8-8v-11.729c4.47-1.402,8.805-3.205,12.952-5.383l8.304,8.312c3.124,3.123,8.188,3.123,11.312,0l22.632-22.632
	c3.123-3.125,3.123-8.188,0-11.313l-8.304-8.304c2.176-4.147,3.975-8.483,5.375-12.952H280c4.418,0,8-3.582,8-8v-32
	c0-4.418-3.582-8-8-8h-11.729c-1.406-4.469-3.207-8.803-5.383-12.952l8.312-8.304c3.123-3.124,3.123-8.188,0-11.312L248.568,200.8
	c-3.124-3.123-8.188-3.123-11.312,0l-8.304,8.296c-4.15-2.169-8.484-3.965-12.952-5.368V192c0-4.418-3.582-8-8-8h-32
	c-4.418,0-8,3.582-8,8v11.728c-4.468,1.405-8.802,3.205-12.952,5.376l-8.304-8.304c-3.174-3.001-8.139-3.001-11.312,0L112.8,223.432
	c-3.123,3.124-3.123,8.188,0,11.312l8.304,8.304c-2.173,4.149-3.972,8.484-5.376,12.952H104c-4.418,0-8,3.582-8,8v32
	C96,300.418,99.582,304,104,304z M112,272h9.84c3.734,0,6.971-2.583,7.8-6.225c1.602-7.011,4.379-13.7,8.216-19.783
	c1.997-3.161,1.539-7.283-1.104-9.928l-6.976-6.976l11.312-11.312l6.976,6.976c2.642,2.641,6.759,3.103,9.92,1.112
	c6.083-3.844,12.776-6.622,19.792-8.216c3.644-0.83,6.228-4.071,6.224-7.808V200h16v9.84c-0.003,3.737,2.581,6.979,6.224,7.808
	c7.016,1.594,13.709,4.373,19.792,8.216c3.161,1.99,7.278,1.529,9.92-1.112l6.976-6.976l11.312,11.312l-6.976,6.976
	c-2.643,2.645-3.101,6.767-1.104,9.928c3.85,6.081,6.642,12.77,8.256,19.783c0.826,3.627,4.042,6.206,7.76,6.225H272v16h-9.84
	c-3.734,0-6.971,2.584-7.8,6.225c-1.602,7.014-4.379,13.705-8.216,19.791c-1.993,3.159-1.535,7.277,1.104,9.92l6.976,6.977
	l-11.312,11.313l-6.976-6.977c-2.644-2.639-6.761-3.097-9.92-1.104c-6.083,3.85-12.776,6.642-19.792,8.256
	c-3.626,0.825-6.206,4.041-6.224,7.76V360h-16v-9.84c0-3.734-2.583-6.971-6.224-7.801c-7.014-1.602-13.706-4.379-19.792-8.215
	c-3.159-1.993-7.276-1.535-9.92,1.104l-6.976,6.977l-11.312-11.313l6.976-6.977c2.639-2.643,3.097-6.761,1.104-9.92
	c-3.851-6.083-6.642-12.775-8.256-19.791c-0.826-3.627-4.041-6.206-7.76-6.225H112V272z"/>
<path fill="#3F3F3F" d="M192,328c26.51,0,48-21.49,48-48s-21.49-48-48-48s-48,21.49-48,48C144.026,306.498,165.501,327.974,192,328z
	 M192,248c17.673,0,32,14.327,32,32c0,17.674-14.327,32-32,32s-32-14.326-32-32C160,262.327,174.327,248,192,248z"/>
<path fill="#3E9FFF" d="M437.656,186.344c-3.125-3.124-8.19-3.123-11.314,0.002c-1.499,1.5-2.342,3.534-2.342,5.654v24h-48v-8
	c-0.014-28.721-11.947-56.148-32.952-75.736L453.656,21.656l-11.313-11.313L330.56,122.128C313.322,110.302,292.904,103.981,272,104
	h-96c-61.13,0.057-110.949,49.071-112,110.192l-55.264,118.4c-1.882,3.998-0.167,8.764,3.83,10.646
	c1.074,0.506,2.247,0.766,3.434,0.762h48v96c0,4.418,3.582,8,8,8h80v48c0,4.418,3.582,8,8,8h168c4.418,0,8-3.582,8-8v-94.112
	l2.192-4.384l104.151,104.152l11.313-11.313L345.736,382.4l29.464-58.824c0.54-1.114,0.813-2.338,0.8-3.576v-24h48v24
	c-0.001,3.235,1.947,6.152,4.936,7.393c0.971,0.404,2.013,0.611,3.064,0.607c2.121,0,4.156-0.844,5.656-2.344l64-64
	c3.123-3.124,3.123-8.188,0-11.313L437.656,186.344z M360,208v8h-57.32c-5.19-8.966-11.449-17.27-18.64-24.728l47.704-47.704
	C349.742,160.161,359.986,183.521,360,208z M176,120h96c16.645,0.006,32.941,4.764,46.976,13.712l-46.72,46.72
	C249.558,162.028,221.222,151.989,192,152h-87.352C122.789,131.658,148.744,120.018,176,120z M28.56,328l50.688-108.616
	C79.743,218.325,80,217.169,80,216c0.001-16.869,4.485-33.434,12.992-48H192c61.856,0,112,50.144,112,112
	c0,61.855-50.144,112-112,112H80v-56c0-4.418-3.582-8-8-8H28.56z M320.8,396.424c-0.54,1.114-0.813,2.338-0.8,3.576v88H168v-48
	c0-4.418-3.582-8-8-8H80v-24h112c41.053-0.037,79.59-19.793,103.584-53.104l30.68,30.703L320.8,396.424z M360,318.111
	l-26.192,52.385l-29.376-29.376c7.608-13.999,12.513-29.306,14.456-45.12H360V318.111z M440,300.688V288c0-4.418-3.582-8-8-8H320
	c-0.005-16.459-3.206-32.761-9.424-48H432c4.418,0,8-3.582,8-8v-12.688L484.688,256L440,300.688z"/>
</svg>
