<?xml version="1.0" encoding="utf-8"?>
<!-- Generator: Adobe Illustrator 16.0.0, SVG Export Plug-In . SVG Version: 6.00 Build 0)  -->
<!DOCTYPE svg PUBLIC "-//W3C//DTD SVG 1.1//EN" "http://www.w3.org/Graphics/SVG/1.1/DTD/svg11.dtd">
<svg version="1.1" id="Capa_1" xmlns="http://www.w3.org/2000/svg" xmlns:xlink="http://www.w3.org/1999/xlink" x="0px" y="0px"
	 width="612.001px" height="501.577px" viewBox="0 135.212 612.001 501.577" enable-background="new 0 135.212 612.001 501.577"
	 xml:space="preserve">
<g>
	<g>
		<path fill="#3F3F3F" d="M610.84,488.059c0-23.315-14.952-43.193-35.769-50.577V272.439l36.93-14.761L305.604,135.212L0,257.678
			l144.654,57.968v85.107c0,26.236,18.393,49.882,51.792,66.581c29.458,14.73,68.227,22.842,109.167,22.842
			s79.709-8.111,109.166-22.842c33.398-16.699,51.792-40.344,51.792-66.581v-84.947l72.729-29.07v150.746
			c-20.816,7.383-35.769,27.262-35.769,50.577c0,21.329,12.512,39.788,30.581,48.43l-29.663,88.988l33.934,11.312l18.803-56.406
			l18.803,56.406l33.934-11.312l-29.663-88.988C598.326,527.846,610.84,509.388,610.84,488.059z M305.622,341.618L96.157,257.678
			l209.465-83.939l210.005,83.939L305.622,341.618z M557.186,505.942c-9.861,0-17.885-8.022-17.885-17.884
			s8.023-17.885,17.885-17.885s17.884,8.023,17.884,17.885S567.047,505.942,557.186,505.942z"/>
	</g>
</g>
<path fill="#3E9FFF" d="M467.546,407.265c0,32.759-50.546,87.399-161.933,87.399c-114.113,0-161.933-54.641-161.933-87.399V315.72
	l161.922,64.888l161.944-64.73L467.546,407.265L467.546,407.265z"/>
</svg>
