<?xml version="1.0" encoding="utf-8"?>
<!-- Generator: Adobe Illustrator 16.0.0, SVG Export Plug-In . SVG Version: 6.00 Build 0)  -->
<!DOCTYPE svg PUBLIC "-//W3C//DTD SVG 1.1//EN" "http://www.w3.org/Graphics/SVG/1.1/DTD/svg11.dtd">
<svg version="1.1" id="Layer_1" xmlns="http://www.w3.org/2000/svg" xmlns:xlink="http://www.w3.org/1999/xlink" x="0px" y="0px"
	 width="512px" height="512px" viewBox="0 0 512 512" enable-background="new 0 0 512 512" xml:space="preserve">
<g>
	<path fill="#FFFFFF" d="M299.452,386.371c-27.984,9.338-58.853,9.336-86.916-0.004c-7.863-2.618-16.354,1.635-18.97,9.494
		c-2.615,7.86,1.636,16.354,9.496,18.971c17.09,5.688,35.031,8.531,52.967,8.531c17.937,0,35.868-2.847,52.918-8.535
		c7.858-2.622,12.104-11.118,9.48-18.977C315.807,387.994,307.312,383.751,299.452,386.371z"/>
	<path fill="#FFFFFF" d="M430.736,97.999c-6.384-45.79-45.703-81.932-94.401-81.932h-17.135V15c0-8.284-6.716-15-14.999-15h-96.4
		c-8.284,0-15,6.716-15,15v1.066h-17.133c-48.291,0-87.664,35.638-94.36,81.922c-28.118,6.399-49.173,31.584-49.173,61.611v128.534
		c0,41.105,33.483,57.859,48.692,61.475C87.694,442.146,165.397,512,256,512c92.396,0,168.357-71.705,175.166-162.389
		c39.425-9.36,48.699-45.129,48.699-61.478V159.6C479.866,129.588,458.831,104.413,430.736,97.999z M319.199,46.066h17.133
		c42.442,0,59.976,34.701,63.62,50.334h-80.753V46.066z M222.8,30h66.4v66.4h-66.4V30z M175.667,46.066H192.8V96.4h-80.691
		C121.838,55.644,158.76,46.066,175.667,46.066z M256,482c-74.035,0-137.32-56.086-144.904-130.667h73.97
		c18.407,0,36.417-7.459,49.412-20.464c0.077-0.077,0.153-0.155,0.229-0.234c5.643-5.52,13.385-8.679,21.293-8.679
		c7.91,0,15.651,3.16,21.294,8.681c0.075,0.077,0.15,0.155,0.229,0.232c12.995,13.005,31.005,20.464,49.413,20.464h73.963
		C393.365,424.634,331.257,482,256,482L256,482z M449.866,288.134c0,18.564-15.131,33.199-33.2,33.199h-89.73
		c-10.392,0-20.558-4.161-27.948-11.429c-0.081-0.084-0.162-0.168-0.245-0.252c-11.246-11.246-26.824-17.696-42.741-17.696
		c-15.916,0-31.494,6.45-42.74,17.696c-0.083,0.082-0.166,0.166-0.247,0.252c-7.391,7.268-17.557,11.429-27.948,11.429H95.333
		c-18.013,0-33.2-14.572-33.2-33.199V159.6c0-18.306,14.894-33.199,33.2-33.199h321.332c18.308,0,33.2,14.894,33.2,33.199
		L449.866,288.134L449.866,288.134z"/>
</g>
</svg>
